<?xml version="1.0" encoding="utf-8" standalone="no"?>
<!DOCTYPE svg PUBLIC "-//W3C//DTD SVG 1.1//EN"
  "http://www.w3.org/Graphics/SVG/1.1/DTD/svg11.dtd">
<!-- Created with matplotlib (http://matplotlib.org/) -->
<svg height="278pt" version="1.1" viewBox="0 0 408 278" width="408pt" xmlns="http://www.w3.org/2000/svg" xmlns:xlink="http://www.w3.org/1999/xlink">
 <defs>
  <style type="text/css">
*{stroke-linecap:butt;stroke-linejoin:round;stroke-miterlimit:100000;}
  </style>
 </defs>
 <g id="figure_1">
  <g id="patch_1">
   <path d="M 0 278.318125 
L 408.8075 278.318125 
L 408.8075 0 
L 0 0 
L 0 278.318125 
z
" style="fill:none;"/>
  </g>
  <g id="axes_1">
   <g id="patch_2">
    <path d="M 57.26375 131.694545 
L 392.06375 131.694545 
L 392.06375 30.24 
L 57.26375 30.24 
z
" style="fill:#e5e5e5;"/>
   </g>
   <g id="matplotlib.axis_1">
    <g id="xtick_1">
     <g id="line2d_1">
      <path clip-path="url(#p1fdb12a146)" d="M 57.26375 131.694545 
L 57.26375 30.24 
" style="fill:none;stroke:#ffffff;stroke-linecap:square;stroke-width:0.5;"/>
     </g>
     <g id="line2d_2">
      <defs>
       <path d="M 0 0 
L 0 4 
" id="mc1c7bd0fdc" style="stroke:#555555;stroke-width:0.5;"/>
      </defs>
      <g>
       <use style="fill:#555555;stroke:#555555;stroke-width:0.5;" x="57.26375" xlink:href="#mc1c7bd0fdc" y="131.694545455"/>
      </g>
     </g>
     <g id="line2d_3">
      <defs>
       <path d="M 0 0 
L 0 -4 
" id="m050b0179a3" style="stroke:#555555;stroke-width:0.5;"/>
      </defs>
      <g>
       <use style="fill:#555555;stroke:#555555;stroke-width:0.5;" x="57.26375" xlink:href="#m050b0179a3" y="30.24"/>
      </g>
     </g>
    </g>
    <g id="xtick_2">
     <g id="line2d_4">
      <path clip-path="url(#p1fdb12a146)" d="M 140.96375 131.694545 
L 140.96375 30.24 
" style="fill:none;stroke:#ffffff;stroke-linecap:square;stroke-width:0.5;"/>
     </g>
     <g id="line2d_5">
      <g>
       <use style="fill:#555555;stroke:#555555;stroke-width:0.5;" x="140.96375" xlink:href="#mc1c7bd0fdc" y="131.694545455"/>
      </g>
     </g>
     <g id="line2d_6">
      <g>
       <use style="fill:#555555;stroke:#555555;stroke-width:0.5;" x="140.96375" xlink:href="#m050b0179a3" y="30.24"/>
      </g>
     </g>
    </g>
    <g id="xtick_3">
     <g id="line2d_7">
      <path clip-path="url(#p1fdb12a146)" d="M 224.66375 131.694545 
L 224.66375 30.24 
" style="fill:none;stroke:#ffffff;stroke-linecap:square;stroke-width:0.5;"/>
     </g>
     <g id="line2d_8">
      <g>
       <use style="fill:#555555;stroke:#555555;stroke-width:0.5;" x="224.66375" xlink:href="#mc1c7bd0fdc" y="131.694545455"/>
      </g>
     </g>
     <g id="line2d_9">
      <g>
       <use style="fill:#555555;stroke:#555555;stroke-width:0.5;" x="224.66375" xlink:href="#m050b0179a3" y="30.24"/>
      </g>
     </g>
    </g>
    <g id="xtick_4">
     <g id="line2d_10">
      <path clip-path="url(#p1fdb12a146)" d="M 308.36375 131.694545 
L 308.36375 30.24 
" style="fill:none;stroke:#ffffff;stroke-linecap:square;stroke-width:0.5;"/>
     </g>
     <g id="line2d_11">
      <g>
       <use style="fill:#555555;stroke:#555555;stroke-width:0.5;" x="308.36375" xlink:href="#mc1c7bd0fdc" y="131.694545455"/>
      </g>
     </g>
     <g id="line2d_12">
      <g>
       <use style="fill:#555555;stroke:#555555;stroke-width:0.5;" x="308.36375" xlink:href="#m050b0179a3" y="30.24"/>
      </g>
     </g>
    </g>
    <g id="xtick_5">
     <g id="line2d_13">
      <path clip-path="url(#p1fdb12a146)" d="M 392.06375 131.694545 
L 392.06375 30.24 
" style="fill:none;stroke:#ffffff;stroke-linecap:square;stroke-width:0.5;"/>
     </g>
     <g id="line2d_14">
      <g>
       <use style="fill:#555555;stroke:#555555;stroke-width:0.5;" x="392.06375" xlink:href="#mc1c7bd0fdc" y="131.694545455"/>
      </g>
     </g>
     <g id="line2d_15">
      <g>
       <use style="fill:#555555;stroke:#555555;stroke-width:0.5;" x="392.06375" xlink:href="#m050b0179a3" y="30.24"/>
      </g>
     </g>
    </g>
   </g>
   <g id="matplotlib.axis_2">
    <g id="ytick_1">
     <g id="line2d_16">
      <path clip-path="url(#p1fdb12a146)" d="M 57.26375 131.694545 
L 392.06375 131.694545 
" style="fill:none;stroke:#ffffff;stroke-linecap:square;stroke-width:0.5;"/>
     </g>
     <g id="line2d_17">
      <defs>
       <path d="M 0 0 
L -4 0 
" id="m512d5e413f" style="stroke:#555555;stroke-width:0.5;"/>
      </defs>
      <g>
       <use style="fill:#555555;stroke:#555555;stroke-width:0.5;" x="57.26375" xlink:href="#m512d5e413f" y="131.694545455"/>
      </g>
     </g>
     <g id="line2d_18">
      <defs>
       <path d="M 0 0 
L 4 0 
" id="m8e6b2e8684" style="stroke:#555555;stroke-width:0.5;"/>
      </defs>
      <g>
       <use style="fill:#555555;stroke:#555555;stroke-width:0.5;" x="392.06375" xlink:href="#m8e6b2e8684" y="131.694545455"/>
      </g>
     </g>
     <g id="text_1">
      <!-- 0 -->
      <defs>
       <path d="M 31.78125 66.40625 
Q 24.171875 66.40625 20.328125 58.90625 
Q 16.5 51.421875 16.5 36.375 
Q 16.5 21.390625 20.328125 13.890625 
Q 24.171875 6.390625 31.78125 6.390625 
Q 39.453125 6.390625 43.28125 13.890625 
Q 47.125 21.390625 47.125 36.375 
Q 47.125 51.421875 43.28125 58.90625 
Q 39.453125 66.40625 31.78125 66.40625 
M 31.78125 74.21875 
Q 44.046875 74.21875 50.515625 64.515625 
Q 56.984375 54.828125 56.984375 36.375 
Q 56.984375 17.96875 50.515625 8.265625 
Q 44.046875 -1.421875 31.78125 -1.421875 
Q 19.53125 -1.421875 13.0625 8.265625 
Q 6.59375 17.96875 6.59375 36.375 
Q 6.59375 54.828125 13.0625 64.515625 
Q 19.53125 74.21875 31.78125 74.21875 
" id="BitstreamVeraSans-Roman-30"/>
      </defs>
      <g style="fill:#555555;" transform="translate(42.90125 134.453920455)scale(0.1 -0.1)">
       <use xlink:href="#BitstreamVeraSans-Roman-30"/>
      </g>
     </g>
    </g>
    <g id="ytick_2">
     <g id="line2d_19">
      <path clip-path="url(#p1fdb12a146)" d="M 57.26375 111.403636 
L 392.06375 111.403636 
" style="fill:none;stroke:#ffffff;stroke-linecap:square;stroke-width:0.5;"/>
     </g>
     <g id="line2d_20">
      <g>
       <use style="fill:#555555;stroke:#555555;stroke-width:0.5;" x="57.26375" xlink:href="#m512d5e413f" y="111.403636364"/>
      </g>
     </g>
     <g id="line2d_21">
      <g>
       <use style="fill:#555555;stroke:#555555;stroke-width:0.5;" x="392.06375" xlink:href="#m8e6b2e8684" y="111.403636364"/>
      </g>
     </g>
     <g id="text_2">
      <!-- 500 -->
      <defs>
       <path d="M 10.796875 72.90625 
L 49.515625 72.90625 
L 49.515625 64.59375 
L 19.828125 64.59375 
L 19.828125 46.734375 
Q 21.96875 47.46875 24.109375 47.828125 
Q 26.265625 48.1875 28.421875 48.1875 
Q 40.625 48.1875 47.75 41.5 
Q 54.890625 34.8125 54.890625 23.390625 
Q 54.890625 11.625 47.5625 5.09375 
Q 40.234375 -1.421875 26.90625 -1.421875 
Q 22.3125 -1.421875 17.546875 -0.640625 
Q 12.796875 0.140625 7.71875 1.703125 
L 7.71875 11.625 
Q 12.109375 9.234375 16.796875 8.0625 
Q 21.484375 6.890625 26.703125 6.890625 
Q 35.15625 6.890625 40.078125 11.328125 
Q 45.015625 15.765625 45.015625 23.390625 
Q 45.015625 31 40.078125 35.4375 
Q 35.15625 39.890625 26.703125 39.890625 
Q 22.75 39.890625 18.8125 39.015625 
Q 14.890625 38.140625 10.796875 36.28125 
z
" id="BitstreamVeraSans-Roman-35"/>
      </defs>
      <g style="fill:#555555;" transform="translate(30.17625 114.163011364)scale(0.1 -0.1)">
       <use xlink:href="#BitstreamVeraSans-Roman-35"/>
       <use x="63.623046875" xlink:href="#BitstreamVeraSans-Roman-30"/>
       <use x="127.24609375" xlink:href="#BitstreamVeraSans-Roman-30"/>
      </g>
     </g>
    </g>
    <g id="ytick_3">
     <g id="line2d_22">
      <path clip-path="url(#p1fdb12a146)" d="M 57.26375 91.112727 
L 392.06375 91.112727 
" style="fill:none;stroke:#ffffff;stroke-linecap:square;stroke-width:0.5;"/>
     </g>
     <g id="line2d_23">
      <g>
       <use style="fill:#555555;stroke:#555555;stroke-width:0.5;" x="57.26375" xlink:href="#m512d5e413f" y="91.1127272727"/>
      </g>
     </g>
     <g id="line2d_24">
      <g>
       <use style="fill:#555555;stroke:#555555;stroke-width:0.5;" x="392.06375" xlink:href="#m8e6b2e8684" y="91.1127272727"/>
      </g>
     </g>
     <g id="text_3">
      <!-- 1000 -->
      <defs>
       <path d="M 12.40625 8.296875 
L 28.515625 8.296875 
L 28.515625 63.921875 
L 10.984375 60.40625 
L 10.984375 69.390625 
L 28.421875 72.90625 
L 38.28125 72.90625 
L 38.28125 8.296875 
L 54.390625 8.296875 
L 54.390625 0 
L 12.40625 0 
z
" id="BitstreamVeraSans-Roman-31"/>
      </defs>
      <g style="fill:#555555;" transform="translate(23.81375 93.8721022727)scale(0.1 -0.1)">
       <use xlink:href="#BitstreamVeraSans-Roman-31"/>
       <use x="63.623046875" xlink:href="#BitstreamVeraSans-Roman-30"/>
       <use x="127.24609375" xlink:href="#BitstreamVeraSans-Roman-30"/>
       <use x="190.869140625" xlink:href="#BitstreamVeraSans-Roman-30"/>
      </g>
     </g>
    </g>
    <g id="ytick_4">
     <g id="line2d_25">
      <path clip-path="url(#p1fdb12a146)" d="M 57.26375 70.821818 
L 392.06375 70.821818 
" style="fill:none;stroke:#ffffff;stroke-linecap:square;stroke-width:0.5;"/>
     </g>
     <g id="line2d_26">
      <g>
       <use style="fill:#555555;stroke:#555555;stroke-width:0.5;" x="57.26375" xlink:href="#m512d5e413f" y="70.8218181818"/>
      </g>
     </g>
     <g id="line2d_27">
      <g>
       <use style="fill:#555555;stroke:#555555;stroke-width:0.5;" x="392.06375" xlink:href="#m8e6b2e8684" y="70.8218181818"/>
      </g>
     </g>
     <g id="text_4">
      <!-- 1500 -->
      <g style="fill:#555555;" transform="translate(23.81375 73.5811931818)scale(0.1 -0.1)">
       <use xlink:href="#BitstreamVeraSans-Roman-31"/>
       <use x="63.623046875" xlink:href="#BitstreamVeraSans-Roman-35"/>
       <use x="127.24609375" xlink:href="#BitstreamVeraSans-Roman-30"/>
       <use x="190.869140625" xlink:href="#BitstreamVeraSans-Roman-30"/>
      </g>
     </g>
    </g>
    <g id="ytick_5">
     <g id="line2d_28">
      <path clip-path="url(#p1fdb12a146)" d="M 57.26375 50.530909 
L 392.06375 50.530909 
" style="fill:none;stroke:#ffffff;stroke-linecap:square;stroke-width:0.5;"/>
     </g>
     <g id="line2d_29">
      <g>
       <use style="fill:#555555;stroke:#555555;stroke-width:0.5;" x="57.26375" xlink:href="#m512d5e413f" y="50.5309090909"/>
      </g>
     </g>
     <g id="line2d_30">
      <g>
       <use style="fill:#555555;stroke:#555555;stroke-width:0.5;" x="392.06375" xlink:href="#m8e6b2e8684" y="50.5309090909"/>
      </g>
     </g>
     <g id="text_5">
      <!-- 2000 -->
      <defs>
       <path d="M 19.1875 8.296875 
L 53.609375 8.296875 
L 53.609375 0 
L 7.328125 0 
L 7.328125 8.296875 
Q 12.9375 14.109375 22.625 23.890625 
Q 32.328125 33.6875 34.8125 36.53125 
Q 39.546875 41.84375 41.421875 45.53125 
Q 43.3125 49.21875 43.3125 52.78125 
Q 43.3125 58.59375 39.234375 62.25 
Q 35.15625 65.921875 28.609375 65.921875 
Q 23.96875 65.921875 18.8125 64.3125 
Q 13.671875 62.703125 7.8125 59.421875 
L 7.8125 69.390625 
Q 13.765625 71.78125 18.9375 73 
Q 24.125 74.21875 28.421875 74.21875 
Q 39.75 74.21875 46.484375 68.546875 
Q 53.21875 62.890625 53.21875 53.421875 
Q 53.21875 48.921875 51.53125 44.890625 
Q 49.859375 40.875 45.40625 35.40625 
Q 44.1875 33.984375 37.640625 27.21875 
Q 31.109375 20.453125 19.1875 8.296875 
" id="BitstreamVeraSans-Roman-32"/>
      </defs>
      <g style="fill:#555555;" transform="translate(23.81375 53.2902840909)scale(0.1 -0.1)">
       <use xlink:href="#BitstreamVeraSans-Roman-32"/>
       <use x="63.623046875" xlink:href="#BitstreamVeraSans-Roman-30"/>
       <use x="127.24609375" xlink:href="#BitstreamVeraSans-Roman-30"/>
       <use x="190.869140625" xlink:href="#BitstreamVeraSans-Roman-30"/>
      </g>
     </g>
    </g>
    <g id="ytick_6">
     <g id="line2d_31">
      <path clip-path="url(#p1fdb12a146)" d="M 57.26375 30.24 
L 392.06375 30.24 
" style="fill:none;stroke:#ffffff;stroke-linecap:square;stroke-width:0.5;"/>
     </g>
     <g id="line2d_32">
      <g>
       <use style="fill:#555555;stroke:#555555;stroke-width:0.5;" x="57.26375" xlink:href="#m512d5e413f" y="30.24"/>
      </g>
     </g>
     <g id="line2d_33">
      <g>
       <use style="fill:#555555;stroke:#555555;stroke-width:0.5;" x="392.06375" xlink:href="#m8e6b2e8684" y="30.24"/>
      </g>
     </g>
     <g id="text_6">
      <!-- 2500 -->
      <g style="fill:#555555;" transform="translate(23.81375 32.999375)scale(0.1 -0.1)">
       <use xlink:href="#BitstreamVeraSans-Roman-32"/>
       <use x="63.623046875" xlink:href="#BitstreamVeraSans-Roman-35"/>
       <use x="127.24609375" xlink:href="#BitstreamVeraSans-Roman-30"/>
       <use x="190.869140625" xlink:href="#BitstreamVeraSans-Roman-30"/>
      </g>
     </g>
    </g>
    <g id="text_7">
     <!-- Word Count -->
     <defs>
      <path id="BitstreamVeraSans-Roman-20"/>
      <path d="M 54.890625 33.015625 
L 54.890625 0 
L 45.90625 0 
L 45.90625 32.71875 
Q 45.90625 40.484375 42.875 44.328125 
Q 39.84375 48.1875 33.796875 48.1875 
Q 26.515625 48.1875 22.3125 43.546875 
Q 18.109375 38.921875 18.109375 30.90625 
L 18.109375 0 
L 9.078125 0 
L 9.078125 54.6875 
L 18.109375 54.6875 
L 18.109375 46.1875 
Q 21.34375 51.125 25.703125 53.5625 
Q 30.078125 56 35.796875 56 
Q 45.21875 56 50.046875 50.171875 
Q 54.890625 44.34375 54.890625 33.015625 
" id="BitstreamVeraSans-Roman-6e"/>
      <path d="M 30.609375 48.390625 
Q 23.390625 48.390625 19.1875 42.75 
Q 14.984375 37.109375 14.984375 27.296875 
Q 14.984375 17.484375 19.15625 11.84375 
Q 23.34375 6.203125 30.609375 6.203125 
Q 37.796875 6.203125 41.984375 11.859375 
Q 46.1875 17.53125 46.1875 27.296875 
Q 46.1875 37.015625 41.984375 42.703125 
Q 37.796875 48.390625 30.609375 48.390625 
M 30.609375 56 
Q 42.328125 56 49.015625 48.375 
Q 55.71875 40.765625 55.71875 27.296875 
Q 55.71875 13.875 49.015625 6.21875 
Q 42.328125 -1.421875 30.609375 -1.421875 
Q 18.84375 -1.421875 12.171875 6.21875 
Q 5.515625 13.875 5.515625 27.296875 
Q 5.515625 40.765625 12.171875 48.375 
Q 18.84375 56 30.609375 56 
" id="BitstreamVeraSans-Roman-6f"/>
      <path d="M 64.40625 67.28125 
L 64.40625 56.890625 
Q 59.421875 61.53125 53.78125 63.8125 
Q 48.140625 66.109375 41.796875 66.109375 
Q 29.296875 66.109375 22.65625 58.46875 
Q 16.015625 50.828125 16.015625 36.375 
Q 16.015625 21.96875 22.65625 14.328125 
Q 29.296875 6.6875 41.796875 6.6875 
Q 48.140625 6.6875 53.78125 8.984375 
Q 59.421875 11.28125 64.40625 15.921875 
L 64.40625 5.609375 
Q 59.234375 2.09375 53.4375 0.328125 
Q 47.65625 -1.421875 41.21875 -1.421875 
Q 24.65625 -1.421875 15.125 8.703125 
Q 5.609375 18.84375 5.609375 36.375 
Q 5.609375 53.953125 15.125 64.078125 
Q 24.65625 74.21875 41.21875 74.21875 
Q 47.75 74.21875 53.53125 72.484375 
Q 59.328125 70.75 64.40625 67.28125 
" id="BitstreamVeraSans-Roman-43"/>
      <path d="M 3.328125 72.90625 
L 13.28125 72.90625 
L 28.609375 11.28125 
L 43.890625 72.90625 
L 54.984375 72.90625 
L 70.3125 11.28125 
L 85.59375 72.90625 
L 95.609375 72.90625 
L 77.296875 0 
L 64.890625 0 
L 49.515625 63.28125 
L 33.984375 0 
L 21.578125 0 
z
" id="BitstreamVeraSans-Roman-57"/>
      <path d="M 45.40625 46.390625 
L 45.40625 75.984375 
L 54.390625 75.984375 
L 54.390625 0 
L 45.40625 0 
L 45.40625 8.203125 
Q 42.578125 3.328125 38.25 0.953125 
Q 33.9375 -1.421875 27.875 -1.421875 
Q 17.96875 -1.421875 11.734375 6.484375 
Q 5.515625 14.40625 5.515625 27.296875 
Q 5.515625 40.1875 11.734375 48.09375 
Q 17.96875 56 27.875 56 
Q 33.9375 56 38.25 53.625 
Q 42.578125 51.265625 45.40625 46.390625 
M 14.796875 27.296875 
Q 14.796875 17.390625 18.875 11.75 
Q 22.953125 6.109375 30.078125 6.109375 
Q 37.203125 6.109375 41.296875 11.75 
Q 45.40625 17.390625 45.40625 27.296875 
Q 45.40625 37.203125 41.296875 42.84375 
Q 37.203125 48.484375 30.078125 48.484375 
Q 22.953125 48.484375 18.875 42.84375 
Q 14.796875 37.203125 14.796875 27.296875 
" id="BitstreamVeraSans-Roman-64"/>
      <path d="M 18.3125 70.21875 
L 18.3125 54.6875 
L 36.8125 54.6875 
L 36.8125 47.703125 
L 18.3125 47.703125 
L 18.3125 18.015625 
Q 18.3125 11.328125 20.140625 9.421875 
Q 21.96875 7.515625 27.59375 7.515625 
L 36.8125 7.515625 
L 36.8125 0 
L 27.59375 0 
Q 17.1875 0 13.234375 3.875 
Q 9.28125 7.765625 9.28125 18.015625 
L 9.28125 47.703125 
L 2.6875 47.703125 
L 2.6875 54.6875 
L 9.28125 54.6875 
L 9.28125 70.21875 
z
" id="BitstreamVeraSans-Roman-74"/>
      <path d="M 8.5 21.578125 
L 8.5 54.6875 
L 17.484375 54.6875 
L 17.484375 21.921875 
Q 17.484375 14.15625 20.5 10.265625 
Q 23.53125 6.390625 29.59375 6.390625 
Q 36.859375 6.390625 41.078125 11.03125 
Q 45.3125 15.671875 45.3125 23.6875 
L 45.3125 54.6875 
L 54.296875 54.6875 
L 54.296875 0 
L 45.3125 0 
L 45.3125 8.40625 
Q 42.046875 3.421875 37.71875 1 
Q 33.40625 -1.421875 27.6875 -1.421875 
Q 18.265625 -1.421875 13.375 4.4375 
Q 8.5 10.296875 8.5 21.578125 
" id="BitstreamVeraSans-Roman-75"/>
      <path d="M 41.109375 46.296875 
Q 39.59375 47.171875 37.8125 47.578125 
Q 36.03125 48 33.890625 48 
Q 26.265625 48 22.1875 43.046875 
Q 18.109375 38.09375 18.109375 28.8125 
L 18.109375 0 
L 9.078125 0 
L 9.078125 54.6875 
L 18.109375 54.6875 
L 18.109375 46.1875 
Q 20.953125 51.171875 25.484375 53.578125 
Q 30.03125 56 36.53125 56 
Q 37.453125 56 38.578125 55.875 
Q 39.703125 55.765625 41.0625 55.515625 
z
" id="BitstreamVeraSans-Roman-72"/>
     </defs>
     <g style="fill:#555555;" transform="translate(16.318125 116.566022727)rotate(-90.0)scale(0.12 -0.12)">
      <use xlink:href="#BitstreamVeraSans-Roman-57"/>
      <use x="98.798828125" xlink:href="#BitstreamVeraSans-Roman-6f"/>
      <use x="159.98046875" xlink:href="#BitstreamVeraSans-Roman-72"/>
      <use x="201.078125" xlink:href="#BitstreamVeraSans-Roman-64"/>
      <use x="264.5546875" xlink:href="#BitstreamVeraSans-Roman-20"/>
      <use x="296.341796875" xlink:href="#BitstreamVeraSans-Roman-43"/>
      <use x="366.166015625" xlink:href="#BitstreamVeraSans-Roman-6f"/>
      <use x="427.34765625" xlink:href="#BitstreamVeraSans-Roman-75"/>
      <use x="490.7265625" xlink:href="#BitstreamVeraSans-Roman-6e"/>
      <use x="554.10546875" xlink:href="#BitstreamVeraSans-Roman-74"/>
     </g>
    </g>
   </g>
   <g id="patch_3">
    <path clip-path="url(#p1fdb12a146)" d="M 57.26375 131.694545 
L 60.645568 131.694545 
L 60.645568 37.950545 
L 57.26375 37.950545 
z
" style="fill:#e24a33;stroke:#eeeeee;stroke-linejoin:miter;stroke-width:0.5;"/>
   </g>
   <g id="patch_4">
    <path clip-path="url(#p1fdb12a146)" d="M 60.645568 131.694545 
L 64.027386 131.694545 
L 64.027386 70.618909 
L 60.645568 70.618909 
z
" style="fill:#e24a33;stroke:#eeeeee;stroke-linejoin:miter;stroke-width:0.5;"/>
   </g>
   <g id="patch_5">
    <path clip-path="url(#p1fdb12a146)" d="M 64.027386 131.694545 
L 67.409205 131.694545 
L 67.409205 79.059927 
L 64.027386 79.059927 
z
" style="fill:#e24a33;stroke:#eeeeee;stroke-linejoin:miter;stroke-width:0.5;"/>
   </g>
   <g id="patch_6">
    <path clip-path="url(#p1fdb12a146)" d="M 67.409205 131.694545 
L 70.791023 131.694545 
L 70.791023 92.2896 
L 67.409205 92.2896 
z
" style="fill:#e24a33;stroke:#eeeeee;stroke-linejoin:miter;stroke-width:0.5;"/>
   </g>
   <g id="patch_7">
    <path clip-path="url(#p1fdb12a146)" d="M 70.791023 131.694545 
L 74.172841 131.694545 
L 74.172841 100.243636 
L 70.791023 100.243636 
z
" style="fill:#e24a33;stroke:#eeeeee;stroke-linejoin:miter;stroke-width:0.5;"/>
   </g>
   <g id="patch_8">
    <path clip-path="url(#p1fdb12a146)" d="M 74.172841 131.694545 
L 77.554659 131.694545 
L 77.554659 108.197673 
L 74.172841 108.197673 
z
" style="fill:#e24a33;stroke:#eeeeee;stroke-linejoin:miter;stroke-width:0.5;"/>
   </g>
   <g id="patch_9">
    <path clip-path="url(#p1fdb12a146)" d="M 77.554659 131.694545 
L 80.936477 131.694545 
L 80.936477 115.583564 
L 77.554659 115.583564 
z
" style="fill:#e24a33;stroke:#eeeeee;stroke-linejoin:miter;stroke-width:0.5;"/>
   </g>
   <g id="patch_10">
    <path clip-path="url(#p1fdb12a146)" d="M 80.936477 131.694545 
L 84.318295 131.694545 
L 84.318295 119.601164 
L 80.936477 119.601164 
z
" style="fill:#e24a33;stroke:#eeeeee;stroke-linejoin:miter;stroke-width:0.5;"/>
   </g>
   <g id="patch_11">
    <path clip-path="url(#p1fdb12a146)" d="M 84.318295 131.694545 
L 87.700114 131.694545 
L 87.700114 121.021527 
L 84.318295 121.021527 
z
" style="fill:#e24a33;stroke:#eeeeee;stroke-linejoin:miter;stroke-width:0.5;"/>
   </g>
   <g id="patch_12">
    <path clip-path="url(#p1fdb12a146)" d="M 87.700114 131.694545 
L 91.081932 131.694545 
L 91.081932 123.253527 
L 87.700114 123.253527 
z
" style="fill:#e24a33;stroke:#eeeeee;stroke-linejoin:miter;stroke-width:0.5;"/>
   </g>
   <g id="patch_13">
    <path clip-path="url(#p1fdb12a146)" d="M 91.081932 131.694545 
L 94.46375 131.694545 
L 94.46375 125.566691 
L 91.081932 125.566691 
z
" style="fill:#e24a33;stroke:#eeeeee;stroke-linejoin:miter;stroke-width:0.5;"/>
   </g>
   <g id="patch_14">
    <path clip-path="url(#p1fdb12a146)" d="M 94.46375 131.694545 
L 97.845568 131.694545 
L 97.845568 126.216 
L 94.46375 126.216 
z
" style="fill:#e24a33;stroke:#eeeeee;stroke-linejoin:miter;stroke-width:0.5;"/>
   </g>
   <g id="patch_15">
    <path clip-path="url(#p1fdb12a146)" d="M 97.845568 131.694545 
L 101.227386 131.694545 
L 101.227386 127.676945 
L 97.845568 127.676945 
z
" style="fill:#e24a33;stroke:#eeeeee;stroke-linejoin:miter;stroke-width:0.5;"/>
   </g>
   <g id="patch_16">
    <path clip-path="url(#p1fdb12a146)" d="M 101.227386 131.694545 
L 104.609205 131.694545 
L 104.609205 128.529164 
L 101.227386 128.529164 
z
" style="fill:#e24a33;stroke:#eeeeee;stroke-linejoin:miter;stroke-width:0.5;"/>
   </g>
   <g id="patch_17">
    <path clip-path="url(#p1fdb12a146)" d="M 104.609205 131.694545 
L 107.991023 131.694545 
L 107.991023 128.366836 
L 104.609205 128.366836 
z
" style="fill:#e24a33;stroke:#eeeeee;stroke-linejoin:miter;stroke-width:0.5;"/>
   </g>
   <g id="patch_18">
    <path clip-path="url(#p1fdb12a146)" d="M 107.991023 131.694545 
L 111.372841 131.694545 
L 111.372841 129.381382 
L 107.991023 129.381382 
z
" style="fill:#e24a33;stroke:#eeeeee;stroke-linejoin:miter;stroke-width:0.5;"/>
   </g>
   <g id="patch_19">
    <path clip-path="url(#p1fdb12a146)" d="M 111.372841 131.694545 
L 114.754659 131.694545 
L 114.754659 129.219055 
L 111.372841 129.219055 
z
" style="fill:#e24a33;stroke:#eeeeee;stroke-linejoin:miter;stroke-width:0.5;"/>
   </g>
   <g id="patch_20">
    <path clip-path="url(#p1fdb12a146)" d="M 114.754659 131.694545 
L 118.136477 131.694545 
L 118.136477 130.030691 
L 114.754659 130.030691 
z
" style="fill:#e24a33;stroke:#eeeeee;stroke-linejoin:miter;stroke-width:0.5;"/>
   </g>
   <g id="patch_21">
    <path clip-path="url(#p1fdb12a146)" d="M 118.136477 131.694545 
L 121.518295 131.694545 
L 121.518295 129.746618 
L 118.136477 129.746618 
z
" style="fill:#e24a33;stroke:#eeeeee;stroke-linejoin:miter;stroke-width:0.5;"/>
   </g>
   <g id="patch_22">
    <path clip-path="url(#p1fdb12a146)" d="M 121.518295 131.694545 
L 124.900114 131.694545 
L 124.900114 130.030691 
L 121.518295 130.030691 
z
" style="fill:#e24a33;stroke:#eeeeee;stroke-linejoin:miter;stroke-width:0.5;"/>
   </g>
   <g id="patch_23">
    <path clip-path="url(#p1fdb12a146)" d="M 124.900114 131.694545 
L 128.281932 131.694545 
L 128.281932 130.274182 
L 124.900114 130.274182 
z
" style="fill:#e24a33;stroke:#eeeeee;stroke-linejoin:miter;stroke-width:0.5;"/>
   </g>
   <g id="patch_24">
    <path clip-path="url(#p1fdb12a146)" d="M 128.281932 131.694545 
L 131.66375 131.694545 
L 131.66375 130.395927 
L 128.281932 130.395927 
z
" style="fill:#e24a33;stroke:#eeeeee;stroke-linejoin:miter;stroke-width:0.5;"/>
   </g>
   <g id="patch_25">
    <path clip-path="url(#p1fdb12a146)" d="M 131.66375 131.694545 
L 135.045568 131.694545 
L 135.045568 130.436509 
L 131.66375 130.436509 
z
" style="fill:#e24a33;stroke:#eeeeee;stroke-linejoin:miter;stroke-width:0.5;"/>
   </g>
   <g id="patch_26">
    <path clip-path="url(#p1fdb12a146)" d="M 135.045568 131.694545 
L 138.427386 131.694545 
L 138.427386 130.720582 
L 135.045568 130.720582 
z
" style="fill:#e24a33;stroke:#eeeeee;stroke-linejoin:miter;stroke-width:0.5;"/>
   </g>
   <g id="patch_27">
    <path clip-path="url(#p1fdb12a146)" d="M 138.427386 131.694545 
L 141.809205 131.694545 
L 141.809205 130.761164 
L 138.427386 130.761164 
z
" style="fill:#e24a33;stroke:#eeeeee;stroke-linejoin:miter;stroke-width:0.5;"/>
   </g>
   <g id="patch_28">
    <path clip-path="url(#p1fdb12a146)" d="M 141.809205 131.694545 
L 145.191023 131.694545 
L 145.191023 130.882909 
L 141.809205 130.882909 
z
" style="fill:#e24a33;stroke:#eeeeee;stroke-linejoin:miter;stroke-width:0.5;"/>
   </g>
   <g id="patch_29">
    <path clip-path="url(#p1fdb12a146)" d="M 145.191023 131.694545 
L 148.572841 131.694545 
L 148.572841 131.045236 
L 145.191023 131.045236 
z
" style="fill:#e24a33;stroke:#eeeeee;stroke-linejoin:miter;stroke-width:0.5;"/>
   </g>
   <g id="patch_30">
    <path clip-path="url(#p1fdb12a146)" d="M 148.572841 131.694545 
L 151.954659 131.694545 
L 151.954659 131.288727 
L 148.572841 131.288727 
z
" style="fill:#e24a33;stroke:#eeeeee;stroke-linejoin:miter;stroke-width:0.5;"/>
   </g>
   <g id="patch_31">
    <path clip-path="url(#p1fdb12a146)" d="M 151.954659 131.694545 
L 155.336477 131.694545 
L 155.336477 131.207564 
L 151.954659 131.207564 
z
" style="fill:#e24a33;stroke:#eeeeee;stroke-linejoin:miter;stroke-width:0.5;"/>
   </g>
   <g id="patch_32">
    <path clip-path="url(#p1fdb12a146)" d="M 155.336477 131.694545 
L 158.718295 131.694545 
L 158.718295 131.369891 
L 155.336477 131.369891 
z
" style="fill:#e24a33;stroke:#eeeeee;stroke-linejoin:miter;stroke-width:0.5;"/>
   </g>
   <g id="patch_33">
    <path clip-path="url(#p1fdb12a146)" d="M 158.718295 131.694545 
L 162.100114 131.694545 
L 162.100114 131.410473 
L 158.718295 131.410473 
z
" style="fill:#e24a33;stroke:#eeeeee;stroke-linejoin:miter;stroke-width:0.5;"/>
   </g>
   <g id="patch_34">
    <path clip-path="url(#p1fdb12a146)" d="M 162.100114 131.694545 
L 165.481932 131.694545 
L 165.481932 131.329309 
L 162.100114 131.329309 
z
" style="fill:#e24a33;stroke:#eeeeee;stroke-linejoin:miter;stroke-width:0.5;"/>
   </g>
   <g id="patch_35">
    <path clip-path="url(#p1fdb12a146)" d="M 165.481932 131.694545 
L 168.86375 131.694545 
L 168.86375 131.451055 
L 165.481932 131.451055 
z
" style="fill:#e24a33;stroke:#eeeeee;stroke-linejoin:miter;stroke-width:0.5;"/>
   </g>
   <g id="patch_36">
    <path clip-path="url(#p1fdb12a146)" d="M 168.86375 131.694545 
L 172.245568 131.694545 
L 172.245568 131.329309 
L 168.86375 131.329309 
z
" style="fill:#e24a33;stroke:#eeeeee;stroke-linejoin:miter;stroke-width:0.5;"/>
   </g>
   <g id="patch_37">
    <path clip-path="url(#p1fdb12a146)" d="M 172.245568 131.694545 
L 175.627386 131.694545 
L 175.627386 131.369891 
L 172.245568 131.369891 
z
" style="fill:#e24a33;stroke:#eeeeee;stroke-linejoin:miter;stroke-width:0.5;"/>
   </g>
   <g id="patch_38">
    <path clip-path="url(#p1fdb12a146)" d="M 175.627386 131.694545 
L 179.009205 131.694545 
L 179.009205 131.613382 
L 175.627386 131.613382 
z
" style="fill:#e24a33;stroke:#eeeeee;stroke-linejoin:miter;stroke-width:0.5;"/>
   </g>
   <g id="patch_39">
    <path clip-path="url(#p1fdb12a146)" d="M 179.009205 131.694545 
L 182.391023 131.694545 
L 182.391023 131.248145 
L 179.009205 131.248145 
z
" style="fill:#e24a33;stroke:#eeeeee;stroke-linejoin:miter;stroke-width:0.5;"/>
   </g>
   <g id="patch_40">
    <path clip-path="url(#p1fdb12a146)" d="M 182.391023 131.694545 
L 185.772841 131.694545 
L 185.772841 131.451055 
L 182.391023 131.451055 
z
" style="fill:#e24a33;stroke:#eeeeee;stroke-linejoin:miter;stroke-width:0.5;"/>
   </g>
   <g id="patch_41">
    <path clip-path="url(#p1fdb12a146)" d="M 185.772841 131.694545 
L 189.154659 131.694545 
L 189.154659 131.451055 
L 185.772841 131.451055 
z
" style="fill:#e24a33;stroke:#eeeeee;stroke-linejoin:miter;stroke-width:0.5;"/>
   </g>
   <g id="patch_42">
    <path clip-path="url(#p1fdb12a146)" d="M 189.154659 131.694545 
L 192.536477 131.694545 
L 192.536477 131.5728 
L 189.154659 131.5728 
z
" style="fill:#e24a33;stroke:#eeeeee;stroke-linejoin:miter;stroke-width:0.5;"/>
   </g>
   <g id="patch_43">
    <path clip-path="url(#p1fdb12a146)" d="M 192.536477 131.694545 
L 195.918295 131.694545 
L 195.918295 131.613382 
L 192.536477 131.613382 
z
" style="fill:#e24a33;stroke:#eeeeee;stroke-linejoin:miter;stroke-width:0.5;"/>
   </g>
   <g id="patch_44">
    <path clip-path="url(#p1fdb12a146)" d="M 195.918295 131.694545 
L 199.300114 131.694545 
L 199.300114 131.613382 
L 195.918295 131.613382 
z
" style="fill:#e24a33;stroke:#eeeeee;stroke-linejoin:miter;stroke-width:0.5;"/>
   </g>
   <g id="patch_45">
    <path clip-path="url(#p1fdb12a146)" d="M 199.300114 131.694545 
L 202.681932 131.694545 
L 202.681932 131.653964 
L 199.300114 131.653964 
z
" style="fill:#e24a33;stroke:#eeeeee;stroke-linejoin:miter;stroke-width:0.5;"/>
   </g>
   <g id="patch_46">
    <path clip-path="url(#p1fdb12a146)" d="M 202.681932 131.694545 
L 206.06375 131.694545 
L 206.06375 131.613382 
L 202.681932 131.613382 
z
" style="fill:#e24a33;stroke:#eeeeee;stroke-linejoin:miter;stroke-width:0.5;"/>
   </g>
   <g id="patch_47">
    <path clip-path="url(#p1fdb12a146)" d="M 206.06375 131.694545 
L 209.445568 131.694545 
L 209.445568 131.613382 
L 206.06375 131.613382 
z
" style="fill:#e24a33;stroke:#eeeeee;stroke-linejoin:miter;stroke-width:0.5;"/>
   </g>
   <g id="patch_48">
    <path clip-path="url(#p1fdb12a146)" d="M 209.445568 131.694545 
L 212.827386 131.694545 
L 212.827386 131.5728 
L 209.445568 131.5728 
z
" style="fill:#e24a33;stroke:#eeeeee;stroke-linejoin:miter;stroke-width:0.5;"/>
   </g>
   <g id="patch_49">
    <path clip-path="url(#p1fdb12a146)" d="M 212.827386 131.694545 
L 216.209205 131.694545 
L 216.209205 131.694545 
L 212.827386 131.694545 
z
" style="fill:#e24a33;stroke:#eeeeee;stroke-linejoin:miter;stroke-width:0.5;"/>
   </g>
   <g id="patch_50">
    <path clip-path="url(#p1fdb12a146)" d="M 216.209205 131.694545 
L 219.591023 131.694545 
L 219.591023 131.694545 
L 216.209205 131.694545 
z
" style="fill:#e24a33;stroke:#eeeeee;stroke-linejoin:miter;stroke-width:0.5;"/>
   </g>
   <g id="patch_51">
    <path clip-path="url(#p1fdb12a146)" d="M 219.591023 131.694545 
L 222.972841 131.694545 
L 222.972841 131.613382 
L 219.591023 131.613382 
z
" style="fill:#e24a33;stroke:#eeeeee;stroke-linejoin:miter;stroke-width:0.5;"/>
   </g>
   <g id="patch_52">
    <path clip-path="url(#p1fdb12a146)" d="M 222.972841 131.694545 
L 226.354659 131.694545 
L 226.354659 131.653964 
L 222.972841 131.653964 
z
" style="fill:#e24a33;stroke:#eeeeee;stroke-linejoin:miter;stroke-width:0.5;"/>
   </g>
   <g id="patch_53">
    <path clip-path="url(#p1fdb12a146)" d="M 226.354659 131.694545 
L 229.736477 131.694545 
L 229.736477 131.694545 
L 226.354659 131.694545 
z
" style="fill:#e24a33;stroke:#eeeeee;stroke-linejoin:miter;stroke-width:0.5;"/>
   </g>
   <g id="patch_54">
    <path clip-path="url(#p1fdb12a146)" d="M 229.736477 131.694545 
L 233.118295 131.694545 
L 233.118295 131.653964 
L 229.736477 131.653964 
z
" style="fill:#e24a33;stroke:#eeeeee;stroke-linejoin:miter;stroke-width:0.5;"/>
   </g>
   <g id="patch_55">
    <path clip-path="url(#p1fdb12a146)" d="M 233.118295 131.694545 
L 236.500114 131.694545 
L 236.500114 131.694545 
L 233.118295 131.694545 
z
" style="fill:#e24a33;stroke:#eeeeee;stroke-linejoin:miter;stroke-width:0.5;"/>
   </g>
   <g id="patch_56">
    <path clip-path="url(#p1fdb12a146)" d="M 236.500114 131.694545 
L 239.881932 131.694545 
L 239.881932 131.694545 
L 236.500114 131.694545 
z
" style="fill:#e24a33;stroke:#eeeeee;stroke-linejoin:miter;stroke-width:0.5;"/>
   </g>
   <g id="patch_57">
    <path clip-path="url(#p1fdb12a146)" d="M 239.881932 131.694545 
L 243.26375 131.694545 
L 243.26375 131.694545 
L 239.881932 131.694545 
z
" style="fill:#e24a33;stroke:#eeeeee;stroke-linejoin:miter;stroke-width:0.5;"/>
   </g>
   <g id="patch_58">
    <path clip-path="url(#p1fdb12a146)" d="M 243.26375 131.694545 
L 246.645568 131.694545 
L 246.645568 131.694545 
L 243.26375 131.694545 
z
" style="fill:#e24a33;stroke:#eeeeee;stroke-linejoin:miter;stroke-width:0.5;"/>
   </g>
   <g id="patch_59">
    <path clip-path="url(#p1fdb12a146)" d="M 246.645568 131.694545 
L 250.027386 131.694545 
L 250.027386 131.694545 
L 246.645568 131.694545 
z
" style="fill:#e24a33;stroke:#eeeeee;stroke-linejoin:miter;stroke-width:0.5;"/>
   </g>
   <g id="patch_60">
    <path clip-path="url(#p1fdb12a146)" d="M 250.027386 131.694545 
L 253.409205 131.694545 
L 253.409205 131.694545 
L 250.027386 131.694545 
z
" style="fill:#e24a33;stroke:#eeeeee;stroke-linejoin:miter;stroke-width:0.5;"/>
   </g>
   <g id="patch_61">
    <path clip-path="url(#p1fdb12a146)" d="M 253.409205 131.694545 
L 256.791023 131.694545 
L 256.791023 131.694545 
L 253.409205 131.694545 
z
" style="fill:#e24a33;stroke:#eeeeee;stroke-linejoin:miter;stroke-width:0.5;"/>
   </g>
   <g id="patch_62">
    <path clip-path="url(#p1fdb12a146)" d="M 256.791023 131.694545 
L 260.172841 131.694545 
L 260.172841 131.694545 
L 256.791023 131.694545 
z
" style="fill:#e24a33;stroke:#eeeeee;stroke-linejoin:miter;stroke-width:0.5;"/>
   </g>
   <g id="patch_63">
    <path clip-path="url(#p1fdb12a146)" d="M 260.172841 131.694545 
L 263.554659 131.694545 
L 263.554659 131.694545 
L 260.172841 131.694545 
z
" style="fill:#e24a33;stroke:#eeeeee;stroke-linejoin:miter;stroke-width:0.5;"/>
   </g>
   <g id="patch_64">
    <path clip-path="url(#p1fdb12a146)" d="M 263.554659 131.694545 
L 266.936477 131.694545 
L 266.936477 131.694545 
L 263.554659 131.694545 
z
" style="fill:#e24a33;stroke:#eeeeee;stroke-linejoin:miter;stroke-width:0.5;"/>
   </g>
   <g id="patch_65">
    <path clip-path="url(#p1fdb12a146)" d="M 266.936477 131.694545 
L 270.318295 131.694545 
L 270.318295 131.694545 
L 266.936477 131.694545 
z
" style="fill:#e24a33;stroke:#eeeeee;stroke-linejoin:miter;stroke-width:0.5;"/>
   </g>
   <g id="patch_66">
    <path clip-path="url(#p1fdb12a146)" d="M 270.318295 131.694545 
L 273.700114 131.694545 
L 273.700114 131.694545 
L 270.318295 131.694545 
z
" style="fill:#e24a33;stroke:#eeeeee;stroke-linejoin:miter;stroke-width:0.5;"/>
   </g>
   <g id="patch_67">
    <path clip-path="url(#p1fdb12a146)" d="M 273.700114 131.694545 
L 277.081932 131.694545 
L 277.081932 131.694545 
L 273.700114 131.694545 
z
" style="fill:#e24a33;stroke:#eeeeee;stroke-linejoin:miter;stroke-width:0.5;"/>
   </g>
   <g id="patch_68">
    <path clip-path="url(#p1fdb12a146)" d="M 277.081932 131.694545 
L 280.46375 131.694545 
L 280.46375 131.694545 
L 277.081932 131.694545 
z
" style="fill:#e24a33;stroke:#eeeeee;stroke-linejoin:miter;stroke-width:0.5;"/>
   </g>
   <g id="patch_69">
    <path clip-path="url(#p1fdb12a146)" d="M 280.46375 131.694545 
L 283.845568 131.694545 
L 283.845568 131.694545 
L 280.46375 131.694545 
z
" style="fill:#e24a33;stroke:#eeeeee;stroke-linejoin:miter;stroke-width:0.5;"/>
   </g>
   <g id="patch_70">
    <path clip-path="url(#p1fdb12a146)" d="M 283.845568 131.694545 
L 287.227386 131.694545 
L 287.227386 131.694545 
L 283.845568 131.694545 
z
" style="fill:#e24a33;stroke:#eeeeee;stroke-linejoin:miter;stroke-width:0.5;"/>
   </g>
   <g id="patch_71">
    <path clip-path="url(#p1fdb12a146)" d="M 287.227386 131.694545 
L 290.609205 131.694545 
L 290.609205 131.694545 
L 287.227386 131.694545 
z
" style="fill:#e24a33;stroke:#eeeeee;stroke-linejoin:miter;stroke-width:0.5;"/>
   </g>
   <g id="patch_72">
    <path clip-path="url(#p1fdb12a146)" d="M 290.609205 131.694545 
L 293.991023 131.694545 
L 293.991023 131.694545 
L 290.609205 131.694545 
z
" style="fill:#e24a33;stroke:#eeeeee;stroke-linejoin:miter;stroke-width:0.5;"/>
   </g>
   <g id="patch_73">
    <path clip-path="url(#p1fdb12a146)" d="M 293.991023 131.694545 
L 297.372841 131.694545 
L 297.372841 131.694545 
L 293.991023 131.694545 
z
" style="fill:#e24a33;stroke:#eeeeee;stroke-linejoin:miter;stroke-width:0.5;"/>
   </g>
   <g id="patch_74">
    <path clip-path="url(#p1fdb12a146)" d="M 297.372841 131.694545 
L 300.754659 131.694545 
L 300.754659 131.694545 
L 297.372841 131.694545 
z
" style="fill:#e24a33;stroke:#eeeeee;stroke-linejoin:miter;stroke-width:0.5;"/>
   </g>
   <g id="patch_75">
    <path clip-path="url(#p1fdb12a146)" d="M 300.754659 131.694545 
L 304.136477 131.694545 
L 304.136477 131.694545 
L 300.754659 131.694545 
z
" style="fill:#e24a33;stroke:#eeeeee;stroke-linejoin:miter;stroke-width:0.5;"/>
   </g>
   <g id="patch_76">
    <path clip-path="url(#p1fdb12a146)" d="M 304.136477 131.694545 
L 307.518295 131.694545 
L 307.518295 131.694545 
L 304.136477 131.694545 
z
" style="fill:#e24a33;stroke:#eeeeee;stroke-linejoin:miter;stroke-width:0.5;"/>
   </g>
   <g id="patch_77">
    <path clip-path="url(#p1fdb12a146)" d="M 307.518295 131.694545 
L 310.900114 131.694545 
L 310.900114 131.694545 
L 307.518295 131.694545 
z
" style="fill:#e24a33;stroke:#eeeeee;stroke-linejoin:miter;stroke-width:0.5;"/>
   </g>
   <g id="patch_78">
    <path clip-path="url(#p1fdb12a146)" d="M 310.900114 131.694545 
L 314.281932 131.694545 
L 314.281932 131.694545 
L 310.900114 131.694545 
z
" style="fill:#e24a33;stroke:#eeeeee;stroke-linejoin:miter;stroke-width:0.5;"/>
   </g>
   <g id="patch_79">
    <path clip-path="url(#p1fdb12a146)" d="M 314.281932 131.694545 
L 317.66375 131.694545 
L 317.66375 131.694545 
L 314.281932 131.694545 
z
" style="fill:#e24a33;stroke:#eeeeee;stroke-linejoin:miter;stroke-width:0.5;"/>
   </g>
   <g id="patch_80">
    <path clip-path="url(#p1fdb12a146)" d="M 317.66375 131.694545 
L 321.045568 131.694545 
L 321.045568 131.694545 
L 317.66375 131.694545 
z
" style="fill:#e24a33;stroke:#eeeeee;stroke-linejoin:miter;stroke-width:0.5;"/>
   </g>
   <g id="patch_81">
    <path clip-path="url(#p1fdb12a146)" d="M 321.045568 131.694545 
L 324.427386 131.694545 
L 324.427386 131.694545 
L 321.045568 131.694545 
z
" style="fill:#e24a33;stroke:#eeeeee;stroke-linejoin:miter;stroke-width:0.5;"/>
   </g>
   <g id="patch_82">
    <path clip-path="url(#p1fdb12a146)" d="M 324.427386 131.694545 
L 327.809205 131.694545 
L 327.809205 131.694545 
L 324.427386 131.694545 
z
" style="fill:#e24a33;stroke:#eeeeee;stroke-linejoin:miter;stroke-width:0.5;"/>
   </g>
   <g id="patch_83">
    <path clip-path="url(#p1fdb12a146)" d="M 327.809205 131.694545 
L 331.191023 131.694545 
L 331.191023 131.694545 
L 327.809205 131.694545 
z
" style="fill:#e24a33;stroke:#eeeeee;stroke-linejoin:miter;stroke-width:0.5;"/>
   </g>
   <g id="patch_84">
    <path clip-path="url(#p1fdb12a146)" d="M 331.191023 131.694545 
L 334.572841 131.694545 
L 334.572841 131.694545 
L 331.191023 131.694545 
z
" style="fill:#e24a33;stroke:#eeeeee;stroke-linejoin:miter;stroke-width:0.5;"/>
   </g>
   <g id="patch_85">
    <path clip-path="url(#p1fdb12a146)" d="M 334.572841 131.694545 
L 337.954659 131.694545 
L 337.954659 131.694545 
L 334.572841 131.694545 
z
" style="fill:#e24a33;stroke:#eeeeee;stroke-linejoin:miter;stroke-width:0.5;"/>
   </g>
   <g id="patch_86">
    <path clip-path="url(#p1fdb12a146)" d="M 337.954659 131.694545 
L 341.336477 131.694545 
L 341.336477 131.694545 
L 337.954659 131.694545 
z
" style="fill:#e24a33;stroke:#eeeeee;stroke-linejoin:miter;stroke-width:0.5;"/>
   </g>
   <g id="patch_87">
    <path clip-path="url(#p1fdb12a146)" d="M 341.336477 131.694545 
L 344.718295 131.694545 
L 344.718295 131.694545 
L 341.336477 131.694545 
z
" style="fill:#e24a33;stroke:#eeeeee;stroke-linejoin:miter;stroke-width:0.5;"/>
   </g>
   <g id="patch_88">
    <path clip-path="url(#p1fdb12a146)" d="M 344.718295 131.694545 
L 348.100114 131.694545 
L 348.100114 131.694545 
L 344.718295 131.694545 
z
" style="fill:#e24a33;stroke:#eeeeee;stroke-linejoin:miter;stroke-width:0.5;"/>
   </g>
   <g id="patch_89">
    <path clip-path="url(#p1fdb12a146)" d="M 348.100114 131.694545 
L 351.481932 131.694545 
L 351.481932 131.694545 
L 348.100114 131.694545 
z
" style="fill:#e24a33;stroke:#eeeeee;stroke-linejoin:miter;stroke-width:0.5;"/>
   </g>
   <g id="patch_90">
    <path clip-path="url(#p1fdb12a146)" d="M 351.481932 131.694545 
L 354.86375 131.694545 
L 354.86375 131.694545 
L 351.481932 131.694545 
z
" style="fill:#e24a33;stroke:#eeeeee;stroke-linejoin:miter;stroke-width:0.5;"/>
   </g>
   <g id="patch_91">
    <path clip-path="url(#p1fdb12a146)" d="M 354.86375 131.694545 
L 358.245568 131.694545 
L 358.245568 131.694545 
L 354.86375 131.694545 
z
" style="fill:#e24a33;stroke:#eeeeee;stroke-linejoin:miter;stroke-width:0.5;"/>
   </g>
   <g id="patch_92">
    <path clip-path="url(#p1fdb12a146)" d="M 358.245568 131.694545 
L 361.627386 131.694545 
L 361.627386 131.694545 
L 358.245568 131.694545 
z
" style="fill:#e24a33;stroke:#eeeeee;stroke-linejoin:miter;stroke-width:0.5;"/>
   </g>
   <g id="patch_93">
    <path clip-path="url(#p1fdb12a146)" d="M 361.627386 131.694545 
L 365.009205 131.694545 
L 365.009205 131.694545 
L 361.627386 131.694545 
z
" style="fill:#e24a33;stroke:#eeeeee;stroke-linejoin:miter;stroke-width:0.5;"/>
   </g>
   <g id="patch_94">
    <path clip-path="url(#p1fdb12a146)" d="M 365.009205 131.694545 
L 368.391023 131.694545 
L 368.391023 131.694545 
L 365.009205 131.694545 
z
" style="fill:#e24a33;stroke:#eeeeee;stroke-linejoin:miter;stroke-width:0.5;"/>
   </g>
   <g id="patch_95">
    <path clip-path="url(#p1fdb12a146)" d="M 368.391023 131.694545 
L 371.772841 131.694545 
L 371.772841 131.694545 
L 368.391023 131.694545 
z
" style="fill:#e24a33;stroke:#eeeeee;stroke-linejoin:miter;stroke-width:0.5;"/>
   </g>
   <g id="patch_96">
    <path clip-path="url(#p1fdb12a146)" d="M 371.772841 131.694545 
L 375.154659 131.694545 
L 375.154659 131.694545 
L 371.772841 131.694545 
z
" style="fill:#e24a33;stroke:#eeeeee;stroke-linejoin:miter;stroke-width:0.5;"/>
   </g>
   <g id="patch_97">
    <path clip-path="url(#p1fdb12a146)" d="M 375.154659 131.694545 
L 378.536477 131.694545 
L 378.536477 131.694545 
L 375.154659 131.694545 
z
" style="fill:#e24a33;stroke:#eeeeee;stroke-linejoin:miter;stroke-width:0.5;"/>
   </g>
   <g id="patch_98">
    <path clip-path="url(#p1fdb12a146)" d="M 378.536477 131.694545 
L 381.918295 131.694545 
L 381.918295 131.694545 
L 378.536477 131.694545 
z
" style="fill:#e24a33;stroke:#eeeeee;stroke-linejoin:miter;stroke-width:0.5;"/>
   </g>
   <g id="patch_99">
    <path clip-path="url(#p1fdb12a146)" d="M 381.918295 131.694545 
L 385.300114 131.694545 
L 385.300114 131.694545 
L 381.918295 131.694545 
z
" style="fill:#e24a33;stroke:#eeeeee;stroke-linejoin:miter;stroke-width:0.5;"/>
   </g>
   <g id="patch_100">
    <path clip-path="url(#p1fdb12a146)" d="M 385.300114 131.694545 
L 388.681932 131.694545 
L 388.681932 131.694545 
L 385.300114 131.694545 
z
" style="fill:#e24a33;stroke:#eeeeee;stroke-linejoin:miter;stroke-width:0.5;"/>
   </g>
   <g id="patch_101">
    <path clip-path="url(#p1fdb12a146)" d="M 388.681932 131.694545 
L 392.06375 131.694545 
L 392.06375 131.694545 
L 388.681932 131.694545 
z
" style="fill:#e24a33;stroke:#eeeeee;stroke-linejoin:miter;stroke-width:0.5;"/>
   </g>
   <g id="patch_102">
    <path d="M 57.26375 30.24 
L 392.06375 30.24 
" style="fill:none;stroke:#ffffff;stroke-linecap:square;stroke-linejoin:miter;"/>
   </g>
   <g id="patch_103">
    <path d="M 392.06375 131.694545 
L 392.06375 30.24 
" style="fill:none;stroke:#ffffff;stroke-linecap:square;stroke-linejoin:miter;"/>
   </g>
   <g id="patch_104">
    <path d="M 57.26375 131.694545 
L 392.06375 131.694545 
" style="fill:none;stroke:#ffffff;stroke-linecap:square;stroke-linejoin:miter;"/>
   </g>
   <g id="patch_105">
    <path d="M 57.26375 131.694545 
L 57.26375 30.24 
" style="fill:none;stroke:#ffffff;stroke-linecap:square;stroke-linejoin:miter;"/>
   </g>
   <g id="text_8">
    <!-- Non-Codewords -->
    <defs>
     <path d="M 56.203125 29.59375 
L 56.203125 25.203125 
L 14.890625 25.203125 
Q 15.484375 15.921875 20.484375 11.0625 
Q 25.484375 6.203125 34.421875 6.203125 
Q 39.59375 6.203125 44.453125 7.46875 
Q 49.3125 8.734375 54.109375 11.28125 
L 54.109375 2.78125 
Q 49.265625 0.734375 44.1875 -0.34375 
Q 39.109375 -1.421875 33.890625 -1.421875 
Q 20.796875 -1.421875 13.15625 6.1875 
Q 5.515625 13.8125 5.515625 26.8125 
Q 5.515625 40.234375 12.765625 48.109375 
Q 20.015625 56 32.328125 56 
Q 43.359375 56 49.78125 48.890625 
Q 56.203125 41.796875 56.203125 29.59375 
M 47.21875 32.234375 
Q 47.125 39.59375 43.09375 43.984375 
Q 39.0625 48.390625 32.421875 48.390625 
Q 24.90625 48.390625 20.390625 44.140625 
Q 15.875 39.890625 15.1875 32.171875 
z
" id="BitstreamVeraSans-Roman-65"/>
     <path d="M 4.203125 54.6875 
L 13.1875 54.6875 
L 24.421875 12.015625 
L 35.59375 54.6875 
L 46.1875 54.6875 
L 57.421875 12.015625 
L 68.609375 54.6875 
L 77.59375 54.6875 
L 63.28125 0 
L 52.6875 0 
L 40.921875 44.828125 
L 29.109375 0 
L 18.5 0 
z
" id="BitstreamVeraSans-Roman-77"/>
     <path d="M 9.8125 72.90625 
L 23.09375 72.90625 
L 55.421875 11.921875 
L 55.421875 72.90625 
L 64.984375 72.90625 
L 64.984375 0 
L 51.703125 0 
L 19.390625 60.984375 
L 19.390625 0 
L 9.8125 0 
z
" id="BitstreamVeraSans-Roman-4e"/>
     <path d="M 4.890625 31.390625 
L 31.203125 31.390625 
L 31.203125 23.390625 
L 4.890625 23.390625 
z
" id="BitstreamVeraSans-Roman-2d"/>
     <path d="M 44.28125 53.078125 
L 44.28125 44.578125 
Q 40.484375 46.53125 36.375 47.5 
Q 32.28125 48.484375 27.875 48.484375 
Q 21.1875 48.484375 17.84375 46.4375 
Q 14.5 44.390625 14.5 40.28125 
Q 14.5 37.15625 16.890625 35.375 
Q 19.28125 33.59375 26.515625 31.984375 
L 29.59375 31.296875 
Q 39.15625 29.25 43.1875 25.515625 
Q 47.21875 21.78125 47.21875 15.09375 
Q 47.21875 7.46875 41.1875 3.015625 
Q 35.15625 -1.421875 24.609375 -1.421875 
Q 20.21875 -1.421875 15.453125 -0.5625 
Q 10.6875 0.296875 5.421875 2 
L 5.421875 11.28125 
Q 10.40625 8.6875 15.234375 7.390625 
Q 20.0625 6.109375 24.8125 6.109375 
Q 31.15625 6.109375 34.5625 8.28125 
Q 37.984375 10.453125 37.984375 14.40625 
Q 37.984375 18.0625 35.515625 20.015625 
Q 33.0625 21.96875 24.703125 23.78125 
L 21.578125 24.515625 
Q 13.234375 26.265625 9.515625 29.90625 
Q 5.8125 33.546875 5.8125 39.890625 
Q 5.8125 47.609375 11.28125 51.796875 
Q 16.75 56 26.8125 56 
Q 31.78125 56 36.171875 55.265625 
Q 40.578125 54.546875 44.28125 53.078125 
" id="BitstreamVeraSans-Roman-73"/>
    </defs>
    <g transform="translate(167.70275 25.24)scale(0.144 -0.144)">
     <use xlink:href="#BitstreamVeraSans-Roman-4e"/>
     <use x="74.8046875" xlink:href="#BitstreamVeraSans-Roman-6f"/>
     <use x="135.986328125" xlink:href="#BitstreamVeraSans-Roman-6e"/>
     <use x="199.365234375" xlink:href="#BitstreamVeraSans-Roman-2d"/>
     <use x="235.44921875" xlink:href="#BitstreamVeraSans-Roman-43"/>
     <use x="305.2734375" xlink:href="#BitstreamVeraSans-Roman-6f"/>
     <use x="366.455078125" xlink:href="#BitstreamVeraSans-Roman-64"/>
     <use x="429.931640625" xlink:href="#BitstreamVeraSans-Roman-65"/>
     <use x="491.455078125" xlink:href="#BitstreamVeraSans-Roman-77"/>
     <use x="573.2421875" xlink:href="#BitstreamVeraSans-Roman-6f"/>
     <use x="634.423828125" xlink:href="#BitstreamVeraSans-Roman-72"/>
     <use x="675.521484375" xlink:href="#BitstreamVeraSans-Roman-64"/>
     <use x="738.998046875" xlink:href="#BitstreamVeraSans-Roman-73"/>
    </g>
   </g>
  </g>
  <g id="axes_2">
   <g id="patch_106">
    <path d="M 57.26375 253.44 
L 392.06375 253.44 
L 392.06375 151.985455 
L 57.26375 151.985455 
z
" style="fill:#e5e5e5;"/>
   </g>
   <g id="matplotlib.axis_3">
    <g id="xtick_6">
     <g id="line2d_34">
      <path clip-path="url(#pacdd2afd4f)" d="M 57.26375 253.44 
L 57.26375 151.985455 
" style="fill:none;stroke:#ffffff;stroke-linecap:square;stroke-width:0.5;"/>
     </g>
     <g id="line2d_35">
      <g>
       <use style="fill:#555555;stroke:#555555;stroke-width:0.5;" x="57.26375" xlink:href="#mc1c7bd0fdc" y="253.44"/>
      </g>
     </g>
     <g id="line2d_36">
      <g>
       <use style="fill:#555555;stroke:#555555;stroke-width:0.5;" x="57.26375" xlink:href="#m050b0179a3" y="151.985454545"/>
      </g>
     </g>
     <g id="text_9">
      <!-- 0 -->
      <g style="fill:#555555;" transform="translate(54.0825 269.0384375)scale(0.1 -0.1)">
       <use xlink:href="#BitstreamVeraSans-Roman-30"/>
      </g>
     </g>
    </g>
    <g id="xtick_7">
     <g id="line2d_37">
      <path clip-path="url(#pacdd2afd4f)" d="M 140.96375 253.44 
L 140.96375 151.985455 
" style="fill:none;stroke:#ffffff;stroke-linecap:square;stroke-width:0.5;"/>
     </g>
     <g id="line2d_38">
      <g>
       <use style="fill:#555555;stroke:#555555;stroke-width:0.5;" x="140.96375" xlink:href="#mc1c7bd0fdc" y="253.44"/>
      </g>
     </g>
     <g id="line2d_39">
      <g>
       <use style="fill:#555555;stroke:#555555;stroke-width:0.5;" x="140.96375" xlink:href="#m050b0179a3" y="151.985454545"/>
      </g>
     </g>
     <g id="text_10">
      <!-- 50 -->
      <g style="fill:#555555;" transform="translate(134.60125 269.0384375)scale(0.1 -0.1)">
       <use xlink:href="#BitstreamVeraSans-Roman-35"/>
       <use x="63.623046875" xlink:href="#BitstreamVeraSans-Roman-30"/>
      </g>
     </g>
    </g>
    <g id="xtick_8">
     <g id="line2d_40">
      <path clip-path="url(#pacdd2afd4f)" d="M 224.66375 253.44 
L 224.66375 151.985455 
" style="fill:none;stroke:#ffffff;stroke-linecap:square;stroke-width:0.5;"/>
     </g>
     <g id="line2d_41">
      <g>
       <use style="fill:#555555;stroke:#555555;stroke-width:0.5;" x="224.66375" xlink:href="#mc1c7bd0fdc" y="253.44"/>
      </g>
     </g>
     <g id="line2d_42">
      <g>
       <use style="fill:#555555;stroke:#555555;stroke-width:0.5;" x="224.66375" xlink:href="#m050b0179a3" y="151.985454545"/>
      </g>
     </g>
     <g id="text_11">
      <!-- 100 -->
      <g style="fill:#555555;" transform="translate(215.12 269.0384375)scale(0.1 -0.1)">
       <use xlink:href="#BitstreamVeraSans-Roman-31"/>
       <use x="63.623046875" xlink:href="#BitstreamVeraSans-Roman-30"/>
       <use x="127.24609375" xlink:href="#BitstreamVeraSans-Roman-30"/>
      </g>
     </g>
    </g>
    <g id="xtick_9">
     <g id="line2d_43">
      <path clip-path="url(#pacdd2afd4f)" d="M 308.36375 253.44 
L 308.36375 151.985455 
" style="fill:none;stroke:#ffffff;stroke-linecap:square;stroke-width:0.5;"/>
     </g>
     <g id="line2d_44">
      <g>
       <use style="fill:#555555;stroke:#555555;stroke-width:0.5;" x="308.36375" xlink:href="#mc1c7bd0fdc" y="253.44"/>
      </g>
     </g>
     <g id="line2d_45">
      <g>
       <use style="fill:#555555;stroke:#555555;stroke-width:0.5;" x="308.36375" xlink:href="#m050b0179a3" y="151.985454545"/>
      </g>
     </g>
     <g id="text_12">
      <!-- 150 -->
      <g style="fill:#555555;" transform="translate(298.82 269.0384375)scale(0.1 -0.1)">
       <use xlink:href="#BitstreamVeraSans-Roman-31"/>
       <use x="63.623046875" xlink:href="#BitstreamVeraSans-Roman-35"/>
       <use x="127.24609375" xlink:href="#BitstreamVeraSans-Roman-30"/>
      </g>
     </g>
    </g>
    <g id="xtick_10">
     <g id="line2d_46">
      <path clip-path="url(#pacdd2afd4f)" d="M 392.06375 253.44 
L 392.06375 151.985455 
" style="fill:none;stroke:#ffffff;stroke-linecap:square;stroke-width:0.5;"/>
     </g>
     <g id="line2d_47">
      <g>
       <use style="fill:#555555;stroke:#555555;stroke-width:0.5;" x="392.06375" xlink:href="#mc1c7bd0fdc" y="253.44"/>
      </g>
     </g>
     <g id="line2d_48">
      <g>
       <use style="fill:#555555;stroke:#555555;stroke-width:0.5;" x="392.06375" xlink:href="#m050b0179a3" y="151.985454545"/>
      </g>
     </g>
     <g id="text_13">
      <!-- 200 -->
      <g style="fill:#555555;" transform="translate(382.52 269.0384375)scale(0.1 -0.1)">
       <use xlink:href="#BitstreamVeraSans-Roman-32"/>
       <use x="63.623046875" xlink:href="#BitstreamVeraSans-Roman-30"/>
       <use x="127.24609375" xlink:href="#BitstreamVeraSans-Roman-30"/>
      </g>
     </g>
    </g>
   </g>
   <g id="matplotlib.axis_4">
    <g id="ytick_7">
     <g id="line2d_49">
      <path clip-path="url(#pacdd2afd4f)" d="M 57.26375 253.44 
L 392.06375 253.44 
" style="fill:none;stroke:#ffffff;stroke-linecap:square;stroke-width:0.5;"/>
     </g>
     <g id="line2d_50">
      <g>
       <use style="fill:#555555;stroke:#555555;stroke-width:0.5;" x="57.26375" xlink:href="#m512d5e413f" y="253.44"/>
      </g>
     </g>
     <g id="line2d_51">
      <g>
       <use style="fill:#555555;stroke:#555555;stroke-width:0.5;" x="392.06375" xlink:href="#m8e6b2e8684" y="253.44"/>
      </g>
     </g>
     <g id="text_14">
      <!-- 0 -->
      <g style="fill:#555555;" transform="translate(42.90125 256.199375)scale(0.1 -0.1)">
       <use xlink:href="#BitstreamVeraSans-Roman-30"/>
      </g>
     </g>
    </g>
    <g id="ytick_8">
     <g id="line2d_52">
      <path clip-path="url(#pacdd2afd4f)" d="M 57.26375 240.758182 
L 392.06375 240.758182 
" style="fill:none;stroke:#ffffff;stroke-linecap:square;stroke-width:0.5;"/>
     </g>
     <g id="line2d_53">
      <g>
       <use style="fill:#555555;stroke:#555555;stroke-width:0.5;" x="57.26375" xlink:href="#m512d5e413f" y="240.758181818"/>
      </g>
     </g>
     <g id="line2d_54">
      <g>
       <use style="fill:#555555;stroke:#555555;stroke-width:0.5;" x="392.06375" xlink:href="#m8e6b2e8684" y="240.758181818"/>
      </g>
     </g>
     <g id="text_15">
      <!-- 10 -->
      <g style="fill:#555555;" transform="translate(36.53875 243.517556818)scale(0.1 -0.1)">
       <use xlink:href="#BitstreamVeraSans-Roman-31"/>
       <use x="63.623046875" xlink:href="#BitstreamVeraSans-Roman-30"/>
      </g>
     </g>
    </g>
    <g id="ytick_9">
     <g id="line2d_55">
      <path clip-path="url(#pacdd2afd4f)" d="M 57.26375 228.076364 
L 392.06375 228.076364 
" style="fill:none;stroke:#ffffff;stroke-linecap:square;stroke-width:0.5;"/>
     </g>
     <g id="line2d_56">
      <g>
       <use style="fill:#555555;stroke:#555555;stroke-width:0.5;" x="57.26375" xlink:href="#m512d5e413f" y="228.076363636"/>
      </g>
     </g>
     <g id="line2d_57">
      <g>
       <use style="fill:#555555;stroke:#555555;stroke-width:0.5;" x="392.06375" xlink:href="#m8e6b2e8684" y="228.076363636"/>
      </g>
     </g>
     <g id="text_16">
      <!-- 20 -->
      <g style="fill:#555555;" transform="translate(36.53875 230.835738636)scale(0.1 -0.1)">
       <use xlink:href="#BitstreamVeraSans-Roman-32"/>
       <use x="63.623046875" xlink:href="#BitstreamVeraSans-Roman-30"/>
      </g>
     </g>
    </g>
    <g id="ytick_10">
     <g id="line2d_58">
      <path clip-path="url(#pacdd2afd4f)" d="M 57.26375 215.394545 
L 392.06375 215.394545 
" style="fill:none;stroke:#ffffff;stroke-linecap:square;stroke-width:0.5;"/>
     </g>
     <g id="line2d_59">
      <g>
       <use style="fill:#555555;stroke:#555555;stroke-width:0.5;" x="57.26375" xlink:href="#m512d5e413f" y="215.394545455"/>
      </g>
     </g>
     <g id="line2d_60">
      <g>
       <use style="fill:#555555;stroke:#555555;stroke-width:0.5;" x="392.06375" xlink:href="#m8e6b2e8684" y="215.394545455"/>
      </g>
     </g>
     <g id="text_17">
      <!-- 30 -->
      <defs>
       <path d="M 40.578125 39.3125 
Q 47.65625 37.796875 51.625 33 
Q 55.609375 28.21875 55.609375 21.1875 
Q 55.609375 10.40625 48.1875 4.484375 
Q 40.765625 -1.421875 27.09375 -1.421875 
Q 22.515625 -1.421875 17.65625 -0.515625 
Q 12.796875 0.390625 7.625 2.203125 
L 7.625 11.71875 
Q 11.71875 9.328125 16.59375 8.109375 
Q 21.484375 6.890625 26.8125 6.890625 
Q 36.078125 6.890625 40.9375 10.546875 
Q 45.796875 14.203125 45.796875 21.1875 
Q 45.796875 27.640625 41.28125 31.265625 
Q 36.765625 34.90625 28.71875 34.90625 
L 20.21875 34.90625 
L 20.21875 43.015625 
L 29.109375 43.015625 
Q 36.375 43.015625 40.234375 45.921875 
Q 44.09375 48.828125 44.09375 54.296875 
Q 44.09375 59.90625 40.109375 62.90625 
Q 36.140625 65.921875 28.71875 65.921875 
Q 24.65625 65.921875 20.015625 65.03125 
Q 15.375 64.15625 9.8125 62.3125 
L 9.8125 71.09375 
Q 15.4375 72.65625 20.34375 73.4375 
Q 25.25 74.21875 29.59375 74.21875 
Q 40.828125 74.21875 47.359375 69.109375 
Q 53.90625 64.015625 53.90625 55.328125 
Q 53.90625 49.265625 50.4375 45.09375 
Q 46.96875 40.921875 40.578125 39.3125 
" id="BitstreamVeraSans-Roman-33"/>
      </defs>
      <g style="fill:#555555;" transform="translate(36.53875 218.153920455)scale(0.1 -0.1)">
       <use xlink:href="#BitstreamVeraSans-Roman-33"/>
       <use x="63.623046875" xlink:href="#BitstreamVeraSans-Roman-30"/>
      </g>
     </g>
    </g>
    <g id="ytick_11">
     <g id="line2d_61">
      <path clip-path="url(#pacdd2afd4f)" d="M 57.26375 202.712727 
L 392.06375 202.712727 
" style="fill:none;stroke:#ffffff;stroke-linecap:square;stroke-width:0.5;"/>
     </g>
     <g id="line2d_62">
      <g>
       <use style="fill:#555555;stroke:#555555;stroke-width:0.5;" x="57.26375" xlink:href="#m512d5e413f" y="202.712727273"/>
      </g>
     </g>
     <g id="line2d_63">
      <g>
       <use style="fill:#555555;stroke:#555555;stroke-width:0.5;" x="392.06375" xlink:href="#m8e6b2e8684" y="202.712727273"/>
      </g>
     </g>
     <g id="text_18">
      <!-- 40 -->
      <defs>
       <path d="M 37.796875 64.3125 
L 12.890625 25.390625 
L 37.796875 25.390625 
z
M 35.203125 72.90625 
L 47.609375 72.90625 
L 47.609375 25.390625 
L 58.015625 25.390625 
L 58.015625 17.1875 
L 47.609375 17.1875 
L 47.609375 0 
L 37.796875 0 
L 37.796875 17.1875 
L 4.890625 17.1875 
L 4.890625 26.703125 
z
" id="BitstreamVeraSans-Roman-34"/>
      </defs>
      <g style="fill:#555555;" transform="translate(36.53875 205.472102273)scale(0.1 -0.1)">
       <use xlink:href="#BitstreamVeraSans-Roman-34"/>
       <use x="63.623046875" xlink:href="#BitstreamVeraSans-Roman-30"/>
      </g>
     </g>
    </g>
    <g id="ytick_12">
     <g id="line2d_64">
      <path clip-path="url(#pacdd2afd4f)" d="M 57.26375 190.030909 
L 392.06375 190.030909 
" style="fill:none;stroke:#ffffff;stroke-linecap:square;stroke-width:0.5;"/>
     </g>
     <g id="line2d_65">
      <g>
       <use style="fill:#555555;stroke:#555555;stroke-width:0.5;" x="57.26375" xlink:href="#m512d5e413f" y="190.030909091"/>
      </g>
     </g>
     <g id="line2d_66">
      <g>
       <use style="fill:#555555;stroke:#555555;stroke-width:0.5;" x="392.06375" xlink:href="#m8e6b2e8684" y="190.030909091"/>
      </g>
     </g>
     <g id="text_19">
      <!-- 50 -->
      <g style="fill:#555555;" transform="translate(36.53875 192.790284091)scale(0.1 -0.1)">
       <use xlink:href="#BitstreamVeraSans-Roman-35"/>
       <use x="63.623046875" xlink:href="#BitstreamVeraSans-Roman-30"/>
      </g>
     </g>
    </g>
    <g id="ytick_13">
     <g id="line2d_67">
      <path clip-path="url(#pacdd2afd4f)" d="M 57.26375 177.349091 
L 392.06375 177.349091 
" style="fill:none;stroke:#ffffff;stroke-linecap:square;stroke-width:0.5;"/>
     </g>
     <g id="line2d_68">
      <g>
       <use style="fill:#555555;stroke:#555555;stroke-width:0.5;" x="57.26375" xlink:href="#m512d5e413f" y="177.349090909"/>
      </g>
     </g>
     <g id="line2d_69">
      <g>
       <use style="fill:#555555;stroke:#555555;stroke-width:0.5;" x="392.06375" xlink:href="#m8e6b2e8684" y="177.349090909"/>
      </g>
     </g>
     <g id="text_20">
      <!-- 60 -->
      <defs>
       <path d="M 33.015625 40.375 
Q 26.375 40.375 22.484375 35.828125 
Q 18.609375 31.296875 18.609375 23.390625 
Q 18.609375 15.53125 22.484375 10.953125 
Q 26.375 6.390625 33.015625 6.390625 
Q 39.65625 6.390625 43.53125 10.953125 
Q 47.40625 15.53125 47.40625 23.390625 
Q 47.40625 31.296875 43.53125 35.828125 
Q 39.65625 40.375 33.015625 40.375 
M 52.59375 71.296875 
L 52.59375 62.3125 
Q 48.875 64.0625 45.09375 64.984375 
Q 41.3125 65.921875 37.59375 65.921875 
Q 27.828125 65.921875 22.671875 59.328125 
Q 17.53125 52.734375 16.796875 39.40625 
Q 19.671875 43.65625 24.015625 45.921875 
Q 28.375 48.1875 33.59375 48.1875 
Q 44.578125 48.1875 50.953125 41.515625 
Q 57.328125 34.859375 57.328125 23.390625 
Q 57.328125 12.15625 50.6875 5.359375 
Q 44.046875 -1.421875 33.015625 -1.421875 
Q 20.359375 -1.421875 13.671875 8.265625 
Q 6.984375 17.96875 6.984375 36.375 
Q 6.984375 53.65625 15.1875 63.9375 
Q 23.390625 74.21875 37.203125 74.21875 
Q 40.921875 74.21875 44.703125 73.484375 
Q 48.484375 72.75 52.59375 71.296875 
" id="BitstreamVeraSans-Roman-36"/>
      </defs>
      <g style="fill:#555555;" transform="translate(36.53875 180.108465909)scale(0.1 -0.1)">
       <use xlink:href="#BitstreamVeraSans-Roman-36"/>
       <use x="63.623046875" xlink:href="#BitstreamVeraSans-Roman-30"/>
      </g>
     </g>
    </g>
    <g id="ytick_14">
     <g id="line2d_70">
      <path clip-path="url(#pacdd2afd4f)" d="M 57.26375 164.667273 
L 392.06375 164.667273 
" style="fill:none;stroke:#ffffff;stroke-linecap:square;stroke-width:0.5;"/>
     </g>
     <g id="line2d_71">
      <g>
       <use style="fill:#555555;stroke:#555555;stroke-width:0.5;" x="57.26375" xlink:href="#m512d5e413f" y="164.667272727"/>
      </g>
     </g>
     <g id="line2d_72">
      <g>
       <use style="fill:#555555;stroke:#555555;stroke-width:0.5;" x="392.06375" xlink:href="#m8e6b2e8684" y="164.667272727"/>
      </g>
     </g>
     <g id="text_21">
      <!-- 70 -->
      <defs>
       <path d="M 8.203125 72.90625 
L 55.078125 72.90625 
L 55.078125 68.703125 
L 28.609375 0 
L 18.3125 0 
L 43.21875 64.59375 
L 8.203125 64.59375 
z
" id="BitstreamVeraSans-Roman-37"/>
      </defs>
      <g style="fill:#555555;" transform="translate(36.53875 167.426647727)scale(0.1 -0.1)">
       <use xlink:href="#BitstreamVeraSans-Roman-37"/>
       <use x="63.623046875" xlink:href="#BitstreamVeraSans-Roman-30"/>
      </g>
     </g>
    </g>
    <g id="ytick_15">
     <g id="line2d_73">
      <path clip-path="url(#pacdd2afd4f)" d="M 57.26375 151.985455 
L 392.06375 151.985455 
" style="fill:none;stroke:#ffffff;stroke-linecap:square;stroke-width:0.5;"/>
     </g>
     <g id="line2d_74">
      <g>
       <use style="fill:#555555;stroke:#555555;stroke-width:0.5;" x="57.26375" xlink:href="#m512d5e413f" y="151.985454545"/>
      </g>
     </g>
     <g id="line2d_75">
      <g>
       <use style="fill:#555555;stroke:#555555;stroke-width:0.5;" x="392.06375" xlink:href="#m8e6b2e8684" y="151.985454545"/>
      </g>
     </g>
     <g id="text_22">
      <!-- 80 -->
      <defs>
       <path d="M 31.78125 34.625 
Q 24.75 34.625 20.71875 30.859375 
Q 16.703125 27.09375 16.703125 20.515625 
Q 16.703125 13.921875 20.71875 10.15625 
Q 24.75 6.390625 31.78125 6.390625 
Q 38.8125 6.390625 42.859375 10.171875 
Q 46.921875 13.96875 46.921875 20.515625 
Q 46.921875 27.09375 42.890625 30.859375 
Q 38.875 34.625 31.78125 34.625 
M 21.921875 38.8125 
Q 15.578125 40.375 12.03125 44.71875 
Q 8.5 49.078125 8.5 55.328125 
Q 8.5 64.0625 14.71875 69.140625 
Q 20.953125 74.21875 31.78125 74.21875 
Q 42.671875 74.21875 48.875 69.140625 
Q 55.078125 64.0625 55.078125 55.328125 
Q 55.078125 49.078125 51.53125 44.71875 
Q 48 40.375 41.703125 38.8125 
Q 48.828125 37.15625 52.796875 32.3125 
Q 56.78125 27.484375 56.78125 20.515625 
Q 56.78125 9.90625 50.3125 4.234375 
Q 43.84375 -1.421875 31.78125 -1.421875 
Q 19.734375 -1.421875 13.25 4.234375 
Q 6.78125 9.90625 6.78125 20.515625 
Q 6.78125 27.484375 10.78125 32.3125 
Q 14.796875 37.15625 21.921875 38.8125 
M 18.3125 54.390625 
Q 18.3125 48.734375 21.84375 45.5625 
Q 25.390625 42.390625 31.78125 42.390625 
Q 38.140625 42.390625 41.71875 45.5625 
Q 45.3125 48.734375 45.3125 54.390625 
Q 45.3125 60.0625 41.71875 63.234375 
Q 38.140625 66.40625 31.78125 66.40625 
Q 25.390625 66.40625 21.84375 63.234375 
Q 18.3125 60.0625 18.3125 54.390625 
" id="BitstreamVeraSans-Roman-38"/>
      </defs>
      <g style="fill:#555555;" transform="translate(36.53875 154.744829545)scale(0.1 -0.1)">
       <use xlink:href="#BitstreamVeraSans-Roman-38"/>
       <use x="63.623046875" xlink:href="#BitstreamVeraSans-Roman-30"/>
      </g>
     </g>
    </g>
    <g id="text_23">
     <!-- Word Count -->
     <g style="fill:#555555;" transform="translate(29.043125 238.311477273)rotate(-90.0)scale(0.12 -0.12)">
      <use xlink:href="#BitstreamVeraSans-Roman-57"/>
      <use x="98.798828125" xlink:href="#BitstreamVeraSans-Roman-6f"/>
      <use x="159.98046875" xlink:href="#BitstreamVeraSans-Roman-72"/>
      <use x="201.078125" xlink:href="#BitstreamVeraSans-Roman-64"/>
      <use x="264.5546875" xlink:href="#BitstreamVeraSans-Roman-20"/>
      <use x="296.341796875" xlink:href="#BitstreamVeraSans-Roman-43"/>
      <use x="366.166015625" xlink:href="#BitstreamVeraSans-Roman-6f"/>
      <use x="427.34765625" xlink:href="#BitstreamVeraSans-Roman-75"/>
      <use x="490.7265625" xlink:href="#BitstreamVeraSans-Roman-6e"/>
      <use x="554.10546875" xlink:href="#BitstreamVeraSans-Roman-74"/>
     </g>
    </g>
   </g>
   <g id="patch_107">
    <path clip-path="url(#pacdd2afd4f)" d="M 57.26375 253.44 
L 60.645568 253.44 
L 60.645568 154.521818 
L 57.26375 154.521818 
z
" style="fill:#e24a33;stroke:#eeeeee;stroke-linejoin:miter;stroke-width:0.5;"/>
   </g>
   <g id="patch_108">
    <path clip-path="url(#pacdd2afd4f)" d="M 60.645568 253.44 
L 64.027386 253.44 
L 64.027386 248.367273 
L 60.645568 248.367273 
z
" style="fill:#e24a33;stroke:#eeeeee;stroke-linejoin:miter;stroke-width:0.5;"/>
   </g>
   <g id="patch_109">
    <path clip-path="url(#pacdd2afd4f)" d="M 64.027386 253.44 
L 67.409205 253.44 
L 67.409205 243.294545 
L 64.027386 243.294545 
z
" style="fill:#e24a33;stroke:#eeeeee;stroke-linejoin:miter;stroke-width:0.5;"/>
   </g>
   <g id="patch_110">
    <path clip-path="url(#pacdd2afd4f)" d="M 67.409205 253.44 
L 70.791023 253.44 
L 70.791023 250.903636 
L 67.409205 250.903636 
z
" style="fill:#e24a33;stroke:#eeeeee;stroke-linejoin:miter;stroke-width:0.5;"/>
   </g>
   <g id="patch_111">
    <path clip-path="url(#pacdd2afd4f)" d="M 70.791023 253.44 
L 74.172841 253.44 
L 74.172841 250.903636 
L 70.791023 250.903636 
z
" style="fill:#e24a33;stroke:#eeeeee;stroke-linejoin:miter;stroke-width:0.5;"/>
   </g>
   <g id="patch_112">
    <path clip-path="url(#pacdd2afd4f)" d="M 74.172841 253.44 
L 77.554659 253.44 
L 77.554659 252.171818 
L 74.172841 252.171818 
z
" style="fill:#e24a33;stroke:#eeeeee;stroke-linejoin:miter;stroke-width:0.5;"/>
   </g>
   <g id="patch_113">
    <path clip-path="url(#pacdd2afd4f)" d="M 77.554659 253.44 
L 80.936477 253.44 
L 80.936477 252.171818 
L 77.554659 252.171818 
z
" style="fill:#e24a33;stroke:#eeeeee;stroke-linejoin:miter;stroke-width:0.5;"/>
   </g>
   <g id="patch_114">
    <path clip-path="url(#pacdd2afd4f)" d="M 80.936477 253.44 
L 84.318295 253.44 
L 84.318295 253.44 
L 80.936477 253.44 
z
" style="fill:#e24a33;stroke:#eeeeee;stroke-linejoin:miter;stroke-width:0.5;"/>
   </g>
   <g id="patch_115">
    <path clip-path="url(#pacdd2afd4f)" d="M 84.318295 253.44 
L 87.700114 253.44 
L 87.700114 253.44 
L 84.318295 253.44 
z
" style="fill:#e24a33;stroke:#eeeeee;stroke-linejoin:miter;stroke-width:0.5;"/>
   </g>
   <g id="patch_116">
    <path clip-path="url(#pacdd2afd4f)" d="M 87.700114 253.44 
L 91.081932 253.44 
L 91.081932 253.44 
L 87.700114 253.44 
z
" style="fill:#e24a33;stroke:#eeeeee;stroke-linejoin:miter;stroke-width:0.5;"/>
   </g>
   <g id="patch_117">
    <path clip-path="url(#pacdd2afd4f)" d="M 91.081932 253.44 
L 94.46375 253.44 
L 94.46375 253.44 
L 91.081932 253.44 
z
" style="fill:#e24a33;stroke:#eeeeee;stroke-linejoin:miter;stroke-width:0.5;"/>
   </g>
   <g id="patch_118">
    <path clip-path="url(#pacdd2afd4f)" d="M 94.46375 253.44 
L 97.845568 253.44 
L 97.845568 253.44 
L 94.46375 253.44 
z
" style="fill:#e24a33;stroke:#eeeeee;stroke-linejoin:miter;stroke-width:0.5;"/>
   </g>
   <g id="patch_119">
    <path clip-path="url(#pacdd2afd4f)" d="M 97.845568 253.44 
L 101.227386 253.44 
L 101.227386 253.44 
L 97.845568 253.44 
z
" style="fill:#e24a33;stroke:#eeeeee;stroke-linejoin:miter;stroke-width:0.5;"/>
   </g>
   <g id="patch_120">
    <path clip-path="url(#pacdd2afd4f)" d="M 101.227386 253.44 
L 104.609205 253.44 
L 104.609205 252.171818 
L 101.227386 252.171818 
z
" style="fill:#e24a33;stroke:#eeeeee;stroke-linejoin:miter;stroke-width:0.5;"/>
   </g>
   <g id="patch_121">
    <path clip-path="url(#pacdd2afd4f)" d="M 104.609205 253.44 
L 107.991023 253.44 
L 107.991023 253.44 
L 104.609205 253.44 
z
" style="fill:#e24a33;stroke:#eeeeee;stroke-linejoin:miter;stroke-width:0.5;"/>
   </g>
   <g id="patch_122">
    <path clip-path="url(#pacdd2afd4f)" d="M 107.991023 253.44 
L 111.372841 253.44 
L 111.372841 252.171818 
L 107.991023 252.171818 
z
" style="fill:#e24a33;stroke:#eeeeee;stroke-linejoin:miter;stroke-width:0.5;"/>
   </g>
   <g id="patch_123">
    <path clip-path="url(#pacdd2afd4f)" d="M 111.372841 253.44 
L 114.754659 253.44 
L 114.754659 253.44 
L 111.372841 253.44 
z
" style="fill:#e24a33;stroke:#eeeeee;stroke-linejoin:miter;stroke-width:0.5;"/>
   </g>
   <g id="patch_124">
    <path clip-path="url(#pacdd2afd4f)" d="M 114.754659 253.44 
L 118.136477 253.44 
L 118.136477 253.44 
L 114.754659 253.44 
z
" style="fill:#e24a33;stroke:#eeeeee;stroke-linejoin:miter;stroke-width:0.5;"/>
   </g>
   <g id="patch_125">
    <path clip-path="url(#pacdd2afd4f)" d="M 118.136477 253.44 
L 121.518295 253.44 
L 121.518295 253.44 
L 118.136477 253.44 
z
" style="fill:#e24a33;stroke:#eeeeee;stroke-linejoin:miter;stroke-width:0.5;"/>
   </g>
   <g id="patch_126">
    <path clip-path="url(#pacdd2afd4f)" d="M 121.518295 253.44 
L 124.900114 253.44 
L 124.900114 253.44 
L 121.518295 253.44 
z
" style="fill:#e24a33;stroke:#eeeeee;stroke-linejoin:miter;stroke-width:0.5;"/>
   </g>
   <g id="patch_127">
    <path clip-path="url(#pacdd2afd4f)" d="M 124.900114 253.44 
L 128.281932 253.44 
L 128.281932 253.44 
L 124.900114 253.44 
z
" style="fill:#e24a33;stroke:#eeeeee;stroke-linejoin:miter;stroke-width:0.5;"/>
   </g>
   <g id="patch_128">
    <path clip-path="url(#pacdd2afd4f)" d="M 128.281932 253.44 
L 131.66375 253.44 
L 131.66375 253.44 
L 128.281932 253.44 
z
" style="fill:#e24a33;stroke:#eeeeee;stroke-linejoin:miter;stroke-width:0.5;"/>
   </g>
   <g id="patch_129">
    <path clip-path="url(#pacdd2afd4f)" d="M 131.66375 253.44 
L 135.045568 253.44 
L 135.045568 253.44 
L 131.66375 253.44 
z
" style="fill:#e24a33;stroke:#eeeeee;stroke-linejoin:miter;stroke-width:0.5;"/>
   </g>
   <g id="patch_130">
    <path clip-path="url(#pacdd2afd4f)" d="M 135.045568 253.44 
L 138.427386 253.44 
L 138.427386 253.44 
L 135.045568 253.44 
z
" style="fill:#e24a33;stroke:#eeeeee;stroke-linejoin:miter;stroke-width:0.5;"/>
   </g>
   <g id="patch_131">
    <path clip-path="url(#pacdd2afd4f)" d="M 138.427386 253.44 
L 141.809205 253.44 
L 141.809205 253.44 
L 138.427386 253.44 
z
" style="fill:#e24a33;stroke:#eeeeee;stroke-linejoin:miter;stroke-width:0.5;"/>
   </g>
   <g id="patch_132">
    <path clip-path="url(#pacdd2afd4f)" d="M 141.809205 253.44 
L 145.191023 253.44 
L 145.191023 253.44 
L 141.809205 253.44 
z
" style="fill:#e24a33;stroke:#eeeeee;stroke-linejoin:miter;stroke-width:0.5;"/>
   </g>
   <g id="patch_133">
    <path clip-path="url(#pacdd2afd4f)" d="M 145.191023 253.44 
L 148.572841 253.44 
L 148.572841 253.44 
L 145.191023 253.44 
z
" style="fill:#e24a33;stroke:#eeeeee;stroke-linejoin:miter;stroke-width:0.5;"/>
   </g>
   <g id="patch_134">
    <path clip-path="url(#pacdd2afd4f)" d="M 148.572841 253.44 
L 151.954659 253.44 
L 151.954659 253.44 
L 148.572841 253.44 
z
" style="fill:#e24a33;stroke:#eeeeee;stroke-linejoin:miter;stroke-width:0.5;"/>
   </g>
   <g id="patch_135">
    <path clip-path="url(#pacdd2afd4f)" d="M 151.954659 253.44 
L 155.336477 253.44 
L 155.336477 253.44 
L 151.954659 253.44 
z
" style="fill:#e24a33;stroke:#eeeeee;stroke-linejoin:miter;stroke-width:0.5;"/>
   </g>
   <g id="patch_136">
    <path clip-path="url(#pacdd2afd4f)" d="M 155.336477 253.44 
L 158.718295 253.44 
L 158.718295 253.44 
L 155.336477 253.44 
z
" style="fill:#e24a33;stroke:#eeeeee;stroke-linejoin:miter;stroke-width:0.5;"/>
   </g>
   <g id="patch_137">
    <path clip-path="url(#pacdd2afd4f)" d="M 158.718295 253.44 
L 162.100114 253.44 
L 162.100114 253.44 
L 158.718295 253.44 
z
" style="fill:#e24a33;stroke:#eeeeee;stroke-linejoin:miter;stroke-width:0.5;"/>
   </g>
   <g id="patch_138">
    <path clip-path="url(#pacdd2afd4f)" d="M 162.100114 253.44 
L 165.481932 253.44 
L 165.481932 253.44 
L 162.100114 253.44 
z
" style="fill:#e24a33;stroke:#eeeeee;stroke-linejoin:miter;stroke-width:0.5;"/>
   </g>
   <g id="patch_139">
    <path clip-path="url(#pacdd2afd4f)" d="M 165.481932 253.44 
L 168.86375 253.44 
L 168.86375 253.44 
L 165.481932 253.44 
z
" style="fill:#e24a33;stroke:#eeeeee;stroke-linejoin:miter;stroke-width:0.5;"/>
   </g>
   <g id="patch_140">
    <path clip-path="url(#pacdd2afd4f)" d="M 168.86375 253.44 
L 172.245568 253.44 
L 172.245568 253.44 
L 168.86375 253.44 
z
" style="fill:#e24a33;stroke:#eeeeee;stroke-linejoin:miter;stroke-width:0.5;"/>
   </g>
   <g id="patch_141">
    <path clip-path="url(#pacdd2afd4f)" d="M 172.245568 253.44 
L 175.627386 253.44 
L 175.627386 253.44 
L 172.245568 253.44 
z
" style="fill:#e24a33;stroke:#eeeeee;stroke-linejoin:miter;stroke-width:0.5;"/>
   </g>
   <g id="patch_142">
    <path clip-path="url(#pacdd2afd4f)" d="M 175.627386 253.44 
L 179.009205 253.44 
L 179.009205 253.44 
L 175.627386 253.44 
z
" style="fill:#e24a33;stroke:#eeeeee;stroke-linejoin:miter;stroke-width:0.5;"/>
   </g>
   <g id="patch_143">
    <path clip-path="url(#pacdd2afd4f)" d="M 179.009205 253.44 
L 182.391023 253.44 
L 182.391023 253.44 
L 179.009205 253.44 
z
" style="fill:#e24a33;stroke:#eeeeee;stroke-linejoin:miter;stroke-width:0.5;"/>
   </g>
   <g id="patch_144">
    <path clip-path="url(#pacdd2afd4f)" d="M 182.391023 253.44 
L 185.772841 253.44 
L 185.772841 253.44 
L 182.391023 253.44 
z
" style="fill:#e24a33;stroke:#eeeeee;stroke-linejoin:miter;stroke-width:0.5;"/>
   </g>
   <g id="patch_145">
    <path clip-path="url(#pacdd2afd4f)" d="M 185.772841 253.44 
L 189.154659 253.44 
L 189.154659 253.44 
L 185.772841 253.44 
z
" style="fill:#e24a33;stroke:#eeeeee;stroke-linejoin:miter;stroke-width:0.5;"/>
   </g>
   <g id="patch_146">
    <path clip-path="url(#pacdd2afd4f)" d="M 189.154659 253.44 
L 192.536477 253.44 
L 192.536477 253.44 
L 189.154659 253.44 
z
" style="fill:#e24a33;stroke:#eeeeee;stroke-linejoin:miter;stroke-width:0.5;"/>
   </g>
   <g id="patch_147">
    <path clip-path="url(#pacdd2afd4f)" d="M 192.536477 253.44 
L 195.918295 253.44 
L 195.918295 253.44 
L 192.536477 253.44 
z
" style="fill:#e24a33;stroke:#eeeeee;stroke-linejoin:miter;stroke-width:0.5;"/>
   </g>
   <g id="patch_148">
    <path clip-path="url(#pacdd2afd4f)" d="M 195.918295 253.44 
L 199.300114 253.44 
L 199.300114 253.44 
L 195.918295 253.44 
z
" style="fill:#e24a33;stroke:#eeeeee;stroke-linejoin:miter;stroke-width:0.5;"/>
   </g>
   <g id="patch_149">
    <path clip-path="url(#pacdd2afd4f)" d="M 199.300114 253.44 
L 202.681932 253.44 
L 202.681932 253.44 
L 199.300114 253.44 
z
" style="fill:#e24a33;stroke:#eeeeee;stroke-linejoin:miter;stroke-width:0.5;"/>
   </g>
   <g id="patch_150">
    <path clip-path="url(#pacdd2afd4f)" d="M 202.681932 253.44 
L 206.06375 253.44 
L 206.06375 253.44 
L 202.681932 253.44 
z
" style="fill:#e24a33;stroke:#eeeeee;stroke-linejoin:miter;stroke-width:0.5;"/>
   </g>
   <g id="patch_151">
    <path clip-path="url(#pacdd2afd4f)" d="M 206.06375 253.44 
L 209.445568 253.44 
L 209.445568 253.44 
L 206.06375 253.44 
z
" style="fill:#e24a33;stroke:#eeeeee;stroke-linejoin:miter;stroke-width:0.5;"/>
   </g>
   <g id="patch_152">
    <path clip-path="url(#pacdd2afd4f)" d="M 209.445568 253.44 
L 212.827386 253.44 
L 212.827386 253.44 
L 209.445568 253.44 
z
" style="fill:#e24a33;stroke:#eeeeee;stroke-linejoin:miter;stroke-width:0.5;"/>
   </g>
   <g id="patch_153">
    <path clip-path="url(#pacdd2afd4f)" d="M 212.827386 253.44 
L 216.209205 253.44 
L 216.209205 253.44 
L 212.827386 253.44 
z
" style="fill:#e24a33;stroke:#eeeeee;stroke-linejoin:miter;stroke-width:0.5;"/>
   </g>
   <g id="patch_154">
    <path clip-path="url(#pacdd2afd4f)" d="M 216.209205 253.44 
L 219.591023 253.44 
L 219.591023 253.44 
L 216.209205 253.44 
z
" style="fill:#e24a33;stroke:#eeeeee;stroke-linejoin:miter;stroke-width:0.5;"/>
   </g>
   <g id="patch_155">
    <path clip-path="url(#pacdd2afd4f)" d="M 219.591023 253.44 
L 222.972841 253.44 
L 222.972841 253.44 
L 219.591023 253.44 
z
" style="fill:#e24a33;stroke:#eeeeee;stroke-linejoin:miter;stroke-width:0.5;"/>
   </g>
   <g id="patch_156">
    <path clip-path="url(#pacdd2afd4f)" d="M 222.972841 253.44 
L 226.354659 253.44 
L 226.354659 253.44 
L 222.972841 253.44 
z
" style="fill:#e24a33;stroke:#eeeeee;stroke-linejoin:miter;stroke-width:0.5;"/>
   </g>
   <g id="patch_157">
    <path clip-path="url(#pacdd2afd4f)" d="M 226.354659 253.44 
L 229.736477 253.44 
L 229.736477 253.44 
L 226.354659 253.44 
z
" style="fill:#e24a33;stroke:#eeeeee;stroke-linejoin:miter;stroke-width:0.5;"/>
   </g>
   <g id="patch_158">
    <path clip-path="url(#pacdd2afd4f)" d="M 229.736477 253.44 
L 233.118295 253.44 
L 233.118295 253.44 
L 229.736477 253.44 
z
" style="fill:#e24a33;stroke:#eeeeee;stroke-linejoin:miter;stroke-width:0.5;"/>
   </g>
   <g id="patch_159">
    <path clip-path="url(#pacdd2afd4f)" d="M 233.118295 253.44 
L 236.500114 253.44 
L 236.500114 253.44 
L 233.118295 253.44 
z
" style="fill:#e24a33;stroke:#eeeeee;stroke-linejoin:miter;stroke-width:0.5;"/>
   </g>
   <g id="patch_160">
    <path clip-path="url(#pacdd2afd4f)" d="M 236.500114 253.44 
L 239.881932 253.44 
L 239.881932 253.44 
L 236.500114 253.44 
z
" style="fill:#e24a33;stroke:#eeeeee;stroke-linejoin:miter;stroke-width:0.5;"/>
   </g>
   <g id="patch_161">
    <path clip-path="url(#pacdd2afd4f)" d="M 239.881932 253.44 
L 243.26375 253.44 
L 243.26375 253.44 
L 239.881932 253.44 
z
" style="fill:#e24a33;stroke:#eeeeee;stroke-linejoin:miter;stroke-width:0.5;"/>
   </g>
   <g id="patch_162">
    <path clip-path="url(#pacdd2afd4f)" d="M 243.26375 253.44 
L 246.645568 253.44 
L 246.645568 253.44 
L 243.26375 253.44 
z
" style="fill:#e24a33;stroke:#eeeeee;stroke-linejoin:miter;stroke-width:0.5;"/>
   </g>
   <g id="patch_163">
    <path clip-path="url(#pacdd2afd4f)" d="M 246.645568 253.44 
L 250.027386 253.44 
L 250.027386 253.44 
L 246.645568 253.44 
z
" style="fill:#e24a33;stroke:#eeeeee;stroke-linejoin:miter;stroke-width:0.5;"/>
   </g>
   <g id="patch_164">
    <path clip-path="url(#pacdd2afd4f)" d="M 250.027386 253.44 
L 253.409205 253.44 
L 253.409205 253.44 
L 250.027386 253.44 
z
" style="fill:#e24a33;stroke:#eeeeee;stroke-linejoin:miter;stroke-width:0.5;"/>
   </g>
   <g id="patch_165">
    <path clip-path="url(#pacdd2afd4f)" d="M 253.409205 253.44 
L 256.791023 253.44 
L 256.791023 253.44 
L 253.409205 253.44 
z
" style="fill:#e24a33;stroke:#eeeeee;stroke-linejoin:miter;stroke-width:0.5;"/>
   </g>
   <g id="patch_166">
    <path clip-path="url(#pacdd2afd4f)" d="M 256.791023 253.44 
L 260.172841 253.44 
L 260.172841 253.44 
L 256.791023 253.44 
z
" style="fill:#e24a33;stroke:#eeeeee;stroke-linejoin:miter;stroke-width:0.5;"/>
   </g>
   <g id="patch_167">
    <path clip-path="url(#pacdd2afd4f)" d="M 260.172841 253.44 
L 263.554659 253.44 
L 263.554659 253.44 
L 260.172841 253.44 
z
" style="fill:#e24a33;stroke:#eeeeee;stroke-linejoin:miter;stroke-width:0.5;"/>
   </g>
   <g id="patch_168">
    <path clip-path="url(#pacdd2afd4f)" d="M 263.554659 253.44 
L 266.936477 253.44 
L 266.936477 253.44 
L 263.554659 253.44 
z
" style="fill:#e24a33;stroke:#eeeeee;stroke-linejoin:miter;stroke-width:0.5;"/>
   </g>
   <g id="patch_169">
    <path clip-path="url(#pacdd2afd4f)" d="M 266.936477 253.44 
L 270.318295 253.44 
L 270.318295 253.44 
L 266.936477 253.44 
z
" style="fill:#e24a33;stroke:#eeeeee;stroke-linejoin:miter;stroke-width:0.5;"/>
   </g>
   <g id="patch_170">
    <path clip-path="url(#pacdd2afd4f)" d="M 270.318295 253.44 
L 273.700114 253.44 
L 273.700114 253.44 
L 270.318295 253.44 
z
" style="fill:#e24a33;stroke:#eeeeee;stroke-linejoin:miter;stroke-width:0.5;"/>
   </g>
   <g id="patch_171">
    <path clip-path="url(#pacdd2afd4f)" d="M 273.700114 253.44 
L 277.081932 253.44 
L 277.081932 253.44 
L 273.700114 253.44 
z
" style="fill:#e24a33;stroke:#eeeeee;stroke-linejoin:miter;stroke-width:0.5;"/>
   </g>
   <g id="patch_172">
    <path clip-path="url(#pacdd2afd4f)" d="M 277.081932 253.44 
L 280.46375 253.44 
L 280.46375 253.44 
L 277.081932 253.44 
z
" style="fill:#e24a33;stroke:#eeeeee;stroke-linejoin:miter;stroke-width:0.5;"/>
   </g>
   <g id="patch_173">
    <path clip-path="url(#pacdd2afd4f)" d="M 280.46375 253.44 
L 283.845568 253.44 
L 283.845568 253.44 
L 280.46375 253.44 
z
" style="fill:#e24a33;stroke:#eeeeee;stroke-linejoin:miter;stroke-width:0.5;"/>
   </g>
   <g id="patch_174">
    <path clip-path="url(#pacdd2afd4f)" d="M 283.845568 253.44 
L 287.227386 253.44 
L 287.227386 253.44 
L 283.845568 253.44 
z
" style="fill:#e24a33;stroke:#eeeeee;stroke-linejoin:miter;stroke-width:0.5;"/>
   </g>
   <g id="patch_175">
    <path clip-path="url(#pacdd2afd4f)" d="M 287.227386 253.44 
L 290.609205 253.44 
L 290.609205 253.44 
L 287.227386 253.44 
z
" style="fill:#e24a33;stroke:#eeeeee;stroke-linejoin:miter;stroke-width:0.5;"/>
   </g>
   <g id="patch_176">
    <path clip-path="url(#pacdd2afd4f)" d="M 290.609205 253.44 
L 293.991023 253.44 
L 293.991023 253.44 
L 290.609205 253.44 
z
" style="fill:#e24a33;stroke:#eeeeee;stroke-linejoin:miter;stroke-width:0.5;"/>
   </g>
   <g id="patch_177">
    <path clip-path="url(#pacdd2afd4f)" d="M 293.991023 253.44 
L 297.372841 253.44 
L 297.372841 253.44 
L 293.991023 253.44 
z
" style="fill:#e24a33;stroke:#eeeeee;stroke-linejoin:miter;stroke-width:0.5;"/>
   </g>
   <g id="patch_178">
    <path clip-path="url(#pacdd2afd4f)" d="M 297.372841 253.44 
L 300.754659 253.44 
L 300.754659 253.44 
L 297.372841 253.44 
z
" style="fill:#e24a33;stroke:#eeeeee;stroke-linejoin:miter;stroke-width:0.5;"/>
   </g>
   <g id="patch_179">
    <path clip-path="url(#pacdd2afd4f)" d="M 300.754659 253.44 
L 304.136477 253.44 
L 304.136477 253.44 
L 300.754659 253.44 
z
" style="fill:#e24a33;stroke:#eeeeee;stroke-linejoin:miter;stroke-width:0.5;"/>
   </g>
   <g id="patch_180">
    <path clip-path="url(#pacdd2afd4f)" d="M 304.136477 253.44 
L 307.518295 253.44 
L 307.518295 253.44 
L 304.136477 253.44 
z
" style="fill:#e24a33;stroke:#eeeeee;stroke-linejoin:miter;stroke-width:0.5;"/>
   </g>
   <g id="patch_181">
    <path clip-path="url(#pacdd2afd4f)" d="M 307.518295 253.44 
L 310.900114 253.44 
L 310.900114 253.44 
L 307.518295 253.44 
z
" style="fill:#e24a33;stroke:#eeeeee;stroke-linejoin:miter;stroke-width:0.5;"/>
   </g>
   <g id="patch_182">
    <path clip-path="url(#pacdd2afd4f)" d="M 310.900114 253.44 
L 314.281932 253.44 
L 314.281932 253.44 
L 310.900114 253.44 
z
" style="fill:#e24a33;stroke:#eeeeee;stroke-linejoin:miter;stroke-width:0.5;"/>
   </g>
   <g id="patch_183">
    <path clip-path="url(#pacdd2afd4f)" d="M 314.281932 253.44 
L 317.66375 253.44 
L 317.66375 253.44 
L 314.281932 253.44 
z
" style="fill:#e24a33;stroke:#eeeeee;stroke-linejoin:miter;stroke-width:0.5;"/>
   </g>
   <g id="patch_184">
    <path clip-path="url(#pacdd2afd4f)" d="M 317.66375 253.44 
L 321.045568 253.44 
L 321.045568 253.44 
L 317.66375 253.44 
z
" style="fill:#e24a33;stroke:#eeeeee;stroke-linejoin:miter;stroke-width:0.5;"/>
   </g>
   <g id="patch_185">
    <path clip-path="url(#pacdd2afd4f)" d="M 321.045568 253.44 
L 324.427386 253.44 
L 324.427386 253.44 
L 321.045568 253.44 
z
" style="fill:#e24a33;stroke:#eeeeee;stroke-linejoin:miter;stroke-width:0.5;"/>
   </g>
   <g id="patch_186">
    <path clip-path="url(#pacdd2afd4f)" d="M 324.427386 253.44 
L 327.809205 253.44 
L 327.809205 253.44 
L 324.427386 253.44 
z
" style="fill:#e24a33;stroke:#eeeeee;stroke-linejoin:miter;stroke-width:0.5;"/>
   </g>
   <g id="patch_187">
    <path clip-path="url(#pacdd2afd4f)" d="M 327.809205 253.44 
L 331.191023 253.44 
L 331.191023 253.44 
L 327.809205 253.44 
z
" style="fill:#e24a33;stroke:#eeeeee;stroke-linejoin:miter;stroke-width:0.5;"/>
   </g>
   <g id="patch_188">
    <path clip-path="url(#pacdd2afd4f)" d="M 331.191023 253.44 
L 334.572841 253.44 
L 334.572841 253.44 
L 331.191023 253.44 
z
" style="fill:#e24a33;stroke:#eeeeee;stroke-linejoin:miter;stroke-width:0.5;"/>
   </g>
   <g id="patch_189">
    <path clip-path="url(#pacdd2afd4f)" d="M 334.572841 253.44 
L 337.954659 253.44 
L 337.954659 253.44 
L 334.572841 253.44 
z
" style="fill:#e24a33;stroke:#eeeeee;stroke-linejoin:miter;stroke-width:0.5;"/>
   </g>
   <g id="patch_190">
    <path clip-path="url(#pacdd2afd4f)" d="M 337.954659 253.44 
L 341.336477 253.44 
L 341.336477 253.44 
L 337.954659 253.44 
z
" style="fill:#e24a33;stroke:#eeeeee;stroke-linejoin:miter;stroke-width:0.5;"/>
   </g>
   <g id="patch_191">
    <path clip-path="url(#pacdd2afd4f)" d="M 341.336477 253.44 
L 344.718295 253.44 
L 344.718295 253.44 
L 341.336477 253.44 
z
" style="fill:#e24a33;stroke:#eeeeee;stroke-linejoin:miter;stroke-width:0.5;"/>
   </g>
   <g id="patch_192">
    <path clip-path="url(#pacdd2afd4f)" d="M 344.718295 253.44 
L 348.100114 253.44 
L 348.100114 253.44 
L 344.718295 253.44 
z
" style="fill:#e24a33;stroke:#eeeeee;stroke-linejoin:miter;stroke-width:0.5;"/>
   </g>
   <g id="patch_193">
    <path clip-path="url(#pacdd2afd4f)" d="M 348.100114 253.44 
L 351.481932 253.44 
L 351.481932 253.44 
L 348.100114 253.44 
z
" style="fill:#e24a33;stroke:#eeeeee;stroke-linejoin:miter;stroke-width:0.5;"/>
   </g>
   <g id="patch_194">
    <path clip-path="url(#pacdd2afd4f)" d="M 351.481932 253.44 
L 354.86375 253.44 
L 354.86375 253.44 
L 351.481932 253.44 
z
" style="fill:#e24a33;stroke:#eeeeee;stroke-linejoin:miter;stroke-width:0.5;"/>
   </g>
   <g id="patch_195">
    <path clip-path="url(#pacdd2afd4f)" d="M 354.86375 253.44 
L 358.245568 253.44 
L 358.245568 253.44 
L 354.86375 253.44 
z
" style="fill:#e24a33;stroke:#eeeeee;stroke-linejoin:miter;stroke-width:0.5;"/>
   </g>
   <g id="patch_196">
    <path clip-path="url(#pacdd2afd4f)" d="M 358.245568 253.44 
L 361.627386 253.44 
L 361.627386 253.44 
L 358.245568 253.44 
z
" style="fill:#e24a33;stroke:#eeeeee;stroke-linejoin:miter;stroke-width:0.5;"/>
   </g>
   <g id="patch_197">
    <path clip-path="url(#pacdd2afd4f)" d="M 361.627386 253.44 
L 365.009205 253.44 
L 365.009205 253.44 
L 361.627386 253.44 
z
" style="fill:#e24a33;stroke:#eeeeee;stroke-linejoin:miter;stroke-width:0.5;"/>
   </g>
   <g id="patch_198">
    <path clip-path="url(#pacdd2afd4f)" d="M 365.009205 253.44 
L 368.391023 253.44 
L 368.391023 253.44 
L 365.009205 253.44 
z
" style="fill:#e24a33;stroke:#eeeeee;stroke-linejoin:miter;stroke-width:0.5;"/>
   </g>
   <g id="patch_199">
    <path clip-path="url(#pacdd2afd4f)" d="M 368.391023 253.44 
L 371.772841 253.44 
L 371.772841 253.44 
L 368.391023 253.44 
z
" style="fill:#e24a33;stroke:#eeeeee;stroke-linejoin:miter;stroke-width:0.5;"/>
   </g>
   <g id="patch_200">
    <path clip-path="url(#pacdd2afd4f)" d="M 371.772841 253.44 
L 375.154659 253.44 
L 375.154659 253.44 
L 371.772841 253.44 
z
" style="fill:#e24a33;stroke:#eeeeee;stroke-linejoin:miter;stroke-width:0.5;"/>
   </g>
   <g id="patch_201">
    <path clip-path="url(#pacdd2afd4f)" d="M 375.154659 253.44 
L 378.536477 253.44 
L 378.536477 253.44 
L 375.154659 253.44 
z
" style="fill:#e24a33;stroke:#eeeeee;stroke-linejoin:miter;stroke-width:0.5;"/>
   </g>
   <g id="patch_202">
    <path clip-path="url(#pacdd2afd4f)" d="M 378.536477 253.44 
L 381.918295 253.44 
L 381.918295 253.44 
L 378.536477 253.44 
z
" style="fill:#e24a33;stroke:#eeeeee;stroke-linejoin:miter;stroke-width:0.5;"/>
   </g>
   <g id="patch_203">
    <path clip-path="url(#pacdd2afd4f)" d="M 381.918295 253.44 
L 385.300114 253.44 
L 385.300114 253.44 
L 381.918295 253.44 
z
" style="fill:#e24a33;stroke:#eeeeee;stroke-linejoin:miter;stroke-width:0.5;"/>
   </g>
   <g id="patch_204">
    <path clip-path="url(#pacdd2afd4f)" d="M 385.300114 253.44 
L 388.681932 253.44 
L 388.681932 253.44 
L 385.300114 253.44 
z
" style="fill:#e24a33;stroke:#eeeeee;stroke-linejoin:miter;stroke-width:0.5;"/>
   </g>
   <g id="patch_205">
    <path clip-path="url(#pacdd2afd4f)" d="M 388.681932 253.44 
L 392.06375 253.44 
L 392.06375 253.44 
L 388.681932 253.44 
z
" style="fill:#e24a33;stroke:#eeeeee;stroke-linejoin:miter;stroke-width:0.5;"/>
   </g>
   <g id="patch_206">
    <path d="M 57.26375 151.985455 
L 392.06375 151.985455 
" style="fill:none;stroke:#ffffff;stroke-linecap:square;stroke-linejoin:miter;"/>
   </g>
   <g id="patch_207">
    <path d="M 392.06375 253.44 
L 392.06375 151.985455 
" style="fill:none;stroke:#ffffff;stroke-linecap:square;stroke-linejoin:miter;"/>
   </g>
   <g id="patch_208">
    <path d="M 57.26375 253.44 
L 392.06375 253.44 
" style="fill:none;stroke:#ffffff;stroke-linecap:square;stroke-linejoin:miter;"/>
   </g>
   <g id="patch_209">
    <path d="M 57.26375 253.44 
L 57.26375 151.985455 
" style="fill:none;stroke:#ffffff;stroke-linecap:square;stroke-linejoin:miter;"/>
   </g>
   <g id="text_24">
    <!-- Codewords -->
    <g transform="translate(184.655375 146.985454545)scale(0.144 -0.144)">
     <use xlink:href="#BitstreamVeraSans-Roman-43"/>
     <use x="69.82421875" xlink:href="#BitstreamVeraSans-Roman-6f"/>
     <use x="131.005859375" xlink:href="#BitstreamVeraSans-Roman-64"/>
     <use x="194.482421875" xlink:href="#BitstreamVeraSans-Roman-65"/>
     <use x="256.005859375" xlink:href="#BitstreamVeraSans-Roman-77"/>
     <use x="337.79296875" xlink:href="#BitstreamVeraSans-Roman-6f"/>
     <use x="398.974609375" xlink:href="#BitstreamVeraSans-Roman-72"/>
     <use x="440.072265625" xlink:href="#BitstreamVeraSans-Roman-64"/>
     <use x="503.548828125" xlink:href="#BitstreamVeraSans-Roman-73"/>
    </g>
   </g>
  </g>
  <g id="text_25">
   <!-- Google -->
   <defs>
    <path d="M 59.515625 10.40625 
L 59.515625 29.984375 
L 43.40625 29.984375 
L 43.40625 38.09375 
L 69.28125 38.09375 
L 69.28125 6.78125 
Q 63.578125 2.734375 56.6875 0.65625 
Q 49.8125 -1.421875 42 -1.421875 
Q 24.90625 -1.421875 15.25 8.5625 
Q 5.609375 18.5625 5.609375 36.375 
Q 5.609375 54.25 15.25 64.234375 
Q 24.90625 74.21875 42 74.21875 
Q 49.125 74.21875 55.546875 72.453125 
Q 61.96875 70.703125 67.390625 67.28125 
L 67.390625 56.78125 
Q 61.921875 61.421875 55.765625 63.765625 
Q 49.609375 66.109375 42.828125 66.109375 
Q 29.4375 66.109375 22.71875 58.640625 
Q 16.015625 51.171875 16.015625 36.375 
Q 16.015625 21.625 22.71875 14.15625 
Q 29.4375 6.6875 42.828125 6.6875 
Q 48.046875 6.6875 52.140625 7.59375 
Q 56.25 8.5 59.515625 10.40625 
" id="BitstreamVeraSans-Roman-47"/>
    <path d="M 45.40625 27.984375 
Q 45.40625 37.75 41.375 43.109375 
Q 37.359375 48.484375 30.078125 48.484375 
Q 22.859375 48.484375 18.828125 43.109375 
Q 14.796875 37.75 14.796875 27.984375 
Q 14.796875 18.265625 18.828125 12.890625 
Q 22.859375 7.515625 30.078125 7.515625 
Q 37.359375 7.515625 41.375 12.890625 
Q 45.40625 18.265625 45.40625 27.984375 
M 54.390625 6.78125 
Q 54.390625 -7.171875 48.1875 -13.984375 
Q 42 -20.796875 29.203125 -20.796875 
Q 24.46875 -20.796875 20.265625 -20.09375 
Q 16.0625 -19.390625 12.109375 -17.921875 
L 12.109375 -9.1875 
Q 16.0625 -11.328125 19.921875 -12.34375 
Q 23.78125 -13.375 27.78125 -13.375 
Q 36.625 -13.375 41.015625 -8.765625 
Q 45.40625 -4.15625 45.40625 5.171875 
L 45.40625 9.625 
Q 42.625 4.78125 38.28125 2.390625 
Q 33.9375 0 27.875 0 
Q 17.828125 0 11.671875 7.65625 
Q 5.515625 15.328125 5.515625 27.984375 
Q 5.515625 40.671875 11.671875 48.328125 
Q 17.828125 56 27.875 56 
Q 33.9375 56 38.28125 53.609375 
Q 42.625 51.21875 45.40625 46.390625 
L 45.40625 54.6875 
L 54.390625 54.6875 
z
" id="BitstreamVeraSans-Roman-67"/>
    <path d="M 9.421875 75.984375 
L 18.40625 75.984375 
L 18.40625 0 
L 9.421875 0 
z
" id="BitstreamVeraSans-Roman-6c"/>
   </defs>
   <g transform="translate(201.6309375 14.7984375)scale(0.1 -0.1)">
    <use xlink:href="#BitstreamVeraSans-Roman-47"/>
    <use x="77.490234375" xlink:href="#BitstreamVeraSans-Roman-6f"/>
    <use x="138.671875" xlink:href="#BitstreamVeraSans-Roman-6f"/>
    <use x="199.853515625" xlink:href="#BitstreamVeraSans-Roman-67"/>
    <use x="263.330078125" xlink:href="#BitstreamVeraSans-Roman-6c"/>
    <use x="291.11328125" xlink:href="#BitstreamVeraSans-Roman-65"/>
   </g>
  </g>
 </g>
 <defs>
  <clipPath id="pacdd2afd4f">
   <rect height="101.454545455" width="334.8" x="57.26375" y="151.985454545"/>
  </clipPath>
  <clipPath id="p1fdb12a146">
   <rect height="101.454545455" width="334.8" x="57.26375" y="30.24"/>
  </clipPath>
 </defs>
</svg>
