<?xml version="1.0" encoding="utf-8" standalone="no"?>
<!DOCTYPE svg PUBLIC "-//W3C//DTD SVG 1.1//EN"
  "http://www.w3.org/Graphics/SVG/1.1/DTD/svg11.dtd">
<!-- Created with matplotlib (http://matplotlib.org/) -->
<svg height="276pt" version="1.1" viewBox="0 0 373 276" width="373pt" xmlns="http://www.w3.org/2000/svg" xmlns:xlink="http://www.w3.org/1999/xlink">
 <defs>
  <style type="text/css">
*{stroke-linecap:butt;stroke-linejoin:round;stroke-miterlimit:100000;}
  </style>
 </defs>
 <g id="figure_1">
  <g id="patch_1">
   <path d="M 0 276.730937 
L 373.103125 276.730937 
L 373.103125 0 
L 0 0 
L 0 276.730937 
z
" style="fill:none;"/>
  </g>
  <g id="axes_1">
   <g id="patch_2">
    <path d="M 31.103125 235.239062 
L 365.903125 235.239062 
L 365.903125 12.039062 
L 31.103125 12.039062 
z
" style="fill:#e5e5e5;"/>
   </g>
   <g id="matplotlib.axis_1">
    <g id="xtick_1">
     <g id="line2d_1">
      <path clip-path="url(#pa84e23382d)" d="M 31.103125 235.239062 
L 31.103125 12.039062 
" style="fill:none;stroke:#ffffff;stroke-linecap:square;stroke-width:0.5;"/>
     </g>
     <g id="line2d_2">
      <defs>
       <path d="M 0 0 
L 0 4 
" id="m9cca5cd3cb" style="stroke:#555555;stroke-width:0.5;"/>
      </defs>
      <g>
       <use style="fill:#555555;stroke:#555555;stroke-width:0.5;" x="31.103125" xlink:href="#m9cca5cd3cb" y="235.2390625"/>
      </g>
     </g>
     <g id="line2d_3">
      <defs>
       <path d="M 0 0 
L 0 -4 
" id="m0aff1d1758" style="stroke:#555555;stroke-width:0.5;"/>
      </defs>
      <g>
       <use style="fill:#555555;stroke:#555555;stroke-width:0.5;" x="31.103125" xlink:href="#m0aff1d1758" y="12.0390625"/>
      </g>
     </g>
     <g id="text_1">
      <!-- 0 -->
      <defs>
       <path d="M 31.78125 66.40625 
Q 24.171875 66.40625 20.328125 58.90625 
Q 16.5 51.421875 16.5 36.375 
Q 16.5 21.390625 20.328125 13.890625 
Q 24.171875 6.390625 31.78125 6.390625 
Q 39.453125 6.390625 43.28125 13.890625 
Q 47.125 21.390625 47.125 36.375 
Q 47.125 51.421875 43.28125 58.90625 
Q 39.453125 66.40625 31.78125 66.40625 
M 31.78125 74.21875 
Q 44.046875 74.21875 50.515625 64.515625 
Q 56.984375 54.828125 56.984375 36.375 
Q 56.984375 17.96875 50.515625 8.265625 
Q 44.046875 -1.421875 31.78125 -1.421875 
Q 19.53125 -1.421875 13.0625 8.265625 
Q 6.59375 17.96875 6.59375 36.375 
Q 6.59375 54.828125 13.0625 64.515625 
Q 19.53125 74.21875 31.78125 74.21875 
" id="BitstreamVeraSans-Roman-30"/>
      </defs>
      <g style="fill:#555555;" transform="translate(27.921875 250.8375)scale(0.1 -0.1)">
       <use xlink:href="#BitstreamVeraSans-Roman-30"/>
      </g>
     </g>
    </g>
    <g id="xtick_2">
     <g id="line2d_4">
      <path clip-path="url(#pa84e23382d)" d="M 70.960268 235.239062 
L 70.960268 12.039062 
" style="fill:none;stroke:#ffffff;stroke-linecap:square;stroke-width:0.5;"/>
     </g>
     <g id="line2d_5">
      <g>
       <use style="fill:#555555;stroke:#555555;stroke-width:0.5;" x="70.9602678571" xlink:href="#m9cca5cd3cb" y="235.2390625"/>
      </g>
     </g>
     <g id="line2d_6">
      <g>
       <use style="fill:#555555;stroke:#555555;stroke-width:0.5;" x="70.9602678571" xlink:href="#m0aff1d1758" y="12.0390625"/>
      </g>
     </g>
     <g id="text_2">
      <!-- 50 -->
      <defs>
       <path d="M 10.796875 72.90625 
L 49.515625 72.90625 
L 49.515625 64.59375 
L 19.828125 64.59375 
L 19.828125 46.734375 
Q 21.96875 47.46875 24.109375 47.828125 
Q 26.265625 48.1875 28.421875 48.1875 
Q 40.625 48.1875 47.75 41.5 
Q 54.890625 34.8125 54.890625 23.390625 
Q 54.890625 11.625 47.5625 5.09375 
Q 40.234375 -1.421875 26.90625 -1.421875 
Q 22.3125 -1.421875 17.546875 -0.640625 
Q 12.796875 0.140625 7.71875 1.703125 
L 7.71875 11.625 
Q 12.109375 9.234375 16.796875 8.0625 
Q 21.484375 6.890625 26.703125 6.890625 
Q 35.15625 6.890625 40.078125 11.328125 
Q 45.015625 15.765625 45.015625 23.390625 
Q 45.015625 31 40.078125 35.4375 
Q 35.15625 39.890625 26.703125 39.890625 
Q 22.75 39.890625 18.8125 39.015625 
Q 14.890625 38.140625 10.796875 36.28125 
z
" id="BitstreamVeraSans-Roman-35"/>
      </defs>
      <g style="fill:#555555;" transform="translate(64.5977678571 250.8375)scale(0.1 -0.1)">
       <use xlink:href="#BitstreamVeraSans-Roman-35"/>
       <use x="63.623046875" xlink:href="#BitstreamVeraSans-Roman-30"/>
      </g>
     </g>
    </g>
    <g id="xtick_3">
     <g id="line2d_7">
      <path clip-path="url(#pa84e23382d)" d="M 110.817411 235.239062 
L 110.817411 12.039062 
" style="fill:none;stroke:#ffffff;stroke-linecap:square;stroke-width:0.5;"/>
     </g>
     <g id="line2d_8">
      <g>
       <use style="fill:#555555;stroke:#555555;stroke-width:0.5;" x="110.817410714" xlink:href="#m9cca5cd3cb" y="235.2390625"/>
      </g>
     </g>
     <g id="line2d_9">
      <g>
       <use style="fill:#555555;stroke:#555555;stroke-width:0.5;" x="110.817410714" xlink:href="#m0aff1d1758" y="12.0390625"/>
      </g>
     </g>
     <g id="text_3">
      <!-- 100 -->
      <defs>
       <path d="M 12.40625 8.296875 
L 28.515625 8.296875 
L 28.515625 63.921875 
L 10.984375 60.40625 
L 10.984375 69.390625 
L 28.421875 72.90625 
L 38.28125 72.90625 
L 38.28125 8.296875 
L 54.390625 8.296875 
L 54.390625 0 
L 12.40625 0 
z
" id="BitstreamVeraSans-Roman-31"/>
      </defs>
      <g style="fill:#555555;" transform="translate(101.273660714 250.8375)scale(0.1 -0.1)">
       <use xlink:href="#BitstreamVeraSans-Roman-31"/>
       <use x="63.623046875" xlink:href="#BitstreamVeraSans-Roman-30"/>
       <use x="127.24609375" xlink:href="#BitstreamVeraSans-Roman-30"/>
      </g>
     </g>
    </g>
    <g id="xtick_4">
     <g id="line2d_10">
      <path clip-path="url(#pa84e23382d)" d="M 150.674554 235.239062 
L 150.674554 12.039062 
" style="fill:none;stroke:#ffffff;stroke-linecap:square;stroke-width:0.5;"/>
     </g>
     <g id="line2d_11">
      <g>
       <use style="fill:#555555;stroke:#555555;stroke-width:0.5;" x="150.674553571" xlink:href="#m9cca5cd3cb" y="235.2390625"/>
      </g>
     </g>
     <g id="line2d_12">
      <g>
       <use style="fill:#555555;stroke:#555555;stroke-width:0.5;" x="150.674553571" xlink:href="#m0aff1d1758" y="12.0390625"/>
      </g>
     </g>
     <g id="text_4">
      <!-- 150 -->
      <g style="fill:#555555;" transform="translate(141.130803571 250.8375)scale(0.1 -0.1)">
       <use xlink:href="#BitstreamVeraSans-Roman-31"/>
       <use x="63.623046875" xlink:href="#BitstreamVeraSans-Roman-35"/>
       <use x="127.24609375" xlink:href="#BitstreamVeraSans-Roman-30"/>
      </g>
     </g>
    </g>
    <g id="xtick_5">
     <g id="line2d_13">
      <path clip-path="url(#pa84e23382d)" d="M 190.531696 235.239062 
L 190.531696 12.039062 
" style="fill:none;stroke:#ffffff;stroke-linecap:square;stroke-width:0.5;"/>
     </g>
     <g id="line2d_14">
      <g>
       <use style="fill:#555555;stroke:#555555;stroke-width:0.5;" x="190.531696429" xlink:href="#m9cca5cd3cb" y="235.2390625"/>
      </g>
     </g>
     <g id="line2d_15">
      <g>
       <use style="fill:#555555;stroke:#555555;stroke-width:0.5;" x="190.531696429" xlink:href="#m0aff1d1758" y="12.0390625"/>
      </g>
     </g>
     <g id="text_5">
      <!-- 200 -->
      <defs>
       <path d="M 19.1875 8.296875 
L 53.609375 8.296875 
L 53.609375 0 
L 7.328125 0 
L 7.328125 8.296875 
Q 12.9375 14.109375 22.625 23.890625 
Q 32.328125 33.6875 34.8125 36.53125 
Q 39.546875 41.84375 41.421875 45.53125 
Q 43.3125 49.21875 43.3125 52.78125 
Q 43.3125 58.59375 39.234375 62.25 
Q 35.15625 65.921875 28.609375 65.921875 
Q 23.96875 65.921875 18.8125 64.3125 
Q 13.671875 62.703125 7.8125 59.421875 
L 7.8125 69.390625 
Q 13.765625 71.78125 18.9375 73 
Q 24.125 74.21875 28.421875 74.21875 
Q 39.75 74.21875 46.484375 68.546875 
Q 53.21875 62.890625 53.21875 53.421875 
Q 53.21875 48.921875 51.53125 44.890625 
Q 49.859375 40.875 45.40625 35.40625 
Q 44.1875 33.984375 37.640625 27.21875 
Q 31.109375 20.453125 19.1875 8.296875 
" id="BitstreamVeraSans-Roman-32"/>
      </defs>
      <g style="fill:#555555;" transform="translate(180.987946429 250.8375)scale(0.1 -0.1)">
       <use xlink:href="#BitstreamVeraSans-Roman-32"/>
       <use x="63.623046875" xlink:href="#BitstreamVeraSans-Roman-30"/>
       <use x="127.24609375" xlink:href="#BitstreamVeraSans-Roman-30"/>
      </g>
     </g>
    </g>
    <g id="xtick_6">
     <g id="line2d_16">
      <path clip-path="url(#pa84e23382d)" d="M 230.388839 235.239062 
L 230.388839 12.039062 
" style="fill:none;stroke:#ffffff;stroke-linecap:square;stroke-width:0.5;"/>
     </g>
     <g id="line2d_17">
      <g>
       <use style="fill:#555555;stroke:#555555;stroke-width:0.5;" x="230.388839286" xlink:href="#m9cca5cd3cb" y="235.2390625"/>
      </g>
     </g>
     <g id="line2d_18">
      <g>
       <use style="fill:#555555;stroke:#555555;stroke-width:0.5;" x="230.388839286" xlink:href="#m0aff1d1758" y="12.0390625"/>
      </g>
     </g>
     <g id="text_6">
      <!-- 250 -->
      <g style="fill:#555555;" transform="translate(220.845089286 250.8375)scale(0.1 -0.1)">
       <use xlink:href="#BitstreamVeraSans-Roman-32"/>
       <use x="63.623046875" xlink:href="#BitstreamVeraSans-Roman-35"/>
       <use x="127.24609375" xlink:href="#BitstreamVeraSans-Roman-30"/>
      </g>
     </g>
    </g>
    <g id="xtick_7">
     <g id="line2d_19">
      <path clip-path="url(#pa84e23382d)" d="M 270.245982 235.239062 
L 270.245982 12.039062 
" style="fill:none;stroke:#ffffff;stroke-linecap:square;stroke-width:0.5;"/>
     </g>
     <g id="line2d_20">
      <g>
       <use style="fill:#555555;stroke:#555555;stroke-width:0.5;" x="270.245982143" xlink:href="#m9cca5cd3cb" y="235.2390625"/>
      </g>
     </g>
     <g id="line2d_21">
      <g>
       <use style="fill:#555555;stroke:#555555;stroke-width:0.5;" x="270.245982143" xlink:href="#m0aff1d1758" y="12.0390625"/>
      </g>
     </g>
     <g id="text_7">
      <!-- 300 -->
      <defs>
       <path d="M 40.578125 39.3125 
Q 47.65625 37.796875 51.625 33 
Q 55.609375 28.21875 55.609375 21.1875 
Q 55.609375 10.40625 48.1875 4.484375 
Q 40.765625 -1.421875 27.09375 -1.421875 
Q 22.515625 -1.421875 17.65625 -0.515625 
Q 12.796875 0.390625 7.625 2.203125 
L 7.625 11.71875 
Q 11.71875 9.328125 16.59375 8.109375 
Q 21.484375 6.890625 26.8125 6.890625 
Q 36.078125 6.890625 40.9375 10.546875 
Q 45.796875 14.203125 45.796875 21.1875 
Q 45.796875 27.640625 41.28125 31.265625 
Q 36.765625 34.90625 28.71875 34.90625 
L 20.21875 34.90625 
L 20.21875 43.015625 
L 29.109375 43.015625 
Q 36.375 43.015625 40.234375 45.921875 
Q 44.09375 48.828125 44.09375 54.296875 
Q 44.09375 59.90625 40.109375 62.90625 
Q 36.140625 65.921875 28.71875 65.921875 
Q 24.65625 65.921875 20.015625 65.03125 
Q 15.375 64.15625 9.8125 62.3125 
L 9.8125 71.09375 
Q 15.4375 72.65625 20.34375 73.4375 
Q 25.25 74.21875 29.59375 74.21875 
Q 40.828125 74.21875 47.359375 69.109375 
Q 53.90625 64.015625 53.90625 55.328125 
Q 53.90625 49.265625 50.4375 45.09375 
Q 46.96875 40.921875 40.578125 39.3125 
" id="BitstreamVeraSans-Roman-33"/>
      </defs>
      <g style="fill:#555555;" transform="translate(260.702232143 250.8375)scale(0.1 -0.1)">
       <use xlink:href="#BitstreamVeraSans-Roman-33"/>
       <use x="63.623046875" xlink:href="#BitstreamVeraSans-Roman-30"/>
       <use x="127.24609375" xlink:href="#BitstreamVeraSans-Roman-30"/>
      </g>
     </g>
    </g>
    <g id="xtick_8">
     <g id="line2d_22">
      <path clip-path="url(#pa84e23382d)" d="M 310.103125 235.239062 
L 310.103125 12.039062 
" style="fill:none;stroke:#ffffff;stroke-linecap:square;stroke-width:0.5;"/>
     </g>
     <g id="line2d_23">
      <g>
       <use style="fill:#555555;stroke:#555555;stroke-width:0.5;" x="310.103125" xlink:href="#m9cca5cd3cb" y="235.2390625"/>
      </g>
     </g>
     <g id="line2d_24">
      <g>
       <use style="fill:#555555;stroke:#555555;stroke-width:0.5;" x="310.103125" xlink:href="#m0aff1d1758" y="12.0390625"/>
      </g>
     </g>
     <g id="text_8">
      <!-- 350 -->
      <g style="fill:#555555;" transform="translate(300.559375 250.8375)scale(0.1 -0.1)">
       <use xlink:href="#BitstreamVeraSans-Roman-33"/>
       <use x="63.623046875" xlink:href="#BitstreamVeraSans-Roman-35"/>
       <use x="127.24609375" xlink:href="#BitstreamVeraSans-Roman-30"/>
      </g>
     </g>
    </g>
    <g id="xtick_9">
     <g id="line2d_25">
      <path clip-path="url(#pa84e23382d)" d="M 349.960268 235.239062 
L 349.960268 12.039062 
" style="fill:none;stroke:#ffffff;stroke-linecap:square;stroke-width:0.5;"/>
     </g>
     <g id="line2d_26">
      <g>
       <use style="fill:#555555;stroke:#555555;stroke-width:0.5;" x="349.960267857" xlink:href="#m9cca5cd3cb" y="235.2390625"/>
      </g>
     </g>
     <g id="line2d_27">
      <g>
       <use style="fill:#555555;stroke:#555555;stroke-width:0.5;" x="349.960267857" xlink:href="#m0aff1d1758" y="12.0390625"/>
      </g>
     </g>
     <g id="text_9">
      <!-- 400 -->
      <defs>
       <path d="M 37.796875 64.3125 
L 12.890625 25.390625 
L 37.796875 25.390625 
z
M 35.203125 72.90625 
L 47.609375 72.90625 
L 47.609375 25.390625 
L 58.015625 25.390625 
L 58.015625 17.1875 
L 47.609375 17.1875 
L 47.609375 0 
L 37.796875 0 
L 37.796875 17.1875 
L 4.890625 17.1875 
L 4.890625 26.703125 
z
" id="BitstreamVeraSans-Roman-34"/>
      </defs>
      <g style="fill:#555555;" transform="translate(340.416517857 250.8375)scale(0.1 -0.1)">
       <use xlink:href="#BitstreamVeraSans-Roman-34"/>
       <use x="63.623046875" xlink:href="#BitstreamVeraSans-Roman-30"/>
       <use x="127.24609375" xlink:href="#BitstreamVeraSans-Roman-30"/>
      </g>
     </g>
    </g>
    <g id="text_10">
     <!-- x -->
     <defs>
      <path d="M 54.890625 54.6875 
L 35.109375 28.078125 
L 55.90625 0 
L 45.3125 0 
L 29.390625 21.484375 
L 13.484375 0 
L 2.875 0 
L 24.125 28.609375 
L 4.6875 54.6875 
L 15.28125 54.6875 
L 29.78125 35.203125 
L 44.28125 54.6875 
z
" id="BitstreamVeraSans-Roman-78"/>
     </defs>
     <g style="fill:#555555;" transform="translate(194.951875 267.0353125)scale(0.12 -0.12)">
      <use xlink:href="#BitstreamVeraSans-Roman-78"/>
     </g>
    </g>
   </g>
   <g id="matplotlib.axis_2">
    <g id="ytick_1">
     <g id="line2d_28">
      <path clip-path="url(#pa84e23382d)" d="M 31.103125 235.239062 
L 365.903125 235.239062 
" style="fill:none;stroke:#ffffff;stroke-linecap:square;stroke-width:0.5;"/>
     </g>
     <g id="line2d_29">
      <defs>
       <path d="M 0 0 
L -4 0 
" id="m3513a3e1e2" style="stroke:#555555;stroke-width:0.5;"/>
      </defs>
      <g>
       <use style="fill:#555555;stroke:#555555;stroke-width:0.5;" x="31.103125" xlink:href="#m3513a3e1e2" y="235.2390625"/>
      </g>
     </g>
     <g id="line2d_30">
      <defs>
       <path d="M 0 0 
L 4 0 
" id="m904f2e4ed0" style="stroke:#555555;stroke-width:0.5;"/>
      </defs>
      <g>
       <use style="fill:#555555;stroke:#555555;stroke-width:0.5;" x="365.903125" xlink:href="#m904f2e4ed0" y="235.2390625"/>
      </g>
     </g>
     <g id="text_11">
      <!-- 0.0 -->
      <defs>
       <path d="M 10.6875 12.40625 
L 21 12.40625 
L 21 0 
L 10.6875 0 
z
" id="BitstreamVeraSans-Roman-2e"/>
      </defs>
      <g style="fill:#555555;" transform="translate(7.2 237.9984375)scale(0.1 -0.1)">
       <use xlink:href="#BitstreamVeraSans-Roman-30"/>
       <use x="63.623046875" xlink:href="#BitstreamVeraSans-Roman-2e"/>
       <use x="95.41015625" xlink:href="#BitstreamVeraSans-Roman-30"/>
      </g>
     </g>
    </g>
    <g id="ytick_2">
     <g id="line2d_31">
      <path clip-path="url(#pa84e23382d)" d="M 31.103125 190.599063 
L 365.903125 190.599063 
" style="fill:none;stroke:#ffffff;stroke-linecap:square;stroke-width:0.5;"/>
     </g>
     <g id="line2d_32">
      <g>
       <use style="fill:#555555;stroke:#555555;stroke-width:0.5;" x="31.103125" xlink:href="#m3513a3e1e2" y="190.5990625"/>
      </g>
     </g>
     <g id="line2d_33">
      <g>
       <use style="fill:#555555;stroke:#555555;stroke-width:0.5;" x="365.903125" xlink:href="#m904f2e4ed0" y="190.5990625"/>
      </g>
     </g>
     <g id="text_12">
      <!-- 0.2 -->
      <g style="fill:#555555;" transform="translate(7.2 193.3584375)scale(0.1 -0.1)">
       <use xlink:href="#BitstreamVeraSans-Roman-30"/>
       <use x="63.623046875" xlink:href="#BitstreamVeraSans-Roman-2e"/>
       <use x="95.41015625" xlink:href="#BitstreamVeraSans-Roman-32"/>
      </g>
     </g>
    </g>
    <g id="ytick_3">
     <g id="line2d_34">
      <path clip-path="url(#pa84e23382d)" d="M 31.103125 145.959062 
L 365.903125 145.959062 
" style="fill:none;stroke:#ffffff;stroke-linecap:square;stroke-width:0.5;"/>
     </g>
     <g id="line2d_35">
      <g>
       <use style="fill:#555555;stroke:#555555;stroke-width:0.5;" x="31.103125" xlink:href="#m3513a3e1e2" y="145.9590625"/>
      </g>
     </g>
     <g id="line2d_36">
      <g>
       <use style="fill:#555555;stroke:#555555;stroke-width:0.5;" x="365.903125" xlink:href="#m904f2e4ed0" y="145.9590625"/>
      </g>
     </g>
     <g id="text_13">
      <!-- 0.4 -->
      <g style="fill:#555555;" transform="translate(7.2 148.7184375)scale(0.1 -0.1)">
       <use xlink:href="#BitstreamVeraSans-Roman-30"/>
       <use x="63.623046875" xlink:href="#BitstreamVeraSans-Roman-2e"/>
       <use x="95.41015625" xlink:href="#BitstreamVeraSans-Roman-34"/>
      </g>
     </g>
    </g>
    <g id="ytick_4">
     <g id="line2d_37">
      <path clip-path="url(#pa84e23382d)" d="M 31.103125 101.319062 
L 365.903125 101.319062 
" style="fill:none;stroke:#ffffff;stroke-linecap:square;stroke-width:0.5;"/>
     </g>
     <g id="line2d_38">
      <g>
       <use style="fill:#555555;stroke:#555555;stroke-width:0.5;" x="31.103125" xlink:href="#m3513a3e1e2" y="101.3190625"/>
      </g>
     </g>
     <g id="line2d_39">
      <g>
       <use style="fill:#555555;stroke:#555555;stroke-width:0.5;" x="365.903125" xlink:href="#m904f2e4ed0" y="101.3190625"/>
      </g>
     </g>
     <g id="text_14">
      <!-- 0.6 -->
      <defs>
       <path d="M 33.015625 40.375 
Q 26.375 40.375 22.484375 35.828125 
Q 18.609375 31.296875 18.609375 23.390625 
Q 18.609375 15.53125 22.484375 10.953125 
Q 26.375 6.390625 33.015625 6.390625 
Q 39.65625 6.390625 43.53125 10.953125 
Q 47.40625 15.53125 47.40625 23.390625 
Q 47.40625 31.296875 43.53125 35.828125 
Q 39.65625 40.375 33.015625 40.375 
M 52.59375 71.296875 
L 52.59375 62.3125 
Q 48.875 64.0625 45.09375 64.984375 
Q 41.3125 65.921875 37.59375 65.921875 
Q 27.828125 65.921875 22.671875 59.328125 
Q 17.53125 52.734375 16.796875 39.40625 
Q 19.671875 43.65625 24.015625 45.921875 
Q 28.375 48.1875 33.59375 48.1875 
Q 44.578125 48.1875 50.953125 41.515625 
Q 57.328125 34.859375 57.328125 23.390625 
Q 57.328125 12.15625 50.6875 5.359375 
Q 44.046875 -1.421875 33.015625 -1.421875 
Q 20.359375 -1.421875 13.671875 8.265625 
Q 6.984375 17.96875 6.984375 36.375 
Q 6.984375 53.65625 15.1875 63.9375 
Q 23.390625 74.21875 37.203125 74.21875 
Q 40.921875 74.21875 44.703125 73.484375 
Q 48.484375 72.75 52.59375 71.296875 
" id="BitstreamVeraSans-Roman-36"/>
      </defs>
      <g style="fill:#555555;" transform="translate(7.2 104.0784375)scale(0.1 -0.1)">
       <use xlink:href="#BitstreamVeraSans-Roman-30"/>
       <use x="63.623046875" xlink:href="#BitstreamVeraSans-Roman-2e"/>
       <use x="95.41015625" xlink:href="#BitstreamVeraSans-Roman-36"/>
      </g>
     </g>
    </g>
    <g id="ytick_5">
     <g id="line2d_40">
      <path clip-path="url(#pa84e23382d)" d="M 31.103125 56.679062 
L 365.903125 56.679062 
" style="fill:none;stroke:#ffffff;stroke-linecap:square;stroke-width:0.5;"/>
     </g>
     <g id="line2d_41">
      <g>
       <use style="fill:#555555;stroke:#555555;stroke-width:0.5;" x="31.103125" xlink:href="#m3513a3e1e2" y="56.6790625"/>
      </g>
     </g>
     <g id="line2d_42">
      <g>
       <use style="fill:#555555;stroke:#555555;stroke-width:0.5;" x="365.903125" xlink:href="#m904f2e4ed0" y="56.6790625"/>
      </g>
     </g>
     <g id="text_15">
      <!-- 0.8 -->
      <defs>
       <path d="M 31.78125 34.625 
Q 24.75 34.625 20.71875 30.859375 
Q 16.703125 27.09375 16.703125 20.515625 
Q 16.703125 13.921875 20.71875 10.15625 
Q 24.75 6.390625 31.78125 6.390625 
Q 38.8125 6.390625 42.859375 10.171875 
Q 46.921875 13.96875 46.921875 20.515625 
Q 46.921875 27.09375 42.890625 30.859375 
Q 38.875 34.625 31.78125 34.625 
M 21.921875 38.8125 
Q 15.578125 40.375 12.03125 44.71875 
Q 8.5 49.078125 8.5 55.328125 
Q 8.5 64.0625 14.71875 69.140625 
Q 20.953125 74.21875 31.78125 74.21875 
Q 42.671875 74.21875 48.875 69.140625 
Q 55.078125 64.0625 55.078125 55.328125 
Q 55.078125 49.078125 51.53125 44.71875 
Q 48 40.375 41.703125 38.8125 
Q 48.828125 37.15625 52.796875 32.3125 
Q 56.78125 27.484375 56.78125 20.515625 
Q 56.78125 9.90625 50.3125 4.234375 
Q 43.84375 -1.421875 31.78125 -1.421875 
Q 19.734375 -1.421875 13.25 4.234375 
Q 6.78125 9.90625 6.78125 20.515625 
Q 6.78125 27.484375 10.78125 32.3125 
Q 14.796875 37.15625 21.921875 38.8125 
M 18.3125 54.390625 
Q 18.3125 48.734375 21.84375 45.5625 
Q 25.390625 42.390625 31.78125 42.390625 
Q 38.140625 42.390625 41.71875 45.5625 
Q 45.3125 48.734375 45.3125 54.390625 
Q 45.3125 60.0625 41.71875 63.234375 
Q 38.140625 66.40625 31.78125 66.40625 
Q 25.390625 66.40625 21.84375 63.234375 
Q 18.3125 60.0625 18.3125 54.390625 
" id="BitstreamVeraSans-Roman-38"/>
      </defs>
      <g style="fill:#555555;" transform="translate(7.2 59.4384375)scale(0.1 -0.1)">
       <use xlink:href="#BitstreamVeraSans-Roman-30"/>
       <use x="63.623046875" xlink:href="#BitstreamVeraSans-Roman-2e"/>
       <use x="95.41015625" xlink:href="#BitstreamVeraSans-Roman-38"/>
      </g>
     </g>
    </g>
    <g id="ytick_6">
     <g id="line2d_43">
      <path clip-path="url(#pa84e23382d)" d="M 31.103125 12.039062 
L 365.903125 12.039062 
" style="fill:none;stroke:#ffffff;stroke-linecap:square;stroke-width:0.5;"/>
     </g>
     <g id="line2d_44">
      <g>
       <use style="fill:#555555;stroke:#555555;stroke-width:0.5;" x="31.103125" xlink:href="#m3513a3e1e2" y="12.0390625"/>
      </g>
     </g>
     <g id="line2d_45">
      <g>
       <use style="fill:#555555;stroke:#555555;stroke-width:0.5;" x="365.903125" xlink:href="#m904f2e4ed0" y="12.0390625"/>
      </g>
     </g>
     <g id="text_16">
      <!-- 1.0 -->
      <g style="fill:#555555;" transform="translate(7.2 14.7984375)scale(0.1 -0.1)">
       <use xlink:href="#BitstreamVeraSans-Roman-31"/>
       <use x="63.623046875" xlink:href="#BitstreamVeraSans-Roman-2e"/>
       <use x="95.41015625" xlink:href="#BitstreamVeraSans-Roman-30"/>
      </g>
     </g>
    </g>
   </g>
   <g id="line2d_46">
    <path clip-path="url(#pa84e23382d)" d="M 31.103125 235.239062 
L 31.103125 160.839063 
L 31.103125 145.959062 
L 31.103125 145.959062 
L 31.103125 160.839063 
L 31.103125 160.839063 
L 31.103125 160.839063 
L 31.103125 93.202699 
L 31.900268 86.439063 
L 31.900268 128.953348 
L 32.697411 133.784517 
L 32.697411 128.491236 
L 32.697411 132.939062 
L 32.697411 132.939062 
L 32.697411 137.031062 
L 32.697411 137.031062 
L 32.697411 137.031062 
L 32.697411 127.020881 
L 33.494554 123.639062 
L 33.494554 126.827634 
L 33.494554 126.827634 
L 33.494554 126.827634 
L 33.494554 120.777524 
L 33.494554 120.917111 
L 34.291696 123.639062 
L 34.291696 126.234411 
L 34.291696 126.234411 
L 34.291696 126.234411 
L 34.291696 121.264594 
L 34.291696 125.916614 
L 35.088839 128.103062 
L 35.088839 112.479062 
L 35.088839 118.488293 
L 35.885982 116.875426 
L 35.885982 127.987114 
L 36.683125 129.362139 
L 36.683125 130.702354 
L 36.683125 130.702354 
L 36.683125 130.702354 
L 36.683125 126.296205 
L 36.683125 128.599063 
L 37.480268 129.770931 
L 37.480268 119.262592 
L 38.277411 118.221587 
L 38.277411 112.96428 
L 38.277411 118.059062 
L 39.074554 119.027492 
L 39.074554 118.150538 
L 39.074554 118.150538 
L 39.074554 118.150538 
L 39.074554 126.047696 
L 39.871696 125.233348 
L 39.871696 124.419482 
L 39.871696 125.189062 
L 39.871696 125.189062 
L 39.871696 129.512747 
L 40.668839 130.203768 
L 40.668839 130.885816 
L 40.668839 130.885816 
L 40.668839 130.885816 
L 40.668839 130.119062 
L 40.668839 130.792909 
L 40.668839 130.792909 
L 40.668839 131.458171 
L 40.668839 131.458171 
L 40.668839 131.458171 
L 40.668839 129.877572 
L 40.668839 131.170351 
L 40.668839 131.170351 
L 40.668839 131.804916 
L 41.465982 132.43179 
L 41.465982 131.610491 
L 41.465982 132.223678 
L 41.465982 132.223678 
L 41.465982 133.901131 
L 42.263125 134.480205 
L 42.263125 139.408628 
L 42.263125 138.720144 
L 43.060268 139.239062 
L 43.060268 142.04731 
L 43.857411 142.525216 
L 43.857411 145.74341 
L 44.654554 146.173678 
L 44.654554 145.531885 
L 44.654554 145.959062 
L 44.654554 145.959062 
L 44.654554 149.392909 
L 45.451696 148.774198 
L 45.451696 152.142959 
L 45.451696 150.94035 
L 46.248839 151.300601 
L 46.248839 151.657786 
L 46.248839 151.657786 
L 46.248839 151.657786 
L 46.248839 151.066181 
L 46.248839 151.421341 
L 46.248839 151.421341 
L 46.248839 151.773516 
L 46.248839 151.773516 
L 46.248839 151.773516 
L 46.248839 151.188853 
L 46.248839 151.539062 
L 46.248839 151.539062 
L 46.248839 152.572396 
L 46.248839 151.99644 
L 47.045982 152.336205 
L 47.045982 155.587298 
L 47.843125 155.898438 
L 47.843125 158.903003 
L 48.640268 158.359062 
L 48.640268 160.039062 
L 49.437411 160.307634 
L 49.437411 162.891476 
L 50.234554 163.140093 
L 50.234554 165.069163 
L 51.031696 165.303062 
L 51.031696 166.223273 
L 51.828839 166.449554 
L 51.828839 165.944945 
L 51.828839 166.394907 
L 51.828839 166.394907 
L 51.828839 166.617703 
L 51.828839 166.617703 
L 51.828839 166.617703 
L 51.828839 165.623628 
L 51.828839 166.507634 
L 52.625982 166.725138 
L 52.625982 168.41684 
L 53.423125 168.622447 
L 53.423125 169.231745 
L 54.220268 169.432376 
L 54.220268 171.373576 
L 55.017411 171.561415 
L 55.017411 172.845979 
L 55.017411 172.38389 
L 55.814554 172.563991 
L 55.814554 174.309815 
L 56.611696 174.479062 
L 56.611696 176.753501 
L 57.408839 176.909462 
L 57.408839 177.676957 
L 57.408839 177.242212 
L 58.205982 177.394036 
L 58.205982 179.013108 
L 59.003125 179.155814 
L 59.003125 179.858611 
L 59.800268 179.997062 
L 59.800268 180.408293 
L 60.597411 180.544013 
L 60.597411 181.735915 
L 61.394554 181.865149 
L 61.394554 183.246592 
L 62.191696 183.36864 
L 62.191696 184.089062 
L 62.988839 184.207192 
L 62.988839 185.246302 
L 63.785982 185.359153 
L 63.785982 186.025699 
L 64.583125 186.243941 
L 64.583125 187.202541 
L 65.380268 187.410491 
L 65.380268 189.107956 
L 66.177411 189.299769 
L 66.177411 189.584517 
L 66.974554 189.772396 
L 66.974554 190.956898 
L 67.771696 191.133673 
L 67.771696 191.309043 
L 67.771696 191.309043 
L 67.771696 191.309043 
L 67.771696 190.953348 
L 67.771696 191.215394 
L 68.568839 191.388375 
L 68.568839 192.315986 
L 69.365982 192.480442 
L 69.365982 193.046246 
L 70.163125 193.205164 
L 70.163125 193.982131 
L 70.960268 194.13409 
L 70.960268 194.950254 
L 71.757411 195.095178 
L 71.757411 195.804434 
L 72.554554 195.943288 
L 72.554554 196.623146 
L 73.351696 196.756304 
L 73.351696 197.279879 
L 74.148839 197.408554 
L 74.148839 198.407379 
L 74.945982 198.528536 
L 74.945982 199.239062 
L 75.743125 199.354818 
L 75.743125 199.922607 
L 76.540268 200.089456 
L 76.540268 200.580677 
L 77.337411 200.741381 
L 77.337411 201.110622 
L 78.134554 201.26646 
L 78.134554 201.825889 
L 78.931696 201.975277 
L 78.931696 202.367192 
L 79.728839 202.51179 
L 79.728839 203.03127 
L 80.525982 203.170097 
L 80.525982 203.398834 
L 81.323125 203.534517 
L 81.323125 203.802443 
L 82.120268 203.934715 
L 82.120268 204.367693 
L 82.917411 204.495261 
L 82.917411 204.954124 
L 83.714554 205.0769 
L 83.714554 205.754254 
L 84.511696 205.870641 
L 84.511696 206.138671 
L 85.308839 206.25205 
L 85.308839 206.696863 
L 86.105982 206.842116 
L 86.105982 207.373894 
L 86.903125 207.512354 
L 86.903125 207.886121 
L 87.700268 208.01955 
L 87.700268 208.508524 
L 88.497411 208.635964 
L 88.497411 209.194722 
L 89.294554 209.315718 
L 89.294554 209.75961 
L 90.091696 209.875426 
L 90.091696 210.439062 
L 90.888839 210.576079 
L 90.888839 210.84562 
L 91.685982 210.978193 
L 91.685982 211.264841 
L 92.483125 211.392909 
L 92.483125 212.061492 
L 93.280268 212.181211 
L 93.280268 212.556136 
L 94.077411 212.670812 
L 94.077411 212.963613 
L 94.874554 213.096205 
L 94.874554 213.442187 
L 95.671696 213.56916 
L 95.671696 213.79814 
L 96.468839 213.921011 
L 96.468839 214.340186 
L 97.265982 214.45694 
L 97.265982 214.780767 
L 98.063125 214.892663 
L 98.063125 215.221125 
L 98.860268 215.346014 
L 98.860268 215.745613 
L 99.657411 215.864062 
L 99.657411 216.194694 
L 100.454554 216.307765 
L 100.454554 216.62355 
L 101.251696 216.746933 
L 101.251696 217.063167 
L 102.048839 217.18081 
L 102.048839 217.468362 
L 102.845982 217.580835 
L 102.845982 217.760597 
L 103.643125 217.882919 
L 103.643125 218.096205 
L 104.440268 218.213891 
L 104.440268 218.431834 
L 105.237411 218.544971 
L 105.237411 218.644267 
L 106.034554 218.766738 
L 106.034554 218.98269 
L 106.831696 219.100234 
L 106.831696 219.227585 
L 107.628839 219.341627 
L 107.628839 219.520753 
L 108.425982 219.641578 
L 108.425982 219.792696 
L 109.223125 219.909392 
L 109.223125 220.198631 
L 110.020268 220.319276 
L 110.020268 220.564506 
L 110.817411 220.679376 
L 110.817411 220.86688 
L 111.614554 220.986189 
L 111.614554 221.31517 
L 112.411696 221.427181 
L 112.411696 221.562592 
L 113.208839 221.678917 
L 113.208839 221.833657 
L 114.005982 221.945435 
L 114.005982 222.125079 
L 114.803125 222.239645 
L 114.803125 222.4041 
L 115.600268 222.521114 
L 115.600268 222.685632 
L 116.397411 222.797591 
L 116.397411 222.995508 
L 117.194554 223.108628 
L 117.194554 223.303234 
L 117.991696 223.417029 
L 117.991696 223.510213 
L 118.788839 223.626159 
L 118.788839 223.733908 
L 119.585982 223.845494 
L 119.585982 223.960639 
L 120.383125 224.07348 
L 120.383125 224.23857 
L 121.180268 224.351258 
L 121.180268 224.456454 
L 121.977411 224.569846 
L 121.977411 224.695841 
L 122.774554 224.809156 
L 122.774554 224.905729 
L 123.571696 225.019282 
L 123.571696 225.084376 
L 124.368839 225.198577 
L 124.368839 225.332272 
L 125.165982 225.445293 
L 125.165982 225.500843 
L 125.963125 225.614224 
L 125.963125 225.74523 
L 126.760268 225.856969 
L 126.760268 225.950673 
L 127.557411 226.065203 
L 127.557411 226.173262 
L 128.354554 226.285994 
L 128.354554 226.399459 
L 129.151696 226.513496 
L 129.151696 226.567734 
L 129.948839 226.68078 
L 129.948839 226.784517 
L 130.745982 226.898255 
L 130.745982 226.969333 
L 131.543125 227.081168 
L 131.543125 227.134487 
L 132.340268 227.247655 
L 132.340268 227.329778 
L 133.137411 227.443044 
L 133.137411 227.523888 
L 133.934554 227.636883 
L 133.934554 227.688318 
L 134.731696 227.801542 
L 134.731696 227.831163 
L 135.528839 227.94256 
L 135.528839 227.994661 
L 136.325982 228.108072 
L 136.325982 228.169059 
L 137.123125 228.281457 
L 137.123125 228.339526 
L 137.920268 228.450741 
L 137.920268 228.487701 
L 138.717411 228.600157 
L 138.717411 228.643318 
L 139.514554 228.756344 
L 139.514554 228.795644 
L 140.311696 228.907148 
L 140.311696 228.933978 
L 141.108839 229.045944 
L 141.108839 229.06308 
L 141.905982 229.175493 
L 141.905982 229.193559 
L 142.703125 229.306048 
L 142.703125 229.337423 
L 143.500268 229.449179 
L 143.500268 229.473111 
L 144.297411 229.585567 
L 144.297411 229.595573 
L 145.891696 229.708835 
L 145.891696 229.825529 
L 147.485982 229.938659 
L 147.485982 230.053189 
L 149.080268 230.166335 
L 149.080268 230.271335 
L 149.877411 230.382666 
L 149.877411 230.398464 
L 151.471696 230.511251 
L 151.471696 230.592934 
L 153.065982 230.705242 
L 153.065982 230.796387 
L 154.660268 230.908446 
L 154.660268 230.954993 
L 156.254554 231.0671 
L 156.254554 231.142146 
L 157.848839 231.25406 
L 157.848839 231.285821 
L 159.443125 231.398071 
L 159.443125 231.437325 
L 161.037411 231.549196 
L 161.037411 231.58424 
L 162.631696 231.696205 
L 162.631696 231.717447 
L 164.225982 231.829347 
L 164.225982 231.845418 
L 165.820268 231.957192 
L 165.820268 231.980668 
L 167.414554 232.092298 
L 167.414554 232.095843 
L 169.008839 232.207689 
L 169.008839 232.219173 
L 171.400268 232.331298 
L 171.400268 232.364256 
L 173.791696 232.476344 
L 173.791696 232.4886 
L 176.183125 232.600453 
L 176.183125 232.607608 
L 178.574554 232.719591 
L 178.574554 232.722148 
L 181.763125 232.834149 
L 181.763125 232.861559 
L 184.951696 232.973533 
L 184.951696 232.985655 
L 188.937411 233.09785 
L 188.937411 233.109698 
L 192.923125 233.221709 
L 192.923125 233.224258 
L 197.705982 233.336411 
L 197.705982 233.338518 
L 203.285982 233.450744 
L 203.285982 233.45332 
L 210.460268 233.565648 
L 210.460268 233.576616 
L 219.228839 233.689062 
L 219.228839 233.694426 
L 230.388839 233.807008 
L 230.388839 233.811039 
L 245.534554 233.923878 
L 245.534554 233.928742 
L 269.448839 234.042151 
L 269.448839 234.043754 
L 313.291696 234.158348 
L 313.291696 234.158505 
L 365.903125 234.203716 
L 365.903125 234.203716 
" style="fill:none;stroke:#e24a33;stroke-linecap:square;"/>
   </g>
   <g id="line2d_47">
    <path clip-path="url(#pa84e23382d)" d="M 31.103125 235.239062 
L 31.103125 219.615062 
L 31.900268 217.383062 
L 31.900268 217.383062 
L 31.900268 212.919062 
L 31.900268 212.919062 
L 32.697411 212.919062 
L 32.697411 199.527062 
L 33.494554 197.295062 
L 33.494554 197.295062 
L 33.494554 188.367063 
L 34.291696 188.367063 
L 34.291696 181.671063 
L 34.291696 181.671063 
L 35.088839 181.671063 
L 35.088839 159.351062 
L 35.088839 159.351062 
L 35.885982 157.119062 
L 35.885982 157.119062 
L 35.885982 152.655062 
L 35.885982 152.655062 
L 36.683125 152.655062 
L 36.683125 139.263062 
L 37.480268 139.263062 
L 37.480268 116.943062 
L 38.277411 114.711062 
L 38.277411 94.623063 
L 38.277411 94.623063 
L 39.074554 94.623063 
L 39.074554 83.463062 
L 39.074554 83.463062 
L 39.871696 81.231063 
L 39.871696 74.535063 
L 39.871696 74.535063 
L 40.668839 74.535063 
L 40.668839 65.607062 
L 40.668839 65.607062 
L 41.465982 65.607062 
L 41.465982 58.911062 
L 41.465982 58.911062 
L 42.263125 58.911062 
L 42.263125 58.911062 
L 42.263125 56.679062 
L 43.060268 56.679062 
L 43.060268 56.679062 
L 43.060268 54.447062 
L 43.060268 54.447062 
L 43.857411 54.447062 
L 43.857411 54.447062 
L 43.857411 49.983063 
L 43.857411 49.983063 
L 44.654554 49.983063 
L 44.654554 45.519062 
L 44.654554 45.519062 
L 45.451696 43.287062 
L 45.451696 43.287062 
L 45.451696 38.823062 
L 46.248839 38.823062 
L 46.248839 32.127062 
L 47.843125 32.127062 
L 47.843125 32.127062 
L 47.843125 29.895062 
L 47.843125 29.895062 
L 48.640268 27.663062 
L 48.640268 27.663062 
L 48.640268 25.431063 
L 48.640268 25.431063 
L 51.828839 25.431063 
L 51.828839 18.735062 
L 51.828839 18.735062 
L 55.017411 18.735062 
L 55.017411 18.735062 
L 55.017411 16.503062 
L 57.408839 16.503062 
L 57.408839 16.503062 
L 57.408839 14.271062 
L 67.771696 14.271062 
L 67.771696 14.271062 
L 67.771696 12.039062 
L 67.771696 12.039062 
L 365.903125 12.039062 
L 365.903125 12.039062 
" style="fill:none;stroke:#348abd;stroke-linecap:square;"/>
   </g>
   <g id="line2d_48">
    <path clip-path="url(#pa84e23382d)" d="M 31.103125 235.239062 
L 31.103125 207.087711 
L 31.900268 203.353348 
L 31.900268 203.635523 
L 31.900268 203.912747 
L 31.900268 203.912747 
L 31.900268 203.912747 
L 31.900268 197.408554 
L 31.900268 198.346501 
L 32.697411 198.648899 
L 32.697411 181.536807 
L 33.494554 178.606227 
L 33.494554 179.025729 
L 33.494554 168.753956 
L 34.291696 169.222161 
L 34.291696 169.683818 
L 34.291696 169.683818 
L 34.291696 169.683818 
L 34.291696 162.35743 
L 34.291696 163.335707 
L 35.088839 163.815063 
L 35.088839 142.124952 
L 35.088839 143.253608 
L 35.885982 141.118581 
L 35.885982 142.789358 
L 35.885982 142.789358 
L 35.885982 142.789358 
L 35.885982 139.76623 
L 35.885982 141.923808 
L 36.683125 142.448051 
L 36.683125 142.966437 
L 36.683125 142.966437 
L 36.683125 142.966437 
L 36.683125 134.211694 
L 37.480268 134.740633 
L 37.480268 118.11431 
L 38.277411 116.492264 
L 38.277411 104.433481 
L 38.277411 107.406335 
L 39.074554 107.984764 
L 39.074554 105.448754 
L 39.074554 107.696205 
L 39.074554 107.696205 
L 39.074554 109.33137 
L 39.074554 108.506859 
L 39.074554 108.506859 
L 39.074554 107.15805 
L 39.074554 108.229857 
L 39.871696 106.899062 
L 39.871696 104.809433 
L 39.871696 106.400038 
L 39.871696 106.400038 
L 39.871696 106.921654 
L 39.871696 106.921654 
L 39.871696 106.921654 
L 39.871696 105.639062 
L 39.871696 106.675862 
L 39.871696 106.675862 
L 39.871696 107.696205 
L 40.668839 108.200327 
L 40.668839 108.70048 
L 40.668839 108.70048 
L 40.668839 108.70048 
L 40.668839 105.252856 
L 40.668839 106.729972 
L 41.465982 107.214912 
L 41.465982 105.316674 
L 41.465982 106.532493 
L 42.263125 107.000517 
L 42.263125 111.064415 
L 42.263125 109.933799 
L 43.060268 110.37193 
L 43.060268 112.251307 
L 43.857411 112.668215 
L 43.857411 114.828536 
L 43.857411 114.551115 
L 44.654554 114.942959 
L 44.654554 113.887606 
L 44.654554 114.668001 
L 44.654554 114.668001 
L 44.654554 117.322081 
L 44.654554 117.033455 
L 45.451696 116.014218 
L 45.451696 119.255981 
L 45.451696 117.271495 
L 46.248839 117.624691 
L 46.248839 117.975779 
L 46.248839 117.975779 
L 46.248839 117.975779 
L 46.248839 116.725788 
L 46.248839 117.765378 
L 46.248839 117.765378 
L 46.248839 118.107867 
L 46.248839 118.107867 
L 46.248839 118.107867 
L 46.248839 117.15069 
L 47.045982 117.492976 
L 47.045982 120.809767 
L 47.843125 121.131197 
L 47.843125 123.941502 
L 48.640268 123.035819 
L 48.640268 124.52244 
L 49.437411 124.813799 
L 49.437411 127.645216 
L 50.234554 127.920392 
L 50.234554 130.072145 
L 51.031696 130.335062 
L 51.031696 131.373716 
L 51.828839 131.630174 
L 51.828839 129.884318 
L 51.828839 130.899785 
L 52.625982 131.150601 
L 52.625982 133.114534 
L 53.423125 133.354827 
L 53.423125 134.068969 
L 54.220268 134.304797 
L 54.220268 136.603983 
L 55.017411 136.828153 
L 55.017411 138.369264 
L 55.017411 137.589063 
L 55.814554 137.806546 
L 55.814554 139.929259 
L 56.611696 140.136454 
L 56.611696 142.945392 
L 57.408839 143.139694 
L 57.408839 144.099063 
L 57.408839 143.360476 
L 58.205982 143.551096 
L 58.205982 145.596872 
L 59.003125 145.778334 
L 59.003125 146.674734 
L 59.800268 146.851862 
L 59.800268 147.379023 
L 60.597411 147.553348 
L 60.597411 149.091694 
L 61.394554 149.259296 
L 61.394554 151.060777 
L 62.191696 151.220812 
L 62.191696 152.168386 
L 62.988839 152.324241 
L 62.988839 153.701055 
L 63.785982 153.851217 
L 63.785982 154.740702 
L 64.583125 154.887063 
L 64.583125 156.32192 
L 65.380268 156.462592 
L 65.380268 158.911601 
L 66.177411 159.0432 
L 66.177411 159.56509 
L 66.974554 159.694447 
L 66.974554 161.460098 
L 67.771696 161.583062 
L 67.771696 161.94951 
L 67.771696 161.94951 
L 67.771696 161.94951 
L 67.771696 161.331778 
L 67.771696 161.697053 
L 68.568839 161.81801 
L 68.568839 163.239062 
L 69.365982 163.355005 
L 69.365982 164.269269 
L 70.163125 164.38192 
L 70.163125 165.597877 
L 70.960268 165.81449 
L 70.960268 166.982182 
L 71.757411 167.190282 
L 71.757411 168.212035 
L 72.554554 168.412715 
L 72.554554 169.398355 
L 73.351696 169.592004 
L 73.351696 170.355342 
L 74.148839 170.54341 
L 74.148839 172.009601 
L 74.945982 172.188215 
L 74.945982 173.239062 
L 75.743125 173.410808 
L 75.743125 174.255456 
L 76.540268 174.421624 
L 76.540268 175.239062 
L 77.337411 175.39992 
L 77.337411 176.034818 
L 78.134554 176.191443 
L 78.134554 177.114062 
L 78.931696 177.265037 
L 78.931696 177.934826 
L 79.728839 178.081572 
L 79.728839 178.946503 
L 80.525982 179.088119 
L 80.525982 179.508725 
L 81.323125 179.647531 
L 81.323125 180.127951 
L 82.120268 180.263693 
L 82.120268 180.998479 
L 82.917411 181.129972 
L 82.917411 181.905729 
L 83.714554 182.032865 
L 83.714554 183.150381 
L 84.511696 183.271659 
L 84.511696 183.751173 
L 85.308839 183.869672 
L 85.308839 184.626818 
L 86.105982 184.741325 
L 86.105982 185.694112 
L 86.903125 185.858532 
L 86.903125 186.505438 
L 87.700268 186.664525 
L 87.700268 187.495747 
L 88.497411 187.648444 
L 88.497411 188.593294 
L 89.294554 188.739062 
L 89.294554 189.501358 
L 90.091696 189.641514 
L 90.091696 190.599063 
L 90.888839 190.732582 
L 90.888839 191.258767 
L 91.685982 191.388375 
L 91.685982 191.941293 
L 92.483125 192.066915 
L 92.483125 193.244707 
L 93.280268 193.36289 
L 93.280268 194.058251 
L 94.077411 194.171905 
L 94.077411 194.730896 
L 94.874554 194.877399 
L 94.874554 195.52376 
L 95.671696 195.664594 
L 95.671696 196.115487 
L 96.468839 196.252163 
L 96.468839 197.019884 
L 97.265982 197.150325 
L 97.265982 197.757954 
L 98.063125 197.883414 
L 98.063125 198.498322 
L 98.860268 198.618882 
L 98.860268 199.383641 
L 99.657411 199.49847 
L 99.657411 200.144723 
L 100.454554 200.282132 
L 100.454554 200.874166 
L 101.251696 201.005934 
L 101.251696 201.624605 
L 102.048839 201.75069 
L 102.048839 202.318709 
L 102.845982 202.43965 
L 102.845982 202.820762 
L 103.643125 202.938049 
L 103.643125 203.398834 
L 104.440268 203.511984 
L 104.440268 203.978558 
L 105.237411 204.109355 
L 105.237411 204.346329 
L 106.034554 204.474073 
L 106.034554 204.933564 
L 106.831696 205.056507 
L 106.831696 205.359544 
L 107.628839 205.479062 
L 107.628839 205.870641 
L 108.425982 205.986114 
L 108.425982 206.345859 
L 109.223125 206.457631 
L 109.223125 207.057244 
L 110.020268 207.181237 
L 110.020268 207.700506 
L 110.817411 207.818915 
L 110.817411 208.233618 
L 111.614554 208.347496 
L 111.614554 209.026496 
L 112.411696 209.149057 
L 112.411696 209.46539 
L 113.208839 209.58389 
L 113.208839 209.947278 
L 114.005982 210.061398 
L 114.005982 210.466587 
L 114.803125 210.589698 
L 114.803125 210.965001 
L 115.600268 211.083218 
L 115.600268 211.469094 
L 116.397411 211.582465 
L 116.397411 212.025334 
L 117.194554 212.145426 
L 117.194554 212.579164 
L 117.991696 212.693608 
L 117.991696 212.952492 
L 118.788839 213.074216 
L 118.788839 213.35671 
L 119.585982 213.47407 
L 119.585982 213.767201 
L 120.383125 213.880211 
L 120.383125 214.271472 
L 121.180268 214.388992 
L 121.180268 214.667634 
L 121.977411 214.780767 
L 121.977411 215.103745 
L 122.774554 215.221125 
L 122.774554 215.48685 
L 123.571696 215.599819 
L 123.571696 215.813475 
L 124.368839 215.931104 
L 124.368839 216.267537 
L 125.165982 216.379747 
L 125.165982 216.576855 
L 125.963125 216.693155 
L 125.963125 217.026088 
L 126.760268 217.14421 
L 126.760268 217.404464 
L 127.557411 217.517745 
L 127.557411 217.815175 
L 128.354554 217.930028 
L 128.354554 218.233348 
L 129.151696 218.349165 
L 129.151696 218.544971 
L 129.948839 218.656596 
L 129.948839 218.947092 
L 130.745982 219.059287 
L 130.745982 219.290509 
L 131.543125 219.40366 
L 131.543125 219.597857 
L 132.340268 219.712106 
L 132.340268 219.961855 
L 133.137411 220.076019 
L 133.137411 220.324261 
L 133.934554 220.438001 
L 133.934554 220.631733 
L 134.731696 220.745556 
L 134.731696 220.899197 
L 135.528839 221.013441 
L 135.528839 221.20574 
L 136.325982 221.319512 
L 136.325982 221.533198 
L 137.123125 221.645883 
L 137.123125 221.853755 
L 137.920268 221.9652 
L 137.920268 222.132779 
L 138.717411 222.247212 
L 138.717411 222.426204 
L 139.514554 222.539205 
L 139.514554 222.71381 
L 140.311696 222.825269 
L 140.311696 222.975326 
L 141.108839 223.088818 
L 141.108839 223.219676 
L 141.905982 223.331887 
L 141.905982 223.466911 
L 142.703125 223.580666 
L 142.703125 223.739835 
L 143.500268 223.851307 
L 143.500268 223.997562 
L 144.297411 224.109668 
L 144.297411 224.230431 
L 145.094554 224.343285 
L 145.094554 224.432962 
L 145.891696 224.544285 
L 145.891696 224.668378 
L 146.688839 224.779831 
L 146.688839 224.87454 
L 147.485982 224.986421 
L 147.485982 225.102823 
L 148.283125 225.21436 
L 148.283125 225.299183 
L 149.080268 225.410793 
L 149.080268 225.519925 
L 149.877411 225.632865 
L 149.877411 225.763367 
L 150.674554 225.874682 
L 150.674554 225.935186 
L 151.471696 226.048204 
L 151.471696 226.136289 
L 152.268839 226.248126 
L 152.268839 226.346632 
L 153.065982 226.458575 
L 153.065982 226.527119 
L 153.863125 226.639563 
L 153.863125 226.675855 
L 154.660268 226.787718 
L 154.660268 226.832283 
L 155.457411 226.944748 
L 155.457411 227.018068 
L 156.254554 227.130071 
L 156.254554 227.19292 
L 157.051696 227.304473 
L 157.051696 227.33258 
L 157.848839 227.444406 
L 157.848839 227.47018 
L 158.645982 227.582116 
L 158.645982 227.606989 
L 159.443125 227.718847 
L 159.443125 227.762928 
L 160.240268 227.875156 
L 160.240268 227.909013 
L 161.037411 228.020434 
L 161.037411 228.047182 
L 161.834554 228.158967 
L 161.834554 228.184701 
L 162.631696 228.296605 
L 162.631696 228.305232 
L 163.428839 228.416504 
L 163.428839 228.417547 
L 164.225982 228.529308 
L 164.225982 228.553425 
L 165.023125 228.664688 
L 165.023125 228.698403 
L 165.820268 228.809565 
L 165.820268 228.816041 
L 166.617411 228.927738 
L 166.617411 228.936648 
L 168.211696 229.049379 
L 168.211696 229.160631 
L 169.008839 229.271946 
L 169.008839 229.279912 
L 170.603125 229.392304 
L 170.603125 229.461917 
L 172.197411 229.574088 
L 172.197411 229.63595 
L 173.791696 229.748288 
L 173.791696 229.8051 
L 175.385982 229.917174 
L 175.385982 229.960595 
L 176.980268 230.072396 
L 176.980268 230.115684 
L 178.574554 230.227837 
L 178.574554 230.261364 
L 180.168839 230.373137 
L 180.168839 230.403707 
L 181.763125 230.515753 
L 181.763125 230.534172 
L 183.357411 230.645997 
L 183.357411 230.669038 
L 185.748839 230.781303 
L 185.748839 230.827559 
L 188.140268 230.939727 
L 188.140268 230.976673 
L 190.531696 231.088821 
L 190.531696 231.114513 
L 192.923125 231.226478 
L 192.923125 231.245504 
L 195.314554 231.357661 
L 195.314554 231.357998 
L 198.503125 231.470384 
L 198.503125 231.50506 
L 201.691696 231.617156 
L 201.691696 231.635866 
L 204.880268 231.748017 
L 204.880268 231.755373 
L 208.865982 231.867716 
L 208.865982 231.890979 
L 212.851696 232.003342 
L 212.851696 232.009429 
L 217.634554 232.121744 
L 217.634554 232.137555 
L 223.214554 232.25011 
L 223.214554 232.254906 
L 228.794554 232.3674 
L 228.794554 232.368877 
L 235.171696 232.481294 
L 235.171696 232.486565 
L 243.143125 232.599361 
L 243.143125 232.602323 
L 252.708839 232.715175 
L 252.708839 232.715318 
L 265.463125 232.828695 
L 265.463125 232.830516 
L 282.203125 232.944301 
L 282.203125 232.945244 
L 309.305982 233.060332 
L 309.305982 233.060651 
L 365.903125 233.17793 
L 365.903125 233.17793 
" style="fill:none;stroke:#988ed5;stroke-linecap:square;"/>
   </g>
   <g id="patch_3">
    <path d="M 31.103125 12.039062 
L 365.903125 12.039062 
" style="fill:none;stroke:#ffffff;stroke-linecap:square;stroke-linejoin:miter;"/>
   </g>
   <g id="patch_4">
    <path d="M 365.903125 235.239062 
L 365.903125 12.039062 
" style="fill:none;stroke:#ffffff;stroke-linecap:square;stroke-linejoin:miter;"/>
   </g>
   <g id="patch_5">
    <path d="M 31.103125 235.239062 
L 365.903125 235.239062 
" style="fill:none;stroke:#ffffff;stroke-linecap:square;stroke-linejoin:miter;"/>
   </g>
   <g id="patch_6">
    <path d="M 31.103125 235.239062 
L 31.103125 12.039062 
" style="fill:none;stroke:#ffffff;stroke-linecap:square;stroke-linejoin:miter;"/>
   </g>
   <g id="legend_1">
    <g id="patch_7">
     <path d="M 262.3075 74.480312 
L 359.903125 74.480312 
L 359.903125 18.039062 
L 262.3075 18.039062 
z
" style="fill:#e5e5e5;stroke:#ffffff;stroke-linejoin:miter;stroke-width:0.5;"/>
    </g>
    <g id="line2d_49">
     <path d="M 270.7075 27.757187 
L 287.5075 27.757187 
" style="fill:none;stroke:#e24a33;stroke-linecap:square;"/>
    </g>
    <g id="line2d_50"/>
    <g id="text_17">
     <!-- precision -->
     <defs>
      <path d="M 54.890625 33.015625 
L 54.890625 0 
L 45.90625 0 
L 45.90625 32.71875 
Q 45.90625 40.484375 42.875 44.328125 
Q 39.84375 48.1875 33.796875 48.1875 
Q 26.515625 48.1875 22.3125 43.546875 
Q 18.109375 38.921875 18.109375 30.90625 
L 18.109375 0 
L 9.078125 0 
L 9.078125 54.6875 
L 18.109375 54.6875 
L 18.109375 46.1875 
Q 21.34375 51.125 25.703125 53.5625 
Q 30.078125 56 35.796875 56 
Q 45.21875 56 50.046875 50.171875 
Q 54.890625 44.34375 54.890625 33.015625 
" id="BitstreamVeraSans-Roman-6e"/>
      <path d="M 30.609375 48.390625 
Q 23.390625 48.390625 19.1875 42.75 
Q 14.984375 37.109375 14.984375 27.296875 
Q 14.984375 17.484375 19.15625 11.84375 
Q 23.34375 6.203125 30.609375 6.203125 
Q 37.796875 6.203125 41.984375 11.859375 
Q 46.1875 17.53125 46.1875 27.296875 
Q 46.1875 37.015625 41.984375 42.703125 
Q 37.796875 48.390625 30.609375 48.390625 
M 30.609375 56 
Q 42.328125 56 49.015625 48.375 
Q 55.71875 40.765625 55.71875 27.296875 
Q 55.71875 13.875 49.015625 6.21875 
Q 42.328125 -1.421875 30.609375 -1.421875 
Q 18.84375 -1.421875 12.171875 6.21875 
Q 5.515625 13.875 5.515625 27.296875 
Q 5.515625 40.765625 12.171875 48.375 
Q 18.84375 56 30.609375 56 
" id="BitstreamVeraSans-Roman-6f"/>
      <path d="M 9.421875 54.6875 
L 18.40625 54.6875 
L 18.40625 0 
L 9.421875 0 
z
M 9.421875 75.984375 
L 18.40625 75.984375 
L 18.40625 64.59375 
L 9.421875 64.59375 
z
" id="BitstreamVeraSans-Roman-69"/>
      <path d="M 18.109375 8.203125 
L 18.109375 -20.796875 
L 9.078125 -20.796875 
L 9.078125 54.6875 
L 18.109375 54.6875 
L 18.109375 46.390625 
Q 20.953125 51.265625 25.265625 53.625 
Q 29.59375 56 35.59375 56 
Q 45.5625 56 51.78125 48.09375 
Q 58.015625 40.1875 58.015625 27.296875 
Q 58.015625 14.40625 51.78125 6.484375 
Q 45.5625 -1.421875 35.59375 -1.421875 
Q 29.59375 -1.421875 25.265625 0.953125 
Q 20.953125 3.328125 18.109375 8.203125 
M 48.6875 27.296875 
Q 48.6875 37.203125 44.609375 42.84375 
Q 40.53125 48.484375 33.40625 48.484375 
Q 26.265625 48.484375 22.1875 42.84375 
Q 18.109375 37.203125 18.109375 27.296875 
Q 18.109375 17.390625 22.1875 11.75 
Q 26.265625 6.109375 33.40625 6.109375 
Q 40.53125 6.109375 44.609375 11.75 
Q 48.6875 17.390625 48.6875 27.296875 
" id="BitstreamVeraSans-Roman-70"/>
      <path d="M 56.203125 29.59375 
L 56.203125 25.203125 
L 14.890625 25.203125 
Q 15.484375 15.921875 20.484375 11.0625 
Q 25.484375 6.203125 34.421875 6.203125 
Q 39.59375 6.203125 44.453125 7.46875 
Q 49.3125 8.734375 54.109375 11.28125 
L 54.109375 2.78125 
Q 49.265625 0.734375 44.1875 -0.34375 
Q 39.109375 -1.421875 33.890625 -1.421875 
Q 20.796875 -1.421875 13.15625 6.1875 
Q 5.515625 13.8125 5.515625 26.8125 
Q 5.515625 40.234375 12.765625 48.109375 
Q 20.015625 56 32.328125 56 
Q 43.359375 56 49.78125 48.890625 
Q 56.203125 41.796875 56.203125 29.59375 
M 47.21875 32.234375 
Q 47.125 39.59375 43.09375 43.984375 
Q 39.0625 48.390625 32.421875 48.390625 
Q 24.90625 48.390625 20.390625 44.140625 
Q 15.875 39.890625 15.1875 32.171875 
z
" id="BitstreamVeraSans-Roman-65"/>
      <path d="M 41.109375 46.296875 
Q 39.59375 47.171875 37.8125 47.578125 
Q 36.03125 48 33.890625 48 
Q 26.265625 48 22.1875 43.046875 
Q 18.109375 38.09375 18.109375 28.8125 
L 18.109375 0 
L 9.078125 0 
L 9.078125 54.6875 
L 18.109375 54.6875 
L 18.109375 46.1875 
Q 20.953125 51.171875 25.484375 53.578125 
Q 30.03125 56 36.53125 56 
Q 37.453125 56 38.578125 55.875 
Q 39.703125 55.765625 41.0625 55.515625 
z
" id="BitstreamVeraSans-Roman-72"/>
      <path d="M 44.28125 53.078125 
L 44.28125 44.578125 
Q 40.484375 46.53125 36.375 47.5 
Q 32.28125 48.484375 27.875 48.484375 
Q 21.1875 48.484375 17.84375 46.4375 
Q 14.5 44.390625 14.5 40.28125 
Q 14.5 37.15625 16.890625 35.375 
Q 19.28125 33.59375 26.515625 31.984375 
L 29.59375 31.296875 
Q 39.15625 29.25 43.1875 25.515625 
Q 47.21875 21.78125 47.21875 15.09375 
Q 47.21875 7.46875 41.1875 3.015625 
Q 35.15625 -1.421875 24.609375 -1.421875 
Q 20.21875 -1.421875 15.453125 -0.5625 
Q 10.6875 0.296875 5.421875 2 
L 5.421875 11.28125 
Q 10.40625 8.6875 15.234375 7.390625 
Q 20.0625 6.109375 24.8125 6.109375 
Q 31.15625 6.109375 34.5625 8.28125 
Q 37.984375 10.453125 37.984375 14.40625 
Q 37.984375 18.0625 35.515625 20.015625 
Q 33.0625 21.96875 24.703125 23.78125 
L 21.578125 24.515625 
Q 13.234375 26.265625 9.515625 29.90625 
Q 5.8125 33.546875 5.8125 39.890625 
Q 5.8125 47.609375 11.28125 51.796875 
Q 16.75 56 26.8125 56 
Q 31.78125 56 36.171875 55.265625 
Q 40.578125 54.546875 44.28125 53.078125 
" id="BitstreamVeraSans-Roman-73"/>
      <path d="M 48.78125 52.59375 
L 48.78125 44.1875 
Q 44.96875 46.296875 41.140625 47.34375 
Q 37.3125 48.390625 33.40625 48.390625 
Q 24.65625 48.390625 19.8125 42.84375 
Q 14.984375 37.3125 14.984375 27.296875 
Q 14.984375 17.28125 19.8125 11.734375 
Q 24.65625 6.203125 33.40625 6.203125 
Q 37.3125 6.203125 41.140625 7.25 
Q 44.96875 8.296875 48.78125 10.40625 
L 48.78125 2.09375 
Q 45.015625 0.34375 40.984375 -0.53125 
Q 36.96875 -1.421875 32.421875 -1.421875 
Q 20.0625 -1.421875 12.78125 6.34375 
Q 5.515625 14.109375 5.515625 27.296875 
Q 5.515625 40.671875 12.859375 48.328125 
Q 20.21875 56 33.015625 56 
Q 37.15625 56 41.109375 55.140625 
Q 45.0625 54.296875 48.78125 52.59375 
" id="BitstreamVeraSans-Roman-63"/>
     </defs>
     <g transform="translate(300.7075 31.9571875)scale(0.12 -0.12)">
      <use xlink:href="#BitstreamVeraSans-Roman-70"/>
      <use x="63.4765625" xlink:href="#BitstreamVeraSans-Roman-72"/>
      <use x="104.55859375" xlink:href="#BitstreamVeraSans-Roman-65"/>
      <use x="166.08203125" xlink:href="#BitstreamVeraSans-Roman-63"/>
      <use x="221.0625" xlink:href="#BitstreamVeraSans-Roman-69"/>
      <use x="248.845703125" xlink:href="#BitstreamVeraSans-Roman-73"/>
      <use x="300.9453125" xlink:href="#BitstreamVeraSans-Roman-69"/>
      <use x="328.728515625" xlink:href="#BitstreamVeraSans-Roman-6f"/>
      <use x="389.91015625" xlink:href="#BitstreamVeraSans-Roman-6e"/>
     </g>
    </g>
    <g id="line2d_51">
     <path d="M 270.7075 45.370937 
L 287.5075 45.370937 
" style="fill:none;stroke:#348abd;stroke-linecap:square;"/>
    </g>
    <g id="line2d_52"/>
    <g id="text_18">
     <!-- recall -->
     <defs>
      <path d="M 34.28125 27.484375 
Q 23.390625 27.484375 19.1875 25 
Q 14.984375 22.515625 14.984375 16.5 
Q 14.984375 11.71875 18.140625 8.90625 
Q 21.296875 6.109375 26.703125 6.109375 
Q 34.1875 6.109375 38.703125 11.40625 
Q 43.21875 16.703125 43.21875 25.484375 
L 43.21875 27.484375 
z
M 52.203125 31.203125 
L 52.203125 0 
L 43.21875 0 
L 43.21875 8.296875 
Q 40.140625 3.328125 35.546875 0.953125 
Q 30.953125 -1.421875 24.3125 -1.421875 
Q 15.921875 -1.421875 10.953125 3.296875 
Q 6 8.015625 6 15.921875 
Q 6 25.140625 12.171875 29.828125 
Q 18.359375 34.515625 30.609375 34.515625 
L 43.21875 34.515625 
L 43.21875 35.40625 
Q 43.21875 41.609375 39.140625 45 
Q 35.0625 48.390625 27.6875 48.390625 
Q 23 48.390625 18.546875 47.265625 
Q 14.109375 46.140625 10.015625 43.890625 
L 10.015625 52.203125 
Q 14.9375 54.109375 19.578125 55.046875 
Q 24.21875 56 28.609375 56 
Q 40.484375 56 46.34375 49.84375 
Q 52.203125 43.703125 52.203125 31.203125 
" id="BitstreamVeraSans-Roman-61"/>
      <path d="M 9.421875 75.984375 
L 18.40625 75.984375 
L 18.40625 0 
L 9.421875 0 
z
" id="BitstreamVeraSans-Roman-6c"/>
     </defs>
     <g transform="translate(300.7075 49.5709375)scale(0.12 -0.12)">
      <use xlink:href="#BitstreamVeraSans-Roman-72"/>
      <use x="41.08203125" xlink:href="#BitstreamVeraSans-Roman-65"/>
      <use x="102.60546875" xlink:href="#BitstreamVeraSans-Roman-63"/>
      <use x="157.5859375" xlink:href="#BitstreamVeraSans-Roman-61"/>
      <use x="218.865234375" xlink:href="#BitstreamVeraSans-Roman-6c"/>
      <use x="246.6484375" xlink:href="#BitstreamVeraSans-Roman-6c"/>
     </g>
    </g>
    <g id="line2d_53">
     <path d="M 270.7075 62.984687 
L 287.5075 62.984687 
" style="fill:none;stroke:#988ed5;stroke-linecap:square;"/>
    </g>
    <g id="line2d_54"/>
    <g id="text_19">
     <!-- f1 -->
     <defs>
      <path d="M 37.109375 75.984375 
L 37.109375 68.5 
L 28.515625 68.5 
Q 23.6875 68.5 21.796875 66.546875 
Q 19.921875 64.59375 19.921875 59.515625 
L 19.921875 54.6875 
L 34.71875 54.6875 
L 34.71875 47.703125 
L 19.921875 47.703125 
L 19.921875 0 
L 10.890625 0 
L 10.890625 47.703125 
L 2.296875 47.703125 
L 2.296875 54.6875 
L 10.890625 54.6875 
L 10.890625 58.5 
Q 10.890625 67.625 15.140625 71.796875 
Q 19.390625 75.984375 28.609375 75.984375 
z
" id="BitstreamVeraSans-Roman-66"/>
     </defs>
     <g transform="translate(300.7075 67.1846875)scale(0.12 -0.12)">
      <use xlink:href="#BitstreamVeraSans-Roman-66"/>
      <use x="35.205078125" xlink:href="#BitstreamVeraSans-Roman-31"/>
     </g>
    </g>
   </g>
  </g>
 </g>
 <defs>
  <clipPath id="pa84e23382d">
   <rect height="223.2" width="334.8" x="31.103125" y="12.0390625"/>
  </clipPath>
 </defs>
</svg>
