<?xml version="1.0" encoding="utf-8" standalone="no"?>
<!DOCTYPE svg PUBLIC "-//W3C//DTD SVG 1.1//EN"
  "http://www.w3.org/Graphics/SVG/1.1/DTD/svg11.dtd">
<!-- Created with matplotlib (http://matplotlib.org/) -->
<svg height="276pt" version="1.1" viewBox="0 0 376 276" width="376pt" xmlns="http://www.w3.org/2000/svg" xmlns:xlink="http://www.w3.org/1999/xlink">
 <defs>
  <style type="text/css">
*{stroke-linecap:butt;stroke-linejoin:round;stroke-miterlimit:100000;}
  </style>
 </defs>
 <g id="figure_1">
  <g id="patch_1">
   <path d="M 0 276.730937 
L 376.082169 276.730937 
L 376.082169 0 
L 0 0 
L 0 276.730937 
z
" style="fill:none;"/>
  </g>
  <g id="axes_1">
   <g id="patch_2">
    <path d="M 31.103125 235.239062 
L 365.903125 235.239062 
L 365.903125 12.039062 
L 31.103125 12.039062 
z
" style="fill:#e5e5e5;"/>
   </g>
   <g id="matplotlib.axis_1">
    <g id="xtick_1">
     <g id="line2d_1">
      <path clip-path="url(#pca44f4e25f)" d="M 31.103125 235.239062 
L 31.103125 12.039062 
" style="fill:none;stroke:#ffffff;stroke-linecap:square;stroke-width:0.5;"/>
     </g>
     <g id="line2d_2">
      <defs>
       <path d="M 0 0 
L 0 4 
" id="m1d8242735c" style="stroke:#555555;stroke-width:0.5;"/>
      </defs>
      <g>
       <use style="fill:#555555;stroke:#555555;stroke-width:0.5;" x="31.103125" xlink:href="#m1d8242735c" y="235.2390625"/>
      </g>
     </g>
     <g id="line2d_3">
      <defs>
       <path d="M 0 0 
L 0 -4 
" id="m21f7e16bed" style="stroke:#555555;stroke-width:0.5;"/>
      </defs>
      <g>
       <use style="fill:#555555;stroke:#555555;stroke-width:0.5;" x="31.103125" xlink:href="#m21f7e16bed" y="12.0390625"/>
      </g>
     </g>
     <g id="text_1">
      <!-- 0 -->
      <defs>
       <path d="M 31.78125 66.40625 
Q 24.171875 66.40625 20.328125 58.90625 
Q 16.5 51.421875 16.5 36.375 
Q 16.5 21.390625 20.328125 13.890625 
Q 24.171875 6.390625 31.78125 6.390625 
Q 39.453125 6.390625 43.28125 13.890625 
Q 47.125 21.390625 47.125 36.375 
Q 47.125 51.421875 43.28125 58.90625 
Q 39.453125 66.40625 31.78125 66.40625 
M 31.78125 74.21875 
Q 44.046875 74.21875 50.515625 64.515625 
Q 56.984375 54.828125 56.984375 36.375 
Q 56.984375 17.96875 50.515625 8.265625 
Q 44.046875 -1.421875 31.78125 -1.421875 
Q 19.53125 -1.421875 13.0625 8.265625 
Q 6.59375 17.96875 6.59375 36.375 
Q 6.59375 54.828125 13.0625 64.515625 
Q 19.53125 74.21875 31.78125 74.21875 
" id="BitstreamVeraSans-Roman-30"/>
      </defs>
      <g style="fill:#555555;" transform="translate(27.921875 250.8375)scale(0.1 -0.1)">
       <use xlink:href="#BitstreamVeraSans-Roman-30"/>
      </g>
     </g>
    </g>
    <g id="xtick_2">
     <g id="line2d_4">
      <path clip-path="url(#pca44f4e25f)" d="M 72.132537 235.239062 
L 72.132537 12.039062 
" style="fill:none;stroke:#ffffff;stroke-linecap:square;stroke-width:0.5;"/>
     </g>
     <g id="line2d_5">
      <g>
       <use style="fill:#555555;stroke:#555555;stroke-width:0.5;" x="72.1325367647" xlink:href="#m1d8242735c" y="235.2390625"/>
      </g>
     </g>
     <g id="line2d_6">
      <g>
       <use style="fill:#555555;stroke:#555555;stroke-width:0.5;" x="72.1325367647" xlink:href="#m21f7e16bed" y="12.0390625"/>
      </g>
     </g>
     <g id="text_2">
      <!-- 50 -->
      <defs>
       <path d="M 10.796875 72.90625 
L 49.515625 72.90625 
L 49.515625 64.59375 
L 19.828125 64.59375 
L 19.828125 46.734375 
Q 21.96875 47.46875 24.109375 47.828125 
Q 26.265625 48.1875 28.421875 48.1875 
Q 40.625 48.1875 47.75 41.5 
Q 54.890625 34.8125 54.890625 23.390625 
Q 54.890625 11.625 47.5625 5.09375 
Q 40.234375 -1.421875 26.90625 -1.421875 
Q 22.3125 -1.421875 17.546875 -0.640625 
Q 12.796875 0.140625 7.71875 1.703125 
L 7.71875 11.625 
Q 12.109375 9.234375 16.796875 8.0625 
Q 21.484375 6.890625 26.703125 6.890625 
Q 35.15625 6.890625 40.078125 11.328125 
Q 45.015625 15.765625 45.015625 23.390625 
Q 45.015625 31 40.078125 35.4375 
Q 35.15625 39.890625 26.703125 39.890625 
Q 22.75 39.890625 18.8125 39.015625 
Q 14.890625 38.140625 10.796875 36.28125 
z
" id="BitstreamVeraSans-Roman-35"/>
      </defs>
      <g style="fill:#555555;" transform="translate(65.7700367647 250.8375)scale(0.1 -0.1)">
       <use xlink:href="#BitstreamVeraSans-Roman-35"/>
       <use x="63.623046875" xlink:href="#BitstreamVeraSans-Roman-30"/>
      </g>
     </g>
    </g>
    <g id="xtick_3">
     <g id="line2d_7">
      <path clip-path="url(#pca44f4e25f)" d="M 113.161949 235.239062 
L 113.161949 12.039062 
" style="fill:none;stroke:#ffffff;stroke-linecap:square;stroke-width:0.5;"/>
     </g>
     <g id="line2d_8">
      <g>
       <use style="fill:#555555;stroke:#555555;stroke-width:0.5;" x="113.161948529" xlink:href="#m1d8242735c" y="235.2390625"/>
      </g>
     </g>
     <g id="line2d_9">
      <g>
       <use style="fill:#555555;stroke:#555555;stroke-width:0.5;" x="113.161948529" xlink:href="#m21f7e16bed" y="12.0390625"/>
      </g>
     </g>
     <g id="text_3">
      <!-- 100 -->
      <defs>
       <path d="M 12.40625 8.296875 
L 28.515625 8.296875 
L 28.515625 63.921875 
L 10.984375 60.40625 
L 10.984375 69.390625 
L 28.421875 72.90625 
L 38.28125 72.90625 
L 38.28125 8.296875 
L 54.390625 8.296875 
L 54.390625 0 
L 12.40625 0 
z
" id="BitstreamVeraSans-Roman-31"/>
      </defs>
      <g style="fill:#555555;" transform="translate(103.618198529 250.8375)scale(0.1 -0.1)">
       <use xlink:href="#BitstreamVeraSans-Roman-31"/>
       <use x="63.623046875" xlink:href="#BitstreamVeraSans-Roman-30"/>
       <use x="127.24609375" xlink:href="#BitstreamVeraSans-Roman-30"/>
      </g>
     </g>
    </g>
    <g id="xtick_4">
     <g id="line2d_10">
      <path clip-path="url(#pca44f4e25f)" d="M 154.19136 235.239062 
L 154.19136 12.039062 
" style="fill:none;stroke:#ffffff;stroke-linecap:square;stroke-width:0.5;"/>
     </g>
     <g id="line2d_11">
      <g>
       <use style="fill:#555555;stroke:#555555;stroke-width:0.5;" x="154.191360294" xlink:href="#m1d8242735c" y="235.2390625"/>
      </g>
     </g>
     <g id="line2d_12">
      <g>
       <use style="fill:#555555;stroke:#555555;stroke-width:0.5;" x="154.191360294" xlink:href="#m21f7e16bed" y="12.0390625"/>
      </g>
     </g>
     <g id="text_4">
      <!-- 150 -->
      <g style="fill:#555555;" transform="translate(144.647610294 250.8375)scale(0.1 -0.1)">
       <use xlink:href="#BitstreamVeraSans-Roman-31"/>
       <use x="63.623046875" xlink:href="#BitstreamVeraSans-Roman-35"/>
       <use x="127.24609375" xlink:href="#BitstreamVeraSans-Roman-30"/>
      </g>
     </g>
    </g>
    <g id="xtick_5">
     <g id="line2d_13">
      <path clip-path="url(#pca44f4e25f)" d="M 195.220772 235.239062 
L 195.220772 12.039062 
" style="fill:none;stroke:#ffffff;stroke-linecap:square;stroke-width:0.5;"/>
     </g>
     <g id="line2d_14">
      <g>
       <use style="fill:#555555;stroke:#555555;stroke-width:0.5;" x="195.220772059" xlink:href="#m1d8242735c" y="235.2390625"/>
      </g>
     </g>
     <g id="line2d_15">
      <g>
       <use style="fill:#555555;stroke:#555555;stroke-width:0.5;" x="195.220772059" xlink:href="#m21f7e16bed" y="12.0390625"/>
      </g>
     </g>
     <g id="text_5">
      <!-- 200 -->
      <defs>
       <path d="M 19.1875 8.296875 
L 53.609375 8.296875 
L 53.609375 0 
L 7.328125 0 
L 7.328125 8.296875 
Q 12.9375 14.109375 22.625 23.890625 
Q 32.328125 33.6875 34.8125 36.53125 
Q 39.546875 41.84375 41.421875 45.53125 
Q 43.3125 49.21875 43.3125 52.78125 
Q 43.3125 58.59375 39.234375 62.25 
Q 35.15625 65.921875 28.609375 65.921875 
Q 23.96875 65.921875 18.8125 64.3125 
Q 13.671875 62.703125 7.8125 59.421875 
L 7.8125 69.390625 
Q 13.765625 71.78125 18.9375 73 
Q 24.125 74.21875 28.421875 74.21875 
Q 39.75 74.21875 46.484375 68.546875 
Q 53.21875 62.890625 53.21875 53.421875 
Q 53.21875 48.921875 51.53125 44.890625 
Q 49.859375 40.875 45.40625 35.40625 
Q 44.1875 33.984375 37.640625 27.21875 
Q 31.109375 20.453125 19.1875 8.296875 
" id="BitstreamVeraSans-Roman-32"/>
      </defs>
      <g style="fill:#555555;" transform="translate(185.677022059 250.8375)scale(0.1 -0.1)">
       <use xlink:href="#BitstreamVeraSans-Roman-32"/>
       <use x="63.623046875" xlink:href="#BitstreamVeraSans-Roman-30"/>
       <use x="127.24609375" xlink:href="#BitstreamVeraSans-Roman-30"/>
      </g>
     </g>
    </g>
    <g id="xtick_6">
     <g id="line2d_16">
      <path clip-path="url(#pca44f4e25f)" d="M 236.250184 235.239062 
L 236.250184 12.039062 
" style="fill:none;stroke:#ffffff;stroke-linecap:square;stroke-width:0.5;"/>
     </g>
     <g id="line2d_17">
      <g>
       <use style="fill:#555555;stroke:#555555;stroke-width:0.5;" x="236.250183824" xlink:href="#m1d8242735c" y="235.2390625"/>
      </g>
     </g>
     <g id="line2d_18">
      <g>
       <use style="fill:#555555;stroke:#555555;stroke-width:0.5;" x="236.250183824" xlink:href="#m21f7e16bed" y="12.0390625"/>
      </g>
     </g>
     <g id="text_6">
      <!-- 250 -->
      <g style="fill:#555555;" transform="translate(226.706433824 250.8375)scale(0.1 -0.1)">
       <use xlink:href="#BitstreamVeraSans-Roman-32"/>
       <use x="63.623046875" xlink:href="#BitstreamVeraSans-Roman-35"/>
       <use x="127.24609375" xlink:href="#BitstreamVeraSans-Roman-30"/>
      </g>
     </g>
    </g>
    <g id="xtick_7">
     <g id="line2d_19">
      <path clip-path="url(#pca44f4e25f)" d="M 277.279596 235.239062 
L 277.279596 12.039062 
" style="fill:none;stroke:#ffffff;stroke-linecap:square;stroke-width:0.5;"/>
     </g>
     <g id="line2d_20">
      <g>
       <use style="fill:#555555;stroke:#555555;stroke-width:0.5;" x="277.279595588" xlink:href="#m1d8242735c" y="235.2390625"/>
      </g>
     </g>
     <g id="line2d_21">
      <g>
       <use style="fill:#555555;stroke:#555555;stroke-width:0.5;" x="277.279595588" xlink:href="#m21f7e16bed" y="12.0390625"/>
      </g>
     </g>
     <g id="text_7">
      <!-- 300 -->
      <defs>
       <path d="M 40.578125 39.3125 
Q 47.65625 37.796875 51.625 33 
Q 55.609375 28.21875 55.609375 21.1875 
Q 55.609375 10.40625 48.1875 4.484375 
Q 40.765625 -1.421875 27.09375 -1.421875 
Q 22.515625 -1.421875 17.65625 -0.515625 
Q 12.796875 0.390625 7.625 2.203125 
L 7.625 11.71875 
Q 11.71875 9.328125 16.59375 8.109375 
Q 21.484375 6.890625 26.8125 6.890625 
Q 36.078125 6.890625 40.9375 10.546875 
Q 45.796875 14.203125 45.796875 21.1875 
Q 45.796875 27.640625 41.28125 31.265625 
Q 36.765625 34.90625 28.71875 34.90625 
L 20.21875 34.90625 
L 20.21875 43.015625 
L 29.109375 43.015625 
Q 36.375 43.015625 40.234375 45.921875 
Q 44.09375 48.828125 44.09375 54.296875 
Q 44.09375 59.90625 40.109375 62.90625 
Q 36.140625 65.921875 28.71875 65.921875 
Q 24.65625 65.921875 20.015625 65.03125 
Q 15.375 64.15625 9.8125 62.3125 
L 9.8125 71.09375 
Q 15.4375 72.65625 20.34375 73.4375 
Q 25.25 74.21875 29.59375 74.21875 
Q 40.828125 74.21875 47.359375 69.109375 
Q 53.90625 64.015625 53.90625 55.328125 
Q 53.90625 49.265625 50.4375 45.09375 
Q 46.96875 40.921875 40.578125 39.3125 
" id="BitstreamVeraSans-Roman-33"/>
      </defs>
      <g style="fill:#555555;" transform="translate(267.735845588 250.8375)scale(0.1 -0.1)">
       <use xlink:href="#BitstreamVeraSans-Roman-33"/>
       <use x="63.623046875" xlink:href="#BitstreamVeraSans-Roman-30"/>
       <use x="127.24609375" xlink:href="#BitstreamVeraSans-Roman-30"/>
      </g>
     </g>
    </g>
    <g id="xtick_8">
     <g id="line2d_22">
      <path clip-path="url(#pca44f4e25f)" d="M 318.309007 235.239062 
L 318.309007 12.039062 
" style="fill:none;stroke:#ffffff;stroke-linecap:square;stroke-width:0.5;"/>
     </g>
     <g id="line2d_23">
      <g>
       <use style="fill:#555555;stroke:#555555;stroke-width:0.5;" x="318.309007353" xlink:href="#m1d8242735c" y="235.2390625"/>
      </g>
     </g>
     <g id="line2d_24">
      <g>
       <use style="fill:#555555;stroke:#555555;stroke-width:0.5;" x="318.309007353" xlink:href="#m21f7e16bed" y="12.0390625"/>
      </g>
     </g>
     <g id="text_8">
      <!-- 350 -->
      <g style="fill:#555555;" transform="translate(308.765257353 250.8375)scale(0.1 -0.1)">
       <use xlink:href="#BitstreamVeraSans-Roman-33"/>
       <use x="63.623046875" xlink:href="#BitstreamVeraSans-Roman-35"/>
       <use x="127.24609375" xlink:href="#BitstreamVeraSans-Roman-30"/>
      </g>
     </g>
    </g>
    <g id="xtick_9">
     <g id="line2d_25">
      <path clip-path="url(#pca44f4e25f)" d="M 359.338419 235.239062 
L 359.338419 12.039062 
" style="fill:none;stroke:#ffffff;stroke-linecap:square;stroke-width:0.5;"/>
     </g>
     <g id="line2d_26">
      <g>
       <use style="fill:#555555;stroke:#555555;stroke-width:0.5;" x="359.338419118" xlink:href="#m1d8242735c" y="235.2390625"/>
      </g>
     </g>
     <g id="line2d_27">
      <g>
       <use style="fill:#555555;stroke:#555555;stroke-width:0.5;" x="359.338419118" xlink:href="#m21f7e16bed" y="12.0390625"/>
      </g>
     </g>
     <g id="text_9">
      <!-- 400 -->
      <defs>
       <path d="M 37.796875 64.3125 
L 12.890625 25.390625 
L 37.796875 25.390625 
z
M 35.203125 72.90625 
L 47.609375 72.90625 
L 47.609375 25.390625 
L 58.015625 25.390625 
L 58.015625 17.1875 
L 47.609375 17.1875 
L 47.609375 0 
L 37.796875 0 
L 37.796875 17.1875 
L 4.890625 17.1875 
L 4.890625 26.703125 
z
" id="BitstreamVeraSans-Roman-34"/>
      </defs>
      <g style="fill:#555555;" transform="translate(349.794669118 250.8375)scale(0.1 -0.1)">
       <use xlink:href="#BitstreamVeraSans-Roman-34"/>
       <use x="63.623046875" xlink:href="#BitstreamVeraSans-Roman-30"/>
       <use x="127.24609375" xlink:href="#BitstreamVeraSans-Roman-30"/>
      </g>
     </g>
    </g>
    <g id="text_10">
     <!-- x -->
     <defs>
      <path d="M 54.890625 54.6875 
L 35.109375 28.078125 
L 55.90625 0 
L 45.3125 0 
L 29.390625 21.484375 
L 13.484375 0 
L 2.875 0 
L 24.125 28.609375 
L 4.6875 54.6875 
L 15.28125 54.6875 
L 29.78125 35.203125 
L 44.28125 54.6875 
z
" id="BitstreamVeraSans-Roman-78"/>
     </defs>
     <g style="fill:#555555;" transform="translate(194.951875 267.0353125)scale(0.12 -0.12)">
      <use xlink:href="#BitstreamVeraSans-Roman-78"/>
     </g>
    </g>
   </g>
   <g id="matplotlib.axis_2">
    <g id="ytick_1">
     <g id="line2d_28">
      <path clip-path="url(#pca44f4e25f)" d="M 31.103125 235.239062 
L 365.903125 235.239062 
" style="fill:none;stroke:#ffffff;stroke-linecap:square;stroke-width:0.5;"/>
     </g>
     <g id="line2d_29">
      <defs>
       <path d="M 0 0 
L -4 0 
" id="m446f7a4a70" style="stroke:#555555;stroke-width:0.5;"/>
      </defs>
      <g>
       <use style="fill:#555555;stroke:#555555;stroke-width:0.5;" x="31.103125" xlink:href="#m446f7a4a70" y="235.2390625"/>
      </g>
     </g>
     <g id="line2d_30">
      <defs>
       <path d="M 0 0 
L 4 0 
" id="maeae586d57" style="stroke:#555555;stroke-width:0.5;"/>
      </defs>
      <g>
       <use style="fill:#555555;stroke:#555555;stroke-width:0.5;" x="365.903125" xlink:href="#maeae586d57" y="235.2390625"/>
      </g>
     </g>
     <g id="text_11">
      <!-- 0.0 -->
      <defs>
       <path d="M 10.6875 12.40625 
L 21 12.40625 
L 21 0 
L 10.6875 0 
z
" id="BitstreamVeraSans-Roman-2e"/>
      </defs>
      <g style="fill:#555555;" transform="translate(7.2 237.9984375)scale(0.1 -0.1)">
       <use xlink:href="#BitstreamVeraSans-Roman-30"/>
       <use x="63.623046875" xlink:href="#BitstreamVeraSans-Roman-2e"/>
       <use x="95.41015625" xlink:href="#BitstreamVeraSans-Roman-30"/>
      </g>
     </g>
    </g>
    <g id="ytick_2">
     <g id="line2d_31">
      <path clip-path="url(#pca44f4e25f)" d="M 31.103125 190.599063 
L 365.903125 190.599063 
" style="fill:none;stroke:#ffffff;stroke-linecap:square;stroke-width:0.5;"/>
     </g>
     <g id="line2d_32">
      <g>
       <use style="fill:#555555;stroke:#555555;stroke-width:0.5;" x="31.103125" xlink:href="#m446f7a4a70" y="190.5990625"/>
      </g>
     </g>
     <g id="line2d_33">
      <g>
       <use style="fill:#555555;stroke:#555555;stroke-width:0.5;" x="365.903125" xlink:href="#maeae586d57" y="190.5990625"/>
      </g>
     </g>
     <g id="text_12">
      <!-- 0.2 -->
      <g style="fill:#555555;" transform="translate(7.2 193.3584375)scale(0.1 -0.1)">
       <use xlink:href="#BitstreamVeraSans-Roman-30"/>
       <use x="63.623046875" xlink:href="#BitstreamVeraSans-Roman-2e"/>
       <use x="95.41015625" xlink:href="#BitstreamVeraSans-Roman-32"/>
      </g>
     </g>
    </g>
    <g id="ytick_3">
     <g id="line2d_34">
      <path clip-path="url(#pca44f4e25f)" d="M 31.103125 145.959062 
L 365.903125 145.959062 
" style="fill:none;stroke:#ffffff;stroke-linecap:square;stroke-width:0.5;"/>
     </g>
     <g id="line2d_35">
      <g>
       <use style="fill:#555555;stroke:#555555;stroke-width:0.5;" x="31.103125" xlink:href="#m446f7a4a70" y="145.9590625"/>
      </g>
     </g>
     <g id="line2d_36">
      <g>
       <use style="fill:#555555;stroke:#555555;stroke-width:0.5;" x="365.903125" xlink:href="#maeae586d57" y="145.9590625"/>
      </g>
     </g>
     <g id="text_13">
      <!-- 0.4 -->
      <g style="fill:#555555;" transform="translate(7.2 148.7184375)scale(0.1 -0.1)">
       <use xlink:href="#BitstreamVeraSans-Roman-30"/>
       <use x="63.623046875" xlink:href="#BitstreamVeraSans-Roman-2e"/>
       <use x="95.41015625" xlink:href="#BitstreamVeraSans-Roman-34"/>
      </g>
     </g>
    </g>
    <g id="ytick_4">
     <g id="line2d_37">
      <path clip-path="url(#pca44f4e25f)" d="M 31.103125 101.319062 
L 365.903125 101.319062 
" style="fill:none;stroke:#ffffff;stroke-linecap:square;stroke-width:0.5;"/>
     </g>
     <g id="line2d_38">
      <g>
       <use style="fill:#555555;stroke:#555555;stroke-width:0.5;" x="31.103125" xlink:href="#m446f7a4a70" y="101.3190625"/>
      </g>
     </g>
     <g id="line2d_39">
      <g>
       <use style="fill:#555555;stroke:#555555;stroke-width:0.5;" x="365.903125" xlink:href="#maeae586d57" y="101.3190625"/>
      </g>
     </g>
     <g id="text_14">
      <!-- 0.6 -->
      <defs>
       <path d="M 33.015625 40.375 
Q 26.375 40.375 22.484375 35.828125 
Q 18.609375 31.296875 18.609375 23.390625 
Q 18.609375 15.53125 22.484375 10.953125 
Q 26.375 6.390625 33.015625 6.390625 
Q 39.65625 6.390625 43.53125 10.953125 
Q 47.40625 15.53125 47.40625 23.390625 
Q 47.40625 31.296875 43.53125 35.828125 
Q 39.65625 40.375 33.015625 40.375 
M 52.59375 71.296875 
L 52.59375 62.3125 
Q 48.875 64.0625 45.09375 64.984375 
Q 41.3125 65.921875 37.59375 65.921875 
Q 27.828125 65.921875 22.671875 59.328125 
Q 17.53125 52.734375 16.796875 39.40625 
Q 19.671875 43.65625 24.015625 45.921875 
Q 28.375 48.1875 33.59375 48.1875 
Q 44.578125 48.1875 50.953125 41.515625 
Q 57.328125 34.859375 57.328125 23.390625 
Q 57.328125 12.15625 50.6875 5.359375 
Q 44.046875 -1.421875 33.015625 -1.421875 
Q 20.359375 -1.421875 13.671875 8.265625 
Q 6.984375 17.96875 6.984375 36.375 
Q 6.984375 53.65625 15.1875 63.9375 
Q 23.390625 74.21875 37.203125 74.21875 
Q 40.921875 74.21875 44.703125 73.484375 
Q 48.484375 72.75 52.59375 71.296875 
" id="BitstreamVeraSans-Roman-36"/>
      </defs>
      <g style="fill:#555555;" transform="translate(7.2 104.0784375)scale(0.1 -0.1)">
       <use xlink:href="#BitstreamVeraSans-Roman-30"/>
       <use x="63.623046875" xlink:href="#BitstreamVeraSans-Roman-2e"/>
       <use x="95.41015625" xlink:href="#BitstreamVeraSans-Roman-36"/>
      </g>
     </g>
    </g>
    <g id="ytick_5">
     <g id="line2d_40">
      <path clip-path="url(#pca44f4e25f)" d="M 31.103125 56.679062 
L 365.903125 56.679062 
" style="fill:none;stroke:#ffffff;stroke-linecap:square;stroke-width:0.5;"/>
     </g>
     <g id="line2d_41">
      <g>
       <use style="fill:#555555;stroke:#555555;stroke-width:0.5;" x="31.103125" xlink:href="#m446f7a4a70" y="56.6790625"/>
      </g>
     </g>
     <g id="line2d_42">
      <g>
       <use style="fill:#555555;stroke:#555555;stroke-width:0.5;" x="365.903125" xlink:href="#maeae586d57" y="56.6790625"/>
      </g>
     </g>
     <g id="text_15">
      <!-- 0.8 -->
      <defs>
       <path d="M 31.78125 34.625 
Q 24.75 34.625 20.71875 30.859375 
Q 16.703125 27.09375 16.703125 20.515625 
Q 16.703125 13.921875 20.71875 10.15625 
Q 24.75 6.390625 31.78125 6.390625 
Q 38.8125 6.390625 42.859375 10.171875 
Q 46.921875 13.96875 46.921875 20.515625 
Q 46.921875 27.09375 42.890625 30.859375 
Q 38.875 34.625 31.78125 34.625 
M 21.921875 38.8125 
Q 15.578125 40.375 12.03125 44.71875 
Q 8.5 49.078125 8.5 55.328125 
Q 8.5 64.0625 14.71875 69.140625 
Q 20.953125 74.21875 31.78125 74.21875 
Q 42.671875 74.21875 48.875 69.140625 
Q 55.078125 64.0625 55.078125 55.328125 
Q 55.078125 49.078125 51.53125 44.71875 
Q 48 40.375 41.703125 38.8125 
Q 48.828125 37.15625 52.796875 32.3125 
Q 56.78125 27.484375 56.78125 20.515625 
Q 56.78125 9.90625 50.3125 4.234375 
Q 43.84375 -1.421875 31.78125 -1.421875 
Q 19.734375 -1.421875 13.25 4.234375 
Q 6.78125 9.90625 6.78125 20.515625 
Q 6.78125 27.484375 10.78125 32.3125 
Q 14.796875 37.15625 21.921875 38.8125 
M 18.3125 54.390625 
Q 18.3125 48.734375 21.84375 45.5625 
Q 25.390625 42.390625 31.78125 42.390625 
Q 38.140625 42.390625 41.71875 45.5625 
Q 45.3125 48.734375 45.3125 54.390625 
Q 45.3125 60.0625 41.71875 63.234375 
Q 38.140625 66.40625 31.78125 66.40625 
Q 25.390625 66.40625 21.84375 63.234375 
Q 18.3125 60.0625 18.3125 54.390625 
" id="BitstreamVeraSans-Roman-38"/>
      </defs>
      <g style="fill:#555555;" transform="translate(7.2 59.4384375)scale(0.1 -0.1)">
       <use xlink:href="#BitstreamVeraSans-Roman-30"/>
       <use x="63.623046875" xlink:href="#BitstreamVeraSans-Roman-2e"/>
       <use x="95.41015625" xlink:href="#BitstreamVeraSans-Roman-38"/>
      </g>
     </g>
    </g>
    <g id="ytick_6">
     <g id="line2d_43">
      <path clip-path="url(#pca44f4e25f)" d="M 31.103125 12.039062 
L 365.903125 12.039062 
" style="fill:none;stroke:#ffffff;stroke-linecap:square;stroke-width:0.5;"/>
     </g>
     <g id="line2d_44">
      <g>
       <use style="fill:#555555;stroke:#555555;stroke-width:0.5;" x="31.103125" xlink:href="#m446f7a4a70" y="12.0390625"/>
      </g>
     </g>
     <g id="line2d_45">
      <g>
       <use style="fill:#555555;stroke:#555555;stroke-width:0.5;" x="365.903125" xlink:href="#maeae586d57" y="12.0390625"/>
      </g>
     </g>
     <g id="text_16">
      <!-- 1.0 -->
      <g style="fill:#555555;" transform="translate(7.2 14.7984375)scale(0.1 -0.1)">
       <use xlink:href="#BitstreamVeraSans-Roman-31"/>
       <use x="63.623046875" xlink:href="#BitstreamVeraSans-Roman-2e"/>
       <use x="95.41015625" xlink:href="#BitstreamVeraSans-Roman-30"/>
      </g>
     </g>
    </g>
   </g>
   <g id="line2d_46">
    <path clip-path="url(#pca44f4e25f)" d="M 31.103125 235.239062 
L 31.103125 203.353348 
L 31.103125 203.353348 
L 31.103125 203.353348 
L 31.103125 224.079062 
L 31.103125 207.339062 
L 31.103125 207.339062 
L 31.103125 194.657244 
L 31.103125 206.745445 
L 31.923713 204.695905 
L 31.923713 206.51035 
L 31.923713 206.51035 
L 31.923713 206.51035 
L 31.923713 203.353348 
L 31.923713 206.376994 
L 31.923713 206.376994 
L 31.923713 208.239062 
L 31.923713 207.768293 
L 31.923713 207.768293 
L 31.923713 205.479062 
L 31.923713 207.683507 
L 31.923713 207.683507 
L 31.923713 209.730491 
L 31.923713 208.757707 
L 31.923713 208.757707 
L 31.923713 207.652546 
L 31.923713 208.69636 
L 31.923713 208.69636 
L 31.923713 210.930152 
L 31.923713 209.33192 
L 31.923713 209.33192 
L 31.923713 207.218283 
L 31.923713 207.811944 
L 32.744301 207.92767 
L 32.744301 208.269062 
L 32.744301 208.269062 
L 32.744301 208.269062 
L 32.744301 206.647327 
L 32.744301 208.184517 
L 32.744301 208.184517 
L 32.744301 208.588316 
L 32.744301 208.588316 
L 32.744301 208.588316 
L 32.744301 207.85765 
L 32.744301 208.552106 
L 32.744301 208.552106 
L 32.744301 210.912087 
L 32.744301 210.497553 
L 33.56489 210.61371 
L 33.56489 210.955729 
L 33.56489 210.955729 
L 33.56489 210.955729 
L 33.56489 209.543351 
L 33.56489 210.915986 
L 33.56489 210.915986 
L 33.56489 214.710634 
L 33.56489 214.120629 
L 34.385478 214.257539 
L 34.385478 214.359062 
L 34.385478 214.359062 
L 34.385478 214.359062 
L 34.385478 213.880211 
L 34.385478 214.346707 
L 34.385478 214.346707 
L 34.385478 214.411691 
L 34.385478 214.411691 
L 34.385478 214.411691 
L 34.385478 214.097448 
L 34.385478 214.388833 
L 34.385478 214.388833 
L 34.385478 214.609972 
L 34.385478 214.609972 
L 34.385478 214.609972 
L 34.385478 214.30351 
L 34.385478 214.584734 
L 34.385478 214.584734 
L 34.385478 216.614029 
L 34.385478 215.746812 
L 35.206066 215.865957 
L 35.206066 218.104067 
L 35.206066 217.985834 
L 36.026654 218.103202 
L 36.026654 220.187747 
L 36.847243 220.310514 
L 36.847243 221.847062 
L 36.847243 221.745464 
L 37.667831 221.859655 
L 37.667831 223.084607 
L 38.488419 223.196389 
L 38.488419 224.196928 
L 38.488419 224.109977 
L 39.309007 224.225905 
L 39.309007 224.333525 
L 39.309007 224.333525 
L 39.309007 224.333525 
L 39.309007 224.218335 
L 39.309007 224.330792 
L 39.309007 224.330792 
L 39.309007 224.949701 
L 40.129596 225.063443 
L 40.129596 225.656981 
L 40.950184 225.769354 
L 40.950184 226.249197 
L 41.770772 226.360705 
L 41.770772 226.799481 
L 42.59136 226.913348 
L 42.59136 227.258538 
L 43.411949 227.372246 
L 43.411949 227.678414 
L 44.232537 227.791139 
L 44.232537 228.107587 
L 45.053125 228.219725 
L 45.053125 228.420473 
L 45.873713 228.533789 
L 45.873713 228.759507 
L 46.694301 228.871597 
L 46.694301 228.96865 
L 47.51489 229.080918 
L 47.51489 229.20663 
L 48.335478 229.319465 
L 48.335478 229.334301 
L 49.156066 229.44562 
L 49.156066 229.55282 
L 49.976654 229.66493 
L 49.976654 229.737246 
L 50.797243 229.849129 
L 50.797243 229.920778 
L 51.617831 230.033072 
L 51.617831 230.071137 
L 52.438419 230.183269 
L 52.438419 230.235759 
L 53.259007 230.347713 
L 53.259007 230.404589 
L 54.079596 230.516568 
L 54.079596 230.5562 
L 54.900184 230.66825 
L 54.900184 230.6771 
L 55.720772 230.789115 
L 55.720772 230.821562 
L 56.54136 230.932807 
L 56.54136 230.950228 
L 57.361949 231.061758 
L 57.361949 231.07079 
L 58.182537 231.182433 
L 58.182537 231.183209 
L 59.003125 231.294866 
L 59.003125 231.310213 
L 59.823713 231.421961 
L 59.823713 231.424021 
L 60.644301 231.535307 
L 60.644301 231.538539 
L 62.285478 231.650638 
L 62.285478 231.73369 
L 63.926654 231.84588 
L 63.926654 231.857244 
L 63.926654 231.857244 
L 63.926654 231.857244 
L 63.926654 231.822191 
L 63.926654 231.85671 
L 63.926654 231.85671 
L 63.926654 231.889492 
L 65.567831 232.001347 
L 65.567831 232.064192 
L 67.209007 232.175846 
L 67.209007 232.222422 
L 68.850184 232.334073 
L 68.850184 232.372164 
L 70.49136 232.483861 
L 70.49136 232.534291 
L 72.132537 232.645912 
L 72.132537 232.67047 
L 73.773713 232.782097 
L 73.773713 232.793872 
L 75.41489 232.905453 
L 75.41489 232.914819 
L 77.056066 233.026423 
L 77.056066 233.028706 
L 79.517831 233.140414 
L 79.517831 233.194872 
L 81.979596 233.306421 
L 81.979596 233.350371 
L 84.44136 233.461904 
L 84.44136 233.483886 
L 87.723713 233.595519 
L 87.723713 233.625168 
L 91.006066 233.73671 
L 91.006066 233.757275 
L 94.288419 233.868784 
L 94.288419 233.877059 
L 98.39136 233.988534 
L 98.39136 234.008577 
L 103.31489 234.120063 
L 103.31489 234.13383 
L 109.059007 234.245332 
L 109.059007 234.250279 
L 116.444301 234.361782 
L 116.444301 234.362776 
L 126.29136 234.474301 
L 126.29136 234.477904 
L 141.061949 234.589493 
L 141.061949 234.591205 
L 161.576654 234.702787 
L 161.576654 234.703693 
L 204.247243 234.815484 
L 204.247243 234.815738 
L 365.903125 234.902467 
L 365.903125 234.902467 
" style="fill:none;stroke:#e24a33;stroke-linecap:square;"/>
   </g>
   <g id="line2d_47">
    <path clip-path="url(#pca44f4e25f)" d="M 31.103125 235.239062 
L 31.103125 233.007062 
L 31.103125 233.007062 
L 31.103125 233.007062 
L 31.103125 230.775062 
L 31.103125 230.775062 
L 31.103125 230.775062 
L 31.103125 228.543062 
L 31.103125 228.543062 
L 31.103125 228.543062 
L 31.103125 226.311062 
L 31.103125 226.311062 
L 31.103125 226.311062 
L 31.103125 224.079062 
L 31.103125 224.079062 
L 31.103125 224.079062 
L 31.103125 221.847062 
L 31.103125 221.847062 
L 31.103125 221.847062 
L 31.103125 208.455062 
L 31.103125 208.455062 
L 31.923713 206.223062 
L 31.923713 206.223062 
L 31.923713 170.511062 
L 31.923713 170.511062 
L 32.744301 170.511062 
L 32.744301 170.511062 
L 32.744301 130.335062 
L 32.744301 130.335062 
L 33.56489 130.335062 
L 33.56489 130.335062 
L 33.56489 105.783062 
L 33.56489 105.783062 
L 34.385478 105.783062 
L 34.385478 105.783062 
L 34.385478 76.767063 
L 34.385478 76.767063 
L 35.206066 76.767063 
L 35.206066 76.767063 
L 35.206066 58.911062 
L 35.206066 58.911062 
L 36.026654 58.911062 
L 36.026654 58.911062 
L 36.026654 52.215063 
L 36.026654 52.215063 
L 36.847243 52.215063 
L 36.847243 52.215063 
L 36.847243 45.519062 
L 36.847243 45.519062 
L 37.667831 45.519062 
L 37.667831 45.519062 
L 37.667831 38.823062 
L 37.667831 38.823062 
L 38.488419 38.823062 
L 38.488419 38.823062 
L 38.488419 34.359062 
L 38.488419 34.359062 
L 39.309007 34.359062 
L 39.309007 34.359062 
L 39.309007 32.127062 
L 39.309007 32.127062 
L 40.129596 32.127062 
L 40.129596 32.127062 
L 40.129596 29.895062 
L 40.129596 29.895062 
L 40.950184 29.895062 
L 40.950184 29.895062 
L 40.950184 27.663062 
L 40.950184 27.663062 
L 41.770772 27.663062 
L 41.770772 27.663062 
L 41.770772 25.431063 
L 41.770772 25.431063 
L 48.335478 25.431063 
L 48.335478 25.431063 
L 48.335478 23.199062 
L 48.335478 23.199062 
L 63.926654 23.199062 
L 63.926654 23.199062 
L 63.926654 20.967062 
L 63.926654 20.967062 
L 85.261949 20.967062 
L 85.261949 20.967062 
L 85.261949 18.735062 
L 85.261949 18.735062 
L 140.24136 18.735062 
L 140.24136 18.735062 
L 140.24136 16.503062 
L 140.24136 16.503062 
L 219.017831 16.503062 
L 219.017831 16.503062 
L 219.017831 14.271062 
L 219.017831 14.271062 
L 262.509007 14.271062 
L 262.509007 14.271062 
L 262.509007 12.039062 
L 262.509007 12.039062 
L 365.903125 12.039062 
L 365.903125 12.039062 
" style="fill:none;stroke:#348abd;stroke-linecap:square;"/>
   </g>
   <g id="line2d_48">
    <path clip-path="url(#pca44f4e25f)" d="M 31.103125 235.239062 
L 31.103125 231.0671 
L 31.103125 231.0671 
L 31.103125 231.0671 
L 31.103125 231.519062 
L 31.103125 231.519062 
L 31.103125 231.519062 
L 31.103125 205.479062 
L 31.103125 207.626691 
L 31.923713 205.479062 
L 31.923713 205.781194 
L 31.923713 206.367421 
L 31.923713 206.367421 
L 31.923713 206.367421 
L 31.923713 196.128488 
L 31.923713 196.710491 
L 32.744301 196.824819 
L 32.744301 197.163768 
L 32.744301 197.163768 
L 32.744301 197.163768 
L 32.744301 194.541627 
L 32.744301 197.075332 
L 32.744301 197.075332 
L 32.744301 197.85023 
L 32.744301 197.85023 
L 32.744301 197.85023 
L 32.744301 196.814759 
L 32.744301 197.763507 
L 32.744301 197.763507 
L 32.744301 198.130016 
L 32.744301 198.130016 
L 32.744301 198.130016 
L 32.744301 193.856814 
L 32.744301 195.199368 
L 33.56489 195.35161 
L 33.56489 195.801469 
L 33.56489 195.801469 
L 33.56489 195.801469 
L 33.56489 193.311991 
L 33.56489 195.782563 
L 33.56489 195.782563 
L 33.56489 200.064277 
L 33.56489 198.926019 
L 34.385478 199.078169 
L 34.385478 199.279062 
L 34.385478 199.279062 
L 34.385478 199.279062 
L 34.385478 198.397247 
L 34.385478 199.267596 
L 34.385478 199.267596 
L 34.385478 199.409589 
L 34.385478 199.409589 
L 34.385478 199.409589 
L 34.385478 198.870074 
L 34.385478 199.388285 
L 34.385478 199.388285 
L 34.385478 202.407746 
L 34.385478 200.524495 
L 35.206066 200.638189 
L 35.206066 204.076053 
L 35.206066 203.808046 
L 36.026654 203.919702 
L 36.026654 207.423865 
L 36.847243 207.550106 
L 36.847243 210.240662 
L 36.847243 210.043843 
L 37.667831 210.160411 
L 37.667831 212.346755 
L 38.488419 212.466193 
L 38.488419 214.317735 
L 38.488419 214.149299 
L 39.309007 214.270378 
L 39.309007 215.652563 
L 40.129596 215.765237 
L 40.129596 215.839636 
L 40.129596 215.839636 
L 40.129596 215.839636 
L 40.129596 215.635817 
L 40.129596 215.839535 
L 40.129596 215.839535 
L 40.129596 216.929299 
L 40.950184 217.042873 
L 40.950184 217.091117 
L 40.950184 217.091117 
L 40.950184 217.091117 
L 40.950184 216.90196 
L 40.950184 217.086373 
L 40.950184 217.086373 
L 40.950184 218.005688 
L 41.770772 218.119392 
L 41.770772 219.012612 
L 42.59136 219.124777 
L 42.59136 219.862881 
L 43.411949 219.974748 
L 43.411949 220.643723 
L 44.232537 220.759559 
L 44.232537 221.44498 
L 45.053125 221.557419 
L 45.053125 222.03113 
L 45.873713 222.142433 
L 45.873713 222.668182 
L 46.694301 222.780155 
L 46.694301 223.062162 
L 47.51489 223.174198 
L 47.51489 223.511393 
L 48.335478 223.517945 
L 48.335478 223.39656 
L 48.335478 223.517669 
L 48.335478 223.517669 
L 48.335478 223.749493 
L 49.156066 223.863526 
L 49.156066 224.163586 
L 49.976654 224.275257 
L 49.976654 224.513721 
L 50.797243 224.62645 
L 50.797243 224.862747 
L 51.617831 224.975752 
L 51.617831 225.149127 
L 52.438419 225.26071 
L 52.438419 225.463129 
L 53.259007 225.574523 
L 53.259007 225.785652 
L 54.079596 225.898093 
L 54.079596 226.075709 
L 54.900184 226.187195 
L 54.900184 226.307302 
L 55.720772 226.418763 
L 55.720772 226.584369 
L 56.54136 226.695952 
L 56.54136 226.831449 
L 57.361949 226.943288 
L 57.361949 227.063238 
L 58.182537 227.175172 
L 58.182537 227.279603 
L 59.003125 227.391542 
L 59.003125 227.524309 
L 59.823713 227.636338 
L 59.823713 227.743835 
L 60.644301 227.856054 
L 60.644301 227.964963 
L 61.46489 228.076759 
L 61.46489 228.179299 
L 62.285478 228.291487 
L 62.285478 228.342331 
L 63.106066 228.453782 
L 63.106066 228.523623 
L 63.926654 228.634902 
L 63.926654 228.643034 
L 64.747243 228.754814 
L 64.747243 228.824693 
L 65.567831 228.936018 
L 65.567831 228.982032 
L 66.388419 229.0933 
L 66.388419 229.123994 
L 67.209007 229.235364 
L 67.209007 229.289541 
L 68.029596 229.401384 
L 68.029596 229.43302 
L 68.850184 229.544882 
L 68.850184 229.580969 
L 69.670772 229.692285 
L 69.670772 229.73503 
L 70.49136 229.846537 
L 70.49136 229.896953 
L 71.311949 230.008451 
L 71.311949 230.029434 
L 72.132537 230.14099 
L 72.132537 230.16273 
L 72.953125 230.27389 
L 72.953125 230.292231 
L 74.594301 230.404405 
L 74.594301 230.52357 
L 75.41489 230.635023 
L 75.41489 230.640457 
L 76.235478 230.751691 
L 76.235478 230.758259 
L 77.876654 230.870177 
L 77.876654 230.97367 
L 79.517831 231.085297 
L 79.517831 231.189318 
L 81.159007 231.300963 
L 81.159007 231.392168 
L 82.800184 231.503823 
L 82.800184 231.586284 
L 84.44136 231.697962 
L 84.44136 231.75723 
L 86.082537 231.868826 
L 86.082537 231.890717 
L 87.723713 232.002346 
L 87.723713 232.035156 
L 89.36489 232.14659 
L 89.36489 232.170043 
L 91.006066 232.28156 
L 91.006066 232.295632 
L 92.647243 232.407094 
L 92.647243 232.415956 
L 94.288419 232.527339 
L 94.288419 232.532086 
L 96.750184 232.643558 
L 96.750184 232.695547 
L 99.211949 232.80698 
L 99.211949 232.836666 
L 101.673713 232.948136 
L 101.673713 232.961991 
L 104.135478 233.073373 
L 104.135478 233.075645 
L 107.417831 233.187184 
L 107.417831 233.211112 
L 110.700184 233.322589 
L 110.700184 233.324707 
L 114.803125 233.436215 
L 114.803125 233.449921 
L 119.726654 233.561452 
L 119.726654 233.574671 
L 124.650184 233.686116 
L 124.650184 233.687563 
L 131.21489 233.79911 
L 131.21489 233.812159 
L 138.600184 233.923688 
L 138.600184 233.924687 
L 148.447243 234.036258 
L 148.447243 234.040739 
L 159.935478 234.152284 
L 159.935478 234.156934 
L 176.347243 234.268563 
L 176.347243 234.271696 
L 201.785478 234.383455 
L 201.785478 234.385858 
L 248.559007 234.497907 
L 248.559007 234.498776 
L 365.903125 234.566885 
L 365.903125 234.566885 
" style="fill:none;stroke:#988ed5;stroke-linecap:square;"/>
   </g>
   <g id="patch_3">
    <path d="M 31.103125 12.039062 
L 365.903125 12.039062 
" style="fill:none;stroke:#ffffff;stroke-linecap:square;stroke-linejoin:miter;"/>
   </g>
   <g id="patch_4">
    <path d="M 365.903125 235.239062 
L 365.903125 12.039062 
" style="fill:none;stroke:#ffffff;stroke-linecap:square;stroke-linejoin:miter;"/>
   </g>
   <g id="patch_5">
    <path d="M 31.103125 235.239062 
L 365.903125 235.239062 
" style="fill:none;stroke:#ffffff;stroke-linecap:square;stroke-linejoin:miter;"/>
   </g>
   <g id="patch_6">
    <path d="M 31.103125 235.239062 
L 31.103125 12.039062 
" style="fill:none;stroke:#ffffff;stroke-linecap:square;stroke-linejoin:miter;"/>
   </g>
   <g id="legend_1">
    <g id="patch_7">
     <path d="M 262.3075 74.480312 
L 359.903125 74.480312 
L 359.903125 18.039062 
L 262.3075 18.039062 
z
" style="fill:#e5e5e5;stroke:#ffffff;stroke-linejoin:miter;stroke-width:0.5;"/>
    </g>
    <g id="line2d_49">
     <path d="M 270.7075 27.757187 
L 287.5075 27.757187 
" style="fill:none;stroke:#e24a33;stroke-linecap:square;"/>
    </g>
    <g id="line2d_50"/>
    <g id="text_17">
     <!-- precision -->
     <defs>
      <path d="M 54.890625 33.015625 
L 54.890625 0 
L 45.90625 0 
L 45.90625 32.71875 
Q 45.90625 40.484375 42.875 44.328125 
Q 39.84375 48.1875 33.796875 48.1875 
Q 26.515625 48.1875 22.3125 43.546875 
Q 18.109375 38.921875 18.109375 30.90625 
L 18.109375 0 
L 9.078125 0 
L 9.078125 54.6875 
L 18.109375 54.6875 
L 18.109375 46.1875 
Q 21.34375 51.125 25.703125 53.5625 
Q 30.078125 56 35.796875 56 
Q 45.21875 56 50.046875 50.171875 
Q 54.890625 44.34375 54.890625 33.015625 
" id="BitstreamVeraSans-Roman-6e"/>
      <path d="M 30.609375 48.390625 
Q 23.390625 48.390625 19.1875 42.75 
Q 14.984375 37.109375 14.984375 27.296875 
Q 14.984375 17.484375 19.15625 11.84375 
Q 23.34375 6.203125 30.609375 6.203125 
Q 37.796875 6.203125 41.984375 11.859375 
Q 46.1875 17.53125 46.1875 27.296875 
Q 46.1875 37.015625 41.984375 42.703125 
Q 37.796875 48.390625 30.609375 48.390625 
M 30.609375 56 
Q 42.328125 56 49.015625 48.375 
Q 55.71875 40.765625 55.71875 27.296875 
Q 55.71875 13.875 49.015625 6.21875 
Q 42.328125 -1.421875 30.609375 -1.421875 
Q 18.84375 -1.421875 12.171875 6.21875 
Q 5.515625 13.875 5.515625 27.296875 
Q 5.515625 40.765625 12.171875 48.375 
Q 18.84375 56 30.609375 56 
" id="BitstreamVeraSans-Roman-6f"/>
      <path d="M 9.421875 54.6875 
L 18.40625 54.6875 
L 18.40625 0 
L 9.421875 0 
z
M 9.421875 75.984375 
L 18.40625 75.984375 
L 18.40625 64.59375 
L 9.421875 64.59375 
z
" id="BitstreamVeraSans-Roman-69"/>
      <path d="M 18.109375 8.203125 
L 18.109375 -20.796875 
L 9.078125 -20.796875 
L 9.078125 54.6875 
L 18.109375 54.6875 
L 18.109375 46.390625 
Q 20.953125 51.265625 25.265625 53.625 
Q 29.59375 56 35.59375 56 
Q 45.5625 56 51.78125 48.09375 
Q 58.015625 40.1875 58.015625 27.296875 
Q 58.015625 14.40625 51.78125 6.484375 
Q 45.5625 -1.421875 35.59375 -1.421875 
Q 29.59375 -1.421875 25.265625 0.953125 
Q 20.953125 3.328125 18.109375 8.203125 
M 48.6875 27.296875 
Q 48.6875 37.203125 44.609375 42.84375 
Q 40.53125 48.484375 33.40625 48.484375 
Q 26.265625 48.484375 22.1875 42.84375 
Q 18.109375 37.203125 18.109375 27.296875 
Q 18.109375 17.390625 22.1875 11.75 
Q 26.265625 6.109375 33.40625 6.109375 
Q 40.53125 6.109375 44.609375 11.75 
Q 48.6875 17.390625 48.6875 27.296875 
" id="BitstreamVeraSans-Roman-70"/>
      <path d="M 56.203125 29.59375 
L 56.203125 25.203125 
L 14.890625 25.203125 
Q 15.484375 15.921875 20.484375 11.0625 
Q 25.484375 6.203125 34.421875 6.203125 
Q 39.59375 6.203125 44.453125 7.46875 
Q 49.3125 8.734375 54.109375 11.28125 
L 54.109375 2.78125 
Q 49.265625 0.734375 44.1875 -0.34375 
Q 39.109375 -1.421875 33.890625 -1.421875 
Q 20.796875 -1.421875 13.15625 6.1875 
Q 5.515625 13.8125 5.515625 26.8125 
Q 5.515625 40.234375 12.765625 48.109375 
Q 20.015625 56 32.328125 56 
Q 43.359375 56 49.78125 48.890625 
Q 56.203125 41.796875 56.203125 29.59375 
M 47.21875 32.234375 
Q 47.125 39.59375 43.09375 43.984375 
Q 39.0625 48.390625 32.421875 48.390625 
Q 24.90625 48.390625 20.390625 44.140625 
Q 15.875 39.890625 15.1875 32.171875 
z
" id="BitstreamVeraSans-Roman-65"/>
      <path d="M 41.109375 46.296875 
Q 39.59375 47.171875 37.8125 47.578125 
Q 36.03125 48 33.890625 48 
Q 26.265625 48 22.1875 43.046875 
Q 18.109375 38.09375 18.109375 28.8125 
L 18.109375 0 
L 9.078125 0 
L 9.078125 54.6875 
L 18.109375 54.6875 
L 18.109375 46.1875 
Q 20.953125 51.171875 25.484375 53.578125 
Q 30.03125 56 36.53125 56 
Q 37.453125 56 38.578125 55.875 
Q 39.703125 55.765625 41.0625 55.515625 
z
" id="BitstreamVeraSans-Roman-72"/>
      <path d="M 44.28125 53.078125 
L 44.28125 44.578125 
Q 40.484375 46.53125 36.375 47.5 
Q 32.28125 48.484375 27.875 48.484375 
Q 21.1875 48.484375 17.84375 46.4375 
Q 14.5 44.390625 14.5 40.28125 
Q 14.5 37.15625 16.890625 35.375 
Q 19.28125 33.59375 26.515625 31.984375 
L 29.59375 31.296875 
Q 39.15625 29.25 43.1875 25.515625 
Q 47.21875 21.78125 47.21875 15.09375 
Q 47.21875 7.46875 41.1875 3.015625 
Q 35.15625 -1.421875 24.609375 -1.421875 
Q 20.21875 -1.421875 15.453125 -0.5625 
Q 10.6875 0.296875 5.421875 2 
L 5.421875 11.28125 
Q 10.40625 8.6875 15.234375 7.390625 
Q 20.0625 6.109375 24.8125 6.109375 
Q 31.15625 6.109375 34.5625 8.28125 
Q 37.984375 10.453125 37.984375 14.40625 
Q 37.984375 18.0625 35.515625 20.015625 
Q 33.0625 21.96875 24.703125 23.78125 
L 21.578125 24.515625 
Q 13.234375 26.265625 9.515625 29.90625 
Q 5.8125 33.546875 5.8125 39.890625 
Q 5.8125 47.609375 11.28125 51.796875 
Q 16.75 56 26.8125 56 
Q 31.78125 56 36.171875 55.265625 
Q 40.578125 54.546875 44.28125 53.078125 
" id="BitstreamVeraSans-Roman-73"/>
      <path d="M 48.78125 52.59375 
L 48.78125 44.1875 
Q 44.96875 46.296875 41.140625 47.34375 
Q 37.3125 48.390625 33.40625 48.390625 
Q 24.65625 48.390625 19.8125 42.84375 
Q 14.984375 37.3125 14.984375 27.296875 
Q 14.984375 17.28125 19.8125 11.734375 
Q 24.65625 6.203125 33.40625 6.203125 
Q 37.3125 6.203125 41.140625 7.25 
Q 44.96875 8.296875 48.78125 10.40625 
L 48.78125 2.09375 
Q 45.015625 0.34375 40.984375 -0.53125 
Q 36.96875 -1.421875 32.421875 -1.421875 
Q 20.0625 -1.421875 12.78125 6.34375 
Q 5.515625 14.109375 5.515625 27.296875 
Q 5.515625 40.671875 12.859375 48.328125 
Q 20.21875 56 33.015625 56 
Q 37.15625 56 41.109375 55.140625 
Q 45.0625 54.296875 48.78125 52.59375 
" id="BitstreamVeraSans-Roman-63"/>
     </defs>
     <g transform="translate(300.7075 31.9571875)scale(0.12 -0.12)">
      <use xlink:href="#BitstreamVeraSans-Roman-70"/>
      <use x="63.4765625" xlink:href="#BitstreamVeraSans-Roman-72"/>
      <use x="104.55859375" xlink:href="#BitstreamVeraSans-Roman-65"/>
      <use x="166.08203125" xlink:href="#BitstreamVeraSans-Roman-63"/>
      <use x="221.0625" xlink:href="#BitstreamVeraSans-Roman-69"/>
      <use x="248.845703125" xlink:href="#BitstreamVeraSans-Roman-73"/>
      <use x="300.9453125" xlink:href="#BitstreamVeraSans-Roman-69"/>
      <use x="328.728515625" xlink:href="#BitstreamVeraSans-Roman-6f"/>
      <use x="389.91015625" xlink:href="#BitstreamVeraSans-Roman-6e"/>
     </g>
    </g>
    <g id="line2d_51">
     <path d="M 270.7075 45.370937 
L 287.5075 45.370937 
" style="fill:none;stroke:#348abd;stroke-linecap:square;"/>
    </g>
    <g id="line2d_52"/>
    <g id="text_18">
     <!-- recall -->
     <defs>
      <path d="M 34.28125 27.484375 
Q 23.390625 27.484375 19.1875 25 
Q 14.984375 22.515625 14.984375 16.5 
Q 14.984375 11.71875 18.140625 8.90625 
Q 21.296875 6.109375 26.703125 6.109375 
Q 34.1875 6.109375 38.703125 11.40625 
Q 43.21875 16.703125 43.21875 25.484375 
L 43.21875 27.484375 
z
M 52.203125 31.203125 
L 52.203125 0 
L 43.21875 0 
L 43.21875 8.296875 
Q 40.140625 3.328125 35.546875 0.953125 
Q 30.953125 -1.421875 24.3125 -1.421875 
Q 15.921875 -1.421875 10.953125 3.296875 
Q 6 8.015625 6 15.921875 
Q 6 25.140625 12.171875 29.828125 
Q 18.359375 34.515625 30.609375 34.515625 
L 43.21875 34.515625 
L 43.21875 35.40625 
Q 43.21875 41.609375 39.140625 45 
Q 35.0625 48.390625 27.6875 48.390625 
Q 23 48.390625 18.546875 47.265625 
Q 14.109375 46.140625 10.015625 43.890625 
L 10.015625 52.203125 
Q 14.9375 54.109375 19.578125 55.046875 
Q 24.21875 56 28.609375 56 
Q 40.484375 56 46.34375 49.84375 
Q 52.203125 43.703125 52.203125 31.203125 
" id="BitstreamVeraSans-Roman-61"/>
      <path d="M 9.421875 75.984375 
L 18.40625 75.984375 
L 18.40625 0 
L 9.421875 0 
z
" id="BitstreamVeraSans-Roman-6c"/>
     </defs>
     <g transform="translate(300.7075 49.5709375)scale(0.12 -0.12)">
      <use xlink:href="#BitstreamVeraSans-Roman-72"/>
      <use x="41.08203125" xlink:href="#BitstreamVeraSans-Roman-65"/>
      <use x="102.60546875" xlink:href="#BitstreamVeraSans-Roman-63"/>
      <use x="157.5859375" xlink:href="#BitstreamVeraSans-Roman-61"/>
      <use x="218.865234375" xlink:href="#BitstreamVeraSans-Roman-6c"/>
      <use x="246.6484375" xlink:href="#BitstreamVeraSans-Roman-6c"/>
     </g>
    </g>
    <g id="line2d_53">
     <path d="M 270.7075 62.984687 
L 287.5075 62.984687 
" style="fill:none;stroke:#988ed5;stroke-linecap:square;"/>
    </g>
    <g id="line2d_54"/>
    <g id="text_19">
     <!-- f1 -->
     <defs>
      <path d="M 37.109375 75.984375 
L 37.109375 68.5 
L 28.515625 68.5 
Q 23.6875 68.5 21.796875 66.546875 
Q 19.921875 64.59375 19.921875 59.515625 
L 19.921875 54.6875 
L 34.71875 54.6875 
L 34.71875 47.703125 
L 19.921875 47.703125 
L 19.921875 0 
L 10.890625 0 
L 10.890625 47.703125 
L 2.296875 47.703125 
L 2.296875 54.6875 
L 10.890625 54.6875 
L 10.890625 58.5 
Q 10.890625 67.625 15.140625 71.796875 
Q 19.390625 75.984375 28.609375 75.984375 
z
" id="BitstreamVeraSans-Roman-66"/>
     </defs>
     <g transform="translate(300.7075 67.1846875)scale(0.12 -0.12)">
      <use xlink:href="#BitstreamVeraSans-Roman-66"/>
      <use x="35.205078125" xlink:href="#BitstreamVeraSans-Roman-31"/>
     </g>
    </g>
   </g>
  </g>
 </g>
 <defs>
  <clipPath id="pca44f4e25f">
   <rect height="223.2" width="334.8" x="31.103125" y="12.0390625"/>
  </clipPath>
 </defs>
</svg>
