<?xml version="1.0" encoding="utf-8" standalone="no"?>
<!DOCTYPE svg PUBLIC "-//W3C//DTD SVG 1.1//EN"
  "http://www.w3.org/Graphics/SVG/1.1/DTD/svg11.dtd">
<!-- Created with matplotlib (http://matplotlib.org/) -->
<svg height="340pt" version="1.1" viewBox="0 0 485 340" width="485pt" xmlns="http://www.w3.org/2000/svg" xmlns:xlink="http://www.w3.org/1999/xlink">
 <defs>
  <style type="text/css">
*{stroke-linecap:butt;stroke-linejoin:round;stroke-miterlimit:100000;}
  </style>
 </defs>
 <g id="figure_1">
  <g id="patch_1">
   <path d="M 0 340.630625 
L 485.90625 340.630625 
L 485.90625 0 
L 0 0 
L 0 340.630625 
z
" style="fill:none;"/>
  </g>
  <g id="axes_1">
   <g id="patch_2">
    <path d="M 80.953125 253.44 
L 415.753125 253.44 
L 415.753125 30.24 
L 80.953125 30.24 
z
" style="fill:#e5e5e5;"/>
   </g>
   <g id="matplotlib.axis_1">
    <g id="xtick_1">
     <g id="line2d_1">
      <path clip-path="url(#pd742985d6d)" d="M 122.803125 253.44 
L 122.803125 30.24 
" style="fill:none;stroke:#ffffff;stroke-linecap:square;stroke-width:0.5;"/>
     </g>
     <g id="line2d_2">
      <defs>
       <path d="M 0 0 
L 0 4 
" id="md85edad5db" style="stroke:#555555;stroke-width:0.5;"/>
      </defs>
      <g>
       <use style="fill:#555555;stroke:#555555;stroke-width:0.5;" x="122.803125" xlink:href="#md85edad5db" y="253.44"/>
      </g>
     </g>
     <g id="line2d_3">
      <defs>
       <path d="M 0 0 
L 0 -4 
" id="m60762e5c1f" style="stroke:#555555;stroke-width:0.5;"/>
      </defs>
      <g>
       <use style="fill:#555555;stroke:#555555;stroke-width:0.5;" x="122.803125" xlink:href="#m60762e5c1f" y="30.24"/>
      </g>
     </g>
     <g id="text_1">
      <!-- entertainment -->
      <defs>
       <path d="M 54.890625 33.015625 
L 54.890625 0 
L 45.90625 0 
L 45.90625 32.71875 
Q 45.90625 40.484375 42.875 44.328125 
Q 39.84375 48.1875 33.796875 48.1875 
Q 26.515625 48.1875 22.3125 43.546875 
Q 18.109375 38.921875 18.109375 30.90625 
L 18.109375 0 
L 9.078125 0 
L 9.078125 54.6875 
L 18.109375 54.6875 
L 18.109375 46.1875 
Q 21.34375 51.125 25.703125 53.5625 
Q 30.078125 56 35.796875 56 
Q 45.21875 56 50.046875 50.171875 
Q 54.890625 44.34375 54.890625 33.015625 
" id="BitstreamVeraSans-Roman-6e"/>
       <path d="M 34.28125 27.484375 
Q 23.390625 27.484375 19.1875 25 
Q 14.984375 22.515625 14.984375 16.5 
Q 14.984375 11.71875 18.140625 8.90625 
Q 21.296875 6.109375 26.703125 6.109375 
Q 34.1875 6.109375 38.703125 11.40625 
Q 43.21875 16.703125 43.21875 25.484375 
L 43.21875 27.484375 
z
M 52.203125 31.203125 
L 52.203125 0 
L 43.21875 0 
L 43.21875 8.296875 
Q 40.140625 3.328125 35.546875 0.953125 
Q 30.953125 -1.421875 24.3125 -1.421875 
Q 15.921875 -1.421875 10.953125 3.296875 
Q 6 8.015625 6 15.921875 
Q 6 25.140625 12.171875 29.828125 
Q 18.359375 34.515625 30.609375 34.515625 
L 43.21875 34.515625 
L 43.21875 35.40625 
Q 43.21875 41.609375 39.140625 45 
Q 35.0625 48.390625 27.6875 48.390625 
Q 23 48.390625 18.546875 47.265625 
Q 14.109375 46.140625 10.015625 43.890625 
L 10.015625 52.203125 
Q 14.9375 54.109375 19.578125 55.046875 
Q 24.21875 56 28.609375 56 
Q 40.484375 56 46.34375 49.84375 
Q 52.203125 43.703125 52.203125 31.203125 
" id="BitstreamVeraSans-Roman-61"/>
       <path d="M 9.421875 54.6875 
L 18.40625 54.6875 
L 18.40625 0 
L 9.421875 0 
z
M 9.421875 75.984375 
L 18.40625 75.984375 
L 18.40625 64.59375 
L 9.421875 64.59375 
z
" id="BitstreamVeraSans-Roman-69"/>
       <path d="M 52 44.1875 
Q 55.375 50.25 60.0625 53.125 
Q 64.75 56 71.09375 56 
Q 79.640625 56 84.28125 50.015625 
Q 88.921875 44.046875 88.921875 33.015625 
L 88.921875 0 
L 79.890625 0 
L 79.890625 32.71875 
Q 79.890625 40.578125 77.09375 44.375 
Q 74.3125 48.1875 68.609375 48.1875 
Q 61.625 48.1875 57.5625 43.546875 
Q 53.515625 38.921875 53.515625 30.90625 
L 53.515625 0 
L 44.484375 0 
L 44.484375 32.71875 
Q 44.484375 40.625 41.703125 44.40625 
Q 38.921875 48.1875 33.109375 48.1875 
Q 26.21875 48.1875 22.15625 43.53125 
Q 18.109375 38.875 18.109375 30.90625 
L 18.109375 0 
L 9.078125 0 
L 9.078125 54.6875 
L 18.109375 54.6875 
L 18.109375 46.1875 
Q 21.1875 51.21875 25.484375 53.609375 
Q 29.78125 56 35.6875 56 
Q 41.65625 56 45.828125 52.96875 
Q 50 49.953125 52 44.1875 
" id="BitstreamVeraSans-Roman-6d"/>
       <path d="M 56.203125 29.59375 
L 56.203125 25.203125 
L 14.890625 25.203125 
Q 15.484375 15.921875 20.484375 11.0625 
Q 25.484375 6.203125 34.421875 6.203125 
Q 39.59375 6.203125 44.453125 7.46875 
Q 49.3125 8.734375 54.109375 11.28125 
L 54.109375 2.78125 
Q 49.265625 0.734375 44.1875 -0.34375 
Q 39.109375 -1.421875 33.890625 -1.421875 
Q 20.796875 -1.421875 13.15625 6.1875 
Q 5.515625 13.8125 5.515625 26.8125 
Q 5.515625 40.234375 12.765625 48.109375 
Q 20.015625 56 32.328125 56 
Q 43.359375 56 49.78125 48.890625 
Q 56.203125 41.796875 56.203125 29.59375 
M 47.21875 32.234375 
Q 47.125 39.59375 43.09375 43.984375 
Q 39.0625 48.390625 32.421875 48.390625 
Q 24.90625 48.390625 20.390625 44.140625 
Q 15.875 39.890625 15.1875 32.171875 
z
" id="BitstreamVeraSans-Roman-65"/>
       <path d="M 18.3125 70.21875 
L 18.3125 54.6875 
L 36.8125 54.6875 
L 36.8125 47.703125 
L 18.3125 47.703125 
L 18.3125 18.015625 
Q 18.3125 11.328125 20.140625 9.421875 
Q 21.96875 7.515625 27.59375 7.515625 
L 36.8125 7.515625 
L 36.8125 0 
L 27.59375 0 
Q 17.1875 0 13.234375 3.875 
Q 9.28125 7.765625 9.28125 18.015625 
L 9.28125 47.703125 
L 2.6875 47.703125 
L 2.6875 54.6875 
L 9.28125 54.6875 
L 9.28125 70.21875 
z
" id="BitstreamVeraSans-Roman-74"/>
       <path d="M 41.109375 46.296875 
Q 39.59375 47.171875 37.8125 47.578125 
Q 36.03125 48 33.890625 48 
Q 26.265625 48 22.1875 43.046875 
Q 18.109375 38.09375 18.109375 28.8125 
L 18.109375 0 
L 9.078125 0 
L 9.078125 54.6875 
L 18.109375 54.6875 
L 18.109375 46.1875 
Q 20.953125 51.171875 25.484375 53.578125 
Q 30.03125 56 36.53125 56 
Q 37.453125 56 38.578125 55.875 
Q 39.703125 55.765625 41.0625 55.515625 
z
" id="BitstreamVeraSans-Roman-72"/>
      </defs>
      <g style="fill:#555555;" transform="translate(125.5625 333.430625)rotate(-90.0)scale(0.1 -0.1)">
       <use xlink:href="#BitstreamVeraSans-Roman-65"/>
       <use x="61.5234375" xlink:href="#BitstreamVeraSans-Roman-6e"/>
       <use x="124.90234375" xlink:href="#BitstreamVeraSans-Roman-74"/>
       <use x="164.111328125" xlink:href="#BitstreamVeraSans-Roman-65"/>
       <use x="225.634765625" xlink:href="#BitstreamVeraSans-Roman-72"/>
       <use x="266.748046875" xlink:href="#BitstreamVeraSans-Roman-74"/>
       <use x="305.95703125" xlink:href="#BitstreamVeraSans-Roman-61"/>
       <use x="367.236328125" xlink:href="#BitstreamVeraSans-Roman-69"/>
       <use x="395.01953125" xlink:href="#BitstreamVeraSans-Roman-6e"/>
       <use x="458.3984375" xlink:href="#BitstreamVeraSans-Roman-6d"/>
       <use x="555.810546875" xlink:href="#BitstreamVeraSans-Roman-65"/>
       <use x="617.333984375" xlink:href="#BitstreamVeraSans-Roman-6e"/>
       <use x="680.712890625" xlink:href="#BitstreamVeraSans-Roman-74"/>
      </g>
     </g>
    </g>
    <g id="xtick_2">
     <g id="line2d_4">
      <path clip-path="url(#pd742985d6d)" d="M 164.653125 253.44 
L 164.653125 30.24 
" style="fill:none;stroke:#ffffff;stroke-linecap:square;stroke-width:0.5;"/>
     </g>
     <g id="line2d_5">
      <g>
       <use style="fill:#555555;stroke:#555555;stroke-width:0.5;" x="164.653125" xlink:href="#md85edad5db" y="253.44"/>
      </g>
     </g>
     <g id="line2d_6">
      <g>
       <use style="fill:#555555;stroke:#555555;stroke-width:0.5;" x="164.653125" xlink:href="#m60762e5c1f" y="30.24"/>
      </g>
     </g>
     <g id="text_2">
      <!-- gaming -->
      <defs>
       <path d="M 45.40625 27.984375 
Q 45.40625 37.75 41.375 43.109375 
Q 37.359375 48.484375 30.078125 48.484375 
Q 22.859375 48.484375 18.828125 43.109375 
Q 14.796875 37.75 14.796875 27.984375 
Q 14.796875 18.265625 18.828125 12.890625 
Q 22.859375 7.515625 30.078125 7.515625 
Q 37.359375 7.515625 41.375 12.890625 
Q 45.40625 18.265625 45.40625 27.984375 
M 54.390625 6.78125 
Q 54.390625 -7.171875 48.1875 -13.984375 
Q 42 -20.796875 29.203125 -20.796875 
Q 24.46875 -20.796875 20.265625 -20.09375 
Q 16.0625 -19.390625 12.109375 -17.921875 
L 12.109375 -9.1875 
Q 16.0625 -11.328125 19.921875 -12.34375 
Q 23.78125 -13.375 27.78125 -13.375 
Q 36.625 -13.375 41.015625 -8.765625 
Q 45.40625 -4.15625 45.40625 5.171875 
L 45.40625 9.625 
Q 42.625 4.78125 38.28125 2.390625 
Q 33.9375 0 27.875 0 
Q 17.828125 0 11.671875 7.65625 
Q 5.515625 15.328125 5.515625 27.984375 
Q 5.515625 40.671875 11.671875 48.328125 
Q 17.828125 56 27.875 56 
Q 33.9375 56 38.28125 53.609375 
Q 42.625 51.21875 45.40625 46.390625 
L 45.40625 54.6875 
L 54.390625 54.6875 
z
" id="BitstreamVeraSans-Roman-67"/>
      </defs>
      <g style="fill:#555555;" transform="translate(167.4125 299.12125)rotate(-90.0)scale(0.1 -0.1)">
       <use xlink:href="#BitstreamVeraSans-Roman-67"/>
       <use x="63.4765625" xlink:href="#BitstreamVeraSans-Roman-61"/>
       <use x="124.755859375" xlink:href="#BitstreamVeraSans-Roman-6d"/>
       <use x="222.16796875" xlink:href="#BitstreamVeraSans-Roman-69"/>
       <use x="249.951171875" xlink:href="#BitstreamVeraSans-Roman-6e"/>
       <use x="313.330078125" xlink:href="#BitstreamVeraSans-Roman-67"/>
      </g>
     </g>
    </g>
    <g id="xtick_3">
     <g id="line2d_7">
      <path clip-path="url(#pd742985d6d)" d="M 206.503125 253.44 
L 206.503125 30.24 
" style="fill:none;stroke:#ffffff;stroke-linecap:square;stroke-width:0.5;"/>
     </g>
     <g id="line2d_8">
      <g>
       <use style="fill:#555555;stroke:#555555;stroke-width:0.5;" x="206.503125" xlink:href="#md85edad5db" y="253.44"/>
      </g>
     </g>
     <g id="line2d_9">
      <g>
       <use style="fill:#555555;stroke:#555555;stroke-width:0.5;" x="206.503125" xlink:href="#m60762e5c1f" y="30.24"/>
      </g>
     </g>
     <g id="text_3">
      <!-- humor -->
      <defs>
       <path d="M 8.5 21.578125 
L 8.5 54.6875 
L 17.484375 54.6875 
L 17.484375 21.921875 
Q 17.484375 14.15625 20.5 10.265625 
Q 23.53125 6.390625 29.59375 6.390625 
Q 36.859375 6.390625 41.078125 11.03125 
Q 45.3125 15.671875 45.3125 23.6875 
L 45.3125 54.6875 
L 54.296875 54.6875 
L 54.296875 0 
L 45.3125 0 
L 45.3125 8.40625 
Q 42.046875 3.421875 37.71875 1 
Q 33.40625 -1.421875 27.6875 -1.421875 
Q 18.265625 -1.421875 13.375 4.4375 
Q 8.5 10.296875 8.5 21.578125 
" id="BitstreamVeraSans-Roman-75"/>
       <path d="M 54.890625 33.015625 
L 54.890625 0 
L 45.90625 0 
L 45.90625 32.71875 
Q 45.90625 40.484375 42.875 44.328125 
Q 39.84375 48.1875 33.796875 48.1875 
Q 26.515625 48.1875 22.3125 43.546875 
Q 18.109375 38.921875 18.109375 30.90625 
L 18.109375 0 
L 9.078125 0 
L 9.078125 75.984375 
L 18.109375 75.984375 
L 18.109375 46.1875 
Q 21.34375 51.125 25.703125 53.5625 
Q 30.078125 56 35.796875 56 
Q 45.21875 56 50.046875 50.171875 
Q 54.890625 44.34375 54.890625 33.015625 
" id="BitstreamVeraSans-Roman-68"/>
       <path d="M 30.609375 48.390625 
Q 23.390625 48.390625 19.1875 42.75 
Q 14.984375 37.109375 14.984375 27.296875 
Q 14.984375 17.484375 19.15625 11.84375 
Q 23.34375 6.203125 30.609375 6.203125 
Q 37.796875 6.203125 41.984375 11.859375 
Q 46.1875 17.53125 46.1875 27.296875 
Q 46.1875 37.015625 41.984375 42.703125 
Q 37.796875 48.390625 30.609375 48.390625 
M 30.609375 56 
Q 42.328125 56 49.015625 48.375 
Q 55.71875 40.765625 55.71875 27.296875 
Q 55.71875 13.875 49.015625 6.21875 
Q 42.328125 -1.421875 30.609375 -1.421875 
Q 18.84375 -1.421875 12.171875 6.21875 
Q 5.515625 13.875 5.515625 27.296875 
Q 5.515625 40.765625 12.171875 48.375 
Q 18.84375 56 30.609375 56 
" id="BitstreamVeraSans-Roman-6f"/>
      </defs>
      <g style="fill:#555555;" transform="translate(209.2625 294.0853125)rotate(-90.0)scale(0.1 -0.1)">
       <use xlink:href="#BitstreamVeraSans-Roman-68"/>
       <use x="63.37890625" xlink:href="#BitstreamVeraSans-Roman-75"/>
       <use x="126.7578125" xlink:href="#BitstreamVeraSans-Roman-6d"/>
       <use x="224.169921875" xlink:href="#BitstreamVeraSans-Roman-6f"/>
       <use x="285.3515625" xlink:href="#BitstreamVeraSans-Roman-72"/>
      </g>
     </g>
    </g>
    <g id="xtick_4">
     <g id="line2d_10">
      <path clip-path="url(#pd742985d6d)" d="M 248.353125 253.44 
L 248.353125 30.24 
" style="fill:none;stroke:#ffffff;stroke-linecap:square;stroke-width:0.5;"/>
     </g>
     <g id="line2d_11">
      <g>
       <use style="fill:#555555;stroke:#555555;stroke-width:0.5;" x="248.353125" xlink:href="#md85edad5db" y="253.44"/>
      </g>
     </g>
     <g id="line2d_12">
      <g>
       <use style="fill:#555555;stroke:#555555;stroke-width:0.5;" x="248.353125" xlink:href="#m60762e5c1f" y="30.24"/>
      </g>
     </g>
     <g id="text_4">
      <!-- learning -->
      <defs>
       <path d="M 9.421875 75.984375 
L 18.40625 75.984375 
L 18.40625 0 
L 9.421875 0 
z
" id="BitstreamVeraSans-Roman-6c"/>
      </defs>
      <g style="fill:#555555;" transform="translate(251.1125 302.4103125)rotate(-90.0)scale(0.1 -0.1)">
       <use xlink:href="#BitstreamVeraSans-Roman-6c"/>
       <use x="27.783203125" xlink:href="#BitstreamVeraSans-Roman-65"/>
       <use x="89.306640625" xlink:href="#BitstreamVeraSans-Roman-61"/>
       <use x="150.5859375" xlink:href="#BitstreamVeraSans-Roman-72"/>
       <use x="191.68359375" xlink:href="#BitstreamVeraSans-Roman-6e"/>
       <use x="255.0625" xlink:href="#BitstreamVeraSans-Roman-69"/>
       <use x="282.845703125" xlink:href="#BitstreamVeraSans-Roman-6e"/>
       <use x="346.224609375" xlink:href="#BitstreamVeraSans-Roman-67"/>
      </g>
     </g>
    </g>
    <g id="xtick_5">
     <g id="line2d_13">
      <path clip-path="url(#pd742985d6d)" d="M 290.203125 253.44 
L 290.203125 30.24 
" style="fill:none;stroke:#ffffff;stroke-linecap:square;stroke-width:0.5;"/>
     </g>
     <g id="line2d_14">
      <g>
       <use style="fill:#555555;stroke:#555555;stroke-width:0.5;" x="290.203125" xlink:href="#md85edad5db" y="253.44"/>
      </g>
     </g>
     <g id="line2d_15">
      <g>
       <use style="fill:#555555;stroke:#555555;stroke-width:0.5;" x="290.203125" xlink:href="#m60762e5c1f" y="30.24"/>
      </g>
     </g>
     <g id="text_5">
      <!-- lifestyle -->
      <defs>
       <path d="M 37.109375 75.984375 
L 37.109375 68.5 
L 28.515625 68.5 
Q 23.6875 68.5 21.796875 66.546875 
Q 19.921875 64.59375 19.921875 59.515625 
L 19.921875 54.6875 
L 34.71875 54.6875 
L 34.71875 47.703125 
L 19.921875 47.703125 
L 19.921875 0 
L 10.890625 0 
L 10.890625 47.703125 
L 2.296875 47.703125 
L 2.296875 54.6875 
L 10.890625 54.6875 
L 10.890625 58.5 
Q 10.890625 67.625 15.140625 71.796875 
Q 19.390625 75.984375 28.609375 75.984375 
z
" id="BitstreamVeraSans-Roman-66"/>
       <path d="M 44.28125 53.078125 
L 44.28125 44.578125 
Q 40.484375 46.53125 36.375 47.5 
Q 32.28125 48.484375 27.875 48.484375 
Q 21.1875 48.484375 17.84375 46.4375 
Q 14.5 44.390625 14.5 40.28125 
Q 14.5 37.15625 16.890625 35.375 
Q 19.28125 33.59375 26.515625 31.984375 
L 29.59375 31.296875 
Q 39.15625 29.25 43.1875 25.515625 
Q 47.21875 21.78125 47.21875 15.09375 
Q 47.21875 7.46875 41.1875 3.015625 
Q 35.15625 -1.421875 24.609375 -1.421875 
Q 20.21875 -1.421875 15.453125 -0.5625 
Q 10.6875 0.296875 5.421875 2 
L 5.421875 11.28125 
Q 10.40625 8.6875 15.234375 7.390625 
Q 20.0625 6.109375 24.8125 6.109375 
Q 31.15625 6.109375 34.5625 8.28125 
Q 37.984375 10.453125 37.984375 14.40625 
Q 37.984375 18.0625 35.515625 20.015625 
Q 33.0625 21.96875 24.703125 23.78125 
L 21.578125 24.515625 
Q 13.234375 26.265625 9.515625 29.90625 
Q 5.8125 33.546875 5.8125 39.890625 
Q 5.8125 47.609375 11.28125 51.796875 
Q 16.75 56 26.8125 56 
Q 31.78125 56 36.171875 55.265625 
Q 40.578125 54.546875 44.28125 53.078125 
" id="BitstreamVeraSans-Roman-73"/>
       <path d="M 32.171875 -5.078125 
Q 28.375 -14.84375 24.75 -17.8125 
Q 21.140625 -20.796875 15.09375 -20.796875 
L 7.90625 -20.796875 
L 7.90625 -13.28125 
L 13.1875 -13.28125 
Q 16.890625 -13.28125 18.9375 -11.515625 
Q 21 -9.765625 23.484375 -3.21875 
L 25.09375 0.875 
L 2.984375 54.6875 
L 12.5 54.6875 
L 29.59375 11.921875 
L 46.6875 54.6875 
L 56.203125 54.6875 
z
" id="BitstreamVeraSans-Roman-79"/>
      </defs>
      <g style="fill:#555555;" transform="translate(292.9625 300.649375)rotate(-90.0)scale(0.1 -0.1)">
       <use xlink:href="#BitstreamVeraSans-Roman-6c"/>
       <use x="27.783203125" xlink:href="#BitstreamVeraSans-Roman-69"/>
       <use x="55.56640625" xlink:href="#BitstreamVeraSans-Roman-66"/>
       <use x="90.771484375" xlink:href="#BitstreamVeraSans-Roman-65"/>
       <use x="152.294921875" xlink:href="#BitstreamVeraSans-Roman-73"/>
       <use x="204.39453125" xlink:href="#BitstreamVeraSans-Roman-74"/>
       <use x="243.603515625" xlink:href="#BitstreamVeraSans-Roman-79"/>
       <use x="302.783203125" xlink:href="#BitstreamVeraSans-Roman-6c"/>
       <use x="330.56640625" xlink:href="#BitstreamVeraSans-Roman-65"/>
      </g>
     </g>
    </g>
    <g id="xtick_6">
     <g id="line2d_16">
      <path clip-path="url(#pd742985d6d)" d="M 332.053125 253.44 
L 332.053125 30.24 
" style="fill:none;stroke:#ffffff;stroke-linecap:square;stroke-width:0.5;"/>
     </g>
     <g id="line2d_17">
      <g>
       <use style="fill:#555555;stroke:#555555;stroke-width:0.5;" x="332.053125" xlink:href="#md85edad5db" y="253.44"/>
      </g>
     </g>
     <g id="line2d_18">
      <g>
       <use style="fill:#555555;stroke:#555555;stroke-width:0.5;" x="332.053125" xlink:href="#m60762e5c1f" y="30.24"/>
      </g>
     </g>
     <g id="text_6">
      <!-- news -->
      <defs>
       <path d="M 4.203125 54.6875 
L 13.1875 54.6875 
L 24.421875 12.015625 
L 35.59375 54.6875 
L 46.1875 54.6875 
L 57.421875 12.015625 
L 68.609375 54.6875 
L 77.59375 54.6875 
L 63.28125 0 
L 52.6875 0 
L 40.921875 44.828125 
L 29.109375 0 
L 18.5 0 
z
" id="BitstreamVeraSans-Roman-77"/>
      </defs>
      <g style="fill:#555555;" transform="translate(334.8125 287.318125)rotate(-90.0)scale(0.1 -0.1)">
       <use xlink:href="#BitstreamVeraSans-Roman-6e"/>
       <use x="63.37890625" xlink:href="#BitstreamVeraSans-Roman-65"/>
       <use x="124.90234375" xlink:href="#BitstreamVeraSans-Roman-77"/>
       <use x="206.689453125" xlink:href="#BitstreamVeraSans-Roman-73"/>
      </g>
     </g>
    </g>
    <g id="xtick_7">
     <g id="line2d_19">
      <path clip-path="url(#pd742985d6d)" d="M 373.903125 253.44 
L 373.903125 30.24 
" style="fill:none;stroke:#ffffff;stroke-linecap:square;stroke-width:0.5;"/>
     </g>
     <g id="line2d_20">
      <g>
       <use style="fill:#555555;stroke:#555555;stroke-width:0.5;" x="373.903125" xlink:href="#md85edad5db" y="253.44"/>
      </g>
     </g>
     <g id="line2d_21">
      <g>
       <use style="fill:#555555;stroke:#555555;stroke-width:0.5;" x="373.903125" xlink:href="#m60762e5c1f" y="30.24"/>
      </g>
     </g>
     <g id="text_7">
      <!-- television -->
      <defs>
       <path d="M 2.984375 54.6875 
L 12.5 54.6875 
L 29.59375 8.796875 
L 46.6875 54.6875 
L 56.203125 54.6875 
L 35.6875 0 
L 23.484375 0 
z
" id="BitstreamVeraSans-Roman-76"/>
      </defs>
      <g style="fill:#555555;" transform="translate(376.6625 309.5853125)rotate(-90.0)scale(0.1 -0.1)">
       <use xlink:href="#BitstreamVeraSans-Roman-74"/>
       <use x="39.208984375" xlink:href="#BitstreamVeraSans-Roman-65"/>
       <use x="100.732421875" xlink:href="#BitstreamVeraSans-Roman-6c"/>
       <use x="128.515625" xlink:href="#BitstreamVeraSans-Roman-65"/>
       <use x="190.0390625" xlink:href="#BitstreamVeraSans-Roman-76"/>
       <use x="249.21875" xlink:href="#BitstreamVeraSans-Roman-69"/>
       <use x="277.001953125" xlink:href="#BitstreamVeraSans-Roman-73"/>
       <use x="329.1015625" xlink:href="#BitstreamVeraSans-Roman-69"/>
       <use x="356.884765625" xlink:href="#BitstreamVeraSans-Roman-6f"/>
       <use x="418.06640625" xlink:href="#BitstreamVeraSans-Roman-6e"/>
      </g>
     </g>
    </g>
   </g>
   <g id="matplotlib.axis_2">
    <g id="ytick_1">
     <g id="line2d_22">
      <path clip-path="url(#pd742985d6d)" d="M 80.953125 253.44 
L 415.753125 253.44 
" style="fill:none;stroke:#ffffff;stroke-linecap:square;stroke-width:0.5;"/>
     </g>
     <g id="line2d_23">
      <defs>
       <path d="M 0 0 
L -4 0 
" id="m997912d2d3" style="stroke:#555555;stroke-width:0.5;"/>
      </defs>
      <g>
       <use style="fill:#555555;stroke:#555555;stroke-width:0.5;" x="80.953125" xlink:href="#m997912d2d3" y="253.44"/>
      </g>
     </g>
     <g id="line2d_24">
      <defs>
       <path d="M 0 0 
L 4 0 
" id="md51ca70b68" style="stroke:#555555;stroke-width:0.5;"/>
      </defs>
      <g>
       <use style="fill:#555555;stroke:#555555;stroke-width:0.5;" x="415.753125" xlink:href="#md51ca70b68" y="253.44"/>
      </g>
     </g>
     <g id="text_8">
      <!-- 0 -->
      <defs>
       <path d="M 31.78125 66.40625 
Q 24.171875 66.40625 20.328125 58.90625 
Q 16.5 51.421875 16.5 36.375 
Q 16.5 21.390625 20.328125 13.890625 
Q 24.171875 6.390625 31.78125 6.390625 
Q 39.453125 6.390625 43.28125 13.890625 
Q 47.125 21.390625 47.125 36.375 
Q 47.125 51.421875 43.28125 58.90625 
Q 39.453125 66.40625 31.78125 66.40625 
M 31.78125 74.21875 
Q 44.046875 74.21875 50.515625 64.515625 
Q 56.984375 54.828125 56.984375 36.375 
Q 56.984375 17.96875 50.515625 8.265625 
Q 44.046875 -1.421875 31.78125 -1.421875 
Q 19.53125 -1.421875 13.0625 8.265625 
Q 6.59375 17.96875 6.59375 36.375 
Q 6.59375 54.828125 13.0625 64.515625 
Q 19.53125 74.21875 31.78125 74.21875 
" id="BitstreamVeraSans-Roman-30"/>
      </defs>
      <g style="fill:#555555;" transform="translate(66.590625 256.199375)scale(0.1 -0.1)">
       <use xlink:href="#BitstreamVeraSans-Roman-30"/>
      </g>
     </g>
    </g>
    <g id="ytick_2">
     <g id="line2d_25">
      <path clip-path="url(#pd742985d6d)" d="M 80.953125 221.554286 
L 415.753125 221.554286 
" style="fill:none;stroke:#ffffff;stroke-linecap:square;stroke-width:0.5;"/>
     </g>
     <g id="line2d_26">
      <g>
       <use style="fill:#555555;stroke:#555555;stroke-width:0.5;" x="80.953125" xlink:href="#m997912d2d3" y="221.554285714"/>
      </g>
     </g>
     <g id="line2d_27">
      <g>
       <use style="fill:#555555;stroke:#555555;stroke-width:0.5;" x="415.753125" xlink:href="#md51ca70b68" y="221.554285714"/>
      </g>
     </g>
     <g id="text_9">
      <!-- 500 -->
      <defs>
       <path d="M 10.796875 72.90625 
L 49.515625 72.90625 
L 49.515625 64.59375 
L 19.828125 64.59375 
L 19.828125 46.734375 
Q 21.96875 47.46875 24.109375 47.828125 
Q 26.265625 48.1875 28.421875 48.1875 
Q 40.625 48.1875 47.75 41.5 
Q 54.890625 34.8125 54.890625 23.390625 
Q 54.890625 11.625 47.5625 5.09375 
Q 40.234375 -1.421875 26.90625 -1.421875 
Q 22.3125 -1.421875 17.546875 -0.640625 
Q 12.796875 0.140625 7.71875 1.703125 
L 7.71875 11.625 
Q 12.109375 9.234375 16.796875 8.0625 
Q 21.484375 6.890625 26.703125 6.890625 
Q 35.15625 6.890625 40.078125 11.328125 
Q 45.015625 15.765625 45.015625 23.390625 
Q 45.015625 31 40.078125 35.4375 
Q 35.15625 39.890625 26.703125 39.890625 
Q 22.75 39.890625 18.8125 39.015625 
Q 14.890625 38.140625 10.796875 36.28125 
z
" id="BitstreamVeraSans-Roman-35"/>
      </defs>
      <g style="fill:#555555;" transform="translate(53.865625 224.313660714)scale(0.1 -0.1)">
       <use xlink:href="#BitstreamVeraSans-Roman-35"/>
       <use x="63.623046875" xlink:href="#BitstreamVeraSans-Roman-30"/>
       <use x="127.24609375" xlink:href="#BitstreamVeraSans-Roman-30"/>
      </g>
     </g>
    </g>
    <g id="ytick_3">
     <g id="line2d_28">
      <path clip-path="url(#pd742985d6d)" d="M 80.953125 189.668571 
L 415.753125 189.668571 
" style="fill:none;stroke:#ffffff;stroke-linecap:square;stroke-width:0.5;"/>
     </g>
     <g id="line2d_29">
      <g>
       <use style="fill:#555555;stroke:#555555;stroke-width:0.5;" x="80.953125" xlink:href="#m997912d2d3" y="189.668571429"/>
      </g>
     </g>
     <g id="line2d_30">
      <g>
       <use style="fill:#555555;stroke:#555555;stroke-width:0.5;" x="415.753125" xlink:href="#md51ca70b68" y="189.668571429"/>
      </g>
     </g>
     <g id="text_10">
      <!-- 1000 -->
      <defs>
       <path d="M 12.40625 8.296875 
L 28.515625 8.296875 
L 28.515625 63.921875 
L 10.984375 60.40625 
L 10.984375 69.390625 
L 28.421875 72.90625 
L 38.28125 72.90625 
L 38.28125 8.296875 
L 54.390625 8.296875 
L 54.390625 0 
L 12.40625 0 
z
" id="BitstreamVeraSans-Roman-31"/>
      </defs>
      <g style="fill:#555555;" transform="translate(47.503125 192.427946429)scale(0.1 -0.1)">
       <use xlink:href="#BitstreamVeraSans-Roman-31"/>
       <use x="63.623046875" xlink:href="#BitstreamVeraSans-Roman-30"/>
       <use x="127.24609375" xlink:href="#BitstreamVeraSans-Roman-30"/>
       <use x="190.869140625" xlink:href="#BitstreamVeraSans-Roman-30"/>
      </g>
     </g>
    </g>
    <g id="ytick_4">
     <g id="line2d_31">
      <path clip-path="url(#pd742985d6d)" d="M 80.953125 157.782857 
L 415.753125 157.782857 
" style="fill:none;stroke:#ffffff;stroke-linecap:square;stroke-width:0.5;"/>
     </g>
     <g id="line2d_32">
      <g>
       <use style="fill:#555555;stroke:#555555;stroke-width:0.5;" x="80.953125" xlink:href="#m997912d2d3" y="157.782857143"/>
      </g>
     </g>
     <g id="line2d_33">
      <g>
       <use style="fill:#555555;stroke:#555555;stroke-width:0.5;" x="415.753125" xlink:href="#md51ca70b68" y="157.782857143"/>
      </g>
     </g>
     <g id="text_11">
      <!-- 1500 -->
      <g style="fill:#555555;" transform="translate(47.503125 160.542232143)scale(0.1 -0.1)">
       <use xlink:href="#BitstreamVeraSans-Roman-31"/>
       <use x="63.623046875" xlink:href="#BitstreamVeraSans-Roman-35"/>
       <use x="127.24609375" xlink:href="#BitstreamVeraSans-Roman-30"/>
       <use x="190.869140625" xlink:href="#BitstreamVeraSans-Roman-30"/>
      </g>
     </g>
    </g>
    <g id="ytick_5">
     <g id="line2d_34">
      <path clip-path="url(#pd742985d6d)" d="M 80.953125 125.897143 
L 415.753125 125.897143 
" style="fill:none;stroke:#ffffff;stroke-linecap:square;stroke-width:0.5;"/>
     </g>
     <g id="line2d_35">
      <g>
       <use style="fill:#555555;stroke:#555555;stroke-width:0.5;" x="80.953125" xlink:href="#m997912d2d3" y="125.897142857"/>
      </g>
     </g>
     <g id="line2d_36">
      <g>
       <use style="fill:#555555;stroke:#555555;stroke-width:0.5;" x="415.753125" xlink:href="#md51ca70b68" y="125.897142857"/>
      </g>
     </g>
     <g id="text_12">
      <!-- 2000 -->
      <defs>
       <path d="M 19.1875 8.296875 
L 53.609375 8.296875 
L 53.609375 0 
L 7.328125 0 
L 7.328125 8.296875 
Q 12.9375 14.109375 22.625 23.890625 
Q 32.328125 33.6875 34.8125 36.53125 
Q 39.546875 41.84375 41.421875 45.53125 
Q 43.3125 49.21875 43.3125 52.78125 
Q 43.3125 58.59375 39.234375 62.25 
Q 35.15625 65.921875 28.609375 65.921875 
Q 23.96875 65.921875 18.8125 64.3125 
Q 13.671875 62.703125 7.8125 59.421875 
L 7.8125 69.390625 
Q 13.765625 71.78125 18.9375 73 
Q 24.125 74.21875 28.421875 74.21875 
Q 39.75 74.21875 46.484375 68.546875 
Q 53.21875 62.890625 53.21875 53.421875 
Q 53.21875 48.921875 51.53125 44.890625 
Q 49.859375 40.875 45.40625 35.40625 
Q 44.1875 33.984375 37.640625 27.21875 
Q 31.109375 20.453125 19.1875 8.296875 
" id="BitstreamVeraSans-Roman-32"/>
      </defs>
      <g style="fill:#555555;" transform="translate(47.503125 128.656517857)scale(0.1 -0.1)">
       <use xlink:href="#BitstreamVeraSans-Roman-32"/>
       <use x="63.623046875" xlink:href="#BitstreamVeraSans-Roman-30"/>
       <use x="127.24609375" xlink:href="#BitstreamVeraSans-Roman-30"/>
       <use x="190.869140625" xlink:href="#BitstreamVeraSans-Roman-30"/>
      </g>
     </g>
    </g>
    <g id="ytick_6">
     <g id="line2d_37">
      <path clip-path="url(#pd742985d6d)" d="M 80.953125 94.011429 
L 415.753125 94.011429 
" style="fill:none;stroke:#ffffff;stroke-linecap:square;stroke-width:0.5;"/>
     </g>
     <g id="line2d_38">
      <g>
       <use style="fill:#555555;stroke:#555555;stroke-width:0.5;" x="80.953125" xlink:href="#m997912d2d3" y="94.0114285714"/>
      </g>
     </g>
     <g id="line2d_39">
      <g>
       <use style="fill:#555555;stroke:#555555;stroke-width:0.5;" x="415.753125" xlink:href="#md51ca70b68" y="94.0114285714"/>
      </g>
     </g>
     <g id="text_13">
      <!-- 2500 -->
      <g style="fill:#555555;" transform="translate(47.503125 96.7708035714)scale(0.1 -0.1)">
       <use xlink:href="#BitstreamVeraSans-Roman-32"/>
       <use x="63.623046875" xlink:href="#BitstreamVeraSans-Roman-35"/>
       <use x="127.24609375" xlink:href="#BitstreamVeraSans-Roman-30"/>
       <use x="190.869140625" xlink:href="#BitstreamVeraSans-Roman-30"/>
      </g>
     </g>
    </g>
    <g id="ytick_7">
     <g id="line2d_40">
      <path clip-path="url(#pd742985d6d)" d="M 80.953125 62.125714 
L 415.753125 62.125714 
" style="fill:none;stroke:#ffffff;stroke-linecap:square;stroke-width:0.5;"/>
     </g>
     <g id="line2d_41">
      <g>
       <use style="fill:#555555;stroke:#555555;stroke-width:0.5;" x="80.953125" xlink:href="#m997912d2d3" y="62.1257142857"/>
      </g>
     </g>
     <g id="line2d_42">
      <g>
       <use style="fill:#555555;stroke:#555555;stroke-width:0.5;" x="415.753125" xlink:href="#md51ca70b68" y="62.1257142857"/>
      </g>
     </g>
     <g id="text_14">
      <!-- 3000 -->
      <defs>
       <path d="M 40.578125 39.3125 
Q 47.65625 37.796875 51.625 33 
Q 55.609375 28.21875 55.609375 21.1875 
Q 55.609375 10.40625 48.1875 4.484375 
Q 40.765625 -1.421875 27.09375 -1.421875 
Q 22.515625 -1.421875 17.65625 -0.515625 
Q 12.796875 0.390625 7.625 2.203125 
L 7.625 11.71875 
Q 11.71875 9.328125 16.59375 8.109375 
Q 21.484375 6.890625 26.8125 6.890625 
Q 36.078125 6.890625 40.9375 10.546875 
Q 45.796875 14.203125 45.796875 21.1875 
Q 45.796875 27.640625 41.28125 31.265625 
Q 36.765625 34.90625 28.71875 34.90625 
L 20.21875 34.90625 
L 20.21875 43.015625 
L 29.109375 43.015625 
Q 36.375 43.015625 40.234375 45.921875 
Q 44.09375 48.828125 44.09375 54.296875 
Q 44.09375 59.90625 40.109375 62.90625 
Q 36.140625 65.921875 28.71875 65.921875 
Q 24.65625 65.921875 20.015625 65.03125 
Q 15.375 64.15625 9.8125 62.3125 
L 9.8125 71.09375 
Q 15.4375 72.65625 20.34375 73.4375 
Q 25.25 74.21875 29.59375 74.21875 
Q 40.828125 74.21875 47.359375 69.109375 
Q 53.90625 64.015625 53.90625 55.328125 
Q 53.90625 49.265625 50.4375 45.09375 
Q 46.96875 40.921875 40.578125 39.3125 
" id="BitstreamVeraSans-Roman-33"/>
      </defs>
      <g style="fill:#555555;" transform="translate(47.503125 64.8850892857)scale(0.1 -0.1)">
       <use xlink:href="#BitstreamVeraSans-Roman-33"/>
       <use x="63.623046875" xlink:href="#BitstreamVeraSans-Roman-30"/>
       <use x="127.24609375" xlink:href="#BitstreamVeraSans-Roman-30"/>
       <use x="190.869140625" xlink:href="#BitstreamVeraSans-Roman-30"/>
      </g>
     </g>
    </g>
    <g id="ytick_8">
     <g id="line2d_43">
      <path clip-path="url(#pd742985d6d)" d="M 80.953125 30.24 
L 415.753125 30.24 
" style="fill:none;stroke:#ffffff;stroke-linecap:square;stroke-width:0.5;"/>
     </g>
     <g id="line2d_44">
      <g>
       <use style="fill:#555555;stroke:#555555;stroke-width:0.5;" x="80.953125" xlink:href="#m997912d2d3" y="30.24"/>
      </g>
     </g>
     <g id="line2d_45">
      <g>
       <use style="fill:#555555;stroke:#555555;stroke-width:0.5;" x="415.753125" xlink:href="#md51ca70b68" y="30.24"/>
      </g>
     </g>
     <g id="text_15">
      <!-- 3500 -->
      <g style="fill:#555555;" transform="translate(47.503125 32.999375)scale(0.1 -0.1)">
       <use xlink:href="#BitstreamVeraSans-Roman-33"/>
       <use x="63.623046875" xlink:href="#BitstreamVeraSans-Roman-35"/>
       <use x="127.24609375" xlink:href="#BitstreamVeraSans-Roman-30"/>
       <use x="190.869140625" xlink:href="#BitstreamVeraSans-Roman-30"/>
      </g>
     </g>
    </g>
   </g>
   <g id="patch_3">
    <path clip-path="url(#pd742985d6d)" d="M 106.063125 253.44 
L 139.543125 253.44 
L 139.543125 47.904686 
L 106.063125 47.904686 
z
" style="fill:#348abd;stroke:#eeeeee;stroke-linejoin:miter;stroke-width:0.5;"/>
   </g>
   <g id="patch_4">
    <path clip-path="url(#pd742985d6d)" d="M 147.913125 253.44 
L 181.393125 253.44 
L 181.393125 157.591543 
L 147.913125 157.591543 
z
" style="fill:#348abd;stroke:#eeeeee;stroke-linejoin:miter;stroke-width:0.5;"/>
   </g>
   <g id="patch_5">
    <path clip-path="url(#pd742985d6d)" d="M 189.763125 253.44 
L 223.243125 253.44 
L 223.243125 235.265143 
L 189.763125 235.265143 
z
" style="fill:#348abd;stroke:#eeeeee;stroke-linejoin:miter;stroke-width:0.5;"/>
   </g>
   <g id="patch_6">
    <path clip-path="url(#pd742985d6d)" d="M 231.613125 253.44 
L 265.093125 253.44 
L 265.093125 208.034743 
L 231.613125 208.034743 
z
" style="fill:#348abd;stroke:#eeeeee;stroke-linejoin:miter;stroke-width:0.5;"/>
   </g>
   <g id="patch_7">
    <path clip-path="url(#pd742985d6d)" d="M 273.463125 253.44 
L 306.943125 253.44 
L 306.943125 147.388114 
L 273.463125 147.388114 
z
" style="fill:#348abd;stroke:#eeeeee;stroke-linejoin:miter;stroke-width:0.5;"/>
   </g>
   <g id="patch_8">
    <path clip-path="url(#pd742985d6d)" d="M 315.313125 253.44 
L 348.793125 253.44 
L 348.793125 222.000686 
L 315.313125 222.000686 
z
" style="fill:#348abd;stroke:#eeeeee;stroke-linejoin:miter;stroke-width:0.5;"/>
   </g>
   <g id="patch_9">
    <path clip-path="url(#pd742985d6d)" d="M 357.163125 253.44 
L 390.643125 253.44 
L 390.643125 159.696 
L 357.163125 159.696 
z
" style="fill:#348abd;stroke:#eeeeee;stroke-linejoin:miter;stroke-width:0.5;"/>
   </g>
   <g id="patch_10">
    <path d="M 80.953125 30.24 
L 415.753125 30.24 
" style="fill:none;stroke:#ffffff;stroke-linecap:square;stroke-linejoin:miter;"/>
   </g>
   <g id="patch_11">
    <path d="M 415.753125 253.44 
L 415.753125 30.24 
" style="fill:none;stroke:#ffffff;stroke-linecap:square;stroke-linejoin:miter;"/>
   </g>
   <g id="patch_12">
    <path d="M 80.953125 253.44 
L 415.753125 253.44 
" style="fill:none;stroke:#ffffff;stroke-linecap:square;stroke-linejoin:miter;"/>
   </g>
   <g id="patch_13">
    <path d="M 80.953125 253.44 
L 80.953125 30.24 
" style="fill:none;stroke:#ffffff;stroke-linecap:square;stroke-linejoin:miter;"/>
   </g>
  </g>
  <g id="text_16">
   <!-- ['dark', 'caribbean', 'souls', 'cycling', 'comical', 'moody', 'revival', 'colonial', 'haunting', 'toned'] -->
   <defs>
    <path id="BitstreamVeraSans-Roman-20"/>
    <path d="M 8.59375 75.984375 
L 29.296875 75.984375 
L 29.296875 69 
L 17.578125 69 
L 17.578125 -6.203125 
L 29.296875 -6.203125 
L 29.296875 -13.1875 
L 8.59375 -13.1875 
z
" id="BitstreamVeraSans-Roman-5b"/>
    <path d="M 30.421875 75.984375 
L 30.421875 -13.1875 
L 9.71875 -13.1875 
L 9.71875 -6.203125 
L 21.390625 -6.203125 
L 21.390625 69 
L 9.71875 69 
L 9.71875 75.984375 
z
" id="BitstreamVeraSans-Roman-5d"/>
    <path d="M 17.921875 72.90625 
L 17.921875 45.796875 
L 9.625 45.796875 
L 9.625 72.90625 
z
" id="BitstreamVeraSans-Roman-27"/>
    <path d="M 9.078125 75.984375 
L 18.109375 75.984375 
L 18.109375 31.109375 
L 44.921875 54.6875 
L 56.390625 54.6875 
L 27.390625 29.109375 
L 57.625 0 
L 45.90625 0 
L 18.109375 26.703125 
L 18.109375 0 
L 9.078125 0 
z
" id="BitstreamVeraSans-Roman-6b"/>
    <path d="M 11.71875 12.40625 
L 22.015625 12.40625 
L 22.015625 4 
L 14.015625 -11.625 
L 7.71875 -11.625 
L 11.71875 4 
z
" id="BitstreamVeraSans-Roman-2c"/>
    <path d="M 45.40625 46.390625 
L 45.40625 75.984375 
L 54.390625 75.984375 
L 54.390625 0 
L 45.40625 0 
L 45.40625 8.203125 
Q 42.578125 3.328125 38.25 0.953125 
Q 33.9375 -1.421875 27.875 -1.421875 
Q 17.96875 -1.421875 11.734375 6.484375 
Q 5.515625 14.40625 5.515625 27.296875 
Q 5.515625 40.1875 11.734375 48.09375 
Q 17.96875 56 27.875 56 
Q 33.9375 56 38.25 53.625 
Q 42.578125 51.265625 45.40625 46.390625 
M 14.796875 27.296875 
Q 14.796875 17.390625 18.875 11.75 
Q 22.953125 6.109375 30.078125 6.109375 
Q 37.203125 6.109375 41.296875 11.75 
Q 45.40625 17.390625 45.40625 27.296875 
Q 45.40625 37.203125 41.296875 42.84375 
Q 37.203125 48.484375 30.078125 48.484375 
Q 22.953125 48.484375 18.875 42.84375 
Q 14.796875 37.203125 14.796875 27.296875 
" id="BitstreamVeraSans-Roman-64"/>
    <path d="M 48.78125 52.59375 
L 48.78125 44.1875 
Q 44.96875 46.296875 41.140625 47.34375 
Q 37.3125 48.390625 33.40625 48.390625 
Q 24.65625 48.390625 19.8125 42.84375 
Q 14.984375 37.3125 14.984375 27.296875 
Q 14.984375 17.28125 19.8125 11.734375 
Q 24.65625 6.203125 33.40625 6.203125 
Q 37.3125 6.203125 41.140625 7.25 
Q 44.96875 8.296875 48.78125 10.40625 
L 48.78125 2.09375 
Q 45.015625 0.34375 40.984375 -0.53125 
Q 36.96875 -1.421875 32.421875 -1.421875 
Q 20.0625 -1.421875 12.78125 6.34375 
Q 5.515625 14.109375 5.515625 27.296875 
Q 5.515625 40.671875 12.859375 48.328125 
Q 20.21875 56 33.015625 56 
Q 37.15625 56 41.109375 55.140625 
Q 45.0625 54.296875 48.78125 52.59375 
" id="BitstreamVeraSans-Roman-63"/>
    <path d="M 48.6875 27.296875 
Q 48.6875 37.203125 44.609375 42.84375 
Q 40.53125 48.484375 33.40625 48.484375 
Q 26.265625 48.484375 22.1875 42.84375 
Q 18.109375 37.203125 18.109375 27.296875 
Q 18.109375 17.390625 22.1875 11.75 
Q 26.265625 6.109375 33.40625 6.109375 
Q 40.53125 6.109375 44.609375 11.75 
Q 48.6875 17.390625 48.6875 27.296875 
M 18.109375 46.390625 
Q 20.953125 51.265625 25.265625 53.625 
Q 29.59375 56 35.59375 56 
Q 45.5625 56 51.78125 48.09375 
Q 58.015625 40.1875 58.015625 27.296875 
Q 58.015625 14.40625 51.78125 6.484375 
Q 45.5625 -1.421875 35.59375 -1.421875 
Q 29.59375 -1.421875 25.265625 0.953125 
Q 20.953125 3.328125 18.109375 8.203125 
L 18.109375 0 
L 9.078125 0 
L 9.078125 75.984375 
L 18.109375 75.984375 
z
" id="BitstreamVeraSans-Roman-62"/>
   </defs>
   <g transform="translate(7.2 14.7984375)scale(0.1 -0.1)">
    <use xlink:href="#BitstreamVeraSans-Roman-5b"/>
    <use x="39.013671875" xlink:href="#BitstreamVeraSans-Roman-27"/>
    <use x="66.50390625" xlink:href="#BitstreamVeraSans-Roman-64"/>
    <use x="129.98046875" xlink:href="#BitstreamVeraSans-Roman-61"/>
    <use x="191.259765625" xlink:href="#BitstreamVeraSans-Roman-72"/>
    <use x="232.373046875" xlink:href="#BitstreamVeraSans-Roman-6b"/>
    <use x="290.283203125" xlink:href="#BitstreamVeraSans-Roman-27"/>
    <use x="317.7734375" xlink:href="#BitstreamVeraSans-Roman-2c"/>
    <use x="349.560546875" xlink:href="#BitstreamVeraSans-Roman-20"/>
    <use x="381.34765625" xlink:href="#BitstreamVeraSans-Roman-27"/>
    <use x="408.837890625" xlink:href="#BitstreamVeraSans-Roman-63"/>
    <use x="463.818359375" xlink:href="#BitstreamVeraSans-Roman-61"/>
    <use x="525.09765625" xlink:href="#BitstreamVeraSans-Roman-72"/>
    <use x="566.2109375" xlink:href="#BitstreamVeraSans-Roman-69"/>
    <use x="593.994140625" xlink:href="#BitstreamVeraSans-Roman-62"/>
    <use x="657.470703125" xlink:href="#BitstreamVeraSans-Roman-62"/>
    <use x="720.947265625" xlink:href="#BitstreamVeraSans-Roman-65"/>
    <use x="782.470703125" xlink:href="#BitstreamVeraSans-Roman-61"/>
    <use x="843.75" xlink:href="#BitstreamVeraSans-Roman-6e"/>
    <use x="907.12890625" xlink:href="#BitstreamVeraSans-Roman-27"/>
    <use x="934.619140625" xlink:href="#BitstreamVeraSans-Roman-2c"/>
    <use x="966.40625" xlink:href="#BitstreamVeraSans-Roman-20"/>
    <use x="998.193359375" xlink:href="#BitstreamVeraSans-Roman-27"/>
    <use x="1025.68359375" xlink:href="#BitstreamVeraSans-Roman-73"/>
    <use x="1077.78320312" xlink:href="#BitstreamVeraSans-Roman-6f"/>
    <use x="1138.96484375" xlink:href="#BitstreamVeraSans-Roman-75"/>
    <use x="1202.34375" xlink:href="#BitstreamVeraSans-Roman-6c"/>
    <use x="1230.12695312" xlink:href="#BitstreamVeraSans-Roman-73"/>
    <use x="1282.2265625" xlink:href="#BitstreamVeraSans-Roman-27"/>
    <use x="1309.71679688" xlink:href="#BitstreamVeraSans-Roman-2c"/>
    <use x="1341.50390625" xlink:href="#BitstreamVeraSans-Roman-20"/>
    <use x="1373.29101562" xlink:href="#BitstreamVeraSans-Roman-27"/>
    <use x="1400.78125" xlink:href="#BitstreamVeraSans-Roman-63"/>
    <use x="1455.76171875" xlink:href="#BitstreamVeraSans-Roman-79"/>
    <use x="1514.94140625" xlink:href="#BitstreamVeraSans-Roman-63"/>
    <use x="1569.921875" xlink:href="#BitstreamVeraSans-Roman-6c"/>
    <use x="1597.70507812" xlink:href="#BitstreamVeraSans-Roman-69"/>
    <use x="1625.48828125" xlink:href="#BitstreamVeraSans-Roman-6e"/>
    <use x="1688.8671875" xlink:href="#BitstreamVeraSans-Roman-67"/>
    <use x="1752.34375" xlink:href="#BitstreamVeraSans-Roman-27"/>
    <use x="1779.83398438" xlink:href="#BitstreamVeraSans-Roman-2c"/>
    <use x="1811.62109375" xlink:href="#BitstreamVeraSans-Roman-20"/>
    <use x="1843.40820312" xlink:href="#BitstreamVeraSans-Roman-27"/>
    <use x="1870.8984375" xlink:href="#BitstreamVeraSans-Roman-63"/>
    <use x="1925.87890625" xlink:href="#BitstreamVeraSans-Roman-6f"/>
    <use x="1987.06054688" xlink:href="#BitstreamVeraSans-Roman-6d"/>
    <use x="2084.47265625" xlink:href="#BitstreamVeraSans-Roman-69"/>
    <use x="2112.25585938" xlink:href="#BitstreamVeraSans-Roman-63"/>
    <use x="2167.23632812" xlink:href="#BitstreamVeraSans-Roman-61"/>
    <use x="2228.515625" xlink:href="#BitstreamVeraSans-Roman-6c"/>
    <use x="2256.29882812" xlink:href="#BitstreamVeraSans-Roman-27"/>
    <use x="2283.7890625" xlink:href="#BitstreamVeraSans-Roman-2c"/>
    <use x="2315.57617188" xlink:href="#BitstreamVeraSans-Roman-20"/>
    <use x="2347.36328125" xlink:href="#BitstreamVeraSans-Roman-27"/>
    <use x="2374.85351562" xlink:href="#BitstreamVeraSans-Roman-6d"/>
    <use x="2472.265625" xlink:href="#BitstreamVeraSans-Roman-6f"/>
    <use x="2533.44726562" xlink:href="#BitstreamVeraSans-Roman-6f"/>
    <use x="2594.62890625" xlink:href="#BitstreamVeraSans-Roman-64"/>
    <use x="2658.10546875" xlink:href="#BitstreamVeraSans-Roman-79"/>
    <use x="2717.28515625" xlink:href="#BitstreamVeraSans-Roman-27"/>
    <use x="2744.77539062" xlink:href="#BitstreamVeraSans-Roman-2c"/>
    <use x="2776.5625" xlink:href="#BitstreamVeraSans-Roman-20"/>
    <use x="2808.34960938" xlink:href="#BitstreamVeraSans-Roman-27"/>
    <use x="2835.83984375" xlink:href="#BitstreamVeraSans-Roman-72"/>
    <use x="2876.921875" xlink:href="#BitstreamVeraSans-Roman-65"/>
    <use x="2938.4453125" xlink:href="#BitstreamVeraSans-Roman-76"/>
    <use x="2997.625" xlink:href="#BitstreamVeraSans-Roman-69"/>
    <use x="3025.40820312" xlink:href="#BitstreamVeraSans-Roman-76"/>
    <use x="3084.58789062" xlink:href="#BitstreamVeraSans-Roman-61"/>
    <use x="3145.8671875" xlink:href="#BitstreamVeraSans-Roman-6c"/>
    <use x="3173.65039062" xlink:href="#BitstreamVeraSans-Roman-27"/>
    <use x="3201.140625" xlink:href="#BitstreamVeraSans-Roman-2c"/>
    <use x="3232.92773438" xlink:href="#BitstreamVeraSans-Roman-20"/>
    <use x="3264.71484375" xlink:href="#BitstreamVeraSans-Roman-27"/>
    <use x="3292.20507812" xlink:href="#BitstreamVeraSans-Roman-63"/>
    <use x="3347.18554688" xlink:href="#BitstreamVeraSans-Roman-6f"/>
    <use x="3408.3671875" xlink:href="#BitstreamVeraSans-Roman-6c"/>
    <use x="3436.15039062" xlink:href="#BitstreamVeraSans-Roman-6f"/>
    <use x="3497.33203125" xlink:href="#BitstreamVeraSans-Roman-6e"/>
    <use x="3560.7109375" xlink:href="#BitstreamVeraSans-Roman-69"/>
    <use x="3588.49414062" xlink:href="#BitstreamVeraSans-Roman-61"/>
    <use x="3649.7734375" xlink:href="#BitstreamVeraSans-Roman-6c"/>
    <use x="3677.55664062" xlink:href="#BitstreamVeraSans-Roman-27"/>
    <use x="3705.046875" xlink:href="#BitstreamVeraSans-Roman-2c"/>
    <use x="3736.83398438" xlink:href="#BitstreamVeraSans-Roman-20"/>
    <use x="3768.62109375" xlink:href="#BitstreamVeraSans-Roman-27"/>
    <use x="3796.11132812" xlink:href="#BitstreamVeraSans-Roman-68"/>
    <use x="3859.49023438" xlink:href="#BitstreamVeraSans-Roman-61"/>
    <use x="3920.76953125" xlink:href="#BitstreamVeraSans-Roman-75"/>
    <use x="3984.1484375" xlink:href="#BitstreamVeraSans-Roman-6e"/>
    <use x="4047.52734375" xlink:href="#BitstreamVeraSans-Roman-74"/>
    <use x="4086.73632812" xlink:href="#BitstreamVeraSans-Roman-69"/>
    <use x="4114.51953125" xlink:href="#BitstreamVeraSans-Roman-6e"/>
    <use x="4177.8984375" xlink:href="#BitstreamVeraSans-Roman-67"/>
    <use x="4241.375" xlink:href="#BitstreamVeraSans-Roman-27"/>
    <use x="4268.86523438" xlink:href="#BitstreamVeraSans-Roman-2c"/>
    <use x="4300.65234375" xlink:href="#BitstreamVeraSans-Roman-20"/>
    <use x="4332.43945312" xlink:href="#BitstreamVeraSans-Roman-27"/>
    <use x="4359.9296875" xlink:href="#BitstreamVeraSans-Roman-74"/>
    <use x="4399.13867188" xlink:href="#BitstreamVeraSans-Roman-6f"/>
    <use x="4460.3203125" xlink:href="#BitstreamVeraSans-Roman-6e"/>
    <use x="4523.69921875" xlink:href="#BitstreamVeraSans-Roman-65"/>
    <use x="4585.22265625" xlink:href="#BitstreamVeraSans-Roman-64"/>
    <use x="4648.69921875" xlink:href="#BitstreamVeraSans-Roman-27"/>
    <use x="4676.18945312" xlink:href="#BitstreamVeraSans-Roman-5d"/>
   </g>
  </g>
 </g>
 <defs>
  <clipPath id="pd742985d6d">
   <rect height="223.2" width="334.8" x="80.953125" y="30.24"/>
  </clipPath>
 </defs>
</svg>
