<?xml version="1.0" encoding="utf-8" standalone="no"?>
<!DOCTYPE svg PUBLIC "-//W3C//DTD SVG 1.1//EN"
  "http://www.w3.org/Graphics/SVG/1.1/DTD/svg11.dtd">
<!-- Created with matplotlib (http://matplotlib.org/) -->
<svg height="276pt" version="1.1" viewBox="0 0 374 276" width="374pt" xmlns="http://www.w3.org/2000/svg" xmlns:xlink="http://www.w3.org/1999/xlink">
 <defs>
  <style type="text/css">
*{stroke-linecap:butt;stroke-linejoin:round;stroke-miterlimit:100000;}
  </style>
 </defs>
 <g id="figure_1">
  <g id="patch_1">
   <path d="M 0 276.730937 
L 374.481021 276.730937 
L 374.481021 0 
L 0 0 
L 0 276.730937 
z
" style="fill:none;"/>
  </g>
  <g id="axes_1">
   <g id="patch_2">
    <path d="M 31.103125 235.239062 
L 365.903125 235.239062 
L 365.903125 12.039062 
L 31.103125 12.039062 
z
" style="fill:#e5e5e5;"/>
   </g>
   <g id="matplotlib.axis_1">
    <g id="xtick_1">
     <g id="line2d_1">
      <path clip-path="url(#p151633081b)" d="M 31.103125 235.239062 
L 31.103125 12.039062 
" style="fill:none;stroke:#ffffff;stroke-linecap:square;stroke-width:0.5;"/>
     </g>
     <g id="line2d_2">
      <defs>
       <path d="M 0 0 
L 0 4 
" id="md553c69bfe" style="stroke:#555555;stroke-width:0.5;"/>
      </defs>
      <g>
       <use style="fill:#555555;stroke:#555555;stroke-width:0.5;" x="31.103125" xlink:href="#md553c69bfe" y="235.2390625"/>
      </g>
     </g>
     <g id="line2d_3">
      <defs>
       <path d="M 0 0 
L 0 -4 
" id="m026d5710ed" style="stroke:#555555;stroke-width:0.5;"/>
      </defs>
      <g>
       <use style="fill:#555555;stroke:#555555;stroke-width:0.5;" x="31.103125" xlink:href="#m026d5710ed" y="12.0390625"/>
      </g>
     </g>
     <g id="text_1">
      <!-- 0 -->
      <defs>
       <path d="M 31.78125 66.40625 
Q 24.171875 66.40625 20.328125 58.90625 
Q 16.5 51.421875 16.5 36.375 
Q 16.5 21.390625 20.328125 13.890625 
Q 24.171875 6.390625 31.78125 6.390625 
Q 39.453125 6.390625 43.28125 13.890625 
Q 47.125 21.390625 47.125 36.375 
Q 47.125 51.421875 43.28125 58.90625 
Q 39.453125 66.40625 31.78125 66.40625 
M 31.78125 74.21875 
Q 44.046875 74.21875 50.515625 64.515625 
Q 56.984375 54.828125 56.984375 36.375 
Q 56.984375 17.96875 50.515625 8.265625 
Q 44.046875 -1.421875 31.78125 -1.421875 
Q 19.53125 -1.421875 13.0625 8.265625 
Q 6.59375 17.96875 6.59375 36.375 
Q 6.59375 54.828125 13.0625 64.515625 
Q 19.53125 74.21875 31.78125 74.21875 
" id="BitstreamVeraSans-Roman-30"/>
      </defs>
      <g style="fill:#555555;" transform="translate(27.921875 250.8375)scale(0.1 -0.1)">
       <use xlink:href="#BitstreamVeraSans-Roman-30"/>
      </g>
     </g>
    </g>
    <g id="xtick_2">
     <g id="line2d_4">
      <path clip-path="url(#p151633081b)" d="M 71.932393 235.239062 
L 71.932393 12.039062 
" style="fill:none;stroke:#ffffff;stroke-linecap:square;stroke-width:0.5;"/>
     </g>
     <g id="line2d_5">
      <g>
       <use style="fill:#555555;stroke:#555555;stroke-width:0.5;" x="71.9323932927" xlink:href="#md553c69bfe" y="235.2390625"/>
      </g>
     </g>
     <g id="line2d_6">
      <g>
       <use style="fill:#555555;stroke:#555555;stroke-width:0.5;" x="71.9323932927" xlink:href="#m026d5710ed" y="12.0390625"/>
      </g>
     </g>
     <g id="text_2">
      <!-- 50 -->
      <defs>
       <path d="M 10.796875 72.90625 
L 49.515625 72.90625 
L 49.515625 64.59375 
L 19.828125 64.59375 
L 19.828125 46.734375 
Q 21.96875 47.46875 24.109375 47.828125 
Q 26.265625 48.1875 28.421875 48.1875 
Q 40.625 48.1875 47.75 41.5 
Q 54.890625 34.8125 54.890625 23.390625 
Q 54.890625 11.625 47.5625 5.09375 
Q 40.234375 -1.421875 26.90625 -1.421875 
Q 22.3125 -1.421875 17.546875 -0.640625 
Q 12.796875 0.140625 7.71875 1.703125 
L 7.71875 11.625 
Q 12.109375 9.234375 16.796875 8.0625 
Q 21.484375 6.890625 26.703125 6.890625 
Q 35.15625 6.890625 40.078125 11.328125 
Q 45.015625 15.765625 45.015625 23.390625 
Q 45.015625 31 40.078125 35.4375 
Q 35.15625 39.890625 26.703125 39.890625 
Q 22.75 39.890625 18.8125 39.015625 
Q 14.890625 38.140625 10.796875 36.28125 
z
" id="BitstreamVeraSans-Roman-35"/>
      </defs>
      <g style="fill:#555555;" transform="translate(65.5698932927 250.8375)scale(0.1 -0.1)">
       <use xlink:href="#BitstreamVeraSans-Roman-35"/>
       <use x="63.623046875" xlink:href="#BitstreamVeraSans-Roman-30"/>
      </g>
     </g>
    </g>
    <g id="xtick_3">
     <g id="line2d_7">
      <path clip-path="url(#p151633081b)" d="M 112.761662 235.239062 
L 112.761662 12.039062 
" style="fill:none;stroke:#ffffff;stroke-linecap:square;stroke-width:0.5;"/>
     </g>
     <g id="line2d_8">
      <g>
       <use style="fill:#555555;stroke:#555555;stroke-width:0.5;" x="112.761661585" xlink:href="#md553c69bfe" y="235.2390625"/>
      </g>
     </g>
     <g id="line2d_9">
      <g>
       <use style="fill:#555555;stroke:#555555;stroke-width:0.5;" x="112.761661585" xlink:href="#m026d5710ed" y="12.0390625"/>
      </g>
     </g>
     <g id="text_3">
      <!-- 100 -->
      <defs>
       <path d="M 12.40625 8.296875 
L 28.515625 8.296875 
L 28.515625 63.921875 
L 10.984375 60.40625 
L 10.984375 69.390625 
L 28.421875 72.90625 
L 38.28125 72.90625 
L 38.28125 8.296875 
L 54.390625 8.296875 
L 54.390625 0 
L 12.40625 0 
z
" id="BitstreamVeraSans-Roman-31"/>
      </defs>
      <g style="fill:#555555;" transform="translate(103.217911585 250.8375)scale(0.1 -0.1)">
       <use xlink:href="#BitstreamVeraSans-Roman-31"/>
       <use x="63.623046875" xlink:href="#BitstreamVeraSans-Roman-30"/>
       <use x="127.24609375" xlink:href="#BitstreamVeraSans-Roman-30"/>
      </g>
     </g>
    </g>
    <g id="xtick_4">
     <g id="line2d_10">
      <path clip-path="url(#p151633081b)" d="M 153.59093 235.239062 
L 153.59093 12.039062 
" style="fill:none;stroke:#ffffff;stroke-linecap:square;stroke-width:0.5;"/>
     </g>
     <g id="line2d_11">
      <g>
       <use style="fill:#555555;stroke:#555555;stroke-width:0.5;" x="153.590929878" xlink:href="#md553c69bfe" y="235.2390625"/>
      </g>
     </g>
     <g id="line2d_12">
      <g>
       <use style="fill:#555555;stroke:#555555;stroke-width:0.5;" x="153.590929878" xlink:href="#m026d5710ed" y="12.0390625"/>
      </g>
     </g>
     <g id="text_4">
      <!-- 150 -->
      <g style="fill:#555555;" transform="translate(144.047179878 250.8375)scale(0.1 -0.1)">
       <use xlink:href="#BitstreamVeraSans-Roman-31"/>
       <use x="63.623046875" xlink:href="#BitstreamVeraSans-Roman-35"/>
       <use x="127.24609375" xlink:href="#BitstreamVeraSans-Roman-30"/>
      </g>
     </g>
    </g>
    <g id="xtick_5">
     <g id="line2d_13">
      <path clip-path="url(#p151633081b)" d="M 194.420198 235.239062 
L 194.420198 12.039062 
" style="fill:none;stroke:#ffffff;stroke-linecap:square;stroke-width:0.5;"/>
     </g>
     <g id="line2d_14">
      <g>
       <use style="fill:#555555;stroke:#555555;stroke-width:0.5;" x="194.420198171" xlink:href="#md553c69bfe" y="235.2390625"/>
      </g>
     </g>
     <g id="line2d_15">
      <g>
       <use style="fill:#555555;stroke:#555555;stroke-width:0.5;" x="194.420198171" xlink:href="#m026d5710ed" y="12.0390625"/>
      </g>
     </g>
     <g id="text_5">
      <!-- 200 -->
      <defs>
       <path d="M 19.1875 8.296875 
L 53.609375 8.296875 
L 53.609375 0 
L 7.328125 0 
L 7.328125 8.296875 
Q 12.9375 14.109375 22.625 23.890625 
Q 32.328125 33.6875 34.8125 36.53125 
Q 39.546875 41.84375 41.421875 45.53125 
Q 43.3125 49.21875 43.3125 52.78125 
Q 43.3125 58.59375 39.234375 62.25 
Q 35.15625 65.921875 28.609375 65.921875 
Q 23.96875 65.921875 18.8125 64.3125 
Q 13.671875 62.703125 7.8125 59.421875 
L 7.8125 69.390625 
Q 13.765625 71.78125 18.9375 73 
Q 24.125 74.21875 28.421875 74.21875 
Q 39.75 74.21875 46.484375 68.546875 
Q 53.21875 62.890625 53.21875 53.421875 
Q 53.21875 48.921875 51.53125 44.890625 
Q 49.859375 40.875 45.40625 35.40625 
Q 44.1875 33.984375 37.640625 27.21875 
Q 31.109375 20.453125 19.1875 8.296875 
" id="BitstreamVeraSans-Roman-32"/>
      </defs>
      <g style="fill:#555555;" transform="translate(184.876448171 250.8375)scale(0.1 -0.1)">
       <use xlink:href="#BitstreamVeraSans-Roman-32"/>
       <use x="63.623046875" xlink:href="#BitstreamVeraSans-Roman-30"/>
       <use x="127.24609375" xlink:href="#BitstreamVeraSans-Roman-30"/>
      </g>
     </g>
    </g>
    <g id="xtick_6">
     <g id="line2d_16">
      <path clip-path="url(#p151633081b)" d="M 235.249466 235.239062 
L 235.249466 12.039062 
" style="fill:none;stroke:#ffffff;stroke-linecap:square;stroke-width:0.5;"/>
     </g>
     <g id="line2d_17">
      <g>
       <use style="fill:#555555;stroke:#555555;stroke-width:0.5;" x="235.249466463" xlink:href="#md553c69bfe" y="235.2390625"/>
      </g>
     </g>
     <g id="line2d_18">
      <g>
       <use style="fill:#555555;stroke:#555555;stroke-width:0.5;" x="235.249466463" xlink:href="#m026d5710ed" y="12.0390625"/>
      </g>
     </g>
     <g id="text_6">
      <!-- 250 -->
      <g style="fill:#555555;" transform="translate(225.705716463 250.8375)scale(0.1 -0.1)">
       <use xlink:href="#BitstreamVeraSans-Roman-32"/>
       <use x="63.623046875" xlink:href="#BitstreamVeraSans-Roman-35"/>
       <use x="127.24609375" xlink:href="#BitstreamVeraSans-Roman-30"/>
      </g>
     </g>
    </g>
    <g id="xtick_7">
     <g id="line2d_19">
      <path clip-path="url(#p151633081b)" d="M 276.078735 235.239062 
L 276.078735 12.039062 
" style="fill:none;stroke:#ffffff;stroke-linecap:square;stroke-width:0.5;"/>
     </g>
     <g id="line2d_20">
      <g>
       <use style="fill:#555555;stroke:#555555;stroke-width:0.5;" x="276.078734756" xlink:href="#md553c69bfe" y="235.2390625"/>
      </g>
     </g>
     <g id="line2d_21">
      <g>
       <use style="fill:#555555;stroke:#555555;stroke-width:0.5;" x="276.078734756" xlink:href="#m026d5710ed" y="12.0390625"/>
      </g>
     </g>
     <g id="text_7">
      <!-- 300 -->
      <defs>
       <path d="M 40.578125 39.3125 
Q 47.65625 37.796875 51.625 33 
Q 55.609375 28.21875 55.609375 21.1875 
Q 55.609375 10.40625 48.1875 4.484375 
Q 40.765625 -1.421875 27.09375 -1.421875 
Q 22.515625 -1.421875 17.65625 -0.515625 
Q 12.796875 0.390625 7.625 2.203125 
L 7.625 11.71875 
Q 11.71875 9.328125 16.59375 8.109375 
Q 21.484375 6.890625 26.8125 6.890625 
Q 36.078125 6.890625 40.9375 10.546875 
Q 45.796875 14.203125 45.796875 21.1875 
Q 45.796875 27.640625 41.28125 31.265625 
Q 36.765625 34.90625 28.71875 34.90625 
L 20.21875 34.90625 
L 20.21875 43.015625 
L 29.109375 43.015625 
Q 36.375 43.015625 40.234375 45.921875 
Q 44.09375 48.828125 44.09375 54.296875 
Q 44.09375 59.90625 40.109375 62.90625 
Q 36.140625 65.921875 28.71875 65.921875 
Q 24.65625 65.921875 20.015625 65.03125 
Q 15.375 64.15625 9.8125 62.3125 
L 9.8125 71.09375 
Q 15.4375 72.65625 20.34375 73.4375 
Q 25.25 74.21875 29.59375 74.21875 
Q 40.828125 74.21875 47.359375 69.109375 
Q 53.90625 64.015625 53.90625 55.328125 
Q 53.90625 49.265625 50.4375 45.09375 
Q 46.96875 40.921875 40.578125 39.3125 
" id="BitstreamVeraSans-Roman-33"/>
      </defs>
      <g style="fill:#555555;" transform="translate(266.534984756 250.8375)scale(0.1 -0.1)">
       <use xlink:href="#BitstreamVeraSans-Roman-33"/>
       <use x="63.623046875" xlink:href="#BitstreamVeraSans-Roman-30"/>
       <use x="127.24609375" xlink:href="#BitstreamVeraSans-Roman-30"/>
      </g>
     </g>
    </g>
    <g id="xtick_8">
     <g id="line2d_22">
      <path clip-path="url(#p151633081b)" d="M 316.908003 235.239062 
L 316.908003 12.039062 
" style="fill:none;stroke:#ffffff;stroke-linecap:square;stroke-width:0.5;"/>
     </g>
     <g id="line2d_23">
      <g>
       <use style="fill:#555555;stroke:#555555;stroke-width:0.5;" x="316.908003049" xlink:href="#md553c69bfe" y="235.2390625"/>
      </g>
     </g>
     <g id="line2d_24">
      <g>
       <use style="fill:#555555;stroke:#555555;stroke-width:0.5;" x="316.908003049" xlink:href="#m026d5710ed" y="12.0390625"/>
      </g>
     </g>
     <g id="text_8">
      <!-- 350 -->
      <g style="fill:#555555;" transform="translate(307.364253049 250.8375)scale(0.1 -0.1)">
       <use xlink:href="#BitstreamVeraSans-Roman-33"/>
       <use x="63.623046875" xlink:href="#BitstreamVeraSans-Roman-35"/>
       <use x="127.24609375" xlink:href="#BitstreamVeraSans-Roman-30"/>
      </g>
     </g>
    </g>
    <g id="xtick_9">
     <g id="line2d_25">
      <path clip-path="url(#p151633081b)" d="M 357.737271 235.239062 
L 357.737271 12.039062 
" style="fill:none;stroke:#ffffff;stroke-linecap:square;stroke-width:0.5;"/>
     </g>
     <g id="line2d_26">
      <g>
       <use style="fill:#555555;stroke:#555555;stroke-width:0.5;" x="357.737271341" xlink:href="#md553c69bfe" y="235.2390625"/>
      </g>
     </g>
     <g id="line2d_27">
      <g>
       <use style="fill:#555555;stroke:#555555;stroke-width:0.5;" x="357.737271341" xlink:href="#m026d5710ed" y="12.0390625"/>
      </g>
     </g>
     <g id="text_9">
      <!-- 400 -->
      <defs>
       <path d="M 37.796875 64.3125 
L 12.890625 25.390625 
L 37.796875 25.390625 
z
M 35.203125 72.90625 
L 47.609375 72.90625 
L 47.609375 25.390625 
L 58.015625 25.390625 
L 58.015625 17.1875 
L 47.609375 17.1875 
L 47.609375 0 
L 37.796875 0 
L 37.796875 17.1875 
L 4.890625 17.1875 
L 4.890625 26.703125 
z
" id="BitstreamVeraSans-Roman-34"/>
      </defs>
      <g style="fill:#555555;" transform="translate(348.193521341 250.8375)scale(0.1 -0.1)">
       <use xlink:href="#BitstreamVeraSans-Roman-34"/>
       <use x="63.623046875" xlink:href="#BitstreamVeraSans-Roman-30"/>
       <use x="127.24609375" xlink:href="#BitstreamVeraSans-Roman-30"/>
      </g>
     </g>
    </g>
    <g id="text_10">
     <!-- x -->
     <defs>
      <path d="M 54.890625 54.6875 
L 35.109375 28.078125 
L 55.90625 0 
L 45.3125 0 
L 29.390625 21.484375 
L 13.484375 0 
L 2.875 0 
L 24.125 28.609375 
L 4.6875 54.6875 
L 15.28125 54.6875 
L 29.78125 35.203125 
L 44.28125 54.6875 
z
" id="BitstreamVeraSans-Roman-78"/>
     </defs>
     <g style="fill:#555555;" transform="translate(194.951875 267.0353125)scale(0.12 -0.12)">
      <use xlink:href="#BitstreamVeraSans-Roman-78"/>
     </g>
    </g>
   </g>
   <g id="matplotlib.axis_2">
    <g id="ytick_1">
     <g id="line2d_28">
      <path clip-path="url(#p151633081b)" d="M 31.103125 235.239062 
L 365.903125 235.239062 
" style="fill:none;stroke:#ffffff;stroke-linecap:square;stroke-width:0.5;"/>
     </g>
     <g id="line2d_29">
      <defs>
       <path d="M 0 0 
L -4 0 
" id="m84ce954ae4" style="stroke:#555555;stroke-width:0.5;"/>
      </defs>
      <g>
       <use style="fill:#555555;stroke:#555555;stroke-width:0.5;" x="31.103125" xlink:href="#m84ce954ae4" y="235.2390625"/>
      </g>
     </g>
     <g id="line2d_30">
      <defs>
       <path d="M 0 0 
L 4 0 
" id="m39b2e62020" style="stroke:#555555;stroke-width:0.5;"/>
      </defs>
      <g>
       <use style="fill:#555555;stroke:#555555;stroke-width:0.5;" x="365.903125" xlink:href="#m39b2e62020" y="235.2390625"/>
      </g>
     </g>
     <g id="text_11">
      <!-- 0.0 -->
      <defs>
       <path d="M 10.6875 12.40625 
L 21 12.40625 
L 21 0 
L 10.6875 0 
z
" id="BitstreamVeraSans-Roman-2e"/>
      </defs>
      <g style="fill:#555555;" transform="translate(7.2 237.9984375)scale(0.1 -0.1)">
       <use xlink:href="#BitstreamVeraSans-Roman-30"/>
       <use x="63.623046875" xlink:href="#BitstreamVeraSans-Roman-2e"/>
       <use x="95.41015625" xlink:href="#BitstreamVeraSans-Roman-30"/>
      </g>
     </g>
    </g>
    <g id="ytick_2">
     <g id="line2d_31">
      <path clip-path="url(#p151633081b)" d="M 31.103125 190.599063 
L 365.903125 190.599063 
" style="fill:none;stroke:#ffffff;stroke-linecap:square;stroke-width:0.5;"/>
     </g>
     <g id="line2d_32">
      <g>
       <use style="fill:#555555;stroke:#555555;stroke-width:0.5;" x="31.103125" xlink:href="#m84ce954ae4" y="190.5990625"/>
      </g>
     </g>
     <g id="line2d_33">
      <g>
       <use style="fill:#555555;stroke:#555555;stroke-width:0.5;" x="365.903125" xlink:href="#m39b2e62020" y="190.5990625"/>
      </g>
     </g>
     <g id="text_12">
      <!-- 0.2 -->
      <g style="fill:#555555;" transform="translate(7.2 193.3584375)scale(0.1 -0.1)">
       <use xlink:href="#BitstreamVeraSans-Roman-30"/>
       <use x="63.623046875" xlink:href="#BitstreamVeraSans-Roman-2e"/>
       <use x="95.41015625" xlink:href="#BitstreamVeraSans-Roman-32"/>
      </g>
     </g>
    </g>
    <g id="ytick_3">
     <g id="line2d_34">
      <path clip-path="url(#p151633081b)" d="M 31.103125 145.959062 
L 365.903125 145.959062 
" style="fill:none;stroke:#ffffff;stroke-linecap:square;stroke-width:0.5;"/>
     </g>
     <g id="line2d_35">
      <g>
       <use style="fill:#555555;stroke:#555555;stroke-width:0.5;" x="31.103125" xlink:href="#m84ce954ae4" y="145.9590625"/>
      </g>
     </g>
     <g id="line2d_36">
      <g>
       <use style="fill:#555555;stroke:#555555;stroke-width:0.5;" x="365.903125" xlink:href="#m39b2e62020" y="145.9590625"/>
      </g>
     </g>
     <g id="text_13">
      <!-- 0.4 -->
      <g style="fill:#555555;" transform="translate(7.2 148.7184375)scale(0.1 -0.1)">
       <use xlink:href="#BitstreamVeraSans-Roman-30"/>
       <use x="63.623046875" xlink:href="#BitstreamVeraSans-Roman-2e"/>
       <use x="95.41015625" xlink:href="#BitstreamVeraSans-Roman-34"/>
      </g>
     </g>
    </g>
    <g id="ytick_4">
     <g id="line2d_37">
      <path clip-path="url(#p151633081b)" d="M 31.103125 101.319062 
L 365.903125 101.319062 
" style="fill:none;stroke:#ffffff;stroke-linecap:square;stroke-width:0.5;"/>
     </g>
     <g id="line2d_38">
      <g>
       <use style="fill:#555555;stroke:#555555;stroke-width:0.5;" x="31.103125" xlink:href="#m84ce954ae4" y="101.3190625"/>
      </g>
     </g>
     <g id="line2d_39">
      <g>
       <use style="fill:#555555;stroke:#555555;stroke-width:0.5;" x="365.903125" xlink:href="#m39b2e62020" y="101.3190625"/>
      </g>
     </g>
     <g id="text_14">
      <!-- 0.6 -->
      <defs>
       <path d="M 33.015625 40.375 
Q 26.375 40.375 22.484375 35.828125 
Q 18.609375 31.296875 18.609375 23.390625 
Q 18.609375 15.53125 22.484375 10.953125 
Q 26.375 6.390625 33.015625 6.390625 
Q 39.65625 6.390625 43.53125 10.953125 
Q 47.40625 15.53125 47.40625 23.390625 
Q 47.40625 31.296875 43.53125 35.828125 
Q 39.65625 40.375 33.015625 40.375 
M 52.59375 71.296875 
L 52.59375 62.3125 
Q 48.875 64.0625 45.09375 64.984375 
Q 41.3125 65.921875 37.59375 65.921875 
Q 27.828125 65.921875 22.671875 59.328125 
Q 17.53125 52.734375 16.796875 39.40625 
Q 19.671875 43.65625 24.015625 45.921875 
Q 28.375 48.1875 33.59375 48.1875 
Q 44.578125 48.1875 50.953125 41.515625 
Q 57.328125 34.859375 57.328125 23.390625 
Q 57.328125 12.15625 50.6875 5.359375 
Q 44.046875 -1.421875 33.015625 -1.421875 
Q 20.359375 -1.421875 13.671875 8.265625 
Q 6.984375 17.96875 6.984375 36.375 
Q 6.984375 53.65625 15.1875 63.9375 
Q 23.390625 74.21875 37.203125 74.21875 
Q 40.921875 74.21875 44.703125 73.484375 
Q 48.484375 72.75 52.59375 71.296875 
" id="BitstreamVeraSans-Roman-36"/>
      </defs>
      <g style="fill:#555555;" transform="translate(7.2 104.0784375)scale(0.1 -0.1)">
       <use xlink:href="#BitstreamVeraSans-Roman-30"/>
       <use x="63.623046875" xlink:href="#BitstreamVeraSans-Roman-2e"/>
       <use x="95.41015625" xlink:href="#BitstreamVeraSans-Roman-36"/>
      </g>
     </g>
    </g>
    <g id="ytick_5">
     <g id="line2d_40">
      <path clip-path="url(#p151633081b)" d="M 31.103125 56.679062 
L 365.903125 56.679062 
" style="fill:none;stroke:#ffffff;stroke-linecap:square;stroke-width:0.5;"/>
     </g>
     <g id="line2d_41">
      <g>
       <use style="fill:#555555;stroke:#555555;stroke-width:0.5;" x="31.103125" xlink:href="#m84ce954ae4" y="56.6790625"/>
      </g>
     </g>
     <g id="line2d_42">
      <g>
       <use style="fill:#555555;stroke:#555555;stroke-width:0.5;" x="365.903125" xlink:href="#m39b2e62020" y="56.6790625"/>
      </g>
     </g>
     <g id="text_15">
      <!-- 0.8 -->
      <defs>
       <path d="M 31.78125 34.625 
Q 24.75 34.625 20.71875 30.859375 
Q 16.703125 27.09375 16.703125 20.515625 
Q 16.703125 13.921875 20.71875 10.15625 
Q 24.75 6.390625 31.78125 6.390625 
Q 38.8125 6.390625 42.859375 10.171875 
Q 46.921875 13.96875 46.921875 20.515625 
Q 46.921875 27.09375 42.890625 30.859375 
Q 38.875 34.625 31.78125 34.625 
M 21.921875 38.8125 
Q 15.578125 40.375 12.03125 44.71875 
Q 8.5 49.078125 8.5 55.328125 
Q 8.5 64.0625 14.71875 69.140625 
Q 20.953125 74.21875 31.78125 74.21875 
Q 42.671875 74.21875 48.875 69.140625 
Q 55.078125 64.0625 55.078125 55.328125 
Q 55.078125 49.078125 51.53125 44.71875 
Q 48 40.375 41.703125 38.8125 
Q 48.828125 37.15625 52.796875 32.3125 
Q 56.78125 27.484375 56.78125 20.515625 
Q 56.78125 9.90625 50.3125 4.234375 
Q 43.84375 -1.421875 31.78125 -1.421875 
Q 19.734375 -1.421875 13.25 4.234375 
Q 6.78125 9.90625 6.78125 20.515625 
Q 6.78125 27.484375 10.78125 32.3125 
Q 14.796875 37.15625 21.921875 38.8125 
M 18.3125 54.390625 
Q 18.3125 48.734375 21.84375 45.5625 
Q 25.390625 42.390625 31.78125 42.390625 
Q 38.140625 42.390625 41.71875 45.5625 
Q 45.3125 48.734375 45.3125 54.390625 
Q 45.3125 60.0625 41.71875 63.234375 
Q 38.140625 66.40625 31.78125 66.40625 
Q 25.390625 66.40625 21.84375 63.234375 
Q 18.3125 60.0625 18.3125 54.390625 
" id="BitstreamVeraSans-Roman-38"/>
      </defs>
      <g style="fill:#555555;" transform="translate(7.2 59.4384375)scale(0.1 -0.1)">
       <use xlink:href="#BitstreamVeraSans-Roman-30"/>
       <use x="63.623046875" xlink:href="#BitstreamVeraSans-Roman-2e"/>
       <use x="95.41015625" xlink:href="#BitstreamVeraSans-Roman-38"/>
      </g>
     </g>
    </g>
    <g id="ytick_6">
     <g id="line2d_43">
      <path clip-path="url(#p151633081b)" d="M 31.103125 12.039062 
L 365.903125 12.039062 
" style="fill:none;stroke:#ffffff;stroke-linecap:square;stroke-width:0.5;"/>
     </g>
     <g id="line2d_44">
      <g>
       <use style="fill:#555555;stroke:#555555;stroke-width:0.5;" x="31.103125" xlink:href="#m84ce954ae4" y="12.0390625"/>
      </g>
     </g>
     <g id="line2d_45">
      <g>
       <use style="fill:#555555;stroke:#555555;stroke-width:0.5;" x="365.903125" xlink:href="#m39b2e62020" y="12.0390625"/>
      </g>
     </g>
     <g id="text_16">
      <!-- 1.0 -->
      <g style="fill:#555555;" transform="translate(7.2 14.7984375)scale(0.1 -0.1)">
       <use xlink:href="#BitstreamVeraSans-Roman-31"/>
       <use x="63.623046875" xlink:href="#BitstreamVeraSans-Roman-2e"/>
       <use x="95.41015625" xlink:href="#BitstreamVeraSans-Roman-30"/>
      </g>
     </g>
    </g>
   </g>
   <g id="line2d_46">
    <path clip-path="url(#p151633081b)" d="M 31.103125 235.239062 
L 31.103125 160.839063 
L 31.91971 179.439062 
L 31.91971 190.599063 
L 32.736296 198.039062 
L 32.736296 160.839063 
L 32.736296 174.366335 
L 33.552881 160.839063 
L 33.552881 139.58192 
L 34.369466 131.079062 
L 34.369466 143.33318 
L 34.369466 141.260115 
L 35.186052 145.959062 
L 35.186052 127.772396 
L 36.002637 131.610491 
L 36.002637 120.450491 
L 36.002637 126.655279 
L 36.819223 123.639062 
L 36.819223 120.777524 
L 36.819223 120.777524 
L 36.819223 120.777524 
L 36.819223 123.639062 
L 36.819223 121.043714 
L 36.819223 121.043714 
L 36.819223 118.566335 
L 36.819223 118.566335 
L 36.819223 118.566335 
L 36.819223 129.726335 
L 36.819223 125.596957 
L 37.635808 127.487338 
L 37.635808 120.039062 
L 37.635808 125.304734 
L 38.452393 126.921415 
L 38.452393 125.256454 
L 38.452393 126.827634 
L 38.452393 126.827634 
L 38.452393 128.354555 
L 38.452393 128.354555 
L 38.452393 128.354555 
L 38.452393 126.739062 
L 39.268979 128.225364 
L 39.268979 129.671495 
L 39.268979 129.671495 
L 39.268979 129.671495 
L 39.268979 126.575905 
L 39.268979 129.219063 
L 40.085564 130.527951 
L 40.085564 131.804916 
L 40.085564 131.804916 
L 40.085564 131.804916 
L 40.085564 123.639062 
L 40.085564 124.892995 
L 40.902149 126.119062 
L 40.902149 124.839062 
L 40.902149 126.013531 
L 40.902149 126.013531 
L 40.902149 129.726335 
L 40.902149 129.617634 
L 41.718735 130.552337 
L 41.718735 131.470641 
L 41.718735 131.470641 
L 41.718735 131.470641 
L 41.718735 130.315986 
L 41.718735 131.205164 
L 41.718735 131.205164 
L 41.718735 132.079399 
L 41.718735 132.079399 
L 41.718735 132.079399 
L 41.718735 129.990282 
L 42.53532 130.839063 
L 42.53532 133.155342 
L 42.53532 131.306238 
L 42.53532 131.306238 
L 42.53532 128.491236 
L 42.53532 130.762467 
L 42.53532 130.762467 
L 42.53532 131.498217 
L 43.351905 132.223678 
L 43.351905 136.683218 
L 43.351905 135.723139 
L 44.168491 134.940328 
L 44.168491 138.429424 
L 44.168491 138.081415 
L 44.985076 138.649589 
L 44.985076 139.211156 
L 44.985076 139.211156 
L 44.985076 139.211156 
L 44.985076 137.749407 
L 44.985076 138.857244 
L 44.985076 138.857244 
L 44.985076 140.808293 
L 45.801662 140.104636 
L 45.801662 140.621671 
L 45.801662 140.621671 
L 45.801662 140.621671 
L 45.801662 139.92663 
L 45.801662 140.439062 
L 46.618247 140.946014 
L 46.618247 139.58192 
L 46.618247 140.583565 
L 46.618247 140.583565 
L 46.618247 141.859471 
L 46.618247 141.200484 
L 46.618247 141.200484 
L 46.618247 140.548153 
L 46.618247 141.023987 
L 47.434832 141.495063 
L 47.434832 144.695666 
L 48.251418 145.120753 
L 48.251418 146.973608 
L 48.251418 146.763387 
L 49.068003 147.160139 
L 49.068003 150.576994 
L 49.884588 150.94035 
L 49.884588 150.346755 
L 49.884588 150.707999 
L 49.884588 150.707999 
L 49.884588 153.153112 
L 50.701174 152.572396 
L 50.701174 153.911127 
L 50.701174 153.667978 
L 51.517759 153.994262 
L 51.517759 154.317947 
L 51.517759 154.317947 
L 51.517759 154.317947 
L 51.517759 153.753348 
L 51.517759 154.075426 
L 51.517759 154.075426 
L 51.517759 157.161496 
L 52.334345 157.457244 
L 52.334345 158.903003 
L 53.15093 159.185729 
L 53.15093 162.934837 
L 53.967515 163.188536 
L 53.967515 163.440461 
L 53.967515 163.440461 
L 53.967515 163.440461 
L 53.967515 162.91293 
L 53.967515 163.413457 
L 53.967515 163.413457 
L 53.967515 164.394011 
L 54.784101 163.875797 
L 54.784101 164.833693 
L 55.600686 165.069163 
L 55.600686 165.766215 
L 56.417271 165.995498 
L 56.417271 166.897694 
L 56.417271 166.617703 
L 57.233857 166.839063 
L 57.233857 168.137797 
L 58.050442 168.349473 
L 58.050442 169.592004 
L 58.867027 169.794618 
L 58.867027 171.371593 
L 59.683613 171.563387 
L 59.683613 172.319181 
L 60.500198 172.505335 
L 60.500198 174.132434 
L 61.316784 174.308028 
L 61.316784 176.664477 
L 62.133369 176.825839 
L 62.133369 177.930954 
L 62.949954 178.085424 
L 62.949954 178.695062 
L 63.76654 178.845445 
L 63.76654 179.439062 
L 64.583125 179.585519 
L 64.583125 179.731209 
L 64.583125 179.731209 
L 64.583125 179.731209 
L 64.583125 179.293371 
L 64.583125 179.728182 
L 64.583125 179.728182 
L 64.583125 179.871621 
L 65.39971 180.01432 
L 65.39971 180.855306 
L 66.216296 180.992987 
L 66.216296 182.201439 
L 67.032881 182.332396 
L 67.032881 183.482541 
L 67.849466 183.607255 
L 67.849466 184.703213 
L 68.666052 184.822121 
L 68.666052 186.318515 
L 69.482637 186.540881 
L 69.482637 187.088051 
L 70.299223 187.303492 
L 70.299223 188.146315 
L 71.115808 188.35241 
L 71.115808 188.454783 
L 71.115808 188.454783 
L 71.115808 188.454783 
L 71.115808 188.070435 
L 71.115808 188.376725 
L 71.115808 188.376725 
L 71.115808 189.076163 
L 71.932393 189.272184 
L 71.932393 190.227836 
L 72.748979 190.414218 
L 72.748979 190.964216 
L 73.565564 191.144561 
L 73.565564 192.024691 
L 74.382149 192.196518 
L 74.382149 193.280923 
L 75.198735 193.442924 
L 75.198735 194.771025 
L 76.01532 194.921744 
L 76.01532 195.874699 
L 76.831905 196.017323 
L 76.831905 196.796883 
L 77.648491 196.931532 
L 77.648491 197.264062 
L 78.465076 197.395464 
L 78.465076 198.47671 
L 79.281662 198.599867 
L 79.281662 199.262747 
L 80.098247 199.380702 
L 80.098247 200.072503 
L 80.914832 200.185216 
L 80.914832 200.683612 
L 81.731418 200.84661 
L 81.731418 201.58737 
L 82.548003 201.741972 
L 82.548003 202.44506 
L 83.364588 202.591898 
L 83.364588 203.213294 
L 84.181174 203.353348 
L 84.181174 204.035639 
L 84.997759 204.168608 
L 84.997759 204.689342 
L 85.814345 204.816809 
L 85.814345 205.438518 
L 86.63093 205.559822 
L 86.63093 206.38207 
L 87.447515 206.49583 
L 87.447515 207.123895 
L 88.264101 207.267707 
L 88.264101 207.897063 
L 89.080686 208.033092 
L 89.080686 208.334265 
L 89.897271 208.46599 
L 89.897271 208.948678 
L 90.713857 209.074469 
L 90.713857 209.625948 
L 91.530442 209.745356 
L 91.530442 209.951664 
L 92.347027 210.068061 
L 92.347027 210.57886 
L 93.163613 210.717089 
L 93.163613 211.042602 
L 93.980198 211.175696 
L 93.980198 211.693745 
L 94.796784 211.819791 
L 94.796784 212.454062 
L 95.613369 212.572119 
L 95.613369 212.919062 
L 96.429954 213.032362 
L 96.429954 213.430887 
L 97.24654 213.560569 
L 97.24654 213.898965 
L 98.063125 214.023156 
L 98.063125 214.681168 
L 98.87971 214.796446 
L 98.87971 215.208293 
L 99.696296 215.335878 
L 99.696296 215.847573 
L 100.512881 215.967168 
L 100.512881 216.251562 
L 101.329466 216.366241 
L 101.329466 216.764738 
L 102.146052 216.888727 
L 102.146052 217.206416 
L 102.962637 217.324566 
L 102.962637 217.498917 
L 102.962637 217.433422 
L 103.779223 217.547469 
L 103.779223 217.935382 
L 104.595808 218.056481 
L 104.595808 218.35839 
L 105.412393 218.47366 
L 105.412393 218.649873 
L 106.228979 218.76121 
L 106.228979 219.110011 
L 107.045564 219.226889 
L 107.045564 219.410409 
L 107.862149 219.522989 
L 107.862149 219.721647 
L 108.678735 219.840596 
L 108.678735 220.083507 
L 109.49532 220.196993 
L 109.49532 220.399036 
L 110.311905 220.517677 
L 110.311905 220.663337 
L 111.128491 220.777806 
L 111.128491 221.056264 
L 111.945076 221.173626 
L 111.945076 221.315433 
L 112.761662 221.428562 
L 112.761662 221.682743 
L 113.578247 221.798187 
L 113.578247 221.975677 
L 114.394832 222.09403 
L 114.394832 222.309396 
L 115.211418 222.421893 
L 115.211418 222.626734 
L 116.028003 222.740872 
L 116.028003 222.922006 
L 116.844588 223.037627 
L 116.844588 223.262477 
L 117.661174 223.378193 
L 117.661174 223.535249 
L 118.477759 223.651857 
L 118.477759 223.766165 
L 119.294345 223.87824 
L 119.294345 224.056471 
L 120.11093 224.168521 
L 120.11093 224.300053 
L 120.927515 224.412605 
L 120.927515 224.56428 
L 121.744101 224.676539 
L 121.744101 224.840568 
L 122.560686 224.951912 
L 122.560686 225.084283 
L 123.377271 225.199626 
L 123.377271 225.325738 
L 124.193857 225.440038 
L 124.193857 225.521912 
L 125.010442 225.635933 
L 125.010442 225.689884 
L 125.827027 225.80405 
L 125.827027 225.876012 
L 126.643613 225.989669 
L 126.643613 226.100601 
L 127.460198 226.212592 
L 127.460198 226.34699 
L 128.276784 226.46004 
L 128.276784 226.549798 
L 129.093369 226.661112 
L 129.093369 226.763113 
L 129.909954 226.875399 
L 129.909954 226.94758 
L 130.72654 227.06112 
L 130.72654 227.189226 
L 131.543125 227.301994 
L 131.543125 227.355795 
L 132.35971 227.469442 
L 132.35971 227.510206 
L 133.176296 227.622103 
L 133.176296 227.707774 
L 133.992881 227.819049 
L 133.992881 227.900371 
L 134.809466 228.013163 
L 134.809466 228.067105 
L 135.626052 228.179382 
L 135.626052 228.244191 
L 136.442637 228.357468 
L 136.442637 228.410632 
L 137.259223 228.52271 
L 137.259223 228.601394 
L 138.075808 228.713132 
L 138.075808 228.760962 
L 138.892393 228.872943 
L 138.892393 228.909415 
L 140.525564 229.023366 
L 140.525564 229.153466 
L 141.342149 229.26534 
L 141.342149 229.303849 
L 142.97532 229.417988 
L 142.97532 229.558651 
L 143.791905 229.670312 
L 143.791905 229.707949 
L 144.608491 229.819195 
L 144.608491 229.828485 
L 145.425076 229.94007 
L 145.425076 229.94261 
L 146.241662 230.054454 
L 146.241662 230.072637 
L 147.058247 230.1849 
L 147.058247 230.201032 
L 147.874832 230.31224 
L 147.874832 230.322107 
L 149.508003 230.434366 
L 149.508003 230.517524 
L 150.324588 230.628839 
L 150.324588 230.634603 
L 151.957759 230.74693 
L 151.957759 230.835555 
L 153.59093 230.947588 
L 153.59093 231.002713 
L 155.224101 231.114986 
L 155.224101 231.181626 
L 156.857271 231.29391 
L 156.857271 231.345353 
L 158.490442 231.457307 
L 158.490442 231.509645 
L 160.123613 231.621973 
L 160.123613 231.661792 
L 161.756784 231.773985 
L 161.756784 231.782657 
L 163.389954 231.89461 
L 163.389954 231.903193 
L 165.023125 232.015135 
L 165.023125 232.026384 
L 167.472881 232.138628 
L 167.472881 232.183642 
L 169.922637 232.295962 
L 169.922637 232.338078 
L 173.188979 232.450457 
L 173.188979 232.483847 
L 175.638735 232.595765 
L 175.638735 232.606056 
L 178.905076 232.718168 
L 178.905076 232.748269 
L 182.171418 232.860292 
L 182.171418 232.866361 
L 185.437759 232.978351 
L 185.437759 232.986337 
L 189.520686 233.098466 
L 189.520686 233.102155 
L 194.420198 233.214389 
L 194.420198 233.228795 
L 200.136296 233.341103 
L 200.136296 233.359484 
L 206.668979 233.471842 
L 206.668979 233.484208 
L 215.651418 233.596799 
L 215.651418 233.599935 
L 227.900198 233.712804 
L 227.900198 233.71343 
L 245.865076 233.826762 
L 245.865076 233.828369 
L 276.89532 233.94282 
L 276.89532 233.943196 
L 329.156784 234.059109 
L 329.156784 234.060729 
L 365.903125 234.071943 
L 365.903125 234.071943 
" style="fill:none;stroke:#e24a33;stroke-linecap:square;"/>
   </g>
   <g id="line2d_47">
    <path clip-path="url(#p151633081b)" d="M 31.103125 235.239062 
L 31.103125 233.007062 
L 32.736296 233.007062 
L 32.736296 228.543062 
L 32.736296 228.543062 
L 33.552881 226.311062 
L 33.552881 221.847062 
L 34.369466 219.615062 
L 34.369466 219.615062 
L 34.369466 217.383062 
L 34.369466 217.383062 
L 35.186052 217.383062 
L 35.186052 206.223062 
L 36.002637 206.223062 
L 36.002637 195.063063 
L 36.002637 195.063063 
L 36.819223 192.831062 
L 36.819223 172.743062 
L 37.635808 172.743062 
L 37.635808 161.583062 
L 37.635808 161.583062 
L 38.452393 161.583062 
L 38.452393 157.119062 
L 39.268979 157.119062 
L 39.268979 157.119062 
L 39.268979 150.423062 
L 39.268979 150.423062 
L 40.085564 150.423062 
L 40.085564 150.423062 
L 40.085564 137.031062 
L 40.085564 137.031062 
L 40.902149 137.031062 
L 40.902149 116.943062 
L 40.902149 116.943062 
L 41.718735 116.943062 
L 41.718735 116.943062 
L 41.718735 105.783062 
L 42.53532 105.783062 
L 42.53532 105.783062 
L 42.53532 87.927062 
L 42.53532 87.927062 
L 43.351905 87.927062 
L 43.351905 87.927062 
L 43.351905 78.999063 
L 43.351905 78.999063 
L 44.168491 76.767063 
L 44.168491 76.767063 
L 44.168491 70.071063 
L 44.168491 70.071063 
L 44.985076 70.071063 
L 44.985076 70.071063 
L 44.985076 63.375062 
L 44.985076 63.375062 
L 45.801662 61.143062 
L 45.801662 61.143062 
L 45.801662 58.911062 
L 45.801662 58.911062 
L 46.618247 58.911062 
L 46.618247 47.751063 
L 46.618247 47.751063 
L 47.434832 47.751063 
L 47.434832 47.751063 
L 47.434832 43.287062 
L 47.434832 43.287062 
L 48.251418 43.287062 
L 48.251418 43.287062 
L 48.251418 38.823062 
L 48.251418 38.823062 
L 49.884588 38.823062 
L 49.884588 36.591062 
L 49.884588 36.591062 
L 50.701174 34.359062 
L 50.701174 34.359062 
L 50.701174 32.127062 
L 50.701174 32.127062 
L 51.517759 32.127062 
L 51.517759 32.127062 
L 51.517759 29.895062 
L 51.517759 29.895062 
L 53.967515 29.895062 
L 53.967515 29.895062 
L 53.967515 27.663062 
L 53.967515 27.663062 
L 54.784101 25.431063 
L 54.784101 25.431063 
L 56.417271 25.431063 
L 56.417271 25.431063 
L 56.417271 23.199062 
L 56.417271 23.199062 
L 64.583125 23.199062 
L 64.583125 23.199062 
L 64.583125 20.967062 
L 64.583125 20.967062 
L 71.115808 20.967062 
L 71.115808 20.967062 
L 71.115808 18.735062 
L 71.115808 18.735062 
L 76.831905 18.735062 
L 76.831905 18.735062 
L 76.831905 16.503062 
L 76.831905 16.503062 
L 102.962637 16.503062 
L 102.962637 16.503062 
L 102.962637 14.271062 
L 102.962637 14.271062 
L 170.739223 14.271062 
L 170.739223 14.271062 
L 170.739223 12.039062 
L 170.739223 12.039062 
L 365.903125 12.039062 
L 365.903125 12.039062 
" style="fill:none;stroke:#348abd;stroke-linecap:square;"/>
   </g>
   <g id="line2d_48">
    <path clip-path="url(#p151633081b)" d="M 31.103125 235.239062 
L 31.103125 230.905082 
L 32.736296 231.027742 
L 32.736296 222.952824 
L 32.736296 223.174198 
L 33.552881 219.296205 
L 33.552881 211.744326 
L 34.369466 208.066889 
L 34.369466 208.53137 
L 34.369466 204.974656 
L 34.369466 205.228978 
L 35.186052 205.479062 
L 35.186052 189.544574 
L 36.002637 189.901562 
L 36.002637 175.719063 
L 36.002637 176.587968 
L 36.819223 173.778193 
L 36.819223 155.626324 
L 37.635808 156.130202 
L 37.635808 145.959063 
L 37.635808 147.028284 
L 38.452393 147.553348 
L 38.452393 144.401853 
L 39.268979 144.926924 
L 39.268979 145.445959 
L 39.268979 145.445959 
L 39.268979 145.445959 
L 39.268979 140.472582 
L 39.268979 140.999062 
L 40.085564 141.519725 
L 40.085564 142.034667 
L 40.085564 142.034667 
L 40.085564 142.034667 
L 40.085564 130.762467 
L 40.085564 131.315253 
L 40.902149 131.86222 
L 40.902149 123.099932 
L 40.902149 123.639062 
L 41.718735 124.163006 
L 41.718735 124.682053 
L 41.718735 124.682053 
L 41.718735 124.682053 
L 41.718735 119.135027 
L 42.53532 119.653348 
L 42.53532 120.676231 
L 42.53532 120.676231 
L 42.53532 120.676231 
L 42.53532 111.447466 
L 42.53532 113.493608 
L 43.351905 113.994618 
L 43.351905 116.439063 
L 43.351905 115.1234 
L 43.351905 115.1234 
L 43.351905 113.818262 
L 43.351905 114.78192 
L 43.351905 114.78192 
L 43.351905 115.730401 
L 43.351905 115.730401 
L 43.351905 115.730401 
L 43.351905 113.176562 
L 43.351905 113.651514 
L 44.168491 112.392551 
L 44.168491 114.408987 
L 44.168491 113.189624 
L 44.168491 113.189624 
L 44.168491 111.979361 
L 44.168491 112.892396 
L 44.985076 113.34386 
L 44.985076 113.792004 
L 44.985076 113.792004 
L 44.985076 113.792004 
L 44.985076 111.420084 
L 44.985076 113.349701 
L 45.801662 112.20302 
L 45.801662 112.636246 
L 45.801662 112.636246 
L 45.801662 112.636246 
L 45.801662 111.500115 
L 45.801662 111.932769 
L 46.618247 112.362407 
L 46.618247 109.40819 
L 46.618247 109.829029 
L 47.434832 110.247063 
L 47.434832 112.192909 
L 48.251418 112.586027 
L 48.251418 113.364777 
L 48.251418 113.364777 
L 48.251418 113.364777 
L 48.251418 112.337797 
L 48.251418 113.110761 
L 48.251418 113.110761 
L 48.251418 113.874062 
L 48.251418 113.874062 
L 48.251418 113.874062 
L 48.251418 112.861492 
L 48.251418 113.241547 
L 49.068003 113.619248 
L 49.068003 116.916171 
L 49.884588 117.271495 
L 49.884588 116.288164 
L 49.884588 116.996205 
L 49.884588 116.996205 
L 49.884588 119.070641 
L 50.701174 118.107867 
L 50.701174 119.458083 
L 50.701174 118.842501 
L 51.517759 119.175063 
L 51.517759 119.505729 
L 51.517759 119.505729 
L 51.517759 119.505729 
L 51.517759 118.566335 
L 51.517759 119.225503 
L 51.517759 119.225503 
L 51.517759 122.101872 
L 52.334345 122.412689 
L 52.334345 123.941502 
L 53.15093 124.242306 
L 53.15093 128.289062 
L 53.967515 128.566855 
L 53.967515 128.843208 
L 53.967515 128.843208 
L 53.967515 128.843208 
L 53.967515 127.964644 
L 53.967515 128.789832 
L 53.967515 128.789832 
L 53.967515 129.602421 
L 54.784101 128.73754 
L 54.784101 129.807907 
L 55.600686 130.072145 
L 55.600686 130.856973 
L 56.417271 131.115986 
L 56.417271 132.139308 
L 56.417271 131.552021 
L 57.233857 131.804916 
L 57.233857 133.296755 
L 58.050442 133.541221 
L 58.050442 134.983743 
L 58.867027 135.220195 
L 58.867027 137.072396 
L 59.683613 137.299109 
L 59.683613 138.195584 
L 60.500198 138.417145 
L 60.500198 140.366579 
L 61.316784 140.578348 
L 61.316784 143.446855 
L 62.133369 143.64511 
L 62.133369 145.009275 
L 62.949954 145.200846 
L 62.949954 145.959063 
L 63.76654 146.146626 
L 63.76654 146.889062 
L 64.583125 147.072742 
L 64.583125 147.25566 
L 64.583125 147.25566 
L 64.583125 147.25566 
L 64.583125 146.513597 
L 64.583125 147.242348 
L 65.39971 147.422669 
L 65.39971 148.489265 
L 66.216296 148.664517 
L 66.216296 150.210491 
L 67.032881 150.378864 
L 67.032881 151.864743 
L 67.849466 152.026635 
L 67.849466 153.455856 
L 68.666052 153.611634 
L 68.666052 155.584044 
L 69.482637 155.731827 
L 69.482637 156.607136 
L 70.299223 156.75115 
L 70.299223 158.023927 
L 71.115808 158.162804 
L 71.115808 158.439063 
L 71.115808 158.439063 
L 71.115808 158.439063 
L 71.115808 157.777882 
L 71.115808 158.328228 
L 71.115808 158.328228 
L 71.115808 159.139238 
L 71.932393 159.272747 
L 71.932393 160.711007 
L 72.748979 160.839062 
L 72.748979 161.723273 
L 73.565564 161.847876 
L 73.565564 163.191142 
L 74.382149 163.310823 
L 74.382149 164.945556 
L 75.198735 165.059484 
L 75.198735 167.048826 
L 76.01532 167.262924 
L 76.01532 168.622447 
L 76.831905 168.826793 
L 76.831905 169.847134 
L 77.648491 170.042043 
L 77.648491 170.52427 
L 78.465076 170.715169 
L 78.465076 172.293451 
L 79.281662 172.47407 
L 79.281662 173.449232 
L 80.098247 173.623288 
L 80.098247 174.647373 
L 80.914832 174.814753 
L 80.914832 175.556661 
L 81.731418 175.719063 
L 81.731418 176.909462 
L 82.548003 177.064594 
L 82.548003 178.202296 
L 83.364588 178.350636 
L 83.364588 179.367798 
L 84.181174 179.510145 
L 84.181174 180.623332 
L 84.997759 180.759361 
L 84.997759 181.627298 
L 85.814345 181.758378 
L 85.814345 182.784386 
L 86.63093 182.909876 
L 86.63093 184.25165 
L 87.447515 184.370225 
L 87.447515 185.413094 
L 88.264101 185.526335 
L 88.264101 186.631062 
L 89.080686 186.792551 
L 89.080686 187.323181 
L 89.897271 187.480111 
L 89.897271 188.300007 
L 90.713857 188.450613 
L 90.713857 189.382459 
L 91.530442 189.52621 
L 91.530442 189.905176 
L 92.347027 190.045674 
L 92.347027 190.915658 
L 93.163613 191.049972 
L 93.163613 191.666154 
L 93.980198 191.795964 
L 93.980198 192.724777 
L 94.796784 192.848365 
L 94.796784 193.968119 
L 95.613369 194.084594 
L 95.613369 194.732396 
L 96.429954 194.844603 
L 96.429954 195.57705 
L 97.24654 195.720363 
L 97.24654 196.352663 
L 98.063125 196.490435 
L 98.063125 197.655557 
L 98.87971 197.784268 
L 98.87971 198.538391 
L 99.696296 198.661136 
L 99.696296 199.614307 
L 100.512881 199.729972 
L 100.512881 200.297209 
L 101.329466 200.436199 
L 101.329466 201.168034 
L 102.146052 201.300195 
L 102.146052 201.920555 
L 102.962637 202.046953 
L 102.962637 202.420458 
L 102.962637 202.283358 
L 103.779223 202.405779 
L 103.779223 203.144945 
L 104.595808 203.26106 
L 104.595808 203.873839 
L 105.412393 204.006836 
L 105.412393 204.37761 
L 106.228979 204.506378 
L 106.228979 205.175389 
L 107.045564 205.297599 
L 107.045564 205.697886 
L 107.862149 205.815893 
L 107.862149 206.240637 
L 108.678735 206.354357 
L 108.678735 206.873466 
L 109.49532 207.00034 
L 109.49532 207.426854 
L 110.311905 207.548837 
L 110.311905 207.891538 
L 111.128491 208.009488 
L 111.128491 208.584298 
L 111.945076 208.69636 
L 111.945076 209.042501 
L 112.761662 209.166142 
L 112.761662 209.693629 
L 113.578247 209.811214 
L 113.578247 210.214374 
L 114.394832 210.327225 
L 114.394832 210.809212 
L 115.211418 210.930152 
L 115.211418 211.376428 
L 116.028003 211.49183 
L 116.028003 211.905588 
L 116.844588 212.028138 
L 116.844588 212.517417 
L 117.661174 212.633641 
L 117.661174 213.008881 
L 118.477759 213.120144 
L 118.477759 213.425834 
L 119.294345 213.543628 
L 119.294345 213.951201 
L 120.11093 214.063404 
L 120.11093 214.393025 
L 120.927515 214.510357 
L 120.927515 214.873348 
L 121.744101 214.98535 
L 121.744101 215.37677 
L 122.560686 215.492146 
L 122.560686 215.821839 
L 123.377271 215.940547 
L 123.377271 216.263708 
L 124.193857 216.377091 
L 124.193857 216.623393 
L 125.010442 216.740276 
L 125.010442 216.931855 
L 125.827027 217.044909 
L 125.827027 217.274184 
L 126.643613 217.390274 
L 126.643613 217.68799 
L 127.460198 217.80569 
L 127.460198 218.142892 
L 128.276784 218.254589 
L 128.276784 218.518064 
L 129.093369 218.631171 
L 129.093369 218.913388 
L 129.909954 219.027177 
L 129.909954 219.255844 
L 130.72654 219.370624 
L 130.72654 219.705284 
L 131.543125 219.819104 
L 131.543125 220.015638 
L 132.35971 220.130139 
L 132.35971 220.303747 
L 133.176296 220.418942 
L 133.176296 220.672945 
L 133.992881 220.787264 
L 133.992881 221.033469 
L 134.809466 221.146716 
L 134.809466 221.346073 
L 135.626052 221.458707 
L 135.626052 221.678584 
L 136.442637 221.790006 
L 136.442637 221.99158 
L 137.259223 222.105749 
L 137.259223 222.350874 
L 138.075808 222.462653 
L 138.075808 222.651879 
L 138.892393 222.765565 
L 138.892393 222.932296 
L 139.708979 223.044361 
L 139.708979 223.114618 
L 140.525564 223.226668 
L 140.525564 223.394088 
L 141.342149 223.507287 
L 141.342149 223.679136 
L 142.158735 223.792909 
L 142.158735 223.884078 
L 142.97532 223.996732 
L 142.97532 224.162972 
L 143.791905 224.275629 
L 143.791905 224.446975 
L 144.608491 224.55912 
L 144.608491 224.676539 
L 145.425076 224.788932 
L 145.425076 224.894119 
L 146.241662 225.006694 
L 146.241662 225.142284 
L 147.058247 225.254065 
L 147.058247 225.387614 
L 147.874832 225.500499 
L 147.874832 225.619211 
L 148.691418 225.730973 
L 148.691418 225.826155 
L 149.508003 225.939062 
L 149.508003 225.993539 
L 150.324588 226.106266 
L 150.324588 226.218119 
L 151.141174 226.330859 
L 151.141174 226.403877 
L 151.957759 226.515494 
L 151.957759 226.604127 
L 152.774345 226.715707 
L 152.774345 226.779338 
L 153.59093 226.891197 
L 153.59093 226.925744 
L 154.407515 227.038357 
L 154.407515 227.107765 
L 155.224101 227.219901 
L 155.224101 227.270509 
L 156.040686 227.382422 
L 156.040686 227.443402 
L 156.857271 227.554555 
L 156.857271 227.586491 
L 157.673857 227.698779 
L 157.673857 227.752429 
L 158.490442 227.863629 
L 158.490442 227.904025 
L 159.307027 228.015525 
L 159.307027 228.058949 
L 160.123613 228.170348 
L 160.123613 228.198502 
L 161.756784 228.31108 
L 161.756784 228.432717 
L 162.573369 228.544077 
L 162.573369 228.561275 
L 164.20654 228.674357 
L 164.20654 228.784615 
L 165.023125 228.895787 
L 165.023125 228.905786 
L 166.656296 229.018117 
L 166.656296 229.118065 
L 168.289466 229.230415 
L 168.289466 229.314193 
L 169.922637 229.42641 
L 169.922637 229.512277 
L 172.372393 229.62538 
L 172.372393 229.710204 
L 174.005564 229.822244 
L 174.005564 229.874967 
L 175.638735 229.987298 
L 175.638735 230.034446 
L 177.271905 230.14666 
L 177.271905 230.177264 
L 178.905076 230.289512 
L 178.905076 230.312454 
L 180.538247 230.424567 
L 180.538247 230.43079 
L 182.171418 230.542587 
L 182.171418 230.543575 
L 183.804588 230.65543 
L 183.804588 230.66107 
L 185.437759 230.772829 
L 185.437759 230.778631 
L 187.887515 230.890728 
L 187.887515 230.922683 
L 190.337271 231.034881 
L 190.337271 231.041996 
L 192.787027 231.154143 
L 192.787027 231.174969 
L 195.236784 231.286871 
L 195.236784 231.292462 
L 197.68654 231.40434 
L 197.68654 231.407303 
L 200.952881 231.519682 
L 200.952881 231.542168 
L 204.219223 231.654384 
L 204.219223 231.669005 
L 208.302149 231.781278 
L 208.302149 231.801779 
L 213.201662 231.914418 
L 213.201662 231.93019 
L 218.917759 232.042957 
L 218.917759 232.056175 
L 226.267027 232.169122 
L 226.267027 232.181947 
L 233.616296 232.29486 
L 233.616296 232.295636 
L 243.41532 232.40891 
L 243.41532 232.411061 
L 256.480686 232.52489 
L 256.480686 232.526704 
L 273.628979 232.641146 
L 273.628979 232.64311 
L 296.493369 232.758373 
L 296.493369 232.760852 
L 325.890442 232.876908 
L 325.890442 232.879156 
L 365.903125 232.916965 
L 365.903125 232.916965 
" style="fill:none;stroke:#988ed5;stroke-linecap:square;"/>
   </g>
   <g id="patch_3">
    <path d="M 31.103125 12.039062 
L 365.903125 12.039062 
" style="fill:none;stroke:#ffffff;stroke-linecap:square;stroke-linejoin:miter;"/>
   </g>
   <g id="patch_4">
    <path d="M 365.903125 235.239062 
L 365.903125 12.039062 
" style="fill:none;stroke:#ffffff;stroke-linecap:square;stroke-linejoin:miter;"/>
   </g>
   <g id="patch_5">
    <path d="M 31.103125 235.239062 
L 365.903125 235.239062 
" style="fill:none;stroke:#ffffff;stroke-linecap:square;stroke-linejoin:miter;"/>
   </g>
   <g id="patch_6">
    <path d="M 31.103125 235.239062 
L 31.103125 12.039062 
" style="fill:none;stroke:#ffffff;stroke-linecap:square;stroke-linejoin:miter;"/>
   </g>
   <g id="legend_1">
    <g id="patch_7">
     <path d="M 262.3075 74.480312 
L 359.903125 74.480312 
L 359.903125 18.039062 
L 262.3075 18.039062 
z
" style="fill:#e5e5e5;stroke:#ffffff;stroke-linejoin:miter;stroke-width:0.5;"/>
    </g>
    <g id="line2d_49">
     <path d="M 270.7075 27.757187 
L 287.5075 27.757187 
" style="fill:none;stroke:#e24a33;stroke-linecap:square;"/>
    </g>
    <g id="line2d_50"/>
    <g id="text_17">
     <!-- precision -->
     <defs>
      <path d="M 54.890625 33.015625 
L 54.890625 0 
L 45.90625 0 
L 45.90625 32.71875 
Q 45.90625 40.484375 42.875 44.328125 
Q 39.84375 48.1875 33.796875 48.1875 
Q 26.515625 48.1875 22.3125 43.546875 
Q 18.109375 38.921875 18.109375 30.90625 
L 18.109375 0 
L 9.078125 0 
L 9.078125 54.6875 
L 18.109375 54.6875 
L 18.109375 46.1875 
Q 21.34375 51.125 25.703125 53.5625 
Q 30.078125 56 35.796875 56 
Q 45.21875 56 50.046875 50.171875 
Q 54.890625 44.34375 54.890625 33.015625 
" id="BitstreamVeraSans-Roman-6e"/>
      <path d="M 30.609375 48.390625 
Q 23.390625 48.390625 19.1875 42.75 
Q 14.984375 37.109375 14.984375 27.296875 
Q 14.984375 17.484375 19.15625 11.84375 
Q 23.34375 6.203125 30.609375 6.203125 
Q 37.796875 6.203125 41.984375 11.859375 
Q 46.1875 17.53125 46.1875 27.296875 
Q 46.1875 37.015625 41.984375 42.703125 
Q 37.796875 48.390625 30.609375 48.390625 
M 30.609375 56 
Q 42.328125 56 49.015625 48.375 
Q 55.71875 40.765625 55.71875 27.296875 
Q 55.71875 13.875 49.015625 6.21875 
Q 42.328125 -1.421875 30.609375 -1.421875 
Q 18.84375 -1.421875 12.171875 6.21875 
Q 5.515625 13.875 5.515625 27.296875 
Q 5.515625 40.765625 12.171875 48.375 
Q 18.84375 56 30.609375 56 
" id="BitstreamVeraSans-Roman-6f"/>
      <path d="M 9.421875 54.6875 
L 18.40625 54.6875 
L 18.40625 0 
L 9.421875 0 
z
M 9.421875 75.984375 
L 18.40625 75.984375 
L 18.40625 64.59375 
L 9.421875 64.59375 
z
" id="BitstreamVeraSans-Roman-69"/>
      <path d="M 18.109375 8.203125 
L 18.109375 -20.796875 
L 9.078125 -20.796875 
L 9.078125 54.6875 
L 18.109375 54.6875 
L 18.109375 46.390625 
Q 20.953125 51.265625 25.265625 53.625 
Q 29.59375 56 35.59375 56 
Q 45.5625 56 51.78125 48.09375 
Q 58.015625 40.1875 58.015625 27.296875 
Q 58.015625 14.40625 51.78125 6.484375 
Q 45.5625 -1.421875 35.59375 -1.421875 
Q 29.59375 -1.421875 25.265625 0.953125 
Q 20.953125 3.328125 18.109375 8.203125 
M 48.6875 27.296875 
Q 48.6875 37.203125 44.609375 42.84375 
Q 40.53125 48.484375 33.40625 48.484375 
Q 26.265625 48.484375 22.1875 42.84375 
Q 18.109375 37.203125 18.109375 27.296875 
Q 18.109375 17.390625 22.1875 11.75 
Q 26.265625 6.109375 33.40625 6.109375 
Q 40.53125 6.109375 44.609375 11.75 
Q 48.6875 17.390625 48.6875 27.296875 
" id="BitstreamVeraSans-Roman-70"/>
      <path d="M 56.203125 29.59375 
L 56.203125 25.203125 
L 14.890625 25.203125 
Q 15.484375 15.921875 20.484375 11.0625 
Q 25.484375 6.203125 34.421875 6.203125 
Q 39.59375 6.203125 44.453125 7.46875 
Q 49.3125 8.734375 54.109375 11.28125 
L 54.109375 2.78125 
Q 49.265625 0.734375 44.1875 -0.34375 
Q 39.109375 -1.421875 33.890625 -1.421875 
Q 20.796875 -1.421875 13.15625 6.1875 
Q 5.515625 13.8125 5.515625 26.8125 
Q 5.515625 40.234375 12.765625 48.109375 
Q 20.015625 56 32.328125 56 
Q 43.359375 56 49.78125 48.890625 
Q 56.203125 41.796875 56.203125 29.59375 
M 47.21875 32.234375 
Q 47.125 39.59375 43.09375 43.984375 
Q 39.0625 48.390625 32.421875 48.390625 
Q 24.90625 48.390625 20.390625 44.140625 
Q 15.875 39.890625 15.1875 32.171875 
z
" id="BitstreamVeraSans-Roman-65"/>
      <path d="M 41.109375 46.296875 
Q 39.59375 47.171875 37.8125 47.578125 
Q 36.03125 48 33.890625 48 
Q 26.265625 48 22.1875 43.046875 
Q 18.109375 38.09375 18.109375 28.8125 
L 18.109375 0 
L 9.078125 0 
L 9.078125 54.6875 
L 18.109375 54.6875 
L 18.109375 46.1875 
Q 20.953125 51.171875 25.484375 53.578125 
Q 30.03125 56 36.53125 56 
Q 37.453125 56 38.578125 55.875 
Q 39.703125 55.765625 41.0625 55.515625 
z
" id="BitstreamVeraSans-Roman-72"/>
      <path d="M 44.28125 53.078125 
L 44.28125 44.578125 
Q 40.484375 46.53125 36.375 47.5 
Q 32.28125 48.484375 27.875 48.484375 
Q 21.1875 48.484375 17.84375 46.4375 
Q 14.5 44.390625 14.5 40.28125 
Q 14.5 37.15625 16.890625 35.375 
Q 19.28125 33.59375 26.515625 31.984375 
L 29.59375 31.296875 
Q 39.15625 29.25 43.1875 25.515625 
Q 47.21875 21.78125 47.21875 15.09375 
Q 47.21875 7.46875 41.1875 3.015625 
Q 35.15625 -1.421875 24.609375 -1.421875 
Q 20.21875 -1.421875 15.453125 -0.5625 
Q 10.6875 0.296875 5.421875 2 
L 5.421875 11.28125 
Q 10.40625 8.6875 15.234375 7.390625 
Q 20.0625 6.109375 24.8125 6.109375 
Q 31.15625 6.109375 34.5625 8.28125 
Q 37.984375 10.453125 37.984375 14.40625 
Q 37.984375 18.0625 35.515625 20.015625 
Q 33.0625 21.96875 24.703125 23.78125 
L 21.578125 24.515625 
Q 13.234375 26.265625 9.515625 29.90625 
Q 5.8125 33.546875 5.8125 39.890625 
Q 5.8125 47.609375 11.28125 51.796875 
Q 16.75 56 26.8125 56 
Q 31.78125 56 36.171875 55.265625 
Q 40.578125 54.546875 44.28125 53.078125 
" id="BitstreamVeraSans-Roman-73"/>
      <path d="M 48.78125 52.59375 
L 48.78125 44.1875 
Q 44.96875 46.296875 41.140625 47.34375 
Q 37.3125 48.390625 33.40625 48.390625 
Q 24.65625 48.390625 19.8125 42.84375 
Q 14.984375 37.3125 14.984375 27.296875 
Q 14.984375 17.28125 19.8125 11.734375 
Q 24.65625 6.203125 33.40625 6.203125 
Q 37.3125 6.203125 41.140625 7.25 
Q 44.96875 8.296875 48.78125 10.40625 
L 48.78125 2.09375 
Q 45.015625 0.34375 40.984375 -0.53125 
Q 36.96875 -1.421875 32.421875 -1.421875 
Q 20.0625 -1.421875 12.78125 6.34375 
Q 5.515625 14.109375 5.515625 27.296875 
Q 5.515625 40.671875 12.859375 48.328125 
Q 20.21875 56 33.015625 56 
Q 37.15625 56 41.109375 55.140625 
Q 45.0625 54.296875 48.78125 52.59375 
" id="BitstreamVeraSans-Roman-63"/>
     </defs>
     <g transform="translate(300.7075 31.9571875)scale(0.12 -0.12)">
      <use xlink:href="#BitstreamVeraSans-Roman-70"/>
      <use x="63.4765625" xlink:href="#BitstreamVeraSans-Roman-72"/>
      <use x="104.55859375" xlink:href="#BitstreamVeraSans-Roman-65"/>
      <use x="166.08203125" xlink:href="#BitstreamVeraSans-Roman-63"/>
      <use x="221.0625" xlink:href="#BitstreamVeraSans-Roman-69"/>
      <use x="248.845703125" xlink:href="#BitstreamVeraSans-Roman-73"/>
      <use x="300.9453125" xlink:href="#BitstreamVeraSans-Roman-69"/>
      <use x="328.728515625" xlink:href="#BitstreamVeraSans-Roman-6f"/>
      <use x="389.91015625" xlink:href="#BitstreamVeraSans-Roman-6e"/>
     </g>
    </g>
    <g id="line2d_51">
     <path d="M 270.7075 45.370937 
L 287.5075 45.370937 
" style="fill:none;stroke:#348abd;stroke-linecap:square;"/>
    </g>
    <g id="line2d_52"/>
    <g id="text_18">
     <!-- recall -->
     <defs>
      <path d="M 34.28125 27.484375 
Q 23.390625 27.484375 19.1875 25 
Q 14.984375 22.515625 14.984375 16.5 
Q 14.984375 11.71875 18.140625 8.90625 
Q 21.296875 6.109375 26.703125 6.109375 
Q 34.1875 6.109375 38.703125 11.40625 
Q 43.21875 16.703125 43.21875 25.484375 
L 43.21875 27.484375 
z
M 52.203125 31.203125 
L 52.203125 0 
L 43.21875 0 
L 43.21875 8.296875 
Q 40.140625 3.328125 35.546875 0.953125 
Q 30.953125 -1.421875 24.3125 -1.421875 
Q 15.921875 -1.421875 10.953125 3.296875 
Q 6 8.015625 6 15.921875 
Q 6 25.140625 12.171875 29.828125 
Q 18.359375 34.515625 30.609375 34.515625 
L 43.21875 34.515625 
L 43.21875 35.40625 
Q 43.21875 41.609375 39.140625 45 
Q 35.0625 48.390625 27.6875 48.390625 
Q 23 48.390625 18.546875 47.265625 
Q 14.109375 46.140625 10.015625 43.890625 
L 10.015625 52.203125 
Q 14.9375 54.109375 19.578125 55.046875 
Q 24.21875 56 28.609375 56 
Q 40.484375 56 46.34375 49.84375 
Q 52.203125 43.703125 52.203125 31.203125 
" id="BitstreamVeraSans-Roman-61"/>
      <path d="M 9.421875 75.984375 
L 18.40625 75.984375 
L 18.40625 0 
L 9.421875 0 
z
" id="BitstreamVeraSans-Roman-6c"/>
     </defs>
     <g transform="translate(300.7075 49.5709375)scale(0.12 -0.12)">
      <use xlink:href="#BitstreamVeraSans-Roman-72"/>
      <use x="41.08203125" xlink:href="#BitstreamVeraSans-Roman-65"/>
      <use x="102.60546875" xlink:href="#BitstreamVeraSans-Roman-63"/>
      <use x="157.5859375" xlink:href="#BitstreamVeraSans-Roman-61"/>
      <use x="218.865234375" xlink:href="#BitstreamVeraSans-Roman-6c"/>
      <use x="246.6484375" xlink:href="#BitstreamVeraSans-Roman-6c"/>
     </g>
    </g>
    <g id="line2d_53">
     <path d="M 270.7075 62.984687 
L 287.5075 62.984687 
" style="fill:none;stroke:#988ed5;stroke-linecap:square;"/>
    </g>
    <g id="line2d_54"/>
    <g id="text_19">
     <!-- f1 -->
     <defs>
      <path d="M 37.109375 75.984375 
L 37.109375 68.5 
L 28.515625 68.5 
Q 23.6875 68.5 21.796875 66.546875 
Q 19.921875 64.59375 19.921875 59.515625 
L 19.921875 54.6875 
L 34.71875 54.6875 
L 34.71875 47.703125 
L 19.921875 47.703125 
L 19.921875 0 
L 10.890625 0 
L 10.890625 47.703125 
L 2.296875 47.703125 
L 2.296875 54.6875 
L 10.890625 54.6875 
L 10.890625 58.5 
Q 10.890625 67.625 15.140625 71.796875 
Q 19.390625 75.984375 28.609375 75.984375 
z
" id="BitstreamVeraSans-Roman-66"/>
     </defs>
     <g transform="translate(300.7075 67.1846875)scale(0.12 -0.12)">
      <use xlink:href="#BitstreamVeraSans-Roman-66"/>
      <use x="35.205078125" xlink:href="#BitstreamVeraSans-Roman-31"/>
     </g>
    </g>
   </g>
  </g>
 </g>
 <defs>
  <clipPath id="p151633081b">
   <rect height="223.2" width="334.8" x="31.103125" y="12.0390625"/>
  </clipPath>
 </defs>
</svg>
