<?xml version="1.0" encoding="utf-8" standalone="no"?>
<!DOCTYPE svg PUBLIC "-//W3C//DTD SVG 1.1//EN"
  "http://www.w3.org/Graphics/SVG/1.1/DTD/svg11.dtd">
<!-- Created with matplotlib (http://matplotlib.org/) -->
<svg height="276pt" version="1.1" viewBox="0 0 373 276" width="373pt" xmlns="http://www.w3.org/2000/svg" xmlns:xlink="http://www.w3.org/1999/xlink">
 <defs>
  <style type="text/css">
*{stroke-linecap:butt;stroke-linejoin:round;stroke-miterlimit:100000;}
  </style>
 </defs>
 <g id="figure_1">
  <g id="patch_1">
   <path d="M 0 276.730937 
L 373.103125 276.730937 
L 373.103125 0 
L 0 0 
L 0 276.730937 
z
" style="fill:none;"/>
  </g>
  <g id="axes_1">
   <g id="patch_2">
    <path d="M 31.103125 235.239062 
L 365.903125 235.239062 
L 365.903125 12.039062 
L 31.103125 12.039062 
z
" style="fill:#e5e5e5;"/>
   </g>
   <g id="matplotlib.axis_1">
    <g id="xtick_1">
     <g id="line2d_1">
      <path clip-path="url(#p0afced917d)" d="M 69.920516 235.239062 
L 69.920516 12.039062 
" style="fill:none;stroke:#ffffff;stroke-linecap:square;stroke-width:0.5;"/>
     </g>
     <g id="line2d_2">
      <defs>
       <path d="M 0 0 
L 0 4 
" id="m6f9376aed9" style="stroke:#555555;stroke-width:0.5;"/>
      </defs>
      <g>
       <use style="fill:#555555;stroke:#555555;stroke-width:0.5;" x="69.9205163043" xlink:href="#m6f9376aed9" y="235.2390625"/>
      </g>
     </g>
     <g id="line2d_3">
      <defs>
       <path d="M 0 0 
L 0 -4 
" id="ma8f2ac2482" style="stroke:#555555;stroke-width:0.5;"/>
      </defs>
      <g>
       <use style="fill:#555555;stroke:#555555;stroke-width:0.5;" x="69.9205163043" xlink:href="#ma8f2ac2482" y="12.0390625"/>
      </g>
     </g>
     <g id="text_1">
      <!-- 50 -->
      <defs>
       <path d="M 31.78125 66.40625 
Q 24.171875 66.40625 20.328125 58.90625 
Q 16.5 51.421875 16.5 36.375 
Q 16.5 21.390625 20.328125 13.890625 
Q 24.171875 6.390625 31.78125 6.390625 
Q 39.453125 6.390625 43.28125 13.890625 
Q 47.125 21.390625 47.125 36.375 
Q 47.125 51.421875 43.28125 58.90625 
Q 39.453125 66.40625 31.78125 66.40625 
M 31.78125 74.21875 
Q 44.046875 74.21875 50.515625 64.515625 
Q 56.984375 54.828125 56.984375 36.375 
Q 56.984375 17.96875 50.515625 8.265625 
Q 44.046875 -1.421875 31.78125 -1.421875 
Q 19.53125 -1.421875 13.0625 8.265625 
Q 6.59375 17.96875 6.59375 36.375 
Q 6.59375 54.828125 13.0625 64.515625 
Q 19.53125 74.21875 31.78125 74.21875 
" id="BitstreamVeraSans-Roman-30"/>
       <path d="M 10.796875 72.90625 
L 49.515625 72.90625 
L 49.515625 64.59375 
L 19.828125 64.59375 
L 19.828125 46.734375 
Q 21.96875 47.46875 24.109375 47.828125 
Q 26.265625 48.1875 28.421875 48.1875 
Q 40.625 48.1875 47.75 41.5 
Q 54.890625 34.8125 54.890625 23.390625 
Q 54.890625 11.625 47.5625 5.09375 
Q 40.234375 -1.421875 26.90625 -1.421875 
Q 22.3125 -1.421875 17.546875 -0.640625 
Q 12.796875 0.140625 7.71875 1.703125 
L 7.71875 11.625 
Q 12.109375 9.234375 16.796875 8.0625 
Q 21.484375 6.890625 26.703125 6.890625 
Q 35.15625 6.890625 40.078125 11.328125 
Q 45.015625 15.765625 45.015625 23.390625 
Q 45.015625 31 40.078125 35.4375 
Q 35.15625 39.890625 26.703125 39.890625 
Q 22.75 39.890625 18.8125 39.015625 
Q 14.890625 38.140625 10.796875 36.28125 
z
" id="BitstreamVeraSans-Roman-35"/>
      </defs>
      <g style="fill:#555555;" transform="translate(63.5580163043 250.8375)scale(0.1 -0.1)">
       <use xlink:href="#BitstreamVeraSans-Roman-35"/>
       <use x="63.623046875" xlink:href="#BitstreamVeraSans-Roman-30"/>
      </g>
     </g>
    </g>
    <g id="xtick_2">
     <g id="line2d_4">
      <path clip-path="url(#p0afced917d)" d="M 110.355299 235.239062 
L 110.355299 12.039062 
" style="fill:none;stroke:#ffffff;stroke-linecap:square;stroke-width:0.5;"/>
     </g>
     <g id="line2d_5">
      <g>
       <use style="fill:#555555;stroke:#555555;stroke-width:0.5;" x="110.355298913" xlink:href="#m6f9376aed9" y="235.2390625"/>
      </g>
     </g>
     <g id="line2d_6">
      <g>
       <use style="fill:#555555;stroke:#555555;stroke-width:0.5;" x="110.355298913" xlink:href="#ma8f2ac2482" y="12.0390625"/>
      </g>
     </g>
     <g id="text_2">
      <!-- 100 -->
      <defs>
       <path d="M 12.40625 8.296875 
L 28.515625 8.296875 
L 28.515625 63.921875 
L 10.984375 60.40625 
L 10.984375 69.390625 
L 28.421875 72.90625 
L 38.28125 72.90625 
L 38.28125 8.296875 
L 54.390625 8.296875 
L 54.390625 0 
L 12.40625 0 
z
" id="BitstreamVeraSans-Roman-31"/>
      </defs>
      <g style="fill:#555555;" transform="translate(100.811548913 250.8375)scale(0.1 -0.1)">
       <use xlink:href="#BitstreamVeraSans-Roman-31"/>
       <use x="63.623046875" xlink:href="#BitstreamVeraSans-Roman-30"/>
       <use x="127.24609375" xlink:href="#BitstreamVeraSans-Roman-30"/>
      </g>
     </g>
    </g>
    <g id="xtick_3">
     <g id="line2d_7">
      <path clip-path="url(#p0afced917d)" d="M 150.790082 235.239062 
L 150.790082 12.039062 
" style="fill:none;stroke:#ffffff;stroke-linecap:square;stroke-width:0.5;"/>
     </g>
     <g id="line2d_8">
      <g>
       <use style="fill:#555555;stroke:#555555;stroke-width:0.5;" x="150.790081522" xlink:href="#m6f9376aed9" y="235.2390625"/>
      </g>
     </g>
     <g id="line2d_9">
      <g>
       <use style="fill:#555555;stroke:#555555;stroke-width:0.5;" x="150.790081522" xlink:href="#ma8f2ac2482" y="12.0390625"/>
      </g>
     </g>
     <g id="text_3">
      <!-- 150 -->
      <g style="fill:#555555;" transform="translate(141.246331522 250.8375)scale(0.1 -0.1)">
       <use xlink:href="#BitstreamVeraSans-Roman-31"/>
       <use x="63.623046875" xlink:href="#BitstreamVeraSans-Roman-35"/>
       <use x="127.24609375" xlink:href="#BitstreamVeraSans-Roman-30"/>
      </g>
     </g>
    </g>
    <g id="xtick_4">
     <g id="line2d_10">
      <path clip-path="url(#p0afced917d)" d="M 191.224864 235.239062 
L 191.224864 12.039062 
" style="fill:none;stroke:#ffffff;stroke-linecap:square;stroke-width:0.5;"/>
     </g>
     <g id="line2d_11">
      <g>
       <use style="fill:#555555;stroke:#555555;stroke-width:0.5;" x="191.22486413" xlink:href="#m6f9376aed9" y="235.2390625"/>
      </g>
     </g>
     <g id="line2d_12">
      <g>
       <use style="fill:#555555;stroke:#555555;stroke-width:0.5;" x="191.22486413" xlink:href="#ma8f2ac2482" y="12.0390625"/>
      </g>
     </g>
     <g id="text_4">
      <!-- 200 -->
      <defs>
       <path d="M 19.1875 8.296875 
L 53.609375 8.296875 
L 53.609375 0 
L 7.328125 0 
L 7.328125 8.296875 
Q 12.9375 14.109375 22.625 23.890625 
Q 32.328125 33.6875 34.8125 36.53125 
Q 39.546875 41.84375 41.421875 45.53125 
Q 43.3125 49.21875 43.3125 52.78125 
Q 43.3125 58.59375 39.234375 62.25 
Q 35.15625 65.921875 28.609375 65.921875 
Q 23.96875 65.921875 18.8125 64.3125 
Q 13.671875 62.703125 7.8125 59.421875 
L 7.8125 69.390625 
Q 13.765625 71.78125 18.9375 73 
Q 24.125 74.21875 28.421875 74.21875 
Q 39.75 74.21875 46.484375 68.546875 
Q 53.21875 62.890625 53.21875 53.421875 
Q 53.21875 48.921875 51.53125 44.890625 
Q 49.859375 40.875 45.40625 35.40625 
Q 44.1875 33.984375 37.640625 27.21875 
Q 31.109375 20.453125 19.1875 8.296875 
" id="BitstreamVeraSans-Roman-32"/>
      </defs>
      <g style="fill:#555555;" transform="translate(181.68111413 250.8375)scale(0.1 -0.1)">
       <use xlink:href="#BitstreamVeraSans-Roman-32"/>
       <use x="63.623046875" xlink:href="#BitstreamVeraSans-Roman-30"/>
       <use x="127.24609375" xlink:href="#BitstreamVeraSans-Roman-30"/>
      </g>
     </g>
    </g>
    <g id="xtick_5">
     <g id="line2d_13">
      <path clip-path="url(#p0afced917d)" d="M 231.659647 235.239062 
L 231.659647 12.039062 
" style="fill:none;stroke:#ffffff;stroke-linecap:square;stroke-width:0.5;"/>
     </g>
     <g id="line2d_14">
      <g>
       <use style="fill:#555555;stroke:#555555;stroke-width:0.5;" x="231.659646739" xlink:href="#m6f9376aed9" y="235.2390625"/>
      </g>
     </g>
     <g id="line2d_15">
      <g>
       <use style="fill:#555555;stroke:#555555;stroke-width:0.5;" x="231.659646739" xlink:href="#ma8f2ac2482" y="12.0390625"/>
      </g>
     </g>
     <g id="text_5">
      <!-- 250 -->
      <g style="fill:#555555;" transform="translate(222.115896739 250.8375)scale(0.1 -0.1)">
       <use xlink:href="#BitstreamVeraSans-Roman-32"/>
       <use x="63.623046875" xlink:href="#BitstreamVeraSans-Roman-35"/>
       <use x="127.24609375" xlink:href="#BitstreamVeraSans-Roman-30"/>
      </g>
     </g>
    </g>
    <g id="xtick_6">
     <g id="line2d_16">
      <path clip-path="url(#p0afced917d)" d="M 272.094429 235.239062 
L 272.094429 12.039062 
" style="fill:none;stroke:#ffffff;stroke-linecap:square;stroke-width:0.5;"/>
     </g>
     <g id="line2d_17">
      <g>
       <use style="fill:#555555;stroke:#555555;stroke-width:0.5;" x="272.094429348" xlink:href="#m6f9376aed9" y="235.2390625"/>
      </g>
     </g>
     <g id="line2d_18">
      <g>
       <use style="fill:#555555;stroke:#555555;stroke-width:0.5;" x="272.094429348" xlink:href="#ma8f2ac2482" y="12.0390625"/>
      </g>
     </g>
     <g id="text_6">
      <!-- 300 -->
      <defs>
       <path d="M 40.578125 39.3125 
Q 47.65625 37.796875 51.625 33 
Q 55.609375 28.21875 55.609375 21.1875 
Q 55.609375 10.40625 48.1875 4.484375 
Q 40.765625 -1.421875 27.09375 -1.421875 
Q 22.515625 -1.421875 17.65625 -0.515625 
Q 12.796875 0.390625 7.625 2.203125 
L 7.625 11.71875 
Q 11.71875 9.328125 16.59375 8.109375 
Q 21.484375 6.890625 26.8125 6.890625 
Q 36.078125 6.890625 40.9375 10.546875 
Q 45.796875 14.203125 45.796875 21.1875 
Q 45.796875 27.640625 41.28125 31.265625 
Q 36.765625 34.90625 28.71875 34.90625 
L 20.21875 34.90625 
L 20.21875 43.015625 
L 29.109375 43.015625 
Q 36.375 43.015625 40.234375 45.921875 
Q 44.09375 48.828125 44.09375 54.296875 
Q 44.09375 59.90625 40.109375 62.90625 
Q 36.140625 65.921875 28.71875 65.921875 
Q 24.65625 65.921875 20.015625 65.03125 
Q 15.375 64.15625 9.8125 62.3125 
L 9.8125 71.09375 
Q 15.4375 72.65625 20.34375 73.4375 
Q 25.25 74.21875 29.59375 74.21875 
Q 40.828125 74.21875 47.359375 69.109375 
Q 53.90625 64.015625 53.90625 55.328125 
Q 53.90625 49.265625 50.4375 45.09375 
Q 46.96875 40.921875 40.578125 39.3125 
" id="BitstreamVeraSans-Roman-33"/>
      </defs>
      <g style="fill:#555555;" transform="translate(262.550679348 250.8375)scale(0.1 -0.1)">
       <use xlink:href="#BitstreamVeraSans-Roman-33"/>
       <use x="63.623046875" xlink:href="#BitstreamVeraSans-Roman-30"/>
       <use x="127.24609375" xlink:href="#BitstreamVeraSans-Roman-30"/>
      </g>
     </g>
    </g>
    <g id="xtick_7">
     <g id="line2d_19">
      <path clip-path="url(#p0afced917d)" d="M 312.529212 235.239062 
L 312.529212 12.039062 
" style="fill:none;stroke:#ffffff;stroke-linecap:square;stroke-width:0.5;"/>
     </g>
     <g id="line2d_20">
      <g>
       <use style="fill:#555555;stroke:#555555;stroke-width:0.5;" x="312.529211957" xlink:href="#m6f9376aed9" y="235.2390625"/>
      </g>
     </g>
     <g id="line2d_21">
      <g>
       <use style="fill:#555555;stroke:#555555;stroke-width:0.5;" x="312.529211957" xlink:href="#ma8f2ac2482" y="12.0390625"/>
      </g>
     </g>
     <g id="text_7">
      <!-- 350 -->
      <g style="fill:#555555;" transform="translate(302.985461957 250.8375)scale(0.1 -0.1)">
       <use xlink:href="#BitstreamVeraSans-Roman-33"/>
       <use x="63.623046875" xlink:href="#BitstreamVeraSans-Roman-35"/>
       <use x="127.24609375" xlink:href="#BitstreamVeraSans-Roman-30"/>
      </g>
     </g>
    </g>
    <g id="xtick_8">
     <g id="line2d_22">
      <path clip-path="url(#p0afced917d)" d="M 352.963995 235.239062 
L 352.963995 12.039062 
" style="fill:none;stroke:#ffffff;stroke-linecap:square;stroke-width:0.5;"/>
     </g>
     <g id="line2d_23">
      <g>
       <use style="fill:#555555;stroke:#555555;stroke-width:0.5;" x="352.963994565" xlink:href="#m6f9376aed9" y="235.2390625"/>
      </g>
     </g>
     <g id="line2d_24">
      <g>
       <use style="fill:#555555;stroke:#555555;stroke-width:0.5;" x="352.963994565" xlink:href="#ma8f2ac2482" y="12.0390625"/>
      </g>
     </g>
     <g id="text_8">
      <!-- 400 -->
      <defs>
       <path d="M 37.796875 64.3125 
L 12.890625 25.390625 
L 37.796875 25.390625 
z
M 35.203125 72.90625 
L 47.609375 72.90625 
L 47.609375 25.390625 
L 58.015625 25.390625 
L 58.015625 17.1875 
L 47.609375 17.1875 
L 47.609375 0 
L 37.796875 0 
L 37.796875 17.1875 
L 4.890625 17.1875 
L 4.890625 26.703125 
z
" id="BitstreamVeraSans-Roman-34"/>
      </defs>
      <g style="fill:#555555;" transform="translate(343.420244565 250.8375)scale(0.1 -0.1)">
       <use xlink:href="#BitstreamVeraSans-Roman-34"/>
       <use x="63.623046875" xlink:href="#BitstreamVeraSans-Roman-30"/>
       <use x="127.24609375" xlink:href="#BitstreamVeraSans-Roman-30"/>
      </g>
     </g>
    </g>
    <g id="text_9">
     <!-- x -->
     <defs>
      <path d="M 54.890625 54.6875 
L 35.109375 28.078125 
L 55.90625 0 
L 45.3125 0 
L 29.390625 21.484375 
L 13.484375 0 
L 2.875 0 
L 24.125 28.609375 
L 4.6875 54.6875 
L 15.28125 54.6875 
L 29.78125 35.203125 
L 44.28125 54.6875 
z
" id="BitstreamVeraSans-Roman-78"/>
     </defs>
     <g style="fill:#555555;" transform="translate(194.951875 267.0353125)scale(0.12 -0.12)">
      <use xlink:href="#BitstreamVeraSans-Roman-78"/>
     </g>
    </g>
   </g>
   <g id="matplotlib.axis_2">
    <g id="ytick_1">
     <g id="line2d_25">
      <path clip-path="url(#p0afced917d)" d="M 31.103125 235.239062 
L 365.903125 235.239062 
" style="fill:none;stroke:#ffffff;stroke-linecap:square;stroke-width:0.5;"/>
     </g>
     <g id="line2d_26">
      <defs>
       <path d="M 0 0 
L -4 0 
" id="ma048d1d880" style="stroke:#555555;stroke-width:0.5;"/>
      </defs>
      <g>
       <use style="fill:#555555;stroke:#555555;stroke-width:0.5;" x="31.103125" xlink:href="#ma048d1d880" y="235.2390625"/>
      </g>
     </g>
     <g id="line2d_27">
      <defs>
       <path d="M 0 0 
L 4 0 
" id="mb807bf4d7d" style="stroke:#555555;stroke-width:0.5;"/>
      </defs>
      <g>
       <use style="fill:#555555;stroke:#555555;stroke-width:0.5;" x="365.903125" xlink:href="#mb807bf4d7d" y="235.2390625"/>
      </g>
     </g>
     <g id="text_10">
      <!-- 0.0 -->
      <defs>
       <path d="M 10.6875 12.40625 
L 21 12.40625 
L 21 0 
L 10.6875 0 
z
" id="BitstreamVeraSans-Roman-2e"/>
      </defs>
      <g style="fill:#555555;" transform="translate(7.2 237.9984375)scale(0.1 -0.1)">
       <use xlink:href="#BitstreamVeraSans-Roman-30"/>
       <use x="63.623046875" xlink:href="#BitstreamVeraSans-Roman-2e"/>
       <use x="95.41015625" xlink:href="#BitstreamVeraSans-Roman-30"/>
      </g>
     </g>
    </g>
    <g id="ytick_2">
     <g id="line2d_28">
      <path clip-path="url(#p0afced917d)" d="M 31.103125 190.599063 
L 365.903125 190.599063 
" style="fill:none;stroke:#ffffff;stroke-linecap:square;stroke-width:0.5;"/>
     </g>
     <g id="line2d_29">
      <g>
       <use style="fill:#555555;stroke:#555555;stroke-width:0.5;" x="31.103125" xlink:href="#ma048d1d880" y="190.5990625"/>
      </g>
     </g>
     <g id="line2d_30">
      <g>
       <use style="fill:#555555;stroke:#555555;stroke-width:0.5;" x="365.903125" xlink:href="#mb807bf4d7d" y="190.5990625"/>
      </g>
     </g>
     <g id="text_11">
      <!-- 0.2 -->
      <g style="fill:#555555;" transform="translate(7.2 193.3584375)scale(0.1 -0.1)">
       <use xlink:href="#BitstreamVeraSans-Roman-30"/>
       <use x="63.623046875" xlink:href="#BitstreamVeraSans-Roman-2e"/>
       <use x="95.41015625" xlink:href="#BitstreamVeraSans-Roman-32"/>
      </g>
     </g>
    </g>
    <g id="ytick_3">
     <g id="line2d_31">
      <path clip-path="url(#p0afced917d)" d="M 31.103125 145.959062 
L 365.903125 145.959062 
" style="fill:none;stroke:#ffffff;stroke-linecap:square;stroke-width:0.5;"/>
     </g>
     <g id="line2d_32">
      <g>
       <use style="fill:#555555;stroke:#555555;stroke-width:0.5;" x="31.103125" xlink:href="#ma048d1d880" y="145.9590625"/>
      </g>
     </g>
     <g id="line2d_33">
      <g>
       <use style="fill:#555555;stroke:#555555;stroke-width:0.5;" x="365.903125" xlink:href="#mb807bf4d7d" y="145.9590625"/>
      </g>
     </g>
     <g id="text_12">
      <!-- 0.4 -->
      <g style="fill:#555555;" transform="translate(7.2 148.7184375)scale(0.1 -0.1)">
       <use xlink:href="#BitstreamVeraSans-Roman-30"/>
       <use x="63.623046875" xlink:href="#BitstreamVeraSans-Roman-2e"/>
       <use x="95.41015625" xlink:href="#BitstreamVeraSans-Roman-34"/>
      </g>
     </g>
    </g>
    <g id="ytick_4">
     <g id="line2d_34">
      <path clip-path="url(#p0afced917d)" d="M 31.103125 101.319062 
L 365.903125 101.319062 
" style="fill:none;stroke:#ffffff;stroke-linecap:square;stroke-width:0.5;"/>
     </g>
     <g id="line2d_35">
      <g>
       <use style="fill:#555555;stroke:#555555;stroke-width:0.5;" x="31.103125" xlink:href="#ma048d1d880" y="101.3190625"/>
      </g>
     </g>
     <g id="line2d_36">
      <g>
       <use style="fill:#555555;stroke:#555555;stroke-width:0.5;" x="365.903125" xlink:href="#mb807bf4d7d" y="101.3190625"/>
      </g>
     </g>
     <g id="text_13">
      <!-- 0.6 -->
      <defs>
       <path d="M 33.015625 40.375 
Q 26.375 40.375 22.484375 35.828125 
Q 18.609375 31.296875 18.609375 23.390625 
Q 18.609375 15.53125 22.484375 10.953125 
Q 26.375 6.390625 33.015625 6.390625 
Q 39.65625 6.390625 43.53125 10.953125 
Q 47.40625 15.53125 47.40625 23.390625 
Q 47.40625 31.296875 43.53125 35.828125 
Q 39.65625 40.375 33.015625 40.375 
M 52.59375 71.296875 
L 52.59375 62.3125 
Q 48.875 64.0625 45.09375 64.984375 
Q 41.3125 65.921875 37.59375 65.921875 
Q 27.828125 65.921875 22.671875 59.328125 
Q 17.53125 52.734375 16.796875 39.40625 
Q 19.671875 43.65625 24.015625 45.921875 
Q 28.375 48.1875 33.59375 48.1875 
Q 44.578125 48.1875 50.953125 41.515625 
Q 57.328125 34.859375 57.328125 23.390625 
Q 57.328125 12.15625 50.6875 5.359375 
Q 44.046875 -1.421875 33.015625 -1.421875 
Q 20.359375 -1.421875 13.671875 8.265625 
Q 6.984375 17.96875 6.984375 36.375 
Q 6.984375 53.65625 15.1875 63.9375 
Q 23.390625 74.21875 37.203125 74.21875 
Q 40.921875 74.21875 44.703125 73.484375 
Q 48.484375 72.75 52.59375 71.296875 
" id="BitstreamVeraSans-Roman-36"/>
      </defs>
      <g style="fill:#555555;" transform="translate(7.2 104.0784375)scale(0.1 -0.1)">
       <use xlink:href="#BitstreamVeraSans-Roman-30"/>
       <use x="63.623046875" xlink:href="#BitstreamVeraSans-Roman-2e"/>
       <use x="95.41015625" xlink:href="#BitstreamVeraSans-Roman-36"/>
      </g>
     </g>
    </g>
    <g id="ytick_5">
     <g id="line2d_37">
      <path clip-path="url(#p0afced917d)" d="M 31.103125 56.679062 
L 365.903125 56.679062 
" style="fill:none;stroke:#ffffff;stroke-linecap:square;stroke-width:0.5;"/>
     </g>
     <g id="line2d_38">
      <g>
       <use style="fill:#555555;stroke:#555555;stroke-width:0.5;" x="31.103125" xlink:href="#ma048d1d880" y="56.6790625"/>
      </g>
     </g>
     <g id="line2d_39">
      <g>
       <use style="fill:#555555;stroke:#555555;stroke-width:0.5;" x="365.903125" xlink:href="#mb807bf4d7d" y="56.6790625"/>
      </g>
     </g>
     <g id="text_14">
      <!-- 0.8 -->
      <defs>
       <path d="M 31.78125 34.625 
Q 24.75 34.625 20.71875 30.859375 
Q 16.703125 27.09375 16.703125 20.515625 
Q 16.703125 13.921875 20.71875 10.15625 
Q 24.75 6.390625 31.78125 6.390625 
Q 38.8125 6.390625 42.859375 10.171875 
Q 46.921875 13.96875 46.921875 20.515625 
Q 46.921875 27.09375 42.890625 30.859375 
Q 38.875 34.625 31.78125 34.625 
M 21.921875 38.8125 
Q 15.578125 40.375 12.03125 44.71875 
Q 8.5 49.078125 8.5 55.328125 
Q 8.5 64.0625 14.71875 69.140625 
Q 20.953125 74.21875 31.78125 74.21875 
Q 42.671875 74.21875 48.875 69.140625 
Q 55.078125 64.0625 55.078125 55.328125 
Q 55.078125 49.078125 51.53125 44.71875 
Q 48 40.375 41.703125 38.8125 
Q 48.828125 37.15625 52.796875 32.3125 
Q 56.78125 27.484375 56.78125 20.515625 
Q 56.78125 9.90625 50.3125 4.234375 
Q 43.84375 -1.421875 31.78125 -1.421875 
Q 19.734375 -1.421875 13.25 4.234375 
Q 6.78125 9.90625 6.78125 20.515625 
Q 6.78125 27.484375 10.78125 32.3125 
Q 14.796875 37.15625 21.921875 38.8125 
M 18.3125 54.390625 
Q 18.3125 48.734375 21.84375 45.5625 
Q 25.390625 42.390625 31.78125 42.390625 
Q 38.140625 42.390625 41.71875 45.5625 
Q 45.3125 48.734375 45.3125 54.390625 
Q 45.3125 60.0625 41.71875 63.234375 
Q 38.140625 66.40625 31.78125 66.40625 
Q 25.390625 66.40625 21.84375 63.234375 
Q 18.3125 60.0625 18.3125 54.390625 
" id="BitstreamVeraSans-Roman-38"/>
      </defs>
      <g style="fill:#555555;" transform="translate(7.2 59.4384375)scale(0.1 -0.1)">
       <use xlink:href="#BitstreamVeraSans-Roman-30"/>
       <use x="63.623046875" xlink:href="#BitstreamVeraSans-Roman-2e"/>
       <use x="95.41015625" xlink:href="#BitstreamVeraSans-Roman-38"/>
      </g>
     </g>
    </g>
    <g id="ytick_6">
     <g id="line2d_40">
      <path clip-path="url(#p0afced917d)" d="M 31.103125 12.039062 
L 365.903125 12.039062 
" style="fill:none;stroke:#ffffff;stroke-linecap:square;stroke-width:0.5;"/>
     </g>
     <g id="line2d_41">
      <g>
       <use style="fill:#555555;stroke:#555555;stroke-width:0.5;" x="31.103125" xlink:href="#ma048d1d880" y="12.0390625"/>
      </g>
     </g>
     <g id="line2d_42">
      <g>
       <use style="fill:#555555;stroke:#555555;stroke-width:0.5;" x="365.903125" xlink:href="#mb807bf4d7d" y="12.0390625"/>
      </g>
     </g>
     <g id="text_15">
      <!-- 1.0 -->
      <g style="fill:#555555;" transform="translate(7.2 14.7984375)scale(0.1 -0.1)">
       <use xlink:href="#BitstreamVeraSans-Roman-31"/>
       <use x="63.623046875" xlink:href="#BitstreamVeraSans-Roman-2e"/>
       <use x="95.41015625" xlink:href="#BitstreamVeraSans-Roman-30"/>
      </g>
     </g>
    </g>
   </g>
   <g id="line2d_43">
    <path clip-path="url(#p0afced917d)" d="M 31.103125 235.239062 
L 31.103125 190.599063 
L 31.103125 160.839063 
L 32.720516 139.58192 
L 32.720516 151.539062 
L 32.720516 151.539062 
L 32.720516 151.539062 
L 32.720516 136.039062 
L 32.720516 145.959062 
L 33.529212 154.075426 
L 33.529212 160.839063 
L 33.529212 160.839063 
L 33.529212 160.839063 
L 33.529212 111.239062 
L 33.529212 112.479062 
L 34.337908 107.696205 
L 34.337908 99.378193 
L 34.337908 105.039062 
L 34.337908 105.039062 
L 34.337908 123.639062 
L 34.337908 120.257244 
L 35.146603 117.074357 
L 35.146603 123.639062 
L 35.146603 123.639062 
L 35.955299 121.043714 
L 35.955299 123.639062 
L 35.955299 121.264594 
L 35.955299 121.264594 
L 35.955299 116.806409 
L 35.955299 117.074357 
L 36.763995 115.054447 
L 36.763995 113.110761 
L 36.763995 113.110761 
L 36.763995 113.110761 
L 36.763995 119.790787 
L 36.763995 115.054447 
L 37.57269 116.875426 
L 37.57269 118.642048 
L 37.57269 117.074357 
L 37.57269 117.074357 
L 37.57269 111.891694 
L 38.381386 113.493608 
L 38.381386 115.054447 
L 38.381386 113.750455 
L 38.381386 113.750455 
L 38.381386 112.479062 
L 38.381386 112.479062 
L 38.381386 112.479062 
L 38.381386 114.227014 
L 39.190082 113.010491 
L 39.190082 111.822592 
L 39.190082 111.822592 
L 39.190082 111.822592 
L 39.190082 113.257667 
L 39.190082 112.094235 
L 39.190082 112.094235 
L 39.190082 110.957244 
L 39.190082 110.957244 
L 39.190082 110.957244 
L 39.190082 112.6017 
L 39.190082 111.508628 
L 39.190082 111.508628 
L 39.190082 107.696205 
L 39.998777 108.984517 
L 39.998777 114.252147 
L 40.807473 115.372396 
L 40.807473 119.723273 
L 41.616168 118.786889 
L 41.616168 124.54638 
L 42.424864 123.639062 
L 42.424864 121.002842 
L 42.424864 122.787154 
L 42.424864 122.787154 
L 42.424864 123.639062 
L 43.23356 122.799965 
L 43.23356 121.973391 
L 43.23356 121.973391 
L 43.23356 121.973391 
L 43.23356 123.639062 
L 43.23356 122.021671 
L 43.23356 122.021671 
L 43.23356 121.230429 
L 43.23356 121.230429 
L 43.23356 121.230429 
L 43.23356 122.110295 
L 44.042255 122.879879 
L 44.042255 121.392083 
L 44.042255 122.151062 
L 44.042255 122.151062 
L 44.042255 125.799063 
L 44.042255 125.771547 
L 44.850951 126.464379 
L 44.850951 129.801026 
L 45.659647 130.443941 
L 45.659647 129.726335 
L 45.659647 130.361954 
L 45.659647 130.361954 
L 45.659647 131.610491 
L 45.659647 131.51671 
L 46.468342 130.81801 
L 46.468342 135.35398 
L 47.277038 135.902799 
L 47.277038 134.556454 
L 47.277038 135.100684 
L 48.085734 135.639062 
L 48.085734 134.9781 
L 48.085734 135.511403 
L 48.085734 135.511403 
L 48.085734 136.039062 
L 48.085734 136.039062 
L 48.085734 136.039062 
L 48.085734 135.386431 
L 48.085734 135.90922 
L 48.085734 135.90922 
L 48.085734 138.934494 
L 48.894429 139.420881 
L 48.894429 138.630107 
L 48.894429 139.108369 
L 48.894429 139.108369 
L 48.894429 140.050827 
L 49.703125 139.42638 
L 49.703125 143.272396 
L 50.511821 143.696205 
L 50.511821 144.944517 
L 51.320516 145.35309 
L 51.320516 146.951062 
L 51.320516 146.354107 
L 52.129212 146.74567 
L 52.129212 146.154852 
L 52.129212 146.543866 
L 52.129212 146.543866 
L 52.129212 149.174656 
L 52.937908 149.537797 
L 52.937908 150.38617 
L 53.746603 150.735359 
L 53.746603 153.193213 
L 54.555299 153.516228 
L 54.555299 155.402139 
L 55.363995 155.708028 
L 55.363995 157.243523 
L 56.17269 157.532396 
L 56.17269 157.819136 
L 56.17269 157.819136 
L 56.17269 157.819136 
L 56.17269 157.28318 
L 56.17269 157.568733 
L 56.17269 157.568733 
L 56.17269 160.047573 
L 56.981386 160.313267 
L 56.981386 163.116614 
L 57.790082 163.361096 
L 57.790082 165.944945 
L 58.598777 166.170659 
L 58.598777 169.182988 
L 59.407473 169.388131 
L 59.407473 171.754033 
L 60.216168 171.94354 
L 60.216168 173.955826 
L 60.216168 173.666649 
L 61.024864 173.843074 
L 61.024864 176.534405 
L 61.83356 176.6948 
L 61.83356 178.999692 
L 62.642255 179.146916 
L 62.642255 180.716925 
L 63.450951 180.855306 
L 63.450951 182.592379 
L 64.259647 182.721415 
L 64.259647 182.84982 
L 64.259647 182.84982 
L 64.259647 182.84982 
L 64.259647 182.433209 
L 64.259647 182.816786 
L 64.259647 182.816786 
L 64.259647 183.812934 
L 65.068342 183.934797 
L 65.068342 185.122396 
L 65.068342 184.954925 
L 65.877038 185.070255 
L 65.877038 186.414062 
L 65.877038 186.025699 
L 66.685734 186.243941 
L 66.685734 188.224594 
L 67.494429 188.423808 
L 67.494429 189.584517 
L 68.303125 189.772396 
L 68.303125 191.309043 
L 69.111821 191.483023 
L 69.111821 192.581147 
L 69.920516 192.745216 
L 69.920516 193.546987 
L 70.729212 193.703724 
L 70.729212 194.694475 
L 71.537908 194.842719 
L 71.537908 196.129682 
L 72.346603 196.267634 
L 72.346603 197.723273 
L 73.155299 197.85023 
L 73.155299 198.594286 
L 73.963995 198.715426 
L 73.963995 199.94066 
L 74.77269 200.053075 
L 74.77269 200.980458 
L 75.581386 201.139062 
L 75.581386 202.209466 
L 76.390082 202.35692 
L 76.390082 203.027984 
L 77.198777 203.168235 
L 77.198777 203.896084 
L 78.007473 204.028893 
L 78.007473 204.506378 
L 78.816168 204.634076 
L 78.816168 205.815893 
L 79.624864 205.932962 
L 79.624864 206.653293 
L 80.43356 206.800452 
L 80.43356 207.583493 
L 81.242255 207.721254 
L 81.242255 208.324568 
L 82.050951 208.455062 
L 82.050951 208.901995 
L 82.859647 209.026963 
L 82.859647 209.515198 
L 83.668342 209.634428 
L 83.668342 210.299108 
L 84.477038 210.411197 
L 84.477038 211.168474 
L 85.285734 211.298867 
L 85.285734 211.75681 
L 86.094429 211.880923 
L 86.094429 212.317071 
L 86.903125 212.435347 
L 86.903125 212.941585 
L 87.711821 213.05352 
L 87.711821 213.532972 
L 88.520516 213.660156 
L 88.520516 214.274357 
L 89.329212 214.393025 
L 89.329212 214.966769 
L 90.137908 215.096127 
L 90.137908 215.439062 
L 90.946603 215.562482 
L 90.946603 215.906779 
L 91.755299 216.024454 
L 91.755299 216.449267 
L 92.563995 216.576225 
L 92.563995 216.916674 
L 93.37269 217.037415 
L 93.37269 217.346917 
L 94.181386 217.462071 
L 94.181386 218.029717 
L 94.990082 218.149503 
L 94.990082 218.46093 
L 95.798777 218.574809 
L 95.798777 218.919417 
L 96.607473 219.039062 
L 96.607473 219.284694 
L 97.416168 219.399062 
L 97.416168 219.840596 
L 98.224864 219.957735 
L 98.224864 220.248018 
L 99.03356 220.369076 
L 99.03356 220.644082 
L 99.842255 220.758853 
L 99.842255 221.056264 
L 100.650951 221.173626 
L 100.650951 221.411278 
L 101.459647 221.522861 
L 101.459647 221.781815 
L 102.268342 221.895584 
L 102.268342 222.09403 
L 103.077038 222.210289 
L 103.077038 222.473725 
L 103.885734 222.590637 
L 103.885734 222.790161 
L 104.694429 222.908259 
L 104.694429 223.190644 
L 105.503125 223.307745 
L 105.503125 223.485445 
L 106.311821 223.596913 
L 106.311821 223.778067 
L 107.120516 223.88991 
L 107.120516 224.050809 
L 107.929212 224.162972 
L 107.929212 224.364653 
L 108.737908 224.475887 
L 108.737908 224.671487 
L 109.546603 224.786461 
L 109.546603 224.956699 
L 110.355299 225.070264 
L 110.355299 225.199626 
L 111.163995 225.312378 
L 111.163995 225.435691 
L 111.97269 225.547484 
L 111.97269 225.694009 
L 112.781386 225.808077 
L 112.781386 225.966381 
L 113.590082 226.077868 
L 113.590082 226.216278 
L 114.398777 226.329062 
L 114.398777 226.470491 
L 115.207473 226.583833 
L 115.207473 226.766363 
L 116.016168 226.878563 
L 116.016168 227.009342 
L 116.824864 227.121208 
L 116.824864 227.22717 
L 117.63356 227.338884 
L 117.63356 227.496666 
L 118.442255 227.608952 
L 118.442255 227.720587 
L 119.250951 227.833969 
L 119.250951 227.948795 
L 120.059647 228.060115 
L 120.059647 228.145387 
L 120.868342 228.257451 
L 120.868342 228.318674 
L 121.677038 228.431669 
L 121.677038 228.45466 
L 122.485734 228.567323 
L 122.485734 228.615321 
L 123.294429 228.726596 
L 123.294429 228.772337 
L 124.103125 228.883929 
L 124.103125 228.938293 
L 124.911821 229.049483 
L 124.911821 229.089104 
L 125.720516 229.201685 
L 125.720516 229.226328 
L 126.529212 229.338715 
L 126.529212 229.402612 
L 127.337908 229.514503 
L 127.337908 229.541074 
L 128.146603 229.65342 
L 128.146603 229.712099 
L 128.955299 229.824507 
L 128.955299 229.854852 
L 129.763995 229.966622 
L 129.763995 229.995399 
L 130.57269 230.107432 
L 130.57269 230.127612 
L 131.381386 230.239786 
L 131.381386 230.246564 
L 132.190082 230.357949 
L 132.190082 230.359027 
L 133.807473 230.471684 
L 133.807473 230.609521 
L 135.424864 230.722137 
L 135.424864 230.816164 
L 137.042255 230.928333 
L 137.042255 231.025333 
L 138.659647 231.137949 
L 138.659647 231.222193 
L 140.277038 231.334344 
L 140.277038 231.421371 
L 141.894429 231.533411 
L 141.894429 231.59092 
L 143.511821 231.703009 
L 143.511821 231.737747 
L 145.129212 231.849463 
L 145.129212 231.876798 
L 146.746603 231.988577 
L 146.746603 232.017015 
L 148.363995 232.129027 
L 148.363995 232.149897 
L 149.981386 232.26186 
L 149.981386 232.279009 
L 151.598777 232.390803 
L 151.598777 232.391537 
L 153.216168 232.503294 
L 153.216168 232.511736 
L 155.642255 232.623747 
L 155.642255 232.653432 
L 158.068342 232.765448 
L 158.068342 232.778394 
L 160.494429 232.890088 
L 160.494429 232.900282 
L 163.729212 233.012236 
L 163.729212 233.040157 
L 166.963995 233.152096 
L 166.963995 233.156816 
L 171.007473 233.268773 
L 171.007473 233.291693 
L 175.050951 233.403628 
L 175.050951 233.408493 
L 179.903125 233.520403 
L 179.903125 233.521606 
L 186.37269 233.633774 
L 186.37269 233.644547 
L 194.459647 233.756752 
L 194.459647 233.759432 
L 205.781386 233.871855 
L 205.781386 233.875315 
L 225.190082 233.988432 
L 225.190082 233.991508 
L 265.624864 234.106068 
L 265.624864 234.107331 
L 365.903125 234.176458 
L 365.903125 234.176458 
" style="fill:none;stroke:#e24a33;stroke-linecap:square;"/>
   </g>
   <g id="line2d_44">
    <path clip-path="url(#p0afced917d)" d="M 31.103125 235.239062 
L 31.103125 233.007062 
L 31.103125 230.775062 
L 32.720516 228.543062 
L 32.720516 226.311062 
L 32.720516 226.311062 
L 33.529212 226.311062 
L 33.529212 226.311062 
L 33.529212 210.687062 
L 34.337908 208.455062 
L 34.337908 197.295062 
L 34.337908 197.295062 
L 35.146603 195.063063 
L 35.146603 195.063063 
L 35.146603 188.367063 
L 35.146603 188.367063 
L 35.955299 186.135063 
L 35.955299 186.135063 
L 35.955299 174.975062 
L 36.763995 172.743062 
L 36.763995 157.119062 
L 37.57269 157.119062 
L 37.57269 157.119062 
L 37.57269 141.495063 
L 38.381386 141.495063 
L 38.381386 141.495063 
L 38.381386 134.799062 
L 38.381386 134.799062 
L 39.190082 132.567062 
L 39.190082 110.247062 
L 39.998777 110.247062 
L 39.998777 110.247062 
L 39.998777 105.783062 
L 39.998777 105.783062 
L 40.807473 105.783062 
L 40.807473 105.783062 
L 40.807473 103.551063 
L 40.807473 103.551063 
L 41.616168 101.319063 
L 41.616168 101.319063 
L 41.616168 99.087063 
L 41.616168 99.087063 
L 42.424864 96.855063 
L 42.424864 87.927062 
L 42.424864 87.927062 
L 43.23356 85.695062 
L 43.23356 70.071063 
L 43.23356 70.071063 
L 44.042255 70.071063 
L 44.042255 63.375062 
L 44.042255 63.375062 
L 45.659647 63.375062 
L 45.659647 58.911062 
L 45.659647 58.911062 
L 46.468342 56.679062 
L 46.468342 56.679062 
L 46.468342 54.447062 
L 46.468342 54.447062 
L 47.277038 54.447062 
L 47.277038 49.983063 
L 47.277038 49.983063 
L 48.085734 49.983063 
L 48.085734 45.519062 
L 48.085734 45.519062 
L 48.894429 45.519062 
L 48.894429 41.055062 
L 48.894429 41.055062 
L 49.703125 38.823062 
L 49.703125 38.823062 
L 49.703125 36.591062 
L 49.703125 36.591062 
L 51.320516 36.591062 
L 51.320516 36.591062 
L 51.320516 34.359062 
L 52.129212 34.359062 
L 52.129212 32.127062 
L 52.129212 32.127062 
L 52.937908 32.127062 
L 52.937908 32.127062 
L 52.937908 29.895062 
L 52.937908 29.895062 
L 53.746603 29.895062 
L 53.746603 29.895062 
L 53.746603 27.663062 
L 53.746603 27.663062 
L 55.363995 27.663062 
L 55.363995 27.663062 
L 55.363995 25.431063 
L 55.363995 25.431063 
L 56.17269 25.431063 
L 56.17269 25.431063 
L 56.17269 23.199062 
L 56.17269 23.199062 
L 60.216168 23.199062 
L 60.216168 23.199062 
L 60.216168 20.967062 
L 60.216168 20.967062 
L 64.259647 20.967062 
L 64.259647 20.967062 
L 64.259647 18.735062 
L 64.259647 18.735062 
L 65.068342 18.735062 
L 65.068342 18.735062 
L 65.068342 16.503062 
L 65.068342 16.503062 
L 65.877038 16.503062 
L 65.877038 16.503062 
L 65.877038 14.271062 
L 213.059647 14.271062 
L 213.059647 14.271062 
L 213.059647 12.039062 
L 213.059647 12.039062 
L 365.903125 12.039062 
L 365.903125 12.039062 
" style="fill:none;stroke:#348abd;stroke-linecap:square;"/>
   </g>
   <g id="line2d_45">
    <path clip-path="url(#p0afced917d)" d="M 31.103125 235.239062 
L 31.103125 230.987634 
L 31.103125 226.816421 
L 32.720516 222.723175 
L 32.720516 222.839062 
L 32.720516 218.857411 
L 32.720516 219.006335 
L 33.529212 219.152576 
L 33.529212 219.296205 
L 33.529212 219.296205 
L 33.529212 219.296205 
L 33.529212 194.319062 
L 34.337908 190.967988 
L 34.337908 177.748153 
L 34.337908 178.180416 
L 35.146603 175.274883 
L 35.146603 175.719063 
L 35.146603 175.719063 
L 35.146603 175.719063 
L 35.146603 168.753956 
L 35.146603 169.222161 
L 35.955299 166.562139 
L 35.955299 167.039062 
L 35.955299 167.039062 
L 35.955299 167.039062 
L 35.955299 155.419195 
L 36.763995 153.007484 
L 36.763995 140.548153 
L 37.57269 141.118581 
L 37.57269 141.682176 
L 37.57269 141.682176 
L 37.57269 141.682176 
L 37.57269 128.71179 
L 38.381386 129.313639 
L 38.381386 129.908725 
L 38.381386 129.908725 
L 38.381386 129.908725 
L 38.381386 124.865436 
L 38.381386 125.468571 
L 39.190082 123.639062 
L 39.190082 108.984517 
L 39.998777 109.618962 
L 39.998777 110.868913 
L 39.998777 110.868913 
L 39.998777 110.868913 
L 39.998777 109.274706 
L 39.998777 110.509651 
L 39.998777 110.509651 
L 39.998777 111.118087 
L 39.998777 111.118087 
L 39.998777 111.118087 
L 39.998777 109.553626 
L 39.998777 110.160802 
L 40.807473 110.762139 
L 40.807473 113.110761 
L 40.807473 112.166165 
L 41.616168 110.662318 
L 41.616168 113.493608 
L 41.616168 113.129645 
L 42.424864 111.68192 
L 42.424864 106.582294 
L 42.424864 108.245959 
L 43.23356 106.875114 
L 43.23356 100.408042 
L 43.23356 100.956136 
L 44.042255 101.499791 
L 44.042255 98.98846 
L 44.042255 101.14262 
L 44.042255 101.14262 
L 44.042255 102.194357 
L 44.042255 102.194357 
L 44.042255 102.194357 
L 44.042255 100.970312 
L 44.042255 101.492759 
L 44.850951 102.011156 
L 44.850951 104.544005 
L 45.659647 105.039062 
L 45.659647 103.845855 
L 45.659647 104.830074 
L 45.659647 104.830074 
L 45.659647 105.316674 
L 45.659647 105.316674 
L 45.659647 105.316674 
L 45.659647 104.140178 
L 45.659647 104.625729 
L 46.468342 103.460465 
L 46.468342 106.561482 
L 47.277038 107.017786 
L 47.277038 104.777091 
L 47.277038 105.234852 
L 48.085734 105.689412 
L 48.085734 104.397683 
L 48.085734 105.293857 
L 48.085734 105.293857 
L 48.085734 107.481487 
L 48.894429 107.910203 
L 48.894429 106.213149 
L 48.894429 107.486431 
L 49.703125 106.441685 
L 49.703125 109.51248 
L 50.511821 109.909094 
L 50.511821 111.084062 
L 51.320516 111.470838 
L 51.320516 112.994139 
L 51.320516 111.999799 
L 52.129212 112.376677 
L 52.129212 111.390282 
L 52.129212 112.140881 
L 52.129212 112.140881 
L 52.129212 114.339062 
L 52.937908 114.697816 
L 52.937908 115.408974 
L 52.937908 115.408974 
L 52.937908 115.408974 
L 52.937908 114.448474 
L 52.937908 115.154852 
L 53.746603 115.504952 
L 53.746603 117.632264 
L 54.555299 117.964486 
L 54.555299 119.919062 
L 55.363995 120.238508 
L 55.363995 120.87212 
L 55.363995 120.87212 
L 55.363995 120.87212 
L 55.363995 119.959942 
L 55.363995 120.589882 
L 55.363995 120.589882 
L 55.363995 121.521989 
L 56.17269 121.829333 
L 56.17269 122.135019 
L 56.17269 122.135019 
L 56.17269 122.135019 
L 56.17269 121.239063 
L 56.17269 121.848688 
L 56.17269 121.848688 
L 56.17269 124.223356 
L 56.981386 124.513214 
L 56.981386 127.604545 
L 57.790082 127.877037 
L 57.790082 130.785861 
L 58.598777 131.042502 
L 58.598777 134.507471 
L 59.407473 134.746172 
L 59.407473 137.524777 
L 60.216168 137.749407 
L 60.216168 140.153861 
L 60.216168 139.58192 
L 61.024864 139.794965 
L 61.024864 143.079062 
L 61.83356 143.276831 
L 61.83356 146.144676 
L 62.642255 146.329519 
L 62.642255 148.313302 
L 63.450951 148.489265 
L 63.450951 150.713619 
L 64.259647 150.880007 
L 64.259647 151.045742 
L 64.259647 151.045742 
L 64.259647 151.045742 
L 64.259647 150.335533 
L 64.259647 150.996261 
L 64.259647 150.996261 
L 64.259647 152.128122 
L 65.068342 152.287338 
L 65.068342 153.846581 
L 65.068342 153.468595 
L 65.877038 153.621152 
L 65.877038 155.408406 
L 65.877038 154.740702 
L 66.685734 154.887063 
L 66.685734 157.706431 
L 67.494429 157.842215 
L 67.494429 159.56509 
L 68.303125 159.694447 
L 68.303125 161.94951 
L 69.111821 162.070851 
L 69.111821 163.728383 
L 69.920516 163.843909 
L 69.920516 165.090491 
L 70.729212 165.31248 
L 70.729212 166.721853 
L 71.537908 166.933653 
L 71.537908 168.782521 
L 72.346603 168.981791 
L 72.346603 171.097408 
L 73.155299 171.283057 
L 73.155299 172.374767 
L 73.963995 172.553105 
L 73.963995 174.366335 
L 74.77269 174.533568 
L 74.77269 175.918794 
L 75.581386 176.077617 
L 75.581386 177.770142 
L 76.390082 177.919218 
L 76.390082 179.013108 
L 77.198777 179.155814 
L 77.198777 180.340181 
L 78.007473 180.476237 
L 78.007473 181.278623 
L 78.816168 181.410073 
L 78.816168 183.307688 
L 79.624864 183.429449 
L 79.624864 184.616382 
L 80.43356 184.732091 
L 80.43356 186.080442 
L 81.242255 186.243941 
L 81.242255 187.254698 
L 82.050951 187.410491 
L 82.050951 188.174526 
L 82.859647 188.324413 
L 82.859647 189.156059 
L 83.668342 189.299769 
L 83.668342 190.417967 
L 84.477038 190.553926 
L 84.477038 191.826882 
L 85.285734 191.95444 
L 85.285734 192.786037 
L 86.094429 192.908028 
L 86.094429 193.703724 
L 86.903125 193.820506 
L 86.903125 194.731638 
L 87.711821 194.87961 
L 87.711821 195.709903 
L 88.520516 195.850827 
L 88.520516 196.943049 
L 89.329212 197.075332 
L 89.329212 198.101584 
L 90.137908 198.225997 
L 90.137908 198.895641 
L 90.946603 199.0148 
L 90.946603 199.68508 
L 91.755299 199.799127 
L 91.755299 200.60458 
L 92.563995 200.739765 
L 92.563995 201.400165 
L 93.37269 201.529223 
L 93.37269 202.135242 
L 94.181386 202.258764 
L 94.181386 203.307271 
L 94.990082 203.422216 
L 94.990082 204.050919 
L 95.798777 204.182422 
L 95.798777 204.844565 
L 96.607473 204.969473 
L 96.607473 205.479062 
L 97.416168 205.598821 
L 97.416168 206.448444 
L 98.224864 206.560542 
L 98.224864 207.161807 
L 99.03356 207.286121 
L 99.03356 207.85765 
L 99.842255 207.975892 
L 99.842255 208.584298 
L 100.650951 208.69636 
L 100.650951 209.212207 
L 101.459647 209.334256 
L 101.459647 209.869602 
L 102.268342 209.985577 
L 102.268342 210.425138 
L 103.077038 210.5499 
L 103.077038 211.102744 
L 103.885734 211.220802 
L 103.885734 211.669142 
L 104.694429 211.781738 
L 104.694429 212.388183 
L 105.503125 212.505729 
L 105.503125 212.919062 
L 106.311821 213.031223 
L 106.311821 213.447347 
L 107.120516 213.564909 
L 107.120516 213.940942 
L 107.929212 214.053252 
L 107.929212 214.510357 
L 108.737908 214.626376 
L 108.737908 215.068547 
L 109.546603 215.18752 
L 109.546603 215.588729 
L 110.355299 215.701662 
L 110.355299 216.032804 
L 111.163995 216.148955 
L 111.163995 216.465231 
L 111.97269 216.584103 
L 111.97269 216.939435 
L 112.781386 217.052396 
L 112.781386 217.440593 
L 113.590082 217.554549 
L 113.590082 217.90144 
L 114.398777 218.016303 
L 114.398777 218.371276 
L 115.207473 218.486371 
L 115.207473 218.919417 
L 116.016168 219.033122 
L 116.016168 219.370624 
L 116.824864 219.483768 
L 116.824864 219.775941 
L 117.63356 219.888733 
L 117.63356 220.278467 
L 118.442255 220.394051 
L 118.442255 220.69691 
L 119.250951 220.810855 
L 119.250951 221.124211 
L 120.059647 221.236021 
L 120.059647 221.492997 
L 120.868342 221.607477 
L 120.868342 221.818595 
L 121.677038 221.931745 
L 121.677038 222.074451 
L 122.485734 222.187202 
L 122.485734 222.37713 
L 123.294429 222.488457 
L 123.294429 222.673353 
L 124.103125 222.786653 
L 124.103125 222.986886 
L 124.911821 223.101298 
L 124.911821 223.272206 
L 125.720516 223.384556 
L 125.720516 223.532149 
L 126.529212 223.645778 
L 126.529212 223.866546 
L 127.337908 223.979547 
L 127.337908 224.12956 
L 128.146603 224.242894 
L 128.146603 224.454875 
L 128.955299 224.566858 
L 128.955299 224.726788 
L 129.763995 224.838121 
L 129.763995 224.994834 
L 130.57269 225.107563 
L 130.57269 225.247292 
L 131.381386 225.358982 
L 131.381386 225.474679 
L 132.190082 225.587698 
L 132.190082 225.689884 
L 132.998777 225.802035 
L 132.998777 225.899756 
L 133.807473 226.010915 
L 133.807473 226.169988 
L 134.616168 226.282111 
L 134.616168 226.377302 
L 135.424864 226.489587 
L 135.424864 226.566849 
L 136.23356 226.679388 
L 136.23356 226.758233 
L 137.042255 226.870647 
L 137.042255 226.969302 
L 137.850951 227.080746 
L 137.850951 227.159794 
L 138.659647 227.271945 
L 138.659647 227.348757 
L 139.468342 227.461238 
L 139.468342 227.53446 
L 140.277038 227.64566 
L 140.277038 227.733356 
L 141.085734 227.845119 
L 141.085734 227.893052 
L 141.894429 228.004883 
L 141.894429 228.061281 
L 142.703125 228.172609 
L 142.703125 228.202985 
L 143.511821 228.314337 
L 143.511821 228.345661 
L 144.320516 228.457783 
L 144.320516 228.477496 
L 145.129212 228.589409 
L 145.129212 228.615321 
L 145.937908 228.726596 
L 145.937908 228.76855 
L 146.746603 228.880271 
L 146.746603 228.887582 
L 147.555299 228.998791 
L 147.555299 229.028607 
L 148.363995 229.140029 
L 148.363995 229.145915 
L 149.17269 229.257254 
L 149.17269 229.276623 
L 149.981386 229.38793 
L 149.981386 229.397212 
L 150.790082 229.508565 
L 150.790082 229.516727 
L 152.407473 229.629314 
L 152.407473 229.732072 
L 153.216168 229.843677 
L 153.216168 229.850913 
L 154.83356 229.962845 
L 154.83356 230.030624 
L 156.450951 230.142937 
L 156.450951 230.213065 
L 158.068342 230.32484 
L 158.068342 230.371926 
L 159.685734 230.483995 
L 159.685734 230.527591 
L 161.303125 230.639396 
L 161.303125 230.677849 
L 162.920516 230.789893 
L 162.920516 230.813507 
L 164.537908 230.925388 
L 164.537908 230.946755 
L 166.155299 231.058417 
L 166.155299 231.064735 
L 168.581386 231.176777 
L 168.581386 231.223288 
L 171.007473 231.335379 
L 171.007473 231.378348 
L 173.43356 231.490348 
L 173.43356 231.519689 
L 175.859647 231.631716 
L 175.859647 231.651337 
L 179.094429 231.763357 
L 179.094429 231.799604 
L 182.329212 231.911732 
L 182.329212 231.930663 
L 185.563995 232.04265 
L 185.563995 232.046575 
L 189.607473 232.158725 
L 189.607473 232.168997 
L 193.650951 232.28099 
L 193.650951 232.281188 
L 199.311821 232.393554 
L 199.311821 232.404868 
L 205.781386 232.517279 
L 205.781386 232.528298 
L 214.677038 232.641146 
L 214.677038 232.642053 
L 225.190082 232.75506 
L 225.190082 232.757822 
L 241.363995 232.871646 
L 241.363995 232.872023 
L 265.624864 232.986792 
L 265.624864 232.987019 
L 323.850951 233.106239 
L 323.850951 233.106646 
L 365.903125 233.123924 
L 365.903125 233.123924 
" style="fill:none;stroke:#988ed5;stroke-linecap:square;"/>
   </g>
   <g id="patch_3">
    <path d="M 31.103125 12.039062 
L 365.903125 12.039062 
" style="fill:none;stroke:#ffffff;stroke-linecap:square;stroke-linejoin:miter;"/>
   </g>
   <g id="patch_4">
    <path d="M 365.903125 235.239062 
L 365.903125 12.039062 
" style="fill:none;stroke:#ffffff;stroke-linecap:square;stroke-linejoin:miter;"/>
   </g>
   <g id="patch_5">
    <path d="M 31.103125 235.239062 
L 365.903125 235.239062 
" style="fill:none;stroke:#ffffff;stroke-linecap:square;stroke-linejoin:miter;"/>
   </g>
   <g id="patch_6">
    <path d="M 31.103125 235.239062 
L 31.103125 12.039062 
" style="fill:none;stroke:#ffffff;stroke-linecap:square;stroke-linejoin:miter;"/>
   </g>
   <g id="legend_1">
    <g id="patch_7">
     <path d="M 262.3075 74.480312 
L 359.903125 74.480312 
L 359.903125 18.039062 
L 262.3075 18.039062 
z
" style="fill:#e5e5e5;stroke:#ffffff;stroke-linejoin:miter;stroke-width:0.5;"/>
    </g>
    <g id="line2d_46">
     <path d="M 270.7075 27.757187 
L 287.5075 27.757187 
" style="fill:none;stroke:#e24a33;stroke-linecap:square;"/>
    </g>
    <g id="line2d_47"/>
    <g id="text_16">
     <!-- precision -->
     <defs>
      <path d="M 54.890625 33.015625 
L 54.890625 0 
L 45.90625 0 
L 45.90625 32.71875 
Q 45.90625 40.484375 42.875 44.328125 
Q 39.84375 48.1875 33.796875 48.1875 
Q 26.515625 48.1875 22.3125 43.546875 
Q 18.109375 38.921875 18.109375 30.90625 
L 18.109375 0 
L 9.078125 0 
L 9.078125 54.6875 
L 18.109375 54.6875 
L 18.109375 46.1875 
Q 21.34375 51.125 25.703125 53.5625 
Q 30.078125 56 35.796875 56 
Q 45.21875 56 50.046875 50.171875 
Q 54.890625 44.34375 54.890625 33.015625 
" id="BitstreamVeraSans-Roman-6e"/>
      <path d="M 30.609375 48.390625 
Q 23.390625 48.390625 19.1875 42.75 
Q 14.984375 37.109375 14.984375 27.296875 
Q 14.984375 17.484375 19.15625 11.84375 
Q 23.34375 6.203125 30.609375 6.203125 
Q 37.796875 6.203125 41.984375 11.859375 
Q 46.1875 17.53125 46.1875 27.296875 
Q 46.1875 37.015625 41.984375 42.703125 
Q 37.796875 48.390625 30.609375 48.390625 
M 30.609375 56 
Q 42.328125 56 49.015625 48.375 
Q 55.71875 40.765625 55.71875 27.296875 
Q 55.71875 13.875 49.015625 6.21875 
Q 42.328125 -1.421875 30.609375 -1.421875 
Q 18.84375 -1.421875 12.171875 6.21875 
Q 5.515625 13.875 5.515625 27.296875 
Q 5.515625 40.765625 12.171875 48.375 
Q 18.84375 56 30.609375 56 
" id="BitstreamVeraSans-Roman-6f"/>
      <path d="M 9.421875 54.6875 
L 18.40625 54.6875 
L 18.40625 0 
L 9.421875 0 
z
M 9.421875 75.984375 
L 18.40625 75.984375 
L 18.40625 64.59375 
L 9.421875 64.59375 
z
" id="BitstreamVeraSans-Roman-69"/>
      <path d="M 18.109375 8.203125 
L 18.109375 -20.796875 
L 9.078125 -20.796875 
L 9.078125 54.6875 
L 18.109375 54.6875 
L 18.109375 46.390625 
Q 20.953125 51.265625 25.265625 53.625 
Q 29.59375 56 35.59375 56 
Q 45.5625 56 51.78125 48.09375 
Q 58.015625 40.1875 58.015625 27.296875 
Q 58.015625 14.40625 51.78125 6.484375 
Q 45.5625 -1.421875 35.59375 -1.421875 
Q 29.59375 -1.421875 25.265625 0.953125 
Q 20.953125 3.328125 18.109375 8.203125 
M 48.6875 27.296875 
Q 48.6875 37.203125 44.609375 42.84375 
Q 40.53125 48.484375 33.40625 48.484375 
Q 26.265625 48.484375 22.1875 42.84375 
Q 18.109375 37.203125 18.109375 27.296875 
Q 18.109375 17.390625 22.1875 11.75 
Q 26.265625 6.109375 33.40625 6.109375 
Q 40.53125 6.109375 44.609375 11.75 
Q 48.6875 17.390625 48.6875 27.296875 
" id="BitstreamVeraSans-Roman-70"/>
      <path d="M 56.203125 29.59375 
L 56.203125 25.203125 
L 14.890625 25.203125 
Q 15.484375 15.921875 20.484375 11.0625 
Q 25.484375 6.203125 34.421875 6.203125 
Q 39.59375 6.203125 44.453125 7.46875 
Q 49.3125 8.734375 54.109375 11.28125 
L 54.109375 2.78125 
Q 49.265625 0.734375 44.1875 -0.34375 
Q 39.109375 -1.421875 33.890625 -1.421875 
Q 20.796875 -1.421875 13.15625 6.1875 
Q 5.515625 13.8125 5.515625 26.8125 
Q 5.515625 40.234375 12.765625 48.109375 
Q 20.015625 56 32.328125 56 
Q 43.359375 56 49.78125 48.890625 
Q 56.203125 41.796875 56.203125 29.59375 
M 47.21875 32.234375 
Q 47.125 39.59375 43.09375 43.984375 
Q 39.0625 48.390625 32.421875 48.390625 
Q 24.90625 48.390625 20.390625 44.140625 
Q 15.875 39.890625 15.1875 32.171875 
z
" id="BitstreamVeraSans-Roman-65"/>
      <path d="M 41.109375 46.296875 
Q 39.59375 47.171875 37.8125 47.578125 
Q 36.03125 48 33.890625 48 
Q 26.265625 48 22.1875 43.046875 
Q 18.109375 38.09375 18.109375 28.8125 
L 18.109375 0 
L 9.078125 0 
L 9.078125 54.6875 
L 18.109375 54.6875 
L 18.109375 46.1875 
Q 20.953125 51.171875 25.484375 53.578125 
Q 30.03125 56 36.53125 56 
Q 37.453125 56 38.578125 55.875 
Q 39.703125 55.765625 41.0625 55.515625 
z
" id="BitstreamVeraSans-Roman-72"/>
      <path d="M 44.28125 53.078125 
L 44.28125 44.578125 
Q 40.484375 46.53125 36.375 47.5 
Q 32.28125 48.484375 27.875 48.484375 
Q 21.1875 48.484375 17.84375 46.4375 
Q 14.5 44.390625 14.5 40.28125 
Q 14.5 37.15625 16.890625 35.375 
Q 19.28125 33.59375 26.515625 31.984375 
L 29.59375 31.296875 
Q 39.15625 29.25 43.1875 25.515625 
Q 47.21875 21.78125 47.21875 15.09375 
Q 47.21875 7.46875 41.1875 3.015625 
Q 35.15625 -1.421875 24.609375 -1.421875 
Q 20.21875 -1.421875 15.453125 -0.5625 
Q 10.6875 0.296875 5.421875 2 
L 5.421875 11.28125 
Q 10.40625 8.6875 15.234375 7.390625 
Q 20.0625 6.109375 24.8125 6.109375 
Q 31.15625 6.109375 34.5625 8.28125 
Q 37.984375 10.453125 37.984375 14.40625 
Q 37.984375 18.0625 35.515625 20.015625 
Q 33.0625 21.96875 24.703125 23.78125 
L 21.578125 24.515625 
Q 13.234375 26.265625 9.515625 29.90625 
Q 5.8125 33.546875 5.8125 39.890625 
Q 5.8125 47.609375 11.28125 51.796875 
Q 16.75 56 26.8125 56 
Q 31.78125 56 36.171875 55.265625 
Q 40.578125 54.546875 44.28125 53.078125 
" id="BitstreamVeraSans-Roman-73"/>
      <path d="M 48.78125 52.59375 
L 48.78125 44.1875 
Q 44.96875 46.296875 41.140625 47.34375 
Q 37.3125 48.390625 33.40625 48.390625 
Q 24.65625 48.390625 19.8125 42.84375 
Q 14.984375 37.3125 14.984375 27.296875 
Q 14.984375 17.28125 19.8125 11.734375 
Q 24.65625 6.203125 33.40625 6.203125 
Q 37.3125 6.203125 41.140625 7.25 
Q 44.96875 8.296875 48.78125 10.40625 
L 48.78125 2.09375 
Q 45.015625 0.34375 40.984375 -0.53125 
Q 36.96875 -1.421875 32.421875 -1.421875 
Q 20.0625 -1.421875 12.78125 6.34375 
Q 5.515625 14.109375 5.515625 27.296875 
Q 5.515625 40.671875 12.859375 48.328125 
Q 20.21875 56 33.015625 56 
Q 37.15625 56 41.109375 55.140625 
Q 45.0625 54.296875 48.78125 52.59375 
" id="BitstreamVeraSans-Roman-63"/>
     </defs>
     <g transform="translate(300.7075 31.9571875)scale(0.12 -0.12)">
      <use xlink:href="#BitstreamVeraSans-Roman-70"/>
      <use x="63.4765625" xlink:href="#BitstreamVeraSans-Roman-72"/>
      <use x="104.55859375" xlink:href="#BitstreamVeraSans-Roman-65"/>
      <use x="166.08203125" xlink:href="#BitstreamVeraSans-Roman-63"/>
      <use x="221.0625" xlink:href="#BitstreamVeraSans-Roman-69"/>
      <use x="248.845703125" xlink:href="#BitstreamVeraSans-Roman-73"/>
      <use x="300.9453125" xlink:href="#BitstreamVeraSans-Roman-69"/>
      <use x="328.728515625" xlink:href="#BitstreamVeraSans-Roman-6f"/>
      <use x="389.91015625" xlink:href="#BitstreamVeraSans-Roman-6e"/>
     </g>
    </g>
    <g id="line2d_48">
     <path d="M 270.7075 45.370937 
L 287.5075 45.370937 
" style="fill:none;stroke:#348abd;stroke-linecap:square;"/>
    </g>
    <g id="line2d_49"/>
    <g id="text_17">
     <!-- recall -->
     <defs>
      <path d="M 34.28125 27.484375 
Q 23.390625 27.484375 19.1875 25 
Q 14.984375 22.515625 14.984375 16.5 
Q 14.984375 11.71875 18.140625 8.90625 
Q 21.296875 6.109375 26.703125 6.109375 
Q 34.1875 6.109375 38.703125 11.40625 
Q 43.21875 16.703125 43.21875 25.484375 
L 43.21875 27.484375 
z
M 52.203125 31.203125 
L 52.203125 0 
L 43.21875 0 
L 43.21875 8.296875 
Q 40.140625 3.328125 35.546875 0.953125 
Q 30.953125 -1.421875 24.3125 -1.421875 
Q 15.921875 -1.421875 10.953125 3.296875 
Q 6 8.015625 6 15.921875 
Q 6 25.140625 12.171875 29.828125 
Q 18.359375 34.515625 30.609375 34.515625 
L 43.21875 34.515625 
L 43.21875 35.40625 
Q 43.21875 41.609375 39.140625 45 
Q 35.0625 48.390625 27.6875 48.390625 
Q 23 48.390625 18.546875 47.265625 
Q 14.109375 46.140625 10.015625 43.890625 
L 10.015625 52.203125 
Q 14.9375 54.109375 19.578125 55.046875 
Q 24.21875 56 28.609375 56 
Q 40.484375 56 46.34375 49.84375 
Q 52.203125 43.703125 52.203125 31.203125 
" id="BitstreamVeraSans-Roman-61"/>
      <path d="M 9.421875 75.984375 
L 18.40625 75.984375 
L 18.40625 0 
L 9.421875 0 
z
" id="BitstreamVeraSans-Roman-6c"/>
     </defs>
     <g transform="translate(300.7075 49.5709375)scale(0.12 -0.12)">
      <use xlink:href="#BitstreamVeraSans-Roman-72"/>
      <use x="41.08203125" xlink:href="#BitstreamVeraSans-Roman-65"/>
      <use x="102.60546875" xlink:href="#BitstreamVeraSans-Roman-63"/>
      <use x="157.5859375" xlink:href="#BitstreamVeraSans-Roman-61"/>
      <use x="218.865234375" xlink:href="#BitstreamVeraSans-Roman-6c"/>
      <use x="246.6484375" xlink:href="#BitstreamVeraSans-Roman-6c"/>
     </g>
    </g>
    <g id="line2d_50">
     <path d="M 270.7075 62.984687 
L 287.5075 62.984687 
" style="fill:none;stroke:#988ed5;stroke-linecap:square;"/>
    </g>
    <g id="line2d_51"/>
    <g id="text_18">
     <!-- f1 -->
     <defs>
      <path d="M 37.109375 75.984375 
L 37.109375 68.5 
L 28.515625 68.5 
Q 23.6875 68.5 21.796875 66.546875 
Q 19.921875 64.59375 19.921875 59.515625 
L 19.921875 54.6875 
L 34.71875 54.6875 
L 34.71875 47.703125 
L 19.921875 47.703125 
L 19.921875 0 
L 10.890625 0 
L 10.890625 47.703125 
L 2.296875 47.703125 
L 2.296875 54.6875 
L 10.890625 54.6875 
L 10.890625 58.5 
Q 10.890625 67.625 15.140625 71.796875 
Q 19.390625 75.984375 28.609375 75.984375 
z
" id="BitstreamVeraSans-Roman-66"/>
     </defs>
     <g transform="translate(300.7075 67.1846875)scale(0.12 -0.12)">
      <use xlink:href="#BitstreamVeraSans-Roman-66"/>
      <use x="35.205078125" xlink:href="#BitstreamVeraSans-Roman-31"/>
     </g>
    </g>
   </g>
  </g>
 </g>
 <defs>
  <clipPath id="p0afced917d">
   <rect height="223.2" width="334.8" x="31.103125" y="12.0390625"/>
  </clipPath>
 </defs>
</svg>
