<?xml version="1.0" encoding="utf-8" standalone="no"?>
<!DOCTYPE svg PUBLIC "-//W3C//DTD SVG 1.1//EN"
  "http://www.w3.org/Graphics/SVG/1.1/DTD/svg11.dtd">
<!-- Created with matplotlib (http://matplotlib.org/) -->
<svg height="276pt" version="1.1" viewBox="0 0 373 276" width="373pt" xmlns="http://www.w3.org/2000/svg" xmlns:xlink="http://www.w3.org/1999/xlink">
 <defs>
  <style type="text/css">
*{stroke-linecap:butt;stroke-linejoin:round;stroke-miterlimit:100000;}
  </style>
 </defs>
 <g id="figure_1">
  <g id="patch_1">
   <path d="M 0 276.730937 
L 373.103125 276.730937 
L 373.103125 0 
L 0 0 
L 0 276.730937 
z
" style="fill:none;"/>
  </g>
  <g id="axes_1">
   <g id="patch_2">
    <path d="M 31.103125 235.239062 
L 365.903125 235.239062 
L 365.903125 12.039062 
L 31.103125 12.039062 
z
" style="fill:#e5e5e5;"/>
   </g>
   <g id="matplotlib.axis_1">
    <g id="xtick_1">
     <g id="line2d_1">
      <path clip-path="url(#pf480aee421)" d="M 31.103125 235.239062 
L 31.103125 12.039062 
" style="fill:none;stroke:#ffffff;stroke-linecap:square;stroke-width:0.5;"/>
     </g>
     <g id="line2d_2">
      <defs>
       <path d="M 0 0 
L 0 4 
" id="m7e705cafe1" style="stroke:#555555;stroke-width:0.5;"/>
      </defs>
      <g>
       <use style="fill:#555555;stroke:#555555;stroke-width:0.5;" x="31.103125" xlink:href="#m7e705cafe1" y="235.2390625"/>
      </g>
     </g>
     <g id="line2d_3">
      <defs>
       <path d="M 0 0 
L 0 -4 
" id="mddda20430a" style="stroke:#555555;stroke-width:0.5;"/>
      </defs>
      <g>
       <use style="fill:#555555;stroke:#555555;stroke-width:0.5;" x="31.103125" xlink:href="#mddda20430a" y="12.0390625"/>
      </g>
     </g>
     <g id="text_1">
      <!-- 0 -->
      <defs>
       <path d="M 31.78125 66.40625 
Q 24.171875 66.40625 20.328125 58.90625 
Q 16.5 51.421875 16.5 36.375 
Q 16.5 21.390625 20.328125 13.890625 
Q 24.171875 6.390625 31.78125 6.390625 
Q 39.453125 6.390625 43.28125 13.890625 
Q 47.125 21.390625 47.125 36.375 
Q 47.125 51.421875 43.28125 58.90625 
Q 39.453125 66.40625 31.78125 66.40625 
M 31.78125 74.21875 
Q 44.046875 74.21875 50.515625 64.515625 
Q 56.984375 54.828125 56.984375 36.375 
Q 56.984375 17.96875 50.515625 8.265625 
Q 44.046875 -1.421875 31.78125 -1.421875 
Q 19.53125 -1.421875 13.0625 8.265625 
Q 6.59375 17.96875 6.59375 36.375 
Q 6.59375 54.828125 13.0625 64.515625 
Q 19.53125 74.21875 31.78125 74.21875 
" id="BitstreamVeraSans-Roman-30"/>
      </defs>
      <g style="fill:#555555;" transform="translate(27.921875 250.8375)scale(0.1 -0.1)">
       <use xlink:href="#BitstreamVeraSans-Roman-30"/>
      </g>
     </g>
    </g>
    <g id="xtick_2">
     <g id="line2d_4">
      <path clip-path="url(#pf480aee421)" d="M 73.058012 235.239062 
L 73.058012 12.039062 
" style="fill:none;stroke:#ffffff;stroke-linecap:square;stroke-width:0.5;"/>
     </g>
     <g id="line2d_5">
      <g>
       <use style="fill:#555555;stroke:#555555;stroke-width:0.5;" x="73.058012218" xlink:href="#m7e705cafe1" y="235.2390625"/>
      </g>
     </g>
     <g id="line2d_6">
      <g>
       <use style="fill:#555555;stroke:#555555;stroke-width:0.5;" x="73.058012218" xlink:href="#mddda20430a" y="12.0390625"/>
      </g>
     </g>
     <g id="text_2">
      <!-- 50 -->
      <defs>
       <path d="M 10.796875 72.90625 
L 49.515625 72.90625 
L 49.515625 64.59375 
L 19.828125 64.59375 
L 19.828125 46.734375 
Q 21.96875 47.46875 24.109375 47.828125 
Q 26.265625 48.1875 28.421875 48.1875 
Q 40.625 48.1875 47.75 41.5 
Q 54.890625 34.8125 54.890625 23.390625 
Q 54.890625 11.625 47.5625 5.09375 
Q 40.234375 -1.421875 26.90625 -1.421875 
Q 22.3125 -1.421875 17.546875 -0.640625 
Q 12.796875 0.140625 7.71875 1.703125 
L 7.71875 11.625 
Q 12.109375 9.234375 16.796875 8.0625 
Q 21.484375 6.890625 26.703125 6.890625 
Q 35.15625 6.890625 40.078125 11.328125 
Q 45.015625 15.765625 45.015625 23.390625 
Q 45.015625 31 40.078125 35.4375 
Q 35.15625 39.890625 26.703125 39.890625 
Q 22.75 39.890625 18.8125 39.015625 
Q 14.890625 38.140625 10.796875 36.28125 
z
" id="BitstreamVeraSans-Roman-35"/>
      </defs>
      <g style="fill:#555555;" transform="translate(66.695512218 250.8375)scale(0.1 -0.1)">
       <use xlink:href="#BitstreamVeraSans-Roman-35"/>
       <use x="63.623046875" xlink:href="#BitstreamVeraSans-Roman-30"/>
      </g>
     </g>
    </g>
    <g id="xtick_3">
     <g id="line2d_7">
      <path clip-path="url(#pf480aee421)" d="M 115.012899 235.239062 
L 115.012899 12.039062 
" style="fill:none;stroke:#ffffff;stroke-linecap:square;stroke-width:0.5;"/>
     </g>
     <g id="line2d_8">
      <g>
       <use style="fill:#555555;stroke:#555555;stroke-width:0.5;" x="115.012899436" xlink:href="#m7e705cafe1" y="235.2390625"/>
      </g>
     </g>
     <g id="line2d_9">
      <g>
       <use style="fill:#555555;stroke:#555555;stroke-width:0.5;" x="115.012899436" xlink:href="#mddda20430a" y="12.0390625"/>
      </g>
     </g>
     <g id="text_3">
      <!-- 100 -->
      <defs>
       <path d="M 12.40625 8.296875 
L 28.515625 8.296875 
L 28.515625 63.921875 
L 10.984375 60.40625 
L 10.984375 69.390625 
L 28.421875 72.90625 
L 38.28125 72.90625 
L 38.28125 8.296875 
L 54.390625 8.296875 
L 54.390625 0 
L 12.40625 0 
z
" id="BitstreamVeraSans-Roman-31"/>
      </defs>
      <g style="fill:#555555;" transform="translate(105.469149436 250.8375)scale(0.1 -0.1)">
       <use xlink:href="#BitstreamVeraSans-Roman-31"/>
       <use x="63.623046875" xlink:href="#BitstreamVeraSans-Roman-30"/>
       <use x="127.24609375" xlink:href="#BitstreamVeraSans-Roman-30"/>
      </g>
     </g>
    </g>
    <g id="xtick_4">
     <g id="line2d_10">
      <path clip-path="url(#pf480aee421)" d="M 156.967787 235.239062 
L 156.967787 12.039062 
" style="fill:none;stroke:#ffffff;stroke-linecap:square;stroke-width:0.5;"/>
     </g>
     <g id="line2d_11">
      <g>
       <use style="fill:#555555;stroke:#555555;stroke-width:0.5;" x="156.967786654" xlink:href="#m7e705cafe1" y="235.2390625"/>
      </g>
     </g>
     <g id="line2d_12">
      <g>
       <use style="fill:#555555;stroke:#555555;stroke-width:0.5;" x="156.967786654" xlink:href="#mddda20430a" y="12.0390625"/>
      </g>
     </g>
     <g id="text_4">
      <!-- 150 -->
      <g style="fill:#555555;" transform="translate(147.424036654 250.8375)scale(0.1 -0.1)">
       <use xlink:href="#BitstreamVeraSans-Roman-31"/>
       <use x="63.623046875" xlink:href="#BitstreamVeraSans-Roman-35"/>
       <use x="127.24609375" xlink:href="#BitstreamVeraSans-Roman-30"/>
      </g>
     </g>
    </g>
    <g id="xtick_5">
     <g id="line2d_13">
      <path clip-path="url(#pf480aee421)" d="M 198.922674 235.239062 
L 198.922674 12.039062 
" style="fill:none;stroke:#ffffff;stroke-linecap:square;stroke-width:0.5;"/>
     </g>
     <g id="line2d_14">
      <g>
       <use style="fill:#555555;stroke:#555555;stroke-width:0.5;" x="198.922673872" xlink:href="#m7e705cafe1" y="235.2390625"/>
      </g>
     </g>
     <g id="line2d_15">
      <g>
       <use style="fill:#555555;stroke:#555555;stroke-width:0.5;" x="198.922673872" xlink:href="#mddda20430a" y="12.0390625"/>
      </g>
     </g>
     <g id="text_5">
      <!-- 200 -->
      <defs>
       <path d="M 19.1875 8.296875 
L 53.609375 8.296875 
L 53.609375 0 
L 7.328125 0 
L 7.328125 8.296875 
Q 12.9375 14.109375 22.625 23.890625 
Q 32.328125 33.6875 34.8125 36.53125 
Q 39.546875 41.84375 41.421875 45.53125 
Q 43.3125 49.21875 43.3125 52.78125 
Q 43.3125 58.59375 39.234375 62.25 
Q 35.15625 65.921875 28.609375 65.921875 
Q 23.96875 65.921875 18.8125 64.3125 
Q 13.671875 62.703125 7.8125 59.421875 
L 7.8125 69.390625 
Q 13.765625 71.78125 18.9375 73 
Q 24.125 74.21875 28.421875 74.21875 
Q 39.75 74.21875 46.484375 68.546875 
Q 53.21875 62.890625 53.21875 53.421875 
Q 53.21875 48.921875 51.53125 44.890625 
Q 49.859375 40.875 45.40625 35.40625 
Q 44.1875 33.984375 37.640625 27.21875 
Q 31.109375 20.453125 19.1875 8.296875 
" id="BitstreamVeraSans-Roman-32"/>
      </defs>
      <g style="fill:#555555;" transform="translate(189.378923872 250.8375)scale(0.1 -0.1)">
       <use xlink:href="#BitstreamVeraSans-Roman-32"/>
       <use x="63.623046875" xlink:href="#BitstreamVeraSans-Roman-30"/>
       <use x="127.24609375" xlink:href="#BitstreamVeraSans-Roman-30"/>
      </g>
     </g>
    </g>
    <g id="xtick_6">
     <g id="line2d_16">
      <path clip-path="url(#pf480aee421)" d="M 240.877561 235.239062 
L 240.877561 12.039062 
" style="fill:none;stroke:#ffffff;stroke-linecap:square;stroke-width:0.5;"/>
     </g>
     <g id="line2d_17">
      <g>
       <use style="fill:#555555;stroke:#555555;stroke-width:0.5;" x="240.87756109" xlink:href="#m7e705cafe1" y="235.2390625"/>
      </g>
     </g>
     <g id="line2d_18">
      <g>
       <use style="fill:#555555;stroke:#555555;stroke-width:0.5;" x="240.87756109" xlink:href="#mddda20430a" y="12.0390625"/>
      </g>
     </g>
     <g id="text_6">
      <!-- 250 -->
      <g style="fill:#555555;" transform="translate(231.33381109 250.8375)scale(0.1 -0.1)">
       <use xlink:href="#BitstreamVeraSans-Roman-32"/>
       <use x="63.623046875" xlink:href="#BitstreamVeraSans-Roman-35"/>
       <use x="127.24609375" xlink:href="#BitstreamVeraSans-Roman-30"/>
      </g>
     </g>
    </g>
    <g id="xtick_7">
     <g id="line2d_19">
      <path clip-path="url(#pf480aee421)" d="M 282.832448 235.239062 
L 282.832448 12.039062 
" style="fill:none;stroke:#ffffff;stroke-linecap:square;stroke-width:0.5;"/>
     </g>
     <g id="line2d_20">
      <g>
       <use style="fill:#555555;stroke:#555555;stroke-width:0.5;" x="282.832448308" xlink:href="#m7e705cafe1" y="235.2390625"/>
      </g>
     </g>
     <g id="line2d_21">
      <g>
       <use style="fill:#555555;stroke:#555555;stroke-width:0.5;" x="282.832448308" xlink:href="#mddda20430a" y="12.0390625"/>
      </g>
     </g>
     <g id="text_7">
      <!-- 300 -->
      <defs>
       <path d="M 40.578125 39.3125 
Q 47.65625 37.796875 51.625 33 
Q 55.609375 28.21875 55.609375 21.1875 
Q 55.609375 10.40625 48.1875 4.484375 
Q 40.765625 -1.421875 27.09375 -1.421875 
Q 22.515625 -1.421875 17.65625 -0.515625 
Q 12.796875 0.390625 7.625 2.203125 
L 7.625 11.71875 
Q 11.71875 9.328125 16.59375 8.109375 
Q 21.484375 6.890625 26.8125 6.890625 
Q 36.078125 6.890625 40.9375 10.546875 
Q 45.796875 14.203125 45.796875 21.1875 
Q 45.796875 27.640625 41.28125 31.265625 
Q 36.765625 34.90625 28.71875 34.90625 
L 20.21875 34.90625 
L 20.21875 43.015625 
L 29.109375 43.015625 
Q 36.375 43.015625 40.234375 45.921875 
Q 44.09375 48.828125 44.09375 54.296875 
Q 44.09375 59.90625 40.109375 62.90625 
Q 36.140625 65.921875 28.71875 65.921875 
Q 24.65625 65.921875 20.015625 65.03125 
Q 15.375 64.15625 9.8125 62.3125 
L 9.8125 71.09375 
Q 15.4375 72.65625 20.34375 73.4375 
Q 25.25 74.21875 29.59375 74.21875 
Q 40.828125 74.21875 47.359375 69.109375 
Q 53.90625 64.015625 53.90625 55.328125 
Q 53.90625 49.265625 50.4375 45.09375 
Q 46.96875 40.921875 40.578125 39.3125 
" id="BitstreamVeraSans-Roman-33"/>
      </defs>
      <g style="fill:#555555;" transform="translate(273.288698308 250.8375)scale(0.1 -0.1)">
       <use xlink:href="#BitstreamVeraSans-Roman-33"/>
       <use x="63.623046875" xlink:href="#BitstreamVeraSans-Roman-30"/>
       <use x="127.24609375" xlink:href="#BitstreamVeraSans-Roman-30"/>
      </g>
     </g>
    </g>
    <g id="xtick_8">
     <g id="line2d_22">
      <path clip-path="url(#pf480aee421)" d="M 324.787336 235.239062 
L 324.787336 12.039062 
" style="fill:none;stroke:#ffffff;stroke-linecap:square;stroke-width:0.5;"/>
     </g>
     <g id="line2d_23">
      <g>
       <use style="fill:#555555;stroke:#555555;stroke-width:0.5;" x="324.787335526" xlink:href="#m7e705cafe1" y="235.2390625"/>
      </g>
     </g>
     <g id="line2d_24">
      <g>
       <use style="fill:#555555;stroke:#555555;stroke-width:0.5;" x="324.787335526" xlink:href="#mddda20430a" y="12.0390625"/>
      </g>
     </g>
     <g id="text_8">
      <!-- 350 -->
      <g style="fill:#555555;" transform="translate(315.243585526 250.8375)scale(0.1 -0.1)">
       <use xlink:href="#BitstreamVeraSans-Roman-33"/>
       <use x="63.623046875" xlink:href="#BitstreamVeraSans-Roman-35"/>
       <use x="127.24609375" xlink:href="#BitstreamVeraSans-Roman-30"/>
      </g>
     </g>
    </g>
    <g id="text_9">
     <!-- x -->
     <defs>
      <path d="M 54.890625 54.6875 
L 35.109375 28.078125 
L 55.90625 0 
L 45.3125 0 
L 29.390625 21.484375 
L 13.484375 0 
L 2.875 0 
L 24.125 28.609375 
L 4.6875 54.6875 
L 15.28125 54.6875 
L 29.78125 35.203125 
L 44.28125 54.6875 
z
" id="BitstreamVeraSans-Roman-78"/>
     </defs>
     <g style="fill:#555555;" transform="translate(194.951875 267.0353125)scale(0.12 -0.12)">
      <use xlink:href="#BitstreamVeraSans-Roman-78"/>
     </g>
    </g>
   </g>
   <g id="matplotlib.axis_2">
    <g id="ytick_1">
     <g id="line2d_25">
      <path clip-path="url(#pf480aee421)" d="M 31.103125 235.239062 
L 365.903125 235.239062 
" style="fill:none;stroke:#ffffff;stroke-linecap:square;stroke-width:0.5;"/>
     </g>
     <g id="line2d_26">
      <defs>
       <path d="M 0 0 
L -4 0 
" id="mb51561dc2d" style="stroke:#555555;stroke-width:0.5;"/>
      </defs>
      <g>
       <use style="fill:#555555;stroke:#555555;stroke-width:0.5;" x="31.103125" xlink:href="#mb51561dc2d" y="235.2390625"/>
      </g>
     </g>
     <g id="line2d_27">
      <defs>
       <path d="M 0 0 
L 4 0 
" id="md054c10056" style="stroke:#555555;stroke-width:0.5;"/>
      </defs>
      <g>
       <use style="fill:#555555;stroke:#555555;stroke-width:0.5;" x="365.903125" xlink:href="#md054c10056" y="235.2390625"/>
      </g>
     </g>
     <g id="text_10">
      <!-- 0.0 -->
      <defs>
       <path d="M 10.6875 12.40625 
L 21 12.40625 
L 21 0 
L 10.6875 0 
z
" id="BitstreamVeraSans-Roman-2e"/>
      </defs>
      <g style="fill:#555555;" transform="translate(7.2 237.9984375)scale(0.1 -0.1)">
       <use xlink:href="#BitstreamVeraSans-Roman-30"/>
       <use x="63.623046875" xlink:href="#BitstreamVeraSans-Roman-2e"/>
       <use x="95.41015625" xlink:href="#BitstreamVeraSans-Roman-30"/>
      </g>
     </g>
    </g>
    <g id="ytick_2">
     <g id="line2d_28">
      <path clip-path="url(#pf480aee421)" d="M 31.103125 190.599063 
L 365.903125 190.599063 
" style="fill:none;stroke:#ffffff;stroke-linecap:square;stroke-width:0.5;"/>
     </g>
     <g id="line2d_29">
      <g>
       <use style="fill:#555555;stroke:#555555;stroke-width:0.5;" x="31.103125" xlink:href="#mb51561dc2d" y="190.5990625"/>
      </g>
     </g>
     <g id="line2d_30">
      <g>
       <use style="fill:#555555;stroke:#555555;stroke-width:0.5;" x="365.903125" xlink:href="#md054c10056" y="190.5990625"/>
      </g>
     </g>
     <g id="text_11">
      <!-- 0.2 -->
      <g style="fill:#555555;" transform="translate(7.2 193.3584375)scale(0.1 -0.1)">
       <use xlink:href="#BitstreamVeraSans-Roman-30"/>
       <use x="63.623046875" xlink:href="#BitstreamVeraSans-Roman-2e"/>
       <use x="95.41015625" xlink:href="#BitstreamVeraSans-Roman-32"/>
      </g>
     </g>
    </g>
    <g id="ytick_3">
     <g id="line2d_31">
      <path clip-path="url(#pf480aee421)" d="M 31.103125 145.959062 
L 365.903125 145.959062 
" style="fill:none;stroke:#ffffff;stroke-linecap:square;stroke-width:0.5;"/>
     </g>
     <g id="line2d_32">
      <g>
       <use style="fill:#555555;stroke:#555555;stroke-width:0.5;" x="31.103125" xlink:href="#mb51561dc2d" y="145.9590625"/>
      </g>
     </g>
     <g id="line2d_33">
      <g>
       <use style="fill:#555555;stroke:#555555;stroke-width:0.5;" x="365.903125" xlink:href="#md054c10056" y="145.9590625"/>
      </g>
     </g>
     <g id="text_12">
      <!-- 0.4 -->
      <defs>
       <path d="M 37.796875 64.3125 
L 12.890625 25.390625 
L 37.796875 25.390625 
z
M 35.203125 72.90625 
L 47.609375 72.90625 
L 47.609375 25.390625 
L 58.015625 25.390625 
L 58.015625 17.1875 
L 47.609375 17.1875 
L 47.609375 0 
L 37.796875 0 
L 37.796875 17.1875 
L 4.890625 17.1875 
L 4.890625 26.703125 
z
" id="BitstreamVeraSans-Roman-34"/>
      </defs>
      <g style="fill:#555555;" transform="translate(7.2 148.7184375)scale(0.1 -0.1)">
       <use xlink:href="#BitstreamVeraSans-Roman-30"/>
       <use x="63.623046875" xlink:href="#BitstreamVeraSans-Roman-2e"/>
       <use x="95.41015625" xlink:href="#BitstreamVeraSans-Roman-34"/>
      </g>
     </g>
    </g>
    <g id="ytick_4">
     <g id="line2d_34">
      <path clip-path="url(#pf480aee421)" d="M 31.103125 101.319062 
L 365.903125 101.319062 
" style="fill:none;stroke:#ffffff;stroke-linecap:square;stroke-width:0.5;"/>
     </g>
     <g id="line2d_35">
      <g>
       <use style="fill:#555555;stroke:#555555;stroke-width:0.5;" x="31.103125" xlink:href="#mb51561dc2d" y="101.3190625"/>
      </g>
     </g>
     <g id="line2d_36">
      <g>
       <use style="fill:#555555;stroke:#555555;stroke-width:0.5;" x="365.903125" xlink:href="#md054c10056" y="101.3190625"/>
      </g>
     </g>
     <g id="text_13">
      <!-- 0.6 -->
      <defs>
       <path d="M 33.015625 40.375 
Q 26.375 40.375 22.484375 35.828125 
Q 18.609375 31.296875 18.609375 23.390625 
Q 18.609375 15.53125 22.484375 10.953125 
Q 26.375 6.390625 33.015625 6.390625 
Q 39.65625 6.390625 43.53125 10.953125 
Q 47.40625 15.53125 47.40625 23.390625 
Q 47.40625 31.296875 43.53125 35.828125 
Q 39.65625 40.375 33.015625 40.375 
M 52.59375 71.296875 
L 52.59375 62.3125 
Q 48.875 64.0625 45.09375 64.984375 
Q 41.3125 65.921875 37.59375 65.921875 
Q 27.828125 65.921875 22.671875 59.328125 
Q 17.53125 52.734375 16.796875 39.40625 
Q 19.671875 43.65625 24.015625 45.921875 
Q 28.375 48.1875 33.59375 48.1875 
Q 44.578125 48.1875 50.953125 41.515625 
Q 57.328125 34.859375 57.328125 23.390625 
Q 57.328125 12.15625 50.6875 5.359375 
Q 44.046875 -1.421875 33.015625 -1.421875 
Q 20.359375 -1.421875 13.671875 8.265625 
Q 6.984375 17.96875 6.984375 36.375 
Q 6.984375 53.65625 15.1875 63.9375 
Q 23.390625 74.21875 37.203125 74.21875 
Q 40.921875 74.21875 44.703125 73.484375 
Q 48.484375 72.75 52.59375 71.296875 
" id="BitstreamVeraSans-Roman-36"/>
      </defs>
      <g style="fill:#555555;" transform="translate(7.2 104.0784375)scale(0.1 -0.1)">
       <use xlink:href="#BitstreamVeraSans-Roman-30"/>
       <use x="63.623046875" xlink:href="#BitstreamVeraSans-Roman-2e"/>
       <use x="95.41015625" xlink:href="#BitstreamVeraSans-Roman-36"/>
      </g>
     </g>
    </g>
    <g id="ytick_5">
     <g id="line2d_37">
      <path clip-path="url(#pf480aee421)" d="M 31.103125 56.679062 
L 365.903125 56.679062 
" style="fill:none;stroke:#ffffff;stroke-linecap:square;stroke-width:0.5;"/>
     </g>
     <g id="line2d_38">
      <g>
       <use style="fill:#555555;stroke:#555555;stroke-width:0.5;" x="31.103125" xlink:href="#mb51561dc2d" y="56.6790625"/>
      </g>
     </g>
     <g id="line2d_39">
      <g>
       <use style="fill:#555555;stroke:#555555;stroke-width:0.5;" x="365.903125" xlink:href="#md054c10056" y="56.6790625"/>
      </g>
     </g>
     <g id="text_14">
      <!-- 0.8 -->
      <defs>
       <path d="M 31.78125 34.625 
Q 24.75 34.625 20.71875 30.859375 
Q 16.703125 27.09375 16.703125 20.515625 
Q 16.703125 13.921875 20.71875 10.15625 
Q 24.75 6.390625 31.78125 6.390625 
Q 38.8125 6.390625 42.859375 10.171875 
Q 46.921875 13.96875 46.921875 20.515625 
Q 46.921875 27.09375 42.890625 30.859375 
Q 38.875 34.625 31.78125 34.625 
M 21.921875 38.8125 
Q 15.578125 40.375 12.03125 44.71875 
Q 8.5 49.078125 8.5 55.328125 
Q 8.5 64.0625 14.71875 69.140625 
Q 20.953125 74.21875 31.78125 74.21875 
Q 42.671875 74.21875 48.875 69.140625 
Q 55.078125 64.0625 55.078125 55.328125 
Q 55.078125 49.078125 51.53125 44.71875 
Q 48 40.375 41.703125 38.8125 
Q 48.828125 37.15625 52.796875 32.3125 
Q 56.78125 27.484375 56.78125 20.515625 
Q 56.78125 9.90625 50.3125 4.234375 
Q 43.84375 -1.421875 31.78125 -1.421875 
Q 19.734375 -1.421875 13.25 4.234375 
Q 6.78125 9.90625 6.78125 20.515625 
Q 6.78125 27.484375 10.78125 32.3125 
Q 14.796875 37.15625 21.921875 38.8125 
M 18.3125 54.390625 
Q 18.3125 48.734375 21.84375 45.5625 
Q 25.390625 42.390625 31.78125 42.390625 
Q 38.140625 42.390625 41.71875 45.5625 
Q 45.3125 48.734375 45.3125 54.390625 
Q 45.3125 60.0625 41.71875 63.234375 
Q 38.140625 66.40625 31.78125 66.40625 
Q 25.390625 66.40625 21.84375 63.234375 
Q 18.3125 60.0625 18.3125 54.390625 
" id="BitstreamVeraSans-Roman-38"/>
      </defs>
      <g style="fill:#555555;" transform="translate(7.2 59.4384375)scale(0.1 -0.1)">
       <use xlink:href="#BitstreamVeraSans-Roman-30"/>
       <use x="63.623046875" xlink:href="#BitstreamVeraSans-Roman-2e"/>
       <use x="95.41015625" xlink:href="#BitstreamVeraSans-Roman-38"/>
      </g>
     </g>
    </g>
    <g id="ytick_6">
     <g id="line2d_40">
      <path clip-path="url(#pf480aee421)" d="M 31.103125 12.039062 
L 365.903125 12.039062 
" style="fill:none;stroke:#ffffff;stroke-linecap:square;stroke-width:0.5;"/>
     </g>
     <g id="line2d_41">
      <g>
       <use style="fill:#555555;stroke:#555555;stroke-width:0.5;" x="31.103125" xlink:href="#mb51561dc2d" y="12.0390625"/>
      </g>
     </g>
     <g id="line2d_42">
      <g>
       <use style="fill:#555555;stroke:#555555;stroke-width:0.5;" x="365.903125" xlink:href="#md054c10056" y="12.0390625"/>
      </g>
     </g>
     <g id="text_15">
      <!-- 1.0 -->
      <g style="fill:#555555;" transform="translate(7.2 14.7984375)scale(0.1 -0.1)">
       <use xlink:href="#BitstreamVeraSans-Roman-31"/>
       <use x="63.623046875" xlink:href="#BitstreamVeraSans-Roman-2e"/>
       <use x="95.41015625" xlink:href="#BitstreamVeraSans-Roman-30"/>
      </g>
     </g>
    </g>
   </g>
   <g id="line2d_43">
    <path clip-path="url(#pf480aee421)" d="M 31.103125 235.239062 
L 31.103125 227.799062 
L 31.103125 227.799062 
L 31.103125 227.799062 
L 31.103125 232.839062 
L 31.942223 232.961511 
L 31.942223 233.780239 
L 31.942223 233.780239 
L 31.942223 233.780239 
L 31.942223 232.340361 
L 31.942223 233.103177 
L 32.78132 233.219153 
L 32.78132 233.51551 
L 32.78132 233.51551 
L 32.78132 233.51551 
L 32.78132 232.663678 
L 32.78132 232.943947 
L 33.620418 233.056177 
L 33.620418 233.157944 
L 33.620418 233.157944 
L 33.620418 233.157944 
L 33.620418 232.30222 
L 33.620418 232.918092 
L 34.459516 233.032802 
L 34.459516 233.573391 
L 35.298614 233.685466 
L 35.298614 233.692642 
L 35.298614 233.692642 
L 35.298614 233.692642 
L 35.298614 233.209972 
L 35.298614 233.474636 
L 36.137711 233.518831 
L 36.137711 233.305665 
L 36.137711 233.517726 
L 36.137711 233.517726 
L 36.137711 233.619062 
L 36.976809 233.67701 
L 36.976809 233.504797 
L 36.976809 233.676037 
L 36.976809 233.676037 
L 36.976809 233.741076 
L 37.815907 233.754033 
L 37.815907 233.407244 
L 37.815907 233.565706 
L 39.494102 233.678223 
L 39.494102 233.75671 
L 40.3332 233.867935 
L 40.3332 233.875712 
L 41.172298 233.904248 
L 41.172298 233.809515 
L 41.172298 233.714863 
L 41.172298 233.786765 
L 42.850493 233.899025 
L 42.850493 233.959979 
L 50.402373 234.075119 
L 50.402373 234.079439 
L 54.597862 234.191846 
L 54.597862 234.200923 
L 64.667035 234.314626 
L 64.667035 234.336231 
L 70.540719 234.448274 
L 70.540719 234.448674 
L 70.540719 234.448674 
L 70.540719 234.448674 
L 70.540719 234.42055 
L 70.540719 234.438865 
L 77.253501 234.55074 
L 77.253501 234.568389 
L 95.713651 234.68096 
L 95.713651 234.690955 
L 124.242975 234.803171 
L 124.242975 234.804422 
L 365.903125 234.902467 
L 365.903125 234.902467 
" style="fill:none;stroke:#e24a33;stroke-linecap:square;"/>
   </g>
   <g id="line2d_44">
    <path clip-path="url(#pf480aee421)" d="M 31.103125 235.239062 
L 31.103125 233.007062 
L 31.103125 233.007062 
L 31.103125 233.007062 
L 31.942223 233.007062 
L 31.942223 233.007062 
L 31.942223 233.007062 
L 31.942223 230.775062 
L 31.942223 230.775062 
L 31.942223 230.775062 
L 32.78132 230.775062 
L 32.78132 230.775062 
L 32.78132 230.775062 
L 32.78132 228.543062 
L 32.78132 228.543062 
L 32.78132 228.543062 
L 32.78132 226.311062 
L 32.78132 226.311062 
L 32.78132 226.311062 
L 33.620418 226.311062 
L 33.620418 226.311062 
L 33.620418 226.311062 
L 33.620418 224.079062 
L 33.620418 224.079062 
L 33.620418 224.079062 
L 33.620418 221.847062 
L 33.620418 221.847062 
L 33.620418 221.847062 
L 34.459516 221.847062 
L 34.459516 221.847062 
L 34.459516 221.847062 
L 35.298614 221.847062 
L 35.298614 221.847062 
L 35.298614 221.847062 
L 35.298614 219.615062 
L 35.298614 219.615062 
L 35.298614 219.615062 
L 35.298614 217.383062 
L 35.298614 217.383062 
L 35.298614 217.383062 
L 36.137711 217.383062 
L 36.137711 217.383062 
L 36.137711 217.383062 
L 36.137711 215.151062 
L 36.137711 215.151062 
L 36.137711 215.151062 
L 36.976809 215.151062 
L 36.976809 215.151062 
L 36.976809 215.151062 
L 36.976809 212.919062 
L 36.976809 212.919062 
L 36.976809 212.919062 
L 37.815907 212.919062 
L 37.815907 212.919062 
L 37.815907 212.919062 
L 37.815907 210.687062 
L 37.815907 210.687062 
L 37.815907 210.687062 
L 37.815907 208.455062 
L 37.815907 208.455062 
L 37.815907 208.455062 
L 37.815907 206.223062 
L 37.815907 206.223062 
L 37.815907 206.223062 
L 38.655005 206.223062 
L 38.655005 206.223062 
L 38.655005 206.223062 
L 38.655005 203.991062 
L 38.655005 203.991062 
L 38.655005 203.991062 
L 39.494102 203.991062 
L 39.494102 203.991062 
L 39.494102 203.991062 
L 40.3332 203.991062 
L 40.3332 203.991062 
L 40.3332 203.991062 
L 41.172298 203.991062 
L 41.172298 203.991062 
L 41.172298 203.991062 
L 41.172298 201.759062 
L 41.172298 199.527062 
L 43.689591 199.527062 
L 43.689591 199.527062 
L 43.689591 195.063063 
L 43.689591 195.063063 
L 45.367787 195.063063 
L 45.367787 195.063063 
L 45.367787 192.831062 
L 45.367787 192.831062 
L 46.206884 192.831062 
L 46.206884 192.831062 
L 46.206884 190.599063 
L 46.206884 190.599063 
L 47.045982 190.599063 
L 47.045982 190.599063 
L 47.045982 188.367063 
L 47.045982 188.367063 
L 52.080569 188.367063 
L 52.080569 188.367063 
L 52.080569 186.135063 
L 52.080569 186.135063 
L 55.43696 186.135063 
L 55.43696 186.135063 
L 55.43696 183.903062 
L 55.43696 183.903062 
L 56.276057 183.903062 
L 56.276057 183.903062 
L 56.276057 179.439062 
L 56.276057 179.439062 
L 58.793351 179.439062 
L 58.793351 179.439062 
L 58.793351 174.975062 
L 58.793351 174.975062 
L 68.023426 174.975062 
L 68.023426 174.975062 
L 68.023426 172.743062 
L 68.023426 172.743062 
L 70.540719 172.743062 
L 70.540719 172.743062 
L 70.540719 170.511062 
L 70.540719 170.511062 
L 73.058012 170.511062 
L 73.058012 170.511062 
L 73.058012 168.279063 
L 73.058012 168.279063 
L 78.931696 168.279063 
L 78.931696 168.279063 
L 78.931696 166.047062 
L 78.931696 166.047062 
L 79.770794 166.047062 
L 79.770794 166.047062 
L 79.770794 163.815063 
L 79.770794 163.815063 
L 80.609892 163.815063 
L 80.609892 161.583062 
L 80.609892 161.583062 
L 81.44899 161.583062 
L 81.44899 161.583062 
L 81.44899 159.351062 
L 82.288087 159.351062 
L 82.288087 159.351062 
L 82.288087 157.119062 
L 82.288087 157.119062 
L 83.966283 157.119062 
L 83.966283 157.119062 
L 83.966283 154.887063 
L 83.966283 154.887063 
L 85.644478 154.887063 
L 85.644478 154.887063 
L 85.644478 152.655062 
L 85.644478 152.655062 
L 86.483576 152.655062 
L 86.483576 152.655062 
L 86.483576 150.423062 
L 86.483576 150.423062 
L 90.679065 150.423062 
L 90.679065 150.423062 
L 90.679065 148.191062 
L 90.679065 148.191062 
L 92.35726 148.191062 
L 92.35726 148.191062 
L 92.35726 143.727062 
L 92.35726 143.727062 
L 104.104629 143.727062 
L 104.104629 143.727062 
L 104.104629 139.263062 
L 104.104629 139.263062 
L 104.943727 139.263062 
L 104.943727 139.263062 
L 104.943727 137.031062 
L 104.943727 137.031062 
L 106.621922 137.031062 
L 106.621922 137.031062 
L 106.621922 134.799062 
L 106.621922 134.799062 
L 107.46102 134.799062 
L 107.46102 134.799062 
L 107.46102 132.567062 
L 107.46102 132.567062 
L 110.817411 132.567062 
L 110.817411 132.567062 
L 110.817411 130.335062 
L 110.817411 130.335062 
L 113.334704 130.335062 
L 113.334704 130.335062 
L 113.334704 128.103062 
L 113.334704 128.103062 
L 114.173802 128.103062 
L 114.173802 128.103062 
L 114.173802 125.871062 
L 114.173802 125.871062 
L 115.851997 125.871062 
L 115.851997 125.871062 
L 115.851997 123.639062 
L 115.851997 123.639062 
L 117.530193 123.639062 
L 117.530193 123.639062 
L 117.530193 121.407062 
L 117.530193 121.407062 
L 118.36929 121.407062 
L 118.36929 121.407062 
L 118.36929 119.175062 
L 118.36929 119.175062 
L 119.208388 119.175062 
L 119.208388 119.175062 
L 119.208388 116.943062 
L 119.208388 116.943062 
L 120.047486 116.943062 
L 120.047486 116.943062 
L 120.047486 114.711062 
L 120.047486 114.711062 
L 122.564779 114.711062 
L 122.564779 114.711062 
L 122.564779 112.479062 
L 122.564779 112.479062 
L 125.082072 112.479062 
L 125.082072 112.479062 
L 125.082072 110.247062 
L 125.082072 110.247062 
L 130.116659 110.247062 
L 130.116659 110.247062 
L 130.116659 108.015062 
L 130.116659 108.015062 
L 130.955757 108.015062 
L 130.955757 108.015062 
L 130.955757 103.551063 
L 130.955757 103.551063 
L 131.794854 103.551063 
L 131.794854 103.551063 
L 131.794854 101.319063 
L 131.794854 101.319063 
L 135.151245 101.319063 
L 135.151245 101.319063 
L 135.151245 96.855063 
L 135.151245 96.855063 
L 138.507636 96.855063 
L 138.507636 96.855063 
L 138.507636 92.391063 
L 138.507636 92.391063 
L 139.346734 92.391063 
L 139.346734 92.391063 
L 139.346734 85.695062 
L 139.346734 85.695062 
L 146.059516 85.695062 
L 146.059516 85.695062 
L 146.059516 81.231063 
L 146.059516 81.231063 
L 150.255005 81.231063 
L 150.255005 81.231063 
L 150.255005 78.999063 
L 150.255005 78.999063 
L 151.094102 78.999063 
L 151.094102 78.999063 
L 151.094102 76.767063 
L 151.094102 76.767063 
L 151.9332 76.767063 
L 151.9332 76.767063 
L 151.9332 74.535063 
L 151.9332 74.535063 
L 152.772298 74.535063 
L 152.772298 74.535063 
L 152.772298 72.303063 
L 152.772298 72.303063 
L 153.611396 72.303063 
L 153.611396 72.303063 
L 153.611396 70.071063 
L 153.611396 70.071063 
L 155.289591 70.071063 
L 155.289591 70.071063 
L 155.289591 67.839063 
L 155.289591 67.839063 
L 158.645982 67.839063 
L 158.645982 67.839063 
L 158.645982 65.607062 
L 158.645982 65.607062 
L 161.163275 65.607062 
L 161.163275 65.607062 
L 161.163275 63.375062 
L 161.163275 63.375062 
L 162.002373 63.375062 
L 162.002373 63.375062 
L 162.002373 61.143062 
L 162.002373 61.143062 
L 163.680569 61.143062 
L 163.680569 61.143062 
L 163.680569 58.911062 
L 163.680569 58.911062 
L 164.519666 58.911062 
L 164.519666 58.911062 
L 164.519666 56.679062 
L 164.519666 56.679062 
L 168.715155 56.679062 
L 168.715155 56.679062 
L 168.715155 54.447062 
L 168.715155 54.447062 
L 175.427937 54.447062 
L 175.427937 54.447062 
L 175.427937 52.215063 
L 175.427937 52.215063 
L 179.623426 52.215063 
L 179.623426 52.215063 
L 179.623426 49.983063 
L 179.623426 49.983063 
L 184.658012 49.983063 
L 184.658012 49.983063 
L 184.658012 47.751063 
L 184.658012 47.751063 
L 185.49711 47.751063 
L 185.49711 47.751063 
L 185.49711 45.519062 
L 185.49711 45.519062 
L 186.336208 45.519062 
L 186.336208 45.519062 
L 186.336208 43.287062 
L 186.336208 43.287062 
L 187.175305 43.287062 
L 187.175305 43.287062 
L 187.175305 41.055062 
L 187.175305 41.055062 
L 193.888087 41.055062 
L 193.888087 41.055062 
L 193.888087 38.823062 
L 193.888087 38.823062 
L 199.761772 38.823062 
L 199.761772 38.823062 
L 199.761772 36.591062 
L 199.761772 36.591062 
L 206.474554 36.591062 
L 206.474554 36.591062 
L 206.474554 34.359062 
L 206.474554 34.359062 
L 219.06102 34.359062 
L 219.06102 32.127062 
L 219.06102 32.127062 
L 220.739215 32.127062 
L 220.739215 32.127062 
L 220.739215 29.895062 
L 220.739215 29.895062 
L 224.934704 29.895062 
L 224.934704 29.895062 
L 224.934704 27.663062 
L 224.934704 27.663062 
L 228.291095 27.663062 
L 228.291095 27.663062 
L 228.291095 25.431063 
L 228.291095 25.431063 
L 230.808388 25.431063 
L 230.808388 25.431063 
L 230.808388 23.199062 
L 230.808388 23.199062 
L 236.682072 23.199062 
L 236.682072 23.199062 
L 236.682072 20.967062 
L 236.682072 20.967062 
L 265.211396 20.967062 
L 265.211396 20.967062 
L 265.211396 18.735062 
L 265.211396 18.735062 
L 266.050493 18.735062 
L 266.050493 18.735062 
L 266.050493 16.503062 
L 266.050493 16.503062 
L 300.453501 16.503062 
L 300.453501 16.503062 
L 300.453501 14.271062 
L 300.453501 14.271062 
L 301.292599 14.271062 
L 301.292599 14.271062 
L 301.292599 12.039062 
L 301.292599 12.039062 
L 365.903125 12.039062 
L 365.903125 12.039062 
" style="fill:none;stroke:#348abd;stroke-linecap:square;"/>
   </g>
   <g id="line2d_45">
    <path clip-path="url(#pf480aee421)" d="M 31.103125 235.239062 
L 31.103125 231.805216 
L 31.103125 231.805216 
L 31.103125 231.805216 
L 31.103125 232.926109 
L 31.942223 233.040048 
L 31.942223 233.474636 
L 31.942223 233.474636 
L 31.942223 233.474636 
L 31.942223 231.724102 
L 31.942223 232.349742 
L 32.78132 232.466392 
L 32.78132 232.752154 
L 32.78132 232.752154 
L 32.78132 232.752154 
L 32.78132 231.519062 
L 32.78132 231.587529 
L 33.620418 231.703221 
L 33.620418 231.863637 
L 33.620418 231.863637 
L 33.620418 231.863637 
L 33.620418 230.421796 
L 33.620418 231.282785 
L 34.459516 231.396308 
L 34.459516 232.276231 
L 35.298614 232.389701 
L 35.298614 232.466392 
L 35.298614 232.466392 
L 35.298614 232.466392 
L 35.298614 231.594981 
L 35.298614 232.027552 
L 36.137711 232.100925 
L 36.137711 231.711758 
L 36.137711 232.100313 
L 36.137711 232.100313 
L 36.137711 232.240854 
L 36.976809 232.340361 
L 36.976809 232.020605 
L 36.976809 232.338478 
L 36.976809 232.338478 
L 36.976809 232.431515 
L 37.815907 232.454284 
L 37.815907 231.792982 
L 37.815907 232.074831 
L 38.655005 232.186353 
L 38.655005 232.218136 
L 38.655005 232.218136 
L 38.655005 232.218136 
L 38.655005 231.98745 
L 38.655005 232.154364 
L 39.494102 232.265894 
L 39.494102 232.408628 
L 40.3332 232.520663 
L 40.3332 232.626353 
L 41.172298 232.6788 
L 41.172298 232.315444 
L 41.172298 232.447972 
L 42.011396 232.559993 
L 42.011396 232.61318 
L 42.850493 232.725018 
L 42.850493 232.769353 
L 43.689591 232.810501 
L 43.689591 232.729539 
L 43.689591 232.582798 
L 43.689591 232.601977 
L 44.528689 232.713858 
L 44.528689 232.718611 
L 47.045982 232.717741 
L 47.045982 232.592422 
L 47.045982 232.646585 
L 48.724178 232.759062 
L 48.724178 232.809832 
L 50.402373 232.922107 
L 50.402373 232.975808 
L 52.080569 233.087984 
L 52.080569 233.094382 
L 52.080569 233.094382 
L 52.080569 233.094382 
L 52.080569 232.992768 
L 52.080569 233.009596 
L 53.758764 233.121598 
L 53.758764 233.138806 
L 61.310644 233.253755 
L 61.310644 233.262546 
L 63.827937 233.374459 
L 63.827937 233.413157 
L 66.34523 233.525069 
L 66.34523 233.553828 
L 69.701621 233.665847 
L 69.701621 233.66644 
L 74.736208 233.778648 
L 74.736208 233.798133 
L 77.253501 233.9097 
L 77.253501 233.911018 
L 89.000869 234.023934 
L 89.000869 234.042786 
L 96.552749 234.154604 
L 96.552749 234.172365 
L 101.587336 234.283822 
L 101.587336 234.288585 
L 128.438463 234.401258 
L 128.438463 234.40361 
L 247.590343 234.518675 
L 247.590343 234.519836 
L 365.903125 234.566885 
L 365.903125 234.566885 
" style="fill:none;stroke:#988ed5;stroke-linecap:square;"/>
   </g>
   <g id="patch_3">
    <path d="M 31.103125 12.039062 
L 365.903125 12.039062 
" style="fill:none;stroke:#ffffff;stroke-linecap:square;stroke-linejoin:miter;"/>
   </g>
   <g id="patch_4">
    <path d="M 365.903125 235.239062 
L 365.903125 12.039062 
" style="fill:none;stroke:#ffffff;stroke-linecap:square;stroke-linejoin:miter;"/>
   </g>
   <g id="patch_5">
    <path d="M 31.103125 235.239062 
L 365.903125 235.239062 
" style="fill:none;stroke:#ffffff;stroke-linecap:square;stroke-linejoin:miter;"/>
   </g>
   <g id="patch_6">
    <path d="M 31.103125 235.239062 
L 31.103125 12.039062 
" style="fill:none;stroke:#ffffff;stroke-linecap:square;stroke-linejoin:miter;"/>
   </g>
   <g id="legend_1">
    <g id="patch_7">
     <path d="M 37.103125 74.480312 
L 134.69875 74.480312 
L 134.69875 18.039062 
L 37.103125 18.039062 
z
" style="fill:#e5e5e5;stroke:#ffffff;stroke-linejoin:miter;stroke-width:0.5;"/>
    </g>
    <g id="line2d_46">
     <path d="M 45.503125 27.757187 
L 62.303125 27.757187 
" style="fill:none;stroke:#e24a33;stroke-linecap:square;"/>
    </g>
    <g id="line2d_47"/>
    <g id="text_16">
     <!-- precision -->
     <defs>
      <path d="M 54.890625 33.015625 
L 54.890625 0 
L 45.90625 0 
L 45.90625 32.71875 
Q 45.90625 40.484375 42.875 44.328125 
Q 39.84375 48.1875 33.796875 48.1875 
Q 26.515625 48.1875 22.3125 43.546875 
Q 18.109375 38.921875 18.109375 30.90625 
L 18.109375 0 
L 9.078125 0 
L 9.078125 54.6875 
L 18.109375 54.6875 
L 18.109375 46.1875 
Q 21.34375 51.125 25.703125 53.5625 
Q 30.078125 56 35.796875 56 
Q 45.21875 56 50.046875 50.171875 
Q 54.890625 44.34375 54.890625 33.015625 
" id="BitstreamVeraSans-Roman-6e"/>
      <path d="M 30.609375 48.390625 
Q 23.390625 48.390625 19.1875 42.75 
Q 14.984375 37.109375 14.984375 27.296875 
Q 14.984375 17.484375 19.15625 11.84375 
Q 23.34375 6.203125 30.609375 6.203125 
Q 37.796875 6.203125 41.984375 11.859375 
Q 46.1875 17.53125 46.1875 27.296875 
Q 46.1875 37.015625 41.984375 42.703125 
Q 37.796875 48.390625 30.609375 48.390625 
M 30.609375 56 
Q 42.328125 56 49.015625 48.375 
Q 55.71875 40.765625 55.71875 27.296875 
Q 55.71875 13.875 49.015625 6.21875 
Q 42.328125 -1.421875 30.609375 -1.421875 
Q 18.84375 -1.421875 12.171875 6.21875 
Q 5.515625 13.875 5.515625 27.296875 
Q 5.515625 40.765625 12.171875 48.375 
Q 18.84375 56 30.609375 56 
" id="BitstreamVeraSans-Roman-6f"/>
      <path d="M 9.421875 54.6875 
L 18.40625 54.6875 
L 18.40625 0 
L 9.421875 0 
z
M 9.421875 75.984375 
L 18.40625 75.984375 
L 18.40625 64.59375 
L 9.421875 64.59375 
z
" id="BitstreamVeraSans-Roman-69"/>
      <path d="M 18.109375 8.203125 
L 18.109375 -20.796875 
L 9.078125 -20.796875 
L 9.078125 54.6875 
L 18.109375 54.6875 
L 18.109375 46.390625 
Q 20.953125 51.265625 25.265625 53.625 
Q 29.59375 56 35.59375 56 
Q 45.5625 56 51.78125 48.09375 
Q 58.015625 40.1875 58.015625 27.296875 
Q 58.015625 14.40625 51.78125 6.484375 
Q 45.5625 -1.421875 35.59375 -1.421875 
Q 29.59375 -1.421875 25.265625 0.953125 
Q 20.953125 3.328125 18.109375 8.203125 
M 48.6875 27.296875 
Q 48.6875 37.203125 44.609375 42.84375 
Q 40.53125 48.484375 33.40625 48.484375 
Q 26.265625 48.484375 22.1875 42.84375 
Q 18.109375 37.203125 18.109375 27.296875 
Q 18.109375 17.390625 22.1875 11.75 
Q 26.265625 6.109375 33.40625 6.109375 
Q 40.53125 6.109375 44.609375 11.75 
Q 48.6875 17.390625 48.6875 27.296875 
" id="BitstreamVeraSans-Roman-70"/>
      <path d="M 56.203125 29.59375 
L 56.203125 25.203125 
L 14.890625 25.203125 
Q 15.484375 15.921875 20.484375 11.0625 
Q 25.484375 6.203125 34.421875 6.203125 
Q 39.59375 6.203125 44.453125 7.46875 
Q 49.3125 8.734375 54.109375 11.28125 
L 54.109375 2.78125 
Q 49.265625 0.734375 44.1875 -0.34375 
Q 39.109375 -1.421875 33.890625 -1.421875 
Q 20.796875 -1.421875 13.15625 6.1875 
Q 5.515625 13.8125 5.515625 26.8125 
Q 5.515625 40.234375 12.765625 48.109375 
Q 20.015625 56 32.328125 56 
Q 43.359375 56 49.78125 48.890625 
Q 56.203125 41.796875 56.203125 29.59375 
M 47.21875 32.234375 
Q 47.125 39.59375 43.09375 43.984375 
Q 39.0625 48.390625 32.421875 48.390625 
Q 24.90625 48.390625 20.390625 44.140625 
Q 15.875 39.890625 15.1875 32.171875 
z
" id="BitstreamVeraSans-Roman-65"/>
      <path d="M 41.109375 46.296875 
Q 39.59375 47.171875 37.8125 47.578125 
Q 36.03125 48 33.890625 48 
Q 26.265625 48 22.1875 43.046875 
Q 18.109375 38.09375 18.109375 28.8125 
L 18.109375 0 
L 9.078125 0 
L 9.078125 54.6875 
L 18.109375 54.6875 
L 18.109375 46.1875 
Q 20.953125 51.171875 25.484375 53.578125 
Q 30.03125 56 36.53125 56 
Q 37.453125 56 38.578125 55.875 
Q 39.703125 55.765625 41.0625 55.515625 
z
" id="BitstreamVeraSans-Roman-72"/>
      <path d="M 44.28125 53.078125 
L 44.28125 44.578125 
Q 40.484375 46.53125 36.375 47.5 
Q 32.28125 48.484375 27.875 48.484375 
Q 21.1875 48.484375 17.84375 46.4375 
Q 14.5 44.390625 14.5 40.28125 
Q 14.5 37.15625 16.890625 35.375 
Q 19.28125 33.59375 26.515625 31.984375 
L 29.59375 31.296875 
Q 39.15625 29.25 43.1875 25.515625 
Q 47.21875 21.78125 47.21875 15.09375 
Q 47.21875 7.46875 41.1875 3.015625 
Q 35.15625 -1.421875 24.609375 -1.421875 
Q 20.21875 -1.421875 15.453125 -0.5625 
Q 10.6875 0.296875 5.421875 2 
L 5.421875 11.28125 
Q 10.40625 8.6875 15.234375 7.390625 
Q 20.0625 6.109375 24.8125 6.109375 
Q 31.15625 6.109375 34.5625 8.28125 
Q 37.984375 10.453125 37.984375 14.40625 
Q 37.984375 18.0625 35.515625 20.015625 
Q 33.0625 21.96875 24.703125 23.78125 
L 21.578125 24.515625 
Q 13.234375 26.265625 9.515625 29.90625 
Q 5.8125 33.546875 5.8125 39.890625 
Q 5.8125 47.609375 11.28125 51.796875 
Q 16.75 56 26.8125 56 
Q 31.78125 56 36.171875 55.265625 
Q 40.578125 54.546875 44.28125 53.078125 
" id="BitstreamVeraSans-Roman-73"/>
      <path d="M 48.78125 52.59375 
L 48.78125 44.1875 
Q 44.96875 46.296875 41.140625 47.34375 
Q 37.3125 48.390625 33.40625 48.390625 
Q 24.65625 48.390625 19.8125 42.84375 
Q 14.984375 37.3125 14.984375 27.296875 
Q 14.984375 17.28125 19.8125 11.734375 
Q 24.65625 6.203125 33.40625 6.203125 
Q 37.3125 6.203125 41.140625 7.25 
Q 44.96875 8.296875 48.78125 10.40625 
L 48.78125 2.09375 
Q 45.015625 0.34375 40.984375 -0.53125 
Q 36.96875 -1.421875 32.421875 -1.421875 
Q 20.0625 -1.421875 12.78125 6.34375 
Q 5.515625 14.109375 5.515625 27.296875 
Q 5.515625 40.671875 12.859375 48.328125 
Q 20.21875 56 33.015625 56 
Q 37.15625 56 41.109375 55.140625 
Q 45.0625 54.296875 48.78125 52.59375 
" id="BitstreamVeraSans-Roman-63"/>
     </defs>
     <g transform="translate(75.503125 31.9571875)scale(0.12 -0.12)">
      <use xlink:href="#BitstreamVeraSans-Roman-70"/>
      <use x="63.4765625" xlink:href="#BitstreamVeraSans-Roman-72"/>
      <use x="104.55859375" xlink:href="#BitstreamVeraSans-Roman-65"/>
      <use x="166.08203125" xlink:href="#BitstreamVeraSans-Roman-63"/>
      <use x="221.0625" xlink:href="#BitstreamVeraSans-Roman-69"/>
      <use x="248.845703125" xlink:href="#BitstreamVeraSans-Roman-73"/>
      <use x="300.9453125" xlink:href="#BitstreamVeraSans-Roman-69"/>
      <use x="328.728515625" xlink:href="#BitstreamVeraSans-Roman-6f"/>
      <use x="389.91015625" xlink:href="#BitstreamVeraSans-Roman-6e"/>
     </g>
    </g>
    <g id="line2d_48">
     <path d="M 45.503125 45.370937 
L 62.303125 45.370937 
" style="fill:none;stroke:#348abd;stroke-linecap:square;"/>
    </g>
    <g id="line2d_49"/>
    <g id="text_17">
     <!-- recall -->
     <defs>
      <path d="M 34.28125 27.484375 
Q 23.390625 27.484375 19.1875 25 
Q 14.984375 22.515625 14.984375 16.5 
Q 14.984375 11.71875 18.140625 8.90625 
Q 21.296875 6.109375 26.703125 6.109375 
Q 34.1875 6.109375 38.703125 11.40625 
Q 43.21875 16.703125 43.21875 25.484375 
L 43.21875 27.484375 
z
M 52.203125 31.203125 
L 52.203125 0 
L 43.21875 0 
L 43.21875 8.296875 
Q 40.140625 3.328125 35.546875 0.953125 
Q 30.953125 -1.421875 24.3125 -1.421875 
Q 15.921875 -1.421875 10.953125 3.296875 
Q 6 8.015625 6 15.921875 
Q 6 25.140625 12.171875 29.828125 
Q 18.359375 34.515625 30.609375 34.515625 
L 43.21875 34.515625 
L 43.21875 35.40625 
Q 43.21875 41.609375 39.140625 45 
Q 35.0625 48.390625 27.6875 48.390625 
Q 23 48.390625 18.546875 47.265625 
Q 14.109375 46.140625 10.015625 43.890625 
L 10.015625 52.203125 
Q 14.9375 54.109375 19.578125 55.046875 
Q 24.21875 56 28.609375 56 
Q 40.484375 56 46.34375 49.84375 
Q 52.203125 43.703125 52.203125 31.203125 
" id="BitstreamVeraSans-Roman-61"/>
      <path d="M 9.421875 75.984375 
L 18.40625 75.984375 
L 18.40625 0 
L 9.421875 0 
z
" id="BitstreamVeraSans-Roman-6c"/>
     </defs>
     <g transform="translate(75.503125 49.5709375)scale(0.12 -0.12)">
      <use xlink:href="#BitstreamVeraSans-Roman-72"/>
      <use x="41.08203125" xlink:href="#BitstreamVeraSans-Roman-65"/>
      <use x="102.60546875" xlink:href="#BitstreamVeraSans-Roman-63"/>
      <use x="157.5859375" xlink:href="#BitstreamVeraSans-Roman-61"/>
      <use x="218.865234375" xlink:href="#BitstreamVeraSans-Roman-6c"/>
      <use x="246.6484375" xlink:href="#BitstreamVeraSans-Roman-6c"/>
     </g>
    </g>
    <g id="line2d_50">
     <path d="M 45.503125 62.984687 
L 62.303125 62.984687 
" style="fill:none;stroke:#988ed5;stroke-linecap:square;"/>
    </g>
    <g id="line2d_51"/>
    <g id="text_18">
     <!-- f1 -->
     <defs>
      <path d="M 37.109375 75.984375 
L 37.109375 68.5 
L 28.515625 68.5 
Q 23.6875 68.5 21.796875 66.546875 
Q 19.921875 64.59375 19.921875 59.515625 
L 19.921875 54.6875 
L 34.71875 54.6875 
L 34.71875 47.703125 
L 19.921875 47.703125 
L 19.921875 0 
L 10.890625 0 
L 10.890625 47.703125 
L 2.296875 47.703125 
L 2.296875 54.6875 
L 10.890625 54.6875 
L 10.890625 58.5 
Q 10.890625 67.625 15.140625 71.796875 
Q 19.390625 75.984375 28.609375 75.984375 
z
" id="BitstreamVeraSans-Roman-66"/>
     </defs>
     <g transform="translate(75.503125 67.1846875)scale(0.12 -0.12)">
      <use xlink:href="#BitstreamVeraSans-Roman-66"/>
      <use x="35.205078125" xlink:href="#BitstreamVeraSans-Roman-31"/>
     </g>
    </g>
   </g>
  </g>
 </g>
 <defs>
  <clipPath id="pf480aee421">
   <rect height="223.2" width="334.8" x="31.103125" y="12.0390625"/>
  </clipPath>
 </defs>
</svg>
