<?xml version="1.0" encoding="utf-8" standalone="no"?>
<!DOCTYPE svg PUBLIC "-//W3C//DTD SVG 1.1//EN"
  "http://www.w3.org/Graphics/SVG/1.1/DTD/svg11.dtd">
<!-- Created with matplotlib (http://matplotlib.org/) -->
<svg height="276pt" version="1.1" viewBox="0 0 375 276" width="375pt" xmlns="http://www.w3.org/2000/svg" xmlns:xlink="http://www.w3.org/1999/xlink">
 <defs>
  <style type="text/css">
*{stroke-linecap:butt;stroke-linejoin:round;stroke-miterlimit:100000;}
  </style>
 </defs>
 <g id="figure_1">
  <g id="patch_1">
   <path d="M 0 276.730937 
L 375.279638 276.730937 
L 375.279638 0 
L 0 0 
L 0 276.730937 
z
" style="fill:none;"/>
  </g>
  <g id="axes_1">
   <g id="patch_2">
    <path d="M 31.103125 235.239062 
L 365.903125 235.239062 
L 365.903125 12.039062 
L 31.103125 12.039062 
z
" style="fill:#e5e5e5;"/>
   </g>
   <g id="matplotlib.axis_1">
    <g id="xtick_1">
     <g id="line2d_1">
      <path clip-path="url(#p7bb6dae689)" d="M 31.103125 235.239062 
L 31.103125 12.039062 
" style="fill:none;stroke:#ffffff;stroke-linecap:square;stroke-width:0.5;"/>
     </g>
     <g id="line2d_2">
      <defs>
       <path d="M 0 0 
L 0 4 
" id="m3fade0cc6e" style="stroke:#555555;stroke-width:0.5;"/>
      </defs>
      <g>
       <use style="fill:#555555;stroke:#555555;stroke-width:0.5;" x="31.103125" xlink:href="#m3fade0cc6e" y="235.2390625"/>
      </g>
     </g>
     <g id="line2d_3">
      <defs>
       <path d="M 0 0 
L 0 -4 
" id="m00d909d914" style="stroke:#555555;stroke-width:0.5;"/>
      </defs>
      <g>
       <use style="fill:#555555;stroke:#555555;stroke-width:0.5;" x="31.103125" xlink:href="#m00d909d914" y="12.0390625"/>
      </g>
     </g>
     <g id="text_1">
      <!-- 0 -->
      <defs>
       <path d="M 31.78125 66.40625 
Q 24.171875 66.40625 20.328125 58.90625 
Q 16.5 51.421875 16.5 36.375 
Q 16.5 21.390625 20.328125 13.890625 
Q 24.171875 6.390625 31.78125 6.390625 
Q 39.453125 6.390625 43.28125 13.890625 
Q 47.125 21.390625 47.125 36.375 
Q 47.125 51.421875 43.28125 58.90625 
Q 39.453125 66.40625 31.78125 66.40625 
M 31.78125 74.21875 
Q 44.046875 74.21875 50.515625 64.515625 
Q 56.984375 54.828125 56.984375 36.375 
Q 56.984375 17.96875 50.515625 8.265625 
Q 44.046875 -1.421875 31.78125 -1.421875 
Q 19.53125 -1.421875 13.0625 8.265625 
Q 6.59375 17.96875 6.59375 36.375 
Q 6.59375 54.828125 13.0625 64.515625 
Q 19.53125 74.21875 31.78125 74.21875 
" id="BitstreamVeraSans-Roman-30"/>
      </defs>
      <g style="fill:#555555;" transform="translate(27.921875 250.8375)scale(0.1 -0.1)">
       <use xlink:href="#BitstreamVeraSans-Roman-30"/>
      </g>
     </g>
    </g>
    <g id="xtick_2">
     <g id="line2d_4">
      <path clip-path="url(#p7bb6dae689)" d="M 72.03222 235.239062 
L 72.03222 12.039062 
" style="fill:none;stroke:#ffffff;stroke-linecap:square;stroke-width:0.5;"/>
     </g>
     <g id="line2d_5">
      <g>
       <use style="fill:#555555;stroke:#555555;stroke-width:0.5;" x="72.0322203545" xlink:href="#m3fade0cc6e" y="235.2390625"/>
      </g>
     </g>
     <g id="line2d_6">
      <g>
       <use style="fill:#555555;stroke:#555555;stroke-width:0.5;" x="72.0322203545" xlink:href="#m00d909d914" y="12.0390625"/>
      </g>
     </g>
     <g id="text_2">
      <!-- 50 -->
      <defs>
       <path d="M 10.796875 72.90625 
L 49.515625 72.90625 
L 49.515625 64.59375 
L 19.828125 64.59375 
L 19.828125 46.734375 
Q 21.96875 47.46875 24.109375 47.828125 
Q 26.265625 48.1875 28.421875 48.1875 
Q 40.625 48.1875 47.75 41.5 
Q 54.890625 34.8125 54.890625 23.390625 
Q 54.890625 11.625 47.5625 5.09375 
Q 40.234375 -1.421875 26.90625 -1.421875 
Q 22.3125 -1.421875 17.546875 -0.640625 
Q 12.796875 0.140625 7.71875 1.703125 
L 7.71875 11.625 
Q 12.109375 9.234375 16.796875 8.0625 
Q 21.484375 6.890625 26.703125 6.890625 
Q 35.15625 6.890625 40.078125 11.328125 
Q 45.015625 15.765625 45.015625 23.390625 
Q 45.015625 31 40.078125 35.4375 
Q 35.15625 39.890625 26.703125 39.890625 
Q 22.75 39.890625 18.8125 39.015625 
Q 14.890625 38.140625 10.796875 36.28125 
z
" id="BitstreamVeraSans-Roman-35"/>
      </defs>
      <g style="fill:#555555;" transform="translate(65.6697203545 250.8375)scale(0.1 -0.1)">
       <use xlink:href="#BitstreamVeraSans-Roman-35"/>
       <use x="63.623046875" xlink:href="#BitstreamVeraSans-Roman-30"/>
      </g>
     </g>
    </g>
    <g id="xtick_3">
     <g id="line2d_7">
      <path clip-path="url(#p7bb6dae689)" d="M 112.961316 235.239062 
L 112.961316 12.039062 
" style="fill:none;stroke:#ffffff;stroke-linecap:square;stroke-width:0.5;"/>
     </g>
     <g id="line2d_8">
      <g>
       <use style="fill:#555555;stroke:#555555;stroke-width:0.5;" x="112.961315709" xlink:href="#m3fade0cc6e" y="235.2390625"/>
      </g>
     </g>
     <g id="line2d_9">
      <g>
       <use style="fill:#555555;stroke:#555555;stroke-width:0.5;" x="112.961315709" xlink:href="#m00d909d914" y="12.0390625"/>
      </g>
     </g>
     <g id="text_3">
      <!-- 100 -->
      <defs>
       <path d="M 12.40625 8.296875 
L 28.515625 8.296875 
L 28.515625 63.921875 
L 10.984375 60.40625 
L 10.984375 69.390625 
L 28.421875 72.90625 
L 38.28125 72.90625 
L 38.28125 8.296875 
L 54.390625 8.296875 
L 54.390625 0 
L 12.40625 0 
z
" id="BitstreamVeraSans-Roman-31"/>
      </defs>
      <g style="fill:#555555;" transform="translate(103.417565709 250.8375)scale(0.1 -0.1)">
       <use xlink:href="#BitstreamVeraSans-Roman-31"/>
       <use x="63.623046875" xlink:href="#BitstreamVeraSans-Roman-30"/>
       <use x="127.24609375" xlink:href="#BitstreamVeraSans-Roman-30"/>
      </g>
     </g>
    </g>
    <g id="xtick_4">
     <g id="line2d_10">
      <path clip-path="url(#p7bb6dae689)" d="M 153.890411 235.239062 
L 153.890411 12.039062 
" style="fill:none;stroke:#ffffff;stroke-linecap:square;stroke-width:0.5;"/>
     </g>
     <g id="line2d_11">
      <g>
       <use style="fill:#555555;stroke:#555555;stroke-width:0.5;" x="153.890411064" xlink:href="#m3fade0cc6e" y="235.2390625"/>
      </g>
     </g>
     <g id="line2d_12">
      <g>
       <use style="fill:#555555;stroke:#555555;stroke-width:0.5;" x="153.890411064" xlink:href="#m00d909d914" y="12.0390625"/>
      </g>
     </g>
     <g id="text_4">
      <!-- 150 -->
      <g style="fill:#555555;" transform="translate(144.346661064 250.8375)scale(0.1 -0.1)">
       <use xlink:href="#BitstreamVeraSans-Roman-31"/>
       <use x="63.623046875" xlink:href="#BitstreamVeraSans-Roman-35"/>
       <use x="127.24609375" xlink:href="#BitstreamVeraSans-Roman-30"/>
      </g>
     </g>
    </g>
    <g id="xtick_5">
     <g id="line2d_13">
      <path clip-path="url(#p7bb6dae689)" d="M 194.819506 235.239062 
L 194.819506 12.039062 
" style="fill:none;stroke:#ffffff;stroke-linecap:square;stroke-width:0.5;"/>
     </g>
     <g id="line2d_14">
      <g>
       <use style="fill:#555555;stroke:#555555;stroke-width:0.5;" x="194.819506418" xlink:href="#m3fade0cc6e" y="235.2390625"/>
      </g>
     </g>
     <g id="line2d_15">
      <g>
       <use style="fill:#555555;stroke:#555555;stroke-width:0.5;" x="194.819506418" xlink:href="#m00d909d914" y="12.0390625"/>
      </g>
     </g>
     <g id="text_5">
      <!-- 200 -->
      <defs>
       <path d="M 19.1875 8.296875 
L 53.609375 8.296875 
L 53.609375 0 
L 7.328125 0 
L 7.328125 8.296875 
Q 12.9375 14.109375 22.625 23.890625 
Q 32.328125 33.6875 34.8125 36.53125 
Q 39.546875 41.84375 41.421875 45.53125 
Q 43.3125 49.21875 43.3125 52.78125 
Q 43.3125 58.59375 39.234375 62.25 
Q 35.15625 65.921875 28.609375 65.921875 
Q 23.96875 65.921875 18.8125 64.3125 
Q 13.671875 62.703125 7.8125 59.421875 
L 7.8125 69.390625 
Q 13.765625 71.78125 18.9375 73 
Q 24.125 74.21875 28.421875 74.21875 
Q 39.75 74.21875 46.484375 68.546875 
Q 53.21875 62.890625 53.21875 53.421875 
Q 53.21875 48.921875 51.53125 44.890625 
Q 49.859375 40.875 45.40625 35.40625 
Q 44.1875 33.984375 37.640625 27.21875 
Q 31.109375 20.453125 19.1875 8.296875 
" id="BitstreamVeraSans-Roman-32"/>
      </defs>
      <g style="fill:#555555;" transform="translate(185.275756418 250.8375)scale(0.1 -0.1)">
       <use xlink:href="#BitstreamVeraSans-Roman-32"/>
       <use x="63.623046875" xlink:href="#BitstreamVeraSans-Roman-30"/>
       <use x="127.24609375" xlink:href="#BitstreamVeraSans-Roman-30"/>
      </g>
     </g>
    </g>
    <g id="xtick_6">
     <g id="line2d_16">
      <path clip-path="url(#p7bb6dae689)" d="M 235.748602 235.239062 
L 235.748602 12.039062 
" style="fill:none;stroke:#ffffff;stroke-linecap:square;stroke-width:0.5;"/>
     </g>
     <g id="line2d_17">
      <g>
       <use style="fill:#555555;stroke:#555555;stroke-width:0.5;" x="235.748601773" xlink:href="#m3fade0cc6e" y="235.2390625"/>
      </g>
     </g>
     <g id="line2d_18">
      <g>
       <use style="fill:#555555;stroke:#555555;stroke-width:0.5;" x="235.748601773" xlink:href="#m00d909d914" y="12.0390625"/>
      </g>
     </g>
     <g id="text_6">
      <!-- 250 -->
      <g style="fill:#555555;" transform="translate(226.204851773 250.8375)scale(0.1 -0.1)">
       <use xlink:href="#BitstreamVeraSans-Roman-32"/>
       <use x="63.623046875" xlink:href="#BitstreamVeraSans-Roman-35"/>
       <use x="127.24609375" xlink:href="#BitstreamVeraSans-Roman-30"/>
      </g>
     </g>
    </g>
    <g id="xtick_7">
     <g id="line2d_19">
      <path clip-path="url(#p7bb6dae689)" d="M 276.677697 235.239062 
L 276.677697 12.039062 
" style="fill:none;stroke:#ffffff;stroke-linecap:square;stroke-width:0.5;"/>
     </g>
     <g id="line2d_20">
      <g>
       <use style="fill:#555555;stroke:#555555;stroke-width:0.5;" x="276.677697127" xlink:href="#m3fade0cc6e" y="235.2390625"/>
      </g>
     </g>
     <g id="line2d_21">
      <g>
       <use style="fill:#555555;stroke:#555555;stroke-width:0.5;" x="276.677697127" xlink:href="#m00d909d914" y="12.0390625"/>
      </g>
     </g>
     <g id="text_7">
      <!-- 300 -->
      <defs>
       <path d="M 40.578125 39.3125 
Q 47.65625 37.796875 51.625 33 
Q 55.609375 28.21875 55.609375 21.1875 
Q 55.609375 10.40625 48.1875 4.484375 
Q 40.765625 -1.421875 27.09375 -1.421875 
Q 22.515625 -1.421875 17.65625 -0.515625 
Q 12.796875 0.390625 7.625 2.203125 
L 7.625 11.71875 
Q 11.71875 9.328125 16.59375 8.109375 
Q 21.484375 6.890625 26.8125 6.890625 
Q 36.078125 6.890625 40.9375 10.546875 
Q 45.796875 14.203125 45.796875 21.1875 
Q 45.796875 27.640625 41.28125 31.265625 
Q 36.765625 34.90625 28.71875 34.90625 
L 20.21875 34.90625 
L 20.21875 43.015625 
L 29.109375 43.015625 
Q 36.375 43.015625 40.234375 45.921875 
Q 44.09375 48.828125 44.09375 54.296875 
Q 44.09375 59.90625 40.109375 62.90625 
Q 36.140625 65.921875 28.71875 65.921875 
Q 24.65625 65.921875 20.015625 65.03125 
Q 15.375 64.15625 9.8125 62.3125 
L 9.8125 71.09375 
Q 15.4375 72.65625 20.34375 73.4375 
Q 25.25 74.21875 29.59375 74.21875 
Q 40.828125 74.21875 47.359375 69.109375 
Q 53.90625 64.015625 53.90625 55.328125 
Q 53.90625 49.265625 50.4375 45.09375 
Q 46.96875 40.921875 40.578125 39.3125 
" id="BitstreamVeraSans-Roman-33"/>
      </defs>
      <g style="fill:#555555;" transform="translate(267.133947127 250.8375)scale(0.1 -0.1)">
       <use xlink:href="#BitstreamVeraSans-Roman-33"/>
       <use x="63.623046875" xlink:href="#BitstreamVeraSans-Roman-30"/>
       <use x="127.24609375" xlink:href="#BitstreamVeraSans-Roman-30"/>
      </g>
     </g>
    </g>
    <g id="xtick_8">
     <g id="line2d_22">
      <path clip-path="url(#p7bb6dae689)" d="M 317.606792 235.239062 
L 317.606792 12.039062 
" style="fill:none;stroke:#ffffff;stroke-linecap:square;stroke-width:0.5;"/>
     </g>
     <g id="line2d_23">
      <g>
       <use style="fill:#555555;stroke:#555555;stroke-width:0.5;" x="317.606792482" xlink:href="#m3fade0cc6e" y="235.2390625"/>
      </g>
     </g>
     <g id="line2d_24">
      <g>
       <use style="fill:#555555;stroke:#555555;stroke-width:0.5;" x="317.606792482" xlink:href="#m00d909d914" y="12.0390625"/>
      </g>
     </g>
     <g id="text_8">
      <!-- 350 -->
      <g style="fill:#555555;" transform="translate(308.063042482 250.8375)scale(0.1 -0.1)">
       <use xlink:href="#BitstreamVeraSans-Roman-33"/>
       <use x="63.623046875" xlink:href="#BitstreamVeraSans-Roman-35"/>
       <use x="127.24609375" xlink:href="#BitstreamVeraSans-Roman-30"/>
      </g>
     </g>
    </g>
    <g id="xtick_9">
     <g id="line2d_25">
      <path clip-path="url(#p7bb6dae689)" d="M 358.535888 235.239062 
L 358.535888 12.039062 
" style="fill:none;stroke:#ffffff;stroke-linecap:square;stroke-width:0.5;"/>
     </g>
     <g id="line2d_26">
      <g>
       <use style="fill:#555555;stroke:#555555;stroke-width:0.5;" x="358.535887836" xlink:href="#m3fade0cc6e" y="235.2390625"/>
      </g>
     </g>
     <g id="line2d_27">
      <g>
       <use style="fill:#555555;stroke:#555555;stroke-width:0.5;" x="358.535887836" xlink:href="#m00d909d914" y="12.0390625"/>
      </g>
     </g>
     <g id="text_9">
      <!-- 400 -->
      <defs>
       <path d="M 37.796875 64.3125 
L 12.890625 25.390625 
L 37.796875 25.390625 
z
M 35.203125 72.90625 
L 47.609375 72.90625 
L 47.609375 25.390625 
L 58.015625 25.390625 
L 58.015625 17.1875 
L 47.609375 17.1875 
L 47.609375 0 
L 37.796875 0 
L 37.796875 17.1875 
L 4.890625 17.1875 
L 4.890625 26.703125 
z
" id="BitstreamVeraSans-Roman-34"/>
      </defs>
      <g style="fill:#555555;" transform="translate(348.992137836 250.8375)scale(0.1 -0.1)">
       <use xlink:href="#BitstreamVeraSans-Roman-34"/>
       <use x="63.623046875" xlink:href="#BitstreamVeraSans-Roman-30"/>
       <use x="127.24609375" xlink:href="#BitstreamVeraSans-Roman-30"/>
      </g>
     </g>
    </g>
    <g id="text_10">
     <!-- x -->
     <defs>
      <path d="M 54.890625 54.6875 
L 35.109375 28.078125 
L 55.90625 0 
L 45.3125 0 
L 29.390625 21.484375 
L 13.484375 0 
L 2.875 0 
L 24.125 28.609375 
L 4.6875 54.6875 
L 15.28125 54.6875 
L 29.78125 35.203125 
L 44.28125 54.6875 
z
" id="BitstreamVeraSans-Roman-78"/>
     </defs>
     <g style="fill:#555555;" transform="translate(194.951875 267.0353125)scale(0.12 -0.12)">
      <use xlink:href="#BitstreamVeraSans-Roman-78"/>
     </g>
    </g>
   </g>
   <g id="matplotlib.axis_2">
    <g id="ytick_1">
     <g id="line2d_28">
      <path clip-path="url(#p7bb6dae689)" d="M 31.103125 235.239062 
L 365.903125 235.239062 
" style="fill:none;stroke:#ffffff;stroke-linecap:square;stroke-width:0.5;"/>
     </g>
     <g id="line2d_29">
      <defs>
       <path d="M 0 0 
L -4 0 
" id="mb2bf4ad649" style="stroke:#555555;stroke-width:0.5;"/>
      </defs>
      <g>
       <use style="fill:#555555;stroke:#555555;stroke-width:0.5;" x="31.103125" xlink:href="#mb2bf4ad649" y="235.2390625"/>
      </g>
     </g>
     <g id="line2d_30">
      <defs>
       <path d="M 0 0 
L 4 0 
" id="m2ebbf3acee" style="stroke:#555555;stroke-width:0.5;"/>
      </defs>
      <g>
       <use style="fill:#555555;stroke:#555555;stroke-width:0.5;" x="365.903125" xlink:href="#m2ebbf3acee" y="235.2390625"/>
      </g>
     </g>
     <g id="text_11">
      <!-- 0.0 -->
      <defs>
       <path d="M 10.6875 12.40625 
L 21 12.40625 
L 21 0 
L 10.6875 0 
z
" id="BitstreamVeraSans-Roman-2e"/>
      </defs>
      <g style="fill:#555555;" transform="translate(7.2 237.9984375)scale(0.1 -0.1)">
       <use xlink:href="#BitstreamVeraSans-Roman-30"/>
       <use x="63.623046875" xlink:href="#BitstreamVeraSans-Roman-2e"/>
       <use x="95.41015625" xlink:href="#BitstreamVeraSans-Roman-30"/>
      </g>
     </g>
    </g>
    <g id="ytick_2">
     <g id="line2d_31">
      <path clip-path="url(#p7bb6dae689)" d="M 31.103125 190.599063 
L 365.903125 190.599063 
" style="fill:none;stroke:#ffffff;stroke-linecap:square;stroke-width:0.5;"/>
     </g>
     <g id="line2d_32">
      <g>
       <use style="fill:#555555;stroke:#555555;stroke-width:0.5;" x="31.103125" xlink:href="#mb2bf4ad649" y="190.5990625"/>
      </g>
     </g>
     <g id="line2d_33">
      <g>
       <use style="fill:#555555;stroke:#555555;stroke-width:0.5;" x="365.903125" xlink:href="#m2ebbf3acee" y="190.5990625"/>
      </g>
     </g>
     <g id="text_12">
      <!-- 0.2 -->
      <g style="fill:#555555;" transform="translate(7.2 193.3584375)scale(0.1 -0.1)">
       <use xlink:href="#BitstreamVeraSans-Roman-30"/>
       <use x="63.623046875" xlink:href="#BitstreamVeraSans-Roman-2e"/>
       <use x="95.41015625" xlink:href="#BitstreamVeraSans-Roman-32"/>
      </g>
     </g>
    </g>
    <g id="ytick_3">
     <g id="line2d_34">
      <path clip-path="url(#p7bb6dae689)" d="M 31.103125 145.959062 
L 365.903125 145.959062 
" style="fill:none;stroke:#ffffff;stroke-linecap:square;stroke-width:0.5;"/>
     </g>
     <g id="line2d_35">
      <g>
       <use style="fill:#555555;stroke:#555555;stroke-width:0.5;" x="31.103125" xlink:href="#mb2bf4ad649" y="145.9590625"/>
      </g>
     </g>
     <g id="line2d_36">
      <g>
       <use style="fill:#555555;stroke:#555555;stroke-width:0.5;" x="365.903125" xlink:href="#m2ebbf3acee" y="145.9590625"/>
      </g>
     </g>
     <g id="text_13">
      <!-- 0.4 -->
      <g style="fill:#555555;" transform="translate(7.2 148.7184375)scale(0.1 -0.1)">
       <use xlink:href="#BitstreamVeraSans-Roman-30"/>
       <use x="63.623046875" xlink:href="#BitstreamVeraSans-Roman-2e"/>
       <use x="95.41015625" xlink:href="#BitstreamVeraSans-Roman-34"/>
      </g>
     </g>
    </g>
    <g id="ytick_4">
     <g id="line2d_37">
      <path clip-path="url(#p7bb6dae689)" d="M 31.103125 101.319062 
L 365.903125 101.319062 
" style="fill:none;stroke:#ffffff;stroke-linecap:square;stroke-width:0.5;"/>
     </g>
     <g id="line2d_38">
      <g>
       <use style="fill:#555555;stroke:#555555;stroke-width:0.5;" x="31.103125" xlink:href="#mb2bf4ad649" y="101.3190625"/>
      </g>
     </g>
     <g id="line2d_39">
      <g>
       <use style="fill:#555555;stroke:#555555;stroke-width:0.5;" x="365.903125" xlink:href="#m2ebbf3acee" y="101.3190625"/>
      </g>
     </g>
     <g id="text_14">
      <!-- 0.6 -->
      <defs>
       <path d="M 33.015625 40.375 
Q 26.375 40.375 22.484375 35.828125 
Q 18.609375 31.296875 18.609375 23.390625 
Q 18.609375 15.53125 22.484375 10.953125 
Q 26.375 6.390625 33.015625 6.390625 
Q 39.65625 6.390625 43.53125 10.953125 
Q 47.40625 15.53125 47.40625 23.390625 
Q 47.40625 31.296875 43.53125 35.828125 
Q 39.65625 40.375 33.015625 40.375 
M 52.59375 71.296875 
L 52.59375 62.3125 
Q 48.875 64.0625 45.09375 64.984375 
Q 41.3125 65.921875 37.59375 65.921875 
Q 27.828125 65.921875 22.671875 59.328125 
Q 17.53125 52.734375 16.796875 39.40625 
Q 19.671875 43.65625 24.015625 45.921875 
Q 28.375 48.1875 33.59375 48.1875 
Q 44.578125 48.1875 50.953125 41.515625 
Q 57.328125 34.859375 57.328125 23.390625 
Q 57.328125 12.15625 50.6875 5.359375 
Q 44.046875 -1.421875 33.015625 -1.421875 
Q 20.359375 -1.421875 13.671875 8.265625 
Q 6.984375 17.96875 6.984375 36.375 
Q 6.984375 53.65625 15.1875 63.9375 
Q 23.390625 74.21875 37.203125 74.21875 
Q 40.921875 74.21875 44.703125 73.484375 
Q 48.484375 72.75 52.59375 71.296875 
" id="BitstreamVeraSans-Roman-36"/>
      </defs>
      <g style="fill:#555555;" transform="translate(7.2 104.0784375)scale(0.1 -0.1)">
       <use xlink:href="#BitstreamVeraSans-Roman-30"/>
       <use x="63.623046875" xlink:href="#BitstreamVeraSans-Roman-2e"/>
       <use x="95.41015625" xlink:href="#BitstreamVeraSans-Roman-36"/>
      </g>
     </g>
    </g>
    <g id="ytick_5">
     <g id="line2d_40">
      <path clip-path="url(#p7bb6dae689)" d="M 31.103125 56.679062 
L 365.903125 56.679062 
" style="fill:none;stroke:#ffffff;stroke-linecap:square;stroke-width:0.5;"/>
     </g>
     <g id="line2d_41">
      <g>
       <use style="fill:#555555;stroke:#555555;stroke-width:0.5;" x="31.103125" xlink:href="#mb2bf4ad649" y="56.6790625"/>
      </g>
     </g>
     <g id="line2d_42">
      <g>
       <use style="fill:#555555;stroke:#555555;stroke-width:0.5;" x="365.903125" xlink:href="#m2ebbf3acee" y="56.6790625"/>
      </g>
     </g>
     <g id="text_15">
      <!-- 0.8 -->
      <defs>
       <path d="M 31.78125 34.625 
Q 24.75 34.625 20.71875 30.859375 
Q 16.703125 27.09375 16.703125 20.515625 
Q 16.703125 13.921875 20.71875 10.15625 
Q 24.75 6.390625 31.78125 6.390625 
Q 38.8125 6.390625 42.859375 10.171875 
Q 46.921875 13.96875 46.921875 20.515625 
Q 46.921875 27.09375 42.890625 30.859375 
Q 38.875 34.625 31.78125 34.625 
M 21.921875 38.8125 
Q 15.578125 40.375 12.03125 44.71875 
Q 8.5 49.078125 8.5 55.328125 
Q 8.5 64.0625 14.71875 69.140625 
Q 20.953125 74.21875 31.78125 74.21875 
Q 42.671875 74.21875 48.875 69.140625 
Q 55.078125 64.0625 55.078125 55.328125 
Q 55.078125 49.078125 51.53125 44.71875 
Q 48 40.375 41.703125 38.8125 
Q 48.828125 37.15625 52.796875 32.3125 
Q 56.78125 27.484375 56.78125 20.515625 
Q 56.78125 9.90625 50.3125 4.234375 
Q 43.84375 -1.421875 31.78125 -1.421875 
Q 19.734375 -1.421875 13.25 4.234375 
Q 6.78125 9.90625 6.78125 20.515625 
Q 6.78125 27.484375 10.78125 32.3125 
Q 14.796875 37.15625 21.921875 38.8125 
M 18.3125 54.390625 
Q 18.3125 48.734375 21.84375 45.5625 
Q 25.390625 42.390625 31.78125 42.390625 
Q 38.140625 42.390625 41.71875 45.5625 
Q 45.3125 48.734375 45.3125 54.390625 
Q 45.3125 60.0625 41.71875 63.234375 
Q 38.140625 66.40625 31.78125 66.40625 
Q 25.390625 66.40625 21.84375 63.234375 
Q 18.3125 60.0625 18.3125 54.390625 
" id="BitstreamVeraSans-Roman-38"/>
      </defs>
      <g style="fill:#555555;" transform="translate(7.2 59.4384375)scale(0.1 -0.1)">
       <use xlink:href="#BitstreamVeraSans-Roman-30"/>
       <use x="63.623046875" xlink:href="#BitstreamVeraSans-Roman-2e"/>
       <use x="95.41015625" xlink:href="#BitstreamVeraSans-Roman-38"/>
      </g>
     </g>
    </g>
    <g id="ytick_6">
     <g id="line2d_43">
      <path clip-path="url(#p7bb6dae689)" d="M 31.103125 12.039062 
L 365.903125 12.039062 
" style="fill:none;stroke:#ffffff;stroke-linecap:square;stroke-width:0.5;"/>
     </g>
     <g id="line2d_44">
      <g>
       <use style="fill:#555555;stroke:#555555;stroke-width:0.5;" x="31.103125" xlink:href="#mb2bf4ad649" y="12.0390625"/>
      </g>
     </g>
     <g id="line2d_45">
      <g>
       <use style="fill:#555555;stroke:#555555;stroke-width:0.5;" x="365.903125" xlink:href="#m2ebbf3acee" y="12.0390625"/>
      </g>
     </g>
     <g id="text_16">
      <!-- 1.0 -->
      <g style="fill:#555555;" transform="translate(7.2 14.7984375)scale(0.1 -0.1)">
       <use xlink:href="#BitstreamVeraSans-Roman-31"/>
       <use x="63.623046875" xlink:href="#BitstreamVeraSans-Roman-2e"/>
       <use x="95.41015625" xlink:href="#BitstreamVeraSans-Roman-30"/>
      </g>
     </g>
    </g>
   </g>
   <g id="line2d_46">
    <path clip-path="url(#p7bb6dae689)" d="M 31.103125 235.239062 
L 31.921707 235.239062 
L 31.921707 235.239062 
L 31.921707 235.239062 
L 32.740289 235.239062 
L 32.740289 235.239062 
L 32.740289 235.239062 
L 33.558871 235.239062 
L 33.558871 235.239062 
L 33.558871 235.239062 
L 33.558871 234.622488 
L 33.558871 234.622488 
L 33.558871 234.622488 
L 33.558871 234.776951 
L 33.558871 234.776951 
L 33.558871 234.776951 
L 33.558871 234.316748 
L 33.558871 234.428899 
L 34.377453 234.540471 
L 34.377453 234.659322 
L 35.196035 234.771138 
L 35.196035 234.790419 
L 36.014616 234.825346 
L 36.014616 234.619062 
L 36.014616 234.688405 
L 37.65178 234.800268 
L 37.65178 234.831019 
L 40.107526 234.909697 
L 40.107526 234.819316 
L 40.107526 234.714626 
L 40.107526 234.723827 
L 43.381854 234.835883 
L 43.381854 234.844856 
L 52.386255 234.762931 
L 52.386255 234.710153 
L 52.386255 234.718176 
L 54.023418 234.64373 
L 54.023418 234.551235 
L 54.023418 234.55813 
L 73.669384 234.672753 
L 73.669384 234.672877 
L 93.31535 234.785462 
L 93.31535 234.793748 
L 365.903125 234.902467 
L 365.903125 234.902467 
" style="fill:none;stroke:#e24a33;stroke-linecap:square;"/>
   </g>
   <g id="line2d_47">
    <path clip-path="url(#p7bb6dae689)" d="M 31.103125 235.239062 
L 31.921707 235.239062 
L 31.921707 235.239062 
L 31.921707 235.239062 
L 32.740289 235.239062 
L 32.740289 235.239062 
L 32.740289 235.239062 
L 33.558871 235.239062 
L 33.558871 235.239062 
L 33.558871 235.239062 
L 33.558871 233.007062 
L 33.558871 233.007062 
L 33.558871 233.007062 
L 33.558871 230.775062 
L 33.558871 230.775062 
L 33.558871 230.775062 
L 34.377453 230.775062 
L 34.377453 230.775062 
L 34.377453 230.775062 
L 35.196035 230.775062 
L 35.196035 230.775062 
L 35.196035 230.775062 
L 36.014616 230.775062 
L 36.014616 230.775062 
L 36.014616 230.775062 
L 36.014616 228.543062 
L 36.014616 228.543062 
L 36.014616 228.543062 
L 36.833198 228.543062 
L 36.833198 228.543062 
L 36.833198 228.543062 
L 37.65178 228.543062 
L 37.65178 228.543062 
L 37.65178 228.543062 
L 38.470362 228.543062 
L 38.470362 228.543062 
L 38.470362 228.543062 
L 39.288944 228.543062 
L 39.288944 228.543062 
L 39.288944 228.543062 
L 40.107526 228.543062 
L 40.107526 228.543062 
L 40.107526 228.543062 
L 40.107526 226.311062 
L 40.107526 226.311062 
L 40.107526 226.311062 
L 40.107526 224.079062 
L 40.107526 224.079062 
L 40.107526 224.079062 
L 40.926108 224.079062 
L 40.926108 224.079062 
L 40.926108 224.079062 
L 41.74469 224.079062 
L 41.74469 224.079062 
L 41.74469 224.079062 
L 42.563272 224.079062 
L 42.563272 224.079062 
L 42.563272 224.079062 
L 43.381854 224.079062 
L 43.381854 224.079062 
L 43.381854 224.079062 
L 44.200436 224.079062 
L 44.200436 224.079062 
L 44.200436 224.079062 
L 45.019017 224.079062 
L 45.019017 224.079062 
L 45.019017 224.079062 
L 45.837599 224.079062 
L 45.837599 224.079062 
L 45.837599 224.079062 
L 46.656181 224.079062 
L 46.656181 224.079062 
L 46.656181 224.079062 
L 47.474763 224.079062 
L 47.474763 224.079062 
L 47.474763 224.079062 
L 47.474763 221.847062 
L 47.474763 221.847062 
L 47.474763 221.847062 
L 47.474763 219.615062 
L 47.474763 219.615062 
L 47.474763 219.615062 
L 48.293345 219.615062 
L 48.293345 219.615062 
L 48.293345 219.615062 
L 49.111927 219.615062 
L 49.111927 219.615062 
L 49.111927 219.615062 
L 49.930509 219.615062 
L 49.930509 219.615062 
L 49.930509 219.615062 
L 49.930509 217.383062 
L 49.930509 217.383062 
L 49.930509 217.383062 
L 50.749091 217.383062 
L 50.749091 217.383062 
L 50.749091 217.383062 
L 50.749091 215.151062 
L 50.749091 215.151062 
L 50.749091 215.151062 
L 51.567673 215.151062 
L 51.567673 215.151062 
L 51.567673 215.151062 
L 52.386255 215.151062 
L 52.386255 215.151062 
L 52.386255 215.151062 
L 52.386255 212.919062 
L 52.386255 212.919062 
L 52.386255 212.919062 
L 53.204836 212.919062 
L 53.204836 212.919062 
L 53.204836 212.919062 
L 53.204836 210.687062 
L 53.204836 210.687062 
L 53.204836 210.687062 
L 53.204836 208.455062 
L 53.204836 208.455062 
L 53.204836 208.455062 
L 54.023418 208.455062 
L 54.023418 208.455062 
L 54.023418 208.455062 
L 54.023418 206.223062 
L 54.023418 206.223062 
L 54.023418 206.223062 
L 54.023418 203.991062 
L 54.023418 203.991062 
L 54.023418 203.991062 
L 54.842 203.991062 
L 54.842 203.991062 
L 54.842 203.991062 
L 55.660582 203.991062 
L 55.660582 203.991062 
L 55.660582 203.991062 
L 56.479164 203.991062 
L 56.479164 203.991062 
L 56.479164 203.991062 
L 57.297746 203.991062 
L 57.297746 203.991062 
L 57.297746 203.991062 
L 58.116328 203.991062 
L 58.116328 203.991062 
L 58.116328 203.991062 
L 58.93491 203.991062 
L 58.93491 203.991062 
L 58.93491 203.991062 
L 58.93491 201.759062 
L 58.93491 201.759062 
L 58.93491 201.759062 
L 58.93491 199.527062 
L 58.93491 199.527062 
L 58.93491 199.527062 
L 59.753492 199.527062 
L 59.753492 199.527062 
L 59.753492 199.527062 
L 60.572074 199.527062 
L 60.572074 199.527062 
L 60.572074 199.527062 
L 60.572074 197.295062 
L 60.572074 197.295062 
L 60.572074 197.295062 
L 61.390656 197.295062 
L 61.390656 197.295062 
L 61.390656 197.295062 
L 62.209237 197.295062 
L 62.209237 197.295062 
L 62.209237 197.295062 
L 63.027819 197.295062 
L 63.027819 197.295062 
L 63.027819 197.295062 
L 63.846401 197.295062 
L 63.846401 197.295062 
L 63.846401 197.295062 
L 63.846401 195.063063 
L 64.664983 195.063063 
L 64.664983 195.063063 
L 64.664983 192.831062 
L 64.664983 192.831062 
L 67.120729 192.831062 
L 67.120729 192.831062 
L 67.120729 190.599063 
L 67.120729 190.599063 
L 67.939311 190.599063 
L 67.939311 190.599063 
L 67.939311 188.367063 
L 67.939311 188.367063 
L 70.395057 188.367063 
L 70.395057 188.367063 
L 70.395057 186.135063 
L 70.395057 186.135063 
L 71.213638 186.135063 
L 71.213638 186.135063 
L 71.213638 183.903062 
L 71.213638 183.903062 
L 75.306548 183.903062 
L 75.306548 183.903062 
L 75.306548 181.671063 
L 75.306548 181.671063 
L 77.762294 181.671063 
L 77.762294 181.671063 
L 77.762294 179.439062 
L 77.762294 179.439062 
L 79.399458 179.439062 
L 79.399458 179.439062 
L 79.399458 177.207063 
L 79.399458 177.207063 
L 81.036621 177.207063 
L 81.036621 177.207063 
L 81.036621 174.975062 
L 81.036621 174.975062 
L 83.492367 174.975062 
L 83.492367 174.975062 
L 83.492367 172.743062 
L 83.492367 172.743062 
L 84.310949 172.743062 
L 84.310949 172.743062 
L 84.310949 170.511062 
L 84.310949 170.511062 
L 87.585277 170.511062 
L 87.585277 170.511062 
L 87.585277 168.279063 
L 87.585277 168.279063 
L 90.041022 168.279063 
L 90.041022 168.279063 
L 90.041022 166.047062 
L 90.041022 166.047062 
L 90.859604 166.047062 
L 90.859604 166.047062 
L 90.859604 163.815063 
L 90.859604 163.815063 
L 95.771096 163.815063 
L 95.771096 163.815063 
L 95.771096 161.583062 
L 95.771096 161.583062 
L 96.589678 161.583062 
L 96.589678 161.583062 
L 96.589678 159.351062 
L 96.589678 159.351062 
L 99.045423 159.351062 
L 99.045423 159.351062 
L 99.045423 157.119062 
L 99.045423 157.119062 
L 101.501169 157.119062 
L 101.501169 157.119062 
L 101.501169 154.887063 
L 101.501169 154.887063 
L 103.956915 154.887063 
L 103.956915 154.887063 
L 103.956915 152.655062 
L 103.956915 152.655062 
L 105.594079 152.655062 
L 105.594079 152.655062 
L 105.594079 148.191062 
L 105.594079 148.191062 
L 106.41266 148.191062 
L 106.41266 148.191062 
L 106.41266 143.727062 
L 106.41266 143.727062 
L 107.231242 143.727062 
L 107.231242 143.727062 
L 107.231242 139.263062 
L 107.231242 139.263062 
L 109.686988 139.263062 
L 109.686988 139.263062 
L 109.686988 137.031062 
L 109.686988 137.031062 
L 110.50557 137.031062 
L 110.50557 137.031062 
L 110.50557 132.567062 
L 110.50557 132.567062 
L 115.417061 132.567062 
L 115.417061 132.567062 
L 115.417061 130.335062 
L 115.417061 130.335062 
L 117.872807 130.335062 
L 117.872807 130.335062 
L 117.872807 128.103062 
L 117.872807 128.103062 
L 118.691389 128.103062 
L 118.691389 128.103062 
L 118.691389 125.871062 
L 118.691389 125.871062 
L 119.509971 125.871062 
L 119.509971 125.871062 
L 119.509971 123.639062 
L 119.509971 123.639062 
L 120.328553 123.639062 
L 120.328553 123.639062 
L 120.328553 121.407062 
L 120.328553 121.407062 
L 123.602881 121.407062 
L 123.602881 121.407062 
L 123.602881 119.175062 
L 123.602881 119.175062 
L 124.421462 119.175062 
L 124.421462 119.175062 
L 124.421462 116.943062 
L 124.421462 116.943062 
L 131.7887 116.943062 
L 131.7887 116.943062 
L 131.7887 114.711062 
L 131.7887 114.711062 
L 132.607281 114.711062 
L 132.607281 114.711062 
L 132.607281 110.247062 
L 132.607281 110.247062 
L 133.425863 110.247062 
L 133.425863 110.247062 
L 133.425863 105.783062 
L 133.425863 105.783062 
L 135.881609 105.783062 
L 135.881609 105.783062 
L 135.881609 103.551063 
L 135.881609 103.551063 
L 136.700191 103.551063 
L 136.700191 103.551063 
L 136.700191 99.087063 
L 136.700191 99.087063 
L 137.518773 99.087063 
L 137.518773 99.087063 
L 137.518773 96.855063 
L 137.518773 96.855063 
L 143.248846 96.855063 
L 143.248846 96.855063 
L 143.248846 92.391063 
L 143.248846 92.391063 
L 144.88601 92.391063 
L 144.88601 92.391063 
L 144.88601 90.159063 
L 144.88601 90.159063 
L 145.704592 90.159063 
L 145.704592 90.159063 
L 145.704592 87.927062 
L 145.704592 87.927062 
L 147.341756 87.927062 
L 147.341756 87.927062 
L 147.341756 85.695062 
L 147.341756 85.695062 
L 148.160338 85.695062 
L 148.160338 85.695062 
L 148.160338 83.463062 
L 148.160338 83.463062 
L 149.797502 83.463062 
L 149.797502 83.463062 
L 149.797502 81.231063 
L 149.797502 81.231063 
L 153.890411 81.231063 
L 153.890411 81.231063 
L 153.890411 78.999063 
L 153.890411 78.999063 
L 154.708993 78.999063 
L 154.708993 78.999063 
L 154.708993 76.767063 
L 154.708993 76.767063 
L 157.164739 76.767063 
L 157.164739 76.767063 
L 157.164739 74.535063 
L 157.164739 74.535063 
L 159.620484 74.535063 
L 159.620484 74.535063 
L 159.620484 72.303063 
L 159.620484 72.303063 
L 162.894812 72.303063 
L 162.894812 72.303063 
L 162.894812 70.071063 
L 162.894812 70.071063 
L 164.531976 70.071063 
L 164.531976 70.071063 
L 164.531976 67.839063 
L 164.531976 67.839063 
L 169.443467 67.839063 
L 169.443467 67.839063 
L 169.443467 65.607062 
L 169.443467 65.607062 
L 174.354959 65.607062 
L 174.354959 65.607062 
L 174.354959 63.375062 
L 174.354959 63.375062 
L 175.173541 63.375062 
L 175.173541 63.375062 
L 175.173541 61.143062 
L 175.173541 61.143062 
L 181.722196 61.143062 
L 181.722196 61.143062 
L 181.722196 58.911062 
L 181.722196 58.911062 
L 182.540778 58.911062 
L 182.540778 58.911062 
L 182.540778 54.447062 
L 182.540778 54.447062 
L 184.996524 54.447062 
L 184.996524 54.447062 
L 184.996524 52.215063 
L 184.996524 52.215063 
L 189.908015 52.215063 
L 189.908015 52.215063 
L 189.908015 49.983063 
L 189.908015 49.983063 
L 190.726597 49.983063 
L 190.726597 49.983063 
L 190.726597 47.751063 
L 190.726597 47.751063 
L 192.363761 47.751063 
L 192.363761 47.751063 
L 192.363761 45.519062 
L 192.363761 45.519062 
L 199.730998 45.519062 
L 199.730998 45.519062 
L 199.730998 43.287062 
L 199.730998 43.287062 
L 207.098235 43.287062 
L 207.098235 43.287062 
L 207.098235 41.055062 
L 207.098235 41.055062 
L 209.553981 41.055062 
L 209.553981 41.055062 
L 209.553981 38.823062 
L 209.553981 38.823062 
L 214.465472 38.823062 
L 214.465472 38.823062 
L 214.465472 36.591062 
L 214.465472 36.591062 
L 220.195546 36.591062 
L 220.195546 36.591062 
L 220.195546 32.127062 
L 220.195546 32.127062 
L 225.925619 32.127062 
L 225.925619 32.127062 
L 225.925619 29.895062 
L 225.925619 29.895062 
L 233.292856 29.895062 
L 233.292856 29.895062 
L 233.292856 27.663062 
L 233.292856 27.663062 
L 236.567184 27.663062 
L 236.567184 27.663062 
L 236.567184 25.431063 
L 236.567184 25.431063 
L 238.204347 25.431063 
L 238.204347 25.431063 
L 238.204347 23.199062 
L 238.204347 23.199062 
L 241.478675 23.199062 
L 241.478675 23.199062 
L 241.478675 20.967062 
L 241.478675 20.967062 
L 247.208748 20.967062 
L 247.208748 20.967062 
L 247.208748 18.735062 
L 247.208748 18.735062 
L 266.036132 18.735062 
L 266.036132 18.735062 
L 266.036132 16.503062 
L 266.036132 16.503062 
L 293.049335 16.503062 
L 293.049335 16.503062 
L 293.049335 14.271062 
L 293.049335 14.271062 
L 302.053736 14.271062 
L 302.053736 14.271062 
L 302.053736 12.039062 
L 302.053736 12.039062 
L 365.903125 12.039062 
L 365.903125 12.039062 
" style="fill:none;stroke:#348abd;stroke-linecap:square;"/>
   </g>
   <g id="line2d_48">
    <path clip-path="url(#p7bb6dae689)" d="M 31.103125 235.239062 
L 31.921707 235.239062 
L 31.921707 235.239062 
L 31.921707 235.239062 
L 32.740289 235.239062 
L 32.740289 235.239062 
L 32.740289 235.239062 
L 33.558871 235.239062 
L 33.558871 235.239062 
L 33.558871 235.239062 
L 33.558871 234.272829 
L 33.558871 234.272829 
L 33.558871 234.272829 
L 33.558871 234.473368 
L 33.558871 234.473368 
L 33.558871 234.473368 
L 33.558871 233.710295 
L 33.558871 233.867634 
L 34.377453 233.979824 
L 34.377453 234.212856 
L 35.196035 234.324308 
L 35.196035 234.42372 
L 36.014616 234.481811 
L 36.014616 234.104147 
L 36.014616 234.221433 
L 36.833198 234.332973 
L 36.833198 234.363196 
L 38.470362 234.475115 
L 38.470362 234.537176 
L 40.107526 234.611214 
L 40.107526 234.237267 
L 40.107526 234.254067 
L 41.74469 234.365823 
L 41.74469 234.385525 
L 44.200436 234.497534 
L 44.200436 234.511553 
L 47.474763 234.602076 
L 47.474763 234.490069 
L 47.474763 234.365481 
L 47.474763 234.367674 
L 52.386255 234.308847 
L 52.386255 234.205729 
L 52.386255 234.221047 
L 53.204836 234.238614 
L 53.204836 234.154131 
L 53.204836 234.055762 
L 53.204836 234.05785 
L 54.023418 234.074288 
L 54.023418 233.988912 
L 54.023418 233.893036 
L 54.023418 233.906241 
L 56.479164 234.018199 
L 56.479164 234.025784 
L 74.487966 234.142022 
L 74.487966 234.145877 
L 85.948113 234.258558 
L 85.948113 234.261077 
L 94.952514 234.37295 
L 94.952514 234.387713 
L 179.26645 234.504046 
L 179.26645 234.504651 
L 365.903125 234.566885 
L 365.903125 234.566885 
" style="fill:none;stroke:#988ed5;stroke-linecap:square;"/>
   </g>
   <g id="patch_3">
    <path d="M 31.103125 12.039062 
L 365.903125 12.039062 
" style="fill:none;stroke:#ffffff;stroke-linecap:square;stroke-linejoin:miter;"/>
   </g>
   <g id="patch_4">
    <path d="M 365.903125 235.239062 
L 365.903125 12.039062 
" style="fill:none;stroke:#ffffff;stroke-linecap:square;stroke-linejoin:miter;"/>
   </g>
   <g id="patch_5">
    <path d="M 31.103125 235.239062 
L 365.903125 235.239062 
" style="fill:none;stroke:#ffffff;stroke-linecap:square;stroke-linejoin:miter;"/>
   </g>
   <g id="patch_6">
    <path d="M 31.103125 235.239062 
L 31.103125 12.039062 
" style="fill:none;stroke:#ffffff;stroke-linecap:square;stroke-linejoin:miter;"/>
   </g>
   <g id="legend_1">
    <g id="patch_7">
     <path d="M 37.103125 74.480312 
L 134.69875 74.480312 
L 134.69875 18.039062 
L 37.103125 18.039062 
z
" style="fill:#e5e5e5;stroke:#ffffff;stroke-linejoin:miter;stroke-width:0.5;"/>
    </g>
    <g id="line2d_49">
     <path d="M 45.503125 27.757187 
L 62.303125 27.757187 
" style="fill:none;stroke:#e24a33;stroke-linecap:square;"/>
    </g>
    <g id="line2d_50"/>
    <g id="text_17">
     <!-- precision -->
     <defs>
      <path d="M 54.890625 33.015625 
L 54.890625 0 
L 45.90625 0 
L 45.90625 32.71875 
Q 45.90625 40.484375 42.875 44.328125 
Q 39.84375 48.1875 33.796875 48.1875 
Q 26.515625 48.1875 22.3125 43.546875 
Q 18.109375 38.921875 18.109375 30.90625 
L 18.109375 0 
L 9.078125 0 
L 9.078125 54.6875 
L 18.109375 54.6875 
L 18.109375 46.1875 
Q 21.34375 51.125 25.703125 53.5625 
Q 30.078125 56 35.796875 56 
Q 45.21875 56 50.046875 50.171875 
Q 54.890625 44.34375 54.890625 33.015625 
" id="BitstreamVeraSans-Roman-6e"/>
      <path d="M 30.609375 48.390625 
Q 23.390625 48.390625 19.1875 42.75 
Q 14.984375 37.109375 14.984375 27.296875 
Q 14.984375 17.484375 19.15625 11.84375 
Q 23.34375 6.203125 30.609375 6.203125 
Q 37.796875 6.203125 41.984375 11.859375 
Q 46.1875 17.53125 46.1875 27.296875 
Q 46.1875 37.015625 41.984375 42.703125 
Q 37.796875 48.390625 30.609375 48.390625 
M 30.609375 56 
Q 42.328125 56 49.015625 48.375 
Q 55.71875 40.765625 55.71875 27.296875 
Q 55.71875 13.875 49.015625 6.21875 
Q 42.328125 -1.421875 30.609375 -1.421875 
Q 18.84375 -1.421875 12.171875 6.21875 
Q 5.515625 13.875 5.515625 27.296875 
Q 5.515625 40.765625 12.171875 48.375 
Q 18.84375 56 30.609375 56 
" id="BitstreamVeraSans-Roman-6f"/>
      <path d="M 9.421875 54.6875 
L 18.40625 54.6875 
L 18.40625 0 
L 9.421875 0 
z
M 9.421875 75.984375 
L 18.40625 75.984375 
L 18.40625 64.59375 
L 9.421875 64.59375 
z
" id="BitstreamVeraSans-Roman-69"/>
      <path d="M 18.109375 8.203125 
L 18.109375 -20.796875 
L 9.078125 -20.796875 
L 9.078125 54.6875 
L 18.109375 54.6875 
L 18.109375 46.390625 
Q 20.953125 51.265625 25.265625 53.625 
Q 29.59375 56 35.59375 56 
Q 45.5625 56 51.78125 48.09375 
Q 58.015625 40.1875 58.015625 27.296875 
Q 58.015625 14.40625 51.78125 6.484375 
Q 45.5625 -1.421875 35.59375 -1.421875 
Q 29.59375 -1.421875 25.265625 0.953125 
Q 20.953125 3.328125 18.109375 8.203125 
M 48.6875 27.296875 
Q 48.6875 37.203125 44.609375 42.84375 
Q 40.53125 48.484375 33.40625 48.484375 
Q 26.265625 48.484375 22.1875 42.84375 
Q 18.109375 37.203125 18.109375 27.296875 
Q 18.109375 17.390625 22.1875 11.75 
Q 26.265625 6.109375 33.40625 6.109375 
Q 40.53125 6.109375 44.609375 11.75 
Q 48.6875 17.390625 48.6875 27.296875 
" id="BitstreamVeraSans-Roman-70"/>
      <path d="M 56.203125 29.59375 
L 56.203125 25.203125 
L 14.890625 25.203125 
Q 15.484375 15.921875 20.484375 11.0625 
Q 25.484375 6.203125 34.421875 6.203125 
Q 39.59375 6.203125 44.453125 7.46875 
Q 49.3125 8.734375 54.109375 11.28125 
L 54.109375 2.78125 
Q 49.265625 0.734375 44.1875 -0.34375 
Q 39.109375 -1.421875 33.890625 -1.421875 
Q 20.796875 -1.421875 13.15625 6.1875 
Q 5.515625 13.8125 5.515625 26.8125 
Q 5.515625 40.234375 12.765625 48.109375 
Q 20.015625 56 32.328125 56 
Q 43.359375 56 49.78125 48.890625 
Q 56.203125 41.796875 56.203125 29.59375 
M 47.21875 32.234375 
Q 47.125 39.59375 43.09375 43.984375 
Q 39.0625 48.390625 32.421875 48.390625 
Q 24.90625 48.390625 20.390625 44.140625 
Q 15.875 39.890625 15.1875 32.171875 
z
" id="BitstreamVeraSans-Roman-65"/>
      <path d="M 41.109375 46.296875 
Q 39.59375 47.171875 37.8125 47.578125 
Q 36.03125 48 33.890625 48 
Q 26.265625 48 22.1875 43.046875 
Q 18.109375 38.09375 18.109375 28.8125 
L 18.109375 0 
L 9.078125 0 
L 9.078125 54.6875 
L 18.109375 54.6875 
L 18.109375 46.1875 
Q 20.953125 51.171875 25.484375 53.578125 
Q 30.03125 56 36.53125 56 
Q 37.453125 56 38.578125 55.875 
Q 39.703125 55.765625 41.0625 55.515625 
z
" id="BitstreamVeraSans-Roman-72"/>
      <path d="M 44.28125 53.078125 
L 44.28125 44.578125 
Q 40.484375 46.53125 36.375 47.5 
Q 32.28125 48.484375 27.875 48.484375 
Q 21.1875 48.484375 17.84375 46.4375 
Q 14.5 44.390625 14.5 40.28125 
Q 14.5 37.15625 16.890625 35.375 
Q 19.28125 33.59375 26.515625 31.984375 
L 29.59375 31.296875 
Q 39.15625 29.25 43.1875 25.515625 
Q 47.21875 21.78125 47.21875 15.09375 
Q 47.21875 7.46875 41.1875 3.015625 
Q 35.15625 -1.421875 24.609375 -1.421875 
Q 20.21875 -1.421875 15.453125 -0.5625 
Q 10.6875 0.296875 5.421875 2 
L 5.421875 11.28125 
Q 10.40625 8.6875 15.234375 7.390625 
Q 20.0625 6.109375 24.8125 6.109375 
Q 31.15625 6.109375 34.5625 8.28125 
Q 37.984375 10.453125 37.984375 14.40625 
Q 37.984375 18.0625 35.515625 20.015625 
Q 33.0625 21.96875 24.703125 23.78125 
L 21.578125 24.515625 
Q 13.234375 26.265625 9.515625 29.90625 
Q 5.8125 33.546875 5.8125 39.890625 
Q 5.8125 47.609375 11.28125 51.796875 
Q 16.75 56 26.8125 56 
Q 31.78125 56 36.171875 55.265625 
Q 40.578125 54.546875 44.28125 53.078125 
" id="BitstreamVeraSans-Roman-73"/>
      <path d="M 48.78125 52.59375 
L 48.78125 44.1875 
Q 44.96875 46.296875 41.140625 47.34375 
Q 37.3125 48.390625 33.40625 48.390625 
Q 24.65625 48.390625 19.8125 42.84375 
Q 14.984375 37.3125 14.984375 27.296875 
Q 14.984375 17.28125 19.8125 11.734375 
Q 24.65625 6.203125 33.40625 6.203125 
Q 37.3125 6.203125 41.140625 7.25 
Q 44.96875 8.296875 48.78125 10.40625 
L 48.78125 2.09375 
Q 45.015625 0.34375 40.984375 -0.53125 
Q 36.96875 -1.421875 32.421875 -1.421875 
Q 20.0625 -1.421875 12.78125 6.34375 
Q 5.515625 14.109375 5.515625 27.296875 
Q 5.515625 40.671875 12.859375 48.328125 
Q 20.21875 56 33.015625 56 
Q 37.15625 56 41.109375 55.140625 
Q 45.0625 54.296875 48.78125 52.59375 
" id="BitstreamVeraSans-Roman-63"/>
     </defs>
     <g transform="translate(75.503125 31.9571875)scale(0.12 -0.12)">
      <use xlink:href="#BitstreamVeraSans-Roman-70"/>
      <use x="63.4765625" xlink:href="#BitstreamVeraSans-Roman-72"/>
      <use x="104.55859375" xlink:href="#BitstreamVeraSans-Roman-65"/>
      <use x="166.08203125" xlink:href="#BitstreamVeraSans-Roman-63"/>
      <use x="221.0625" xlink:href="#BitstreamVeraSans-Roman-69"/>
      <use x="248.845703125" xlink:href="#BitstreamVeraSans-Roman-73"/>
      <use x="300.9453125" xlink:href="#BitstreamVeraSans-Roman-69"/>
      <use x="328.728515625" xlink:href="#BitstreamVeraSans-Roman-6f"/>
      <use x="389.91015625" xlink:href="#BitstreamVeraSans-Roman-6e"/>
     </g>
    </g>
    <g id="line2d_51">
     <path d="M 45.503125 45.370937 
L 62.303125 45.370937 
" style="fill:none;stroke:#348abd;stroke-linecap:square;"/>
    </g>
    <g id="line2d_52"/>
    <g id="text_18">
     <!-- recall -->
     <defs>
      <path d="M 34.28125 27.484375 
Q 23.390625 27.484375 19.1875 25 
Q 14.984375 22.515625 14.984375 16.5 
Q 14.984375 11.71875 18.140625 8.90625 
Q 21.296875 6.109375 26.703125 6.109375 
Q 34.1875 6.109375 38.703125 11.40625 
Q 43.21875 16.703125 43.21875 25.484375 
L 43.21875 27.484375 
z
M 52.203125 31.203125 
L 52.203125 0 
L 43.21875 0 
L 43.21875 8.296875 
Q 40.140625 3.328125 35.546875 0.953125 
Q 30.953125 -1.421875 24.3125 -1.421875 
Q 15.921875 -1.421875 10.953125 3.296875 
Q 6 8.015625 6 15.921875 
Q 6 25.140625 12.171875 29.828125 
Q 18.359375 34.515625 30.609375 34.515625 
L 43.21875 34.515625 
L 43.21875 35.40625 
Q 43.21875 41.609375 39.140625 45 
Q 35.0625 48.390625 27.6875 48.390625 
Q 23 48.390625 18.546875 47.265625 
Q 14.109375 46.140625 10.015625 43.890625 
L 10.015625 52.203125 
Q 14.9375 54.109375 19.578125 55.046875 
Q 24.21875 56 28.609375 56 
Q 40.484375 56 46.34375 49.84375 
Q 52.203125 43.703125 52.203125 31.203125 
" id="BitstreamVeraSans-Roman-61"/>
      <path d="M 9.421875 75.984375 
L 18.40625 75.984375 
L 18.40625 0 
L 9.421875 0 
z
" id="BitstreamVeraSans-Roman-6c"/>
     </defs>
     <g transform="translate(75.503125 49.5709375)scale(0.12 -0.12)">
      <use xlink:href="#BitstreamVeraSans-Roman-72"/>
      <use x="41.08203125" xlink:href="#BitstreamVeraSans-Roman-65"/>
      <use x="102.60546875" xlink:href="#BitstreamVeraSans-Roman-63"/>
      <use x="157.5859375" xlink:href="#BitstreamVeraSans-Roman-61"/>
      <use x="218.865234375" xlink:href="#BitstreamVeraSans-Roman-6c"/>
      <use x="246.6484375" xlink:href="#BitstreamVeraSans-Roman-6c"/>
     </g>
    </g>
    <g id="line2d_53">
     <path d="M 45.503125 62.984687 
L 62.303125 62.984687 
" style="fill:none;stroke:#988ed5;stroke-linecap:square;"/>
    </g>
    <g id="line2d_54"/>
    <g id="text_19">
     <!-- f1 -->
     <defs>
      <path d="M 37.109375 75.984375 
L 37.109375 68.5 
L 28.515625 68.5 
Q 23.6875 68.5 21.796875 66.546875 
Q 19.921875 64.59375 19.921875 59.515625 
L 19.921875 54.6875 
L 34.71875 54.6875 
L 34.71875 47.703125 
L 19.921875 47.703125 
L 19.921875 0 
L 10.890625 0 
L 10.890625 47.703125 
L 2.296875 47.703125 
L 2.296875 54.6875 
L 10.890625 54.6875 
L 10.890625 58.5 
Q 10.890625 67.625 15.140625 71.796875 
Q 19.390625 75.984375 28.609375 75.984375 
z
" id="BitstreamVeraSans-Roman-66"/>
     </defs>
     <g transform="translate(75.503125 67.1846875)scale(0.12 -0.12)">
      <use xlink:href="#BitstreamVeraSans-Roman-66"/>
      <use x="35.205078125" xlink:href="#BitstreamVeraSans-Roman-31"/>
     </g>
    </g>
   </g>
  </g>
 </g>
 <defs>
  <clipPath id="p7bb6dae689">
   <rect height="223.2" width="334.8" x="31.103125" y="12.0390625"/>
  </clipPath>
 </defs>
</svg>
