<?xml version="1.0" encoding="utf-8" standalone="no"?>
<!DOCTYPE svg PUBLIC "-//W3C//DTD SVG 1.1//EN"
  "http://www.w3.org/Graphics/SVG/1.1/DTD/svg11.dtd">
<!-- Created with matplotlib (http://matplotlib.org/) -->
<svg height="276pt" version="1.1" viewBox="0 0 373 276" width="373pt" xmlns="http://www.w3.org/2000/svg" xmlns:xlink="http://www.w3.org/1999/xlink">
 <defs>
  <style type="text/css">
*{stroke-linecap:butt;stroke-linejoin:round;stroke-miterlimit:100000;}
  </style>
 </defs>
 <g id="figure_1">
  <g id="patch_1">
   <path d="M 0 276.730937 
L 373.103125 276.730937 
L 373.103125 0 
L 0 0 
L 0 276.730937 
z
" style="fill:none;"/>
  </g>
  <g id="axes_1">
   <g id="patch_2">
    <path d="M 31.103125 235.239062 
L 365.903125 235.239062 
L 365.903125 12.039062 
L 31.103125 12.039062 
z
" style="fill:#e5e5e5;"/>
   </g>
   <g id="matplotlib.axis_1">
    <g id="xtick_1">
     <g id="line2d_1">
      <path clip-path="url(#p7e8ca54fbe)" d="M 73.936545 235.239062 
L 73.936545 12.039062 
" style="fill:none;stroke:#ffffff;stroke-linecap:square;stroke-width:0.5;"/>
     </g>
     <g id="line2d_2">
      <defs>
       <path d="M 0 0 
L 0 4 
" id="m3e5cad67ae" style="stroke:#555555;stroke-width:0.5;"/>
      </defs>
      <g>
       <use style="fill:#555555;stroke:#555555;stroke-width:0.5;" x="73.9365453655" xlink:href="#m3e5cad67ae" y="235.2390625"/>
      </g>
     </g>
     <g id="line2d_3">
      <defs>
       <path d="M 0 0 
L 0 -4 
" id="m5f1675bc94" style="stroke:#555555;stroke-width:0.5;"/>
      </defs>
      <g>
       <use style="fill:#555555;stroke:#555555;stroke-width:0.5;" x="73.9365453655" xlink:href="#m5f1675bc94" y="12.0390625"/>
      </g>
     </g>
     <g id="text_1">
      <!-- 50 -->
      <defs>
       <path d="M 31.78125 66.40625 
Q 24.171875 66.40625 20.328125 58.90625 
Q 16.5 51.421875 16.5 36.375 
Q 16.5 21.390625 20.328125 13.890625 
Q 24.171875 6.390625 31.78125 6.390625 
Q 39.453125 6.390625 43.28125 13.890625 
Q 47.125 21.390625 47.125 36.375 
Q 47.125 51.421875 43.28125 58.90625 
Q 39.453125 66.40625 31.78125 66.40625 
M 31.78125 74.21875 
Q 44.046875 74.21875 50.515625 64.515625 
Q 56.984375 54.828125 56.984375 36.375 
Q 56.984375 17.96875 50.515625 8.265625 
Q 44.046875 -1.421875 31.78125 -1.421875 
Q 19.53125 -1.421875 13.0625 8.265625 
Q 6.59375 17.96875 6.59375 36.375 
Q 6.59375 54.828125 13.0625 64.515625 
Q 19.53125 74.21875 31.78125 74.21875 
" id="BitstreamVeraSans-Roman-30"/>
       <path d="M 10.796875 72.90625 
L 49.515625 72.90625 
L 49.515625 64.59375 
L 19.828125 64.59375 
L 19.828125 46.734375 
Q 21.96875 47.46875 24.109375 47.828125 
Q 26.265625 48.1875 28.421875 48.1875 
Q 40.625 48.1875 47.75 41.5 
Q 54.890625 34.8125 54.890625 23.390625 
Q 54.890625 11.625 47.5625 5.09375 
Q 40.234375 -1.421875 26.90625 -1.421875 
Q 22.3125 -1.421875 17.546875 -0.640625 
Q 12.796875 0.140625 7.71875 1.703125 
L 7.71875 11.625 
Q 12.109375 9.234375 16.796875 8.0625 
Q 21.484375 6.890625 26.703125 6.890625 
Q 35.15625 6.890625 40.078125 11.328125 
Q 45.015625 15.765625 45.015625 23.390625 
Q 45.015625 31 40.078125 35.4375 
Q 35.15625 39.890625 26.703125 39.890625 
Q 22.75 39.890625 18.8125 39.015625 
Q 14.890625 38.140625 10.796875 36.28125 
z
" id="BitstreamVeraSans-Roman-35"/>
      </defs>
      <g style="fill:#555555;" transform="translate(67.5740453655 250.8375)scale(0.1 -0.1)">
       <use xlink:href="#BitstreamVeraSans-Roman-35"/>
       <use x="63.623046875" xlink:href="#BitstreamVeraSans-Roman-30"/>
      </g>
     </g>
    </g>
    <g id="xtick_2">
     <g id="line2d_4">
      <path clip-path="url(#p7e8ca54fbe)" d="M 117.644117 235.239062 
L 117.644117 12.039062 
" style="fill:none;stroke:#ffffff;stroke-linecap:square;stroke-width:0.5;"/>
     </g>
     <g id="line2d_5">
      <g>
       <use style="fill:#555555;stroke:#555555;stroke-width:0.5;" x="117.644117167" xlink:href="#m3e5cad67ae" y="235.2390625"/>
      </g>
     </g>
     <g id="line2d_6">
      <g>
       <use style="fill:#555555;stroke:#555555;stroke-width:0.5;" x="117.644117167" xlink:href="#m5f1675bc94" y="12.0390625"/>
      </g>
     </g>
     <g id="text_2">
      <!-- 100 -->
      <defs>
       <path d="M 12.40625 8.296875 
L 28.515625 8.296875 
L 28.515625 63.921875 
L 10.984375 60.40625 
L 10.984375 69.390625 
L 28.421875 72.90625 
L 38.28125 72.90625 
L 38.28125 8.296875 
L 54.390625 8.296875 
L 54.390625 0 
L 12.40625 0 
z
" id="BitstreamVeraSans-Roman-31"/>
      </defs>
      <g style="fill:#555555;" transform="translate(108.100367167 250.8375)scale(0.1 -0.1)">
       <use xlink:href="#BitstreamVeraSans-Roman-31"/>
       <use x="63.623046875" xlink:href="#BitstreamVeraSans-Roman-30"/>
       <use x="127.24609375" xlink:href="#BitstreamVeraSans-Roman-30"/>
      </g>
     </g>
    </g>
    <g id="xtick_3">
     <g id="line2d_7">
      <path clip-path="url(#p7e8ca54fbe)" d="M 161.351689 235.239062 
L 161.351689 12.039062 
" style="fill:none;stroke:#ffffff;stroke-linecap:square;stroke-width:0.5;"/>
     </g>
     <g id="line2d_8">
      <g>
       <use style="fill:#555555;stroke:#555555;stroke-width:0.5;" x="161.351688969" xlink:href="#m3e5cad67ae" y="235.2390625"/>
      </g>
     </g>
     <g id="line2d_9">
      <g>
       <use style="fill:#555555;stroke:#555555;stroke-width:0.5;" x="161.351688969" xlink:href="#m5f1675bc94" y="12.0390625"/>
      </g>
     </g>
     <g id="text_3">
      <!-- 150 -->
      <g style="fill:#555555;" transform="translate(151.807938969 250.8375)scale(0.1 -0.1)">
       <use xlink:href="#BitstreamVeraSans-Roman-31"/>
       <use x="63.623046875" xlink:href="#BitstreamVeraSans-Roman-35"/>
       <use x="127.24609375" xlink:href="#BitstreamVeraSans-Roman-30"/>
      </g>
     </g>
    </g>
    <g id="xtick_4">
     <g id="line2d_10">
      <path clip-path="url(#p7e8ca54fbe)" d="M 205.059261 235.239062 
L 205.059261 12.039062 
" style="fill:none;stroke:#ffffff;stroke-linecap:square;stroke-width:0.5;"/>
     </g>
     <g id="line2d_11">
      <g>
       <use style="fill:#555555;stroke:#555555;stroke-width:0.5;" x="205.05926077" xlink:href="#m3e5cad67ae" y="235.2390625"/>
      </g>
     </g>
     <g id="line2d_12">
      <g>
       <use style="fill:#555555;stroke:#555555;stroke-width:0.5;" x="205.05926077" xlink:href="#m5f1675bc94" y="12.0390625"/>
      </g>
     </g>
     <g id="text_4">
      <!-- 200 -->
      <defs>
       <path d="M 19.1875 8.296875 
L 53.609375 8.296875 
L 53.609375 0 
L 7.328125 0 
L 7.328125 8.296875 
Q 12.9375 14.109375 22.625 23.890625 
Q 32.328125 33.6875 34.8125 36.53125 
Q 39.546875 41.84375 41.421875 45.53125 
Q 43.3125 49.21875 43.3125 52.78125 
Q 43.3125 58.59375 39.234375 62.25 
Q 35.15625 65.921875 28.609375 65.921875 
Q 23.96875 65.921875 18.8125 64.3125 
Q 13.671875 62.703125 7.8125 59.421875 
L 7.8125 69.390625 
Q 13.765625 71.78125 18.9375 73 
Q 24.125 74.21875 28.421875 74.21875 
Q 39.75 74.21875 46.484375 68.546875 
Q 53.21875 62.890625 53.21875 53.421875 
Q 53.21875 48.921875 51.53125 44.890625 
Q 49.859375 40.875 45.40625 35.40625 
Q 44.1875 33.984375 37.640625 27.21875 
Q 31.109375 20.453125 19.1875 8.296875 
" id="BitstreamVeraSans-Roman-32"/>
      </defs>
      <g style="fill:#555555;" transform="translate(195.51551077 250.8375)scale(0.1 -0.1)">
       <use xlink:href="#BitstreamVeraSans-Roman-32"/>
       <use x="63.623046875" xlink:href="#BitstreamVeraSans-Roman-30"/>
       <use x="127.24609375" xlink:href="#BitstreamVeraSans-Roman-30"/>
      </g>
     </g>
    </g>
    <g id="xtick_5">
     <g id="line2d_13">
      <path clip-path="url(#p7e8ca54fbe)" d="M 248.766833 235.239062 
L 248.766833 12.039062 
" style="fill:none;stroke:#ffffff;stroke-linecap:square;stroke-width:0.5;"/>
     </g>
     <g id="line2d_14">
      <g>
       <use style="fill:#555555;stroke:#555555;stroke-width:0.5;" x="248.766832572" xlink:href="#m3e5cad67ae" y="235.2390625"/>
      </g>
     </g>
     <g id="line2d_15">
      <g>
       <use style="fill:#555555;stroke:#555555;stroke-width:0.5;" x="248.766832572" xlink:href="#m5f1675bc94" y="12.0390625"/>
      </g>
     </g>
     <g id="text_5">
      <!-- 250 -->
      <g style="fill:#555555;" transform="translate(239.223082572 250.8375)scale(0.1 -0.1)">
       <use xlink:href="#BitstreamVeraSans-Roman-32"/>
       <use x="63.623046875" xlink:href="#BitstreamVeraSans-Roman-35"/>
       <use x="127.24609375" xlink:href="#BitstreamVeraSans-Roman-30"/>
      </g>
     </g>
    </g>
    <g id="xtick_6">
     <g id="line2d_16">
      <path clip-path="url(#p7e8ca54fbe)" d="M 292.474404 235.239062 
L 292.474404 12.039062 
" style="fill:none;stroke:#ffffff;stroke-linecap:square;stroke-width:0.5;"/>
     </g>
     <g id="line2d_17">
      <g>
       <use style="fill:#555555;stroke:#555555;stroke-width:0.5;" x="292.474404373" xlink:href="#m3e5cad67ae" y="235.2390625"/>
      </g>
     </g>
     <g id="line2d_18">
      <g>
       <use style="fill:#555555;stroke:#555555;stroke-width:0.5;" x="292.474404373" xlink:href="#m5f1675bc94" y="12.0390625"/>
      </g>
     </g>
     <g id="text_6">
      <!-- 300 -->
      <defs>
       <path d="M 40.578125 39.3125 
Q 47.65625 37.796875 51.625 33 
Q 55.609375 28.21875 55.609375 21.1875 
Q 55.609375 10.40625 48.1875 4.484375 
Q 40.765625 -1.421875 27.09375 -1.421875 
Q 22.515625 -1.421875 17.65625 -0.515625 
Q 12.796875 0.390625 7.625 2.203125 
L 7.625 11.71875 
Q 11.71875 9.328125 16.59375 8.109375 
Q 21.484375 6.890625 26.8125 6.890625 
Q 36.078125 6.890625 40.9375 10.546875 
Q 45.796875 14.203125 45.796875 21.1875 
Q 45.796875 27.640625 41.28125 31.265625 
Q 36.765625 34.90625 28.71875 34.90625 
L 20.21875 34.90625 
L 20.21875 43.015625 
L 29.109375 43.015625 
Q 36.375 43.015625 40.234375 45.921875 
Q 44.09375 48.828125 44.09375 54.296875 
Q 44.09375 59.90625 40.109375 62.90625 
Q 36.140625 65.921875 28.71875 65.921875 
Q 24.65625 65.921875 20.015625 65.03125 
Q 15.375 64.15625 9.8125 62.3125 
L 9.8125 71.09375 
Q 15.4375 72.65625 20.34375 73.4375 
Q 25.25 74.21875 29.59375 74.21875 
Q 40.828125 74.21875 47.359375 69.109375 
Q 53.90625 64.015625 53.90625 55.328125 
Q 53.90625 49.265625 50.4375 45.09375 
Q 46.96875 40.921875 40.578125 39.3125 
" id="BitstreamVeraSans-Roman-33"/>
      </defs>
      <g style="fill:#555555;" transform="translate(282.930654373 250.8375)scale(0.1 -0.1)">
       <use xlink:href="#BitstreamVeraSans-Roman-33"/>
       <use x="63.623046875" xlink:href="#BitstreamVeraSans-Roman-30"/>
       <use x="127.24609375" xlink:href="#BitstreamVeraSans-Roman-30"/>
      </g>
     </g>
    </g>
    <g id="xtick_7">
     <g id="line2d_19">
      <path clip-path="url(#p7e8ca54fbe)" d="M 336.181976 235.239062 
L 336.181976 12.039062 
" style="fill:none;stroke:#ffffff;stroke-linecap:square;stroke-width:0.5;"/>
     </g>
     <g id="line2d_20">
      <g>
       <use style="fill:#555555;stroke:#555555;stroke-width:0.5;" x="336.181976175" xlink:href="#m3e5cad67ae" y="235.2390625"/>
      </g>
     </g>
     <g id="line2d_21">
      <g>
       <use style="fill:#555555;stroke:#555555;stroke-width:0.5;" x="336.181976175" xlink:href="#m5f1675bc94" y="12.0390625"/>
      </g>
     </g>
     <g id="text_7">
      <!-- 350 -->
      <g style="fill:#555555;" transform="translate(326.638226175 250.8375)scale(0.1 -0.1)">
       <use xlink:href="#BitstreamVeraSans-Roman-33"/>
       <use x="63.623046875" xlink:href="#BitstreamVeraSans-Roman-35"/>
       <use x="127.24609375" xlink:href="#BitstreamVeraSans-Roman-30"/>
      </g>
     </g>
    </g>
    <g id="text_8">
     <!-- x -->
     <defs>
      <path d="M 54.890625 54.6875 
L 35.109375 28.078125 
L 55.90625 0 
L 45.3125 0 
L 29.390625 21.484375 
L 13.484375 0 
L 2.875 0 
L 24.125 28.609375 
L 4.6875 54.6875 
L 15.28125 54.6875 
L 29.78125 35.203125 
L 44.28125 54.6875 
z
" id="BitstreamVeraSans-Roman-78"/>
     </defs>
     <g style="fill:#555555;" transform="translate(194.951875 267.0353125)scale(0.12 -0.12)">
      <use xlink:href="#BitstreamVeraSans-Roman-78"/>
     </g>
    </g>
   </g>
   <g id="matplotlib.axis_2">
    <g id="ytick_1">
     <g id="line2d_22">
      <path clip-path="url(#p7e8ca54fbe)" d="M 31.103125 235.239062 
L 365.903125 235.239062 
" style="fill:none;stroke:#ffffff;stroke-linecap:square;stroke-width:0.5;"/>
     </g>
     <g id="line2d_23">
      <defs>
       <path d="M 0 0 
L -4 0 
" id="m0723d51c15" style="stroke:#555555;stroke-width:0.5;"/>
      </defs>
      <g>
       <use style="fill:#555555;stroke:#555555;stroke-width:0.5;" x="31.103125" xlink:href="#m0723d51c15" y="235.2390625"/>
      </g>
     </g>
     <g id="line2d_24">
      <defs>
       <path d="M 0 0 
L 4 0 
" id="m68dbd5191c" style="stroke:#555555;stroke-width:0.5;"/>
      </defs>
      <g>
       <use style="fill:#555555;stroke:#555555;stroke-width:0.5;" x="365.903125" xlink:href="#m68dbd5191c" y="235.2390625"/>
      </g>
     </g>
     <g id="text_9">
      <!-- 0.0 -->
      <defs>
       <path d="M 10.6875 12.40625 
L 21 12.40625 
L 21 0 
L 10.6875 0 
z
" id="BitstreamVeraSans-Roman-2e"/>
      </defs>
      <g style="fill:#555555;" transform="translate(7.2 237.9984375)scale(0.1 -0.1)">
       <use xlink:href="#BitstreamVeraSans-Roman-30"/>
       <use x="63.623046875" xlink:href="#BitstreamVeraSans-Roman-2e"/>
       <use x="95.41015625" xlink:href="#BitstreamVeraSans-Roman-30"/>
      </g>
     </g>
    </g>
    <g id="ytick_2">
     <g id="line2d_25">
      <path clip-path="url(#p7e8ca54fbe)" d="M 31.103125 190.599063 
L 365.903125 190.599063 
" style="fill:none;stroke:#ffffff;stroke-linecap:square;stroke-width:0.5;"/>
     </g>
     <g id="line2d_26">
      <g>
       <use style="fill:#555555;stroke:#555555;stroke-width:0.5;" x="31.103125" xlink:href="#m0723d51c15" y="190.5990625"/>
      </g>
     </g>
     <g id="line2d_27">
      <g>
       <use style="fill:#555555;stroke:#555555;stroke-width:0.5;" x="365.903125" xlink:href="#m68dbd5191c" y="190.5990625"/>
      </g>
     </g>
     <g id="text_10">
      <!-- 0.2 -->
      <g style="fill:#555555;" transform="translate(7.2 193.3584375)scale(0.1 -0.1)">
       <use xlink:href="#BitstreamVeraSans-Roman-30"/>
       <use x="63.623046875" xlink:href="#BitstreamVeraSans-Roman-2e"/>
       <use x="95.41015625" xlink:href="#BitstreamVeraSans-Roman-32"/>
      </g>
     </g>
    </g>
    <g id="ytick_3">
     <g id="line2d_28">
      <path clip-path="url(#p7e8ca54fbe)" d="M 31.103125 145.959062 
L 365.903125 145.959062 
" style="fill:none;stroke:#ffffff;stroke-linecap:square;stroke-width:0.5;"/>
     </g>
     <g id="line2d_29">
      <g>
       <use style="fill:#555555;stroke:#555555;stroke-width:0.5;" x="31.103125" xlink:href="#m0723d51c15" y="145.9590625"/>
      </g>
     </g>
     <g id="line2d_30">
      <g>
       <use style="fill:#555555;stroke:#555555;stroke-width:0.5;" x="365.903125" xlink:href="#m68dbd5191c" y="145.9590625"/>
      </g>
     </g>
     <g id="text_11">
      <!-- 0.4 -->
      <defs>
       <path d="M 37.796875 64.3125 
L 12.890625 25.390625 
L 37.796875 25.390625 
z
M 35.203125 72.90625 
L 47.609375 72.90625 
L 47.609375 25.390625 
L 58.015625 25.390625 
L 58.015625 17.1875 
L 47.609375 17.1875 
L 47.609375 0 
L 37.796875 0 
L 37.796875 17.1875 
L 4.890625 17.1875 
L 4.890625 26.703125 
z
" id="BitstreamVeraSans-Roman-34"/>
      </defs>
      <g style="fill:#555555;" transform="translate(7.2 148.7184375)scale(0.1 -0.1)">
       <use xlink:href="#BitstreamVeraSans-Roman-30"/>
       <use x="63.623046875" xlink:href="#BitstreamVeraSans-Roman-2e"/>
       <use x="95.41015625" xlink:href="#BitstreamVeraSans-Roman-34"/>
      </g>
     </g>
    </g>
    <g id="ytick_4">
     <g id="line2d_31">
      <path clip-path="url(#p7e8ca54fbe)" d="M 31.103125 101.319062 
L 365.903125 101.319062 
" style="fill:none;stroke:#ffffff;stroke-linecap:square;stroke-width:0.5;"/>
     </g>
     <g id="line2d_32">
      <g>
       <use style="fill:#555555;stroke:#555555;stroke-width:0.5;" x="31.103125" xlink:href="#m0723d51c15" y="101.3190625"/>
      </g>
     </g>
     <g id="line2d_33">
      <g>
       <use style="fill:#555555;stroke:#555555;stroke-width:0.5;" x="365.903125" xlink:href="#m68dbd5191c" y="101.3190625"/>
      </g>
     </g>
     <g id="text_12">
      <!-- 0.6 -->
      <defs>
       <path d="M 33.015625 40.375 
Q 26.375 40.375 22.484375 35.828125 
Q 18.609375 31.296875 18.609375 23.390625 
Q 18.609375 15.53125 22.484375 10.953125 
Q 26.375 6.390625 33.015625 6.390625 
Q 39.65625 6.390625 43.53125 10.953125 
Q 47.40625 15.53125 47.40625 23.390625 
Q 47.40625 31.296875 43.53125 35.828125 
Q 39.65625 40.375 33.015625 40.375 
M 52.59375 71.296875 
L 52.59375 62.3125 
Q 48.875 64.0625 45.09375 64.984375 
Q 41.3125 65.921875 37.59375 65.921875 
Q 27.828125 65.921875 22.671875 59.328125 
Q 17.53125 52.734375 16.796875 39.40625 
Q 19.671875 43.65625 24.015625 45.921875 
Q 28.375 48.1875 33.59375 48.1875 
Q 44.578125 48.1875 50.953125 41.515625 
Q 57.328125 34.859375 57.328125 23.390625 
Q 57.328125 12.15625 50.6875 5.359375 
Q 44.046875 -1.421875 33.015625 -1.421875 
Q 20.359375 -1.421875 13.671875 8.265625 
Q 6.984375 17.96875 6.984375 36.375 
Q 6.984375 53.65625 15.1875 63.9375 
Q 23.390625 74.21875 37.203125 74.21875 
Q 40.921875 74.21875 44.703125 73.484375 
Q 48.484375 72.75 52.59375 71.296875 
" id="BitstreamVeraSans-Roman-36"/>
      </defs>
      <g style="fill:#555555;" transform="translate(7.2 104.0784375)scale(0.1 -0.1)">
       <use xlink:href="#BitstreamVeraSans-Roman-30"/>
       <use x="63.623046875" xlink:href="#BitstreamVeraSans-Roman-2e"/>
       <use x="95.41015625" xlink:href="#BitstreamVeraSans-Roman-36"/>
      </g>
     </g>
    </g>
    <g id="ytick_5">
     <g id="line2d_34">
      <path clip-path="url(#p7e8ca54fbe)" d="M 31.103125 56.679062 
L 365.903125 56.679062 
" style="fill:none;stroke:#ffffff;stroke-linecap:square;stroke-width:0.5;"/>
     </g>
     <g id="line2d_35">
      <g>
       <use style="fill:#555555;stroke:#555555;stroke-width:0.5;" x="31.103125" xlink:href="#m0723d51c15" y="56.6790625"/>
      </g>
     </g>
     <g id="line2d_36">
      <g>
       <use style="fill:#555555;stroke:#555555;stroke-width:0.5;" x="365.903125" xlink:href="#m68dbd5191c" y="56.6790625"/>
      </g>
     </g>
     <g id="text_13">
      <!-- 0.8 -->
      <defs>
       <path d="M 31.78125 34.625 
Q 24.75 34.625 20.71875 30.859375 
Q 16.703125 27.09375 16.703125 20.515625 
Q 16.703125 13.921875 20.71875 10.15625 
Q 24.75 6.390625 31.78125 6.390625 
Q 38.8125 6.390625 42.859375 10.171875 
Q 46.921875 13.96875 46.921875 20.515625 
Q 46.921875 27.09375 42.890625 30.859375 
Q 38.875 34.625 31.78125 34.625 
M 21.921875 38.8125 
Q 15.578125 40.375 12.03125 44.71875 
Q 8.5 49.078125 8.5 55.328125 
Q 8.5 64.0625 14.71875 69.140625 
Q 20.953125 74.21875 31.78125 74.21875 
Q 42.671875 74.21875 48.875 69.140625 
Q 55.078125 64.0625 55.078125 55.328125 
Q 55.078125 49.078125 51.53125 44.71875 
Q 48 40.375 41.703125 38.8125 
Q 48.828125 37.15625 52.796875 32.3125 
Q 56.78125 27.484375 56.78125 20.515625 
Q 56.78125 9.90625 50.3125 4.234375 
Q 43.84375 -1.421875 31.78125 -1.421875 
Q 19.734375 -1.421875 13.25 4.234375 
Q 6.78125 9.90625 6.78125 20.515625 
Q 6.78125 27.484375 10.78125 32.3125 
Q 14.796875 37.15625 21.921875 38.8125 
M 18.3125 54.390625 
Q 18.3125 48.734375 21.84375 45.5625 
Q 25.390625 42.390625 31.78125 42.390625 
Q 38.140625 42.390625 41.71875 45.5625 
Q 45.3125 48.734375 45.3125 54.390625 
Q 45.3125 60.0625 41.71875 63.234375 
Q 38.140625 66.40625 31.78125 66.40625 
Q 25.390625 66.40625 21.84375 63.234375 
Q 18.3125 60.0625 18.3125 54.390625 
" id="BitstreamVeraSans-Roman-38"/>
      </defs>
      <g style="fill:#555555;" transform="translate(7.2 59.4384375)scale(0.1 -0.1)">
       <use xlink:href="#BitstreamVeraSans-Roman-30"/>
       <use x="63.623046875" xlink:href="#BitstreamVeraSans-Roman-2e"/>
       <use x="95.41015625" xlink:href="#BitstreamVeraSans-Roman-38"/>
      </g>
     </g>
    </g>
    <g id="ytick_6">
     <g id="line2d_37">
      <path clip-path="url(#p7e8ca54fbe)" d="M 31.103125 12.039062 
L 365.903125 12.039062 
" style="fill:none;stroke:#ffffff;stroke-linecap:square;stroke-width:0.5;"/>
     </g>
     <g id="line2d_38">
      <g>
       <use style="fill:#555555;stroke:#555555;stroke-width:0.5;" x="31.103125" xlink:href="#m0723d51c15" y="12.0390625"/>
      </g>
     </g>
     <g id="line2d_39">
      <g>
       <use style="fill:#555555;stroke:#555555;stroke-width:0.5;" x="365.903125" xlink:href="#m68dbd5191c" y="12.0390625"/>
      </g>
     </g>
     <g id="text_14">
      <!-- 1.0 -->
      <g style="fill:#555555;" transform="translate(7.2 14.7984375)scale(0.1 -0.1)">
       <use xlink:href="#BitstreamVeraSans-Roman-31"/>
       <use x="63.623046875" xlink:href="#BitstreamVeraSans-Roman-2e"/>
       <use x="95.41015625" xlink:href="#BitstreamVeraSans-Roman-30"/>
      </g>
     </g>
    </g>
   </g>
   <g id="line2d_40">
    <path clip-path="url(#p7e8ca54fbe)" d="M 31.103125 235.239062 
L 31.977276 235.239062 
L 31.977276 235.239062 
L 31.977276 235.239062 
L 32.851428 235.239062 
L 32.851428 235.239062 
L 32.851428 235.239062 
L 32.851428 216.639062 
L 33.725579 218.069832 
L 33.725579 221.289062 
L 34.599731 222.109651 
L 34.599731 224.079062 
L 34.599731 224.079062 
L 34.599731 224.079062 
L 34.599731 213.98192 
L 34.599731 214.948153 
L 35.473882 206.126019 
L 35.473882 187.410491 
L 36.348034 181.3632 
L 36.348034 159.024428 
L 37.222185 155.524777 
L 37.222185 137.031062 
L 37.222185 138.95671 
L 38.096336 136.515986 
L 38.096336 131.335614 
L 38.096336 136.44562 
L 38.970488 138.039062 
L 38.970488 141.076562 
L 38.970488 139.09137 
L 38.970488 139.09137 
L 38.970488 132.449589 
L 39.844639 133.784517 
L 39.844639 129.082965 
L 39.844639 132.829651 
L 39.844639 132.829651 
L 39.844639 136.320881 
L 39.844639 133.559062 
L 39.844639 133.559062 
L 39.844639 132.223678 
L 39.844639 133.34341 
L 40.718791 134.439062 
L 40.718791 132.939062 
L 40.718791 133.993702 
L 40.718791 133.993702 
L 40.718791 135.026818 
L 40.718791 135.026818 
L 40.718791 135.026818 
L 40.718791 132.567062 
L 41.592942 131.373716 
L 41.592942 132.392004 
L 41.592942 132.392004 
L 41.592942 132.392004 
L 41.592942 131.079062 
L 41.592942 132.061704 
L 41.592942 132.061704 
L 41.592942 133.972396 
L 41.592942 132.853741 
L 42.467094 133.784517 
L 42.467094 126.317462 
L 42.467094 127.18192 
L 43.341245 128.032763 
L 43.341245 128.870313 
L 43.341245 128.870313 
L 43.341245 128.870313 
L 43.341245 127.964644 
L 44.215397 128.789832 
L 44.215397 131.190942 
L 44.215397 129.341252 
L 44.215397 129.341252 
L 44.215397 127.653451 
L 44.215397 129.179488 
L 44.215397 129.179488 
L 44.215397 129.926386 
L 44.215397 129.926386 
L 44.215397 129.926386 
L 44.215397 128.289062 
L 44.215397 129.026649 
L 45.089548 129.754131 
L 45.089548 126.537764 
L 45.963699 125.799063 
L 45.963699 127.193203 
L 45.963699 126.464379 
L 45.963699 126.464379 
L 45.963699 125.744723 
L 45.963699 126.429063 
L 45.963699 126.429063 
L 45.963699 129.726335 
L 45.963699 129.017376 
L 46.837851 129.653434 
L 46.837851 130.902968 
L 46.837851 130.203768 
L 46.837851 130.203768 
L 46.837851 129.444843 
L 46.837851 130.052856 
L 46.837851 130.052856 
L 46.837851 132.416591 
L 47.712002 131.74409 
L 47.712002 131.079062 
L 47.712002 131.654532 
L 47.712002 131.654532 
L 47.712002 133.784517 
L 48.586154 134.324169 
L 48.586154 132.843186 
L 49.460305 133.368293 
L 49.460305 133.888042 
L 49.460305 133.888042 
L 49.460305 133.888042 
L 49.460305 133.269519 
L 49.460305 133.784517 
L 49.460305 133.784517 
L 49.460305 135.298764 
L 50.334457 135.793518 
L 50.334457 138.519062 
L 50.334457 137.919631 
L 51.208608 138.378685 
L 51.208608 142.741765 
L 51.208608 142.571205 
L 52.082759 142.983062 
L 52.082759 142.403664 
L 52.082759 142.812631 
L 52.082759 142.812631 
L 52.082759 144.018193 
L 52.956911 144.413088 
L 52.956911 147.453288 
L 53.831062 147.819062 
L 53.831062 149.951258 
L 53.831062 149.392909 
L 54.705214 149.739062 
L 54.705214 151.210827 
L 55.579365 151.539062 
L 55.579365 152.508561 
L 56.453517 152.826755 
L 56.453517 154.685679 
L 57.327668 154.987377 
L 57.327668 158.439062 
L 58.20182 158.713348 
L 58.20182 160.839063 
L 59.075971 161.096502 
L 59.075971 163.335707 
L 59.950122 163.576186 
L 59.950122 166.562139 
L 60.824274 166.068455 
L 60.824274 167.36947 
L 61.698425 167.581563 
L 61.698425 170.611003 
L 62.572577 170.803348 
L 62.572577 172.301853 
L 63.446728 172.48428 
L 63.446728 174.25202 
L 63.446728 173.796366 
L 64.32088 173.968474 
L 64.32088 175.799932 
L 65.195031 175.961014 
L 65.195031 177.828039 
L 66.069182 177.97833 
L 66.069182 179.152909 
L 66.943334 179.296352 
L 66.943334 181.3632 
L 67.817485 181.495574 
L 67.817485 182.909876 
L 68.691637 183.034767 
L 68.691637 184.13252 
L 69.565788 184.25165 
L 69.565788 185.526335 
L 70.43994 185.639062 
L 70.43994 187.584161 
L 71.314091 187.790906 
L 71.314091 188.89669 
L 72.188242 189.092227 
L 72.188242 189.669062 
L 73.062394 189.85815 
L 73.062394 190.780526 
L 73.936545 190.96052 
L 73.936545 190.599063 
L 73.936545 190.956898 
L 73.936545 190.956898 
L 73.936545 191.655631 
L 74.810697 191.826882 
L 74.810697 193.069597 
L 75.684848 193.229937 
L 75.684848 194.166944 
L 76.559 194.319063 
L 76.559 195.780491 
L 77.433151 195.920913 
L 77.433151 196.876562 
L 78.307303 197.009305 
L 78.307303 197.976331 
L 79.181454 198.101584 
L 79.181454 199.483723 
L 80.055605 199.599063 
L 80.055605 200.60458 
L 80.929757 200.766676 
L 80.929757 202.110427 
L 81.803908 202.258764 
L 81.803908 203.027984 
L 82.67806 203.168235 
L 82.67806 203.762139 
L 83.552211 203.896084 
L 83.552211 204.463575 
L 84.426363 204.591628 
L 84.426363 205.13443 
L 85.300514 205.256973 
L 85.300514 206.010491 
L 86.174665 206.126019 
L 86.174665 207.232979 
L 87.048817 207.374245 
L 87.048817 208.093117 
L 87.922968 208.22586 
L 87.922968 208.775829 
L 88.79712 208.901995 
L 88.79712 209.485216 
L 89.671271 209.604724 
L 89.671271 210.129062 
L 90.545423 210.242682 
L 90.545423 210.632381 
L 91.419574 210.768631 
L 91.419574 211.376428 
L 92.293726 211.504583 
L 92.293726 212.052494 
L 93.167877 212.173509 
L 93.167877 212.964062 
L 94.042028 213.075773 
L 94.042028 213.554273 
L 94.91618 213.681209 
L 94.91618 214.194491 
L 95.790331 214.314062 
L 95.790331 214.60713 
L 96.664483 214.722071 
L 96.664483 215.223845 
L 97.538634 215.349954 
L 97.538634 215.990979 
L 98.412786 216.107634 
L 98.412786 216.576225 
L 99.286937 216.701479 
L 99.286937 217.067352 
L 100.161088 217.186121 
L 100.161088 217.561622 
L 101.03524 217.674039 
L 101.03524 218.069832 
L 101.909391 218.189062 
L 101.909391 218.47366 
L 102.783543 218.587367 
L 102.783543 218.846778 
L 103.657694 218.967487 
L 103.657694 219.273167 
L 104.531846 219.3877 
L 104.531846 219.765113 
L 105.405997 219.883399 
L 105.405997 220.318873 
L 106.280148 220.438795 
L 106.280148 220.672945 
L 107.1543 220.787264 
L 107.1543 221.065361 
L 108.028451 221.182574 
L 108.028451 221.402619 
L 108.902603 221.514342 
L 108.902603 221.806357 
L 109.776754 221.919713 
L 109.776754 222.179488 
L 110.650906 222.294247 
L 110.650906 222.590637 
L 111.525057 222.705427 
L 111.525057 222.901374 
L 112.399209 223.017381 
L 112.399209 223.307745 
L 113.27336 223.422592 
L 113.27336 223.559993 
L 114.147511 223.676111 
L 114.147511 223.88991 
L 115.021663 224.005306 
L 115.021663 224.185136 
L 115.895814 224.300053 
L 115.895814 224.412605 
L 116.769966 224.528059 
L 116.769966 224.666431 
L 117.644117 224.781514 
L 117.644117 225.0374 
L 118.518269 225.149199 
L 118.518269 225.325738 
L 119.39242 225.440038 
L 119.39242 225.631758 
L 120.266571 225.743231 
L 120.266571 225.891854 
L 121.140723 226.00513 
L 121.140723 226.145729 
L 122.014874 226.260273 
L 122.014874 226.311062 
L 122.889026 226.425022 
L 122.889026 226.505149 
L 123.763177 226.617603 
L 123.763177 226.753348 
L 124.637329 226.865891 
L 124.637329 226.993988 
L 125.51148 227.106269 
L 125.51148 227.195087 
L 126.385632 227.307691 
L 126.385632 227.428246 
L 127.259783 227.539829 
L 127.259783 227.64305 
L 128.133934 227.756231 
L 128.133934 227.848828 
L 129.008086 227.960802 
L 129.008086 228.062447 
L 129.882237 228.174868 
L 129.882237 228.248616 
L 130.756389 228.361752 
L 130.756389 228.431669 
L 131.63054 228.543062 
L 131.63054 228.625234 
L 132.504692 228.738092 
L 132.504692 228.811837 
L 133.378843 228.923887 
L 133.378843 228.961562 
L 134.252994 229.073661 
L 134.252994 229.126531 
L 135.127146 229.237759 
L 135.127146 229.273404 
L 136.001297 229.385606 
L 136.001297 229.427174 
L 136.875449 229.539604 
L 136.875449 229.555729 
L 137.7496 229.667504 
L 137.7496 229.701017 
L 138.623752 229.81254 
L 138.623752 229.824507 
L 139.497903 229.936255 
L 139.497903 229.986674 
L 140.372055 230.097881 
L 140.372055 230.10624 
L 141.246206 230.218204 
L 141.246206 230.238655 
L 142.120357 230.35039 
L 142.120357 230.351471 
L 142.120357 230.351471 
L 142.120357 230.351471 
L 142.120357 230.303193 
L 142.120357 230.308645 
L 142.994509 230.42041 
L 142.994509 230.43079 
L 143.86866 230.542093 
L 143.86866 230.549002 
L 144.742812 230.660601 
L 144.742812 230.666229 
L 146.491115 230.778631 
L 146.491115 230.873719 
L 148.239417 230.986014 
L 148.239417 231.059287 
L 149.98772 231.171266 
L 149.98772 231.250499 
L 151.736023 231.362717 
L 151.736023 231.439267 
L 153.484326 231.551635 
L 153.484326 231.5926 
L 155.232629 231.704621 
L 155.232629 231.733487 
L 156.980932 231.845418 
L 156.980932 231.856219 
L 158.729235 231.968254 
L 158.729235 231.969212 
L 160.477538 232.081168 
L 160.477538 232.090967 
L 162.22584 232.202741 
L 162.22584 232.204392 
L 163.974143 232.316066 
L 163.974143 232.326745 
L 166.596598 232.438912 
L 166.596598 232.472578 
L 169.219052 232.584448 
L 169.219052 232.600141 
L 172.715658 232.712461 
L 172.715658 232.744372 
L 176.212263 232.856484 
L 176.212263 232.879654 
L 180.583021 232.992007 
L 180.583021 233.015069 
L 184.953778 233.127226 
L 184.953778 233.133402 
L 190.198686 233.245671 
L 190.198686 233.258408 
L 196.317746 233.370655 
L 196.317746 233.375335 
L 204.185109 233.487787 
L 204.185109 233.497489 
L 213.800775 233.609984 
L 213.800775 233.612122 
L 227.787198 233.725124 
L 227.787198 233.728811 
L 252.263438 233.842753 
L 252.263438 233.844673 
L 332.68537 233.96378 
L 332.68537 233.964071 
L 365.903125 233.996024 
L 365.903125 233.996024 
" style="fill:none;stroke:#e24a33;stroke-linecap:square;"/>
   </g>
   <g id="line2d_41">
    <path clip-path="url(#p7e8ca54fbe)" d="M 31.103125 235.239062 
L 31.977276 235.239062 
L 31.977276 235.239062 
L 31.977276 235.239062 
L 32.851428 235.239062 
L 32.851428 235.239062 
L 32.851428 235.239062 
L 32.851428 233.007062 
L 34.599731 233.007062 
L 34.599731 233.007062 
L 34.599731 230.775062 
L 34.599731 230.775062 
L 35.473882 228.543062 
L 35.473882 221.847062 
L 36.348034 219.615062 
L 36.348034 203.991062 
L 37.222185 201.759062 
L 37.222185 186.135063 
L 37.222185 186.135063 
L 38.096336 183.903062 
L 38.096336 174.975062 
L 38.096336 174.975062 
L 38.970488 174.975062 
L 38.970488 174.975062 
L 38.970488 157.119062 
L 39.844639 157.119062 
L 39.844639 141.495063 
L 39.844639 141.495063 
L 40.718791 141.495063 
L 40.718791 132.567062 
L 41.592942 130.335062 
L 41.592942 130.335062 
L 41.592942 123.639062 
L 42.467094 123.639062 
L 42.467094 99.087063 
L 42.467094 99.087063 
L 43.341245 99.087063 
L 43.341245 99.087063 
L 43.341245 96.855063 
L 44.215397 96.855063 
L 44.215397 96.855063 
L 44.215397 81.231063 
L 44.215397 81.231063 
L 45.089548 81.231063 
L 45.089548 67.839063 
L 45.963699 65.607062 
L 45.963699 65.607062 
L 45.963699 58.911062 
L 46.837851 58.911062 
L 46.837851 58.911062 
L 46.837851 52.215063 
L 46.837851 52.215063 
L 47.712002 49.983063 
L 47.712002 45.519062 
L 47.712002 45.519062 
L 48.586154 45.519062 
L 48.586154 36.591062 
L 49.460305 36.591062 
L 49.460305 36.591062 
L 49.460305 34.359062 
L 49.460305 34.359062 
L 50.334457 34.359062 
L 50.334457 34.359062 
L 50.334457 29.895062 
L 51.208608 29.895062 
L 51.208608 29.895062 
L 51.208608 27.663062 
L 51.208608 27.663062 
L 52.082759 27.663062 
L 52.082759 25.431063 
L 52.082759 25.431063 
L 53.831062 25.431063 
L 53.831062 25.431063 
L 53.831062 23.199062 
L 54.705214 23.199062 
L 54.705214 23.199062 
L 54.705214 20.967062 
L 54.705214 20.967062 
L 59.950122 20.967062 
L 59.950122 20.967062 
L 60.824274 18.735062 
L 60.824274 18.735062 
L 63.446728 18.735062 
L 63.446728 18.735062 
L 63.446728 16.503062 
L 73.936545 16.503062 
L 73.936545 16.503062 
L 73.936545 14.271062 
L 73.936545 14.271062 
L 142.120357 14.271062 
L 142.120357 14.271062 
L 142.120357 12.039062 
L 142.120357 12.039062 
L 365.903125 12.039062 
L 365.903125 12.039062 
" style="fill:none;stroke:#348abd;stroke-linecap:square;"/>
   </g>
   <g id="line2d_42">
    <path clip-path="url(#p7e8ca54fbe)" d="M 31.103125 235.239062 
L 31.977276 235.239062 
L 31.977276 235.239062 
L 31.977276 235.239062 
L 32.851428 235.239062 
L 32.851428 235.239062 
L 32.851428 235.239062 
L 32.851428 231.253348 
L 34.599731 231.423678 
L 34.599731 231.519062 
L 34.599731 231.519062 
L 34.599731 231.519062 
L 34.599731 227.86055 
L 34.599731 227.92103 
L 35.473882 224.351258 
L 35.473882 214.314062 
L 36.348034 211.015807 
L 36.348034 190.915658 
L 37.222185 188.084133 
L 37.222185 169.767063 
L 37.222185 170.200652 
L 38.096336 167.691694 
L 38.096336 158.955518 
L 38.096336 160.376951 
L 38.970488 160.839063 
L 38.970488 161.74638 
L 38.970488 161.74638 
L 38.970488 161.74638 
L 38.970488 146.466335 
L 39.844639 146.967876 
L 39.844639 137.077806 
L 39.844639 137.589063 
L 40.718791 138.095021 
L 40.718791 132.567062 
L 41.592942 130.856973 
L 41.592942 131.373716 
L 41.592942 131.373716 
L 41.592942 131.373716 
L 41.592942 128.444804 
L 42.467094 128.953348 
L 42.467094 114.215062 
L 42.467094 114.750567 
L 43.341245 115.281353 
L 43.341245 115.807484 
L 43.341245 115.807484 
L 43.341245 115.807484 
L 43.341245 114.379674 
L 44.215397 114.905149 
L 44.215397 116.454513 
L 44.215397 115.054447 
L 44.215397 115.054447 
L 44.215397 109.002997 
L 44.215397 109.518246 
L 45.089548 110.029306 
L 45.089548 103.428039 
L 45.963699 102.194357 
L 45.963699 103.229724 
L 45.963699 103.229724 
L 45.963699 103.229724 
L 45.963699 100.801997 
L 45.963699 102.846667 
L 45.963699 102.846667 
L 45.963699 103.845855 
L 45.963699 103.845855 
L 45.963699 103.845855 
L 45.963699 102.661619 
L 46.837851 103.158164 
L 46.837851 104.140178 
L 46.837851 104.140178 
L 46.837851 104.140178 
L 46.837851 101.155546 
L 46.837851 103.56712 
L 47.712002 102.439063 
L 47.712002 101.319062 
L 47.712002 102.26885 
L 47.712002 102.26885 
L 47.712002 103.20526 
L 47.712002 103.20526 
L 47.712002 103.20526 
L 47.712002 102.10222 
L 47.712002 103.030003 
L 48.586154 103.489062 
L 48.586154 100.104369 
L 49.460305 100.562452 
L 49.460305 101.017441 
L 49.460305 101.017441 
L 49.460305 101.017441 
L 49.460305 99.966335 
L 49.460305 100.87117 
L 49.460305 100.87117 
L 49.460305 101.763979 
L 50.334457 102.20595 
L 50.334457 104.199062 
L 50.334457 103.185043 
L 51.208608 103.608293 
L 51.208608 107.696205 
L 51.208608 107.105729 
L 52.082759 107.499986 
L 52.082759 106.522498 
L 52.082759 107.307355 
L 52.082759 107.307355 
L 52.082759 108.082699 
L 52.956911 108.466857 
L 52.956911 111.458532 
L 53.831062 111.822592 
L 53.831062 113.962762 
L 53.831062 113.025806 
L 54.705214 113.376994 
L 54.705214 114.073348 
L 54.705214 114.073348 
L 54.705214 114.073348 
L 54.705214 113.146755 
L 54.705214 113.838496 
L 54.705214 113.838496 
L 54.705214 114.522443 
L 55.579365 114.861534 
L 55.579365 115.867475 
L 56.453517 116.199062 
L 56.453517 118.150538 
L 57.327668 118.46958 
L 57.327668 122.166767 
L 58.20182 122.464326 
L 58.20182 124.789578 
L 59.075971 125.07351 
L 59.075971 127.564691 
L 59.950122 127.834551 
L 59.950122 131.223529 
L 60.824274 130.39451 
L 60.824274 131.895864 
L 61.698425 132.14192 
L 61.698425 135.696994 
L 62.572577 135.925301 
L 62.572577 137.714738 
L 63.446728 137.933894 
L 63.446728 140.072469 
L 63.446728 139.30222 
L 64.32088 139.512148 
L 64.32088 141.762139 
L 65.195031 141.961451 
L 65.195031 144.288543 
L 66.069182 144.477237 
L 66.069182 145.959063 
L 66.943334 146.140895 
L 66.943334 148.782146 
L 67.817485 148.952672 
L 67.817485 150.785008 
L 68.691637 150.947733 
L 68.691637 152.384517 
L 69.565788 152.541142 
L 69.565788 154.225729 
L 70.43994 154.375477 
L 70.43994 156.979313 
L 71.314091 157.119062 
L 71.314091 158.757944 
L 72.188242 158.891419 
L 72.188242 159.812856 
L 73.062394 159.942677 
L 73.062394 161.341765 
L 73.936545 161.466381 
L 73.936545 161.590578 
L 73.936545 161.590578 
L 73.936545 161.590578 
L 73.936545 160.964105 
L 73.936545 161.583062 
L 73.936545 161.583062 
L 73.936545 162.432473 
L 74.810697 162.55222 
L 74.810697 164.415986 
L 75.684848 164.529303 
L 75.684848 165.970097 
L 76.559 166.186562 
L 76.559 168.279063 
L 77.433151 168.481359 
L 77.433151 169.863915 
L 78.307303 170.056762 
L 78.307303 171.467634 
L 79.181454 171.651149 
L 79.181454 173.688088 
L 80.055605 173.859062 
L 80.055605 175.356136 
L 80.929757 175.517981 
L 80.929757 177.620288 
L 81.803908 177.770142 
L 81.803908 179.013108 
L 82.67806 179.155814 
L 82.67806 180.134823 
L 83.552211 180.271898 
L 83.552211 181.212657 
L 84.426363 181.344428 
L 84.426363 182.249134 
L 85.300514 182.375905 
L 85.300514 183.611025 
L 86.174665 183.73137 
L 86.174665 185.527476 
L 87.048817 185.694668 
L 87.048817 186.887203 
L 87.922968 187.045387 
L 87.922968 187.97318 
L 88.79712 188.12435 
L 88.79712 189.107956 
L 89.671271 189.251966 
L 89.671271 190.143552 
L 90.545423 190.281178 
L 90.545423 190.956898 
L 91.419574 191.089612 
L 91.419574 192.165378 
L 92.293726 192.290958 
L 92.293726 193.269832 
L 93.167877 193.389062 
L 93.167877 194.768733 
L 94.042028 194.916435 
L 94.042028 195.745229 
L 94.91618 195.885901 
L 94.91618 196.809845 
L 95.790331 196.943049 
L 95.790331 197.499011 
L 96.664483 197.627488 
L 96.664483 198.533415 
L 97.538634 198.654957 
L 97.538634 199.827524 
L 98.412786 199.94066 
L 98.412786 200.820371 
L 99.286937 200.95388 
L 99.286937 201.6573 
L 100.161088 201.784407 
L 100.161088 202.503062 
L 101.03524 202.62386 
L 101.03524 203.376337 
L 101.909391 203.490787 
L 101.909391 204.072913 
L 102.783543 204.204231 
L 102.783543 204.718621 
L 103.657694 204.844565 
L 103.657694 205.459009 
L 104.531846 205.578928 
L 104.531846 206.316549 
L 105.405997 206.429675 
L 105.405997 207.286121 
L 106.280148 207.40934 
L 106.280148 207.90845 
L 107.1543 208.026255 
L 107.1543 208.600364 
L 108.028451 208.712292 
L 108.028451 209.19687 
L 108.902603 209.319063 
L 108.902603 209.913217 
L 109.776754 210.028794 
L 109.776754 210.577455 
L 110.650906 210.700695 
L 110.650906 211.311829 
L 111.525057 211.427856 
L 111.525057 211.868571 
L 112.399209 211.991509 
L 112.399209 212.598899 
L 113.27336 212.714292 
L 113.27336 213.05352 
L 114.147511 213.175358 
L 114.147511 213.649615 
L 115.021663 213.76501 
L 115.021663 214.184465 
L 115.895814 214.30415 
L 115.895814 214.597493 
L 116.769966 214.712541 
L 116.769966 215.059336 
L 117.644117 215.178418 
L 117.644117 215.73615 
L 118.518269 215.847399 
L 118.518269 216.263708 
L 119.39242 216.377091 
L 119.39242 216.825063 
L 120.266571 216.939435 
L 120.266571 217.303348 
L 121.140723 217.419062 
L 121.140723 217.771236 
L 122.014874 217.887826 
L 122.014874 218.076499 
L 122.889026 218.189062 
L 122.889026 218.435412 
L 123.763177 218.549637 
L 123.763177 218.895276 
L 124.637329 219.009316 
L 124.637329 219.342084 
L 125.51148 219.455634 
L 125.51148 219.716196 
L 126.385632 219.829857 
L 126.385632 220.150773 
L 127.259783 220.263258 
L 127.259783 220.551924 
L 128.133934 220.663337 
L 128.133934 220.936927 
L 129.008086 221.051711 
L 129.008086 221.337332 
L 129.882237 221.450108 
L 129.882237 221.686901 
L 130.756389 221.798187 
L 130.756389 222.031172 
L 131.63054 222.144662 
L 131.63054 222.395819 
L 132.504692 222.510491 
L 132.504692 222.747938 
L 133.378843 222.859903 
L 133.378843 223.030886 
L 134.252994 223.144481 
L 134.252994 223.343073 
L 135.127146 223.457244 
L 135.127146 223.621397 
L 136.001297 223.733309 
L 136.001297 223.913178 
L 136.875449 224.025259 
L 136.875449 224.157418 
L 137.7496 224.270187 
L 137.7496 224.433781 
L 138.623752 224.5462 
L 138.623752 224.66896 
L 139.497903 224.781514 
L 139.497903 224.978185 
L 140.372055 225.091278 
L 140.372055 225.206463 
L 141.246206 225.319062 
L 141.246206 225.459554 
L 142.120357 225.570806 
L 142.120357 225.675418 
L 142.120357 225.591343 
L 142.994509 225.702639 
L 142.994509 225.825313 
L 143.86866 225.937125 
L 143.86866 226.051987 
L 144.742812 226.164047 
L 144.742812 226.277007 
L 145.616963 226.388944 
L 145.616963 226.477532 
L 146.491115 226.589576 
L 146.491115 226.675855 
L 147.365266 226.787718 
L 147.365266 226.863828 
L 148.239417 226.975456 
L 148.239417 227.03318 
L 149.113569 227.144774 
L 149.113569 227.237629 
L 149.98772 227.349349 
L 149.98772 227.401984 
L 150.861872 227.513206 
L 150.861872 227.595227 
L 151.736023 227.707428 
L 151.736023 227.766682 
L 152.610175 227.878799 
L 152.610175 227.924627 
L 153.484326 228.036739 
L 153.484326 228.063367 
L 154.358477 228.174654 
L 154.358477 228.18693 
L 155.232629 228.298764 
L 155.232629 228.336326 
L 156.10678 228.447643 
L 156.10678 228.473376 
L 157.855083 228.586305 
L 157.855083 228.685921 
L 159.603386 228.798433 
L 159.603386 228.917012 
L 160.477538 229.028712 
L 160.477538 229.030439 
L 161.351689 229.142368 
L 161.351689 229.145696 
L 163.099992 229.258355 
L 163.099992 229.372326 
L 163.974143 229.483518 
L 163.974143 229.489449 
L 165.722446 229.601987 
L 165.722446 229.681294 
L 167.470749 229.793168 
L 167.470749 229.86334 
L 169.219052 229.975532 
L 169.219052 230.02289 
L 170.967355 230.135015 
L 170.967355 230.172093 
L 172.715658 230.284018 
L 172.715658 230.30483 
L 174.463961 230.416766 
L 174.463961 230.453471 
L 176.212263 230.565206 
L 176.212263 230.569606 
L 178.834718 230.6821 
L 178.834718 230.722215 
L 180.583021 230.834089 
L 180.583021 230.834958 
L 183.205475 230.947167 
L 183.205475 230.978301 
L 185.827929 231.090364 
L 185.827929 231.113369 
L 188.450383 231.225396 
L 188.450383 231.2326 
L 191.072838 231.344454 
L 191.072838 231.345134 
L 194.569444 231.457294 
L 194.569444 231.47737 
L 198.066049 231.589618 
L 198.066049 231.601217 
L 202.436806 231.713553 
L 202.436806 231.737611 
L 206.807564 231.850056 
L 206.807564 231.85237 
L 212.052472 231.964895 
L 212.052472 231.971366 
L 218.171532 232.084069 
L 218.171532 232.087188 
L 225.164744 232.200054 
L 225.164744 232.20336 
L 233.906258 232.316449 
L 233.906258 232.319889 
L 247.01853 232.433809 
L 247.01853 232.436803 
L 267.124013 232.551848 
L 267.124013 232.55298 
L 309.957433 232.671922 
L 309.957433 232.674282 
L 365.903125 232.766754 
L 365.903125 232.766754 
" style="fill:none;stroke:#988ed5;stroke-linecap:square;"/>
   </g>
   <g id="patch_3">
    <path d="M 31.103125 12.039062 
L 365.903125 12.039062 
" style="fill:none;stroke:#ffffff;stroke-linecap:square;stroke-linejoin:miter;"/>
   </g>
   <g id="patch_4">
    <path d="M 365.903125 235.239062 
L 365.903125 12.039062 
" style="fill:none;stroke:#ffffff;stroke-linecap:square;stroke-linejoin:miter;"/>
   </g>
   <g id="patch_5">
    <path d="M 31.103125 235.239062 
L 365.903125 235.239062 
" style="fill:none;stroke:#ffffff;stroke-linecap:square;stroke-linejoin:miter;"/>
   </g>
   <g id="patch_6">
    <path d="M 31.103125 235.239062 
L 31.103125 12.039062 
" style="fill:none;stroke:#ffffff;stroke-linecap:square;stroke-linejoin:miter;"/>
   </g>
   <g id="legend_1">
    <g id="patch_7">
     <path d="M 262.3075 74.480312 
L 359.903125 74.480312 
L 359.903125 18.039062 
L 262.3075 18.039062 
z
" style="fill:#e5e5e5;stroke:#ffffff;stroke-linejoin:miter;stroke-width:0.5;"/>
    </g>
    <g id="line2d_43">
     <path d="M 270.7075 27.757187 
L 287.5075 27.757187 
" style="fill:none;stroke:#e24a33;stroke-linecap:square;"/>
    </g>
    <g id="line2d_44"/>
    <g id="text_15">
     <!-- precision -->
     <defs>
      <path d="M 54.890625 33.015625 
L 54.890625 0 
L 45.90625 0 
L 45.90625 32.71875 
Q 45.90625 40.484375 42.875 44.328125 
Q 39.84375 48.1875 33.796875 48.1875 
Q 26.515625 48.1875 22.3125 43.546875 
Q 18.109375 38.921875 18.109375 30.90625 
L 18.109375 0 
L 9.078125 0 
L 9.078125 54.6875 
L 18.109375 54.6875 
L 18.109375 46.1875 
Q 21.34375 51.125 25.703125 53.5625 
Q 30.078125 56 35.796875 56 
Q 45.21875 56 50.046875 50.171875 
Q 54.890625 44.34375 54.890625 33.015625 
" id="BitstreamVeraSans-Roman-6e"/>
      <path d="M 30.609375 48.390625 
Q 23.390625 48.390625 19.1875 42.75 
Q 14.984375 37.109375 14.984375 27.296875 
Q 14.984375 17.484375 19.15625 11.84375 
Q 23.34375 6.203125 30.609375 6.203125 
Q 37.796875 6.203125 41.984375 11.859375 
Q 46.1875 17.53125 46.1875 27.296875 
Q 46.1875 37.015625 41.984375 42.703125 
Q 37.796875 48.390625 30.609375 48.390625 
M 30.609375 56 
Q 42.328125 56 49.015625 48.375 
Q 55.71875 40.765625 55.71875 27.296875 
Q 55.71875 13.875 49.015625 6.21875 
Q 42.328125 -1.421875 30.609375 -1.421875 
Q 18.84375 -1.421875 12.171875 6.21875 
Q 5.515625 13.875 5.515625 27.296875 
Q 5.515625 40.765625 12.171875 48.375 
Q 18.84375 56 30.609375 56 
" id="BitstreamVeraSans-Roman-6f"/>
      <path d="M 9.421875 54.6875 
L 18.40625 54.6875 
L 18.40625 0 
L 9.421875 0 
z
M 9.421875 75.984375 
L 18.40625 75.984375 
L 18.40625 64.59375 
L 9.421875 64.59375 
z
" id="BitstreamVeraSans-Roman-69"/>
      <path d="M 18.109375 8.203125 
L 18.109375 -20.796875 
L 9.078125 -20.796875 
L 9.078125 54.6875 
L 18.109375 54.6875 
L 18.109375 46.390625 
Q 20.953125 51.265625 25.265625 53.625 
Q 29.59375 56 35.59375 56 
Q 45.5625 56 51.78125 48.09375 
Q 58.015625 40.1875 58.015625 27.296875 
Q 58.015625 14.40625 51.78125 6.484375 
Q 45.5625 -1.421875 35.59375 -1.421875 
Q 29.59375 -1.421875 25.265625 0.953125 
Q 20.953125 3.328125 18.109375 8.203125 
M 48.6875 27.296875 
Q 48.6875 37.203125 44.609375 42.84375 
Q 40.53125 48.484375 33.40625 48.484375 
Q 26.265625 48.484375 22.1875 42.84375 
Q 18.109375 37.203125 18.109375 27.296875 
Q 18.109375 17.390625 22.1875 11.75 
Q 26.265625 6.109375 33.40625 6.109375 
Q 40.53125 6.109375 44.609375 11.75 
Q 48.6875 17.390625 48.6875 27.296875 
" id="BitstreamVeraSans-Roman-70"/>
      <path d="M 56.203125 29.59375 
L 56.203125 25.203125 
L 14.890625 25.203125 
Q 15.484375 15.921875 20.484375 11.0625 
Q 25.484375 6.203125 34.421875 6.203125 
Q 39.59375 6.203125 44.453125 7.46875 
Q 49.3125 8.734375 54.109375 11.28125 
L 54.109375 2.78125 
Q 49.265625 0.734375 44.1875 -0.34375 
Q 39.109375 -1.421875 33.890625 -1.421875 
Q 20.796875 -1.421875 13.15625 6.1875 
Q 5.515625 13.8125 5.515625 26.8125 
Q 5.515625 40.234375 12.765625 48.109375 
Q 20.015625 56 32.328125 56 
Q 43.359375 56 49.78125 48.890625 
Q 56.203125 41.796875 56.203125 29.59375 
M 47.21875 32.234375 
Q 47.125 39.59375 43.09375 43.984375 
Q 39.0625 48.390625 32.421875 48.390625 
Q 24.90625 48.390625 20.390625 44.140625 
Q 15.875 39.890625 15.1875 32.171875 
z
" id="BitstreamVeraSans-Roman-65"/>
      <path d="M 41.109375 46.296875 
Q 39.59375 47.171875 37.8125 47.578125 
Q 36.03125 48 33.890625 48 
Q 26.265625 48 22.1875 43.046875 
Q 18.109375 38.09375 18.109375 28.8125 
L 18.109375 0 
L 9.078125 0 
L 9.078125 54.6875 
L 18.109375 54.6875 
L 18.109375 46.1875 
Q 20.953125 51.171875 25.484375 53.578125 
Q 30.03125 56 36.53125 56 
Q 37.453125 56 38.578125 55.875 
Q 39.703125 55.765625 41.0625 55.515625 
z
" id="BitstreamVeraSans-Roman-72"/>
      <path d="M 44.28125 53.078125 
L 44.28125 44.578125 
Q 40.484375 46.53125 36.375 47.5 
Q 32.28125 48.484375 27.875 48.484375 
Q 21.1875 48.484375 17.84375 46.4375 
Q 14.5 44.390625 14.5 40.28125 
Q 14.5 37.15625 16.890625 35.375 
Q 19.28125 33.59375 26.515625 31.984375 
L 29.59375 31.296875 
Q 39.15625 29.25 43.1875 25.515625 
Q 47.21875 21.78125 47.21875 15.09375 
Q 47.21875 7.46875 41.1875 3.015625 
Q 35.15625 -1.421875 24.609375 -1.421875 
Q 20.21875 -1.421875 15.453125 -0.5625 
Q 10.6875 0.296875 5.421875 2 
L 5.421875 11.28125 
Q 10.40625 8.6875 15.234375 7.390625 
Q 20.0625 6.109375 24.8125 6.109375 
Q 31.15625 6.109375 34.5625 8.28125 
Q 37.984375 10.453125 37.984375 14.40625 
Q 37.984375 18.0625 35.515625 20.015625 
Q 33.0625 21.96875 24.703125 23.78125 
L 21.578125 24.515625 
Q 13.234375 26.265625 9.515625 29.90625 
Q 5.8125 33.546875 5.8125 39.890625 
Q 5.8125 47.609375 11.28125 51.796875 
Q 16.75 56 26.8125 56 
Q 31.78125 56 36.171875 55.265625 
Q 40.578125 54.546875 44.28125 53.078125 
" id="BitstreamVeraSans-Roman-73"/>
      <path d="M 48.78125 52.59375 
L 48.78125 44.1875 
Q 44.96875 46.296875 41.140625 47.34375 
Q 37.3125 48.390625 33.40625 48.390625 
Q 24.65625 48.390625 19.8125 42.84375 
Q 14.984375 37.3125 14.984375 27.296875 
Q 14.984375 17.28125 19.8125 11.734375 
Q 24.65625 6.203125 33.40625 6.203125 
Q 37.3125 6.203125 41.140625 7.25 
Q 44.96875 8.296875 48.78125 10.40625 
L 48.78125 2.09375 
Q 45.015625 0.34375 40.984375 -0.53125 
Q 36.96875 -1.421875 32.421875 -1.421875 
Q 20.0625 -1.421875 12.78125 6.34375 
Q 5.515625 14.109375 5.515625 27.296875 
Q 5.515625 40.671875 12.859375 48.328125 
Q 20.21875 56 33.015625 56 
Q 37.15625 56 41.109375 55.140625 
Q 45.0625 54.296875 48.78125 52.59375 
" id="BitstreamVeraSans-Roman-63"/>
     </defs>
     <g transform="translate(300.7075 31.9571875)scale(0.12 -0.12)">
      <use xlink:href="#BitstreamVeraSans-Roman-70"/>
      <use x="63.4765625" xlink:href="#BitstreamVeraSans-Roman-72"/>
      <use x="104.55859375" xlink:href="#BitstreamVeraSans-Roman-65"/>
      <use x="166.08203125" xlink:href="#BitstreamVeraSans-Roman-63"/>
      <use x="221.0625" xlink:href="#BitstreamVeraSans-Roman-69"/>
      <use x="248.845703125" xlink:href="#BitstreamVeraSans-Roman-73"/>
      <use x="300.9453125" xlink:href="#BitstreamVeraSans-Roman-69"/>
      <use x="328.728515625" xlink:href="#BitstreamVeraSans-Roman-6f"/>
      <use x="389.91015625" xlink:href="#BitstreamVeraSans-Roman-6e"/>
     </g>
    </g>
    <g id="line2d_45">
     <path d="M 270.7075 45.370937 
L 287.5075 45.370937 
" style="fill:none;stroke:#348abd;stroke-linecap:square;"/>
    </g>
    <g id="line2d_46"/>
    <g id="text_16">
     <!-- recall -->
     <defs>
      <path d="M 34.28125 27.484375 
Q 23.390625 27.484375 19.1875 25 
Q 14.984375 22.515625 14.984375 16.5 
Q 14.984375 11.71875 18.140625 8.90625 
Q 21.296875 6.109375 26.703125 6.109375 
Q 34.1875 6.109375 38.703125 11.40625 
Q 43.21875 16.703125 43.21875 25.484375 
L 43.21875 27.484375 
z
M 52.203125 31.203125 
L 52.203125 0 
L 43.21875 0 
L 43.21875 8.296875 
Q 40.140625 3.328125 35.546875 0.953125 
Q 30.953125 -1.421875 24.3125 -1.421875 
Q 15.921875 -1.421875 10.953125 3.296875 
Q 6 8.015625 6 15.921875 
Q 6 25.140625 12.171875 29.828125 
Q 18.359375 34.515625 30.609375 34.515625 
L 43.21875 34.515625 
L 43.21875 35.40625 
Q 43.21875 41.609375 39.140625 45 
Q 35.0625 48.390625 27.6875 48.390625 
Q 23 48.390625 18.546875 47.265625 
Q 14.109375 46.140625 10.015625 43.890625 
L 10.015625 52.203125 
Q 14.9375 54.109375 19.578125 55.046875 
Q 24.21875 56 28.609375 56 
Q 40.484375 56 46.34375 49.84375 
Q 52.203125 43.703125 52.203125 31.203125 
" id="BitstreamVeraSans-Roman-61"/>
      <path d="M 9.421875 75.984375 
L 18.40625 75.984375 
L 18.40625 0 
L 9.421875 0 
z
" id="BitstreamVeraSans-Roman-6c"/>
     </defs>
     <g transform="translate(300.7075 49.5709375)scale(0.12 -0.12)">
      <use xlink:href="#BitstreamVeraSans-Roman-72"/>
      <use x="41.08203125" xlink:href="#BitstreamVeraSans-Roman-65"/>
      <use x="102.60546875" xlink:href="#BitstreamVeraSans-Roman-63"/>
      <use x="157.5859375" xlink:href="#BitstreamVeraSans-Roman-61"/>
      <use x="218.865234375" xlink:href="#BitstreamVeraSans-Roman-6c"/>
      <use x="246.6484375" xlink:href="#BitstreamVeraSans-Roman-6c"/>
     </g>
    </g>
    <g id="line2d_47">
     <path d="M 270.7075 62.984687 
L 287.5075 62.984687 
" style="fill:none;stroke:#988ed5;stroke-linecap:square;"/>
    </g>
    <g id="line2d_48"/>
    <g id="text_17">
     <!-- f1 -->
     <defs>
      <path d="M 37.109375 75.984375 
L 37.109375 68.5 
L 28.515625 68.5 
Q 23.6875 68.5 21.796875 66.546875 
Q 19.921875 64.59375 19.921875 59.515625 
L 19.921875 54.6875 
L 34.71875 54.6875 
L 34.71875 47.703125 
L 19.921875 47.703125 
L 19.921875 0 
L 10.890625 0 
L 10.890625 47.703125 
L 2.296875 47.703125 
L 2.296875 54.6875 
L 10.890625 54.6875 
L 10.890625 58.5 
Q 10.890625 67.625 15.140625 71.796875 
Q 19.390625 75.984375 28.609375 75.984375 
z
" id="BitstreamVeraSans-Roman-66"/>
     </defs>
     <g transform="translate(300.7075 67.1846875)scale(0.12 -0.12)">
      <use xlink:href="#BitstreamVeraSans-Roman-66"/>
      <use x="35.205078125" xlink:href="#BitstreamVeraSans-Roman-31"/>
     </g>
    </g>
   </g>
  </g>
 </g>
 <defs>
  <clipPath id="p7e8ca54fbe">
   <rect height="223.2" width="334.8" x="31.103125" y="12.0390625"/>
  </clipPath>
 </defs>
</svg>
