<?xml version="1.0" encoding="utf-8" standalone="no"?>
<!DOCTYPE svg PUBLIC "-//W3C//DTD SVG 1.1//EN"
  "http://www.w3.org/Graphics/SVG/1.1/DTD/svg11.dtd">
<!-- Created with matplotlib (http://matplotlib.org/) -->
<svg height="276pt" version="1.1" viewBox="0 0 374 276" width="374pt" xmlns="http://www.w3.org/2000/svg" xmlns:xlink="http://www.w3.org/1999/xlink">
 <defs>
  <style type="text/css">
*{stroke-linecap:butt;stroke-linejoin:round;stroke-miterlimit:100000;}
  </style>
 </defs>
 <g id="figure_1">
  <g id="patch_1">
   <path d="M 0 276.730937 
L 374.481021 276.730937 
L 374.481021 0 
L 0 0 
L 0 276.730937 
z
" style="fill:none;"/>
  </g>
  <g id="axes_1">
   <g id="patch_2">
    <path d="M 31.103125 235.239062 
L 365.903125 235.239062 
L 365.903125 12.039062 
L 31.103125 12.039062 
z
" style="fill:#e5e5e5;"/>
   </g>
   <g id="matplotlib.axis_1">
    <g id="xtick_1">
     <g id="line2d_1">
      <path clip-path="url(#p56c1c72d8a)" d="M 31.103125 235.239062 
L 31.103125 12.039062 
" style="fill:none;stroke:#ffffff;stroke-linecap:square;stroke-width:0.5;"/>
     </g>
     <g id="line2d_2">
      <defs>
       <path d="M 0 0 
L 0 4 
" id="me4489cccd5" style="stroke:#555555;stroke-width:0.5;"/>
      </defs>
      <g>
       <use style="fill:#555555;stroke:#555555;stroke-width:0.5;" x="31.103125" xlink:href="#me4489cccd5" y="235.2390625"/>
      </g>
     </g>
     <g id="line2d_3">
      <defs>
       <path d="M 0 0 
L 0 -4 
" id="m30f04e77b5" style="stroke:#555555;stroke-width:0.5;"/>
      </defs>
      <g>
       <use style="fill:#555555;stroke:#555555;stroke-width:0.5;" x="31.103125" xlink:href="#m30f04e77b5" y="12.0390625"/>
      </g>
     </g>
     <g id="text_1">
      <!-- 0 -->
      <defs>
       <path d="M 31.78125 66.40625 
Q 24.171875 66.40625 20.328125 58.90625 
Q 16.5 51.421875 16.5 36.375 
Q 16.5 21.390625 20.328125 13.890625 
Q 24.171875 6.390625 31.78125 6.390625 
Q 39.453125 6.390625 43.28125 13.890625 
Q 47.125 21.390625 47.125 36.375 
Q 47.125 51.421875 43.28125 58.90625 
Q 39.453125 66.40625 31.78125 66.40625 
M 31.78125 74.21875 
Q 44.046875 74.21875 50.515625 64.515625 
Q 56.984375 54.828125 56.984375 36.375 
Q 56.984375 17.96875 50.515625 8.265625 
Q 44.046875 -1.421875 31.78125 -1.421875 
Q 19.53125 -1.421875 13.0625 8.265625 
Q 6.59375 17.96875 6.59375 36.375 
Q 6.59375 54.828125 13.0625 64.515625 
Q 19.53125 74.21875 31.78125 74.21875 
" id="BitstreamVeraSans-Roman-30"/>
      </defs>
      <g style="fill:#555555;" transform="translate(27.921875 250.8375)scale(0.1 -0.1)">
       <use xlink:href="#BitstreamVeraSans-Roman-30"/>
      </g>
     </g>
    </g>
    <g id="xtick_2">
     <g id="line2d_4">
      <path clip-path="url(#p56c1c72d8a)" d="M 71.932393 235.239062 
L 71.932393 12.039062 
" style="fill:none;stroke:#ffffff;stroke-linecap:square;stroke-width:0.5;"/>
     </g>
     <g id="line2d_5">
      <g>
       <use style="fill:#555555;stroke:#555555;stroke-width:0.5;" x="71.9323932927" xlink:href="#me4489cccd5" y="235.2390625"/>
      </g>
     </g>
     <g id="line2d_6">
      <g>
       <use style="fill:#555555;stroke:#555555;stroke-width:0.5;" x="71.9323932927" xlink:href="#m30f04e77b5" y="12.0390625"/>
      </g>
     </g>
     <g id="text_2">
      <!-- 50 -->
      <defs>
       <path d="M 10.796875 72.90625 
L 49.515625 72.90625 
L 49.515625 64.59375 
L 19.828125 64.59375 
L 19.828125 46.734375 
Q 21.96875 47.46875 24.109375 47.828125 
Q 26.265625 48.1875 28.421875 48.1875 
Q 40.625 48.1875 47.75 41.5 
Q 54.890625 34.8125 54.890625 23.390625 
Q 54.890625 11.625 47.5625 5.09375 
Q 40.234375 -1.421875 26.90625 -1.421875 
Q 22.3125 -1.421875 17.546875 -0.640625 
Q 12.796875 0.140625 7.71875 1.703125 
L 7.71875 11.625 
Q 12.109375 9.234375 16.796875 8.0625 
Q 21.484375 6.890625 26.703125 6.890625 
Q 35.15625 6.890625 40.078125 11.328125 
Q 45.015625 15.765625 45.015625 23.390625 
Q 45.015625 31 40.078125 35.4375 
Q 35.15625 39.890625 26.703125 39.890625 
Q 22.75 39.890625 18.8125 39.015625 
Q 14.890625 38.140625 10.796875 36.28125 
z
" id="BitstreamVeraSans-Roman-35"/>
      </defs>
      <g style="fill:#555555;" transform="translate(65.5698932927 250.8375)scale(0.1 -0.1)">
       <use xlink:href="#BitstreamVeraSans-Roman-35"/>
       <use x="63.623046875" xlink:href="#BitstreamVeraSans-Roman-30"/>
      </g>
     </g>
    </g>
    <g id="xtick_3">
     <g id="line2d_7">
      <path clip-path="url(#p56c1c72d8a)" d="M 112.761662 235.239062 
L 112.761662 12.039062 
" style="fill:none;stroke:#ffffff;stroke-linecap:square;stroke-width:0.5;"/>
     </g>
     <g id="line2d_8">
      <g>
       <use style="fill:#555555;stroke:#555555;stroke-width:0.5;" x="112.761661585" xlink:href="#me4489cccd5" y="235.2390625"/>
      </g>
     </g>
     <g id="line2d_9">
      <g>
       <use style="fill:#555555;stroke:#555555;stroke-width:0.5;" x="112.761661585" xlink:href="#m30f04e77b5" y="12.0390625"/>
      </g>
     </g>
     <g id="text_3">
      <!-- 100 -->
      <defs>
       <path d="M 12.40625 8.296875 
L 28.515625 8.296875 
L 28.515625 63.921875 
L 10.984375 60.40625 
L 10.984375 69.390625 
L 28.421875 72.90625 
L 38.28125 72.90625 
L 38.28125 8.296875 
L 54.390625 8.296875 
L 54.390625 0 
L 12.40625 0 
z
" id="BitstreamVeraSans-Roman-31"/>
      </defs>
      <g style="fill:#555555;" transform="translate(103.217911585 250.8375)scale(0.1 -0.1)">
       <use xlink:href="#BitstreamVeraSans-Roman-31"/>
       <use x="63.623046875" xlink:href="#BitstreamVeraSans-Roman-30"/>
       <use x="127.24609375" xlink:href="#BitstreamVeraSans-Roman-30"/>
      </g>
     </g>
    </g>
    <g id="xtick_4">
     <g id="line2d_10">
      <path clip-path="url(#p56c1c72d8a)" d="M 153.59093 235.239062 
L 153.59093 12.039062 
" style="fill:none;stroke:#ffffff;stroke-linecap:square;stroke-width:0.5;"/>
     </g>
     <g id="line2d_11">
      <g>
       <use style="fill:#555555;stroke:#555555;stroke-width:0.5;" x="153.590929878" xlink:href="#me4489cccd5" y="235.2390625"/>
      </g>
     </g>
     <g id="line2d_12">
      <g>
       <use style="fill:#555555;stroke:#555555;stroke-width:0.5;" x="153.590929878" xlink:href="#m30f04e77b5" y="12.0390625"/>
      </g>
     </g>
     <g id="text_4">
      <!-- 150 -->
      <g style="fill:#555555;" transform="translate(144.047179878 250.8375)scale(0.1 -0.1)">
       <use xlink:href="#BitstreamVeraSans-Roman-31"/>
       <use x="63.623046875" xlink:href="#BitstreamVeraSans-Roman-35"/>
       <use x="127.24609375" xlink:href="#BitstreamVeraSans-Roman-30"/>
      </g>
     </g>
    </g>
    <g id="xtick_5">
     <g id="line2d_13">
      <path clip-path="url(#p56c1c72d8a)" d="M 194.420198 235.239062 
L 194.420198 12.039062 
" style="fill:none;stroke:#ffffff;stroke-linecap:square;stroke-width:0.5;"/>
     </g>
     <g id="line2d_14">
      <g>
       <use style="fill:#555555;stroke:#555555;stroke-width:0.5;" x="194.420198171" xlink:href="#me4489cccd5" y="235.2390625"/>
      </g>
     </g>
     <g id="line2d_15">
      <g>
       <use style="fill:#555555;stroke:#555555;stroke-width:0.5;" x="194.420198171" xlink:href="#m30f04e77b5" y="12.0390625"/>
      </g>
     </g>
     <g id="text_5">
      <!-- 200 -->
      <defs>
       <path d="M 19.1875 8.296875 
L 53.609375 8.296875 
L 53.609375 0 
L 7.328125 0 
L 7.328125 8.296875 
Q 12.9375 14.109375 22.625 23.890625 
Q 32.328125 33.6875 34.8125 36.53125 
Q 39.546875 41.84375 41.421875 45.53125 
Q 43.3125 49.21875 43.3125 52.78125 
Q 43.3125 58.59375 39.234375 62.25 
Q 35.15625 65.921875 28.609375 65.921875 
Q 23.96875 65.921875 18.8125 64.3125 
Q 13.671875 62.703125 7.8125 59.421875 
L 7.8125 69.390625 
Q 13.765625 71.78125 18.9375 73 
Q 24.125 74.21875 28.421875 74.21875 
Q 39.75 74.21875 46.484375 68.546875 
Q 53.21875 62.890625 53.21875 53.421875 
Q 53.21875 48.921875 51.53125 44.890625 
Q 49.859375 40.875 45.40625 35.40625 
Q 44.1875 33.984375 37.640625 27.21875 
Q 31.109375 20.453125 19.1875 8.296875 
" id="BitstreamVeraSans-Roman-32"/>
      </defs>
      <g style="fill:#555555;" transform="translate(184.876448171 250.8375)scale(0.1 -0.1)">
       <use xlink:href="#BitstreamVeraSans-Roman-32"/>
       <use x="63.623046875" xlink:href="#BitstreamVeraSans-Roman-30"/>
       <use x="127.24609375" xlink:href="#BitstreamVeraSans-Roman-30"/>
      </g>
     </g>
    </g>
    <g id="xtick_6">
     <g id="line2d_16">
      <path clip-path="url(#p56c1c72d8a)" d="M 235.249466 235.239062 
L 235.249466 12.039062 
" style="fill:none;stroke:#ffffff;stroke-linecap:square;stroke-width:0.5;"/>
     </g>
     <g id="line2d_17">
      <g>
       <use style="fill:#555555;stroke:#555555;stroke-width:0.5;" x="235.249466463" xlink:href="#me4489cccd5" y="235.2390625"/>
      </g>
     </g>
     <g id="line2d_18">
      <g>
       <use style="fill:#555555;stroke:#555555;stroke-width:0.5;" x="235.249466463" xlink:href="#m30f04e77b5" y="12.0390625"/>
      </g>
     </g>
     <g id="text_6">
      <!-- 250 -->
      <g style="fill:#555555;" transform="translate(225.705716463 250.8375)scale(0.1 -0.1)">
       <use xlink:href="#BitstreamVeraSans-Roman-32"/>
       <use x="63.623046875" xlink:href="#BitstreamVeraSans-Roman-35"/>
       <use x="127.24609375" xlink:href="#BitstreamVeraSans-Roman-30"/>
      </g>
     </g>
    </g>
    <g id="xtick_7">
     <g id="line2d_19">
      <path clip-path="url(#p56c1c72d8a)" d="M 276.078735 235.239062 
L 276.078735 12.039062 
" style="fill:none;stroke:#ffffff;stroke-linecap:square;stroke-width:0.5;"/>
     </g>
     <g id="line2d_20">
      <g>
       <use style="fill:#555555;stroke:#555555;stroke-width:0.5;" x="276.078734756" xlink:href="#me4489cccd5" y="235.2390625"/>
      </g>
     </g>
     <g id="line2d_21">
      <g>
       <use style="fill:#555555;stroke:#555555;stroke-width:0.5;" x="276.078734756" xlink:href="#m30f04e77b5" y="12.0390625"/>
      </g>
     </g>
     <g id="text_7">
      <!-- 300 -->
      <defs>
       <path d="M 40.578125 39.3125 
Q 47.65625 37.796875 51.625 33 
Q 55.609375 28.21875 55.609375 21.1875 
Q 55.609375 10.40625 48.1875 4.484375 
Q 40.765625 -1.421875 27.09375 -1.421875 
Q 22.515625 -1.421875 17.65625 -0.515625 
Q 12.796875 0.390625 7.625 2.203125 
L 7.625 11.71875 
Q 11.71875 9.328125 16.59375 8.109375 
Q 21.484375 6.890625 26.8125 6.890625 
Q 36.078125 6.890625 40.9375 10.546875 
Q 45.796875 14.203125 45.796875 21.1875 
Q 45.796875 27.640625 41.28125 31.265625 
Q 36.765625 34.90625 28.71875 34.90625 
L 20.21875 34.90625 
L 20.21875 43.015625 
L 29.109375 43.015625 
Q 36.375 43.015625 40.234375 45.921875 
Q 44.09375 48.828125 44.09375 54.296875 
Q 44.09375 59.90625 40.109375 62.90625 
Q 36.140625 65.921875 28.71875 65.921875 
Q 24.65625 65.921875 20.015625 65.03125 
Q 15.375 64.15625 9.8125 62.3125 
L 9.8125 71.09375 
Q 15.4375 72.65625 20.34375 73.4375 
Q 25.25 74.21875 29.59375 74.21875 
Q 40.828125 74.21875 47.359375 69.109375 
Q 53.90625 64.015625 53.90625 55.328125 
Q 53.90625 49.265625 50.4375 45.09375 
Q 46.96875 40.921875 40.578125 39.3125 
" id="BitstreamVeraSans-Roman-33"/>
      </defs>
      <g style="fill:#555555;" transform="translate(266.534984756 250.8375)scale(0.1 -0.1)">
       <use xlink:href="#BitstreamVeraSans-Roman-33"/>
       <use x="63.623046875" xlink:href="#BitstreamVeraSans-Roman-30"/>
       <use x="127.24609375" xlink:href="#BitstreamVeraSans-Roman-30"/>
      </g>
     </g>
    </g>
    <g id="xtick_8">
     <g id="line2d_22">
      <path clip-path="url(#p56c1c72d8a)" d="M 316.908003 235.239062 
L 316.908003 12.039062 
" style="fill:none;stroke:#ffffff;stroke-linecap:square;stroke-width:0.5;"/>
     </g>
     <g id="line2d_23">
      <g>
       <use style="fill:#555555;stroke:#555555;stroke-width:0.5;" x="316.908003049" xlink:href="#me4489cccd5" y="235.2390625"/>
      </g>
     </g>
     <g id="line2d_24">
      <g>
       <use style="fill:#555555;stroke:#555555;stroke-width:0.5;" x="316.908003049" xlink:href="#m30f04e77b5" y="12.0390625"/>
      </g>
     </g>
     <g id="text_8">
      <!-- 350 -->
      <g style="fill:#555555;" transform="translate(307.364253049 250.8375)scale(0.1 -0.1)">
       <use xlink:href="#BitstreamVeraSans-Roman-33"/>
       <use x="63.623046875" xlink:href="#BitstreamVeraSans-Roman-35"/>
       <use x="127.24609375" xlink:href="#BitstreamVeraSans-Roman-30"/>
      </g>
     </g>
    </g>
    <g id="xtick_9">
     <g id="line2d_25">
      <path clip-path="url(#p56c1c72d8a)" d="M 357.737271 235.239062 
L 357.737271 12.039062 
" style="fill:none;stroke:#ffffff;stroke-linecap:square;stroke-width:0.5;"/>
     </g>
     <g id="line2d_26">
      <g>
       <use style="fill:#555555;stroke:#555555;stroke-width:0.5;" x="357.737271341" xlink:href="#me4489cccd5" y="235.2390625"/>
      </g>
     </g>
     <g id="line2d_27">
      <g>
       <use style="fill:#555555;stroke:#555555;stroke-width:0.5;" x="357.737271341" xlink:href="#m30f04e77b5" y="12.0390625"/>
      </g>
     </g>
     <g id="text_9">
      <!-- 400 -->
      <defs>
       <path d="M 37.796875 64.3125 
L 12.890625 25.390625 
L 37.796875 25.390625 
z
M 35.203125 72.90625 
L 47.609375 72.90625 
L 47.609375 25.390625 
L 58.015625 25.390625 
L 58.015625 17.1875 
L 47.609375 17.1875 
L 47.609375 0 
L 37.796875 0 
L 37.796875 17.1875 
L 4.890625 17.1875 
L 4.890625 26.703125 
z
" id="BitstreamVeraSans-Roman-34"/>
      </defs>
      <g style="fill:#555555;" transform="translate(348.193521341 250.8375)scale(0.1 -0.1)">
       <use xlink:href="#BitstreamVeraSans-Roman-34"/>
       <use x="63.623046875" xlink:href="#BitstreamVeraSans-Roman-30"/>
       <use x="127.24609375" xlink:href="#BitstreamVeraSans-Roman-30"/>
      </g>
     </g>
    </g>
    <g id="text_10">
     <!-- x -->
     <defs>
      <path d="M 54.890625 54.6875 
L 35.109375 28.078125 
L 55.90625 0 
L 45.3125 0 
L 29.390625 21.484375 
L 13.484375 0 
L 2.875 0 
L 24.125 28.609375 
L 4.6875 54.6875 
L 15.28125 54.6875 
L 29.78125 35.203125 
L 44.28125 54.6875 
z
" id="BitstreamVeraSans-Roman-78"/>
     </defs>
     <g style="fill:#555555;" transform="translate(194.951875 267.0353125)scale(0.12 -0.12)">
      <use xlink:href="#BitstreamVeraSans-Roman-78"/>
     </g>
    </g>
   </g>
   <g id="matplotlib.axis_2">
    <g id="ytick_1">
     <g id="line2d_28">
      <path clip-path="url(#p56c1c72d8a)" d="M 31.103125 235.239062 
L 365.903125 235.239062 
" style="fill:none;stroke:#ffffff;stroke-linecap:square;stroke-width:0.5;"/>
     </g>
     <g id="line2d_29">
      <defs>
       <path d="M 0 0 
L -4 0 
" id="mc86b7fa9bc" style="stroke:#555555;stroke-width:0.5;"/>
      </defs>
      <g>
       <use style="fill:#555555;stroke:#555555;stroke-width:0.5;" x="31.103125" xlink:href="#mc86b7fa9bc" y="235.2390625"/>
      </g>
     </g>
     <g id="line2d_30">
      <defs>
       <path d="M 0 0 
L 4 0 
" id="m906331a418" style="stroke:#555555;stroke-width:0.5;"/>
      </defs>
      <g>
       <use style="fill:#555555;stroke:#555555;stroke-width:0.5;" x="365.903125" xlink:href="#m906331a418" y="235.2390625"/>
      </g>
     </g>
     <g id="text_11">
      <!-- 0.0 -->
      <defs>
       <path d="M 10.6875 12.40625 
L 21 12.40625 
L 21 0 
L 10.6875 0 
z
" id="BitstreamVeraSans-Roman-2e"/>
      </defs>
      <g style="fill:#555555;" transform="translate(7.2 237.9984375)scale(0.1 -0.1)">
       <use xlink:href="#BitstreamVeraSans-Roman-30"/>
       <use x="63.623046875" xlink:href="#BitstreamVeraSans-Roman-2e"/>
       <use x="95.41015625" xlink:href="#BitstreamVeraSans-Roman-30"/>
      </g>
     </g>
    </g>
    <g id="ytick_2">
     <g id="line2d_31">
      <path clip-path="url(#p56c1c72d8a)" d="M 31.103125 190.599063 
L 365.903125 190.599063 
" style="fill:none;stroke:#ffffff;stroke-linecap:square;stroke-width:0.5;"/>
     </g>
     <g id="line2d_32">
      <g>
       <use style="fill:#555555;stroke:#555555;stroke-width:0.5;" x="31.103125" xlink:href="#mc86b7fa9bc" y="190.5990625"/>
      </g>
     </g>
     <g id="line2d_33">
      <g>
       <use style="fill:#555555;stroke:#555555;stroke-width:0.5;" x="365.903125" xlink:href="#m906331a418" y="190.5990625"/>
      </g>
     </g>
     <g id="text_12">
      <!-- 0.2 -->
      <g style="fill:#555555;" transform="translate(7.2 193.3584375)scale(0.1 -0.1)">
       <use xlink:href="#BitstreamVeraSans-Roman-30"/>
       <use x="63.623046875" xlink:href="#BitstreamVeraSans-Roman-2e"/>
       <use x="95.41015625" xlink:href="#BitstreamVeraSans-Roman-32"/>
      </g>
     </g>
    </g>
    <g id="ytick_3">
     <g id="line2d_34">
      <path clip-path="url(#p56c1c72d8a)" d="M 31.103125 145.959062 
L 365.903125 145.959062 
" style="fill:none;stroke:#ffffff;stroke-linecap:square;stroke-width:0.5;"/>
     </g>
     <g id="line2d_35">
      <g>
       <use style="fill:#555555;stroke:#555555;stroke-width:0.5;" x="31.103125" xlink:href="#mc86b7fa9bc" y="145.9590625"/>
      </g>
     </g>
     <g id="line2d_36">
      <g>
       <use style="fill:#555555;stroke:#555555;stroke-width:0.5;" x="365.903125" xlink:href="#m906331a418" y="145.9590625"/>
      </g>
     </g>
     <g id="text_13">
      <!-- 0.4 -->
      <g style="fill:#555555;" transform="translate(7.2 148.7184375)scale(0.1 -0.1)">
       <use xlink:href="#BitstreamVeraSans-Roman-30"/>
       <use x="63.623046875" xlink:href="#BitstreamVeraSans-Roman-2e"/>
       <use x="95.41015625" xlink:href="#BitstreamVeraSans-Roman-34"/>
      </g>
     </g>
    </g>
    <g id="ytick_4">
     <g id="line2d_37">
      <path clip-path="url(#p56c1c72d8a)" d="M 31.103125 101.319062 
L 365.903125 101.319062 
" style="fill:none;stroke:#ffffff;stroke-linecap:square;stroke-width:0.5;"/>
     </g>
     <g id="line2d_38">
      <g>
       <use style="fill:#555555;stroke:#555555;stroke-width:0.5;" x="31.103125" xlink:href="#mc86b7fa9bc" y="101.3190625"/>
      </g>
     </g>
     <g id="line2d_39">
      <g>
       <use style="fill:#555555;stroke:#555555;stroke-width:0.5;" x="365.903125" xlink:href="#m906331a418" y="101.3190625"/>
      </g>
     </g>
     <g id="text_14">
      <!-- 0.6 -->
      <defs>
       <path d="M 33.015625 40.375 
Q 26.375 40.375 22.484375 35.828125 
Q 18.609375 31.296875 18.609375 23.390625 
Q 18.609375 15.53125 22.484375 10.953125 
Q 26.375 6.390625 33.015625 6.390625 
Q 39.65625 6.390625 43.53125 10.953125 
Q 47.40625 15.53125 47.40625 23.390625 
Q 47.40625 31.296875 43.53125 35.828125 
Q 39.65625 40.375 33.015625 40.375 
M 52.59375 71.296875 
L 52.59375 62.3125 
Q 48.875 64.0625 45.09375 64.984375 
Q 41.3125 65.921875 37.59375 65.921875 
Q 27.828125 65.921875 22.671875 59.328125 
Q 17.53125 52.734375 16.796875 39.40625 
Q 19.671875 43.65625 24.015625 45.921875 
Q 28.375 48.1875 33.59375 48.1875 
Q 44.578125 48.1875 50.953125 41.515625 
Q 57.328125 34.859375 57.328125 23.390625 
Q 57.328125 12.15625 50.6875 5.359375 
Q 44.046875 -1.421875 33.015625 -1.421875 
Q 20.359375 -1.421875 13.671875 8.265625 
Q 6.984375 17.96875 6.984375 36.375 
Q 6.984375 53.65625 15.1875 63.9375 
Q 23.390625 74.21875 37.203125 74.21875 
Q 40.921875 74.21875 44.703125 73.484375 
Q 48.484375 72.75 52.59375 71.296875 
" id="BitstreamVeraSans-Roman-36"/>
      </defs>
      <g style="fill:#555555;" transform="translate(7.2 104.0784375)scale(0.1 -0.1)">
       <use xlink:href="#BitstreamVeraSans-Roman-30"/>
       <use x="63.623046875" xlink:href="#BitstreamVeraSans-Roman-2e"/>
       <use x="95.41015625" xlink:href="#BitstreamVeraSans-Roman-36"/>
      </g>
     </g>
    </g>
    <g id="ytick_5">
     <g id="line2d_40">
      <path clip-path="url(#p56c1c72d8a)" d="M 31.103125 56.679062 
L 365.903125 56.679062 
" style="fill:none;stroke:#ffffff;stroke-linecap:square;stroke-width:0.5;"/>
     </g>
     <g id="line2d_41">
      <g>
       <use style="fill:#555555;stroke:#555555;stroke-width:0.5;" x="31.103125" xlink:href="#mc86b7fa9bc" y="56.6790625"/>
      </g>
     </g>
     <g id="line2d_42">
      <g>
       <use style="fill:#555555;stroke:#555555;stroke-width:0.5;" x="365.903125" xlink:href="#m906331a418" y="56.6790625"/>
      </g>
     </g>
     <g id="text_15">
      <!-- 0.8 -->
      <defs>
       <path d="M 31.78125 34.625 
Q 24.75 34.625 20.71875 30.859375 
Q 16.703125 27.09375 16.703125 20.515625 
Q 16.703125 13.921875 20.71875 10.15625 
Q 24.75 6.390625 31.78125 6.390625 
Q 38.8125 6.390625 42.859375 10.171875 
Q 46.921875 13.96875 46.921875 20.515625 
Q 46.921875 27.09375 42.890625 30.859375 
Q 38.875 34.625 31.78125 34.625 
M 21.921875 38.8125 
Q 15.578125 40.375 12.03125 44.71875 
Q 8.5 49.078125 8.5 55.328125 
Q 8.5 64.0625 14.71875 69.140625 
Q 20.953125 74.21875 31.78125 74.21875 
Q 42.671875 74.21875 48.875 69.140625 
Q 55.078125 64.0625 55.078125 55.328125 
Q 55.078125 49.078125 51.53125 44.71875 
Q 48 40.375 41.703125 38.8125 
Q 48.828125 37.15625 52.796875 32.3125 
Q 56.78125 27.484375 56.78125 20.515625 
Q 56.78125 9.90625 50.3125 4.234375 
Q 43.84375 -1.421875 31.78125 -1.421875 
Q 19.734375 -1.421875 13.25 4.234375 
Q 6.78125 9.90625 6.78125 20.515625 
Q 6.78125 27.484375 10.78125 32.3125 
Q 14.796875 37.15625 21.921875 38.8125 
M 18.3125 54.390625 
Q 18.3125 48.734375 21.84375 45.5625 
Q 25.390625 42.390625 31.78125 42.390625 
Q 38.140625 42.390625 41.71875 45.5625 
Q 45.3125 48.734375 45.3125 54.390625 
Q 45.3125 60.0625 41.71875 63.234375 
Q 38.140625 66.40625 31.78125 66.40625 
Q 25.390625 66.40625 21.84375 63.234375 
Q 18.3125 60.0625 18.3125 54.390625 
" id="BitstreamVeraSans-Roman-38"/>
      </defs>
      <g style="fill:#555555;" transform="translate(7.2 59.4384375)scale(0.1 -0.1)">
       <use xlink:href="#BitstreamVeraSans-Roman-30"/>
       <use x="63.623046875" xlink:href="#BitstreamVeraSans-Roman-2e"/>
       <use x="95.41015625" xlink:href="#BitstreamVeraSans-Roman-38"/>
      </g>
     </g>
    </g>
    <g id="ytick_6">
     <g id="line2d_43">
      <path clip-path="url(#p56c1c72d8a)" d="M 31.103125 12.039062 
L 365.903125 12.039062 
" style="fill:none;stroke:#ffffff;stroke-linecap:square;stroke-width:0.5;"/>
     </g>
     <g id="line2d_44">
      <g>
       <use style="fill:#555555;stroke:#555555;stroke-width:0.5;" x="31.103125" xlink:href="#mc86b7fa9bc" y="12.0390625"/>
      </g>
     </g>
     <g id="line2d_45">
      <g>
       <use style="fill:#555555;stroke:#555555;stroke-width:0.5;" x="365.903125" xlink:href="#m906331a418" y="12.0390625"/>
      </g>
     </g>
     <g id="text_16">
      <!-- 1.0 -->
      <g style="fill:#555555;" transform="translate(7.2 14.7984375)scale(0.1 -0.1)">
       <use xlink:href="#BitstreamVeraSans-Roman-31"/>
       <use x="63.623046875" xlink:href="#BitstreamVeraSans-Roman-2e"/>
       <use x="95.41015625" xlink:href="#BitstreamVeraSans-Roman-30"/>
      </g>
     </g>
    </g>
   </g>
   <g id="line2d_46">
    <path clip-path="url(#p56c1c72d8a)" d="M 31.103125 235.239062 
L 31.91971 235.239062 
L 31.91971 235.239062 
L 31.91971 235.239062 
L 32.736296 235.239062 
L 32.736296 235.239062 
L 32.736296 235.239062 
L 33.552881 235.239062 
L 33.552881 235.239062 
L 33.552881 235.239062 
L 34.369466 235.239062 
L 34.369466 235.239062 
L 34.369466 235.239062 
L 35.186052 235.239062 
L 35.186052 235.239062 
L 35.186052 235.239062 
L 35.186052 234.979829 
L 35.186052 234.979829 
L 35.186052 234.979829 
L 35.186052 235.030269 
L 36.002637 235.038703 
L 36.002637 234.693341 
L 36.002637 234.733704 
L 36.819223 234.766515 
L 36.819223 234.609443 
L 36.819223 234.664545 
L 37.635808 234.668583 
L 37.635808 234.526419 
L 37.635808 234.606409 
L 40.902149 234.579822 
L 40.902149 234.405536 
L 40.902149 234.446324 
L 43.351905 234.558344 
L 43.351905 234.576092 
L 49.884588 234.688902 
L 49.884588 234.690525 
L 49.884588 234.690525 
L 49.884588 234.690525 
L 49.884588 234.635819 
L 49.884588 234.653096 
L 114.394832 234.775252 
L 114.394832 234.776767 
L 263.829954 234.891243 
L 263.829954 234.891789 
L 365.903125 234.902467 
L 365.903125 234.902467 
" style="fill:none;stroke:#e24a33;stroke-linecap:square;"/>
   </g>
   <g id="line2d_47">
    <path clip-path="url(#p56c1c72d8a)" d="M 31.103125 235.239062 
L 31.91971 235.239062 
L 31.91971 235.239062 
L 31.91971 235.239062 
L 32.736296 235.239062 
L 32.736296 235.239062 
L 32.736296 235.239062 
L 33.552881 235.239062 
L 33.552881 235.239062 
L 33.552881 235.239062 
L 34.369466 235.239062 
L 34.369466 235.239062 
L 34.369466 235.239062 
L 35.186052 235.239062 
L 35.186052 235.239062 
L 35.186052 235.239062 
L 35.186052 233.007062 
L 35.186052 233.007062 
L 35.186052 233.007062 
L 36.002637 233.007062 
L 36.002637 233.007062 
L 36.002637 233.007062 
L 36.002637 230.775062 
L 36.002637 230.775062 
L 36.002637 230.775062 
L 36.002637 228.543062 
L 36.002637 228.543062 
L 36.002637 228.543062 
L 36.819223 228.543062 
L 36.819223 228.543062 
L 36.819223 228.543062 
L 36.819223 226.311062 
L 36.819223 226.311062 
L 36.819223 226.311062 
L 37.635808 226.311062 
L 37.635808 226.311062 
L 37.635808 226.311062 
L 37.635808 224.079062 
L 37.635808 224.079062 
L 37.635808 224.079062 
L 38.452393 224.079062 
L 38.452393 224.079062 
L 38.452393 224.079062 
L 39.268979 224.079062 
L 39.268979 224.079062 
L 39.268979 224.079062 
L 39.268979 221.847062 
L 39.268979 221.847062 
L 39.268979 221.847062 
L 40.085564 221.847062 
L 40.085564 221.847062 
L 40.085564 221.847062 
L 40.085564 219.615062 
L 40.085564 219.615062 
L 40.085564 219.615062 
L 40.902149 219.615062 
L 40.902149 219.615062 
L 40.902149 219.615062 
L 40.902149 217.383062 
L 40.902149 217.383062 
L 40.902149 217.383062 
L 40.902149 215.151062 
L 40.902149 215.151062 
L 40.902149 215.151062 
L 41.718735 215.151062 
L 41.718735 215.151062 
L 41.718735 215.151062 
L 42.53532 215.151062 
L 42.53532 215.151062 
L 42.53532 215.151062 
L 43.351905 215.151062 
L 43.351905 215.151062 
L 43.351905 215.151062 
L 44.168491 215.151062 
L 44.168491 215.151062 
L 44.168491 215.151062 
L 44.168491 212.919062 
L 44.168491 212.919062 
L 44.168491 212.919062 
L 44.985076 212.919062 
L 44.985076 212.919062 
L 44.985076 212.919062 
L 45.801662 212.919062 
L 45.801662 212.919062 
L 45.801662 212.919062 
L 46.618247 212.919062 
L 46.618247 212.919062 
L 46.618247 212.919062 
L 47.434832 212.919062 
L 47.434832 212.919062 
L 47.434832 212.919062 
L 48.251418 212.919062 
L 48.251418 212.919062 
L 48.251418 212.919062 
L 49.068003 212.919062 
L 49.068003 212.919062 
L 49.068003 212.919062 
L 49.884588 212.919062 
L 49.884588 212.919062 
L 49.884588 212.919062 
L 49.884588 210.687062 
L 49.884588 210.687062 
L 49.884588 210.687062 
L 50.701174 210.687062 
L 50.701174 210.687062 
L 50.701174 210.687062 
L 51.517759 210.687062 
L 51.517759 210.687062 
L 51.517759 210.687062 
L 52.334345 210.687062 
L 52.334345 210.687062 
L 52.334345 210.687062 
L 52.334345 208.455062 
L 52.334345 208.455062 
L 52.334345 208.455062 
L 53.15093 208.455062 
L 53.15093 208.455062 
L 53.15093 208.455062 
L 53.15093 206.223062 
L 53.15093 206.223062 
L 53.15093 206.223062 
L 53.967515 206.223062 
L 53.967515 206.223062 
L 53.967515 206.223062 
L 54.784101 206.223062 
L 54.784101 206.223062 
L 54.784101 206.223062 
L 55.600686 206.223062 
L 55.600686 206.223062 
L 55.600686 206.223062 
L 56.417271 206.223062 
L 56.417271 206.223062 
L 56.417271 206.223062 
L 56.417271 203.991062 
L 56.417271 203.991062 
L 56.417271 203.991062 
L 57.233857 203.991062 
L 57.233857 203.991062 
L 57.233857 203.991062 
L 58.050442 203.991062 
L 58.050442 203.991062 
L 58.050442 203.991062 
L 58.867027 203.991062 
L 58.867027 203.991062 
L 58.867027 203.991062 
L 59.683613 203.991062 
L 59.683613 203.991062 
L 59.683613 203.991062 
L 60.500198 201.759062 
L 60.500198 201.759062 
L 60.500198 201.759062 
L 61.316784 201.759062 
L 61.316784 201.759062 
L 61.316784 201.759062 
L 62.133369 201.759062 
L 62.133369 201.759062 
L 62.133369 201.759062 
L 62.133369 199.527062 
L 62.133369 199.527062 
L 62.133369 199.527062 
L 62.133369 197.295062 
L 62.133369 197.295062 
L 62.133369 197.295062 
L 62.949954 197.295062 
L 62.949954 197.295062 
L 62.949954 197.295062 
L 63.76654 197.295062 
L 63.76654 197.295062 
L 63.76654 197.295062 
L 64.583125 197.295062 
L 64.583125 197.295062 
L 64.583125 197.295062 
L 64.583125 195.063063 
L 64.583125 195.063063 
L 64.583125 195.063063 
L 65.39971 195.063063 
L 65.39971 195.063063 
L 65.39971 195.063063 
L 66.216296 195.063063 
L 66.216296 195.063063 
L 66.216296 195.063063 
L 67.032881 195.063063 
L 67.032881 195.063063 
L 67.032881 195.063063 
L 67.849466 195.063063 
L 67.849466 195.063063 
L 67.849466 195.063063 
L 67.849466 192.831062 
L 67.849466 192.831062 
L 67.849466 192.831062 
L 67.849466 190.599063 
L 67.849466 190.599063 
L 67.849466 190.599063 
L 67.849466 188.367063 
L 67.849466 188.367063 
L 67.849466 188.367063 
L 68.666052 188.367063 
L 68.666052 188.367063 
L 68.666052 188.367063 
L 68.666052 186.135063 
L 68.666052 186.135063 
L 68.666052 186.135063 
L 69.482637 186.135063 
L 69.482637 186.135063 
L 69.482637 186.135063 
L 70.299223 186.135063 
L 70.299223 186.135063 
L 70.299223 186.135063 
L 71.115808 186.135063 
L 71.115808 186.135063 
L 71.115808 186.135063 
L 71.932393 186.135063 
L 71.932393 186.135063 
L 71.932393 186.135063 
L 72.748979 186.135063 
L 72.748979 186.135063 
L 72.748979 186.135063 
L 73.565564 186.135063 
L 73.565564 186.135063 
L 73.565564 186.135063 
L 73.565564 183.903062 
L 73.565564 183.903062 
L 73.565564 183.903062 
L 74.382149 183.903062 
L 74.382149 183.903062 
L 74.382149 183.903062 
L 74.382149 181.671063 
L 74.382149 181.671063 
L 74.382149 181.671063 
L 75.198735 181.671063 
L 75.198735 181.671063 
L 75.198735 181.671063 
L 76.01532 181.671063 
L 76.01532 181.671063 
L 76.01532 181.671063 
L 76.01532 179.439062 
L 76.01532 179.439062 
L 76.01532 179.439062 
L 76.831905 179.439062 
L 76.831905 179.439062 
L 76.831905 179.439062 
L 77.648491 179.439062 
L 77.648491 179.439062 
L 77.648491 179.439062 
L 77.648491 177.207063 
L 77.648491 177.207063 
L 77.648491 177.207063 
L 78.465076 177.207063 
L 78.465076 177.207063 
L 78.465076 177.207063 
L 79.281662 177.207063 
L 79.281662 177.207063 
L 79.281662 177.207063 
L 80.098247 177.207063 
L 80.098247 177.207063 
L 80.098247 177.207063 
L 80.914832 177.207063 
L 80.914832 177.207063 
L 80.914832 177.207063 
L 80.914832 174.975062 
L 80.914832 174.975062 
L 80.914832 174.975062 
L 81.731418 174.975062 
L 81.731418 174.975062 
L 81.731418 174.975062 
L 81.731418 172.743062 
L 81.731418 172.743062 
L 81.731418 172.743062 
L 81.731418 170.511062 
L 81.731418 170.511062 
L 81.731418 170.511062 
L 82.548003 170.511062 
L 82.548003 170.511062 
L 82.548003 170.511062 
L 83.364588 170.511062 
L 83.364588 170.511062 
L 83.364588 170.511062 
L 83.364588 168.279063 
L 83.364588 168.279063 
L 83.364588 168.279063 
L 83.364588 166.047062 
L 83.364588 166.047062 
L 83.364588 166.047062 
L 84.181174 166.047062 
L 84.181174 166.047062 
L 84.181174 166.047062 
L 84.181174 163.815063 
L 84.181174 163.815063 
L 84.181174 163.815063 
L 84.997759 163.815063 
L 84.997759 163.815063 
L 84.997759 163.815063 
L 85.814345 163.815063 
L 85.814345 163.815063 
L 85.814345 163.815063 
L 86.63093 163.815063 
L 86.63093 163.815063 
L 86.63093 163.815063 
L 86.63093 161.583062 
L 86.63093 161.583062 
L 86.63093 161.583062 
L 87.447515 161.583062 
L 87.447515 161.583062 
L 87.447515 161.583062 
L 88.264101 161.583062 
L 88.264101 161.583062 
L 88.264101 161.583062 
L 89.080686 161.583062 
L 89.080686 161.583062 
L 89.080686 161.583062 
L 89.897271 161.583062 
L 89.897271 161.583062 
L 89.897271 161.583062 
L 89.897271 159.351062 
L 89.897271 159.351062 
L 89.897271 159.351062 
L 90.713857 159.351062 
L 90.713857 159.351062 
L 90.713857 159.351062 
L 90.713857 157.119062 
L 90.713857 157.119062 
L 90.713857 157.119062 
L 90.713857 154.887063 
L 90.713857 154.887063 
L 90.713857 154.887063 
L 91.530442 154.887063 
L 91.530442 154.887063 
L 91.530442 154.887063 
L 92.347027 154.887063 
L 92.347027 154.887063 
L 92.347027 154.887063 
L 93.163613 154.887063 
L 93.163613 154.887063 
L 93.163613 154.887063 
L 93.980198 154.887063 
L 93.980198 154.887063 
L 93.980198 154.887063 
L 94.796784 154.887063 
L 94.796784 154.887063 
L 94.796784 154.887063 
L 94.796784 152.655062 
L 94.796784 152.655062 
L 94.796784 152.655062 
L 95.613369 152.655062 
L 95.613369 152.655062 
L 95.613369 152.655062 
L 95.613369 150.423062 
L 95.613369 150.423062 
L 95.613369 150.423062 
L 95.613369 148.191062 
L 95.613369 148.191062 
L 95.613369 148.191062 
L 96.429954 148.191062 
L 96.429954 148.191062 
L 96.429954 148.191062 
L 97.24654 148.191062 
L 97.24654 148.191062 
L 97.24654 148.191062 
L 97.24654 145.959062 
L 97.24654 145.959062 
L 97.24654 145.959062 
L 97.24654 143.727062 
L 97.24654 143.727062 
L 97.24654 143.727062 
L 98.063125 143.727062 
L 98.063125 143.727062 
L 98.063125 143.727062 
L 98.87971 143.727062 
L 98.87971 143.727062 
L 98.87971 143.727062 
L 99.696296 143.727062 
L 99.696296 143.727062 
L 99.696296 143.727062 
L 100.512881 143.727062 
L 100.512881 143.727062 
L 100.512881 143.727062 
L 100.512881 141.495063 
L 100.512881 141.495063 
L 100.512881 141.495063 
L 100.512881 139.263062 
L 100.512881 139.263062 
L 100.512881 139.263062 
L 100.512881 137.031062 
L 100.512881 137.031062 
L 100.512881 137.031062 
L 101.329466 137.031062 
L 101.329466 137.031062 
L 101.329466 137.031062 
L 101.329466 134.799062 
L 101.329466 134.799062 
L 101.329466 134.799062 
L 101.329466 132.567062 
L 101.329466 132.567062 
L 101.329466 132.567062 
L 102.146052 132.567062 
L 102.146052 132.567062 
L 102.146052 132.567062 
L 102.962637 132.567062 
L 102.962637 132.567062 
L 102.962637 132.567062 
L 102.962637 130.335062 
L 102.962637 130.335062 
L 102.962637 130.335062 
L 103.779223 130.335062 
L 103.779223 130.335062 
L 103.779223 130.335062 
L 103.779223 128.103062 
L 103.779223 128.103062 
L 103.779223 128.103062 
L 104.595808 128.103062 
L 104.595808 128.103062 
L 104.595808 128.103062 
L 105.412393 128.103062 
L 105.412393 128.103062 
L 105.412393 128.103062 
L 105.412393 125.871062 
L 105.412393 125.871062 
L 105.412393 125.871062 
L 106.228979 125.871062 
L 106.228979 125.871062 
L 106.228979 125.871062 
L 107.045564 125.871062 
L 107.045564 125.871062 
L 107.045564 125.871062 
L 107.862149 125.871062 
L 107.862149 125.871062 
L 107.862149 125.871062 
L 107.862149 123.639062 
L 107.862149 123.639062 
L 107.862149 123.639062 
L 108.678735 123.639062 
L 108.678735 123.639062 
L 108.678735 123.639062 
L 108.678735 121.407062 
L 108.678735 121.407062 
L 108.678735 121.407062 
L 109.49532 121.407062 
L 109.49532 121.407062 
L 109.49532 121.407062 
L 109.49532 119.175062 
L 109.49532 119.175062 
L 109.49532 119.175062 
L 110.311905 119.175062 
L 110.311905 119.175062 
L 110.311905 119.175062 
L 111.128491 119.175062 
L 111.128491 119.175062 
L 111.128491 119.175062 
L 111.945076 119.175062 
L 111.945076 119.175062 
L 111.945076 119.175062 
L 112.761662 119.175062 
L 112.761662 119.175062 
L 112.761662 119.175062 
L 113.578247 119.175062 
L 113.578247 119.175062 
L 113.578247 119.175062 
L 114.394832 119.175062 
L 114.394832 119.175062 
L 114.394832 119.175062 
L 115.211418 119.175062 
L 115.211418 119.175062 
L 115.211418 119.175062 
L 116.028003 119.175062 
L 116.028003 119.175062 
L 116.028003 119.175062 
L 116.844588 119.175062 
L 116.844588 119.175062 
L 116.844588 119.175062 
L 117.661174 119.175062 
L 117.661174 119.175062 
L 117.661174 119.175062 
L 117.661174 116.943062 
L 117.661174 116.943062 
L 117.661174 116.943062 
L 118.477759 116.943062 
L 118.477759 116.943062 
L 118.477759 116.943062 
L 119.294345 116.943062 
L 119.294345 116.943062 
L 119.294345 116.943062 
L 120.11093 116.943062 
L 120.11093 116.943062 
L 120.11093 116.943062 
L 120.927515 116.943062 
L 120.927515 116.943062 
L 120.927515 116.943062 
L 121.744101 116.943062 
L 121.744101 116.943062 
L 121.744101 116.943062 
L 122.560686 116.943062 
L 122.560686 116.943062 
L 122.560686 116.943062 
L 123.377271 116.943062 
L 123.377271 116.943062 
L 123.377271 116.943062 
L 124.193857 116.943062 
L 124.193857 116.943062 
L 124.193857 116.943062 
L 124.193857 114.711062 
L 124.193857 114.711062 
L 124.193857 114.711062 
L 125.010442 114.711062 
L 125.010442 114.711062 
L 125.010442 114.711062 
L 125.827027 114.711062 
L 125.827027 114.711062 
L 125.827027 114.711062 
L 126.643613 114.711062 
L 126.643613 114.711062 
L 126.643613 114.711062 
L 127.460198 114.711062 
L 127.460198 114.711062 
L 127.460198 114.711062 
L 127.460198 112.479062 
L 127.460198 112.479062 
L 127.460198 112.479062 
L 128.276784 112.479062 
L 128.276784 112.479062 
L 128.276784 112.479062 
L 129.093369 112.479062 
L 129.093369 112.479062 
L 129.093369 112.479062 
L 129.909954 112.479062 
L 129.909954 112.479062 
L 129.909954 112.479062 
L 129.909954 110.247062 
L 129.909954 110.247062 
L 129.909954 110.247062 
L 129.909954 108.015062 
L 129.909954 108.015062 
L 129.909954 108.015062 
L 129.909954 105.783062 
L 129.909954 105.783062 
L 129.909954 105.783062 
L 130.72654 105.783062 
L 130.72654 105.783062 
L 130.72654 105.783062 
L 131.543125 103.551063 
L 131.543125 103.551063 
L 131.543125 103.551063 
L 132.35971 103.551063 
L 132.35971 103.551063 
L 132.35971 103.551063 
L 133.176296 103.551063 
L 133.176296 103.551063 
L 133.176296 103.551063 
L 133.992881 103.551063 
L 133.992881 103.551063 
L 133.992881 103.551063 
L 134.809466 103.551063 
L 134.809466 103.551063 
L 134.809466 103.551063 
L 135.626052 103.551063 
L 135.626052 103.551063 
L 135.626052 103.551063 
L 135.626052 101.319063 
L 135.626052 101.319063 
L 135.626052 101.319063 
L 136.442637 101.319063 
L 136.442637 101.319063 
L 136.442637 101.319063 
L 137.259223 101.319063 
L 137.259223 101.319063 
L 137.259223 101.319063 
L 137.259223 99.087063 
L 137.259223 99.087063 
L 137.259223 99.087063 
L 138.075808 99.087063 
L 138.075808 99.087063 
L 138.075808 99.087063 
L 138.075808 96.855063 
L 138.075808 96.855063 
L 138.075808 96.855063 
L 138.892393 96.855063 
L 138.892393 96.855063 
L 138.892393 96.855063 
L 138.892393 94.623063 
L 138.892393 94.623063 
L 138.892393 94.623063 
L 139.708979 94.623063 
L 139.708979 94.623063 
L 139.708979 94.623063 
L 139.708979 92.391063 
L 139.708979 92.391063 
L 139.708979 92.391063 
L 140.525564 92.391063 
L 140.525564 92.391063 
L 140.525564 92.391063 
L 141.342149 92.391063 
L 141.342149 92.391063 
L 141.342149 92.391063 
L 141.342149 90.159063 
L 141.342149 90.159063 
L 141.342149 90.159063 
L 142.158735 90.159063 
L 142.158735 90.159063 
L 142.158735 90.159063 
L 142.97532 90.159063 
L 142.97532 90.159063 
L 142.97532 90.159063 
L 142.97532 87.927062 
L 142.97532 87.927062 
L 142.97532 87.927062 
L 143.791905 87.927062 
L 143.791905 87.927062 
L 143.791905 87.927062 
L 144.608491 87.927062 
L 144.608491 87.927062 
L 144.608491 87.927062 
L 144.608491 85.695062 
L 144.608491 85.695062 
L 144.608491 85.695062 
L 144.608491 83.463062 
L 144.608491 83.463062 
L 144.608491 83.463062 
L 145.425076 83.463062 
L 145.425076 83.463062 
L 145.425076 83.463062 
L 145.425076 81.231063 
L 145.425076 81.231063 
L 145.425076 81.231063 
L 146.241662 81.231063 
L 146.241662 81.231063 
L 146.241662 81.231063 
L 146.241662 78.999063 
L 146.241662 78.999063 
L 146.241662 78.999063 
L 147.058247 78.999063 
L 147.058247 78.999063 
L 147.058247 78.999063 
L 147.874832 78.999063 
L 147.874832 78.999063 
L 147.874832 78.999063 
L 148.691418 78.999063 
L 148.691418 78.999063 
L 148.691418 78.999063 
L 148.691418 76.767063 
L 148.691418 76.767063 
L 148.691418 76.767063 
L 148.691418 74.535063 
L 148.691418 74.535063 
L 148.691418 74.535063 
L 149.508003 74.535063 
L 149.508003 74.535063 
L 149.508003 74.535063 
L 150.324588 74.535063 
L 150.324588 74.535063 
L 150.324588 74.535063 
L 150.324588 72.303063 
L 150.324588 72.303063 
L 150.324588 72.303063 
L 151.141174 72.303063 
L 151.141174 72.303063 
L 151.141174 72.303063 
L 151.141174 70.071063 
L 151.141174 70.071063 
L 151.141174 70.071063 
L 151.141174 67.839063 
L 151.141174 67.839063 
L 151.141174 67.839063 
L 151.957759 67.839063 
L 151.957759 67.839063 
L 151.957759 67.839063 
L 151.957759 65.607062 
L 151.957759 65.607062 
L 151.957759 65.607062 
L 152.774345 65.607062 
L 152.774345 65.607062 
L 152.774345 65.607062 
L 153.59093 65.607062 
L 153.59093 65.607062 
L 153.59093 65.607062 
L 153.59093 63.375062 
L 153.59093 63.375062 
L 153.59093 63.375062 
L 154.407515 63.375062 
L 154.407515 63.375062 
L 154.407515 63.375062 
L 154.407515 61.143062 
L 154.407515 61.143062 
L 154.407515 61.143062 
L 155.224101 61.143062 
L 155.224101 61.143062 
L 155.224101 61.143062 
L 156.040686 61.143062 
L 156.040686 61.143062 
L 156.040686 61.143062 
L 156.040686 58.911062 
L 156.040686 58.911062 
L 156.040686 58.911062 
L 156.857271 58.911062 
L 156.857271 58.911062 
L 156.857271 58.911062 
L 157.673857 58.911062 
L 157.673857 58.911062 
L 157.673857 58.911062 
L 158.490442 58.911062 
L 158.490442 58.911062 
L 158.490442 58.911062 
L 159.307027 58.911062 
L 159.307027 58.911062 
L 159.307027 58.911062 
L 159.307027 56.679062 
L 159.307027 56.679062 
L 159.307027 56.679062 
L 160.123613 56.679062 
L 160.123613 56.679062 
L 160.123613 56.679062 
L 160.940198 56.679062 
L 160.940198 56.679062 
L 160.940198 56.679062 
L 161.756784 56.679062 
L 161.756784 56.679062 
L 161.756784 56.679062 
L 162.573369 56.679062 
L 162.573369 56.679062 
L 162.573369 56.679062 
L 162.573369 54.447062 
L 162.573369 54.447062 
L 162.573369 54.447062 
L 163.389954 54.447062 
L 163.389954 54.447062 
L 163.389954 54.447062 
L 164.20654 54.447062 
L 164.20654 54.447062 
L 164.20654 54.447062 
L 165.023125 54.447062 
L 165.023125 54.447062 
L 165.023125 54.447062 
L 165.023125 52.215063 
L 165.023125 52.215063 
L 165.023125 52.215063 
L 165.83971 52.215063 
L 165.83971 52.215063 
L 165.83971 52.215063 
L 166.656296 52.215063 
L 166.656296 52.215063 
L 166.656296 52.215063 
L 167.472881 52.215063 
L 167.472881 52.215063 
L 167.472881 52.215063 
L 168.289466 52.215063 
L 168.289466 52.215063 
L 168.289466 52.215063 
L 169.106052 52.215063 
L 169.106052 52.215063 
L 169.106052 52.215063 
L 169.922637 52.215063 
L 169.922637 52.215063 
L 169.922637 52.215063 
L 170.739223 52.215063 
L 170.739223 52.215063 
L 170.739223 52.215063 
L 171.555808 52.215063 
L 171.555808 52.215063 
L 171.555808 52.215063 
L 172.372393 52.215063 
L 172.372393 52.215063 
L 172.372393 52.215063 
L 173.188979 52.215063 
L 173.188979 52.215063 
L 173.188979 52.215063 
L 174.005564 52.215063 
L 174.005564 52.215063 
L 174.005564 52.215063 
L 174.005564 49.983063 
L 174.005564 49.983063 
L 174.005564 49.983063 
L 174.822149 49.983063 
L 174.822149 49.983063 
L 174.822149 49.983063 
L 175.638735 49.983063 
L 175.638735 49.983063 
L 175.638735 49.983063 
L 176.45532 49.983063 
L 176.45532 49.983063 
L 176.45532 49.983063 
L 176.45532 47.751063 
L 176.45532 47.751063 
L 176.45532 47.751063 
L 177.271905 47.751063 
L 177.271905 47.751063 
L 177.271905 47.751063 
L 178.088491 47.751063 
L 178.088491 47.751063 
L 178.088491 47.751063 
L 178.905076 47.751063 
L 178.905076 47.751063 
L 178.905076 47.751063 
L 178.905076 45.519062 
L 178.905076 45.519062 
L 178.905076 45.519062 
L 179.721662 45.519062 
L 179.721662 45.519062 
L 179.721662 45.519062 
L 179.721662 43.287062 
L 179.721662 43.287062 
L 179.721662 43.287062 
L 180.538247 43.287062 
L 180.538247 43.287062 
L 180.538247 43.287062 
L 181.354832 43.287062 
L 181.354832 43.287062 
L 181.354832 43.287062 
L 182.171418 43.287062 
L 182.171418 43.287062 
L 182.171418 43.287062 
L 182.988003 43.287062 
L 182.988003 43.287062 
L 182.988003 43.287062 
L 183.804588 43.287062 
L 183.804588 43.287062 
L 183.804588 43.287062 
L 183.804588 41.055062 
L 183.804588 41.055062 
L 183.804588 41.055062 
L 184.621174 41.055062 
L 184.621174 41.055062 
L 184.621174 41.055062 
L 185.437759 41.055062 
L 185.437759 41.055062 
L 185.437759 41.055062 
L 186.254345 41.055062 
L 186.254345 41.055062 
L 186.254345 41.055062 
L 187.07093 41.055062 
L 187.07093 41.055062 
L 187.07093 41.055062 
L 187.07093 38.823062 
L 187.07093 38.823062 
L 187.07093 38.823062 
L 187.887515 38.823062 
L 187.887515 38.823062 
L 187.887515 38.823062 
L 188.704101 38.823062 
L 188.704101 38.823062 
L 188.704101 38.823062 
L 189.520686 38.823062 
L 189.520686 38.823062 
L 189.520686 38.823062 
L 190.337271 38.823062 
L 190.337271 38.823062 
L 190.337271 38.823062 
L 190.337271 36.591062 
L 190.337271 36.591062 
L 190.337271 36.591062 
L 191.153857 36.591062 
L 191.153857 36.591062 
L 191.153857 36.591062 
L 191.153857 34.359062 
L 191.153857 34.359062 
L 191.153857 34.359062 
L 191.970442 34.359062 
L 191.970442 34.359062 
L 191.970442 34.359062 
L 192.787027 34.359062 
L 192.787027 34.359062 
L 192.787027 34.359062 
L 193.603613 34.359062 
L 193.603613 34.359062 
L 193.603613 34.359062 
L 194.420198 34.359062 
L 194.420198 34.359062 
L 194.420198 34.359062 
L 195.236784 34.359062 
L 195.236784 34.359062 
L 195.236784 34.359062 
L 196.053369 34.359062 
L 196.053369 34.359062 
L 196.053369 34.359062 
L 196.869954 34.359062 
L 196.869954 34.359062 
L 196.869954 34.359062 
L 197.68654 34.359062 
L 197.68654 34.359062 
L 197.68654 34.359062 
L 197.68654 32.127062 
L 197.68654 32.127062 
L 197.68654 32.127062 
L 198.503125 32.127062 
L 198.503125 32.127062 
L 198.503125 32.127062 
L 199.31971 32.127062 
L 199.31971 32.127062 
L 199.31971 32.127062 
L 200.136296 32.127062 
L 200.136296 32.127062 
L 200.136296 32.127062 
L 200.952881 32.127062 
L 200.952881 32.127062 
L 200.952881 32.127062 
L 201.769466 32.127062 
L 201.769466 32.127062 
L 201.769466 32.127062 
L 202.586052 32.127062 
L 202.586052 32.127062 
L 202.586052 32.127062 
L 203.402637 32.127062 
L 203.402637 32.127062 
L 203.402637 32.127062 
L 204.219223 32.127062 
L 204.219223 32.127062 
L 204.219223 32.127062 
L 205.035808 32.127062 
L 205.035808 32.127062 
L 205.035808 32.127062 
L 205.035808 29.895062 
L 205.035808 29.895062 
L 205.035808 29.895062 
L 205.852393 29.895062 
L 205.852393 29.895062 
L 205.852393 29.895062 
L 206.668979 29.895062 
L 206.668979 29.895062 
L 206.668979 29.895062 
L 207.485564 29.895062 
L 207.485564 29.895062 
L 207.485564 29.895062 
L 208.302149 29.895062 
L 208.302149 29.895062 
L 208.302149 29.895062 
L 209.118735 29.895062 
L 209.118735 29.895062 
L 209.118735 29.895062 
L 209.93532 29.895062 
L 209.93532 29.895062 
L 209.93532 29.895062 
L 209.93532 27.663062 
L 209.93532 27.663062 
L 209.93532 27.663062 
L 210.751905 27.663062 
L 210.751905 27.663062 
L 210.751905 27.663062 
L 211.568491 27.663062 
L 211.568491 27.663062 
L 211.568491 27.663062 
L 212.385076 27.663062 
L 212.385076 27.663062 
L 212.385076 27.663062 
L 213.201662 27.663062 
L 213.201662 27.663062 
L 213.201662 27.663062 
L 214.018247 27.663062 
L 214.018247 27.663062 
L 214.018247 27.663062 
L 214.834832 27.663062 
L 214.834832 27.663062 
L 214.834832 27.663062 
L 215.651418 27.663062 
L 215.651418 27.663062 
L 215.651418 27.663062 
L 216.468003 27.663062 
L 216.468003 27.663062 
L 216.468003 27.663062 
L 217.284588 27.663062 
L 217.284588 27.663062 
L 217.284588 27.663062 
L 218.101174 27.663062 
L 218.101174 27.663062 
L 218.101174 27.663062 
L 218.917759 27.663062 
L 218.917759 27.663062 
L 218.917759 27.663062 
L 219.734345 27.663062 
L 219.734345 27.663062 
L 219.734345 27.663062 
L 220.55093 27.663062 
L 220.55093 27.663062 
L 220.55093 27.663062 
L 221.367515 27.663062 
L 221.367515 27.663062 
L 221.367515 27.663062 
L 222.184101 27.663062 
L 222.184101 27.663062 
L 222.184101 27.663062 
L 223.000686 27.663062 
L 223.000686 27.663062 
L 223.000686 27.663062 
L 223.000686 25.431063 
L 223.000686 25.431063 
L 223.000686 25.431063 
L 223.817271 25.431063 
L 223.817271 25.431063 
L 223.817271 25.431063 
L 224.633857 25.431063 
L 224.633857 25.431063 
L 224.633857 25.431063 
L 225.450442 25.431063 
L 225.450442 25.431063 
L 225.450442 25.431063 
L 226.267027 25.431063 
L 226.267027 25.431063 
L 226.267027 25.431063 
L 227.083613 25.431063 
L 227.083613 25.431063 
L 227.083613 25.431063 
L 227.900198 25.431063 
L 227.900198 25.431063 
L 227.900198 25.431063 
L 228.716784 25.431063 
L 228.716784 25.431063 
L 228.716784 25.431063 
L 229.533369 25.431063 
L 229.533369 25.431063 
L 229.533369 25.431063 
L 229.533369 23.199062 
L 229.533369 23.199062 
L 229.533369 23.199062 
L 230.349954 23.199062 
L 230.349954 23.199062 
L 230.349954 23.199062 
L 231.16654 23.199062 
L 231.16654 23.199062 
L 231.16654 23.199062 
L 231.16654 20.967062 
L 231.16654 20.967062 
L 231.16654 20.967062 
L 231.983125 20.967062 
L 231.983125 20.967062 
L 231.983125 20.967062 
L 232.79971 20.967062 
L 232.79971 20.967062 
L 232.79971 20.967062 
L 233.616296 20.967062 
L 233.616296 20.967062 
L 233.616296 20.967062 
L 234.432881 20.967062 
L 234.432881 20.967062 
L 234.432881 20.967062 
L 235.249466 20.967062 
L 235.249466 20.967062 
L 235.249466 20.967062 
L 236.066052 20.967062 
L 236.066052 20.967062 
L 236.066052 20.967062 
L 236.882637 20.967062 
L 236.882637 20.967062 
L 236.882637 20.967062 
L 237.699223 20.967062 
L 237.699223 20.967062 
L 237.699223 20.967062 
L 238.515808 20.967062 
L 238.515808 20.967062 
L 238.515808 20.967062 
L 239.332393 20.967062 
L 239.332393 20.967062 
L 239.332393 20.967062 
L 240.148979 20.967062 
L 240.148979 20.967062 
L 240.148979 20.967062 
L 240.965564 20.967062 
L 240.965564 20.967062 
L 240.965564 20.967062 
L 241.782149 20.967062 
L 241.782149 20.967062 
L 241.782149 20.967062 
L 242.598735 20.967062 
L 242.598735 20.967062 
L 242.598735 20.967062 
L 243.41532 20.967062 
L 243.41532 20.967062 
L 243.41532 20.967062 
L 244.231905 20.967062 
L 244.231905 20.967062 
L 244.231905 20.967062 
L 245.048491 20.967062 
L 245.048491 20.967062 
L 245.048491 20.967062 
L 245.865076 20.967062 
L 245.865076 20.967062 
L 245.865076 20.967062 
L 246.681662 20.967062 
L 246.681662 20.967062 
L 246.681662 20.967062 
L 247.498247 20.967062 
L 247.498247 20.967062 
L 247.498247 20.967062 
L 248.314832 20.967062 
L 248.314832 20.967062 
L 248.314832 20.967062 
L 249.131418 20.967062 
L 249.131418 20.967062 
L 249.131418 20.967062 
L 249.948003 20.967062 
L 249.948003 20.967062 
L 249.948003 20.967062 
L 250.764588 20.967062 
L 250.764588 20.967062 
L 250.764588 20.967062 
L 251.581174 20.967062 
L 251.581174 20.967062 
L 251.581174 20.967062 
L 252.397759 20.967062 
L 252.397759 20.967062 
L 252.397759 20.967062 
L 253.214345 20.967062 
L 253.214345 20.967062 
L 253.214345 20.967062 
L 254.03093 20.967062 
L 254.03093 20.967062 
L 254.03093 20.967062 
L 254.03093 18.735062 
L 254.03093 18.735062 
L 254.03093 18.735062 
L 254.847515 18.735062 
L 254.847515 18.735062 
L 254.847515 18.735062 
L 255.664101 18.735062 
L 255.664101 18.735062 
L 255.664101 18.735062 
L 256.480686 18.735062 
L 256.480686 18.735062 
L 256.480686 18.735062 
L 257.297271 18.735062 
L 257.297271 18.735062 
L 257.297271 18.735062 
L 258.113857 18.735062 
L 258.113857 18.735062 
L 258.113857 18.735062 
L 258.930442 18.735062 
L 258.930442 18.735062 
L 258.930442 18.735062 
L 259.747027 18.735062 
L 259.747027 18.735062 
L 259.747027 18.735062 
L 260.563613 18.735062 
L 260.563613 18.735062 
L 260.563613 18.735062 
L 261.380198 18.735062 
L 261.380198 18.735062 
L 261.380198 18.735062 
L 262.196784 18.735062 
L 262.196784 18.735062 
L 262.196784 18.735062 
L 263.013369 18.735062 
L 263.013369 18.735062 
L 263.013369 18.735062 
L 263.829954 18.735062 
L 263.829954 18.735062 
L 263.829954 18.735062 
L 264.64654 18.735062 
L 264.64654 18.735062 
L 264.64654 18.735062 
L 265.463125 18.735062 
L 265.463125 18.735062 
L 265.463125 18.735062 
L 266.27971 18.735062 
L 266.27971 18.735062 
L 266.27971 18.735062 
L 267.096296 18.735062 
L 267.096296 18.735062 
L 267.096296 18.735062 
L 267.912881 18.735062 
L 267.912881 18.735062 
L 267.912881 18.735062 
L 268.729466 18.735062 
L 268.729466 18.735062 
L 268.729466 18.735062 
L 269.546052 18.735062 
L 269.546052 18.735062 
L 269.546052 18.735062 
L 270.362637 18.735062 
L 270.362637 18.735062 
L 270.362637 18.735062 
L 271.179223 18.735062 
L 271.179223 18.735062 
L 271.179223 18.735062 
L 271.995808 18.735062 
L 271.995808 18.735062 
L 271.995808 18.735062 
L 272.812393 18.735062 
L 272.812393 18.735062 
L 272.812393 18.735062 
L 273.628979 18.735062 
L 273.628979 18.735062 
L 273.628979 18.735062 
L 274.445564 18.735062 
L 274.445564 18.735062 
L 274.445564 18.735062 
L 275.262149 18.735062 
L 275.262149 18.735062 
L 275.262149 18.735062 
L 276.078735 18.735062 
L 276.078735 18.735062 
L 276.078735 18.735062 
L 276.89532 18.735062 
L 276.89532 18.735062 
L 276.89532 18.735062 
L 276.89532 16.503062 
L 276.89532 16.503062 
L 276.89532 16.503062 
L 277.711905 16.503062 
L 277.711905 16.503062 
L 277.711905 16.503062 
L 278.528491 16.503062 
L 278.528491 16.503062 
L 278.528491 16.503062 
L 279.345076 16.503062 
L 279.345076 16.503062 
L 279.345076 16.503062 
L 280.161662 16.503062 
L 280.161662 16.503062 
L 280.161662 16.503062 
L 280.978247 16.503062 
L 280.978247 16.503062 
L 280.978247 16.503062 
L 281.794832 16.503062 
L 281.794832 16.503062 
L 281.794832 16.503062 
L 282.611418 16.503062 
L 282.611418 16.503062 
L 282.611418 16.503062 
L 283.428003 16.503062 
L 283.428003 16.503062 
L 283.428003 16.503062 
L 284.244588 16.503062 
L 284.244588 16.503062 
L 284.244588 16.503062 
L 285.061174 16.503062 
L 285.061174 16.503062 
L 285.061174 16.503062 
L 285.877759 16.503062 
L 285.877759 16.503062 
L 285.877759 16.503062 
L 286.694345 16.503062 
L 286.694345 16.503062 
L 286.694345 16.503062 
L 287.51093 16.503062 
L 287.51093 16.503062 
L 287.51093 16.503062 
L 288.327515 16.503062 
L 288.327515 16.503062 
L 288.327515 16.503062 
L 289.144101 16.503062 
L 289.144101 16.503062 
L 289.144101 16.503062 
L 289.960686 16.503062 
L 289.960686 16.503062 
L 289.960686 16.503062 
L 289.960686 14.271062 
L 289.960686 14.271062 
L 289.960686 14.271062 
L 290.777271 14.271062 
L 290.777271 14.271062 
L 290.777271 14.271062 
L 291.593857 14.271062 
L 291.593857 14.271062 
L 291.593857 14.271062 
L 292.410442 14.271062 
L 292.410442 14.271062 
L 292.410442 14.271062 
L 293.227027 14.271062 
L 293.227027 14.271062 
L 293.227027 14.271062 
L 294.043613 14.271062 
L 294.043613 14.271062 
L 294.043613 14.271062 
L 294.860198 14.271062 
L 294.860198 14.271062 
L 294.860198 14.271062 
L 295.676784 14.271062 
L 295.676784 14.271062 
L 295.676784 14.271062 
L 296.493369 14.271062 
L 296.493369 14.271062 
L 296.493369 14.271062 
L 297.309954 14.271062 
L 297.309954 14.271062 
L 297.309954 14.271062 
L 298.12654 14.271062 
L 298.12654 14.271062 
L 298.12654 14.271062 
L 298.943125 14.271062 
L 298.943125 14.271062 
L 298.943125 14.271062 
L 299.75971 14.271062 
L 299.75971 14.271062 
L 299.75971 14.271062 
L 300.576296 14.271062 
L 300.576296 14.271062 
L 300.576296 14.271062 
L 301.392881 14.271062 
L 301.392881 14.271062 
L 301.392881 14.271062 
L 302.209466 14.271062 
L 302.209466 14.271062 
L 302.209466 14.271062 
L 303.026052 14.271062 
L 303.026052 14.271062 
L 303.026052 14.271062 
L 303.842637 14.271062 
L 303.842637 14.271062 
L 303.842637 14.271062 
L 304.659223 14.271062 
L 304.659223 14.271062 
L 304.659223 14.271062 
L 305.475808 14.271062 
L 305.475808 14.271062 
L 305.475808 14.271062 
L 306.292393 14.271062 
L 306.292393 14.271062 
L 306.292393 14.271062 
L 307.108979 14.271062 
L 307.108979 14.271062 
L 307.108979 14.271062 
L 307.925564 14.271062 
L 307.925564 14.271062 
L 307.925564 14.271062 
L 308.742149 14.271062 
L 308.742149 14.271062 
L 308.742149 14.271062 
L 309.558735 14.271062 
L 309.558735 14.271062 
L 309.558735 14.271062 
L 310.37532 14.271062 
L 310.37532 14.271062 
L 310.37532 14.271062 
L 311.191905 14.271062 
L 311.191905 14.271062 
L 311.191905 14.271062 
L 312.008491 14.271062 
L 312.008491 14.271062 
L 312.008491 14.271062 
L 312.825076 14.271062 
L 312.825076 14.271062 
L 312.825076 14.271062 
L 313.641662 14.271062 
L 313.641662 14.271062 
L 313.641662 14.271062 
L 314.458247 14.271062 
L 314.458247 14.271062 
L 314.458247 14.271062 
L 315.274832 14.271062 
L 315.274832 14.271062 
L 315.274832 14.271062 
L 316.091418 14.271062 
L 316.091418 14.271062 
L 316.091418 14.271062 
L 316.908003 14.271062 
L 316.908003 14.271062 
L 316.908003 14.271062 
L 318.541174 14.271062 
L 318.541174 14.271062 
L 318.541174 14.271062 
L 319.357759 14.271062 
L 319.357759 12.039062 
L 319.357759 12.039062 
L 365.903125 12.039062 
L 365.903125 12.039062 
" style="fill:none;stroke:#348abd;stroke-linecap:square;"/>
   </g>
   <g id="line2d_48">
    <path clip-path="url(#p56c1c72d8a)" d="M 31.103125 235.239062 
L 31.91971 235.239062 
L 31.91971 235.239062 
L 31.91971 235.239062 
L 32.736296 235.239062 
L 32.736296 235.239062 
L 32.736296 235.239062 
L 33.552881 235.239062 
L 33.552881 235.239062 
L 33.552881 235.239062 
L 34.369466 235.239062 
L 34.369466 235.239062 
L 34.369466 235.239062 
L 35.186052 235.239062 
L 35.186052 235.239062 
L 35.186052 235.239062 
L 35.186052 234.774546 
L 35.186052 234.774546 
L 35.186052 234.774546 
L 35.186052 234.857198 
L 36.002637 234.871352 
L 36.002637 234.229869 
L 36.002637 234.299273 
L 36.819223 234.356268 
L 36.819223 234.062778 
L 36.819223 234.159498 
L 37.635808 234.16663 
L 37.635808 233.899327 
L 37.635808 234.041638 
L 38.452393 234.152931 
L 38.452393 234.162362 
L 39.268979 234.232297 
L 39.268979 234.031488 
L 39.268979 234.053405 
L 40.085564 234.113211 
L 40.085564 233.926121 
L 40.085564 233.959456 
L 40.902149 233.973961 
L 40.902149 233.638425 
L 40.902149 233.713778 
L 42.53532 233.825907 
L 42.53532 233.88588 
L 46.618247 233.999062 
L 46.618247 234.039062 
L 49.068003 234.151078 
L 49.068003 234.157667 
L 53.15093 234.133428 
L 53.15093 234.041539 
L 53.15093 234.046461 
L 56.417271 234.158392 
L 56.417271 234.171316 
L 56.417271 234.171316 
L 56.417271 234.171316 
L 56.417271 234.089394 
L 56.417271 234.095076 
L 59.683613 234.206924 
L 59.683613 234.211168 
L 61.316784 234.166673 
L 61.316784 234.176205 
L 61.316784 234.197532 
L 67.849466 234.200655 
L 67.849466 234.101013 
L 67.849466 234.044263 
L 67.849466 234.05288 
L 72.748979 234.164812 
L 72.748979 234.175745 
L 112.761662 234.29249 
L 112.761662 234.293107 
L 122.560686 234.40467 
L 122.560686 234.407924 
L 246.681662 234.523463 
L 246.681662 234.524882 
L 365.903125 234.566885 
L 365.903125 234.566885 
" style="fill:none;stroke:#988ed5;stroke-linecap:square;"/>
   </g>
   <g id="patch_3">
    <path d="M 31.103125 12.039062 
L 365.903125 12.039062 
" style="fill:none;stroke:#ffffff;stroke-linecap:square;stroke-linejoin:miter;"/>
   </g>
   <g id="patch_4">
    <path d="M 365.903125 235.239062 
L 365.903125 12.039062 
" style="fill:none;stroke:#ffffff;stroke-linecap:square;stroke-linejoin:miter;"/>
   </g>
   <g id="patch_5">
    <path d="M 31.103125 235.239062 
L 365.903125 235.239062 
" style="fill:none;stroke:#ffffff;stroke-linecap:square;stroke-linejoin:miter;"/>
   </g>
   <g id="patch_6">
    <path d="M 31.103125 235.239062 
L 31.103125 12.039062 
" style="fill:none;stroke:#ffffff;stroke-linecap:square;stroke-linejoin:miter;"/>
   </g>
   <g id="legend_1">
    <g id="patch_7">
     <path d="M 37.103125 74.480312 
L 134.69875 74.480312 
L 134.69875 18.039062 
L 37.103125 18.039062 
z
" style="fill:#e5e5e5;stroke:#ffffff;stroke-linejoin:miter;stroke-width:0.5;"/>
    </g>
    <g id="line2d_49">
     <path d="M 45.503125 27.757187 
L 62.303125 27.757187 
" style="fill:none;stroke:#e24a33;stroke-linecap:square;"/>
    </g>
    <g id="line2d_50"/>
    <g id="text_17">
     <!-- precision -->
     <defs>
      <path d="M 54.890625 33.015625 
L 54.890625 0 
L 45.90625 0 
L 45.90625 32.71875 
Q 45.90625 40.484375 42.875 44.328125 
Q 39.84375 48.1875 33.796875 48.1875 
Q 26.515625 48.1875 22.3125 43.546875 
Q 18.109375 38.921875 18.109375 30.90625 
L 18.109375 0 
L 9.078125 0 
L 9.078125 54.6875 
L 18.109375 54.6875 
L 18.109375 46.1875 
Q 21.34375 51.125 25.703125 53.5625 
Q 30.078125 56 35.796875 56 
Q 45.21875 56 50.046875 50.171875 
Q 54.890625 44.34375 54.890625 33.015625 
" id="BitstreamVeraSans-Roman-6e"/>
      <path d="M 30.609375 48.390625 
Q 23.390625 48.390625 19.1875 42.75 
Q 14.984375 37.109375 14.984375 27.296875 
Q 14.984375 17.484375 19.15625 11.84375 
Q 23.34375 6.203125 30.609375 6.203125 
Q 37.796875 6.203125 41.984375 11.859375 
Q 46.1875 17.53125 46.1875 27.296875 
Q 46.1875 37.015625 41.984375 42.703125 
Q 37.796875 48.390625 30.609375 48.390625 
M 30.609375 56 
Q 42.328125 56 49.015625 48.375 
Q 55.71875 40.765625 55.71875 27.296875 
Q 55.71875 13.875 49.015625 6.21875 
Q 42.328125 -1.421875 30.609375 -1.421875 
Q 18.84375 -1.421875 12.171875 6.21875 
Q 5.515625 13.875 5.515625 27.296875 
Q 5.515625 40.765625 12.171875 48.375 
Q 18.84375 56 30.609375 56 
" id="BitstreamVeraSans-Roman-6f"/>
      <path d="M 9.421875 54.6875 
L 18.40625 54.6875 
L 18.40625 0 
L 9.421875 0 
z
M 9.421875 75.984375 
L 18.40625 75.984375 
L 18.40625 64.59375 
L 9.421875 64.59375 
z
" id="BitstreamVeraSans-Roman-69"/>
      <path d="M 18.109375 8.203125 
L 18.109375 -20.796875 
L 9.078125 -20.796875 
L 9.078125 54.6875 
L 18.109375 54.6875 
L 18.109375 46.390625 
Q 20.953125 51.265625 25.265625 53.625 
Q 29.59375 56 35.59375 56 
Q 45.5625 56 51.78125 48.09375 
Q 58.015625 40.1875 58.015625 27.296875 
Q 58.015625 14.40625 51.78125 6.484375 
Q 45.5625 -1.421875 35.59375 -1.421875 
Q 29.59375 -1.421875 25.265625 0.953125 
Q 20.953125 3.328125 18.109375 8.203125 
M 48.6875 27.296875 
Q 48.6875 37.203125 44.609375 42.84375 
Q 40.53125 48.484375 33.40625 48.484375 
Q 26.265625 48.484375 22.1875 42.84375 
Q 18.109375 37.203125 18.109375 27.296875 
Q 18.109375 17.390625 22.1875 11.75 
Q 26.265625 6.109375 33.40625 6.109375 
Q 40.53125 6.109375 44.609375 11.75 
Q 48.6875 17.390625 48.6875 27.296875 
" id="BitstreamVeraSans-Roman-70"/>
      <path d="M 56.203125 29.59375 
L 56.203125 25.203125 
L 14.890625 25.203125 
Q 15.484375 15.921875 20.484375 11.0625 
Q 25.484375 6.203125 34.421875 6.203125 
Q 39.59375 6.203125 44.453125 7.46875 
Q 49.3125 8.734375 54.109375 11.28125 
L 54.109375 2.78125 
Q 49.265625 0.734375 44.1875 -0.34375 
Q 39.109375 -1.421875 33.890625 -1.421875 
Q 20.796875 -1.421875 13.15625 6.1875 
Q 5.515625 13.8125 5.515625 26.8125 
Q 5.515625 40.234375 12.765625 48.109375 
Q 20.015625 56 32.328125 56 
Q 43.359375 56 49.78125 48.890625 
Q 56.203125 41.796875 56.203125 29.59375 
M 47.21875 32.234375 
Q 47.125 39.59375 43.09375 43.984375 
Q 39.0625 48.390625 32.421875 48.390625 
Q 24.90625 48.390625 20.390625 44.140625 
Q 15.875 39.890625 15.1875 32.171875 
z
" id="BitstreamVeraSans-Roman-65"/>
      <path d="M 41.109375 46.296875 
Q 39.59375 47.171875 37.8125 47.578125 
Q 36.03125 48 33.890625 48 
Q 26.265625 48 22.1875 43.046875 
Q 18.109375 38.09375 18.109375 28.8125 
L 18.109375 0 
L 9.078125 0 
L 9.078125 54.6875 
L 18.109375 54.6875 
L 18.109375 46.1875 
Q 20.953125 51.171875 25.484375 53.578125 
Q 30.03125 56 36.53125 56 
Q 37.453125 56 38.578125 55.875 
Q 39.703125 55.765625 41.0625 55.515625 
z
" id="BitstreamVeraSans-Roman-72"/>
      <path d="M 44.28125 53.078125 
L 44.28125 44.578125 
Q 40.484375 46.53125 36.375 47.5 
Q 32.28125 48.484375 27.875 48.484375 
Q 21.1875 48.484375 17.84375 46.4375 
Q 14.5 44.390625 14.5 40.28125 
Q 14.5 37.15625 16.890625 35.375 
Q 19.28125 33.59375 26.515625 31.984375 
L 29.59375 31.296875 
Q 39.15625 29.25 43.1875 25.515625 
Q 47.21875 21.78125 47.21875 15.09375 
Q 47.21875 7.46875 41.1875 3.015625 
Q 35.15625 -1.421875 24.609375 -1.421875 
Q 20.21875 -1.421875 15.453125 -0.5625 
Q 10.6875 0.296875 5.421875 2 
L 5.421875 11.28125 
Q 10.40625 8.6875 15.234375 7.390625 
Q 20.0625 6.109375 24.8125 6.109375 
Q 31.15625 6.109375 34.5625 8.28125 
Q 37.984375 10.453125 37.984375 14.40625 
Q 37.984375 18.0625 35.515625 20.015625 
Q 33.0625 21.96875 24.703125 23.78125 
L 21.578125 24.515625 
Q 13.234375 26.265625 9.515625 29.90625 
Q 5.8125 33.546875 5.8125 39.890625 
Q 5.8125 47.609375 11.28125 51.796875 
Q 16.75 56 26.8125 56 
Q 31.78125 56 36.171875 55.265625 
Q 40.578125 54.546875 44.28125 53.078125 
" id="BitstreamVeraSans-Roman-73"/>
      <path d="M 48.78125 52.59375 
L 48.78125 44.1875 
Q 44.96875 46.296875 41.140625 47.34375 
Q 37.3125 48.390625 33.40625 48.390625 
Q 24.65625 48.390625 19.8125 42.84375 
Q 14.984375 37.3125 14.984375 27.296875 
Q 14.984375 17.28125 19.8125 11.734375 
Q 24.65625 6.203125 33.40625 6.203125 
Q 37.3125 6.203125 41.140625 7.25 
Q 44.96875 8.296875 48.78125 10.40625 
L 48.78125 2.09375 
Q 45.015625 0.34375 40.984375 -0.53125 
Q 36.96875 -1.421875 32.421875 -1.421875 
Q 20.0625 -1.421875 12.78125 6.34375 
Q 5.515625 14.109375 5.515625 27.296875 
Q 5.515625 40.671875 12.859375 48.328125 
Q 20.21875 56 33.015625 56 
Q 37.15625 56 41.109375 55.140625 
Q 45.0625 54.296875 48.78125 52.59375 
" id="BitstreamVeraSans-Roman-63"/>
     </defs>
     <g transform="translate(75.503125 31.9571875)scale(0.12 -0.12)">
      <use xlink:href="#BitstreamVeraSans-Roman-70"/>
      <use x="63.4765625" xlink:href="#BitstreamVeraSans-Roman-72"/>
      <use x="104.55859375" xlink:href="#BitstreamVeraSans-Roman-65"/>
      <use x="166.08203125" xlink:href="#BitstreamVeraSans-Roman-63"/>
      <use x="221.0625" xlink:href="#BitstreamVeraSans-Roman-69"/>
      <use x="248.845703125" xlink:href="#BitstreamVeraSans-Roman-73"/>
      <use x="300.9453125" xlink:href="#BitstreamVeraSans-Roman-69"/>
      <use x="328.728515625" xlink:href="#BitstreamVeraSans-Roman-6f"/>
      <use x="389.91015625" xlink:href="#BitstreamVeraSans-Roman-6e"/>
     </g>
    </g>
    <g id="line2d_51">
     <path d="M 45.503125 45.370937 
L 62.303125 45.370937 
" style="fill:none;stroke:#348abd;stroke-linecap:square;"/>
    </g>
    <g id="line2d_52"/>
    <g id="text_18">
     <!-- recall -->
     <defs>
      <path d="M 34.28125 27.484375 
Q 23.390625 27.484375 19.1875 25 
Q 14.984375 22.515625 14.984375 16.5 
Q 14.984375 11.71875 18.140625 8.90625 
Q 21.296875 6.109375 26.703125 6.109375 
Q 34.1875 6.109375 38.703125 11.40625 
Q 43.21875 16.703125 43.21875 25.484375 
L 43.21875 27.484375 
z
M 52.203125 31.203125 
L 52.203125 0 
L 43.21875 0 
L 43.21875 8.296875 
Q 40.140625 3.328125 35.546875 0.953125 
Q 30.953125 -1.421875 24.3125 -1.421875 
Q 15.921875 -1.421875 10.953125 3.296875 
Q 6 8.015625 6 15.921875 
Q 6 25.140625 12.171875 29.828125 
Q 18.359375 34.515625 30.609375 34.515625 
L 43.21875 34.515625 
L 43.21875 35.40625 
Q 43.21875 41.609375 39.140625 45 
Q 35.0625 48.390625 27.6875 48.390625 
Q 23 48.390625 18.546875 47.265625 
Q 14.109375 46.140625 10.015625 43.890625 
L 10.015625 52.203125 
Q 14.9375 54.109375 19.578125 55.046875 
Q 24.21875 56 28.609375 56 
Q 40.484375 56 46.34375 49.84375 
Q 52.203125 43.703125 52.203125 31.203125 
" id="BitstreamVeraSans-Roman-61"/>
      <path d="M 9.421875 75.984375 
L 18.40625 75.984375 
L 18.40625 0 
L 9.421875 0 
z
" id="BitstreamVeraSans-Roman-6c"/>
     </defs>
     <g transform="translate(75.503125 49.5709375)scale(0.12 -0.12)">
      <use xlink:href="#BitstreamVeraSans-Roman-72"/>
      <use x="41.08203125" xlink:href="#BitstreamVeraSans-Roman-65"/>
      <use x="102.60546875" xlink:href="#BitstreamVeraSans-Roman-63"/>
      <use x="157.5859375" xlink:href="#BitstreamVeraSans-Roman-61"/>
      <use x="218.865234375" xlink:href="#BitstreamVeraSans-Roman-6c"/>
      <use x="246.6484375" xlink:href="#BitstreamVeraSans-Roman-6c"/>
     </g>
    </g>
    <g id="line2d_53">
     <path d="M 45.503125 62.984687 
L 62.303125 62.984687 
" style="fill:none;stroke:#988ed5;stroke-linecap:square;"/>
    </g>
    <g id="line2d_54"/>
    <g id="text_19">
     <!-- f1 -->
     <defs>
      <path d="M 37.109375 75.984375 
L 37.109375 68.5 
L 28.515625 68.5 
Q 23.6875 68.5 21.796875 66.546875 
Q 19.921875 64.59375 19.921875 59.515625 
L 19.921875 54.6875 
L 34.71875 54.6875 
L 34.71875 47.703125 
L 19.921875 47.703125 
L 19.921875 0 
L 10.890625 0 
L 10.890625 47.703125 
L 2.296875 47.703125 
L 2.296875 54.6875 
L 10.890625 54.6875 
L 10.890625 58.5 
Q 10.890625 67.625 15.140625 71.796875 
Q 19.390625 75.984375 28.609375 75.984375 
z
" id="BitstreamVeraSans-Roman-66"/>
     </defs>
     <g transform="translate(75.503125 67.1846875)scale(0.12 -0.12)">
      <use xlink:href="#BitstreamVeraSans-Roman-66"/>
      <use x="35.205078125" xlink:href="#BitstreamVeraSans-Roman-31"/>
     </g>
    </g>
   </g>
  </g>
 </g>
 <defs>
  <clipPath id="p56c1c72d8a">
   <rect height="223.2" width="334.8" x="31.103125" y="12.0390625"/>
  </clipPath>
 </defs>
</svg>
