<?xml version="1.0" encoding="utf-8" standalone="no"?>
<!DOCTYPE svg PUBLIC "-//W3C//DTD SVG 1.1//EN"
  "http://www.w3.org/Graphics/SVG/1.1/DTD/svg11.dtd">
<!-- Created with matplotlib (http://matplotlib.org/) -->
<svg height="276pt" version="1.1" viewBox="0 0 373 276" width="373pt" xmlns="http://www.w3.org/2000/svg" xmlns:xlink="http://www.w3.org/1999/xlink">
 <defs>
  <style type="text/css">
*{stroke-linecap:butt;stroke-linejoin:round;stroke-miterlimit:100000;}
  </style>
 </defs>
 <g id="figure_1">
  <g id="patch_1">
   <path d="M 0 276.730937 
L 373.103125 276.730937 
L 373.103125 0 
L 0 0 
L 0 276.730937 
z
" style="fill:none;"/>
  </g>
  <g id="axes_1">
   <g id="patch_2">
    <path d="M 31.103125 235.239062 
L 365.903125 235.239062 
L 365.903125 12.039062 
L 31.103125 12.039062 
z
" style="fill:#e5e5e5;"/>
   </g>
   <g id="matplotlib.axis_1">
    <g id="xtick_1">
     <g id="line2d_1">
      <path clip-path="url(#pc92e60d0ce)" d="M 31.103125 235.239062 
L 31.103125 12.039062 
" style="fill:none;stroke:#ffffff;stroke-linecap:square;stroke-width:0.5;"/>
     </g>
     <g id="line2d_2">
      <defs>
       <path d="M 0 0 
L 0 4 
" id="m35282dde63" style="stroke:#555555;stroke-width:0.5;"/>
      </defs>
      <g>
       <use style="fill:#555555;stroke:#555555;stroke-width:0.5;" x="31.103125" xlink:href="#m35282dde63" y="235.2390625"/>
      </g>
     </g>
     <g id="line2d_3">
      <defs>
       <path d="M 0 0 
L 0 -4 
" id="mc979914948" style="stroke:#555555;stroke-width:0.5;"/>
      </defs>
      <g>
       <use style="fill:#555555;stroke:#555555;stroke-width:0.5;" x="31.103125" xlink:href="#mc979914948" y="12.0390625"/>
      </g>
     </g>
     <g id="text_1">
      <!-- 0 -->
      <defs>
       <path d="M 31.78125 66.40625 
Q 24.171875 66.40625 20.328125 58.90625 
Q 16.5 51.421875 16.5 36.375 
Q 16.5 21.390625 20.328125 13.890625 
Q 24.171875 6.390625 31.78125 6.390625 
Q 39.453125 6.390625 43.28125 13.890625 
Q 47.125 21.390625 47.125 36.375 
Q 47.125 51.421875 43.28125 58.90625 
Q 39.453125 66.40625 31.78125 66.40625 
M 31.78125 74.21875 
Q 44.046875 74.21875 50.515625 64.515625 
Q 56.984375 54.828125 56.984375 36.375 
Q 56.984375 17.96875 50.515625 8.265625 
Q 44.046875 -1.421875 31.78125 -1.421875 
Q 19.53125 -1.421875 13.0625 8.265625 
Q 6.59375 17.96875 6.59375 36.375 
Q 6.59375 54.828125 13.0625 64.515625 
Q 19.53125 74.21875 31.78125 74.21875 
" id="BitstreamVeraSans-Roman-30"/>
      </defs>
      <g style="fill:#555555;" transform="translate(27.921875 250.8375)scale(0.1 -0.1)">
       <use xlink:href="#BitstreamVeraSans-Roman-30"/>
      </g>
     </g>
    </g>
    <g id="xtick_2">
     <g id="line2d_4">
      <path clip-path="url(#pc92e60d0ce)" d="M 70.124104 235.239062 
L 70.124104 12.039062 
" style="fill:none;stroke:#ffffff;stroke-linecap:square;stroke-width:0.5;"/>
     </g>
     <g id="line2d_5">
      <g>
       <use style="fill:#555555;stroke:#555555;stroke-width:0.5;" x="70.124104021" xlink:href="#m35282dde63" y="235.2390625"/>
      </g>
     </g>
     <g id="line2d_6">
      <g>
       <use style="fill:#555555;stroke:#555555;stroke-width:0.5;" x="70.124104021" xlink:href="#mc979914948" y="12.0390625"/>
      </g>
     </g>
     <g id="text_2">
      <!-- 50 -->
      <defs>
       <path d="M 10.796875 72.90625 
L 49.515625 72.90625 
L 49.515625 64.59375 
L 19.828125 64.59375 
L 19.828125 46.734375 
Q 21.96875 47.46875 24.109375 47.828125 
Q 26.265625 48.1875 28.421875 48.1875 
Q 40.625 48.1875 47.75 41.5 
Q 54.890625 34.8125 54.890625 23.390625 
Q 54.890625 11.625 47.5625 5.09375 
Q 40.234375 -1.421875 26.90625 -1.421875 
Q 22.3125 -1.421875 17.546875 -0.640625 
Q 12.796875 0.140625 7.71875 1.703125 
L 7.71875 11.625 
Q 12.109375 9.234375 16.796875 8.0625 
Q 21.484375 6.890625 26.703125 6.890625 
Q 35.15625 6.890625 40.078125 11.328125 
Q 45.015625 15.765625 45.015625 23.390625 
Q 45.015625 31 40.078125 35.4375 
Q 35.15625 39.890625 26.703125 39.890625 
Q 22.75 39.890625 18.8125 39.015625 
Q 14.890625 38.140625 10.796875 36.28125 
z
" id="BitstreamVeraSans-Roman-35"/>
      </defs>
      <g style="fill:#555555;" transform="translate(63.761604021 250.8375)scale(0.1 -0.1)">
       <use xlink:href="#BitstreamVeraSans-Roman-35"/>
       <use x="63.623046875" xlink:href="#BitstreamVeraSans-Roman-30"/>
      </g>
     </g>
    </g>
    <g id="xtick_3">
     <g id="line2d_7">
      <path clip-path="url(#pc92e60d0ce)" d="M 109.145083 235.239062 
L 109.145083 12.039062 
" style="fill:none;stroke:#ffffff;stroke-linecap:square;stroke-width:0.5;"/>
     </g>
     <g id="line2d_8">
      <g>
       <use style="fill:#555555;stroke:#555555;stroke-width:0.5;" x="109.145083042" xlink:href="#m35282dde63" y="235.2390625"/>
      </g>
     </g>
     <g id="line2d_9">
      <g>
       <use style="fill:#555555;stroke:#555555;stroke-width:0.5;" x="109.145083042" xlink:href="#mc979914948" y="12.0390625"/>
      </g>
     </g>
     <g id="text_3">
      <!-- 100 -->
      <defs>
       <path d="M 12.40625 8.296875 
L 28.515625 8.296875 
L 28.515625 63.921875 
L 10.984375 60.40625 
L 10.984375 69.390625 
L 28.421875 72.90625 
L 38.28125 72.90625 
L 38.28125 8.296875 
L 54.390625 8.296875 
L 54.390625 0 
L 12.40625 0 
z
" id="BitstreamVeraSans-Roman-31"/>
      </defs>
      <g style="fill:#555555;" transform="translate(99.601333042 250.8375)scale(0.1 -0.1)">
       <use xlink:href="#BitstreamVeraSans-Roman-31"/>
       <use x="63.623046875" xlink:href="#BitstreamVeraSans-Roman-30"/>
       <use x="127.24609375" xlink:href="#BitstreamVeraSans-Roman-30"/>
      </g>
     </g>
    </g>
    <g id="xtick_4">
     <g id="line2d_10">
      <path clip-path="url(#pc92e60d0ce)" d="M 148.166062 235.239062 
L 148.166062 12.039062 
" style="fill:none;stroke:#ffffff;stroke-linecap:square;stroke-width:0.5;"/>
     </g>
     <g id="line2d_11">
      <g>
       <use style="fill:#555555;stroke:#555555;stroke-width:0.5;" x="148.166062063" xlink:href="#m35282dde63" y="235.2390625"/>
      </g>
     </g>
     <g id="line2d_12">
      <g>
       <use style="fill:#555555;stroke:#555555;stroke-width:0.5;" x="148.166062063" xlink:href="#mc979914948" y="12.0390625"/>
      </g>
     </g>
     <g id="text_4">
      <!-- 150 -->
      <g style="fill:#555555;" transform="translate(138.622312063 250.8375)scale(0.1 -0.1)">
       <use xlink:href="#BitstreamVeraSans-Roman-31"/>
       <use x="63.623046875" xlink:href="#BitstreamVeraSans-Roman-35"/>
       <use x="127.24609375" xlink:href="#BitstreamVeraSans-Roman-30"/>
      </g>
     </g>
    </g>
    <g id="xtick_5">
     <g id="line2d_13">
      <path clip-path="url(#pc92e60d0ce)" d="M 187.187041 235.239062 
L 187.187041 12.039062 
" style="fill:none;stroke:#ffffff;stroke-linecap:square;stroke-width:0.5;"/>
     </g>
     <g id="line2d_14">
      <g>
       <use style="fill:#555555;stroke:#555555;stroke-width:0.5;" x="187.187041084" xlink:href="#m35282dde63" y="235.2390625"/>
      </g>
     </g>
     <g id="line2d_15">
      <g>
       <use style="fill:#555555;stroke:#555555;stroke-width:0.5;" x="187.187041084" xlink:href="#mc979914948" y="12.0390625"/>
      </g>
     </g>
     <g id="text_5">
      <!-- 200 -->
      <defs>
       <path d="M 19.1875 8.296875 
L 53.609375 8.296875 
L 53.609375 0 
L 7.328125 0 
L 7.328125 8.296875 
Q 12.9375 14.109375 22.625 23.890625 
Q 32.328125 33.6875 34.8125 36.53125 
Q 39.546875 41.84375 41.421875 45.53125 
Q 43.3125 49.21875 43.3125 52.78125 
Q 43.3125 58.59375 39.234375 62.25 
Q 35.15625 65.921875 28.609375 65.921875 
Q 23.96875 65.921875 18.8125 64.3125 
Q 13.671875 62.703125 7.8125 59.421875 
L 7.8125 69.390625 
Q 13.765625 71.78125 18.9375 73 
Q 24.125 74.21875 28.421875 74.21875 
Q 39.75 74.21875 46.484375 68.546875 
Q 53.21875 62.890625 53.21875 53.421875 
Q 53.21875 48.921875 51.53125 44.890625 
Q 49.859375 40.875 45.40625 35.40625 
Q 44.1875 33.984375 37.640625 27.21875 
Q 31.109375 20.453125 19.1875 8.296875 
" id="BitstreamVeraSans-Roman-32"/>
      </defs>
      <g style="fill:#555555;" transform="translate(177.643291084 250.8375)scale(0.1 -0.1)">
       <use xlink:href="#BitstreamVeraSans-Roman-32"/>
       <use x="63.623046875" xlink:href="#BitstreamVeraSans-Roman-30"/>
       <use x="127.24609375" xlink:href="#BitstreamVeraSans-Roman-30"/>
      </g>
     </g>
    </g>
    <g id="xtick_6">
     <g id="line2d_16">
      <path clip-path="url(#pc92e60d0ce)" d="M 226.20802 235.239062 
L 226.20802 12.039062 
" style="fill:none;stroke:#ffffff;stroke-linecap:square;stroke-width:0.5;"/>
     </g>
     <g id="line2d_17">
      <g>
       <use style="fill:#555555;stroke:#555555;stroke-width:0.5;" x="226.208020105" xlink:href="#m35282dde63" y="235.2390625"/>
      </g>
     </g>
     <g id="line2d_18">
      <g>
       <use style="fill:#555555;stroke:#555555;stroke-width:0.5;" x="226.208020105" xlink:href="#mc979914948" y="12.0390625"/>
      </g>
     </g>
     <g id="text_6">
      <!-- 250 -->
      <g style="fill:#555555;" transform="translate(216.664270105 250.8375)scale(0.1 -0.1)">
       <use xlink:href="#BitstreamVeraSans-Roman-32"/>
       <use x="63.623046875" xlink:href="#BitstreamVeraSans-Roman-35"/>
       <use x="127.24609375" xlink:href="#BitstreamVeraSans-Roman-30"/>
      </g>
     </g>
    </g>
    <g id="xtick_7">
     <g id="line2d_19">
      <path clip-path="url(#pc92e60d0ce)" d="M 265.228999 235.239062 
L 265.228999 12.039062 
" style="fill:none;stroke:#ffffff;stroke-linecap:square;stroke-width:0.5;"/>
     </g>
     <g id="line2d_20">
      <g>
       <use style="fill:#555555;stroke:#555555;stroke-width:0.5;" x="265.228999126" xlink:href="#m35282dde63" y="235.2390625"/>
      </g>
     </g>
     <g id="line2d_21">
      <g>
       <use style="fill:#555555;stroke:#555555;stroke-width:0.5;" x="265.228999126" xlink:href="#mc979914948" y="12.0390625"/>
      </g>
     </g>
     <g id="text_7">
      <!-- 300 -->
      <defs>
       <path d="M 40.578125 39.3125 
Q 47.65625 37.796875 51.625 33 
Q 55.609375 28.21875 55.609375 21.1875 
Q 55.609375 10.40625 48.1875 4.484375 
Q 40.765625 -1.421875 27.09375 -1.421875 
Q 22.515625 -1.421875 17.65625 -0.515625 
Q 12.796875 0.390625 7.625 2.203125 
L 7.625 11.71875 
Q 11.71875 9.328125 16.59375 8.109375 
Q 21.484375 6.890625 26.8125 6.890625 
Q 36.078125 6.890625 40.9375 10.546875 
Q 45.796875 14.203125 45.796875 21.1875 
Q 45.796875 27.640625 41.28125 31.265625 
Q 36.765625 34.90625 28.71875 34.90625 
L 20.21875 34.90625 
L 20.21875 43.015625 
L 29.109375 43.015625 
Q 36.375 43.015625 40.234375 45.921875 
Q 44.09375 48.828125 44.09375 54.296875 
Q 44.09375 59.90625 40.109375 62.90625 
Q 36.140625 65.921875 28.71875 65.921875 
Q 24.65625 65.921875 20.015625 65.03125 
Q 15.375 64.15625 9.8125 62.3125 
L 9.8125 71.09375 
Q 15.4375 72.65625 20.34375 73.4375 
Q 25.25 74.21875 29.59375 74.21875 
Q 40.828125 74.21875 47.359375 69.109375 
Q 53.90625 64.015625 53.90625 55.328125 
Q 53.90625 49.265625 50.4375 45.09375 
Q 46.96875 40.921875 40.578125 39.3125 
" id="BitstreamVeraSans-Roman-33"/>
      </defs>
      <g style="fill:#555555;" transform="translate(255.685249126 250.8375)scale(0.1 -0.1)">
       <use xlink:href="#BitstreamVeraSans-Roman-33"/>
       <use x="63.623046875" xlink:href="#BitstreamVeraSans-Roman-30"/>
       <use x="127.24609375" xlink:href="#BitstreamVeraSans-Roman-30"/>
      </g>
     </g>
    </g>
    <g id="xtick_8">
     <g id="line2d_22">
      <path clip-path="url(#pc92e60d0ce)" d="M 304.249978 235.239062 
L 304.249978 12.039062 
" style="fill:none;stroke:#ffffff;stroke-linecap:square;stroke-width:0.5;"/>
     </g>
     <g id="line2d_23">
      <g>
       <use style="fill:#555555;stroke:#555555;stroke-width:0.5;" x="304.249978147" xlink:href="#m35282dde63" y="235.2390625"/>
      </g>
     </g>
     <g id="line2d_24">
      <g>
       <use style="fill:#555555;stroke:#555555;stroke-width:0.5;" x="304.249978147" xlink:href="#mc979914948" y="12.0390625"/>
      </g>
     </g>
     <g id="text_8">
      <!-- 350 -->
      <g style="fill:#555555;" transform="translate(294.706228147 250.8375)scale(0.1 -0.1)">
       <use xlink:href="#BitstreamVeraSans-Roman-33"/>
       <use x="63.623046875" xlink:href="#BitstreamVeraSans-Roman-35"/>
       <use x="127.24609375" xlink:href="#BitstreamVeraSans-Roman-30"/>
      </g>
     </g>
    </g>
    <g id="xtick_9">
     <g id="line2d_25">
      <path clip-path="url(#pc92e60d0ce)" d="M 343.270957 235.239062 
L 343.270957 12.039062 
" style="fill:none;stroke:#ffffff;stroke-linecap:square;stroke-width:0.5;"/>
     </g>
     <g id="line2d_26">
      <g>
       <use style="fill:#555555;stroke:#555555;stroke-width:0.5;" x="343.270957168" xlink:href="#m35282dde63" y="235.2390625"/>
      </g>
     </g>
     <g id="line2d_27">
      <g>
       <use style="fill:#555555;stroke:#555555;stroke-width:0.5;" x="343.270957168" xlink:href="#mc979914948" y="12.0390625"/>
      </g>
     </g>
     <g id="text_9">
      <!-- 400 -->
      <defs>
       <path d="M 37.796875 64.3125 
L 12.890625 25.390625 
L 37.796875 25.390625 
z
M 35.203125 72.90625 
L 47.609375 72.90625 
L 47.609375 25.390625 
L 58.015625 25.390625 
L 58.015625 17.1875 
L 47.609375 17.1875 
L 47.609375 0 
L 37.796875 0 
L 37.796875 17.1875 
L 4.890625 17.1875 
L 4.890625 26.703125 
z
" id="BitstreamVeraSans-Roman-34"/>
      </defs>
      <g style="fill:#555555;" transform="translate(333.727207168 250.8375)scale(0.1 -0.1)">
       <use xlink:href="#BitstreamVeraSans-Roman-34"/>
       <use x="63.623046875" xlink:href="#BitstreamVeraSans-Roman-30"/>
       <use x="127.24609375" xlink:href="#BitstreamVeraSans-Roman-30"/>
      </g>
     </g>
    </g>
    <g id="text_10">
     <!-- x -->
     <defs>
      <path d="M 54.890625 54.6875 
L 35.109375 28.078125 
L 55.90625 0 
L 45.3125 0 
L 29.390625 21.484375 
L 13.484375 0 
L 2.875 0 
L 24.125 28.609375 
L 4.6875 54.6875 
L 15.28125 54.6875 
L 29.78125 35.203125 
L 44.28125 54.6875 
z
" id="BitstreamVeraSans-Roman-78"/>
     </defs>
     <g style="fill:#555555;" transform="translate(194.951875 267.0353125)scale(0.12 -0.12)">
      <use xlink:href="#BitstreamVeraSans-Roman-78"/>
     </g>
    </g>
   </g>
   <g id="matplotlib.axis_2">
    <g id="ytick_1">
     <g id="line2d_28">
      <path clip-path="url(#pc92e60d0ce)" d="M 31.103125 235.239062 
L 365.903125 235.239062 
" style="fill:none;stroke:#ffffff;stroke-linecap:square;stroke-width:0.5;"/>
     </g>
     <g id="line2d_29">
      <defs>
       <path d="M 0 0 
L -4 0 
" id="m2debe72b3b" style="stroke:#555555;stroke-width:0.5;"/>
      </defs>
      <g>
       <use style="fill:#555555;stroke:#555555;stroke-width:0.5;" x="31.103125" xlink:href="#m2debe72b3b" y="235.2390625"/>
      </g>
     </g>
     <g id="line2d_30">
      <defs>
       <path d="M 0 0 
L 4 0 
" id="mbf0051b8ad" style="stroke:#555555;stroke-width:0.5;"/>
      </defs>
      <g>
       <use style="fill:#555555;stroke:#555555;stroke-width:0.5;" x="365.903125" xlink:href="#mbf0051b8ad" y="235.2390625"/>
      </g>
     </g>
     <g id="text_11">
      <!-- 0.0 -->
      <defs>
       <path d="M 10.6875 12.40625 
L 21 12.40625 
L 21 0 
L 10.6875 0 
z
" id="BitstreamVeraSans-Roman-2e"/>
      </defs>
      <g style="fill:#555555;" transform="translate(7.2 237.9984375)scale(0.1 -0.1)">
       <use xlink:href="#BitstreamVeraSans-Roman-30"/>
       <use x="63.623046875" xlink:href="#BitstreamVeraSans-Roman-2e"/>
       <use x="95.41015625" xlink:href="#BitstreamVeraSans-Roman-30"/>
      </g>
     </g>
    </g>
    <g id="ytick_2">
     <g id="line2d_31">
      <path clip-path="url(#pc92e60d0ce)" d="M 31.103125 190.599063 
L 365.903125 190.599063 
" style="fill:none;stroke:#ffffff;stroke-linecap:square;stroke-width:0.5;"/>
     </g>
     <g id="line2d_32">
      <g>
       <use style="fill:#555555;stroke:#555555;stroke-width:0.5;" x="31.103125" xlink:href="#m2debe72b3b" y="190.5990625"/>
      </g>
     </g>
     <g id="line2d_33">
      <g>
       <use style="fill:#555555;stroke:#555555;stroke-width:0.5;" x="365.903125" xlink:href="#mbf0051b8ad" y="190.5990625"/>
      </g>
     </g>
     <g id="text_12">
      <!-- 0.2 -->
      <g style="fill:#555555;" transform="translate(7.2 193.3584375)scale(0.1 -0.1)">
       <use xlink:href="#BitstreamVeraSans-Roman-30"/>
       <use x="63.623046875" xlink:href="#BitstreamVeraSans-Roman-2e"/>
       <use x="95.41015625" xlink:href="#BitstreamVeraSans-Roman-32"/>
      </g>
     </g>
    </g>
    <g id="ytick_3">
     <g id="line2d_34">
      <path clip-path="url(#pc92e60d0ce)" d="M 31.103125 145.959062 
L 365.903125 145.959062 
" style="fill:none;stroke:#ffffff;stroke-linecap:square;stroke-width:0.5;"/>
     </g>
     <g id="line2d_35">
      <g>
       <use style="fill:#555555;stroke:#555555;stroke-width:0.5;" x="31.103125" xlink:href="#m2debe72b3b" y="145.9590625"/>
      </g>
     </g>
     <g id="line2d_36">
      <g>
       <use style="fill:#555555;stroke:#555555;stroke-width:0.5;" x="365.903125" xlink:href="#mbf0051b8ad" y="145.9590625"/>
      </g>
     </g>
     <g id="text_13">
      <!-- 0.4 -->
      <g style="fill:#555555;" transform="translate(7.2 148.7184375)scale(0.1 -0.1)">
       <use xlink:href="#BitstreamVeraSans-Roman-30"/>
       <use x="63.623046875" xlink:href="#BitstreamVeraSans-Roman-2e"/>
       <use x="95.41015625" xlink:href="#BitstreamVeraSans-Roman-34"/>
      </g>
     </g>
    </g>
    <g id="ytick_4">
     <g id="line2d_37">
      <path clip-path="url(#pc92e60d0ce)" d="M 31.103125 101.319062 
L 365.903125 101.319062 
" style="fill:none;stroke:#ffffff;stroke-linecap:square;stroke-width:0.5;"/>
     </g>
     <g id="line2d_38">
      <g>
       <use style="fill:#555555;stroke:#555555;stroke-width:0.5;" x="31.103125" xlink:href="#m2debe72b3b" y="101.3190625"/>
      </g>
     </g>
     <g id="line2d_39">
      <g>
       <use style="fill:#555555;stroke:#555555;stroke-width:0.5;" x="365.903125" xlink:href="#mbf0051b8ad" y="101.3190625"/>
      </g>
     </g>
     <g id="text_14">
      <!-- 0.6 -->
      <defs>
       <path d="M 33.015625 40.375 
Q 26.375 40.375 22.484375 35.828125 
Q 18.609375 31.296875 18.609375 23.390625 
Q 18.609375 15.53125 22.484375 10.953125 
Q 26.375 6.390625 33.015625 6.390625 
Q 39.65625 6.390625 43.53125 10.953125 
Q 47.40625 15.53125 47.40625 23.390625 
Q 47.40625 31.296875 43.53125 35.828125 
Q 39.65625 40.375 33.015625 40.375 
M 52.59375 71.296875 
L 52.59375 62.3125 
Q 48.875 64.0625 45.09375 64.984375 
Q 41.3125 65.921875 37.59375 65.921875 
Q 27.828125 65.921875 22.671875 59.328125 
Q 17.53125 52.734375 16.796875 39.40625 
Q 19.671875 43.65625 24.015625 45.921875 
Q 28.375 48.1875 33.59375 48.1875 
Q 44.578125 48.1875 50.953125 41.515625 
Q 57.328125 34.859375 57.328125 23.390625 
Q 57.328125 12.15625 50.6875 5.359375 
Q 44.046875 -1.421875 33.015625 -1.421875 
Q 20.359375 -1.421875 13.671875 8.265625 
Q 6.984375 17.96875 6.984375 36.375 
Q 6.984375 53.65625 15.1875 63.9375 
Q 23.390625 74.21875 37.203125 74.21875 
Q 40.921875 74.21875 44.703125 73.484375 
Q 48.484375 72.75 52.59375 71.296875 
" id="BitstreamVeraSans-Roman-36"/>
      </defs>
      <g style="fill:#555555;" transform="translate(7.2 104.0784375)scale(0.1 -0.1)">
       <use xlink:href="#BitstreamVeraSans-Roman-30"/>
       <use x="63.623046875" xlink:href="#BitstreamVeraSans-Roman-2e"/>
       <use x="95.41015625" xlink:href="#BitstreamVeraSans-Roman-36"/>
      </g>
     </g>
    </g>
    <g id="ytick_5">
     <g id="line2d_40">
      <path clip-path="url(#pc92e60d0ce)" d="M 31.103125 56.679062 
L 365.903125 56.679062 
" style="fill:none;stroke:#ffffff;stroke-linecap:square;stroke-width:0.5;"/>
     </g>
     <g id="line2d_41">
      <g>
       <use style="fill:#555555;stroke:#555555;stroke-width:0.5;" x="31.103125" xlink:href="#m2debe72b3b" y="56.6790625"/>
      </g>
     </g>
     <g id="line2d_42">
      <g>
       <use style="fill:#555555;stroke:#555555;stroke-width:0.5;" x="365.903125" xlink:href="#mbf0051b8ad" y="56.6790625"/>
      </g>
     </g>
     <g id="text_15">
      <!-- 0.8 -->
      <defs>
       <path d="M 31.78125 34.625 
Q 24.75 34.625 20.71875 30.859375 
Q 16.703125 27.09375 16.703125 20.515625 
Q 16.703125 13.921875 20.71875 10.15625 
Q 24.75 6.390625 31.78125 6.390625 
Q 38.8125 6.390625 42.859375 10.171875 
Q 46.921875 13.96875 46.921875 20.515625 
Q 46.921875 27.09375 42.890625 30.859375 
Q 38.875 34.625 31.78125 34.625 
M 21.921875 38.8125 
Q 15.578125 40.375 12.03125 44.71875 
Q 8.5 49.078125 8.5 55.328125 
Q 8.5 64.0625 14.71875 69.140625 
Q 20.953125 74.21875 31.78125 74.21875 
Q 42.671875 74.21875 48.875 69.140625 
Q 55.078125 64.0625 55.078125 55.328125 
Q 55.078125 49.078125 51.53125 44.71875 
Q 48 40.375 41.703125 38.8125 
Q 48.828125 37.15625 52.796875 32.3125 
Q 56.78125 27.484375 56.78125 20.515625 
Q 56.78125 9.90625 50.3125 4.234375 
Q 43.84375 -1.421875 31.78125 -1.421875 
Q 19.734375 -1.421875 13.25 4.234375 
Q 6.78125 9.90625 6.78125 20.515625 
Q 6.78125 27.484375 10.78125 32.3125 
Q 14.796875 37.15625 21.921875 38.8125 
M 18.3125 54.390625 
Q 18.3125 48.734375 21.84375 45.5625 
Q 25.390625 42.390625 31.78125 42.390625 
Q 38.140625 42.390625 41.71875 45.5625 
Q 45.3125 48.734375 45.3125 54.390625 
Q 45.3125 60.0625 41.71875 63.234375 
Q 38.140625 66.40625 31.78125 66.40625 
Q 25.390625 66.40625 21.84375 63.234375 
Q 18.3125 60.0625 18.3125 54.390625 
" id="BitstreamVeraSans-Roman-38"/>
      </defs>
      <g style="fill:#555555;" transform="translate(7.2 59.4384375)scale(0.1 -0.1)">
       <use xlink:href="#BitstreamVeraSans-Roman-30"/>
       <use x="63.623046875" xlink:href="#BitstreamVeraSans-Roman-2e"/>
       <use x="95.41015625" xlink:href="#BitstreamVeraSans-Roman-38"/>
      </g>
     </g>
    </g>
    <g id="ytick_6">
     <g id="line2d_43">
      <path clip-path="url(#pc92e60d0ce)" d="M 31.103125 12.039062 
L 365.903125 12.039062 
" style="fill:none;stroke:#ffffff;stroke-linecap:square;stroke-width:0.5;"/>
     </g>
     <g id="line2d_44">
      <g>
       <use style="fill:#555555;stroke:#555555;stroke-width:0.5;" x="31.103125" xlink:href="#m2debe72b3b" y="12.0390625"/>
      </g>
     </g>
     <g id="line2d_45">
      <g>
       <use style="fill:#555555;stroke:#555555;stroke-width:0.5;" x="365.903125" xlink:href="#mbf0051b8ad" y="12.0390625"/>
      </g>
     </g>
     <g id="text_16">
      <!-- 1.0 -->
      <g style="fill:#555555;" transform="translate(7.2 14.7984375)scale(0.1 -0.1)">
       <use xlink:href="#BitstreamVeraSans-Roman-31"/>
       <use x="63.623046875" xlink:href="#BitstreamVeraSans-Roman-2e"/>
       <use x="95.41015625" xlink:href="#BitstreamVeraSans-Roman-30"/>
      </g>
     </g>
    </g>
   </g>
   <g id="line2d_46">
    <path clip-path="url(#pc92e60d0ce)" d="M 31.103125 12.039062 
L 31.883545 86.439063 
L 31.883545 145.959062 
L 31.883545 139.58192 
L 32.663964 123.639062 
L 32.663964 136.039062 
L 32.663964 136.039062 
L 32.663964 136.039062 
L 32.663964 123.639062 
L 32.663964 133.784517 
L 32.663964 133.784517 
L 32.663964 142.239062 
L 33.444384 149.392909 
L 33.444384 155.524777 
L 33.444384 155.524777 
L 33.444384 155.524777 
L 33.444384 128.953348 
L 34.224803 133.784517 
L 34.224803 104.397683 
L 34.224803 120.257244 
L 35.005223 117.074357 
L 35.005223 120.450491 
L 35.005223 117.439062 
L 35.785642 114.590414 
L 35.785642 118.324777 
L 35.785642 115.853016 
L 36.566062 113.493608 
L 36.566062 116.199062 
L 36.566062 113.934715 
L 36.566062 113.934715 
L 36.566062 111.766722 
L 36.566062 111.766722 
L 36.566062 111.766722 
L 36.566062 117.074357 
L 37.346482 115.054447 
L 37.346482 117.55179 
L 37.346482 115.667634 
L 37.346482 115.667634 
L 37.346482 113.849589 
L 37.346482 113.849589 
L 37.346482 113.849589 
L 37.346482 117.964486 
L 37.346482 116.199062 
L 38.126901 118.150538 
L 38.126901 123.639062 
L 38.126901 118.642048 
L 38.126901 118.642048 
L 38.126901 117.074357 
L 38.126901 117.074357 
L 38.126901 117.074357 
L 38.126901 120.450491 
L 38.126901 117.439062 
L 38.126901 117.439062 
L 38.126901 115.995227 
L 38.907321 117.60663 
L 38.907321 125.051721 
L 38.907321 123.639062 
L 39.68774 122.294484 
L 39.68774 123.639062 
L 39.68774 122.326121 
L 39.68774 122.326121 
L 39.68774 118.566335 
L 39.68774 121.159063 
L 39.68774 121.159063 
L 39.68774 122.412689 
L 39.68774 121.212976 
L 39.68774 121.212976 
L 39.68774 120.039062 
L 40.46816 118.890126 
L 40.46816 123.639062 
L 40.46816 123.639062 
L 41.24858 124.722558 
L 41.24858 125.785216 
L 41.24858 125.785216 
L 41.24858 125.785216 
L 41.24858 120.622846 
L 41.24858 122.668628 
L 42.028999 123.639062 
L 42.028999 124.592909 
L 42.028999 124.592909 
L 42.028999 124.592909 
L 42.028999 121.809554 
L 42.028999 123.639062 
L 42.809419 124.531862 
L 42.809419 125.410491 
L 42.809419 125.410491 
L 42.809419 125.410491 
L 42.809419 122.773946 
L 42.809419 124.490971 
L 43.589838 125.329972 
L 43.589838 124.47816 
L 43.589838 125.304734 
L 43.589838 125.304734 
L 43.589838 126.119062 
L 43.589838 126.119062 
L 43.589838 126.119062 
L 43.589838 124.430552 
L 44.370258 125.210893 
L 44.370258 124.408718 
L 44.370258 125.16783 
L 44.370258 125.16783 
L 44.370258 127.384029 
L 45.150677 126.615062 
L 45.150677 125.107484 
L 45.150677 125.827298 
L 45.931097 125.088413 
L 45.931097 123.639062 
L 45.931097 125.051721 
L 46.711517 124.340949 
L 46.711517 122.945895 
L 46.711517 124.323725 
L 46.711517 124.323725 
L 46.711517 126.98038 
L 46.711517 126.296205 
L 47.491936 125.620128 
L 47.491936 129.378491 
L 47.491936 129.313639 
L 48.272356 129.908725 
L 48.272356 129.250236 
L 48.272356 129.839063 
L 48.272356 129.839063 
L 48.272356 130.421383 
L 48.272356 130.421383 
L 48.272356 130.421383 
L 48.272356 129.770931 
L 48.272356 130.347259 
L 49.052775 130.917323 
L 49.052775 132.590934 
L 49.833195 133.136935 
L 49.833195 136.537555 
L 50.613615 135.915062 
L 50.613615 137.248819 
L 51.394034 137.724499 
L 51.394034 139.58192 
L 52.174454 138.977451 
L 52.174454 139.881316 
L 52.954873 140.326913 
L 52.954873 140.768365 
L 52.954873 140.768365 
L 52.954873 140.768365 
L 52.954873 140.172396 
L 52.954873 140.610491 
L 53.735293 141.044567 
L 53.735293 142.741765 
L 54.515712 143.156551 
L 54.515712 145.175905 
L 55.296132 145.569194 
L 55.296132 147.858637 
L 56.076552 148.228893 
L 56.076552 147.654252 
L 56.076552 148.022256 
L 56.076552 148.022256 
L 56.076552 148.749062 
L 56.856971 149.107942 
L 56.856971 149.463856 
L 56.856971 149.463856 
L 56.856971 149.463856 
L 56.856971 148.898322 
L 56.856971 149.252177 
L 56.856971 149.252177 
L 56.856971 149.603144 
L 57.637391 149.951258 
L 57.637391 150.978822 
L 58.41781 151.315862 
L 58.41781 152.310999 
L 59.19823 152.637488 
L 59.19823 153.685216 
L 59.978649 153.997683 
L 59.978649 154.920881 
L 60.759069 155.223968 
L 60.759069 156.11966 
L 61.539489 156.413784 
L 61.539489 158.133608 
L 62.319908 158.412976 
L 62.319908 160.313267 
L 63.100328 160.577091 
L 63.100328 163.116614 
L 63.880747 163.361096 
L 63.880747 164.0847 
L 64.661167 164.322675 
L 64.661167 163.815063 
L 64.661167 164.288069 
L 64.661167 164.288069 
L 64.661167 164.754852 
L 65.441587 164.985948 
L 65.441587 166.781555 
L 66.222006 166.999572 
L 66.222006 167.85793 
L 67.002426 168.069157 
L 67.002426 169.309216 
L 67.782845 169.511455 
L 67.782845 170.699303 
L 68.563265 170.893117 
L 68.563265 171.467634 
L 69.343684 171.656867 
L 69.343684 172.402699 
L 70.124104 172.586431 
L 70.124104 173.131236 
L 70.904524 173.310739 
L 70.904524 174.710249 
L 71.684943 174.880753 
L 71.684943 175.883938 
L 72.465363 176.047902 
L 72.465363 177.012976 
L 73.245782 177.17077 
L 73.245782 178.251828 
L 74.026202 178.402988 
L 74.026202 179.871621 
L 74.806622 180.01432 
L 74.806622 180.855306 
L 75.587041 180.992987 
L 75.587041 181.401877 
L 76.367461 181.536807 
L 76.367461 181.804649 
L 77.14788 181.93757 
L 77.14788 182.201439 
L 77.9283 182.332396 
L 77.9283 183.357222 
L 78.708719 183.482541 
L 78.708719 184.343101 
L 79.489139 184.463707 
L 79.489139 185.175511 
L 80.269559 185.292209 
L 80.269559 186.540881 
L 81.049978 186.761234 
L 81.049978 187.833753 
L 81.830398 188.042587 
L 81.830398 187.655766 
L 81.830398 187.967447 
L 81.830398 187.967447 
L 81.830398 188.376725 
L 82.610817 188.578718 
L 82.610817 188.778977 
L 83.391237 188.977524 
L 83.391237 189.945339 
L 84.171656 190.134062 
L 84.171656 190.964216 
L 84.952076 191.144561 
L 84.952076 192.196518 
L 85.732496 192.366983 
L 85.732496 193.523456 
L 86.512915 193.683592 
L 86.512915 194.389251 
L 87.293335 194.542822 
L 87.293335 195.071345 
L 88.073754 195.219839 
L 88.073754 196.017323 
L 88.854174 196.158918 
L 88.854174 196.783645 
L 89.634594 196.91977 
L 89.634594 197.975035 
L 90.415013 198.10287 
L 90.415013 198.729113 
L 91.195433 198.851836 
L 91.195433 199.03438 
L 91.195433 199.03438 
L 91.195433 199.03438 
L 91.195433 198.722201 
L 91.195433 199.024493 
L 91.195433 199.024493 
L 91.195433 199.614307 
L 91.975852 199.729972 
L 91.975852 200.519062 
L 92.756272 200.683612 
L 92.756272 201.221022 
L 93.536691 201.379001 
L 93.536691 202.147383 
L 94.317111 202.296894 
L 94.317111 203.260115 
L 95.097531 203.399761 
L 95.097531 203.991062 
L 95.87795 204.124411 
L 95.87795 204.73195 
L 96.65837 204.859062 
L 96.65837 205.519497 
L 97.438789 205.640145 
L 97.438789 206.151828 
L 98.219209 206.267407 
L 98.219209 207.051434 
L 98.999628 207.195986 
L 98.999628 207.690448 
L 99.780048 207.828536 
L 99.780048 208.49872 
L 100.560468 208.628844 
L 100.560468 209.230026 
L 101.340887 209.353145 
L 101.340887 209.863656 
L 102.121307 209.980864 
L 102.121307 210.269199 
L 102.901726 210.382699 
L 102.901726 210.74455 
L 103.682146 210.880933 
L 103.682146 211.228525 
L 104.462566 211.359587 
L 104.462566 211.744326 
L 105.242985 211.869832 
L 105.242985 212.14128 
L 106.023405 212.262592 
L 106.023405 212.454062 
L 106.803824 212.572119 
L 106.803824 213.122177 
L 107.584244 213.255545 
L 107.584244 213.709929 
L 108.364663 213.836323 
L 108.364663 214.186512 
L 109.145083 214.307388 
L 109.145083 214.758164 
L 109.925503 214.872582 
L 109.925503 215.189933 
L 110.705922 215.317751 
L 110.705922 215.586232 
L 111.486342 215.709062 
L 111.486342 216.034848 
L 112.266761 216.152152 
L 112.266761 216.527685 
L 113.047181 216.639062 
L 113.047181 216.99586 
L 113.827601 217.116776 
L 113.827601 217.383062 
L 114.60802 217.498917 
L 114.60802 217.823776 
L 115.38844 217.947679 
L 115.38844 218.282783 
L 116.168859 218.400263 
L 116.168859 218.630406 
L 116.949279 218.743135 
L 116.949279 218.878853 
L 117.729698 219.00031 
L 117.729698 219.190933 
L 118.510118 219.307817 
L 118.510118 219.559062 
L 119.290538 219.670664 
L 119.290538 219.899932 
L 120.070957 220.017351 
L 120.070957 220.308278 
L 120.851377 220.41955 
L 120.851377 220.71476 
L 121.631796 220.829576 
L 121.631796 221.007703 
L 122.412216 221.127062 
L 122.412216 221.395012 
L 123.192635 221.507989 
L 123.192635 221.686646 
L 123.973055 221.80319 
L 123.973055 221.990365 
L 124.753475 222.101765 
L 124.753475 222.357084 
L 125.533894 222.469886 
L 125.533894 222.646316 
L 126.314314 222.761253 
L 126.314314 222.874111 
L 127.094733 222.991806 
L 127.094733 223.127435 
L 127.875153 223.240379 
L 127.875153 223.331822 
L 128.655573 223.447364 
L 128.655573 223.573142 
L 129.435992 223.690171 
L 129.435992 223.946548 
L 130.216412 224.061955 
L 130.216412 224.25834 
L 130.996831 224.372893 
L 130.996831 224.46389 
L 131.777251 224.579413 
L 131.777251 224.738054 
L 132.55767 224.852738 
L 132.55767 224.911584 
L 133.33809 225.027298 
L 133.33809 225.255676 
L 134.11851 225.368304 
L 134.11851 225.482773 
L 134.898929 225.594618 
L 134.898929 225.695607 
L 135.679349 225.810787 
L 135.679349 225.966659 
L 136.459768 226.079264 
L 136.459768 226.263437 
L 137.240188 226.376178 
L 137.240188 226.482617 
L 138.020608 226.596787 
L 138.020608 226.714667 
L 138.801027 226.826139 
L 138.801027 226.941035 
L 139.581447 227.052835 
L 139.581447 227.164644 
L 140.361866 227.27634 
L 140.361866 227.342456 
L 141.142286 227.454863 
L 141.142286 227.556028 
L 141.922705 227.667723 
L 141.922705 227.742969 
L 142.703125 227.854322 
L 142.703125 227.898928 
L 143.483545 228.01051 
L 143.483545 228.060329 
L 144.263964 228.171663 
L 144.263964 228.259611 
L 145.044384 228.37137 
L 145.044384 228.433338 
L 145.824803 228.545794 
L 145.824803 228.618724 
L 146.605223 228.730999 
L 146.605223 228.757996 
L 147.385642 228.869348 
L 147.385642 228.917213 
L 148.166062 229.0285 
L 148.166062 229.07922 
L 148.946482 229.19162 
L 148.946482 229.21991 
L 149.726901 229.332068 
L 149.726901 229.374827 
L 150.507321 229.487393 
L 150.507321 229.518979 
L 151.28774 229.630447 
L 151.28774 229.657639 
L 152.06816 229.769295 
L 152.06816 229.810023 
L 153.628999 229.923485 
L 153.628999 230.02734 
L 154.409419 230.139132 
L 154.409419 230.153362 
L 155.189838 230.265529 
L 155.189838 230.26666 
L 156.750677 230.379342 
L 156.750677 230.478758 
L 158.311517 230.591039 
L 158.311517 230.679213 
L 159.872356 230.791401 
L 159.872356 230.879166 
L 161.433195 230.991762 
L 161.433195 230.992586 
L 161.433195 230.992586 
L 161.433195 230.992586 
L 161.433195 230.950087 
L 161.433195 230.992128 
L 161.433195 230.992128 
L 161.433195 231.024529 
L 162.994034 231.137188 
L 162.994034 231.210475 
L 164.554873 231.322579 
L 164.554873 231.382054 
L 166.115712 231.494477 
L 166.115712 231.534032 
L 167.676552 231.646087 
L 167.676552 231.683092 
L 169.237391 231.795048 
L 169.237391 231.813733 
L 170.79823 231.925702 
L 170.79823 231.951827 
L 172.359069 232.063779 
L 172.359069 232.076051 
L 173.919908 232.187861 
L 173.919908 232.195007 
L 175.480747 232.306897 
L 175.480747 232.311946 
L 177.822006 232.424184 
L 177.822006 232.459591 
L 180.163265 232.571655 
L 180.163265 232.586704 
L 182.504524 232.698616 
L 182.504524 232.706768 
L 185.626202 232.818822 
L 185.626202 232.847375 
L 188.74788 232.959397 
L 188.74788 232.979907 
L 192.649978 233.092075 
L 192.649978 233.109661 
L 196.552076 233.221643 
L 196.552076 233.231722 
L 201.234594 233.343843 
L 201.234594 233.345772 
L 206.697531 233.45788 
L 206.697531 233.469039 
L 213.721307 233.581308 
L 213.721307 233.590126 
L 222.305922 233.702507 
L 222.305922 233.709143 
L 234.012216 233.82174 
L 234.012216 233.827387 
L 251.181447 233.940407 
L 251.181447 233.940784 
L 285.519908 234.055166 
L 285.519908 234.055354 
L 340.149279 234.170813 
L 340.149279 234.171631 
L 365.903125 234.18772 
L 365.903125 234.18772 
" style="fill:none;stroke:#e24a33;stroke-linecap:square;"/>
   </g>
   <g id="line2d_47">
    <path clip-path="url(#pc92e60d0ce)" d="M 31.103125 233.007062 
L 31.103125 230.775062 
L 31.883545 230.775062 
L 31.883545 230.775062 
L 31.883545 228.543062 
L 31.883545 228.543062 
L 32.663964 226.311062 
L 32.663964 226.311062 
L 32.663964 224.079062 
L 32.663964 224.079062 
L 33.444384 224.079062 
L 33.444384 224.079062 
L 33.444384 212.919062 
L 34.224803 212.919062 
L 34.224803 197.295062 
L 34.224803 197.295062 
L 35.005223 195.063063 
L 35.005223 195.063063 
L 35.005223 192.831062 
L 35.785642 190.599063 
L 35.785642 190.599063 
L 35.785642 183.903062 
L 36.566062 181.671063 
L 36.566062 181.671063 
L 36.566062 174.975062 
L 36.566062 174.975062 
L 37.346482 172.743062 
L 37.346482 172.743062 
L 37.346482 163.815063 
L 38.126901 163.815063 
L 38.126901 163.815063 
L 38.126901 148.191062 
L 38.907321 148.191062 
L 38.907321 148.191062 
L 38.907321 143.727062 
L 39.68774 141.495063 
L 39.68774 141.495063 
L 39.68774 128.103062 
L 40.46816 125.871062 
L 40.46816 125.871062 
L 40.46816 121.407062 
L 40.46816 121.407062 
L 41.24858 121.407062 
L 41.24858 121.407062 
L 41.24858 105.783062 
L 41.24858 105.783062 
L 42.028999 105.783062 
L 42.028999 105.783062 
L 42.028999 96.855063 
L 42.028999 96.855063 
L 42.809419 96.855063 
L 42.809419 96.855063 
L 42.809419 90.159063 
L 42.809419 90.159063 
L 43.589838 90.159063 
L 43.589838 78.999063 
L 44.370258 78.999063 
L 44.370258 74.535063 
L 44.370258 74.535063 
L 45.150677 72.303063 
L 45.150677 67.839063 
L 45.150677 67.839063 
L 45.931097 65.607062 
L 45.931097 61.143062 
L 45.931097 61.143062 
L 46.711517 58.911062 
L 46.711517 52.215063 
L 47.491936 49.983063 
L 47.491936 49.983063 
L 47.491936 47.751063 
L 47.491936 47.751063 
L 48.272356 47.751063 
L 48.272356 43.287062 
L 48.272356 43.287062 
L 49.833195 43.287062 
L 49.833195 43.287062 
L 49.833195 38.823062 
L 49.833195 38.823062 
L 50.613615 36.591062 
L 50.613615 36.591062 
L 50.613615 34.359062 
L 50.613615 34.359062 
L 51.394034 34.359062 
L 51.394034 34.359062 
L 52.174454 32.127062 
L 52.174454 32.127062 
L 52.954873 32.127062 
L 52.954873 32.127062 
L 52.954873 29.895062 
L 52.954873 29.895062 
L 56.076552 29.895062 
L 56.076552 27.663062 
L 56.076552 27.663062 
L 56.856971 27.663062 
L 56.856971 27.663062 
L 56.856971 25.431063 
L 56.856971 25.431063 
L 59.19823 25.431063 
L 59.19823 25.431063 
L 59.19823 23.199062 
L 59.19823 23.199062 
L 64.661167 23.199062 
L 64.661167 20.967062 
L 64.661167 20.967062 
L 81.830398 20.967062 
L 81.830398 20.967062 
L 81.830398 18.735062 
L 81.830398 18.735062 
L 91.195433 18.735062 
L 91.195433 18.735062 
L 91.195433 16.503062 
L 91.195433 16.503062 
L 161.433195 16.503062 
L 161.433195 16.503062 
L 161.433195 14.271062 
L 161.433195 14.271062 
L 197.332496 14.271062 
L 197.332496 14.271062 
L 197.332496 12.039062 
L 197.332496 12.039062 
L 365.903125 12.039062 
L 365.903125 12.039062 
" style="fill:none;stroke:#348abd;stroke-linecap:square;"/>
   </g>
   <g id="line2d_48">
    <path clip-path="url(#pc92e60d0ce)" d="M 31.103125 230.819261 
L 31.103125 226.486121 
L 31.883545 226.654447 
L 31.883545 226.736205 
L 31.883545 226.736205 
L 31.883545 226.736205 
L 31.883545 222.6051 
L 31.883545 222.723175 
L 32.663964 218.705729 
L 32.663964 218.857411 
L 32.663964 214.948153 
L 32.663964 215.310491 
L 33.444384 215.48685 
L 33.444384 215.660115 
L 33.444384 215.660115 
L 33.444384 215.660115 
L 33.444384 198.346501 
L 34.224803 198.648899 
L 34.224803 176.411156 
L 34.224803 178.180416 
L 35.005223 175.274883 
L 35.005223 175.719063 
L 35.005223 175.719063 
L 35.005223 175.719063 
L 35.005223 172.874357 
L 35.785642 170.071179 
L 35.785642 170.54341 
L 35.785642 170.54341 
L 35.785642 170.54341 
L 35.785642 163.440461 
L 36.566062 160.839063 
L 36.566062 161.352166 
L 36.566062 161.352166 
L 36.566062 161.352166 
L 36.566062 154.347787 
L 36.566062 155.419195 
L 37.346482 153.007484 
L 37.346482 153.544945 
L 37.346482 153.544945 
L 37.346482 153.544945 
L 37.346482 145.959062 
L 38.126901 146.513597 
L 38.126901 148.136623 
L 38.126901 148.136623 
L 38.126901 148.136623 
L 38.126901 134.605536 
L 38.907321 135.18389 
L 38.907321 137.978727 
L 38.907321 136.587129 
L 38.907321 136.587129 
L 38.907321 134.676425 
L 39.68774 132.786603 
L 39.68774 133.34341 
L 39.68774 133.34341 
L 39.68774 133.34341 
L 39.68774 124.217301 
L 40.46816 122.488547 
L 40.46816 124.20556 
L 40.46816 123.639062 
L 40.46816 123.639062 
L 40.46816 121.973391 
L 40.46816 122.534112 
L 41.24858 123.089309 
L 41.24858 123.639062 
L 41.24858 123.639062 
L 41.24858 123.639062 
L 41.24858 114.252147 
L 41.24858 114.814876 
L 42.028999 115.372396 
L 42.028999 115.924777 
L 42.028999 115.924777 
L 42.028999 115.924777 
L 42.028999 110.568792 
L 42.028999 111.68192 
L 42.809419 112.231062 
L 42.809419 112.775346 
L 42.809419 112.775346 
L 42.809419 112.775346 
L 42.809419 108.531639 
L 42.809419 109.628673 
L 43.589838 110.170097 
L 43.589838 105.579311 
L 44.370258 106.115096 
L 44.370258 104.052124 
L 44.370258 105.639062 
L 44.370258 105.639062 
L 44.370258 106.159544 
L 45.150677 104.890263 
L 45.150677 102.38192 
L 45.150677 102.907047 
L 45.931097 101.670559 
L 45.931097 99.226562 
L 45.931097 100.280923 
L 46.711517 99.078445 
L 46.711517 96.701131 
L 46.711517 98.79227 
L 46.711517 98.79227 
L 46.711517 99.814343 
L 46.711517 99.814343 
L 46.711517 99.814343 
L 46.711517 98.653988 
L 47.491936 97.50226 
L 47.491936 100.507426 
L 47.491936 99.868665 
L 48.272356 100.355609 
L 48.272356 99.102892 
L 48.272356 99.583939 
L 49.052775 100.061598 
L 49.052775 101.474603 
L 49.833195 101.939063 
L 49.833195 102.858373 
L 49.833195 102.858373 
L 49.833195 102.858373 
L 49.833195 101.622736 
L 49.833195 102.525549 
L 49.833195 102.525549 
L 49.833195 103.857123 
L 50.613615 102.807062 
L 50.613615 103.684096 
L 50.613615 103.684096 
L 50.613615 103.684096 
L 50.613615 102.645003 
L 50.613615 103.514472 
L 51.394034 103.944945 
L 51.394034 105.639063 
L 52.174454 104.620413 
L 52.174454 105.455037 
L 52.954873 105.868362 
L 52.954873 106.279062 
L 52.954873 106.279062 
L 52.954873 106.279062 
L 52.954873 105.274506 
L 52.954873 105.684488 
L 53.735293 106.091893 
L 53.735293 107.696205 
L 54.515712 108.091075 
L 54.515712 110.029306 
L 55.296132 110.409883 
L 55.296132 112.64563 
L 56.076552 113.010491 
L 56.076552 112.048558 
L 56.076552 112.775346 
L 56.076552 112.775346 
L 56.076552 113.135533 
L 56.856971 113.493608 
L 56.856971 113.849589 
L 56.856971 113.849589 
L 56.856971 113.849589 
L 56.856971 112.902036 
L 56.856971 113.611236 
L 57.637391 113.962762 
L 57.637391 115.005252 
L 58.41781 115.348777 
L 58.41781 116.367674 
L 59.19823 116.703469 
L 59.19823 117.699567 
L 59.19823 117.439062 
L 59.978649 117.765378 
L 59.978649 118.733568 
L 60.759069 119.052761 
L 60.759069 119.999932 
L 61.539489 120.312233 
L 61.539489 122.151062 
L 62.319908 122.451828 
L 62.319908 124.513214 
L 63.100328 124.801563 
L 63.100328 127.604545 
L 63.880747 127.877037 
L 63.880747 128.686299 
L 64.661167 128.953348 
L 64.661167 128.103063 
L 64.661167 128.900601 
L 64.661167 128.900601 
L 64.661167 129.163815 
L 65.441587 129.425729 
L 65.441587 131.475382 
L 66.222006 131.726019 
L 66.222006 132.716574 
L 67.002426 132.961258 
L 67.002426 134.40518 
L 67.782845 134.641879 
L 67.782845 136.039062 
L 68.563265 136.268162 
L 68.563265 136.949154 
L 69.343684 137.174074 
L 69.343684 138.063552 
L 70.124104 138.283406 
L 70.124104 138.93704 
L 70.904524 139.152964 
L 70.904524 140.846111 
L 71.684943 141.053568 
L 71.684943 142.27941 
L 72.465363 142.480621 
L 72.465363 143.669832 
L 73.245782 143.865075 
L 73.245782 145.20881 
L 74.026202 145.397553 
L 74.026202 147.242348 
L 74.806622 147.422669 
L 74.806622 148.489265 
L 75.587041 148.664517 
L 75.587041 149.18605 
L 76.367461 149.358501 
L 76.367461 149.701338 
L 77.14788 149.871732 
L 77.14788 150.210491 
L 77.9283 150.378864 
L 77.9283 151.70222 
L 78.708719 151.864743 
L 78.708719 152.984936 
L 79.489139 153.142511 
L 79.489139 154.075426 
L 80.269559 154.228855 
L 80.269559 155.879063 
L 81.049978 156.025754 
L 81.049978 157.60428 
L 81.830398 157.744668 
L 81.830398 157.88455 
L 81.830398 157.88455 
L 81.830398 157.88455 
L 81.830398 157.219603 
L 81.830398 157.777882 
L 81.830398 157.777882 
L 81.830398 158.191376 
L 82.610817 158.328228 
L 82.610817 158.735882 
L 83.391237 158.870809 
L 83.391237 160.324184 
L 84.171656 160.45357 
L 84.171656 161.723273 
L 84.952076 161.847876 
L 84.952076 163.430107 
L 85.732496 163.548996 
L 85.732496 165.286235 
L 86.512915 165.399063 
L 86.512915 166.507634 
L 87.293335 166.725138 
L 87.293335 167.475682 
L 88.073754 167.687112 
L 88.073754 168.826793 
L 88.854174 169.029888 
L 88.854174 169.928655 
L 89.634594 170.125078 
L 89.634594 171.654922 
L 90.415013 171.841112 
L 90.415013 172.755946 
L 91.195433 172.935753 
L 91.195433 173.203532 
L 91.195433 173.203532 
L 91.195433 173.203532 
L 91.195433 172.653655 
L 91.195433 173.186297 
L 91.195433 173.186297 
L 91.195433 173.968474 
L 91.975852 174.139621 
L 91.975852 175.311391 
L 92.756272 175.475128 
L 92.756272 176.359924 
L 93.536691 176.517989 
L 93.536691 177.752597 
L 94.317111 177.903283 
L 94.317111 179.439063 
L 95.097531 179.581047 
L 95.097531 180.555062 
L 95.87795 180.691432 
L 95.87795 181.692918 
L 96.65837 181.823678 
L 96.65837 182.909876 
L 97.438789 183.034767 
L 97.438789 183.892584 
L 98.219209 184.012833 
L 98.219209 185.299336 
L 98.999628 185.413094 
L 98.999628 186.304834 
L 99.780048 186.468494 
L 99.780048 187.584161 
L 100.560468 187.739388 
L 100.560468 188.748946 
L 101.340887 188.89669 
L 101.340887 189.763803 
L 102.121307 189.905176 
L 102.121307 190.416112 
L 102.901726 190.553465 
L 102.901726 191.183473 
L 103.682146 191.316171 
L 103.682146 191.967846 
L 104.462566 192.095867 
L 104.462566 192.807249 
L 105.242985 192.930358 
L 105.242985 193.455681 
L 106.023405 193.575063 
L 106.023405 193.968119 
L 106.803824 194.084594 
L 106.803824 195.067162 
L 107.584244 195.214177 
L 107.584244 196.039062 
L 108.364663 196.179062 
L 108.364663 196.830634 
L 109.145083 196.965047 
L 109.145083 197.784268 
L 109.925503 197.9121 
L 109.925503 198.507576 
L 110.705922 198.630527 
L 110.705922 199.17377 
L 111.486342 199.292308 
L 111.486342 199.930588 
L 112.266761 200.044211 
L 112.266761 200.765304 
L 113.047181 200.900601 
L 113.047181 201.561464 
L 113.827601 201.690596 
L 113.827601 202.222308 
L 114.60802 202.346431 
L 114.60802 202.977116 
L 115.38844 203.095639 
L 115.38844 203.766257 
L 116.168859 203.879063 
L 116.168859 204.36595 
L 116.949279 204.496125 
L 116.949279 204.795639 
L 117.729698 204.922223 
L 117.729698 205.33667 
L 118.510118 205.458804 
L 118.510118 205.976721 
L 119.290538 206.093693 
L 119.290538 206.571173 
L 120.070957 206.683449 
L 120.070957 207.28558 
L 120.851377 207.410055 
L 120.851377 207.999212 
L 121.631796 208.117426 
L 121.631796 208.515055 
L 122.412216 208.628844 
L 122.412216 209.199062 
L 123.192635 209.322475 
L 123.192635 209.715609 
L 123.973055 209.834184 
L 123.973055 210.254939 
L 124.753475 210.368568 
L 124.753475 210.908028 
L 125.533894 211.029212 
L 125.533894 211.424582 
L 126.314314 211.540688 
L 126.314314 211.832321 
L 127.094733 211.944494 
L 127.094733 212.286702 
L 127.875153 212.406495 
L 127.875153 212.654034 
L 128.655573 212.770033 
L 128.655573 213.088581 
L 129.435992 213.200171 
L 129.435992 213.762774 
L 130.216412 213.878125 
L 130.216412 214.327399 
L 130.996831 214.446667 
L 130.996831 214.700471 
L 131.777251 214.815533 
L 131.777251 215.199117 
L 132.55767 215.317751 
L 132.55767 215.515347 
L 133.33809 215.630277 
L 133.33809 216.14382 
L 134.11851 216.2598 
L 134.11851 216.559643 
L 134.898929 216.678519 
L 134.898929 216.950099 
L 135.679349 217.064073 
L 135.679349 217.448416 
L 136.459768 217.563426 
L 136.459768 217.995389 
L 137.240188 218.110167 
L 137.240188 218.400263 
L 138.020608 218.516127 
L 138.020608 218.82976 
L 138.801027 218.945878 
L 138.801027 219.249589 
L 139.581447 219.365623 
L 139.581447 219.665122 
L 140.361866 219.780688 
L 140.361866 219.996136 
L 141.142286 220.112092 
L 141.142286 220.394407 
L 141.922705 220.509366 
L 141.922705 220.743635 
L 142.703125 220.857997 
L 142.703125 221.035426 
L 143.483545 221.149787 
L 143.483545 221.337823 
L 144.263964 221.451732 
L 144.263964 221.71179 
L 145.044384 221.823791 
L 145.044384 222.038338 
L 145.824803 222.152853 
L 145.824803 222.387359 
L 146.605223 222.499633 
L 146.605223 222.64994 
L 147.385642 222.761253 
L 147.385642 222.950523 
L 148.166062 223.063388 
L 148.166062 223.256811 
L 148.946482 223.370587 
L 148.946482 223.523155 
L 149.726901 223.635031 
L 149.726901 223.816817 
L 150.507321 223.929031 
L 150.507321 224.090439 
L 151.28774 224.202937 
L 151.28774 224.353967 
L 152.06816 224.466543 
L 152.06816 224.643955 
L 152.84858 224.755669 
L 152.84858 224.857667 
L 153.628999 224.969767 
L 153.628999 225.058192 
L 154.409419 225.170662 
L 154.409419 225.298776 
L 155.189838 225.41044 
L 155.189838 225.515302 
L 155.970258 225.628518 
L 155.970258 225.726734 
L 156.750677 225.839148 
L 156.750677 225.921235 
L 157.531097 226.033002 
L 157.531097 226.115559 
L 158.311517 226.228311 
L 158.311517 226.305593 
L 159.091936 226.417284 
L 159.091936 226.465055 
L 159.872356 226.576251 
L 159.872356 226.689678 
L 160.652775 226.801801 
L 160.652775 226.866393 
L 162.213615 226.98012 
L 162.213615 227.142031 
L 162.994034 227.253229 
L 162.994034 227.326153 
L 163.774454 227.437897 
L 163.774454 227.483078 
L 164.554873 227.594434 
L 164.554873 227.657385 
L 165.335293 227.76888 
L 165.335293 227.80782 
L 166.115712 227.919818 
L 166.115712 227.9512 
L 166.896132 228.062447 
L 166.896132 228.098394 
L 167.676552 228.2097 
L 167.676552 228.239759 
L 168.456971 228.351033 
L 168.456971 228.370303 
L 169.237391 228.481631 
L 169.237391 228.492978 
L 170.01781 228.604383 
L 170.01781 228.615321 
L 170.79823 228.726596 
L 170.79823 228.760962 
L 171.578649 228.872943 
L 171.578649 228.883015 
L 172.359069 228.994383 
L 172.359069 229.002314 
L 173.919908 229.114672 
L 173.919908 229.233681 
L 175.480747 229.345797 
L 175.480747 229.461366 
L 177.041587 229.573943 
L 177.041587 229.651302 
L 178.602426 229.763458 
L 178.602426 229.831133 
L 180.163265 229.943245 
L 180.163265 229.997264 
L 181.724104 230.109219 
L 181.724104 230.15817 
L 183.284943 230.27014 
L 183.284943 230.306191 
L 184.845782 230.418118 
L 184.845782 230.44323 
L 186.406622 230.555056 
L 186.406622 230.57483 
L 187.967461 230.686776 
L 187.967461 230.692396 
L 189.5283 230.80418 
L 189.5283 230.818818 
L 191.869559 230.930854 
L 191.869559 230.969562 
L 194.210817 231.081621 
L 194.210817 231.119983 
L 196.552076 231.232027 
L 196.552076 231.260525 
L 199.673754 231.372788 
L 199.673754 231.396749 
L 202.015013 231.508804 
L 202.015013 231.526796 
L 205.136691 231.639062 
L 205.136691 231.664145 
L 208.25837 231.776181 
L 208.25837 231.789561 
L 212.160468 231.901991 
L 212.160468 231.917387 
L 216.062566 232.02963 
L 216.062566 232.031244 
L 220.745083 232.143577 
L 220.745083 232.15938 
L 226.20802 232.271964 
L 226.20802 232.282184 
L 232.451377 232.394845 
L 232.451377 232.405317 
L 240.255573 232.518107 
L 240.255573 232.523569 
L 249.620608 232.636602 
L 249.620608 232.642506 
L 262.88774 232.756166 
L 262.88774 232.760715 
L 284.739489 232.875657 
L 284.739489 232.879654 
L 315.956272 232.995734 
L 315.956272 232.997423 
L 339.368859 233.111829 
L 339.368859 233.112335 
L 365.903125 233.146235 
L 365.903125 233.146235 
" style="fill:none;stroke:#988ed5;stroke-linecap:square;"/>
   </g>
   <g id="patch_3">
    <path d="M 31.103125 12.039062 
L 365.903125 12.039062 
" style="fill:none;stroke:#ffffff;stroke-linecap:square;stroke-linejoin:miter;"/>
   </g>
   <g id="patch_4">
    <path d="M 365.903125 235.239062 
L 365.903125 12.039062 
" style="fill:none;stroke:#ffffff;stroke-linecap:square;stroke-linejoin:miter;"/>
   </g>
   <g id="patch_5">
    <path d="M 31.103125 235.239062 
L 365.903125 235.239062 
" style="fill:none;stroke:#ffffff;stroke-linecap:square;stroke-linejoin:miter;"/>
   </g>
   <g id="patch_6">
    <path d="M 31.103125 235.239062 
L 31.103125 12.039062 
" style="fill:none;stroke:#ffffff;stroke-linecap:square;stroke-linejoin:miter;"/>
   </g>
   <g id="legend_1">
    <g id="patch_7">
     <path d="M 262.3075 74.480312 
L 359.903125 74.480312 
L 359.903125 18.039062 
L 262.3075 18.039062 
z
" style="fill:#e5e5e5;stroke:#ffffff;stroke-linejoin:miter;stroke-width:0.5;"/>
    </g>
    <g id="line2d_49">
     <path d="M 270.7075 27.757187 
L 287.5075 27.757187 
" style="fill:none;stroke:#e24a33;stroke-linecap:square;"/>
    </g>
    <g id="line2d_50"/>
    <g id="text_17">
     <!-- precision -->
     <defs>
      <path d="M 54.890625 33.015625 
L 54.890625 0 
L 45.90625 0 
L 45.90625 32.71875 
Q 45.90625 40.484375 42.875 44.328125 
Q 39.84375 48.1875 33.796875 48.1875 
Q 26.515625 48.1875 22.3125 43.546875 
Q 18.109375 38.921875 18.109375 30.90625 
L 18.109375 0 
L 9.078125 0 
L 9.078125 54.6875 
L 18.109375 54.6875 
L 18.109375 46.1875 
Q 21.34375 51.125 25.703125 53.5625 
Q 30.078125 56 35.796875 56 
Q 45.21875 56 50.046875 50.171875 
Q 54.890625 44.34375 54.890625 33.015625 
" id="BitstreamVeraSans-Roman-6e"/>
      <path d="M 30.609375 48.390625 
Q 23.390625 48.390625 19.1875 42.75 
Q 14.984375 37.109375 14.984375 27.296875 
Q 14.984375 17.484375 19.15625 11.84375 
Q 23.34375 6.203125 30.609375 6.203125 
Q 37.796875 6.203125 41.984375 11.859375 
Q 46.1875 17.53125 46.1875 27.296875 
Q 46.1875 37.015625 41.984375 42.703125 
Q 37.796875 48.390625 30.609375 48.390625 
M 30.609375 56 
Q 42.328125 56 49.015625 48.375 
Q 55.71875 40.765625 55.71875 27.296875 
Q 55.71875 13.875 49.015625 6.21875 
Q 42.328125 -1.421875 30.609375 -1.421875 
Q 18.84375 -1.421875 12.171875 6.21875 
Q 5.515625 13.875 5.515625 27.296875 
Q 5.515625 40.765625 12.171875 48.375 
Q 18.84375 56 30.609375 56 
" id="BitstreamVeraSans-Roman-6f"/>
      <path d="M 9.421875 54.6875 
L 18.40625 54.6875 
L 18.40625 0 
L 9.421875 0 
z
M 9.421875 75.984375 
L 18.40625 75.984375 
L 18.40625 64.59375 
L 9.421875 64.59375 
z
" id="BitstreamVeraSans-Roman-69"/>
      <path d="M 18.109375 8.203125 
L 18.109375 -20.796875 
L 9.078125 -20.796875 
L 9.078125 54.6875 
L 18.109375 54.6875 
L 18.109375 46.390625 
Q 20.953125 51.265625 25.265625 53.625 
Q 29.59375 56 35.59375 56 
Q 45.5625 56 51.78125 48.09375 
Q 58.015625 40.1875 58.015625 27.296875 
Q 58.015625 14.40625 51.78125 6.484375 
Q 45.5625 -1.421875 35.59375 -1.421875 
Q 29.59375 -1.421875 25.265625 0.953125 
Q 20.953125 3.328125 18.109375 8.203125 
M 48.6875 27.296875 
Q 48.6875 37.203125 44.609375 42.84375 
Q 40.53125 48.484375 33.40625 48.484375 
Q 26.265625 48.484375 22.1875 42.84375 
Q 18.109375 37.203125 18.109375 27.296875 
Q 18.109375 17.390625 22.1875 11.75 
Q 26.265625 6.109375 33.40625 6.109375 
Q 40.53125 6.109375 44.609375 11.75 
Q 48.6875 17.390625 48.6875 27.296875 
" id="BitstreamVeraSans-Roman-70"/>
      <path d="M 56.203125 29.59375 
L 56.203125 25.203125 
L 14.890625 25.203125 
Q 15.484375 15.921875 20.484375 11.0625 
Q 25.484375 6.203125 34.421875 6.203125 
Q 39.59375 6.203125 44.453125 7.46875 
Q 49.3125 8.734375 54.109375 11.28125 
L 54.109375 2.78125 
Q 49.265625 0.734375 44.1875 -0.34375 
Q 39.109375 -1.421875 33.890625 -1.421875 
Q 20.796875 -1.421875 13.15625 6.1875 
Q 5.515625 13.8125 5.515625 26.8125 
Q 5.515625 40.234375 12.765625 48.109375 
Q 20.015625 56 32.328125 56 
Q 43.359375 56 49.78125 48.890625 
Q 56.203125 41.796875 56.203125 29.59375 
M 47.21875 32.234375 
Q 47.125 39.59375 43.09375 43.984375 
Q 39.0625 48.390625 32.421875 48.390625 
Q 24.90625 48.390625 20.390625 44.140625 
Q 15.875 39.890625 15.1875 32.171875 
z
" id="BitstreamVeraSans-Roman-65"/>
      <path d="M 41.109375 46.296875 
Q 39.59375 47.171875 37.8125 47.578125 
Q 36.03125 48 33.890625 48 
Q 26.265625 48 22.1875 43.046875 
Q 18.109375 38.09375 18.109375 28.8125 
L 18.109375 0 
L 9.078125 0 
L 9.078125 54.6875 
L 18.109375 54.6875 
L 18.109375 46.1875 
Q 20.953125 51.171875 25.484375 53.578125 
Q 30.03125 56 36.53125 56 
Q 37.453125 56 38.578125 55.875 
Q 39.703125 55.765625 41.0625 55.515625 
z
" id="BitstreamVeraSans-Roman-72"/>
      <path d="M 44.28125 53.078125 
L 44.28125 44.578125 
Q 40.484375 46.53125 36.375 47.5 
Q 32.28125 48.484375 27.875 48.484375 
Q 21.1875 48.484375 17.84375 46.4375 
Q 14.5 44.390625 14.5 40.28125 
Q 14.5 37.15625 16.890625 35.375 
Q 19.28125 33.59375 26.515625 31.984375 
L 29.59375 31.296875 
Q 39.15625 29.25 43.1875 25.515625 
Q 47.21875 21.78125 47.21875 15.09375 
Q 47.21875 7.46875 41.1875 3.015625 
Q 35.15625 -1.421875 24.609375 -1.421875 
Q 20.21875 -1.421875 15.453125 -0.5625 
Q 10.6875 0.296875 5.421875 2 
L 5.421875 11.28125 
Q 10.40625 8.6875 15.234375 7.390625 
Q 20.0625 6.109375 24.8125 6.109375 
Q 31.15625 6.109375 34.5625 8.28125 
Q 37.984375 10.453125 37.984375 14.40625 
Q 37.984375 18.0625 35.515625 20.015625 
Q 33.0625 21.96875 24.703125 23.78125 
L 21.578125 24.515625 
Q 13.234375 26.265625 9.515625 29.90625 
Q 5.8125 33.546875 5.8125 39.890625 
Q 5.8125 47.609375 11.28125 51.796875 
Q 16.75 56 26.8125 56 
Q 31.78125 56 36.171875 55.265625 
Q 40.578125 54.546875 44.28125 53.078125 
" id="BitstreamVeraSans-Roman-73"/>
      <path d="M 48.78125 52.59375 
L 48.78125 44.1875 
Q 44.96875 46.296875 41.140625 47.34375 
Q 37.3125 48.390625 33.40625 48.390625 
Q 24.65625 48.390625 19.8125 42.84375 
Q 14.984375 37.3125 14.984375 27.296875 
Q 14.984375 17.28125 19.8125 11.734375 
Q 24.65625 6.203125 33.40625 6.203125 
Q 37.3125 6.203125 41.140625 7.25 
Q 44.96875 8.296875 48.78125 10.40625 
L 48.78125 2.09375 
Q 45.015625 0.34375 40.984375 -0.53125 
Q 36.96875 -1.421875 32.421875 -1.421875 
Q 20.0625 -1.421875 12.78125 6.34375 
Q 5.515625 14.109375 5.515625 27.296875 
Q 5.515625 40.671875 12.859375 48.328125 
Q 20.21875 56 33.015625 56 
Q 37.15625 56 41.109375 55.140625 
Q 45.0625 54.296875 48.78125 52.59375 
" id="BitstreamVeraSans-Roman-63"/>
     </defs>
     <g transform="translate(300.7075 31.9571875)scale(0.12 -0.12)">
      <use xlink:href="#BitstreamVeraSans-Roman-70"/>
      <use x="63.4765625" xlink:href="#BitstreamVeraSans-Roman-72"/>
      <use x="104.55859375" xlink:href="#BitstreamVeraSans-Roman-65"/>
      <use x="166.08203125" xlink:href="#BitstreamVeraSans-Roman-63"/>
      <use x="221.0625" xlink:href="#BitstreamVeraSans-Roman-69"/>
      <use x="248.845703125" xlink:href="#BitstreamVeraSans-Roman-73"/>
      <use x="300.9453125" xlink:href="#BitstreamVeraSans-Roman-69"/>
      <use x="328.728515625" xlink:href="#BitstreamVeraSans-Roman-6f"/>
      <use x="389.91015625" xlink:href="#BitstreamVeraSans-Roman-6e"/>
     </g>
    </g>
    <g id="line2d_51">
     <path d="M 270.7075 45.370937 
L 287.5075 45.370937 
" style="fill:none;stroke:#348abd;stroke-linecap:square;"/>
    </g>
    <g id="line2d_52"/>
    <g id="text_18">
     <!-- recall -->
     <defs>
      <path d="M 34.28125 27.484375 
Q 23.390625 27.484375 19.1875 25 
Q 14.984375 22.515625 14.984375 16.5 
Q 14.984375 11.71875 18.140625 8.90625 
Q 21.296875 6.109375 26.703125 6.109375 
Q 34.1875 6.109375 38.703125 11.40625 
Q 43.21875 16.703125 43.21875 25.484375 
L 43.21875 27.484375 
z
M 52.203125 31.203125 
L 52.203125 0 
L 43.21875 0 
L 43.21875 8.296875 
Q 40.140625 3.328125 35.546875 0.953125 
Q 30.953125 -1.421875 24.3125 -1.421875 
Q 15.921875 -1.421875 10.953125 3.296875 
Q 6 8.015625 6 15.921875 
Q 6 25.140625 12.171875 29.828125 
Q 18.359375 34.515625 30.609375 34.515625 
L 43.21875 34.515625 
L 43.21875 35.40625 
Q 43.21875 41.609375 39.140625 45 
Q 35.0625 48.390625 27.6875 48.390625 
Q 23 48.390625 18.546875 47.265625 
Q 14.109375 46.140625 10.015625 43.890625 
L 10.015625 52.203125 
Q 14.9375 54.109375 19.578125 55.046875 
Q 24.21875 56 28.609375 56 
Q 40.484375 56 46.34375 49.84375 
Q 52.203125 43.703125 52.203125 31.203125 
" id="BitstreamVeraSans-Roman-61"/>
      <path d="M 9.421875 75.984375 
L 18.40625 75.984375 
L 18.40625 0 
L 9.421875 0 
z
" id="BitstreamVeraSans-Roman-6c"/>
     </defs>
     <g transform="translate(300.7075 49.5709375)scale(0.12 -0.12)">
      <use xlink:href="#BitstreamVeraSans-Roman-72"/>
      <use x="41.08203125" xlink:href="#BitstreamVeraSans-Roman-65"/>
      <use x="102.60546875" xlink:href="#BitstreamVeraSans-Roman-63"/>
      <use x="157.5859375" xlink:href="#BitstreamVeraSans-Roman-61"/>
      <use x="218.865234375" xlink:href="#BitstreamVeraSans-Roman-6c"/>
      <use x="246.6484375" xlink:href="#BitstreamVeraSans-Roman-6c"/>
     </g>
    </g>
    <g id="line2d_53">
     <path d="M 270.7075 62.984687 
L 287.5075 62.984687 
" style="fill:none;stroke:#988ed5;stroke-linecap:square;"/>
    </g>
    <g id="line2d_54"/>
    <g id="text_19">
     <!-- f1 -->
     <defs>
      <path d="M 37.109375 75.984375 
L 37.109375 68.5 
L 28.515625 68.5 
Q 23.6875 68.5 21.796875 66.546875 
Q 19.921875 64.59375 19.921875 59.515625 
L 19.921875 54.6875 
L 34.71875 54.6875 
L 34.71875 47.703125 
L 19.921875 47.703125 
L 19.921875 0 
L 10.890625 0 
L 10.890625 47.703125 
L 2.296875 47.703125 
L 2.296875 54.6875 
L 10.890625 54.6875 
L 10.890625 58.5 
Q 10.890625 67.625 15.140625 71.796875 
Q 19.390625 75.984375 28.609375 75.984375 
z
" id="BitstreamVeraSans-Roman-66"/>
     </defs>
     <g transform="translate(300.7075 67.1846875)scale(0.12 -0.12)">
      <use xlink:href="#BitstreamVeraSans-Roman-66"/>
      <use x="35.205078125" xlink:href="#BitstreamVeraSans-Roman-31"/>
     </g>
    </g>
   </g>
  </g>
 </g>
 <defs>
  <clipPath id="pc92e60d0ce">
   <rect height="223.2" width="334.8" x="31.103125" y="12.0390625"/>
  </clipPath>
 </defs>
</svg>
