<?xml version="1.0" encoding="utf-8" standalone="no"?>
<!DOCTYPE svg PUBLIC "-//W3C//DTD SVG 1.1//EN"
  "http://www.w3.org/Graphics/SVG/1.1/DTD/svg11.dtd">
<!-- Created with matplotlib (http://matplotlib.org/) -->
<svg height="276pt" version="1.1" viewBox="0 0 373 276" width="373pt" xmlns="http://www.w3.org/2000/svg" xmlns:xlink="http://www.w3.org/1999/xlink">
 <defs>
  <style type="text/css">
*{stroke-linecap:butt;stroke-linejoin:round;stroke-miterlimit:100000;}
  </style>
 </defs>
 <g id="figure_1">
  <g id="patch_1">
   <path d="M 0 276.730937 
L 373.103125 276.730937 
L 373.103125 0 
L 0 0 
L 0 276.730937 
z
" style="fill:none;"/>
  </g>
  <g id="axes_1">
   <g id="patch_2">
    <path d="M 31.103125 235.239062 
L 365.903125 235.239062 
L 365.903125 12.039062 
L 31.103125 12.039062 
z
" style="fill:#e5e5e5;"/>
   </g>
   <g id="matplotlib.axis_1">
    <g id="xtick_1">
     <g id="line2d_1">
      <path clip-path="url(#p7f3cc39e76)" d="M 69.82698 235.239062 
L 69.82698 12.039062 
" style="fill:none;stroke:#ffffff;stroke-linecap:square;stroke-width:0.5;"/>
     </g>
     <g id="line2d_2">
      <defs>
       <path d="M 0 0 
L 0 4 
" id="m2659720bcb" style="stroke:#555555;stroke-width:0.5;"/>
      </defs>
      <g>
       <use style="fill:#555555;stroke:#555555;stroke-width:0.5;" x="69.8269804217" xlink:href="#m2659720bcb" y="235.2390625"/>
      </g>
     </g>
     <g id="line2d_3">
      <defs>
       <path d="M 0 0 
L 0 -4 
" id="mdbe5ac79c0" style="stroke:#555555;stroke-width:0.5;"/>
      </defs>
      <g>
       <use style="fill:#555555;stroke:#555555;stroke-width:0.5;" x="69.8269804217" xlink:href="#mdbe5ac79c0" y="12.0390625"/>
      </g>
     </g>
     <g id="text_1">
      <!-- 50 -->
      <defs>
       <path d="M 31.78125 66.40625 
Q 24.171875 66.40625 20.328125 58.90625 
Q 16.5 51.421875 16.5 36.375 
Q 16.5 21.390625 20.328125 13.890625 
Q 24.171875 6.390625 31.78125 6.390625 
Q 39.453125 6.390625 43.28125 13.890625 
Q 47.125 21.390625 47.125 36.375 
Q 47.125 51.421875 43.28125 58.90625 
Q 39.453125 66.40625 31.78125 66.40625 
M 31.78125 74.21875 
Q 44.046875 74.21875 50.515625 64.515625 
Q 56.984375 54.828125 56.984375 36.375 
Q 56.984375 17.96875 50.515625 8.265625 
Q 44.046875 -1.421875 31.78125 -1.421875 
Q 19.53125 -1.421875 13.0625 8.265625 
Q 6.59375 17.96875 6.59375 36.375 
Q 6.59375 54.828125 13.0625 64.515625 
Q 19.53125 74.21875 31.78125 74.21875 
" id="BitstreamVeraSans-Roman-30"/>
       <path d="M 10.796875 72.90625 
L 49.515625 72.90625 
L 49.515625 64.59375 
L 19.828125 64.59375 
L 19.828125 46.734375 
Q 21.96875 47.46875 24.109375 47.828125 
Q 26.265625 48.1875 28.421875 48.1875 
Q 40.625 48.1875 47.75 41.5 
Q 54.890625 34.8125 54.890625 23.390625 
Q 54.890625 11.625 47.5625 5.09375 
Q 40.234375 -1.421875 26.90625 -1.421875 
Q 22.3125 -1.421875 17.546875 -0.640625 
Q 12.796875 0.140625 7.71875 1.703125 
L 7.71875 11.625 
Q 12.109375 9.234375 16.796875 8.0625 
Q 21.484375 6.890625 26.703125 6.890625 
Q 35.15625 6.890625 40.078125 11.328125 
Q 45.015625 15.765625 45.015625 23.390625 
Q 45.015625 31 40.078125 35.4375 
Q 35.15625 39.890625 26.703125 39.890625 
Q 22.75 39.890625 18.8125 39.015625 
Q 14.890625 38.140625 10.796875 36.28125 
z
" id="BitstreamVeraSans-Roman-35"/>
      </defs>
      <g style="fill:#555555;" transform="translate(63.4644804217 250.8375)scale(0.1 -0.1)">
       <use xlink:href="#BitstreamVeraSans-Roman-35"/>
       <use x="63.623046875" xlink:href="#BitstreamVeraSans-Roman-30"/>
      </g>
     </g>
    </g>
    <g id="xtick_2">
     <g id="line2d_4">
      <path clip-path="url(#p7f3cc39e76)" d="M 110.16433 235.239062 
L 110.16433 12.039062 
" style="fill:none;stroke:#ffffff;stroke-linecap:square;stroke-width:0.5;"/>
     </g>
     <g id="line2d_5">
      <g>
       <use style="fill:#555555;stroke:#555555;stroke-width:0.5;" x="110.164329819" xlink:href="#m2659720bcb" y="235.2390625"/>
      </g>
     </g>
     <g id="line2d_6">
      <g>
       <use style="fill:#555555;stroke:#555555;stroke-width:0.5;" x="110.164329819" xlink:href="#mdbe5ac79c0" y="12.0390625"/>
      </g>
     </g>
     <g id="text_2">
      <!-- 100 -->
      <defs>
       <path d="M 12.40625 8.296875 
L 28.515625 8.296875 
L 28.515625 63.921875 
L 10.984375 60.40625 
L 10.984375 69.390625 
L 28.421875 72.90625 
L 38.28125 72.90625 
L 38.28125 8.296875 
L 54.390625 8.296875 
L 54.390625 0 
L 12.40625 0 
z
" id="BitstreamVeraSans-Roman-31"/>
      </defs>
      <g style="fill:#555555;" transform="translate(100.620579819 250.8375)scale(0.1 -0.1)">
       <use xlink:href="#BitstreamVeraSans-Roman-31"/>
       <use x="63.623046875" xlink:href="#BitstreamVeraSans-Roman-30"/>
       <use x="127.24609375" xlink:href="#BitstreamVeraSans-Roman-30"/>
      </g>
     </g>
    </g>
    <g id="xtick_3">
     <g id="line2d_7">
      <path clip-path="url(#p7f3cc39e76)" d="M 150.501679 235.239062 
L 150.501679 12.039062 
" style="fill:none;stroke:#ffffff;stroke-linecap:square;stroke-width:0.5;"/>
     </g>
     <g id="line2d_8">
      <g>
       <use style="fill:#555555;stroke:#555555;stroke-width:0.5;" x="150.501679217" xlink:href="#m2659720bcb" y="235.2390625"/>
      </g>
     </g>
     <g id="line2d_9">
      <g>
       <use style="fill:#555555;stroke:#555555;stroke-width:0.5;" x="150.501679217" xlink:href="#mdbe5ac79c0" y="12.0390625"/>
      </g>
     </g>
     <g id="text_3">
      <!-- 150 -->
      <g style="fill:#555555;" transform="translate(140.957929217 250.8375)scale(0.1 -0.1)">
       <use xlink:href="#BitstreamVeraSans-Roman-31"/>
       <use x="63.623046875" xlink:href="#BitstreamVeraSans-Roman-35"/>
       <use x="127.24609375" xlink:href="#BitstreamVeraSans-Roman-30"/>
      </g>
     </g>
    </g>
    <g id="xtick_4">
     <g id="line2d_10">
      <path clip-path="url(#p7f3cc39e76)" d="M 190.839029 235.239062 
L 190.839029 12.039062 
" style="fill:none;stroke:#ffffff;stroke-linecap:square;stroke-width:0.5;"/>
     </g>
     <g id="line2d_11">
      <g>
       <use style="fill:#555555;stroke:#555555;stroke-width:0.5;" x="190.839028614" xlink:href="#m2659720bcb" y="235.2390625"/>
      </g>
     </g>
     <g id="line2d_12">
      <g>
       <use style="fill:#555555;stroke:#555555;stroke-width:0.5;" x="190.839028614" xlink:href="#mdbe5ac79c0" y="12.0390625"/>
      </g>
     </g>
     <g id="text_4">
      <!-- 200 -->
      <defs>
       <path d="M 19.1875 8.296875 
L 53.609375 8.296875 
L 53.609375 0 
L 7.328125 0 
L 7.328125 8.296875 
Q 12.9375 14.109375 22.625 23.890625 
Q 32.328125 33.6875 34.8125 36.53125 
Q 39.546875 41.84375 41.421875 45.53125 
Q 43.3125 49.21875 43.3125 52.78125 
Q 43.3125 58.59375 39.234375 62.25 
Q 35.15625 65.921875 28.609375 65.921875 
Q 23.96875 65.921875 18.8125 64.3125 
Q 13.671875 62.703125 7.8125 59.421875 
L 7.8125 69.390625 
Q 13.765625 71.78125 18.9375 73 
Q 24.125 74.21875 28.421875 74.21875 
Q 39.75 74.21875 46.484375 68.546875 
Q 53.21875 62.890625 53.21875 53.421875 
Q 53.21875 48.921875 51.53125 44.890625 
Q 49.859375 40.875 45.40625 35.40625 
Q 44.1875 33.984375 37.640625 27.21875 
Q 31.109375 20.453125 19.1875 8.296875 
" id="BitstreamVeraSans-Roman-32"/>
      </defs>
      <g style="fill:#555555;" transform="translate(181.295278614 250.8375)scale(0.1 -0.1)">
       <use xlink:href="#BitstreamVeraSans-Roman-32"/>
       <use x="63.623046875" xlink:href="#BitstreamVeraSans-Roman-30"/>
       <use x="127.24609375" xlink:href="#BitstreamVeraSans-Roman-30"/>
      </g>
     </g>
    </g>
    <g id="xtick_5">
     <g id="line2d_13">
      <path clip-path="url(#p7f3cc39e76)" d="M 231.176378 235.239062 
L 231.176378 12.039062 
" style="fill:none;stroke:#ffffff;stroke-linecap:square;stroke-width:0.5;"/>
     </g>
     <g id="line2d_14">
      <g>
       <use style="fill:#555555;stroke:#555555;stroke-width:0.5;" x="231.176378012" xlink:href="#m2659720bcb" y="235.2390625"/>
      </g>
     </g>
     <g id="line2d_15">
      <g>
       <use style="fill:#555555;stroke:#555555;stroke-width:0.5;" x="231.176378012" xlink:href="#mdbe5ac79c0" y="12.0390625"/>
      </g>
     </g>
     <g id="text_5">
      <!-- 250 -->
      <g style="fill:#555555;" transform="translate(221.632628012 250.8375)scale(0.1 -0.1)">
       <use xlink:href="#BitstreamVeraSans-Roman-32"/>
       <use x="63.623046875" xlink:href="#BitstreamVeraSans-Roman-35"/>
       <use x="127.24609375" xlink:href="#BitstreamVeraSans-Roman-30"/>
      </g>
     </g>
    </g>
    <g id="xtick_6">
     <g id="line2d_16">
      <path clip-path="url(#p7f3cc39e76)" d="M 271.513727 235.239062 
L 271.513727 12.039062 
" style="fill:none;stroke:#ffffff;stroke-linecap:square;stroke-width:0.5;"/>
     </g>
     <g id="line2d_17">
      <g>
       <use style="fill:#555555;stroke:#555555;stroke-width:0.5;" x="271.51372741" xlink:href="#m2659720bcb" y="235.2390625"/>
      </g>
     </g>
     <g id="line2d_18">
      <g>
       <use style="fill:#555555;stroke:#555555;stroke-width:0.5;" x="271.51372741" xlink:href="#mdbe5ac79c0" y="12.0390625"/>
      </g>
     </g>
     <g id="text_6">
      <!-- 300 -->
      <defs>
       <path d="M 40.578125 39.3125 
Q 47.65625 37.796875 51.625 33 
Q 55.609375 28.21875 55.609375 21.1875 
Q 55.609375 10.40625 48.1875 4.484375 
Q 40.765625 -1.421875 27.09375 -1.421875 
Q 22.515625 -1.421875 17.65625 -0.515625 
Q 12.796875 0.390625 7.625 2.203125 
L 7.625 11.71875 
Q 11.71875 9.328125 16.59375 8.109375 
Q 21.484375 6.890625 26.8125 6.890625 
Q 36.078125 6.890625 40.9375 10.546875 
Q 45.796875 14.203125 45.796875 21.1875 
Q 45.796875 27.640625 41.28125 31.265625 
Q 36.765625 34.90625 28.71875 34.90625 
L 20.21875 34.90625 
L 20.21875 43.015625 
L 29.109375 43.015625 
Q 36.375 43.015625 40.234375 45.921875 
Q 44.09375 48.828125 44.09375 54.296875 
Q 44.09375 59.90625 40.109375 62.90625 
Q 36.140625 65.921875 28.71875 65.921875 
Q 24.65625 65.921875 20.015625 65.03125 
Q 15.375 64.15625 9.8125 62.3125 
L 9.8125 71.09375 
Q 15.4375 72.65625 20.34375 73.4375 
Q 25.25 74.21875 29.59375 74.21875 
Q 40.828125 74.21875 47.359375 69.109375 
Q 53.90625 64.015625 53.90625 55.328125 
Q 53.90625 49.265625 50.4375 45.09375 
Q 46.96875 40.921875 40.578125 39.3125 
" id="BitstreamVeraSans-Roman-33"/>
      </defs>
      <g style="fill:#555555;" transform="translate(261.96997741 250.8375)scale(0.1 -0.1)">
       <use xlink:href="#BitstreamVeraSans-Roman-33"/>
       <use x="63.623046875" xlink:href="#BitstreamVeraSans-Roman-30"/>
       <use x="127.24609375" xlink:href="#BitstreamVeraSans-Roman-30"/>
      </g>
     </g>
    </g>
    <g id="xtick_7">
     <g id="line2d_19">
      <path clip-path="url(#p7f3cc39e76)" d="M 311.851077 235.239062 
L 311.851077 12.039062 
" style="fill:none;stroke:#ffffff;stroke-linecap:square;stroke-width:0.5;"/>
     </g>
     <g id="line2d_20">
      <g>
       <use style="fill:#555555;stroke:#555555;stroke-width:0.5;" x="311.851076807" xlink:href="#m2659720bcb" y="235.2390625"/>
      </g>
     </g>
     <g id="line2d_21">
      <g>
       <use style="fill:#555555;stroke:#555555;stroke-width:0.5;" x="311.851076807" xlink:href="#mdbe5ac79c0" y="12.0390625"/>
      </g>
     </g>
     <g id="text_7">
      <!-- 350 -->
      <g style="fill:#555555;" transform="translate(302.307326807 250.8375)scale(0.1 -0.1)">
       <use xlink:href="#BitstreamVeraSans-Roman-33"/>
       <use x="63.623046875" xlink:href="#BitstreamVeraSans-Roman-35"/>
       <use x="127.24609375" xlink:href="#BitstreamVeraSans-Roman-30"/>
      </g>
     </g>
    </g>
    <g id="xtick_8">
     <g id="line2d_22">
      <path clip-path="url(#p7f3cc39e76)" d="M 352.188426 235.239062 
L 352.188426 12.039062 
" style="fill:none;stroke:#ffffff;stroke-linecap:square;stroke-width:0.5;"/>
     </g>
     <g id="line2d_23">
      <g>
       <use style="fill:#555555;stroke:#555555;stroke-width:0.5;" x="352.188426205" xlink:href="#m2659720bcb" y="235.2390625"/>
      </g>
     </g>
     <g id="line2d_24">
      <g>
       <use style="fill:#555555;stroke:#555555;stroke-width:0.5;" x="352.188426205" xlink:href="#mdbe5ac79c0" y="12.0390625"/>
      </g>
     </g>
     <g id="text_8">
      <!-- 400 -->
      <defs>
       <path d="M 37.796875 64.3125 
L 12.890625 25.390625 
L 37.796875 25.390625 
z
M 35.203125 72.90625 
L 47.609375 72.90625 
L 47.609375 25.390625 
L 58.015625 25.390625 
L 58.015625 17.1875 
L 47.609375 17.1875 
L 47.609375 0 
L 37.796875 0 
L 37.796875 17.1875 
L 4.890625 17.1875 
L 4.890625 26.703125 
z
" id="BitstreamVeraSans-Roman-34"/>
      </defs>
      <g style="fill:#555555;" transform="translate(342.644676205 250.8375)scale(0.1 -0.1)">
       <use xlink:href="#BitstreamVeraSans-Roman-34"/>
       <use x="63.623046875" xlink:href="#BitstreamVeraSans-Roman-30"/>
       <use x="127.24609375" xlink:href="#BitstreamVeraSans-Roman-30"/>
      </g>
     </g>
    </g>
    <g id="text_9">
     <!-- x -->
     <defs>
      <path d="M 54.890625 54.6875 
L 35.109375 28.078125 
L 55.90625 0 
L 45.3125 0 
L 29.390625 21.484375 
L 13.484375 0 
L 2.875 0 
L 24.125 28.609375 
L 4.6875 54.6875 
L 15.28125 54.6875 
L 29.78125 35.203125 
L 44.28125 54.6875 
z
" id="BitstreamVeraSans-Roman-78"/>
     </defs>
     <g style="fill:#555555;" transform="translate(194.951875 267.0353125)scale(0.12 -0.12)">
      <use xlink:href="#BitstreamVeraSans-Roman-78"/>
     </g>
    </g>
   </g>
   <g id="matplotlib.axis_2">
    <g id="ytick_1">
     <g id="line2d_25">
      <path clip-path="url(#p7f3cc39e76)" d="M 31.103125 235.239062 
L 365.903125 235.239062 
" style="fill:none;stroke:#ffffff;stroke-linecap:square;stroke-width:0.5;"/>
     </g>
     <g id="line2d_26">
      <defs>
       <path d="M 0 0 
L -4 0 
" id="m5cc91343eb" style="stroke:#555555;stroke-width:0.5;"/>
      </defs>
      <g>
       <use style="fill:#555555;stroke:#555555;stroke-width:0.5;" x="31.103125" xlink:href="#m5cc91343eb" y="235.2390625"/>
      </g>
     </g>
     <g id="line2d_27">
      <defs>
       <path d="M 0 0 
L 4 0 
" id="m928e7befff" style="stroke:#555555;stroke-width:0.5;"/>
      </defs>
      <g>
       <use style="fill:#555555;stroke:#555555;stroke-width:0.5;" x="365.903125" xlink:href="#m928e7befff" y="235.2390625"/>
      </g>
     </g>
     <g id="text_10">
      <!-- 0.0 -->
      <defs>
       <path d="M 10.6875 12.40625 
L 21 12.40625 
L 21 0 
L 10.6875 0 
z
" id="BitstreamVeraSans-Roman-2e"/>
      </defs>
      <g style="fill:#555555;" transform="translate(7.2 237.9984375)scale(0.1 -0.1)">
       <use xlink:href="#BitstreamVeraSans-Roman-30"/>
       <use x="63.623046875" xlink:href="#BitstreamVeraSans-Roman-2e"/>
       <use x="95.41015625" xlink:href="#BitstreamVeraSans-Roman-30"/>
      </g>
     </g>
    </g>
    <g id="ytick_2">
     <g id="line2d_28">
      <path clip-path="url(#p7f3cc39e76)" d="M 31.103125 190.599063 
L 365.903125 190.599063 
" style="fill:none;stroke:#ffffff;stroke-linecap:square;stroke-width:0.5;"/>
     </g>
     <g id="line2d_29">
      <g>
       <use style="fill:#555555;stroke:#555555;stroke-width:0.5;" x="31.103125" xlink:href="#m5cc91343eb" y="190.5990625"/>
      </g>
     </g>
     <g id="line2d_30">
      <g>
       <use style="fill:#555555;stroke:#555555;stroke-width:0.5;" x="365.903125" xlink:href="#m928e7befff" y="190.5990625"/>
      </g>
     </g>
     <g id="text_11">
      <!-- 0.2 -->
      <g style="fill:#555555;" transform="translate(7.2 193.3584375)scale(0.1 -0.1)">
       <use xlink:href="#BitstreamVeraSans-Roman-30"/>
       <use x="63.623046875" xlink:href="#BitstreamVeraSans-Roman-2e"/>
       <use x="95.41015625" xlink:href="#BitstreamVeraSans-Roman-32"/>
      </g>
     </g>
    </g>
    <g id="ytick_3">
     <g id="line2d_31">
      <path clip-path="url(#p7f3cc39e76)" d="M 31.103125 145.959062 
L 365.903125 145.959062 
" style="fill:none;stroke:#ffffff;stroke-linecap:square;stroke-width:0.5;"/>
     </g>
     <g id="line2d_32">
      <g>
       <use style="fill:#555555;stroke:#555555;stroke-width:0.5;" x="31.103125" xlink:href="#m5cc91343eb" y="145.9590625"/>
      </g>
     </g>
     <g id="line2d_33">
      <g>
       <use style="fill:#555555;stroke:#555555;stroke-width:0.5;" x="365.903125" xlink:href="#m928e7befff" y="145.9590625"/>
      </g>
     </g>
     <g id="text_12">
      <!-- 0.4 -->
      <g style="fill:#555555;" transform="translate(7.2 148.7184375)scale(0.1 -0.1)">
       <use xlink:href="#BitstreamVeraSans-Roman-30"/>
       <use x="63.623046875" xlink:href="#BitstreamVeraSans-Roman-2e"/>
       <use x="95.41015625" xlink:href="#BitstreamVeraSans-Roman-34"/>
      </g>
     </g>
    </g>
    <g id="ytick_4">
     <g id="line2d_34">
      <path clip-path="url(#p7f3cc39e76)" d="M 31.103125 101.319062 
L 365.903125 101.319062 
" style="fill:none;stroke:#ffffff;stroke-linecap:square;stroke-width:0.5;"/>
     </g>
     <g id="line2d_35">
      <g>
       <use style="fill:#555555;stroke:#555555;stroke-width:0.5;" x="31.103125" xlink:href="#m5cc91343eb" y="101.3190625"/>
      </g>
     </g>
     <g id="line2d_36">
      <g>
       <use style="fill:#555555;stroke:#555555;stroke-width:0.5;" x="365.903125" xlink:href="#m928e7befff" y="101.3190625"/>
      </g>
     </g>
     <g id="text_13">
      <!-- 0.6 -->
      <defs>
       <path d="M 33.015625 40.375 
Q 26.375 40.375 22.484375 35.828125 
Q 18.609375 31.296875 18.609375 23.390625 
Q 18.609375 15.53125 22.484375 10.953125 
Q 26.375 6.390625 33.015625 6.390625 
Q 39.65625 6.390625 43.53125 10.953125 
Q 47.40625 15.53125 47.40625 23.390625 
Q 47.40625 31.296875 43.53125 35.828125 
Q 39.65625 40.375 33.015625 40.375 
M 52.59375 71.296875 
L 52.59375 62.3125 
Q 48.875 64.0625 45.09375 64.984375 
Q 41.3125 65.921875 37.59375 65.921875 
Q 27.828125 65.921875 22.671875 59.328125 
Q 17.53125 52.734375 16.796875 39.40625 
Q 19.671875 43.65625 24.015625 45.921875 
Q 28.375 48.1875 33.59375 48.1875 
Q 44.578125 48.1875 50.953125 41.515625 
Q 57.328125 34.859375 57.328125 23.390625 
Q 57.328125 12.15625 50.6875 5.359375 
Q 44.046875 -1.421875 33.015625 -1.421875 
Q 20.359375 -1.421875 13.671875 8.265625 
Q 6.984375 17.96875 6.984375 36.375 
Q 6.984375 53.65625 15.1875 63.9375 
Q 23.390625 74.21875 37.203125 74.21875 
Q 40.921875 74.21875 44.703125 73.484375 
Q 48.484375 72.75 52.59375 71.296875 
" id="BitstreamVeraSans-Roman-36"/>
      </defs>
      <g style="fill:#555555;" transform="translate(7.2 104.0784375)scale(0.1 -0.1)">
       <use xlink:href="#BitstreamVeraSans-Roman-30"/>
       <use x="63.623046875" xlink:href="#BitstreamVeraSans-Roman-2e"/>
       <use x="95.41015625" xlink:href="#BitstreamVeraSans-Roman-36"/>
      </g>
     </g>
    </g>
    <g id="ytick_5">
     <g id="line2d_37">
      <path clip-path="url(#p7f3cc39e76)" d="M 31.103125 56.679062 
L 365.903125 56.679062 
" style="fill:none;stroke:#ffffff;stroke-linecap:square;stroke-width:0.5;"/>
     </g>
     <g id="line2d_38">
      <g>
       <use style="fill:#555555;stroke:#555555;stroke-width:0.5;" x="31.103125" xlink:href="#m5cc91343eb" y="56.6790625"/>
      </g>
     </g>
     <g id="line2d_39">
      <g>
       <use style="fill:#555555;stroke:#555555;stroke-width:0.5;" x="365.903125" xlink:href="#m928e7befff" y="56.6790625"/>
      </g>
     </g>
     <g id="text_14">
      <!-- 0.8 -->
      <defs>
       <path d="M 31.78125 34.625 
Q 24.75 34.625 20.71875 30.859375 
Q 16.703125 27.09375 16.703125 20.515625 
Q 16.703125 13.921875 20.71875 10.15625 
Q 24.75 6.390625 31.78125 6.390625 
Q 38.8125 6.390625 42.859375 10.171875 
Q 46.921875 13.96875 46.921875 20.515625 
Q 46.921875 27.09375 42.890625 30.859375 
Q 38.875 34.625 31.78125 34.625 
M 21.921875 38.8125 
Q 15.578125 40.375 12.03125 44.71875 
Q 8.5 49.078125 8.5 55.328125 
Q 8.5 64.0625 14.71875 69.140625 
Q 20.953125 74.21875 31.78125 74.21875 
Q 42.671875 74.21875 48.875 69.140625 
Q 55.078125 64.0625 55.078125 55.328125 
Q 55.078125 49.078125 51.53125 44.71875 
Q 48 40.375 41.703125 38.8125 
Q 48.828125 37.15625 52.796875 32.3125 
Q 56.78125 27.484375 56.78125 20.515625 
Q 56.78125 9.90625 50.3125 4.234375 
Q 43.84375 -1.421875 31.78125 -1.421875 
Q 19.734375 -1.421875 13.25 4.234375 
Q 6.78125 9.90625 6.78125 20.515625 
Q 6.78125 27.484375 10.78125 32.3125 
Q 14.796875 37.15625 21.921875 38.8125 
M 18.3125 54.390625 
Q 18.3125 48.734375 21.84375 45.5625 
Q 25.390625 42.390625 31.78125 42.390625 
Q 38.140625 42.390625 41.71875 45.5625 
Q 45.3125 48.734375 45.3125 54.390625 
Q 45.3125 60.0625 41.71875 63.234375 
Q 38.140625 66.40625 31.78125 66.40625 
Q 25.390625 66.40625 21.84375 63.234375 
Q 18.3125 60.0625 18.3125 54.390625 
" id="BitstreamVeraSans-Roman-38"/>
      </defs>
      <g style="fill:#555555;" transform="translate(7.2 59.4384375)scale(0.1 -0.1)">
       <use xlink:href="#BitstreamVeraSans-Roman-30"/>
       <use x="63.623046875" xlink:href="#BitstreamVeraSans-Roman-2e"/>
       <use x="95.41015625" xlink:href="#BitstreamVeraSans-Roman-38"/>
      </g>
     </g>
    </g>
    <g id="ytick_6">
     <g id="line2d_40">
      <path clip-path="url(#p7f3cc39e76)" d="M 31.103125 12.039062 
L 365.903125 12.039062 
" style="fill:none;stroke:#ffffff;stroke-linecap:square;stroke-width:0.5;"/>
     </g>
     <g id="line2d_41">
      <g>
       <use style="fill:#555555;stroke:#555555;stroke-width:0.5;" x="31.103125" xlink:href="#m5cc91343eb" y="12.0390625"/>
      </g>
     </g>
     <g id="line2d_42">
      <g>
       <use style="fill:#555555;stroke:#555555;stroke-width:0.5;" x="365.903125" xlink:href="#m928e7befff" y="12.0390625"/>
      </g>
     </g>
     <g id="text_15">
      <!-- 1.0 -->
      <g style="fill:#555555;" transform="translate(7.2 14.7984375)scale(0.1 -0.1)">
       <use xlink:href="#BitstreamVeraSans-Roman-31"/>
       <use x="63.623046875" xlink:href="#BitstreamVeraSans-Roman-2e"/>
       <use x="95.41015625" xlink:href="#BitstreamVeraSans-Roman-30"/>
      </g>
     </g>
    </g>
   </g>
   <g id="line2d_43">
    <path clip-path="url(#p7f3cc39e76)" d="M 31.103125 235.239062 
L 31.909872 235.239062 
L 31.909872 160.839063 
L 31.909872 179.439062 
L 32.716619 190.599063 
L 32.716619 207.339062 
L 33.523366 185.639062 
L 33.523366 168.279063 
L 33.523366 174.366335 
L 34.330113 160.839063 
L 34.330113 149.392909 
L 34.330113 155.524777 
L 34.330113 155.524777 
L 34.330113 160.839063 
L 34.330113 160.839063 
L 34.330113 160.839063 
L 34.330113 151.539062 
L 34.330113 156.462592 
L 35.13686 160.839063 
L 35.13686 132.939062 
L 35.943607 128.103062 
L 35.943607 111.891694 
L 35.943607 115.473209 
L 36.750354 113.010491 
L 36.750354 106.279063 
L 36.750354 111.766722 
L 36.750354 111.766722 
L 36.750354 114.339062 
L 37.557101 112.251307 
L 37.557101 106.469832 
L 37.557101 111.68192 
L 37.557101 111.68192 
L 37.557101 120.039062 
L 38.363848 118.324777 
L 38.363848 116.664062 
L 38.363848 116.664062 
L 38.363848 116.664062 
L 38.363848 120.257244 
L 39.170595 118.642048 
L 39.170595 120.450491 
L 39.170595 118.92357 
L 39.170595 118.92357 
L 39.170595 115.995227 
L 39.170595 117.60663 
L 39.977342 119.175062 
L 39.977342 115.054447 
L 39.977342 115.473209 
L 40.784089 114.227014 
L 40.784089 107.364063 
L 40.784089 112.479062 
L 41.590836 111.484607 
L 41.590836 110.509651 
L 41.590836 110.509651 
L 41.590836 110.509651 
L 41.590836 111.720616 
L 41.590836 110.762139 
L 41.590836 110.762139 
L 41.590836 107.994203 
L 41.590836 108.281264 
L 42.397583 109.435426 
L 42.397583 104.397683 
L 42.397583 106.615334 
L 43.20433 105.820575 
L 43.20433 105.039062 
L 43.20433 105.039062 
L 43.20433 105.039062 
L 43.20433 110.247062 
L 44.011077 111.239062 
L 44.011077 112.392551 
L 44.817824 113.337524 
L 44.817824 117.169497 
L 45.624571 116.413163 
L 45.624571 118.324777 
L 46.431318 117.60663 
L 46.431318 116.898123 
L 46.431318 116.898123 
L 46.431318 116.898123 
L 46.431318 122.928234 
L 46.431318 122.226404 
L 47.238065 121.533402 
L 47.238065 125.000038 
L 47.238065 124.315426 
L 48.044812 124.983641 
L 48.044812 126.296205 
L 48.851559 126.940838 
L 48.851559 129.979972 
L 49.658306 130.574656 
L 49.658306 135.100684 
L 50.465053 135.639062 
L 50.465053 136.171683 
L 50.465053 136.171683 
L 50.465053 136.171683 
L 50.465053 135.511403 
L 50.465053 136.039062 
L 50.465053 136.039062 
L 50.465053 136.561168 
L 50.465053 136.561168 
L 50.465053 136.561168 
L 50.465053 135.90922 
L 51.2718 136.426562 
L 51.2718 139.902379 
L 51.2718 139.263062 
L 52.078547 139.740555 
L 52.078547 140.681427 
L 52.078547 140.51516 
L 52.885294 140.974985 
L 52.885294 143.208731 
L 53.692041 143.642836 
L 53.692041 145.753348 
L 54.498788 146.163833 
L 54.498788 147.768792 
L 55.305535 148.161036 
L 55.305535 147.553348 
L 55.305535 147.943062 
L 55.305535 147.943062 
L 55.305535 150.576994 
L 56.112282 150.94035 
L 56.112282 150.346755 
L 56.112282 150.707999 
L 56.112282 150.707999 
L 56.112282 151.066181 
L 56.112282 151.066181 
L 56.112282 151.066181 
L 56.112282 150.479569 
L 56.112282 150.835701 
L 56.112282 150.835701 
L 56.112282 152.911194 
L 56.919029 153.247226 
L 56.919029 153.580526 
L 56.919029 153.580526 
L 56.919029 153.580526 
L 56.919029 152.771593 
L 56.919029 153.428704 
L 56.919029 153.428704 
L 56.919029 154.075426 
L 57.725776 154.394968 
L 57.725776 156.86349 
L 58.532523 157.161496 
L 58.532523 158.331197 
L 59.33927 158.618167 
L 59.33927 159.466369 
L 60.146017 159.744945 
L 60.146017 161.107655 
L 60.146017 160.839063 
L 60.952764 161.10196 
L 60.952764 162.13523 
L 61.759511 162.389062 
L 61.759511 163.387008 
L 62.566258 163.632237 
L 62.566258 164.357981 
L 63.373005 164.596638 
L 63.373005 165.069163 
L 63.373005 165.069163 
L 63.373005 165.069163 
L 63.373005 164.559062 
L 63.373005 165.027142 
L 63.373005 165.027142 
L 63.373005 165.489062 
L 64.179752 165.717751 
L 64.179752 166.617703 
L 64.179752 166.119062 
L 64.986498 166.341313 
L 64.986498 168.069157 
L 65.793245 168.279063 
L 65.793245 169.511455 
L 66.599992 169.712457 
L 66.599992 171.085769 
L 67.406739 171.277271 
L 67.406739 172.769092 
L 68.213486 172.95069 
L 68.213486 174.192909 
L 69.020233 174.366335 
L 69.020233 175.050298 
L 69.82698 175.218894 
L 69.82698 175.719063 
L 70.633727 175.883938 
L 70.633727 177.039062 
L 71.440474 177.195095 
L 71.440474 178.413866 
L 72.247221 178.562623 
L 72.247221 179.725216 
L 73.053968 179.867195 
L 73.053968 180.70405 
L 73.860715 180.841073 
L 73.860715 182.174357 
L 74.667462 182.304099 
L 74.667462 183.812934 
L 75.474209 183.934797 
L 75.474209 185.006116 
L 75.474209 184.722665 
L 76.280956 184.839062 
L 76.280956 186.414062 
L 77.087703 186.631062 
L 77.087703 187.480111 
L 77.89445 187.687758 
L 77.89445 188.300007 
L 78.701197 188.500601 
L 78.701197 189.763803 
L 79.507944 189.952106 
L 79.507944 191.227795 
L 80.314691 191.404193 
L 80.314691 193.174447 
L 81.121438 193.335614 
L 81.121438 194.732396 
L 81.928185 194.881867 
L 81.928185 195.612976 
L 82.734932 195.75603 
L 82.734932 196.931532 
L 83.541679 197.065241 
L 83.541679 198.47671 
L 84.348426 198.599867 
L 84.348426 199.321821 
L 85.155173 199.43939 
L 85.155173 200.463864 
L 85.96192 200.164777 
L 85.96192 200.275771 
L 85.96192 201.139062 
L 86.768667 201.296205 
L 86.768667 201.606186 
L 87.575414 201.759062 
L 87.575414 202.258764 
L 88.382161 202.405779 
L 88.382161 203.26106 
L 89.188908 203.399293 
L 89.188908 203.984748 
L 89.995655 204.116809 
L 89.995655 204.634076 
L 90.802402 204.760718 
L 90.802402 205.297599 
L 91.609149 205.41882 
L 91.609149 205.539062 
L 91.609149 205.539062 
L 91.609149 205.539062 
L 91.609149 205.279331 
L 91.609149 205.51869 
L 91.609149 205.51869 
L 91.609149 205.676149 
L 92.415896 205.793152 
L 92.415896 206.364548 
L 93.222643 206.476176 
L 93.222643 206.985898 
L 94.02939 207.128231 
L 94.02939 207.683507 
L 94.836137 207.818915 
L 94.836137 208.249945 
L 95.642884 208.379857 
L 95.642884 208.824861 
L 96.449631 208.94931 
L 96.449631 209.524777 
L 97.256378 209.642732 
L 97.256378 210.160411 
L 98.063125 210.27262 
L 98.063125 210.630463 
L 98.869872 210.765378 
L 98.869872 211.187338 
L 99.676619 211.316233 
L 99.676619 212.085536 
L 100.483366 212.205007 
L 100.483366 212.486769 
L 101.290113 212.602146 
L 101.290113 213.030107 
L 102.09686 213.161911 
L 102.09686 213.673845 
L 102.903607 213.79814 
L 102.903607 214.281316 
L 103.710354 214.398726 
L 103.710354 214.648657 
L 104.517101 214.761998 
L 104.517101 215.058231 
L 105.323848 215.185154 
L 105.323848 215.625706 
L 106.130595 215.745613 
L 106.130595 216.129473 
L 106.937342 216.243318 
L 106.937342 216.716241 
L 107.744089 216.838403 
L 107.744089 217.077956 
L 108.550836 217.195408 
L 108.550836 217.580835 
L 109.357583 217.705677 
L 109.357583 218.056614 
L 110.16433 218.174842 
L 110.16433 218.406483 
L 110.971077 218.519961 
L 110.971077 218.803127 
L 111.777824 218.923273 
L 111.777824 219.20458 
L 112.584571 219.318948 
L 112.584571 219.641578 
L 113.391318 219.76056 
L 113.391318 220.024339 
L 114.198065 220.137574 
L 114.198065 220.398637 
L 115.004812 220.516107 
L 115.004812 220.679376 
L 115.811559 220.792461 
L 115.811559 221.004369 
L 116.618306 221.121415 
L 116.618306 221.306478 
L 117.425053 221.418629 
L 117.425053 221.596031 
L 118.2318 221.71179 
L 118.2318 221.905729 
L 119.038547 222.024142 
L 119.038547 222.148153 
L 119.845294 222.262318 
L 119.845294 222.513863 
L 120.652041 222.628893 
L 120.652041 222.927976 
L 121.458788 223.042341 
L 121.458788 223.226145 
L 122.265535 223.341408 
L 122.265535 223.571525 
L 123.072282 223.686267 
L 123.072282 223.83385 
L 123.879029 223.949229 
L 123.879029 224.140107 
L 124.685776 224.254811 
L 124.685776 224.404111 
L 125.492523 224.518601 
L 125.492523 224.675882 
L 126.29927 224.789624 
L 126.29927 224.905729 
L 127.106017 225.019282 
L 127.106017 225.171404 
L 127.912764 225.283666 
L 127.912764 225.393452 
L 128.719511 225.50509 
L 128.719511 225.67608 
L 129.526258 225.789444 
L 129.526258 225.919647 
L 130.333005 226.031142 
L 130.333005 226.165892 
L 131.139752 226.278806 
L 131.139752 226.360781 
L 131.946498 226.47237 
L 131.946498 226.557616 
L 132.753245 226.670924 
L 132.753245 226.787718 
L 133.559992 226.901371 
L 133.559992 226.9632 
L 134.366739 227.0752 
L 134.366739 227.16673 
L 135.173486 227.279005 
L 135.173486 227.388201 
L 135.980233 227.499811 
L 135.980233 227.571594 
L 136.78698 227.683206 
L 136.78698 227.739062 
L 137.593727 227.85078 
L 137.593727 227.925825 
L 138.400474 228.039062 
L 138.400474 228.11035 
L 139.207221 228.222401 
L 139.207221 228.279287 
L 140.013968 228.392437 
L 140.013968 228.432109 
L 140.820715 228.544401 
L 140.820715 228.615917 
L 141.627462 228.727977 
L 141.627462 228.767622 
L 142.434209 228.880088 
L 142.434209 228.948194 
L 143.240956 229.059661 
L 143.240956 229.088608 
L 144.047703 229.200101 
L 144.047703 229.201735 
L 144.85445 229.313923 
L 144.85445 229.329611 
L 145.661197 229.44166 
L 145.661197 229.47013 
L 146.467944 229.582702 
L 146.467944 229.616896 
L 147.274691 229.729312 
L 147.274691 229.746937 
L 148.081438 229.858156 
L 148.081438 229.865928 
L 148.888185 229.977393 
L 148.888185 229.984825 
L 149.694932 230.096205 
L 149.694932 230.128002 
L 150.501679 230.240182 
L 150.501679 230.245774 
L 152.115173 230.35824 
L 152.115173 230.459619 
L 153.728667 230.572535 
L 153.728667 230.672778 
L 154.535414 230.783973 
L 154.535414 230.784862 
L 156.148908 230.897495 
L 156.148908 230.945929 
L 157.762402 231.058504 
L 157.762402 231.106494 
L 159.375896 231.21889 
L 159.375896 231.261871 
L 160.98939 231.374127 
L 160.98939 231.400053 
L 162.602884 231.51223 
L 162.602884 231.536342 
L 164.216378 231.648329 
L 164.216378 231.664431 
L 166.636619 231.776987 
L 166.636619 231.828305 
L 169.05686 231.940703 
L 169.05686 231.982095 
L 171.477101 232.094515 
L 171.477101 232.11913 
L 173.897342 232.231382 
L 173.897342 232.255903 
L 177.12433 232.368323 
L 177.12433 232.401534 
L 179.544571 232.513455 
L 179.544571 232.516447 
L 182.771559 232.628841 
L 182.771559 232.647932 
L 186.805294 232.76044 
L 186.805294 232.774398 
L 191.645776 232.887113 
L 191.645776 232.896493 
L 196.486258 233.009069 
L 196.486258 233.00996 
L 202.940233 233.122821 
L 202.940233 233.134395 
L 211.007703 233.24745 
L 211.007703 233.248871 
L 220.688667 233.362013 
L 220.688667 233.365322 
L 234.403366 233.479088 
L 234.403366 233.48255 
L 256.992282 233.597524 
L 256.992282 233.599333 
L 299.749872 233.71676 
L 299.749872 233.718834 
L 365.903125 233.807651 
L 365.903125 233.807651 
" style="fill:none;stroke:#e24a33;stroke-linecap:square;"/>
   </g>
   <g id="line2d_44">
    <path clip-path="url(#p7f3cc39e76)" d="M 31.103125 235.239062 
L 31.909872 235.239062 
L 31.909872 233.007062 
L 31.909872 233.007062 
L 32.716619 233.007062 
L 32.716619 233.007062 
L 33.523366 230.775062 
L 33.523366 228.543062 
L 33.523366 228.543062 
L 34.330113 226.311062 
L 34.330113 221.847062 
L 34.330113 221.847062 
L 35.13686 221.847062 
L 35.13686 210.687062 
L 35.943607 208.455062 
L 35.943607 186.135063 
L 36.750354 183.903062 
L 36.750354 177.207063 
L 36.750354 177.207063 
L 37.557101 174.975062 
L 37.557101 163.815063 
L 37.557101 163.815063 
L 38.363848 161.583062 
L 38.363848 159.351062 
L 38.363848 159.351062 
L 39.170595 157.119062 
L 39.170595 157.119062 
L 39.170595 148.191062 
L 39.170595 148.191062 
L 39.977342 148.191062 
L 39.977342 137.031062 
L 40.784089 134.799062 
L 40.784089 112.479062 
L 40.784089 112.479062 
L 41.590836 110.247062 
L 41.590836 96.855063 
L 42.397583 96.855063 
L 42.397583 83.463062 
L 42.397583 83.463062 
L 43.20433 81.231063 
L 43.20433 78.999063 
L 43.20433 78.999063 
L 44.011077 78.999063 
L 44.011077 78.999063 
L 44.011077 76.767063 
L 44.011077 76.767063 
L 44.817824 76.767063 
L 44.817824 76.767063 
L 44.817824 72.303063 
L 44.817824 72.303063 
L 45.624571 70.071063 
L 45.624571 70.071063 
L 45.624571 63.375062 
L 45.624571 63.375062 
L 46.431318 61.143062 
L 46.431318 56.679062 
L 47.238065 54.447062 
L 47.238065 54.447062 
L 47.238065 52.215063 
L 48.851559 52.215063 
L 48.851559 52.215063 
L 48.851559 49.983063 
L 48.851559 49.983063 
L 50.465053 49.983063 
L 50.465053 49.983063 
L 50.465053 45.519062 
L 51.2718 45.519062 
L 51.2718 45.519062 
L 51.2718 43.287062 
L 52.078547 43.287062 
L 52.078547 43.287062 
L 52.078547 41.055062 
L 52.078547 41.055062 
L 55.305535 41.055062 
L 55.305535 38.823062 
L 55.305535 38.823062 
L 56.112282 38.823062 
L 56.112282 34.359062 
L 56.112282 34.359062 
L 56.919029 34.359062 
L 56.919029 29.895062 
L 56.919029 29.895062 
L 60.146017 29.895062 
L 60.146017 29.895062 
L 60.146017 25.431063 
L 60.146017 25.431063 
L 63.373005 25.431063 
L 63.373005 25.431063 
L 63.373005 23.199062 
L 63.373005 23.199062 
L 64.179752 23.199062 
L 64.179752 23.199062 
L 64.179752 20.967062 
L 70.633727 20.967062 
L 70.633727 20.967062 
L 70.633727 18.735062 
L 70.633727 18.735062 
L 75.474209 18.735062 
L 75.474209 18.735062 
L 75.474209 16.503062 
L 75.474209 16.503062 
L 85.155173 16.503062 
L 85.155173 16.503062 
L 85.96192 14.271062 
L 85.96192 14.271062 
L 91.609149 14.271062 
L 91.609149 14.271062 
L 91.609149 12.039062 
L 91.609149 12.039062 
L 365.903125 12.039062 
L 365.903125 12.039062 
" style="fill:none;stroke:#348abd;stroke-linecap:square;"/>
   </g>
   <g id="line2d_45">
    <path clip-path="url(#p7f3cc39e76)" d="M 31.103125 235.239062 
L 31.909872 235.239062 
L 31.909872 230.905082 
L 31.909872 230.946755 
L 32.716619 231.0671 
L 32.716619 231.105729 
L 33.523366 227.048237 
L 33.523366 223.064517 
L 33.523366 223.174198 
L 34.330113 219.296205 
L 34.330113 212.149407 
L 34.330113 212.346755 
L 35.13686 212.540757 
L 35.13686 195.639062 
L 35.943607 192.384662 
L 35.943607 165.587999 
L 36.750354 162.934837 
L 36.750354 155.194925 
L 36.750354 156.817441 
L 37.557101 154.347787 
L 37.557101 145.959063 
L 37.557101 147.061285 
L 38.363848 144.863602 
L 38.363848 142.692721 
L 38.363848 143.807737 
L 39.170595 141.682176 
L 39.170595 142.239062 
L 39.170595 142.239062 
L 39.170595 142.239062 
L 39.170595 134.605536 
L 39.170595 135.18389 
L 39.977342 135.755634 
L 39.977342 127.318183 
L 40.784089 125.468571 
L 40.784089 109.973756 
L 40.784089 112.479062 
L 41.590836 110.868913 
L 41.590836 102.814182 
L 42.397583 103.444777 
L 42.397583 94.705729 
L 42.397583 95.995026 
L 43.20433 94.592487 
L 43.20433 93.202699 
L 43.20433 94.482306 
L 43.20433 94.482306 
L 43.20433 96.359062 
L 44.011077 96.973576 
L 44.011077 97.582675 
L 44.011077 97.582675 
L 44.011077 97.582675 
L 44.011077 96.228536 
L 44.011077 96.835569 
L 44.817824 97.437323 
L 44.817824 98.625269 
L 44.817824 98.625269 
L 44.817824 98.625269 
L 44.817824 97.295715 
L 44.817824 98.469701 
L 44.817824 98.469701 
L 44.817824 99.049232 
L 44.817824 99.049232 
L 44.817824 99.049232 
L 44.817824 97.740328 
L 44.817824 98.318054 
L 45.624571 97.023163 
L 45.624571 97.599063 
L 45.624571 97.599063 
L 45.624571 97.599063 
L 45.624571 94.94192 
L 45.624571 96.077929 
L 46.431318 94.839062 
L 46.431318 93.610147 
L 46.431318 94.738664 
L 46.431318 94.738664 
L 46.431318 98.018829 
L 46.431318 96.820458 
L 47.238065 95.63134 
L 47.238065 98.275426 
L 47.238065 97.107742 
L 48.044812 97.627032 
L 48.044812 98.653988 
L 48.851559 99.161739 
L 48.851559 100.995584 
L 49.658306 101.480218 
L 49.658306 105.234852 
L 50.465053 105.689412 
L 50.465053 106.140805 
L 50.465053 106.140805 
L 50.465053 106.140805 
L 50.465053 104.84731 
L 51.2718 105.293857 
L 51.2718 108.336052 
L 51.2718 107.271063 
L 52.078547 107.696205 
L 52.078547 108.538072 
L 52.078547 108.538072 
L 52.078547 108.538072 
L 52.078547 107.486431 
L 52.078547 107.905292 
L 52.885294 108.321415 
L 52.885294 110.361892 
L 53.692041 110.762139 
L 53.692041 112.725498 
L 54.498788 113.110761 
L 54.498788 114.627882 
L 55.305535 115.001292 
L 55.305535 113.994618 
L 55.305535 114.738449 
L 55.305535 114.738449 
L 55.305535 116.916171 
L 56.112282 117.271495 
L 56.112282 116.022445 
L 56.112282 117.074357 
L 56.112282 117.074357 
L 56.112282 118.448365 
L 56.919029 118.786889 
L 56.919029 119.123456 
L 56.919029 119.123456 
L 56.919029 119.123456 
L 56.919029 117.563418 
L 56.919029 118.896853 
L 57.725776 119.225503 
L 57.725776 121.789339 
L 58.532523 122.101872 
L 58.532523 123.334975 
L 59.33927 123.639062 
L 59.33927 124.541488 
L 60.146017 124.839062 
L 60.146017 126.303253 
L 60.146017 125.410491 
L 60.146017 125.410491 
L 60.146017 124.52244 
L 60.146017 125.391942 
L 60.952764 125.678749 
L 60.952764 126.811156 
L 61.759511 127.090609 
L 61.759511 128.194165 
L 62.566258 128.466543 
L 62.566258 129.275426 
L 63.373005 129.542337 
L 63.373005 130.072145 
L 63.373005 130.072145 
L 63.373005 130.072145 
L 63.373005 129.219063 
L 63.373005 130.008293 
L 63.373005 130.008293 
L 63.373005 130.268765 
L 64.179752 130.527951 
L 64.179752 131.552021 
L 64.179752 130.716136 
L 64.986498 130.970449 
L 64.986498 132.961258 
L 65.793245 133.204777 
L 65.793245 134.641879 
L 66.599992 134.87747 
L 66.599992 136.496205 
L 67.406739 136.7232 
L 67.406739 138.502268 
L 68.213486 138.720144 
L 68.213486 140.21822 
L 69.020233 140.428443 
L 69.020233 141.260115 
L 69.82698 141.465758 
L 69.82698 142.077323 
L 70.633727 142.27941 
L 70.633727 143.500079 
L 71.440474 143.694031 
L 71.440474 145.216609 
L 72.247221 145.403378 
L 72.247221 146.870083 
L 73.053968 147.05006 
L 73.053968 148.114716 
L 73.860715 148.289665 
L 73.860715 150.001267 
L 74.667462 150.168729 
L 74.667462 152.128122 
L 75.474209 152.287338 
L 75.474209 153.6933 
L 75.474209 153.161764 
L 76.280956 153.315467 
L 76.280956 155.408406 
L 77.087703 155.553817 
L 77.087703 156.839062 
L 77.89445 156.979313 
L 77.89445 157.94719 
L 78.701197 158.083507 
L 78.701197 159.942677 
L 79.507944 160.072052 
L 79.507944 161.960671 
L 80.314691 162.08321 
L 80.314691 164.679062 
L 81.121438 164.792686 
L 81.121438 166.884062 
L 81.928185 167.097006 
L 81.928185 168.14213 
L 82.734932 168.347319 
L 82.734932 170.042043 
L 83.541679 170.235794 
L 83.541679 172.293451 
L 84.348426 172.47407 
L 84.348426 173.536383 
L 85.155173 173.709949 
L 85.155173 175.229186 
L 85.96192 174.699884 
L 85.96192 174.782701 
L 85.96192 176.15671 
L 86.768667 176.314262 
L 86.768667 176.859142 
L 87.575414 177.012976 
L 87.575414 177.844777 
L 88.382161 177.993467 
L 88.382161 179.368519 
L 89.188908 179.509428 
L 89.188908 180.476237 
L 89.995655 180.611621 
L 89.995655 181.475559 
L 90.802402 181.606053 
L 90.802402 182.50207 
L 91.609149 182.627634 
L 91.609149 182.876977 
L 91.609149 182.876977 
L 91.609149 182.876977 
L 91.609149 182.41066 
L 91.609149 182.844696 
L 91.609149 182.844696 
L 91.609149 183.028536 
L 92.415896 183.150381 
L 92.415896 184.105042 
L 93.222643 184.22192 
L 93.222643 185.081759 
L 94.02939 185.194219 
L 94.02939 186.184117 
L 94.836137 186.345306 
L 94.836137 187.083723 
L 95.642884 187.239062 
L 95.642884 188.000967 
L 96.449631 188.150455 
L 96.449631 189.12336 
L 97.256378 189.265839 
L 97.256378 190.148153 
L 98.063125 190.28438 
L 98.063125 190.90937 
L 98.869872 191.041043 
L 98.869872 191.814938 
L 99.676619 191.941293 
L 99.676619 193.284175 
L 100.483366 193.402137 
L 100.483366 193.943965 
L 101.290113 194.058251 
L 101.290113 194.840872 
L 102.09686 194.986583 
L 102.09686 195.908666 
L 102.903607 196.046789 
L 102.903607 196.921466 
L 103.710354 197.052578 
L 103.710354 197.53636 
L 104.517101 197.663305 
L 104.517101 198.224137 
L 105.323848 198.346501 
L 105.323848 199.180904 
L 106.130595 199.297034 
L 106.130595 200.034015 
L 106.937342 200.172291 
L 106.937342 201.032166 
L 107.744089 201.162727 
L 107.744089 201.649898 
L 108.550836 201.775794 
L 108.550836 202.51179 
L 109.357583 202.63132 
L 109.357583 203.330556 
L 110.16433 203.444191 
L 110.16433 203.934715 
L 110.971077 204.065878 
L 110.971077 204.621779 
L 111.777824 204.747259 
L 111.777824 205.319491 
L 112.584571 205.43933 
L 112.584571 206.081649 
L 113.391318 206.195471 
L 113.391318 206.751507 
L 114.198065 206.878198 
L 114.198065 207.408639 
L 115.004812 207.529565 
L 115.004812 207.902871 
L 115.811559 208.01955 
L 115.811559 208.476473 
L 116.618306 208.588316 
L 116.618306 209.011095 
L 117.425053 209.133799 
L 117.425053 209.524777 
L 118.2318 209.642732 
L 118.2318 210.07559 
L 119.038547 210.188557 
L 119.038547 210.507761 
L 119.845294 210.630463 
L 119.845294 211.161393 
L 120.652041 211.27771 
L 120.652041 211.903987 
L 121.458788 212.025334 
L 121.458788 212.440288 
L 122.265535 212.556136 
L 122.265535 213.063206 
L 123.072282 213.183727 
L 123.072282 213.537555 
L 123.879029 213.652989 
L 123.879029 214.092686 
L 124.685776 214.212214 
L 124.685776 214.572396 
L 125.492523 214.686576 
L 125.492523 215.06735 
L 126.29927 215.185154 
L 126.29927 215.48685 
L 127.106017 215.599819 
L 127.106017 215.97277 
L 127.912764 216.088483 
L 127.912764 216.379747 
L 128.719511 216.498508 
L 128.719511 216.898882 
L 129.526258 217.011214 
L 129.526258 217.347279 
L 130.333005 217.461285 
L 130.333005 217.801562 
L 131.139752 217.916595 
L 131.139752 218.161786 
L 131.946498 218.278576 
L 131.946498 218.526221 
L 132.753245 218.638096 
L 132.753245 218.953036 
L 133.559992 219.065149 
L 133.559992 219.279105 
L 134.366739 219.392417 
L 134.366739 219.657911 
L 135.173486 219.771287 
L 135.173486 220.070867 
L 135.980233 220.183413 
L 135.980233 220.413423 
L 136.78698 220.525813 
L 136.78698 220.726709 
L 137.593727 220.839062 
L 137.593727 221.076626 
L 138.400474 221.188071 
L 138.400474 221.422907 
L 139.207221 221.537405 
L 139.207221 221.740423 
L 140.013968 221.853755 
L 140.013968 222.028053 
L 140.820715 222.140471 
L 140.820715 222.374509 
L 141.627462 222.48842 
L 141.627462 222.660871 
L 142.434209 222.773271 
L 142.434209 223.00222 
L 143.240956 223.115217 
L 143.240956 223.268025 
L 144.047703 223.379339 
L 144.047703 223.482413 
L 144.85445 223.59587 
L 144.85445 223.725005 
L 145.661197 223.836764 
L 145.661197 223.991897 
L 146.467944 224.104116 
L 146.467944 224.271004 
L 147.274691 224.383031 
L 147.274691 224.518601 
L 148.081438 224.630697 
L 148.081438 224.745409 
L 148.888185 224.857667 
L 148.888185 224.972273 
L 149.694932 225.084376 
L 149.694932 225.245778 
L 150.501679 225.358584 
L 150.501679 225.47101 
L 151.308426 225.582995 
L 151.308426 225.661719 
L 152.115173 225.773414 
L 152.115173 225.880572 
L 152.92192 225.992998 
L 152.92192 226.072738 
L 153.728667 226.184296 
L 153.728667 226.289584 
L 154.535414 226.401209 
L 154.535414 226.50496 
L 155.342161 226.616308 
L 155.342161 226.661046 
L 156.148908 226.773293 
L 156.148908 226.814832 
L 156.955655 226.926213 
L 156.955655 226.952447 
L 157.762402 227.064735 
L 157.762402 227.124174 
L 158.569149 227.236194 
L 158.569149 227.287513 
L 159.375896 227.399231 
L 159.375896 227.423936 
L 160.182643 227.53587 
L 160.182643 227.568959 
L 160.98939 227.680647 
L 160.98939 227.690872 
L 161.796137 227.802781 
L 161.796137 227.836077 
L 162.602884 227.947328 
L 162.602884 227.954467 
L 163.409631 228.065673 
L 163.409631 228.071432 
L 164.216378 228.183586 
L 164.216378 228.202493 
L 165.829872 228.314912 
L 165.829872 228.410242 
L 167.443366 228.523251 
L 167.443366 228.623769 
L 169.05686 228.736513 
L 169.05686 228.818812 
L 170.670354 228.931305 
L 170.670354 229.000941 
L 172.283848 229.113085 
L 172.283848 229.168897 
L 173.897342 229.281502 
L 173.897342 229.351434 
L 175.510836 229.463412 
L 175.510836 229.509374 
L 177.12433 229.621848 
L 177.12433 229.635246 
L 178.737824 229.747612 
L 178.737824 229.792503 
L 180.351318 229.904454 
L 180.351318 229.926042 
L 181.964812 230.038084 
L 181.964812 230.059807 
L 183.578306 230.172093 
L 183.578306 230.177264 
L 185.998547 230.29006 
L 185.998547 230.317885 
L 188.418788 230.430272 
L 188.418788 230.443703 
L 190.839029 230.55589 
L 190.839029 230.567163 
L 194.066017 230.679773 
L 194.066017 230.711679 
L 196.486258 230.824069 
L 196.486258 230.824942 
L 199.713245 230.937656 
L 199.713245 230.960742 
L 203.74698 231.073718 
L 203.74698 231.09152 
L 207.780715 231.204355 
L 207.780715 231.210182 
L 212.621197 231.323273 
L 212.621197 231.339351 
L 217.461679 231.452482 
L 217.461679 231.456973 
L 223.108908 231.570122 
L 223.108908 231.570725 
L 229.562884 231.684073 
L 229.562884 231.684639 
L 238.437101 231.7986 
L 238.437101 231.802573 
L 249.731559 231.917387 
L 249.731559 231.918622 
L 264.253005 232.034008 
L 264.253005 232.034928 
L 286.84192 232.152353 
L 286.84192 232.152993 
L 309.430836 232.26999 
L 309.430836 232.273344 
L 365.903125 232.394482 
L 365.903125 232.394482 
" style="fill:none;stroke:#988ed5;stroke-linecap:square;"/>
   </g>
   <g id="patch_3">
    <path d="M 31.103125 12.039062 
L 365.903125 12.039062 
" style="fill:none;stroke:#ffffff;stroke-linecap:square;stroke-linejoin:miter;"/>
   </g>
   <g id="patch_4">
    <path d="M 365.903125 235.239062 
L 365.903125 12.039062 
" style="fill:none;stroke:#ffffff;stroke-linecap:square;stroke-linejoin:miter;"/>
   </g>
   <g id="patch_5">
    <path d="M 31.103125 235.239062 
L 365.903125 235.239062 
" style="fill:none;stroke:#ffffff;stroke-linecap:square;stroke-linejoin:miter;"/>
   </g>
   <g id="patch_6">
    <path d="M 31.103125 235.239062 
L 31.103125 12.039062 
" style="fill:none;stroke:#ffffff;stroke-linecap:square;stroke-linejoin:miter;"/>
   </g>
   <g id="legend_1">
    <g id="patch_7">
     <path d="M 262.3075 74.480312 
L 359.903125 74.480312 
L 359.903125 18.039062 
L 262.3075 18.039062 
z
" style="fill:#e5e5e5;stroke:#ffffff;stroke-linejoin:miter;stroke-width:0.5;"/>
    </g>
    <g id="line2d_46">
     <path d="M 270.7075 27.757187 
L 287.5075 27.757187 
" style="fill:none;stroke:#e24a33;stroke-linecap:square;"/>
    </g>
    <g id="line2d_47"/>
    <g id="text_16">
     <!-- precision -->
     <defs>
      <path d="M 54.890625 33.015625 
L 54.890625 0 
L 45.90625 0 
L 45.90625 32.71875 
Q 45.90625 40.484375 42.875 44.328125 
Q 39.84375 48.1875 33.796875 48.1875 
Q 26.515625 48.1875 22.3125 43.546875 
Q 18.109375 38.921875 18.109375 30.90625 
L 18.109375 0 
L 9.078125 0 
L 9.078125 54.6875 
L 18.109375 54.6875 
L 18.109375 46.1875 
Q 21.34375 51.125 25.703125 53.5625 
Q 30.078125 56 35.796875 56 
Q 45.21875 56 50.046875 50.171875 
Q 54.890625 44.34375 54.890625 33.015625 
" id="BitstreamVeraSans-Roman-6e"/>
      <path d="M 30.609375 48.390625 
Q 23.390625 48.390625 19.1875 42.75 
Q 14.984375 37.109375 14.984375 27.296875 
Q 14.984375 17.484375 19.15625 11.84375 
Q 23.34375 6.203125 30.609375 6.203125 
Q 37.796875 6.203125 41.984375 11.859375 
Q 46.1875 17.53125 46.1875 27.296875 
Q 46.1875 37.015625 41.984375 42.703125 
Q 37.796875 48.390625 30.609375 48.390625 
M 30.609375 56 
Q 42.328125 56 49.015625 48.375 
Q 55.71875 40.765625 55.71875 27.296875 
Q 55.71875 13.875 49.015625 6.21875 
Q 42.328125 -1.421875 30.609375 -1.421875 
Q 18.84375 -1.421875 12.171875 6.21875 
Q 5.515625 13.875 5.515625 27.296875 
Q 5.515625 40.765625 12.171875 48.375 
Q 18.84375 56 30.609375 56 
" id="BitstreamVeraSans-Roman-6f"/>
      <path d="M 9.421875 54.6875 
L 18.40625 54.6875 
L 18.40625 0 
L 9.421875 0 
z
M 9.421875 75.984375 
L 18.40625 75.984375 
L 18.40625 64.59375 
L 9.421875 64.59375 
z
" id="BitstreamVeraSans-Roman-69"/>
      <path d="M 18.109375 8.203125 
L 18.109375 -20.796875 
L 9.078125 -20.796875 
L 9.078125 54.6875 
L 18.109375 54.6875 
L 18.109375 46.390625 
Q 20.953125 51.265625 25.265625 53.625 
Q 29.59375 56 35.59375 56 
Q 45.5625 56 51.78125 48.09375 
Q 58.015625 40.1875 58.015625 27.296875 
Q 58.015625 14.40625 51.78125 6.484375 
Q 45.5625 -1.421875 35.59375 -1.421875 
Q 29.59375 -1.421875 25.265625 0.953125 
Q 20.953125 3.328125 18.109375 8.203125 
M 48.6875 27.296875 
Q 48.6875 37.203125 44.609375 42.84375 
Q 40.53125 48.484375 33.40625 48.484375 
Q 26.265625 48.484375 22.1875 42.84375 
Q 18.109375 37.203125 18.109375 27.296875 
Q 18.109375 17.390625 22.1875 11.75 
Q 26.265625 6.109375 33.40625 6.109375 
Q 40.53125 6.109375 44.609375 11.75 
Q 48.6875 17.390625 48.6875 27.296875 
" id="BitstreamVeraSans-Roman-70"/>
      <path d="M 56.203125 29.59375 
L 56.203125 25.203125 
L 14.890625 25.203125 
Q 15.484375 15.921875 20.484375 11.0625 
Q 25.484375 6.203125 34.421875 6.203125 
Q 39.59375 6.203125 44.453125 7.46875 
Q 49.3125 8.734375 54.109375 11.28125 
L 54.109375 2.78125 
Q 49.265625 0.734375 44.1875 -0.34375 
Q 39.109375 -1.421875 33.890625 -1.421875 
Q 20.796875 -1.421875 13.15625 6.1875 
Q 5.515625 13.8125 5.515625 26.8125 
Q 5.515625 40.234375 12.765625 48.109375 
Q 20.015625 56 32.328125 56 
Q 43.359375 56 49.78125 48.890625 
Q 56.203125 41.796875 56.203125 29.59375 
M 47.21875 32.234375 
Q 47.125 39.59375 43.09375 43.984375 
Q 39.0625 48.390625 32.421875 48.390625 
Q 24.90625 48.390625 20.390625 44.140625 
Q 15.875 39.890625 15.1875 32.171875 
z
" id="BitstreamVeraSans-Roman-65"/>
      <path d="M 41.109375 46.296875 
Q 39.59375 47.171875 37.8125 47.578125 
Q 36.03125 48 33.890625 48 
Q 26.265625 48 22.1875 43.046875 
Q 18.109375 38.09375 18.109375 28.8125 
L 18.109375 0 
L 9.078125 0 
L 9.078125 54.6875 
L 18.109375 54.6875 
L 18.109375 46.1875 
Q 20.953125 51.171875 25.484375 53.578125 
Q 30.03125 56 36.53125 56 
Q 37.453125 56 38.578125 55.875 
Q 39.703125 55.765625 41.0625 55.515625 
z
" id="BitstreamVeraSans-Roman-72"/>
      <path d="M 44.28125 53.078125 
L 44.28125 44.578125 
Q 40.484375 46.53125 36.375 47.5 
Q 32.28125 48.484375 27.875 48.484375 
Q 21.1875 48.484375 17.84375 46.4375 
Q 14.5 44.390625 14.5 40.28125 
Q 14.5 37.15625 16.890625 35.375 
Q 19.28125 33.59375 26.515625 31.984375 
L 29.59375 31.296875 
Q 39.15625 29.25 43.1875 25.515625 
Q 47.21875 21.78125 47.21875 15.09375 
Q 47.21875 7.46875 41.1875 3.015625 
Q 35.15625 -1.421875 24.609375 -1.421875 
Q 20.21875 -1.421875 15.453125 -0.5625 
Q 10.6875 0.296875 5.421875 2 
L 5.421875 11.28125 
Q 10.40625 8.6875 15.234375 7.390625 
Q 20.0625 6.109375 24.8125 6.109375 
Q 31.15625 6.109375 34.5625 8.28125 
Q 37.984375 10.453125 37.984375 14.40625 
Q 37.984375 18.0625 35.515625 20.015625 
Q 33.0625 21.96875 24.703125 23.78125 
L 21.578125 24.515625 
Q 13.234375 26.265625 9.515625 29.90625 
Q 5.8125 33.546875 5.8125 39.890625 
Q 5.8125 47.609375 11.28125 51.796875 
Q 16.75 56 26.8125 56 
Q 31.78125 56 36.171875 55.265625 
Q 40.578125 54.546875 44.28125 53.078125 
" id="BitstreamVeraSans-Roman-73"/>
      <path d="M 48.78125 52.59375 
L 48.78125 44.1875 
Q 44.96875 46.296875 41.140625 47.34375 
Q 37.3125 48.390625 33.40625 48.390625 
Q 24.65625 48.390625 19.8125 42.84375 
Q 14.984375 37.3125 14.984375 27.296875 
Q 14.984375 17.28125 19.8125 11.734375 
Q 24.65625 6.203125 33.40625 6.203125 
Q 37.3125 6.203125 41.140625 7.25 
Q 44.96875 8.296875 48.78125 10.40625 
L 48.78125 2.09375 
Q 45.015625 0.34375 40.984375 -0.53125 
Q 36.96875 -1.421875 32.421875 -1.421875 
Q 20.0625 -1.421875 12.78125 6.34375 
Q 5.515625 14.109375 5.515625 27.296875 
Q 5.515625 40.671875 12.859375 48.328125 
Q 20.21875 56 33.015625 56 
Q 37.15625 56 41.109375 55.140625 
Q 45.0625 54.296875 48.78125 52.59375 
" id="BitstreamVeraSans-Roman-63"/>
     </defs>
     <g transform="translate(300.7075 31.9571875)scale(0.12 -0.12)">
      <use xlink:href="#BitstreamVeraSans-Roman-70"/>
      <use x="63.4765625" xlink:href="#BitstreamVeraSans-Roman-72"/>
      <use x="104.55859375" xlink:href="#BitstreamVeraSans-Roman-65"/>
      <use x="166.08203125" xlink:href="#BitstreamVeraSans-Roman-63"/>
      <use x="221.0625" xlink:href="#BitstreamVeraSans-Roman-69"/>
      <use x="248.845703125" xlink:href="#BitstreamVeraSans-Roman-73"/>
      <use x="300.9453125" xlink:href="#BitstreamVeraSans-Roman-69"/>
      <use x="328.728515625" xlink:href="#BitstreamVeraSans-Roman-6f"/>
      <use x="389.91015625" xlink:href="#BitstreamVeraSans-Roman-6e"/>
     </g>
    </g>
    <g id="line2d_48">
     <path d="M 270.7075 45.370937 
L 287.5075 45.370937 
" style="fill:none;stroke:#348abd;stroke-linecap:square;"/>
    </g>
    <g id="line2d_49"/>
    <g id="text_17">
     <!-- recall -->
     <defs>
      <path d="M 34.28125 27.484375 
Q 23.390625 27.484375 19.1875 25 
Q 14.984375 22.515625 14.984375 16.5 
Q 14.984375 11.71875 18.140625 8.90625 
Q 21.296875 6.109375 26.703125 6.109375 
Q 34.1875 6.109375 38.703125 11.40625 
Q 43.21875 16.703125 43.21875 25.484375 
L 43.21875 27.484375 
z
M 52.203125 31.203125 
L 52.203125 0 
L 43.21875 0 
L 43.21875 8.296875 
Q 40.140625 3.328125 35.546875 0.953125 
Q 30.953125 -1.421875 24.3125 -1.421875 
Q 15.921875 -1.421875 10.953125 3.296875 
Q 6 8.015625 6 15.921875 
Q 6 25.140625 12.171875 29.828125 
Q 18.359375 34.515625 30.609375 34.515625 
L 43.21875 34.515625 
L 43.21875 35.40625 
Q 43.21875 41.609375 39.140625 45 
Q 35.0625 48.390625 27.6875 48.390625 
Q 23 48.390625 18.546875 47.265625 
Q 14.109375 46.140625 10.015625 43.890625 
L 10.015625 52.203125 
Q 14.9375 54.109375 19.578125 55.046875 
Q 24.21875 56 28.609375 56 
Q 40.484375 56 46.34375 49.84375 
Q 52.203125 43.703125 52.203125 31.203125 
" id="BitstreamVeraSans-Roman-61"/>
      <path d="M 9.421875 75.984375 
L 18.40625 75.984375 
L 18.40625 0 
L 9.421875 0 
z
" id="BitstreamVeraSans-Roman-6c"/>
     </defs>
     <g transform="translate(300.7075 49.5709375)scale(0.12 -0.12)">
      <use xlink:href="#BitstreamVeraSans-Roman-72"/>
      <use x="41.08203125" xlink:href="#BitstreamVeraSans-Roman-65"/>
      <use x="102.60546875" xlink:href="#BitstreamVeraSans-Roman-63"/>
      <use x="157.5859375" xlink:href="#BitstreamVeraSans-Roman-61"/>
      <use x="218.865234375" xlink:href="#BitstreamVeraSans-Roman-6c"/>
      <use x="246.6484375" xlink:href="#BitstreamVeraSans-Roman-6c"/>
     </g>
    </g>
    <g id="line2d_50">
     <path d="M 270.7075 62.984687 
L 287.5075 62.984687 
" style="fill:none;stroke:#988ed5;stroke-linecap:square;"/>
    </g>
    <g id="line2d_51"/>
    <g id="text_18">
     <!-- f1 -->
     <defs>
      <path d="M 37.109375 75.984375 
L 37.109375 68.5 
L 28.515625 68.5 
Q 23.6875 68.5 21.796875 66.546875 
Q 19.921875 64.59375 19.921875 59.515625 
L 19.921875 54.6875 
L 34.71875 54.6875 
L 34.71875 47.703125 
L 19.921875 47.703125 
L 19.921875 0 
L 10.890625 0 
L 10.890625 47.703125 
L 2.296875 47.703125 
L 2.296875 54.6875 
L 10.890625 54.6875 
L 10.890625 58.5 
Q 10.890625 67.625 15.140625 71.796875 
Q 19.390625 75.984375 28.609375 75.984375 
z
" id="BitstreamVeraSans-Roman-66"/>
     </defs>
     <g transform="translate(300.7075 67.1846875)scale(0.12 -0.12)">
      <use xlink:href="#BitstreamVeraSans-Roman-66"/>
      <use x="35.205078125" xlink:href="#BitstreamVeraSans-Roman-31"/>
     </g>
    </g>
   </g>
  </g>
 </g>
 <defs>
  <clipPath id="p7f3cc39e76">
   <rect height="223.2" width="334.8" x="31.103125" y="12.0390625"/>
  </clipPath>
 </defs>
</svg>
