<?xml version="1.0" encoding="utf-8" standalone="no"?>
<!DOCTYPE svg PUBLIC "-//W3C//DTD SVG 1.1//EN"
  "http://www.w3.org/Graphics/SVG/1.1/DTD/svg11.dtd">
<!-- Created with matplotlib (http://matplotlib.org/) -->
<svg height="276pt" version="1.1" viewBox="0 0 373 276" width="373pt" xmlns="http://www.w3.org/2000/svg" xmlns:xlink="http://www.w3.org/1999/xlink">
 <defs>
  <style type="text/css">
*{stroke-linecap:butt;stroke-linejoin:round;stroke-miterlimit:100000;}
  </style>
 </defs>
 <g id="figure_1">
  <g id="patch_1">
   <path d="M 0 276.730937 
L 373.103125 276.730937 
L 373.103125 0 
L 0 0 
L 0 276.730937 
z
" style="fill:none;"/>
  </g>
  <g id="axes_1">
   <g id="patch_2">
    <path d="M 31.103125 235.239062 
L 365.903125 235.239062 
L 365.903125 12.039062 
L 31.103125 12.039062 
z
" style="fill:#e5e5e5;"/>
   </g>
   <g id="matplotlib.axis_1">
    <g id="xtick_1">
     <g id="line2d_1">
      <path clip-path="url(#p8d3db02fab)" d="M 31.103125 235.239062 
L 31.103125 12.039062 
" style="fill:none;stroke:#ffffff;stroke-linecap:square;stroke-width:0.5;"/>
     </g>
     <g id="line2d_2">
      <defs>
       <path d="M 0 0 
L 0 4 
" id="m5422b34285" style="stroke:#555555;stroke-width:0.5;"/>
      </defs>
      <g>
       <use style="fill:#555555;stroke:#555555;stroke-width:0.5;" x="31.103125" xlink:href="#m5422b34285" y="235.2390625"/>
      </g>
     </g>
     <g id="line2d_3">
      <defs>
       <path d="M 0 0 
L 0 -4 
" id="m3df51eb9f6" style="stroke:#555555;stroke-width:0.5;"/>
      </defs>
      <g>
       <use style="fill:#555555;stroke:#555555;stroke-width:0.5;" x="31.103125" xlink:href="#m3df51eb9f6" y="12.0390625"/>
      </g>
     </g>
     <g id="text_1">
      <!-- 0 -->
      <defs>
       <path d="M 31.78125 66.40625 
Q 24.171875 66.40625 20.328125 58.90625 
Q 16.5 51.421875 16.5 36.375 
Q 16.5 21.390625 20.328125 13.890625 
Q 24.171875 6.390625 31.78125 6.390625 
Q 39.453125 6.390625 43.28125 13.890625 
Q 47.125 21.390625 47.125 36.375 
Q 47.125 51.421875 43.28125 58.90625 
Q 39.453125 66.40625 31.78125 66.40625 
M 31.78125 74.21875 
Q 44.046875 74.21875 50.515625 64.515625 
Q 56.984375 54.828125 56.984375 36.375 
Q 56.984375 17.96875 50.515625 8.265625 
Q 44.046875 -1.421875 31.78125 -1.421875 
Q 19.53125 -1.421875 13.0625 8.265625 
Q 6.59375 17.96875 6.59375 36.375 
Q 6.59375 54.828125 13.0625 64.515625 
Q 19.53125 74.21875 31.78125 74.21875 
" id="BitstreamVeraSans-Roman-30"/>
      </defs>
      <g style="fill:#555555;" transform="translate(27.921875 250.8375)scale(0.1 -0.1)">
       <use xlink:href="#BitstreamVeraSans-Roman-30"/>
      </g>
     </g>
    </g>
    <g id="xtick_2">
     <g id="line2d_4">
      <path clip-path="url(#p8d3db02fab)" d="M 68.469196 235.239062 
L 68.469196 12.039062 
" style="fill:none;stroke:#ffffff;stroke-linecap:square;stroke-width:0.5;"/>
     </g>
     <g id="line2d_5">
      <g>
       <use style="fill:#555555;stroke:#555555;stroke-width:0.5;" x="68.4691964286" xlink:href="#m5422b34285" y="235.2390625"/>
      </g>
     </g>
     <g id="line2d_6">
      <g>
       <use style="fill:#555555;stroke:#555555;stroke-width:0.5;" x="68.4691964286" xlink:href="#m3df51eb9f6" y="12.0390625"/>
      </g>
     </g>
     <g id="text_2">
      <!-- 50 -->
      <defs>
       <path d="M 10.796875 72.90625 
L 49.515625 72.90625 
L 49.515625 64.59375 
L 19.828125 64.59375 
L 19.828125 46.734375 
Q 21.96875 47.46875 24.109375 47.828125 
Q 26.265625 48.1875 28.421875 48.1875 
Q 40.625 48.1875 47.75 41.5 
Q 54.890625 34.8125 54.890625 23.390625 
Q 54.890625 11.625 47.5625 5.09375 
Q 40.234375 -1.421875 26.90625 -1.421875 
Q 22.3125 -1.421875 17.546875 -0.640625 
Q 12.796875 0.140625 7.71875 1.703125 
L 7.71875 11.625 
Q 12.109375 9.234375 16.796875 8.0625 
Q 21.484375 6.890625 26.703125 6.890625 
Q 35.15625 6.890625 40.078125 11.328125 
Q 45.015625 15.765625 45.015625 23.390625 
Q 45.015625 31 40.078125 35.4375 
Q 35.15625 39.890625 26.703125 39.890625 
Q 22.75 39.890625 18.8125 39.015625 
Q 14.890625 38.140625 10.796875 36.28125 
z
" id="BitstreamVeraSans-Roman-35"/>
      </defs>
      <g style="fill:#555555;" transform="translate(62.1066964286 250.8375)scale(0.1 -0.1)">
       <use xlink:href="#BitstreamVeraSans-Roman-35"/>
       <use x="63.623046875" xlink:href="#BitstreamVeraSans-Roman-30"/>
      </g>
     </g>
    </g>
    <g id="xtick_3">
     <g id="line2d_7">
      <path clip-path="url(#p8d3db02fab)" d="M 105.835268 235.239062 
L 105.835268 12.039062 
" style="fill:none;stroke:#ffffff;stroke-linecap:square;stroke-width:0.5;"/>
     </g>
     <g id="line2d_8">
      <g>
       <use style="fill:#555555;stroke:#555555;stroke-width:0.5;" x="105.835267857" xlink:href="#m5422b34285" y="235.2390625"/>
      </g>
     </g>
     <g id="line2d_9">
      <g>
       <use style="fill:#555555;stroke:#555555;stroke-width:0.5;" x="105.835267857" xlink:href="#m3df51eb9f6" y="12.0390625"/>
      </g>
     </g>
     <g id="text_3">
      <!-- 100 -->
      <defs>
       <path d="M 12.40625 8.296875 
L 28.515625 8.296875 
L 28.515625 63.921875 
L 10.984375 60.40625 
L 10.984375 69.390625 
L 28.421875 72.90625 
L 38.28125 72.90625 
L 38.28125 8.296875 
L 54.390625 8.296875 
L 54.390625 0 
L 12.40625 0 
z
" id="BitstreamVeraSans-Roman-31"/>
      </defs>
      <g style="fill:#555555;" transform="translate(96.2915178571 250.8375)scale(0.1 -0.1)">
       <use xlink:href="#BitstreamVeraSans-Roman-31"/>
       <use x="63.623046875" xlink:href="#BitstreamVeraSans-Roman-30"/>
       <use x="127.24609375" xlink:href="#BitstreamVeraSans-Roman-30"/>
      </g>
     </g>
    </g>
    <g id="xtick_4">
     <g id="line2d_10">
      <path clip-path="url(#p8d3db02fab)" d="M 143.201339 235.239062 
L 143.201339 12.039062 
" style="fill:none;stroke:#ffffff;stroke-linecap:square;stroke-width:0.5;"/>
     </g>
     <g id="line2d_11">
      <g>
       <use style="fill:#555555;stroke:#555555;stroke-width:0.5;" x="143.201339286" xlink:href="#m5422b34285" y="235.2390625"/>
      </g>
     </g>
     <g id="line2d_12">
      <g>
       <use style="fill:#555555;stroke:#555555;stroke-width:0.5;" x="143.201339286" xlink:href="#m3df51eb9f6" y="12.0390625"/>
      </g>
     </g>
     <g id="text_4">
      <!-- 150 -->
      <g style="fill:#555555;" transform="translate(133.657589286 250.8375)scale(0.1 -0.1)">
       <use xlink:href="#BitstreamVeraSans-Roman-31"/>
       <use x="63.623046875" xlink:href="#BitstreamVeraSans-Roman-35"/>
       <use x="127.24609375" xlink:href="#BitstreamVeraSans-Roman-30"/>
      </g>
     </g>
    </g>
    <g id="xtick_5">
     <g id="line2d_13">
      <path clip-path="url(#p8d3db02fab)" d="M 180.567411 235.239062 
L 180.567411 12.039062 
" style="fill:none;stroke:#ffffff;stroke-linecap:square;stroke-width:0.5;"/>
     </g>
     <g id="line2d_14">
      <g>
       <use style="fill:#555555;stroke:#555555;stroke-width:0.5;" x="180.567410714" xlink:href="#m5422b34285" y="235.2390625"/>
      </g>
     </g>
     <g id="line2d_15">
      <g>
       <use style="fill:#555555;stroke:#555555;stroke-width:0.5;" x="180.567410714" xlink:href="#m3df51eb9f6" y="12.0390625"/>
      </g>
     </g>
     <g id="text_5">
      <!-- 200 -->
      <defs>
       <path d="M 19.1875 8.296875 
L 53.609375 8.296875 
L 53.609375 0 
L 7.328125 0 
L 7.328125 8.296875 
Q 12.9375 14.109375 22.625 23.890625 
Q 32.328125 33.6875 34.8125 36.53125 
Q 39.546875 41.84375 41.421875 45.53125 
Q 43.3125 49.21875 43.3125 52.78125 
Q 43.3125 58.59375 39.234375 62.25 
Q 35.15625 65.921875 28.609375 65.921875 
Q 23.96875 65.921875 18.8125 64.3125 
Q 13.671875 62.703125 7.8125 59.421875 
L 7.8125 69.390625 
Q 13.765625 71.78125 18.9375 73 
Q 24.125 74.21875 28.421875 74.21875 
Q 39.75 74.21875 46.484375 68.546875 
Q 53.21875 62.890625 53.21875 53.421875 
Q 53.21875 48.921875 51.53125 44.890625 
Q 49.859375 40.875 45.40625 35.40625 
Q 44.1875 33.984375 37.640625 27.21875 
Q 31.109375 20.453125 19.1875 8.296875 
" id="BitstreamVeraSans-Roman-32"/>
      </defs>
      <g style="fill:#555555;" transform="translate(171.023660714 250.8375)scale(0.1 -0.1)">
       <use xlink:href="#BitstreamVeraSans-Roman-32"/>
       <use x="63.623046875" xlink:href="#BitstreamVeraSans-Roman-30"/>
       <use x="127.24609375" xlink:href="#BitstreamVeraSans-Roman-30"/>
      </g>
     </g>
    </g>
    <g id="xtick_6">
     <g id="line2d_16">
      <path clip-path="url(#p8d3db02fab)" d="M 217.933482 235.239062 
L 217.933482 12.039062 
" style="fill:none;stroke:#ffffff;stroke-linecap:square;stroke-width:0.5;"/>
     </g>
     <g id="line2d_17">
      <g>
       <use style="fill:#555555;stroke:#555555;stroke-width:0.5;" x="217.933482143" xlink:href="#m5422b34285" y="235.2390625"/>
      </g>
     </g>
     <g id="line2d_18">
      <g>
       <use style="fill:#555555;stroke:#555555;stroke-width:0.5;" x="217.933482143" xlink:href="#m3df51eb9f6" y="12.0390625"/>
      </g>
     </g>
     <g id="text_6">
      <!-- 250 -->
      <g style="fill:#555555;" transform="translate(208.389732143 250.8375)scale(0.1 -0.1)">
       <use xlink:href="#BitstreamVeraSans-Roman-32"/>
       <use x="63.623046875" xlink:href="#BitstreamVeraSans-Roman-35"/>
       <use x="127.24609375" xlink:href="#BitstreamVeraSans-Roman-30"/>
      </g>
     </g>
    </g>
    <g id="xtick_7">
     <g id="line2d_19">
      <path clip-path="url(#p8d3db02fab)" d="M 255.299554 235.239062 
L 255.299554 12.039062 
" style="fill:none;stroke:#ffffff;stroke-linecap:square;stroke-width:0.5;"/>
     </g>
     <g id="line2d_20">
      <g>
       <use style="fill:#555555;stroke:#555555;stroke-width:0.5;" x="255.299553571" xlink:href="#m5422b34285" y="235.2390625"/>
      </g>
     </g>
     <g id="line2d_21">
      <g>
       <use style="fill:#555555;stroke:#555555;stroke-width:0.5;" x="255.299553571" xlink:href="#m3df51eb9f6" y="12.0390625"/>
      </g>
     </g>
     <g id="text_7">
      <!-- 300 -->
      <defs>
       <path d="M 40.578125 39.3125 
Q 47.65625 37.796875 51.625 33 
Q 55.609375 28.21875 55.609375 21.1875 
Q 55.609375 10.40625 48.1875 4.484375 
Q 40.765625 -1.421875 27.09375 -1.421875 
Q 22.515625 -1.421875 17.65625 -0.515625 
Q 12.796875 0.390625 7.625 2.203125 
L 7.625 11.71875 
Q 11.71875 9.328125 16.59375 8.109375 
Q 21.484375 6.890625 26.8125 6.890625 
Q 36.078125 6.890625 40.9375 10.546875 
Q 45.796875 14.203125 45.796875 21.1875 
Q 45.796875 27.640625 41.28125 31.265625 
Q 36.765625 34.90625 28.71875 34.90625 
L 20.21875 34.90625 
L 20.21875 43.015625 
L 29.109375 43.015625 
Q 36.375 43.015625 40.234375 45.921875 
Q 44.09375 48.828125 44.09375 54.296875 
Q 44.09375 59.90625 40.109375 62.90625 
Q 36.140625 65.921875 28.71875 65.921875 
Q 24.65625 65.921875 20.015625 65.03125 
Q 15.375 64.15625 9.8125 62.3125 
L 9.8125 71.09375 
Q 15.4375 72.65625 20.34375 73.4375 
Q 25.25 74.21875 29.59375 74.21875 
Q 40.828125 74.21875 47.359375 69.109375 
Q 53.90625 64.015625 53.90625 55.328125 
Q 53.90625 49.265625 50.4375 45.09375 
Q 46.96875 40.921875 40.578125 39.3125 
" id="BitstreamVeraSans-Roman-33"/>
      </defs>
      <g style="fill:#555555;" transform="translate(245.755803571 250.8375)scale(0.1 -0.1)">
       <use xlink:href="#BitstreamVeraSans-Roman-33"/>
       <use x="63.623046875" xlink:href="#BitstreamVeraSans-Roman-30"/>
       <use x="127.24609375" xlink:href="#BitstreamVeraSans-Roman-30"/>
      </g>
     </g>
    </g>
    <g id="xtick_8">
     <g id="line2d_22">
      <path clip-path="url(#p8d3db02fab)" d="M 292.665625 235.239062 
L 292.665625 12.039062 
" style="fill:none;stroke:#ffffff;stroke-linecap:square;stroke-width:0.5;"/>
     </g>
     <g id="line2d_23">
      <g>
       <use style="fill:#555555;stroke:#555555;stroke-width:0.5;" x="292.665625" xlink:href="#m5422b34285" y="235.2390625"/>
      </g>
     </g>
     <g id="line2d_24">
      <g>
       <use style="fill:#555555;stroke:#555555;stroke-width:0.5;" x="292.665625" xlink:href="#m3df51eb9f6" y="12.0390625"/>
      </g>
     </g>
     <g id="text_8">
      <!-- 350 -->
      <g style="fill:#555555;" transform="translate(283.121875 250.8375)scale(0.1 -0.1)">
       <use xlink:href="#BitstreamVeraSans-Roman-33"/>
       <use x="63.623046875" xlink:href="#BitstreamVeraSans-Roman-35"/>
       <use x="127.24609375" xlink:href="#BitstreamVeraSans-Roman-30"/>
      </g>
     </g>
    </g>
    <g id="xtick_9">
     <g id="line2d_25">
      <path clip-path="url(#p8d3db02fab)" d="M 330.031696 235.239062 
L 330.031696 12.039062 
" style="fill:none;stroke:#ffffff;stroke-linecap:square;stroke-width:0.5;"/>
     </g>
     <g id="line2d_26">
      <g>
       <use style="fill:#555555;stroke:#555555;stroke-width:0.5;" x="330.031696429" xlink:href="#m5422b34285" y="235.2390625"/>
      </g>
     </g>
     <g id="line2d_27">
      <g>
       <use style="fill:#555555;stroke:#555555;stroke-width:0.5;" x="330.031696429" xlink:href="#m3df51eb9f6" y="12.0390625"/>
      </g>
     </g>
     <g id="text_9">
      <!-- 400 -->
      <defs>
       <path d="M 37.796875 64.3125 
L 12.890625 25.390625 
L 37.796875 25.390625 
z
M 35.203125 72.90625 
L 47.609375 72.90625 
L 47.609375 25.390625 
L 58.015625 25.390625 
L 58.015625 17.1875 
L 47.609375 17.1875 
L 47.609375 0 
L 37.796875 0 
L 37.796875 17.1875 
L 4.890625 17.1875 
L 4.890625 26.703125 
z
" id="BitstreamVeraSans-Roman-34"/>
      </defs>
      <g style="fill:#555555;" transform="translate(320.487946429 250.8375)scale(0.1 -0.1)">
       <use xlink:href="#BitstreamVeraSans-Roman-34"/>
       <use x="63.623046875" xlink:href="#BitstreamVeraSans-Roman-30"/>
       <use x="127.24609375" xlink:href="#BitstreamVeraSans-Roman-30"/>
      </g>
     </g>
    </g>
    <g id="text_10">
     <!-- x -->
     <defs>
      <path d="M 54.890625 54.6875 
L 35.109375 28.078125 
L 55.90625 0 
L 45.3125 0 
L 29.390625 21.484375 
L 13.484375 0 
L 2.875 0 
L 24.125 28.609375 
L 4.6875 54.6875 
L 15.28125 54.6875 
L 29.78125 35.203125 
L 44.28125 54.6875 
z
" id="BitstreamVeraSans-Roman-78"/>
     </defs>
     <g style="fill:#555555;" transform="translate(194.951875 267.0353125)scale(0.12 -0.12)">
      <use xlink:href="#BitstreamVeraSans-Roman-78"/>
     </g>
    </g>
   </g>
   <g id="matplotlib.axis_2">
    <g id="ytick_1">
     <g id="line2d_28">
      <path clip-path="url(#p8d3db02fab)" d="M 31.103125 235.239062 
L 365.903125 235.239062 
" style="fill:none;stroke:#ffffff;stroke-linecap:square;stroke-width:0.5;"/>
     </g>
     <g id="line2d_29">
      <defs>
       <path d="M 0 0 
L -4 0 
" id="m715fcc8119" style="stroke:#555555;stroke-width:0.5;"/>
      </defs>
      <g>
       <use style="fill:#555555;stroke:#555555;stroke-width:0.5;" x="31.103125" xlink:href="#m715fcc8119" y="235.2390625"/>
      </g>
     </g>
     <g id="line2d_30">
      <defs>
       <path d="M 0 0 
L 4 0 
" id="m71ce0954e3" style="stroke:#555555;stroke-width:0.5;"/>
      </defs>
      <g>
       <use style="fill:#555555;stroke:#555555;stroke-width:0.5;" x="365.903125" xlink:href="#m71ce0954e3" y="235.2390625"/>
      </g>
     </g>
     <g id="text_11">
      <!-- 0.0 -->
      <defs>
       <path d="M 10.6875 12.40625 
L 21 12.40625 
L 21 0 
L 10.6875 0 
z
" id="BitstreamVeraSans-Roman-2e"/>
      </defs>
      <g style="fill:#555555;" transform="translate(7.2 237.9984375)scale(0.1 -0.1)">
       <use xlink:href="#BitstreamVeraSans-Roman-30"/>
       <use x="63.623046875" xlink:href="#BitstreamVeraSans-Roman-2e"/>
       <use x="95.41015625" xlink:href="#BitstreamVeraSans-Roman-30"/>
      </g>
     </g>
    </g>
    <g id="ytick_2">
     <g id="line2d_31">
      <path clip-path="url(#p8d3db02fab)" d="M 31.103125 190.599063 
L 365.903125 190.599063 
" style="fill:none;stroke:#ffffff;stroke-linecap:square;stroke-width:0.5;"/>
     </g>
     <g id="line2d_32">
      <g>
       <use style="fill:#555555;stroke:#555555;stroke-width:0.5;" x="31.103125" xlink:href="#m715fcc8119" y="190.5990625"/>
      </g>
     </g>
     <g id="line2d_33">
      <g>
       <use style="fill:#555555;stroke:#555555;stroke-width:0.5;" x="365.903125" xlink:href="#m71ce0954e3" y="190.5990625"/>
      </g>
     </g>
     <g id="text_12">
      <!-- 0.2 -->
      <g style="fill:#555555;" transform="translate(7.2 193.3584375)scale(0.1 -0.1)">
       <use xlink:href="#BitstreamVeraSans-Roman-30"/>
       <use x="63.623046875" xlink:href="#BitstreamVeraSans-Roman-2e"/>
       <use x="95.41015625" xlink:href="#BitstreamVeraSans-Roman-32"/>
      </g>
     </g>
    </g>
    <g id="ytick_3">
     <g id="line2d_34">
      <path clip-path="url(#p8d3db02fab)" d="M 31.103125 145.959062 
L 365.903125 145.959062 
" style="fill:none;stroke:#ffffff;stroke-linecap:square;stroke-width:0.5;"/>
     </g>
     <g id="line2d_35">
      <g>
       <use style="fill:#555555;stroke:#555555;stroke-width:0.5;" x="31.103125" xlink:href="#m715fcc8119" y="145.9590625"/>
      </g>
     </g>
     <g id="line2d_36">
      <g>
       <use style="fill:#555555;stroke:#555555;stroke-width:0.5;" x="365.903125" xlink:href="#m71ce0954e3" y="145.9590625"/>
      </g>
     </g>
     <g id="text_13">
      <!-- 0.4 -->
      <g style="fill:#555555;" transform="translate(7.2 148.7184375)scale(0.1 -0.1)">
       <use xlink:href="#BitstreamVeraSans-Roman-30"/>
       <use x="63.623046875" xlink:href="#BitstreamVeraSans-Roman-2e"/>
       <use x="95.41015625" xlink:href="#BitstreamVeraSans-Roman-34"/>
      </g>
     </g>
    </g>
    <g id="ytick_4">
     <g id="line2d_37">
      <path clip-path="url(#p8d3db02fab)" d="M 31.103125 101.319062 
L 365.903125 101.319062 
" style="fill:none;stroke:#ffffff;stroke-linecap:square;stroke-width:0.5;"/>
     </g>
     <g id="line2d_38">
      <g>
       <use style="fill:#555555;stroke:#555555;stroke-width:0.5;" x="31.103125" xlink:href="#m715fcc8119" y="101.3190625"/>
      </g>
     </g>
     <g id="line2d_39">
      <g>
       <use style="fill:#555555;stroke:#555555;stroke-width:0.5;" x="365.903125" xlink:href="#m71ce0954e3" y="101.3190625"/>
      </g>
     </g>
     <g id="text_14">
      <!-- 0.6 -->
      <defs>
       <path d="M 33.015625 40.375 
Q 26.375 40.375 22.484375 35.828125 
Q 18.609375 31.296875 18.609375 23.390625 
Q 18.609375 15.53125 22.484375 10.953125 
Q 26.375 6.390625 33.015625 6.390625 
Q 39.65625 6.390625 43.53125 10.953125 
Q 47.40625 15.53125 47.40625 23.390625 
Q 47.40625 31.296875 43.53125 35.828125 
Q 39.65625 40.375 33.015625 40.375 
M 52.59375 71.296875 
L 52.59375 62.3125 
Q 48.875 64.0625 45.09375 64.984375 
Q 41.3125 65.921875 37.59375 65.921875 
Q 27.828125 65.921875 22.671875 59.328125 
Q 17.53125 52.734375 16.796875 39.40625 
Q 19.671875 43.65625 24.015625 45.921875 
Q 28.375 48.1875 33.59375 48.1875 
Q 44.578125 48.1875 50.953125 41.515625 
Q 57.328125 34.859375 57.328125 23.390625 
Q 57.328125 12.15625 50.6875 5.359375 
Q 44.046875 -1.421875 33.015625 -1.421875 
Q 20.359375 -1.421875 13.671875 8.265625 
Q 6.984375 17.96875 6.984375 36.375 
Q 6.984375 53.65625 15.1875 63.9375 
Q 23.390625 74.21875 37.203125 74.21875 
Q 40.921875 74.21875 44.703125 73.484375 
Q 48.484375 72.75 52.59375 71.296875 
" id="BitstreamVeraSans-Roman-36"/>
      </defs>
      <g style="fill:#555555;" transform="translate(7.2 104.0784375)scale(0.1 -0.1)">
       <use xlink:href="#BitstreamVeraSans-Roman-30"/>
       <use x="63.623046875" xlink:href="#BitstreamVeraSans-Roman-2e"/>
       <use x="95.41015625" xlink:href="#BitstreamVeraSans-Roman-36"/>
      </g>
     </g>
    </g>
    <g id="ytick_5">
     <g id="line2d_40">
      <path clip-path="url(#p8d3db02fab)" d="M 31.103125 56.679062 
L 365.903125 56.679062 
" style="fill:none;stroke:#ffffff;stroke-linecap:square;stroke-width:0.5;"/>
     </g>
     <g id="line2d_41">
      <g>
       <use style="fill:#555555;stroke:#555555;stroke-width:0.5;" x="31.103125" xlink:href="#m715fcc8119" y="56.6790625"/>
      </g>
     </g>
     <g id="line2d_42">
      <g>
       <use style="fill:#555555;stroke:#555555;stroke-width:0.5;" x="365.903125" xlink:href="#m71ce0954e3" y="56.6790625"/>
      </g>
     </g>
     <g id="text_15">
      <!-- 0.8 -->
      <defs>
       <path d="M 31.78125 34.625 
Q 24.75 34.625 20.71875 30.859375 
Q 16.703125 27.09375 16.703125 20.515625 
Q 16.703125 13.921875 20.71875 10.15625 
Q 24.75 6.390625 31.78125 6.390625 
Q 38.8125 6.390625 42.859375 10.171875 
Q 46.921875 13.96875 46.921875 20.515625 
Q 46.921875 27.09375 42.890625 30.859375 
Q 38.875 34.625 31.78125 34.625 
M 21.921875 38.8125 
Q 15.578125 40.375 12.03125 44.71875 
Q 8.5 49.078125 8.5 55.328125 
Q 8.5 64.0625 14.71875 69.140625 
Q 20.953125 74.21875 31.78125 74.21875 
Q 42.671875 74.21875 48.875 69.140625 
Q 55.078125 64.0625 55.078125 55.328125 
Q 55.078125 49.078125 51.53125 44.71875 
Q 48 40.375 41.703125 38.8125 
Q 48.828125 37.15625 52.796875 32.3125 
Q 56.78125 27.484375 56.78125 20.515625 
Q 56.78125 9.90625 50.3125 4.234375 
Q 43.84375 -1.421875 31.78125 -1.421875 
Q 19.734375 -1.421875 13.25 4.234375 
Q 6.78125 9.90625 6.78125 20.515625 
Q 6.78125 27.484375 10.78125 32.3125 
Q 14.796875 37.15625 21.921875 38.8125 
M 18.3125 54.390625 
Q 18.3125 48.734375 21.84375 45.5625 
Q 25.390625 42.390625 31.78125 42.390625 
Q 38.140625 42.390625 41.71875 45.5625 
Q 45.3125 48.734375 45.3125 54.390625 
Q 45.3125 60.0625 41.71875 63.234375 
Q 38.140625 66.40625 31.78125 66.40625 
Q 25.390625 66.40625 21.84375 63.234375 
Q 18.3125 60.0625 18.3125 54.390625 
" id="BitstreamVeraSans-Roman-38"/>
      </defs>
      <g style="fill:#555555;" transform="translate(7.2 59.4384375)scale(0.1 -0.1)">
       <use xlink:href="#BitstreamVeraSans-Roman-30"/>
       <use x="63.623046875" xlink:href="#BitstreamVeraSans-Roman-2e"/>
       <use x="95.41015625" xlink:href="#BitstreamVeraSans-Roman-38"/>
      </g>
     </g>
    </g>
    <g id="ytick_6">
     <g id="line2d_43">
      <path clip-path="url(#p8d3db02fab)" d="M 31.103125 12.039062 
L 365.903125 12.039062 
" style="fill:none;stroke:#ffffff;stroke-linecap:square;stroke-width:0.5;"/>
     </g>
     <g id="line2d_44">
      <g>
       <use style="fill:#555555;stroke:#555555;stroke-width:0.5;" x="31.103125" xlink:href="#m715fcc8119" y="12.0390625"/>
      </g>
     </g>
     <g id="line2d_45">
      <g>
       <use style="fill:#555555;stroke:#555555;stroke-width:0.5;" x="365.903125" xlink:href="#m71ce0954e3" y="12.0390625"/>
      </g>
     </g>
     <g id="text_16">
      <!-- 1.0 -->
      <g style="fill:#555555;" transform="translate(7.2 14.7984375)scale(0.1 -0.1)">
       <use xlink:href="#BitstreamVeraSans-Roman-31"/>
       <use x="63.623046875" xlink:href="#BitstreamVeraSans-Roman-2e"/>
       <use x="95.41015625" xlink:href="#BitstreamVeraSans-Roman-30"/>
      </g>
     </g>
    </g>
   </g>
   <g id="line2d_46">
    <path clip-path="url(#p8d3db02fab)" d="M 31.103125 235.239062 
L 31.850446 235.239062 
L 31.850446 235.239062 
L 31.850446 235.239062 
L 31.850446 179.439062 
L 31.850446 179.439062 
L 31.850446 179.439062 
L 31.850446 216.639062 
L 32.597768 200.900601 
L 32.597768 214.948153 
L 33.345089 206.126019 
L 33.345089 207.339062 
L 34.092411 199.527062 
L 34.092411 203.353348 
L 34.092411 203.353348 
L 34.092411 203.353348 
L 34.092411 196.756304 
L 34.092411 198.039062 
L 34.839732 199.239062 
L 34.839732 202.415533 
L 34.839732 202.415533 
L 34.839732 202.415533 
L 34.839732 194.123273 
L 35.587054 189.454447 
L 35.587054 184.51179 
L 36.334375 185.639062 
L 36.334375 178.251828 
L 36.334375 179.439062 
L 37.081696 176.022736 
L 37.081696 177.207063 
L 37.081696 177.207063 
L 37.081696 177.207063 
L 37.081696 172.069251 
L 37.829018 169.105729 
L 37.829018 171.467634 
L 37.829018 171.467634 
L 37.829018 171.467634 
L 37.829018 168.670641 
L 38.576339 165.970097 
L 38.576339 167.144147 
L 38.576339 167.144147 
L 38.576339 167.144147 
L 38.576339 159.639062 
L 38.576339 160.839063 
L 39.323661 158.514062 
L 39.323661 156.260601 
L 39.323661 157.457244 
L 39.323661 157.457244 
L 39.323661 159.744945 
L 39.323661 157.60428 
L 40.070982 155.524777 
L 40.070982 144.828936 
L 40.818304 143.169062 
L 40.818304 139.97077 
L 40.818304 140.707298 
L 41.565625 139.211156 
L 41.565625 136.320881 
L 41.565625 137.432321 
L 42.312946 136.039062 
L 42.312946 137.129172 
L 42.312946 137.129172 
L 42.312946 137.129172 
L 42.312946 135.511403 
L 43.060268 136.561168 
L 43.060268 132.749267 
L 43.807589 131.529972 
L 43.807589 134.580239 
L 43.807589 133.390519 
L 44.554911 132.223678 
L 44.554911 131.079062 
L 44.554911 132.061704 
L 44.554911 132.061704 
L 44.554911 134.901448 
L 44.554911 132.527558 
L 44.554911 132.527558 
L 44.554911 131.470641 
L 45.302232 132.372976 
L 45.302232 129.219063 
L 46.049554 128.250633 
L 46.049554 129.127587 
L 46.049554 129.127587 
L 46.049554 129.127587 
L 46.049554 126.317462 
L 46.796875 125.410491 
L 46.796875 122.773946 
L 47.544196 121.922139 
L 47.544196 122.787154 
L 47.544196 121.948153 
L 47.544196 121.948153 
L 47.544196 121.121769 
L 47.544196 121.121769 
L 47.544196 121.121769 
L 47.544196 123.639062 
L 48.291518 122.836185 
L 49.786161 123.639062 
L 49.786161 122.847573 
L 50.533482 122.067232 
L 50.533482 120.539062 
L 50.533482 121.330097 
L 50.533482 121.330097 
L 50.533482 122.110295 
L 51.280804 121.361511 
L 51.280804 122.890069 
L 51.280804 122.151062 
L 52.028125 121.421844 
L 52.028125 123.639062 
L 52.028125 122.928234 
L 52.775446 122.226404 
L 52.775446 121.533402 
L 52.775446 121.533402 
L 52.775446 121.533402 
L 52.775446 123.639062 
L 53.522768 124.323725 
L 53.522768 126.98038 
L 54.270089 127.624777 
L 54.270089 128.261548 
L 54.270089 128.261548 
L 54.270089 128.261548 
L 54.270089 126.90222 
L 55.017411 127.532086 
L 55.017411 128.154669 
L 55.017411 128.154669 
L 55.017411 128.154669 
L 55.017411 127.487338 
L 55.764732 128.103062 
L 55.764732 129.313639 
L 56.512054 128.654793 
L 56.512054 128.003308 
L 56.512054 128.599063 
L 57.259375 129.188234 
L 57.259375 130.347259 
L 58.006696 129.70428 
L 58.754018 130.274738 
L 58.754018 132.40346 
L 59.501339 131.776562 
L 59.501339 133.888042 
L 60.248661 134.402514 
L 60.248661 135.415947 
L 60.995982 134.799062 
L 61.743304 135.298764 
L 61.743304 136.768474 
L 62.490625 137.248819 
L 62.490625 139.12423 
L 63.237946 139.58192 
L 63.237946 143.513035 
L 63.985268 143.929972 
L 63.985268 145.158345 
L 64.732589 144.564062 
L 64.732589 146.154852 
L 65.479911 146.543866 
L 65.479911 148.06653 
L 66.227232 148.439062 
L 66.227232 152.336205 
L 66.974554 152.673209 
L 66.974554 153.339063 
L 67.721875 153.667978 
L 67.721875 157.119062 
L 68.469196 157.418373 
L 68.469196 158.881168 
L 69.216518 159.167152 
L 69.216518 160.565533 
L 69.963839 160.839063 
L 69.963839 161.110595 
L 70.711161 161.380153 
L 70.711161 162.439062 
L 71.458482 162.699062 
L 71.458482 162.957212 
L 71.458482 162.957212 
L 71.458482 162.957212 
L 71.458482 162.422041 
L 71.458482 162.934837 
L 72.205804 163.188536 
L 72.205804 163.69063 
L 72.953125 163.939062 
L 72.953125 165.394165 
L 73.700446 165.630927 
L 73.700446 165.86609 
L 74.447768 166.099669 
L 74.447768 167.913161 
L 75.942411 168.351766 
L 75.942411 168.999062 
L 76.689732 169.212053 
L 76.689732 169.423678 
L 77.437054 169.633951 
L 77.437054 170.665478 
L 78.184375 170.867903 
L 78.184375 171.665069 
L 78.931696 171.861285 
L 78.931696 172.442732 
L 79.679018 172.634184 
L 79.679018 173.38846 
L 80.426339 173.574198 
L 80.426339 173.758823 
L 81.920982 174.124777 
L 81.920982 174.843768 
L 83.415625 175.196957 
L 83.415625 176.232166 
L 83.415625 175.761699 
L 84.162946 175.931634 
L 84.162946 176.601774 
L 84.910268 176.76695 
L 84.910268 177.25694 
L 86.404911 177.579062 
L 86.404911 177.897626 
L 87.152232 178.055591 
L 87.152232 178.368926 
L 87.899554 178.524308 
L 87.899554 179.58866 
L 88.646875 179.737458 
L 88.646875 180.613799 
L 89.394196 180.757173 
L 89.394196 180.899795 
L 90.141518 181.041673 
L 90.141518 181.601853 
L 90.888839 181.740093 
L 90.888839 182.286001 
L 91.636161 182.420742 
L 91.636161 183.345062 
L 92.383482 183.474474 
L 92.383482 183.858864 
L 92.383482 183.858864 
L 92.383482 183.858864 
L 92.383482 183.434618 
L 92.383482 183.562215 
L 93.130804 183.689185 
L 93.130804 184.925393 
L 93.878125 185.045761 
L 93.878125 185.872474 
L 94.625446 185.988358 
L 94.625446 186.559712 
L 95.372768 186.784559 
L 95.372768 187.337693 
L 96.120089 187.555426 
L 96.120089 187.663552 
L 96.867411 187.87834 
L 96.867411 188.30215 
L 98.362054 188.615062 
L 98.362054 189.329216 
L 99.109375 189.529259 
L 99.109375 189.628628 
L 99.856696 189.826075 
L 99.856696 190.119062 
L 100.604018 190.312296 
L 100.604018 190.788215 
L 101.351339 190.975771 
L 101.351339 191.979681 
L 102.098661 192.157338 
L 102.098661 192.333541 
L 102.845982 192.508309 
L 102.845982 193.277462 
L 103.593304 193.44464 
L 103.593304 193.692924 
L 104.340625 193.856814 
L 104.340625 194.100239 
L 105.087946 194.260937 
L 105.087946 195.045959 
L 105.835268 195.199368 
L 105.835268 195.427298 
L 106.582589 195.577815 
L 106.582589 196.022614 
L 107.329911 196.168671 
L 107.329911 196.241293 
L 108.077232 196.385729 
L 108.077232 196.457547 
L 108.824554 196.600388 
L 108.824554 196.952931 
L 109.571875 197.092153 
L 109.571875 197.299099 
L 110.319196 197.435819 
L 110.319196 197.840132 
L 111.066518 197.972988 
L 111.066518 198.170511 
L 111.813839 198.301034 
L 111.813839 198.559342 
L 112.561161 198.687146 
L 112.561161 198.814062 
L 113.308482 198.940101 
L 113.308482 199.313035 
L 114.055804 199.43565 
L 114.055804 199.678385 
L 114.803125 199.798522 
L 114.803125 199.858287 
L 115.550446 199.977214 
L 115.550446 200.387235 
L 116.297768 200.502639 
L 116.297768 200.844308 
L 117.045089 200.95671 
L 117.045089 201.179322 
L 117.792411 201.344394 
L 117.792411 201.615986 
L 118.539732 201.776862 
L 118.539732 202.041594 
L 119.287054 202.198433 
L 119.287054 202.71069 
L 120.034375 202.861285 
L 120.034375 203.256136 
L 120.781696 203.401733 
L 120.781696 203.688987 
L 121.529018 203.830679 
L 121.529018 204.202376 
L 122.276339 204.339504 
L 122.276339 204.520468 
L 123.023661 204.654806 
L 123.023661 205.007362 
L 123.770982 205.137484 
L 123.770982 205.43679 
L 124.518304 205.563249 
L 124.518304 205.812976 
L 125.265625 205.936269 
L 125.265625 206.099063 
L 126.012946 206.219975 
L 126.012946 206.498241 
L 126.760268 206.61587 
L 126.760268 207.039062 
L 127.507589 207.152316 
L 127.507589 207.376114 
L 128.254911 207.523343 
L 128.254911 207.99127 
L 129.002232 208.132086 
L 129.002232 208.236746 
L 129.749554 208.375042 
L 129.749554 208.914345 
L 130.496875 209.045804 
L 130.496875 209.527298 
L 131.244196 209.652721 
L 131.244196 209.745988 
L 131.991518 209.869292 
L 131.991518 209.930498 
L 132.738839 210.052028 
L 132.738839 210.468342 
L 133.486161 210.584773 
L 133.486161 210.927591 
L 134.980804 211.067634 
L 134.980804 211.233571 
L 135.728125 211.370121 
L 135.728125 211.66513 
L 136.475446 211.796828 
L 136.475446 211.978752 
L 137.970089 212.132455 
L 137.970089 212.384161 
L 138.717411 212.507968 
L 138.717411 212.581611 
L 139.464732 212.703295 
L 139.464732 212.871472 
L 140.212054 212.99007 
L 140.212054 213.130738 
L 140.959375 213.24661 
L 140.959375 213.406804 
L 141.706696 213.519808 
L 141.706696 213.742341 
L 142.454018 213.873686 
L 142.454018 214.089062 
L 143.201339 214.216217 
L 143.201339 214.465993 
L 143.948661 214.265769 
L 143.948661 214.368984 
L 143.948661 214.632649 
L 144.695982 214.752106 
L 144.695982 214.948153 
L 145.443304 215.063991 
L 145.443304 215.235289 
L 146.190625 215.347881 
L 146.190625 215.514411 
L 146.937946 215.64202 
L 146.937946 215.785851 
L 147.685268 215.909983 
L 147.685268 215.980207 
L 148.432589 216.101878 
L 148.432589 216.340667 
L 149.179911 216.45784 
L 149.179911 216.736445 
L 149.927232 216.848776 
L 149.927232 216.991214 
L 150.674554 217.115986 
L 150.674554 217.299976 
L 151.421875 217.420575 
L 151.421875 217.509966 
L 152.169196 217.627767 
L 152.169196 217.88718 
L 152.916518 218.000038 
L 152.916518 218.139062 
L 153.663839 218.262281 
L 153.663839 218.410491 
L 154.411161 218.529843 
L 154.411161 218.686369 
L 155.158482 218.801853 
L 155.158482 218.965847 
L 155.905804 219.077477 
L 155.905804 219.163247 
L 156.653125 219.284209 
L 156.653125 219.450529 
L 157.400446 219.567222 
L 157.400446 219.76169 
L 158.147768 219.873845 
L 158.147768 220.060823 
L 158.895089 220.179403 
L 158.895089 220.359062 
L 159.642411 220.473046 
L 159.642411 220.645807 
L 160.389732 220.765342 
L 160.389732 220.921709 
L 161.137054 221.036785 
L 161.137054 221.159381 
L 161.884375 221.270683 
L 161.884375 221.371175 
L 162.631696 221.48809 
L 162.631696 221.655462 
L 163.379018 221.767652 
L 163.379018 221.861145 
L 164.126339 221.978275 
L 164.126339 222.150174 
L 164.873661 222.262318 
L 164.873661 222.364746 
L 165.620982 222.48094 
L 165.620982 222.564825 
L 166.368304 222.677451 
L 166.368304 222.824543 
L 167.115625 222.939759 
L 167.115625 223.045848 
L 167.862946 223.163892 
L 167.862946 223.272923 
L 168.610268 223.386631 
L 168.610268 223.575696 
L 169.357589 223.690043 
L 169.357589 223.83293 
L 170.104911 223.948328 
L 170.104911 224.031874 
L 170.852232 224.143301 
L 170.852232 224.229717 
L 171.599554 224.342865 
L 171.599554 224.486527 
L 172.346875 224.599825 
L 172.346875 224.67404 
L 173.094196 224.788594 
L 173.094196 224.920814 
L 173.841518 225.03502 
L 173.841518 225.12265 
L 174.588839 225.237176 
L 174.588839 225.312096 
L 175.336161 225.426938 
L 175.336161 225.570116 
L 176.083482 225.683407 
L 176.083482 225.751814 
L 176.830804 225.865057 
L 176.830804 225.959413 
L 177.578125 226.071747 
L 177.578125 226.15812 
L 178.325446 226.269519 
L 178.325446 226.326074 
L 179.072768 226.440722 
L 179.072768 226.548899 
L 179.820089 226.661393 
L 179.820089 226.750672 
L 180.567411 226.864655 
L 180.567411 227.01089 
L 181.314732 227.124252 
L 181.314732 227.222427 
L 182.062054 227.335969 
L 182.062054 227.344796 
L 182.809375 227.457778 
L 182.809375 227.491894 
L 183.556696 227.603485 
L 183.556696 227.639062 
L 184.304018 227.751774 
L 184.304018 227.819888 
L 185.051339 227.932377 
L 185.051339 227.952465 
L 185.798661 228.065855 
L 185.798661 228.070706 
L 186.545982 228.182823 
L 186.545982 228.238732 
L 188.040625 228.352411 
L 188.040625 228.490495 
L 188.787946 228.602443 
L 188.787946 228.647828 
L 189.535268 228.760602 
L 189.535268 228.782302 
L 190.282589 228.894359 
L 190.282589 228.918943 
L 191.029911 229.031803 
L 191.029911 229.044496 
L 191.777232 229.156446 
L 191.777232 229.170373 
L 193.271875 229.284555 
L 193.271875 229.376746 
L 194.019196 229.488045 
L 194.019196 229.505152 
L 195.513839 229.618076 
L 195.513839 229.638644 
L 197.008482 229.751943 
L 197.008482 229.843142 
L 198.503125 229.956222 
L 198.503125 230.047107 
L 199.997768 230.160323 
L 199.997768 230.244377 
L 201.492411 230.357039 
L 201.492411 230.414203 
L 202.987054 230.526681 
L 202.987054 230.588053 
L 204.481696 230.700363 
L 204.481696 230.720463 
L 206.723661 230.834098 
L 206.723661 230.905516 
L 208.218304 231.017889 
L 208.218304 231.035917 
L 209.712946 231.147906 
L 209.712946 231.169438 
L 211.954911 231.282484 
L 211.954911 231.343704 
L 214.196875 231.456673 
L 214.196875 231.510092 
L 216.438839 231.622827 
L 216.438839 231.669335 
L 218.680804 231.782189 
L 218.680804 231.805216 
L 220.922768 231.91794 
L 220.922768 231.928098 
L 223.912054 232.041168 
L 223.912054 232.050026 
L 226.901339 232.162607 
L 226.901339 232.196414 
L 229.890625 232.308908 
L 229.890625 232.332272 
L 232.879911 232.444786 
L 232.879911 232.446569 
L 236.616518 232.559459 
L 236.616518 232.573176 
L 241.100446 232.685995 
L 241.100446 232.687174 
L 244.837054 232.799584 
L 244.837054 232.802274 
L 250.815625 232.915515 
L 250.815625 232.917207 
L 256.046875 233.029818 
L 256.046875 233.0344 
L 262.772768 233.147412 
L 262.772768 233.151325 
L 271.740625 233.264715 
L 271.740625 233.268202 
L 283.697768 233.382003 
L 283.697768 233.383392 
L 299.391518 233.497625 
L 299.391518 233.49844 
L 365.903125 233.583522 
L 365.903125 233.583522 
" style="fill:none;stroke:#e24a33;stroke-linecap:square;"/>
   </g>
   <g id="line2d_47">
    <path clip-path="url(#p8d3db02fab)" d="M 31.103125 235.239062 
L 31.850446 235.239062 
L 31.850446 235.239062 
L 31.850446 235.239062 
L 31.850446 233.007062 
L 31.850446 233.007062 
L 31.850446 233.007062 
L 32.597768 230.775062 
L 32.597768 230.775062 
L 32.597768 230.775062 
L 33.345089 228.543062 
L 33.345089 228.543062 
L 33.345089 228.543062 
L 34.092411 226.311062 
L 34.092411 226.311062 
L 34.092411 226.311062 
L 34.092411 224.079062 
L 34.092411 224.079062 
L 34.092411 224.079062 
L 34.839732 224.079062 
L 34.839732 224.079062 
L 34.839732 224.079062 
L 34.839732 221.847062 
L 34.839732 221.847062 
L 34.839732 221.847062 
L 34.839732 219.615062 
L 35.587054 217.383062 
L 35.587054 212.919062 
L 36.334375 212.919062 
L 36.334375 208.455062 
L 36.334375 208.455062 
L 37.081696 206.223062 
L 37.081696 201.759062 
L 37.829018 199.527062 
L 37.829018 199.527062 
L 37.829018 197.295062 
L 38.576339 195.063063 
L 38.576339 195.063063 
L 38.576339 188.367063 
L 38.576339 188.367063 
L 39.323661 186.135063 
L 39.323661 181.671063 
L 40.070982 179.439062 
L 40.070982 163.815063 
L 40.818304 161.583062 
L 40.818304 154.887063 
L 41.565625 152.655062 
L 41.565625 148.191062 
L 41.565625 148.191062 
L 42.312946 145.959062 
L 42.312946 141.495063 
L 43.060268 141.495063 
L 43.060268 134.799062 
L 43.807589 132.567062 
L 43.807589 132.567062 
L 43.807589 130.335062 
L 44.554911 128.103062 
L 44.554911 116.943062 
L 45.302232 116.943062 
L 45.302232 108.015062 
L 46.049554 105.783062 
L 46.049554 99.087063 
L 46.796875 96.855063 
L 46.796875 90.159063 
L 47.544196 87.927062 
L 47.544196 87.927062 
L 47.544196 81.231063 
L 47.544196 81.231063 
L 48.291518 78.999063 
L 49.786161 78.999063 
L 49.786161 76.767063 
L 50.533482 74.535063 
L 50.533482 70.071063 
L 50.533482 70.071063 
L 51.280804 67.839063 
L 51.280804 67.839063 
L 51.280804 65.607062 
L 52.028125 63.375062 
L 52.028125 63.375062 
L 52.028125 58.911062 
L 52.775446 56.679062 
L 52.775446 54.447062 
L 52.775446 54.447062 
L 54.270089 54.447062 
L 54.270089 54.447062 
L 54.270089 49.983063 
L 55.017411 49.983063 
L 55.017411 49.983063 
L 55.017411 47.751063 
L 55.764732 47.751063 
L 55.764732 47.751063 
L 56.512054 45.519062 
L 56.512054 43.287062 
L 56.512054 43.287062 
L 57.259375 43.287062 
L 57.259375 43.287062 
L 58.006696 41.055062 
L 58.754018 41.055062 
L 58.754018 41.055062 
L 58.754018 38.823062 
L 58.754018 38.823062 
L 59.501339 36.591062 
L 59.501339 36.591062 
L 60.248661 36.591062 
L 60.248661 36.591062 
L 60.995982 34.359062 
L 63.985268 34.359062 
L 63.985268 34.359062 
L 64.732589 32.127062 
L 64.732589 32.127062 
L 71.458482 32.127062 
L 71.458482 32.127062 
L 71.458482 29.895062 
L 71.458482 29.895062 
L 83.415625 29.895062 
L 83.415625 29.895062 
L 83.415625 27.663062 
L 92.383482 27.663062 
L 92.383482 27.663062 
L 92.383482 25.431063 
L 92.383482 25.431063 
L 143.201339 25.431063 
L 143.201339 25.431063 
L 143.948661 23.199062 
L 143.948661 23.199062 
L 194.766518 23.199062 
L 194.766518 23.199062 
L 194.766518 20.967062 
L 194.766518 20.967062 
L 205.976339 20.967062 
L 205.976339 20.967062 
L 205.976339 18.735062 
L 205.976339 18.735062 
L 221.670089 18.735062 
L 221.670089 18.735062 
L 221.670089 16.503062 
L 221.670089 16.503062 
L 238.111161 16.503062 
L 238.111161 16.503062 
L 238.111161 14.271062 
L 238.111161 14.271062 
L 245.584375 14.271062 
L 245.584375 14.271062 
L 245.584375 12.039062 
L 245.584375 12.039062 
L 365.903125 12.039062 
L 365.903125 12.039062 
" style="fill:none;stroke:#348abd;stroke-linecap:square;"/>
   </g>
   <g id="line2d_48">
    <path clip-path="url(#p8d3db02fab)" d="M 31.103125 235.239062 
L 31.850446 235.239062 
L 31.850446 235.239062 
L 31.850446 235.239062 
L 31.850446 230.946755 
L 31.850446 230.946755 
L 31.850446 230.946755 
L 31.850446 231.253348 
L 32.597768 227.338178 
L 32.597768 227.92103 
L 34.092411 220.954262 
L 34.092411 221.289062 
L 34.092411 217.936737 
L 34.092411 218.069832 
L 34.839732 218.200895 
L 34.839732 218.582346 
L 34.839732 218.582346 
L 34.839732 218.582346 
L 34.839732 212.595584 
L 35.587054 209.546976 
L 35.587054 204.239062 
L 36.334375 204.452856 
L 36.334375 198.798246 
L 36.334375 199.044468 
L 37.081696 196.291411 
L 37.081696 196.551063 
L 37.081696 191.474357 
L 37.829018 188.859842 
L 37.829018 189.159063 
L 37.829018 189.454447 
L 37.829018 189.454447 
L 37.829018 189.454447 
L 37.829018 186.902757 
L 38.576339 184.383366 
L 38.576339 184.703213 
L 38.576339 177.372396 
L 38.576339 177.727406 
L 39.323661 175.356136 
L 39.323661 171.84498 
L 40.070982 169.592004 
L 40.070982 155.435711 
L 40.818304 153.399062 
L 40.818304 148.372035 
L 41.565625 146.439062 
L 41.565625 142.634807 
L 41.565625 143.124777 
L 42.312946 141.260115 
L 42.312946 141.752152 
L 42.312946 141.752152 
L 42.312946 141.752152 
L 42.312946 138.595764 
L 43.060268 139.09137 
L 43.060268 133.784517 
L 43.807589 132.051123 
L 43.807589 133.583617 
L 43.807589 133.583617 
L 43.807589 133.583617 
L 43.807589 131.885368 
L 44.554911 130.203768 
L 44.554911 128.538575 
L 44.554911 130.077524 
L 44.554911 130.077524 
L 44.554911 130.580689 
L 44.554911 130.580689 
L 44.554911 130.580689 
L 44.554911 124.682053 
L 45.302232 125.196272 
L 45.302232 119.580881 
L 46.049554 118.084311 
L 46.049554 118.612035 
L 46.049554 118.612035 
L 46.049554 118.612035 
L 46.049554 114.215062 
L 46.796875 112.775346 
L 46.796875 108.531639 
L 47.544196 107.141671 
L 47.544196 107.696205 
L 47.544196 107.696205 
L 47.544196 107.696205 
L 47.544196 104.723808 
L 47.544196 105.820575 
L 48.291518 104.494293 
L 49.786161 105.039062 
L 49.786161 103.727029 
L 50.533482 102.425839 
L 50.533482 99.855456 
L 50.533482 100.956136 
L 51.280804 99.692504 
L 51.280804 100.781231 
L 51.280804 100.781231 
L 51.280804 100.781231 
L 51.280804 99.533462 
L 52.028125 98.295636 
L 52.028125 99.913078 
L 52.028125 99.226562 
L 52.028125 99.226562 
L 52.028125 98.018829 
L 52.775446 96.820458 
L 52.775446 95.63134 
L 52.775446 96.701131 
L 52.775446 96.701131 
L 52.775446 97.229902 
L 53.522768 97.754652 
L 53.522768 99.814343 
L 54.270089 100.31966 
L 54.270089 100.821219 
L 54.270089 100.821219 
L 54.270089 100.821219 
L 54.270089 98.518767 
L 55.017411 99.021415 
L 55.017411 99.520381 
L 55.017411 99.520381 
L 55.017411 99.520381 
L 55.017411 98.386508 
L 55.764732 98.884153 
L 55.764732 99.868665 
L 56.512054 98.749854 
L 56.512054 97.639062 
L 56.512054 98.130491 
L 57.259375 98.618422 
L 57.259375 99.583939 
L 58.006696 98.489767 
L 58.754018 98.969589 
L 58.754018 99.919202 
L 58.754018 99.919202 
L 58.754018 99.919202 
L 58.754018 98.839062 
L 58.754018 99.779752 
L 58.754018 99.779752 
L 58.754018 100.245248 
L 59.501339 99.178789 
L 59.501339 101.017441 
L 60.248661 101.469366 
L 60.248661 102.364146 
L 60.995982 101.319063 
L 61.743304 101.763979 
L 61.743304 103.081168 
L 62.490625 103.514472 
L 62.490625 105.219645 
L 63.237946 105.639063 
L 63.237946 109.295489 
L 63.985268 109.689062 
L 63.985268 110.855162 
L 64.732589 109.861285 
L 64.732589 111.390282 
L 65.479911 111.766722 
L 65.479911 113.249873 
L 66.227232 113.61511 
L 66.227232 117.492976 
L 66.974554 117.833282 
L 66.974554 118.508028 
L 67.721875 118.842501 
L 67.721875 122.399062 
L 68.469196 122.711639 
L 68.469196 124.248899 
L 69.216518 124.551324 
L 69.216518 126.039062 
L 69.963839 126.331824 
L 69.963839 126.62302 
L 70.711161 126.912662 
L 70.711161 128.055949 
L 71.458482 128.33801 
L 71.458482 128.61859 
L 71.458482 128.61859 
L 71.458482 128.61859 
L 71.458482 127.729115 
L 71.458482 128.289062 
L 72.205804 128.566855 
L 72.205804 129.118132 
L 72.953125 129.39164 
L 72.953125 131.00353 
L 73.700446 131.267417 
L 73.700446 131.529972 
L 74.447768 131.791204 
L 74.447768 133.834618 
L 75.942411 134.33292 
L 75.942411 135.071258 
L 76.689732 135.314975 
L 76.689732 135.557509 
L 77.437054 135.798869 
L 77.437054 136.988345 
L 78.184375 137.222833 
L 78.184375 138.149701 
L 78.931696 138.378685 
L 78.931696 139.059203 
L 79.679018 139.283922 
L 79.679018 140.172396 
L 80.426339 140.391949 
L 80.426339 140.610491 
L 81.920982 141.044567 
L 81.920982 141.900881 
L 83.415625 142.323225 
L 83.415625 143.567634 
L 83.415625 142.777593 
L 84.162946 142.983062 
L 84.162946 143.795891 
L 84.910268 143.996865 
L 84.910268 144.594521 
L 86.404911 144.988628 
L 86.404911 145.379322 
L 87.152232 145.573404 
L 87.152232 145.959063 
L 87.899554 146.15065 
L 87.899554 147.469084 
L 88.646875 147.654252 
L 88.646875 148.749062 
L 89.394196 148.928875 
L 89.394196 149.107942 
L 90.141518 149.286267 
L 90.141518 149.992245 
L 90.888839 150.166931 
L 90.888839 150.858575 
L 91.636161 151.029732 
L 91.636161 152.208663 
L 92.383482 152.374392 
L 92.383482 152.867634 
L 92.383482 152.867634 
L 92.383482 152.867634 
L 92.383482 152.146785 
L 92.383482 152.310999 
L 93.130804 152.474565 
L 93.130804 154.075426 
L 93.878125 154.232113 
L 93.878125 155.312205 
L 94.625446 155.464158 
L 94.625446 156.215334 
L 95.372768 156.363875 
L 95.372768 157.243523 
L 96.120089 157.388228 
L 96.120089 157.676031 
L 96.867411 157.819136 
L 96.867411 158.526814 
L 97.614732 158.6668 
L 97.614732 158.806276 
L 98.362054 158.945244 
L 98.362054 159.904054 
L 99.109375 160.039062 
L 99.109375 160.307634 
L 99.856696 160.441202 
L 99.856696 160.970744 
L 100.604018 161.10196 
L 100.604018 161.879622 
L 101.351339 162.007649 
L 101.351339 163.509832 
L 102.098661 163.632237 
L 102.098661 163.996957 
L 102.845982 164.117707 
L 102.845982 165.303062 
L 103.593304 165.419429 
L 103.593304 165.881046 
L 104.340625 165.995498 
L 104.340625 166.449554 
L 105.087946 166.674357 
L 105.087946 167.776683 
L 105.835268 167.992909 
L 105.835268 168.314661 
L 106.582589 168.527457 
L 106.582589 169.157803 
L 107.329911 169.365279 
L 107.329911 169.46853 
L 108.077232 169.674062 
L 108.077232 169.776348 
L 108.824554 169.979965 
L 108.824554 170.483507 
L 109.571875 170.682755 
L 109.571875 170.979338 
L 110.319196 171.175551 
L 110.319196 171.757066 
L 111.066518 171.948565 
L 111.066518 172.233657 
L 111.813839 172.422296 
L 111.813839 172.796205 
L 112.561161 172.981496 
L 112.561161 173.16569 
L 113.308482 173.348797 
L 113.308482 173.891694 
L 114.055804 174.070549 
L 114.055804 174.425149 
L 114.803125 174.600912 
L 114.803125 174.688413 
L 115.550446 174.86266 
L 115.550446 175.464704 
L 116.297768 175.634517 
L 116.297768 176.138217 
L 117.045089 176.304231 
L 117.045089 176.633476 
L 117.792411 176.796723 
L 117.792411 177.281051 
L 118.539732 177.440715 
L 118.539732 177.914472 
L 119.287054 178.07067 
L 119.287054 178.914767 
L 120.034375 179.065569 
L 120.034375 179.734301 
L 120.781696 179.880751 
L 120.781696 180.387298 
L 121.529018 180.530327 
L 121.529018 181.164836 
L 122.276339 181.303844 
L 122.276339 181.648258 
L 123.023661 181.784795 
L 123.023661 182.3907 
L 123.770982 182.523485 
L 123.770982 183.048018 
L 124.518304 183.177524 
L 124.518304 183.625778 
L 125.265625 183.752437 
L 125.265625 184.06638 
L 126.012946 184.190887 
L 126.012946 184.682918 
L 126.760268 184.804447 
L 126.760268 185.521527 
L 127.507589 185.639062 
L 127.507589 186.046096 
L 128.254911 186.161168 
L 128.254911 187.007338 
L 129.002232 187.173083 
L 129.002232 187.392312 
L 129.749554 187.555426 
L 129.749554 188.459129 
L 130.496875 188.615062 
L 130.496875 189.429456 
L 131.244196 189.578997 
L 131.244196 189.776874 
L 131.991518 189.92416 
L 131.991518 190.070494 
L 132.738839 190.215887 
L 132.738839 190.929031 
L 133.486161 191.068957 
L 133.486161 191.665231 
L 134.233482 191.800553 
L 134.233482 191.845474 
L 134.980804 191.979681 
L 134.980804 192.157338 
L 135.728125 192.289625 
L 135.728125 192.853608 
L 136.475446 192.981661 
L 136.475446 193.361218 
L 137.970089 193.52773 
L 137.970089 194.019416 
L 138.717411 194.140532 
L 138.717411 194.340817 
L 139.464732 194.460054 
L 139.464732 194.813629 
L 140.212054 194.930129 
L 140.212054 195.237537 
L 140.959375 195.35161 
L 140.959375 195.689958 
L 141.706696 195.801469 
L 141.706696 196.241293 
L 142.454018 196.385729 
L 142.454018 196.812689 
L 143.201339 196.952931 
L 143.201339 197.435819 
L 143.948661 197.068045 
L 143.948661 197.17084 
L 143.948661 197.676618 
L 144.695982 197.80923 
L 144.695982 198.201508 
L 145.443304 198.330446 
L 145.443304 198.680442 
L 146.190625 198.806073 
L 146.190625 199.147148 
L 146.937946 199.269597 
L 146.937946 199.602088 
L 147.685268 199.721475 
L 147.685268 199.928488 
L 148.432589 200.045702 
L 148.432589 200.535298 
L 149.179911 200.648524 
L 149.179911 201.203749 
L 149.927232 201.339782 
L 149.927232 201.635259 
L 150.674554 201.767871 
L 150.674554 202.159499 
L 151.421875 202.288014 
L 151.421875 202.51684 
L 152.169196 202.642598 
L 152.169196 203.160394 
L 152.916518 203.281263 
L 152.916518 203.591301 
L 153.663839 203.708951 
L 153.663839 204.05671 
L 154.411161 204.170931 
L 154.411161 204.53088 
L 155.158482 204.66372 
L 155.158482 205.012405 
L 155.905804 205.141121 
L 155.905804 205.353227 
L 156.653125 205.479062 
L 156.653125 205.850289 
L 157.400446 205.971982 
L 157.400446 206.390083 
L 158.147768 206.507355 
L 158.147768 206.910405 
L 158.895089 207.023494 
L 158.895089 207.430538 
L 159.642411 207.5576 
L 159.642411 207.931915 
L 160.389732 208.054447 
L 160.389732 208.415533 
L 161.137054 208.533773 
L 161.137054 208.833085 
L 161.884375 208.94768 
L 161.884375 209.205913 
L 162.631696 209.317302 
L 162.631696 209.707455 
L 163.379018 209.829835 
L 163.379018 210.07111 
L 164.126339 210.190037 
L 164.126339 210.583249 
L 164.873661 210.697396 
L 164.873661 210.964306 
L 165.620982 211.088721 
L 165.620982 211.320281 
L 166.368304 211.441083 
L 166.368304 211.78331 
L 167.115625 211.899492 
L 167.115625 212.178704 
L 167.862946 212.291011 
L 167.862946 212.585216 
L 168.610268 212.705587 
L 168.610268 213.128531 
L 169.357589 213.243212 
L 169.357589 213.591283 
L 170.104911 213.712159 
L 170.104911 213.949906 
L 170.852232 214.066821 
L 170.852232 214.307177 
L 171.599554 214.420211 
L 171.599554 214.771881 
L 172.346875 214.889734 
L 172.346875 215.111867 
L 173.094196 215.225849 
L 173.094196 215.560176 
L 173.841518 215.678177 
L 173.841518 215.927587 
L 174.588839 216.041235 
L 174.588839 216.273052 
L 175.336161 216.391063 
L 175.336161 216.744514 
L 176.083482 216.856748 
L 176.083482 217.077178 
L 176.830804 217.193105 
L 176.830804 217.45793 
L 177.578125 217.576422 
L 177.578125 217.823046 
L 178.325446 217.936737 
L 178.325446 218.132165 
L 179.072768 218.248678 
L 179.072768 218.543 
L 179.820089 218.660485 
L 179.820089 218.915737 
L 180.567411 219.028053 
L 180.567411 219.397449 
L 181.314732 219.509092 
L 181.314732 219.789882 
L 182.062054 219.90163 
L 182.062054 220.017239 
L 182.809375 220.131118 
L 182.809375 220.290878 
L 183.556696 220.405904 
L 183.556696 220.565014 
L 184.304018 220.680875 
L 184.304018 220.902349 
L 185.051339 221.017735 
L 185.051339 221.150026 
L 185.798661 221.261475 
L 185.798661 221.371175 
L 186.545982 221.483629 
L 186.545982 221.685851 
L 187.293304 221.797541 
L 187.293304 221.894821 
L 188.040625 222.007237 
L 188.040625 222.158248 
L 188.787946 222.270255 
L 188.787946 222.454016 
L 189.535268 222.568611 
L 189.535268 222.707148 
L 190.282589 222.820907 
L 190.282589 222.964678 
L 191.029911 223.077319 
L 191.029911 223.201594 
L 191.777232 223.313303 
L 191.777232 223.439396 
L 192.524554 223.553199 
L 192.524554 223.645842 
L 193.271875 223.758824 
L 193.271875 223.829862 
L 194.019196 223.942312 
L 194.019196 224.073186 
L 195.513839 224.188418 
L 195.513839 224.323525 
L 196.261161 224.43634 
L 196.261161 224.512054 
L 197.008482 224.623655 
L 197.008482 224.712312 
L 197.755804 224.824871 
L 197.755804 224.925127 
L 198.503125 225.038063 
L 198.503125 225.100808 
L 199.250446 225.212296 
L 199.250446 225.298353 
L 199.997768 225.410072 
L 199.997768 225.47724 
L 200.745089 225.589344 
L 200.745089 225.621827 
L 201.492411 225.734871 
L 201.492411 225.801846 
L 202.239732 225.914781 
L 202.239732 225.981253 
L 202.987054 226.093864 
L 202.987054 226.134665 
L 204.481696 226.249258 
L 204.481696 226.388505 
L 205.229018 226.5004 
L 205.229018 226.539428 
L 206.723661 226.652745 
L 206.723661 226.742045 
L 207.470982 226.853935 
L 207.470982 226.855558 
L 208.218304 226.967658 
L 208.218304 226.992862 
L 208.965625 227.104402 
L 208.965625 227.119655 
L 209.712946 227.232258 
L 209.712946 227.249985 
L 210.460268 227.361893 
L 210.460268 227.37334 
L 211.954911 227.48601 
L 211.954911 227.58604 
L 213.449554 227.69931 
L 213.449554 227.797784 
L 214.944196 227.911122 
L 214.944196 228.011421 
L 216.438839 228.124242 
L 216.438839 228.215413 
L 217.933482 228.328625 
L 217.933482 228.399574 
L 219.428125 228.512202 
L 219.428125 228.563022 
L 220.922768 228.675352 
L 220.922768 228.716875 
L 223.164732 228.830155 
L 223.164732 228.873056 
L 224.659375 228.985889 
L 224.659375 229.032906 
L 226.154018 229.145289 
L 226.154018 229.169806 
L 227.648661 229.2822 
L 227.648661 229.304825 
L 229.143304 229.41697 
L 229.143304 229.434737 
L 230.637946 229.547259 
L 230.637946 229.564977 
L 232.132589 229.677506 
L 232.132589 229.681745 
L 234.374554 229.794483 
L 234.374554 229.835505 
L 236.616518 229.948556 
L 236.616518 229.971489 
L 239.605804 230.084689 
L 239.605804 230.09429 
L 241.847768 230.206769 
L 241.847768 230.230722 
L 244.089732 230.34335 
L 244.089732 230.368708 
L 247.079018 230.481522 
L 247.079018 230.484563 
L 250.068304 230.597282 
L 250.068304 230.611237 
L 253.057589 230.724043 
L 253.057589 230.738155 
L 256.046875 230.850976 
L 256.046875 230.872865 
L 259.036161 230.985608 
L 259.036161 230.989253 
L 263.520089 231.102665 
L 263.520089 231.127051 
L 268.004018 231.240137 
L 268.004018 231.244789 
L 273.235268 231.358336 
L 273.235268 231.364062 
L 279.213839 231.477687 
L 279.213839 231.482751 
L 286.687054 231.596765 
L 286.687054 231.603291 
L 294.907589 231.717447 
L 294.907589 231.727972 
L 304.622768 231.842578 
L 304.622768 231.842836 
L 365.903125 231.95236 
L 365.903125 231.95236 
" style="fill:none;stroke:#988ed5;stroke-linecap:square;"/>
   </g>
   <g id="patch_3">
    <path d="M 31.103125 12.039062 
L 365.903125 12.039062 
" style="fill:none;stroke:#ffffff;stroke-linecap:square;stroke-linejoin:miter;"/>
   </g>
   <g id="patch_4">
    <path d="M 365.903125 235.239062 
L 365.903125 12.039062 
" style="fill:none;stroke:#ffffff;stroke-linecap:square;stroke-linejoin:miter;"/>
   </g>
   <g id="patch_5">
    <path d="M 31.103125 235.239062 
L 365.903125 235.239062 
" style="fill:none;stroke:#ffffff;stroke-linecap:square;stroke-linejoin:miter;"/>
   </g>
   <g id="patch_6">
    <path d="M 31.103125 235.239062 
L 31.103125 12.039062 
" style="fill:none;stroke:#ffffff;stroke-linecap:square;stroke-linejoin:miter;"/>
   </g>
   <g id="legend_1">
    <g id="patch_7">
     <path d="M 262.3075 74.480312 
L 359.903125 74.480312 
L 359.903125 18.039062 
L 262.3075 18.039062 
z
" style="fill:#e5e5e5;stroke:#ffffff;stroke-linejoin:miter;stroke-width:0.5;"/>
    </g>
    <g id="line2d_49">
     <path d="M 270.7075 27.757187 
L 287.5075 27.757187 
" style="fill:none;stroke:#e24a33;stroke-linecap:square;"/>
    </g>
    <g id="line2d_50"/>
    <g id="text_17">
     <!-- precision -->
     <defs>
      <path d="M 54.890625 33.015625 
L 54.890625 0 
L 45.90625 0 
L 45.90625 32.71875 
Q 45.90625 40.484375 42.875 44.328125 
Q 39.84375 48.1875 33.796875 48.1875 
Q 26.515625 48.1875 22.3125 43.546875 
Q 18.109375 38.921875 18.109375 30.90625 
L 18.109375 0 
L 9.078125 0 
L 9.078125 54.6875 
L 18.109375 54.6875 
L 18.109375 46.1875 
Q 21.34375 51.125 25.703125 53.5625 
Q 30.078125 56 35.796875 56 
Q 45.21875 56 50.046875 50.171875 
Q 54.890625 44.34375 54.890625 33.015625 
" id="BitstreamVeraSans-Roman-6e"/>
      <path d="M 30.609375 48.390625 
Q 23.390625 48.390625 19.1875 42.75 
Q 14.984375 37.109375 14.984375 27.296875 
Q 14.984375 17.484375 19.15625 11.84375 
Q 23.34375 6.203125 30.609375 6.203125 
Q 37.796875 6.203125 41.984375 11.859375 
Q 46.1875 17.53125 46.1875 27.296875 
Q 46.1875 37.015625 41.984375 42.703125 
Q 37.796875 48.390625 30.609375 48.390625 
M 30.609375 56 
Q 42.328125 56 49.015625 48.375 
Q 55.71875 40.765625 55.71875 27.296875 
Q 55.71875 13.875 49.015625 6.21875 
Q 42.328125 -1.421875 30.609375 -1.421875 
Q 18.84375 -1.421875 12.171875 6.21875 
Q 5.515625 13.875 5.515625 27.296875 
Q 5.515625 40.765625 12.171875 48.375 
Q 18.84375 56 30.609375 56 
" id="BitstreamVeraSans-Roman-6f"/>
      <path d="M 9.421875 54.6875 
L 18.40625 54.6875 
L 18.40625 0 
L 9.421875 0 
z
M 9.421875 75.984375 
L 18.40625 75.984375 
L 18.40625 64.59375 
L 9.421875 64.59375 
z
" id="BitstreamVeraSans-Roman-69"/>
      <path d="M 18.109375 8.203125 
L 18.109375 -20.796875 
L 9.078125 -20.796875 
L 9.078125 54.6875 
L 18.109375 54.6875 
L 18.109375 46.390625 
Q 20.953125 51.265625 25.265625 53.625 
Q 29.59375 56 35.59375 56 
Q 45.5625 56 51.78125 48.09375 
Q 58.015625 40.1875 58.015625 27.296875 
Q 58.015625 14.40625 51.78125 6.484375 
Q 45.5625 -1.421875 35.59375 -1.421875 
Q 29.59375 -1.421875 25.265625 0.953125 
Q 20.953125 3.328125 18.109375 8.203125 
M 48.6875 27.296875 
Q 48.6875 37.203125 44.609375 42.84375 
Q 40.53125 48.484375 33.40625 48.484375 
Q 26.265625 48.484375 22.1875 42.84375 
Q 18.109375 37.203125 18.109375 27.296875 
Q 18.109375 17.390625 22.1875 11.75 
Q 26.265625 6.109375 33.40625 6.109375 
Q 40.53125 6.109375 44.609375 11.75 
Q 48.6875 17.390625 48.6875 27.296875 
" id="BitstreamVeraSans-Roman-70"/>
      <path d="M 56.203125 29.59375 
L 56.203125 25.203125 
L 14.890625 25.203125 
Q 15.484375 15.921875 20.484375 11.0625 
Q 25.484375 6.203125 34.421875 6.203125 
Q 39.59375 6.203125 44.453125 7.46875 
Q 49.3125 8.734375 54.109375 11.28125 
L 54.109375 2.78125 
Q 49.265625 0.734375 44.1875 -0.34375 
Q 39.109375 -1.421875 33.890625 -1.421875 
Q 20.796875 -1.421875 13.15625 6.1875 
Q 5.515625 13.8125 5.515625 26.8125 
Q 5.515625 40.234375 12.765625 48.109375 
Q 20.015625 56 32.328125 56 
Q 43.359375 56 49.78125 48.890625 
Q 56.203125 41.796875 56.203125 29.59375 
M 47.21875 32.234375 
Q 47.125 39.59375 43.09375 43.984375 
Q 39.0625 48.390625 32.421875 48.390625 
Q 24.90625 48.390625 20.390625 44.140625 
Q 15.875 39.890625 15.1875 32.171875 
z
" id="BitstreamVeraSans-Roman-65"/>
      <path d="M 41.109375 46.296875 
Q 39.59375 47.171875 37.8125 47.578125 
Q 36.03125 48 33.890625 48 
Q 26.265625 48 22.1875 43.046875 
Q 18.109375 38.09375 18.109375 28.8125 
L 18.109375 0 
L 9.078125 0 
L 9.078125 54.6875 
L 18.109375 54.6875 
L 18.109375 46.1875 
Q 20.953125 51.171875 25.484375 53.578125 
Q 30.03125 56 36.53125 56 
Q 37.453125 56 38.578125 55.875 
Q 39.703125 55.765625 41.0625 55.515625 
z
" id="BitstreamVeraSans-Roman-72"/>
      <path d="M 44.28125 53.078125 
L 44.28125 44.578125 
Q 40.484375 46.53125 36.375 47.5 
Q 32.28125 48.484375 27.875 48.484375 
Q 21.1875 48.484375 17.84375 46.4375 
Q 14.5 44.390625 14.5 40.28125 
Q 14.5 37.15625 16.890625 35.375 
Q 19.28125 33.59375 26.515625 31.984375 
L 29.59375 31.296875 
Q 39.15625 29.25 43.1875 25.515625 
Q 47.21875 21.78125 47.21875 15.09375 
Q 47.21875 7.46875 41.1875 3.015625 
Q 35.15625 -1.421875 24.609375 -1.421875 
Q 20.21875 -1.421875 15.453125 -0.5625 
Q 10.6875 0.296875 5.421875 2 
L 5.421875 11.28125 
Q 10.40625 8.6875 15.234375 7.390625 
Q 20.0625 6.109375 24.8125 6.109375 
Q 31.15625 6.109375 34.5625 8.28125 
Q 37.984375 10.453125 37.984375 14.40625 
Q 37.984375 18.0625 35.515625 20.015625 
Q 33.0625 21.96875 24.703125 23.78125 
L 21.578125 24.515625 
Q 13.234375 26.265625 9.515625 29.90625 
Q 5.8125 33.546875 5.8125 39.890625 
Q 5.8125 47.609375 11.28125 51.796875 
Q 16.75 56 26.8125 56 
Q 31.78125 56 36.171875 55.265625 
Q 40.578125 54.546875 44.28125 53.078125 
" id="BitstreamVeraSans-Roman-73"/>
      <path d="M 48.78125 52.59375 
L 48.78125 44.1875 
Q 44.96875 46.296875 41.140625 47.34375 
Q 37.3125 48.390625 33.40625 48.390625 
Q 24.65625 48.390625 19.8125 42.84375 
Q 14.984375 37.3125 14.984375 27.296875 
Q 14.984375 17.28125 19.8125 11.734375 
Q 24.65625 6.203125 33.40625 6.203125 
Q 37.3125 6.203125 41.140625 7.25 
Q 44.96875 8.296875 48.78125 10.40625 
L 48.78125 2.09375 
Q 45.015625 0.34375 40.984375 -0.53125 
Q 36.96875 -1.421875 32.421875 -1.421875 
Q 20.0625 -1.421875 12.78125 6.34375 
Q 5.515625 14.109375 5.515625 27.296875 
Q 5.515625 40.671875 12.859375 48.328125 
Q 20.21875 56 33.015625 56 
Q 37.15625 56 41.109375 55.140625 
Q 45.0625 54.296875 48.78125 52.59375 
" id="BitstreamVeraSans-Roman-63"/>
     </defs>
     <g transform="translate(300.7075 31.9571875)scale(0.12 -0.12)">
      <use xlink:href="#BitstreamVeraSans-Roman-70"/>
      <use x="63.4765625" xlink:href="#BitstreamVeraSans-Roman-72"/>
      <use x="104.55859375" xlink:href="#BitstreamVeraSans-Roman-65"/>
      <use x="166.08203125" xlink:href="#BitstreamVeraSans-Roman-63"/>
      <use x="221.0625" xlink:href="#BitstreamVeraSans-Roman-69"/>
      <use x="248.845703125" xlink:href="#BitstreamVeraSans-Roman-73"/>
      <use x="300.9453125" xlink:href="#BitstreamVeraSans-Roman-69"/>
      <use x="328.728515625" xlink:href="#BitstreamVeraSans-Roman-6f"/>
      <use x="389.91015625" xlink:href="#BitstreamVeraSans-Roman-6e"/>
     </g>
    </g>
    <g id="line2d_51">
     <path d="M 270.7075 45.370937 
L 287.5075 45.370937 
" style="fill:none;stroke:#348abd;stroke-linecap:square;"/>
    </g>
    <g id="line2d_52"/>
    <g id="text_18">
     <!-- recall -->
     <defs>
      <path d="M 34.28125 27.484375 
Q 23.390625 27.484375 19.1875 25 
Q 14.984375 22.515625 14.984375 16.5 
Q 14.984375 11.71875 18.140625 8.90625 
Q 21.296875 6.109375 26.703125 6.109375 
Q 34.1875 6.109375 38.703125 11.40625 
Q 43.21875 16.703125 43.21875 25.484375 
L 43.21875 27.484375 
z
M 52.203125 31.203125 
L 52.203125 0 
L 43.21875 0 
L 43.21875 8.296875 
Q 40.140625 3.328125 35.546875 0.953125 
Q 30.953125 -1.421875 24.3125 -1.421875 
Q 15.921875 -1.421875 10.953125 3.296875 
Q 6 8.015625 6 15.921875 
Q 6 25.140625 12.171875 29.828125 
Q 18.359375 34.515625 30.609375 34.515625 
L 43.21875 34.515625 
L 43.21875 35.40625 
Q 43.21875 41.609375 39.140625 45 
Q 35.0625 48.390625 27.6875 48.390625 
Q 23 48.390625 18.546875 47.265625 
Q 14.109375 46.140625 10.015625 43.890625 
L 10.015625 52.203125 
Q 14.9375 54.109375 19.578125 55.046875 
Q 24.21875 56 28.609375 56 
Q 40.484375 56 46.34375 49.84375 
Q 52.203125 43.703125 52.203125 31.203125 
" id="BitstreamVeraSans-Roman-61"/>
      <path d="M 9.421875 75.984375 
L 18.40625 75.984375 
L 18.40625 0 
L 9.421875 0 
z
" id="BitstreamVeraSans-Roman-6c"/>
     </defs>
     <g transform="translate(300.7075 49.5709375)scale(0.12 -0.12)">
      <use xlink:href="#BitstreamVeraSans-Roman-72"/>
      <use x="41.08203125" xlink:href="#BitstreamVeraSans-Roman-65"/>
      <use x="102.60546875" xlink:href="#BitstreamVeraSans-Roman-63"/>
      <use x="157.5859375" xlink:href="#BitstreamVeraSans-Roman-61"/>
      <use x="218.865234375" xlink:href="#BitstreamVeraSans-Roman-6c"/>
      <use x="246.6484375" xlink:href="#BitstreamVeraSans-Roman-6c"/>
     </g>
    </g>
    <g id="line2d_53">
     <path d="M 270.7075 62.984687 
L 287.5075 62.984687 
" style="fill:none;stroke:#988ed5;stroke-linecap:square;"/>
    </g>
    <g id="line2d_54"/>
    <g id="text_19">
     <!-- f1 -->
     <defs>
      <path d="M 37.109375 75.984375 
L 37.109375 68.5 
L 28.515625 68.5 
Q 23.6875 68.5 21.796875 66.546875 
Q 19.921875 64.59375 19.921875 59.515625 
L 19.921875 54.6875 
L 34.71875 54.6875 
L 34.71875 47.703125 
L 19.921875 47.703125 
L 19.921875 0 
L 10.890625 0 
L 10.890625 47.703125 
L 2.296875 47.703125 
L 2.296875 54.6875 
L 10.890625 54.6875 
L 10.890625 58.5 
Q 10.890625 67.625 15.140625 71.796875 
Q 19.390625 75.984375 28.609375 75.984375 
z
" id="BitstreamVeraSans-Roman-66"/>
     </defs>
     <g transform="translate(300.7075 67.1846875)scale(0.12 -0.12)">
      <use xlink:href="#BitstreamVeraSans-Roman-66"/>
      <use x="35.205078125" xlink:href="#BitstreamVeraSans-Roman-31"/>
     </g>
    </g>
   </g>
  </g>
 </g>
 <defs>
  <clipPath id="p8d3db02fab">
   <rect height="223.2" width="334.8" x="31.103125" y="12.0390625"/>
  </clipPath>
 </defs>
</svg>
