<?xml version="1.0" encoding="utf-8" standalone="no"?>
<!DOCTYPE svg PUBLIC "-//W3C//DTD SVG 1.1//EN"
  "http://www.w3.org/Graphics/SVG/1.1/DTD/svg11.dtd">
<!-- Created with matplotlib (http://matplotlib.org/) -->
<svg height="276pt" version="1.1" viewBox="0 0 373 276" width="373pt" xmlns="http://www.w3.org/2000/svg" xmlns:xlink="http://www.w3.org/1999/xlink">
 <defs>
  <style type="text/css">
*{stroke-linecap:butt;stroke-linejoin:round;stroke-miterlimit:100000;}
  </style>
 </defs>
 <g id="figure_1">
  <g id="patch_1">
   <path d="M 0 276.730937 
L 373.103125 276.730937 
L 373.103125 0 
L 0 0 
L 0 276.730937 
z
" style="fill:none;"/>
  </g>
  <g id="axes_1">
   <g id="patch_2">
    <path d="M 31.103125 235.239062 
L 365.903125 235.239062 
L 365.903125 12.039062 
L 31.103125 12.039062 
z
" style="fill:#e5e5e5;"/>
   </g>
   <g id="matplotlib.axis_1">
    <g id="xtick_1">
     <g id="line2d_1">
      <path clip-path="url(#p4151992bf5)" d="M 101.470382 235.239062 
L 101.470382 12.039062 
" style="fill:none;stroke:#ffffff;stroke-linecap:square;stroke-width:0.5;"/>
     </g>
     <g id="line2d_2">
      <defs>
       <path d="M 0 0 
L 0 4 
" id="m7fbf384e6c" style="stroke:#555555;stroke-width:0.5;"/>
      </defs>
      <g>
       <use style="fill:#555555;stroke:#555555;stroke-width:0.5;" x="101.470381637" xlink:href="#m7fbf384e6c" y="235.2390625"/>
      </g>
     </g>
     <g id="line2d_3">
      <defs>
       <path d="M 0 0 
L 0 -4 
" id="mea1b514791" style="stroke:#555555;stroke-width:0.5;"/>
      </defs>
      <g>
       <use style="fill:#555555;stroke:#555555;stroke-width:0.5;" x="101.470381637" xlink:href="#mea1b514791" y="12.0390625"/>
      </g>
     </g>
     <g id="text_1">
      <!-- 100 -->
      <defs>
       <path d="M 31.78125 66.40625 
Q 24.171875 66.40625 20.328125 58.90625 
Q 16.5 51.421875 16.5 36.375 
Q 16.5 21.390625 20.328125 13.890625 
Q 24.171875 6.390625 31.78125 6.390625 
Q 39.453125 6.390625 43.28125 13.890625 
Q 47.125 21.390625 47.125 36.375 
Q 47.125 51.421875 43.28125 58.90625 
Q 39.453125 66.40625 31.78125 66.40625 
M 31.78125 74.21875 
Q 44.046875 74.21875 50.515625 64.515625 
Q 56.984375 54.828125 56.984375 36.375 
Q 56.984375 17.96875 50.515625 8.265625 
Q 44.046875 -1.421875 31.78125 -1.421875 
Q 19.53125 -1.421875 13.0625 8.265625 
Q 6.59375 17.96875 6.59375 36.375 
Q 6.59375 54.828125 13.0625 64.515625 
Q 19.53125 74.21875 31.78125 74.21875 
" id="BitstreamVeraSans-Roman-30"/>
       <path d="M 12.40625 8.296875 
L 28.515625 8.296875 
L 28.515625 63.921875 
L 10.984375 60.40625 
L 10.984375 69.390625 
L 28.421875 72.90625 
L 38.28125 72.90625 
L 38.28125 8.296875 
L 54.390625 8.296875 
L 54.390625 0 
L 12.40625 0 
z
" id="BitstreamVeraSans-Roman-31"/>
      </defs>
      <g style="fill:#555555;" transform="translate(91.9266316372 250.8375)scale(0.1 -0.1)">
       <use xlink:href="#BitstreamVeraSans-Roman-31"/>
       <use x="63.623046875" xlink:href="#BitstreamVeraSans-Roman-30"/>
       <use x="127.24609375" xlink:href="#BitstreamVeraSans-Roman-30"/>
      </g>
     </g>
    </g>
    <g id="xtick_2">
     <g id="line2d_4">
      <path clip-path="url(#p4151992bf5)" d="M 175.541178 235.239062 
L 175.541178 12.039062 
" style="fill:none;stroke:#ffffff;stroke-linecap:square;stroke-width:0.5;"/>
     </g>
     <g id="line2d_5">
      <g>
       <use style="fill:#555555;stroke:#555555;stroke-width:0.5;" x="175.541178097" xlink:href="#m7fbf384e6c" y="235.2390625"/>
      </g>
     </g>
     <g id="line2d_6">
      <g>
       <use style="fill:#555555;stroke:#555555;stroke-width:0.5;" x="175.541178097" xlink:href="#mea1b514791" y="12.0390625"/>
      </g>
     </g>
     <g id="text_2">
      <!-- 200 -->
      <defs>
       <path d="M 19.1875 8.296875 
L 53.609375 8.296875 
L 53.609375 0 
L 7.328125 0 
L 7.328125 8.296875 
Q 12.9375 14.109375 22.625 23.890625 
Q 32.328125 33.6875 34.8125 36.53125 
Q 39.546875 41.84375 41.421875 45.53125 
Q 43.3125 49.21875 43.3125 52.78125 
Q 43.3125 58.59375 39.234375 62.25 
Q 35.15625 65.921875 28.609375 65.921875 
Q 23.96875 65.921875 18.8125 64.3125 
Q 13.671875 62.703125 7.8125 59.421875 
L 7.8125 69.390625 
Q 13.765625 71.78125 18.9375 73 
Q 24.125 74.21875 28.421875 74.21875 
Q 39.75 74.21875 46.484375 68.546875 
Q 53.21875 62.890625 53.21875 53.421875 
Q 53.21875 48.921875 51.53125 44.890625 
Q 49.859375 40.875 45.40625 35.40625 
Q 44.1875 33.984375 37.640625 27.21875 
Q 31.109375 20.453125 19.1875 8.296875 
" id="BitstreamVeraSans-Roman-32"/>
      </defs>
      <g style="fill:#555555;" transform="translate(165.997428097 250.8375)scale(0.1 -0.1)">
       <use xlink:href="#BitstreamVeraSans-Roman-32"/>
       <use x="63.623046875" xlink:href="#BitstreamVeraSans-Roman-30"/>
       <use x="127.24609375" xlink:href="#BitstreamVeraSans-Roman-30"/>
      </g>
     </g>
    </g>
    <g id="xtick_3">
     <g id="line2d_7">
      <path clip-path="url(#p4151992bf5)" d="M 249.611975 235.239062 
L 249.611975 12.039062 
" style="fill:none;stroke:#ffffff;stroke-linecap:square;stroke-width:0.5;"/>
     </g>
     <g id="line2d_8">
      <g>
       <use style="fill:#555555;stroke:#555555;stroke-width:0.5;" x="249.611974558" xlink:href="#m7fbf384e6c" y="235.2390625"/>
      </g>
     </g>
     <g id="line2d_9">
      <g>
       <use style="fill:#555555;stroke:#555555;stroke-width:0.5;" x="249.611974558" xlink:href="#mea1b514791" y="12.0390625"/>
      </g>
     </g>
     <g id="text_3">
      <!-- 300 -->
      <defs>
       <path d="M 40.578125 39.3125 
Q 47.65625 37.796875 51.625 33 
Q 55.609375 28.21875 55.609375 21.1875 
Q 55.609375 10.40625 48.1875 4.484375 
Q 40.765625 -1.421875 27.09375 -1.421875 
Q 22.515625 -1.421875 17.65625 -0.515625 
Q 12.796875 0.390625 7.625 2.203125 
L 7.625 11.71875 
Q 11.71875 9.328125 16.59375 8.109375 
Q 21.484375 6.890625 26.8125 6.890625 
Q 36.078125 6.890625 40.9375 10.546875 
Q 45.796875 14.203125 45.796875 21.1875 
Q 45.796875 27.640625 41.28125 31.265625 
Q 36.765625 34.90625 28.71875 34.90625 
L 20.21875 34.90625 
L 20.21875 43.015625 
L 29.109375 43.015625 
Q 36.375 43.015625 40.234375 45.921875 
Q 44.09375 48.828125 44.09375 54.296875 
Q 44.09375 59.90625 40.109375 62.90625 
Q 36.140625 65.921875 28.71875 65.921875 
Q 24.65625 65.921875 20.015625 65.03125 
Q 15.375 64.15625 9.8125 62.3125 
L 9.8125 71.09375 
Q 15.4375 72.65625 20.34375 73.4375 
Q 25.25 74.21875 29.59375 74.21875 
Q 40.828125 74.21875 47.359375 69.109375 
Q 53.90625 64.015625 53.90625 55.328125 
Q 53.90625 49.265625 50.4375 45.09375 
Q 46.96875 40.921875 40.578125 39.3125 
" id="BitstreamVeraSans-Roman-33"/>
      </defs>
      <g style="fill:#555555;" transform="translate(240.068224558 250.8375)scale(0.1 -0.1)">
       <use xlink:href="#BitstreamVeraSans-Roman-33"/>
       <use x="63.623046875" xlink:href="#BitstreamVeraSans-Roman-30"/>
       <use x="127.24609375" xlink:href="#BitstreamVeraSans-Roman-30"/>
      </g>
     </g>
    </g>
    <g id="xtick_4">
     <g id="line2d_10">
      <path clip-path="url(#p4151992bf5)" d="M 323.682771 235.239062 
L 323.682771 12.039062 
" style="fill:none;stroke:#ffffff;stroke-linecap:square;stroke-width:0.5;"/>
     </g>
     <g id="line2d_11">
      <g>
       <use style="fill:#555555;stroke:#555555;stroke-width:0.5;" x="323.682771018" xlink:href="#m7fbf384e6c" y="235.2390625"/>
      </g>
     </g>
     <g id="line2d_12">
      <g>
       <use style="fill:#555555;stroke:#555555;stroke-width:0.5;" x="323.682771018" xlink:href="#mea1b514791" y="12.0390625"/>
      </g>
     </g>
     <g id="text_4">
      <!-- 400 -->
      <defs>
       <path d="M 37.796875 64.3125 
L 12.890625 25.390625 
L 37.796875 25.390625 
z
M 35.203125 72.90625 
L 47.609375 72.90625 
L 47.609375 25.390625 
L 58.015625 25.390625 
L 58.015625 17.1875 
L 47.609375 17.1875 
L 47.609375 0 
L 37.796875 0 
L 37.796875 17.1875 
L 4.890625 17.1875 
L 4.890625 26.703125 
z
" id="BitstreamVeraSans-Roman-34"/>
      </defs>
      <g style="fill:#555555;" transform="translate(314.139021018 250.8375)scale(0.1 -0.1)">
       <use xlink:href="#BitstreamVeraSans-Roman-34"/>
       <use x="63.623046875" xlink:href="#BitstreamVeraSans-Roman-30"/>
       <use x="127.24609375" xlink:href="#BitstreamVeraSans-Roman-30"/>
      </g>
     </g>
    </g>
    <g id="text_5">
     <!-- x -->
     <defs>
      <path d="M 54.890625 54.6875 
L 35.109375 28.078125 
L 55.90625 0 
L 45.3125 0 
L 29.390625 21.484375 
L 13.484375 0 
L 2.875 0 
L 24.125 28.609375 
L 4.6875 54.6875 
L 15.28125 54.6875 
L 29.78125 35.203125 
L 44.28125 54.6875 
z
" id="BitstreamVeraSans-Roman-78"/>
     </defs>
     <g style="fill:#555555;" transform="translate(194.951875 267.0353125)scale(0.12 -0.12)">
      <use xlink:href="#BitstreamVeraSans-Roman-78"/>
     </g>
    </g>
   </g>
   <g id="matplotlib.axis_2">
    <g id="ytick_1">
     <g id="line2d_13">
      <path clip-path="url(#p4151992bf5)" d="M 31.103125 235.239062 
L 365.903125 235.239062 
" style="fill:none;stroke:#ffffff;stroke-linecap:square;stroke-width:0.5;"/>
     </g>
     <g id="line2d_14">
      <defs>
       <path d="M 0 0 
L -4 0 
" id="m29de8e15e2" style="stroke:#555555;stroke-width:0.5;"/>
      </defs>
      <g>
       <use style="fill:#555555;stroke:#555555;stroke-width:0.5;" x="31.103125" xlink:href="#m29de8e15e2" y="235.2390625"/>
      </g>
     </g>
     <g id="line2d_15">
      <defs>
       <path d="M 0 0 
L 4 0 
" id="mbdc2f765fa" style="stroke:#555555;stroke-width:0.5;"/>
      </defs>
      <g>
       <use style="fill:#555555;stroke:#555555;stroke-width:0.5;" x="365.903125" xlink:href="#mbdc2f765fa" y="235.2390625"/>
      </g>
     </g>
     <g id="text_6">
      <!-- 0.0 -->
      <defs>
       <path d="M 10.6875 12.40625 
L 21 12.40625 
L 21 0 
L 10.6875 0 
z
" id="BitstreamVeraSans-Roman-2e"/>
      </defs>
      <g style="fill:#555555;" transform="translate(7.2 237.9984375)scale(0.1 -0.1)">
       <use xlink:href="#BitstreamVeraSans-Roman-30"/>
       <use x="63.623046875" xlink:href="#BitstreamVeraSans-Roman-2e"/>
       <use x="95.41015625" xlink:href="#BitstreamVeraSans-Roman-30"/>
      </g>
     </g>
    </g>
    <g id="ytick_2">
     <g id="line2d_16">
      <path clip-path="url(#p4151992bf5)" d="M 31.103125 190.599063 
L 365.903125 190.599063 
" style="fill:none;stroke:#ffffff;stroke-linecap:square;stroke-width:0.5;"/>
     </g>
     <g id="line2d_17">
      <g>
       <use style="fill:#555555;stroke:#555555;stroke-width:0.5;" x="31.103125" xlink:href="#m29de8e15e2" y="190.5990625"/>
      </g>
     </g>
     <g id="line2d_18">
      <g>
       <use style="fill:#555555;stroke:#555555;stroke-width:0.5;" x="365.903125" xlink:href="#mbdc2f765fa" y="190.5990625"/>
      </g>
     </g>
     <g id="text_7">
      <!-- 0.2 -->
      <g style="fill:#555555;" transform="translate(7.2 193.3584375)scale(0.1 -0.1)">
       <use xlink:href="#BitstreamVeraSans-Roman-30"/>
       <use x="63.623046875" xlink:href="#BitstreamVeraSans-Roman-2e"/>
       <use x="95.41015625" xlink:href="#BitstreamVeraSans-Roman-32"/>
      </g>
     </g>
    </g>
    <g id="ytick_3">
     <g id="line2d_19">
      <path clip-path="url(#p4151992bf5)" d="M 31.103125 145.959062 
L 365.903125 145.959062 
" style="fill:none;stroke:#ffffff;stroke-linecap:square;stroke-width:0.5;"/>
     </g>
     <g id="line2d_20">
      <g>
       <use style="fill:#555555;stroke:#555555;stroke-width:0.5;" x="31.103125" xlink:href="#m29de8e15e2" y="145.9590625"/>
      </g>
     </g>
     <g id="line2d_21">
      <g>
       <use style="fill:#555555;stroke:#555555;stroke-width:0.5;" x="365.903125" xlink:href="#mbdc2f765fa" y="145.9590625"/>
      </g>
     </g>
     <g id="text_8">
      <!-- 0.4 -->
      <g style="fill:#555555;" transform="translate(7.2 148.7184375)scale(0.1 -0.1)">
       <use xlink:href="#BitstreamVeraSans-Roman-30"/>
       <use x="63.623046875" xlink:href="#BitstreamVeraSans-Roman-2e"/>
       <use x="95.41015625" xlink:href="#BitstreamVeraSans-Roman-34"/>
      </g>
     </g>
    </g>
    <g id="ytick_4">
     <g id="line2d_22">
      <path clip-path="url(#p4151992bf5)" d="M 31.103125 101.319062 
L 365.903125 101.319062 
" style="fill:none;stroke:#ffffff;stroke-linecap:square;stroke-width:0.5;"/>
     </g>
     <g id="line2d_23">
      <g>
       <use style="fill:#555555;stroke:#555555;stroke-width:0.5;" x="31.103125" xlink:href="#m29de8e15e2" y="101.3190625"/>
      </g>
     </g>
     <g id="line2d_24">
      <g>
       <use style="fill:#555555;stroke:#555555;stroke-width:0.5;" x="365.903125" xlink:href="#mbdc2f765fa" y="101.3190625"/>
      </g>
     </g>
     <g id="text_9">
      <!-- 0.6 -->
      <defs>
       <path d="M 33.015625 40.375 
Q 26.375 40.375 22.484375 35.828125 
Q 18.609375 31.296875 18.609375 23.390625 
Q 18.609375 15.53125 22.484375 10.953125 
Q 26.375 6.390625 33.015625 6.390625 
Q 39.65625 6.390625 43.53125 10.953125 
Q 47.40625 15.53125 47.40625 23.390625 
Q 47.40625 31.296875 43.53125 35.828125 
Q 39.65625 40.375 33.015625 40.375 
M 52.59375 71.296875 
L 52.59375 62.3125 
Q 48.875 64.0625 45.09375 64.984375 
Q 41.3125 65.921875 37.59375 65.921875 
Q 27.828125 65.921875 22.671875 59.328125 
Q 17.53125 52.734375 16.796875 39.40625 
Q 19.671875 43.65625 24.015625 45.921875 
Q 28.375 48.1875 33.59375 48.1875 
Q 44.578125 48.1875 50.953125 41.515625 
Q 57.328125 34.859375 57.328125 23.390625 
Q 57.328125 12.15625 50.6875 5.359375 
Q 44.046875 -1.421875 33.015625 -1.421875 
Q 20.359375 -1.421875 13.671875 8.265625 
Q 6.984375 17.96875 6.984375 36.375 
Q 6.984375 53.65625 15.1875 63.9375 
Q 23.390625 74.21875 37.203125 74.21875 
Q 40.921875 74.21875 44.703125 73.484375 
Q 48.484375 72.75 52.59375 71.296875 
" id="BitstreamVeraSans-Roman-36"/>
      </defs>
      <g style="fill:#555555;" transform="translate(7.2 104.0784375)scale(0.1 -0.1)">
       <use xlink:href="#BitstreamVeraSans-Roman-30"/>
       <use x="63.623046875" xlink:href="#BitstreamVeraSans-Roman-2e"/>
       <use x="95.41015625" xlink:href="#BitstreamVeraSans-Roman-36"/>
      </g>
     </g>
    </g>
    <g id="ytick_5">
     <g id="line2d_25">
      <path clip-path="url(#p4151992bf5)" d="M 31.103125 56.679062 
L 365.903125 56.679062 
" style="fill:none;stroke:#ffffff;stroke-linecap:square;stroke-width:0.5;"/>
     </g>
     <g id="line2d_26">
      <g>
       <use style="fill:#555555;stroke:#555555;stroke-width:0.5;" x="31.103125" xlink:href="#m29de8e15e2" y="56.6790625"/>
      </g>
     </g>
     <g id="line2d_27">
      <g>
       <use style="fill:#555555;stroke:#555555;stroke-width:0.5;" x="365.903125" xlink:href="#mbdc2f765fa" y="56.6790625"/>
      </g>
     </g>
     <g id="text_10">
      <!-- 0.8 -->
      <defs>
       <path d="M 31.78125 34.625 
Q 24.75 34.625 20.71875 30.859375 
Q 16.703125 27.09375 16.703125 20.515625 
Q 16.703125 13.921875 20.71875 10.15625 
Q 24.75 6.390625 31.78125 6.390625 
Q 38.8125 6.390625 42.859375 10.171875 
Q 46.921875 13.96875 46.921875 20.515625 
Q 46.921875 27.09375 42.890625 30.859375 
Q 38.875 34.625 31.78125 34.625 
M 21.921875 38.8125 
Q 15.578125 40.375 12.03125 44.71875 
Q 8.5 49.078125 8.5 55.328125 
Q 8.5 64.0625 14.71875 69.140625 
Q 20.953125 74.21875 31.78125 74.21875 
Q 42.671875 74.21875 48.875 69.140625 
Q 55.078125 64.0625 55.078125 55.328125 
Q 55.078125 49.078125 51.53125 44.71875 
Q 48 40.375 41.703125 38.8125 
Q 48.828125 37.15625 52.796875 32.3125 
Q 56.78125 27.484375 56.78125 20.515625 
Q 56.78125 9.90625 50.3125 4.234375 
Q 43.84375 -1.421875 31.78125 -1.421875 
Q 19.734375 -1.421875 13.25 4.234375 
Q 6.78125 9.90625 6.78125 20.515625 
Q 6.78125 27.484375 10.78125 32.3125 
Q 14.796875 37.15625 21.921875 38.8125 
M 18.3125 54.390625 
Q 18.3125 48.734375 21.84375 45.5625 
Q 25.390625 42.390625 31.78125 42.390625 
Q 38.140625 42.390625 41.71875 45.5625 
Q 45.3125 48.734375 45.3125 54.390625 
Q 45.3125 60.0625 41.71875 63.234375 
Q 38.140625 66.40625 31.78125 66.40625 
Q 25.390625 66.40625 21.84375 63.234375 
Q 18.3125 60.0625 18.3125 54.390625 
" id="BitstreamVeraSans-Roman-38"/>
      </defs>
      <g style="fill:#555555;" transform="translate(7.2 59.4384375)scale(0.1 -0.1)">
       <use xlink:href="#BitstreamVeraSans-Roman-30"/>
       <use x="63.623046875" xlink:href="#BitstreamVeraSans-Roman-2e"/>
       <use x="95.41015625" xlink:href="#BitstreamVeraSans-Roman-38"/>
      </g>
     </g>
    </g>
    <g id="ytick_6">
     <g id="line2d_28">
      <path clip-path="url(#p4151992bf5)" d="M 31.103125 12.039062 
L 365.903125 12.039062 
" style="fill:none;stroke:#ffffff;stroke-linecap:square;stroke-width:0.5;"/>
     </g>
     <g id="line2d_29">
      <g>
       <use style="fill:#555555;stroke:#555555;stroke-width:0.5;" x="31.103125" xlink:href="#m29de8e15e2" y="12.0390625"/>
      </g>
     </g>
     <g id="line2d_30">
      <g>
       <use style="fill:#555555;stroke:#555555;stroke-width:0.5;" x="365.903125" xlink:href="#mbdc2f765fa" y="12.0390625"/>
      </g>
     </g>
     <g id="text_11">
      <!-- 1.0 -->
      <g style="fill:#555555;" transform="translate(7.2 14.7984375)scale(0.1 -0.1)">
       <use xlink:href="#BitstreamVeraSans-Roman-31"/>
       <use x="63.623046875" xlink:href="#BitstreamVeraSans-Roman-2e"/>
       <use x="95.41015625" xlink:href="#BitstreamVeraSans-Roman-30"/>
      </g>
     </g>
    </g>
   </g>
   <g id="line2d_31">
    <path clip-path="url(#p4151992bf5)" d="M 31.103125 12.039062 
L 131.0987 12.039062 
L 137.024364 14.293608 
L 140.727904 16.503062 
L 140.727904 18.668765 
L 140.727904 18.603768 
L 142.20932 20.707024 
L 142.950028 22.769832 
L 142.950028 26.778685 
L 143.690736 28.726913 
L 143.690736 32.516127 
L 144.431444 34.359062 
L 144.431444 36.168792 
L 145.172152 37.946205 
L 145.172152 43.092976 
L 145.91286 44.749407 
L 145.91286 52.620881 
L 146.653567 54.117751 
L 146.653567 62.607812 
L 147.394275 63.946039 
L 147.394275 67.839063 
L 148.134983 69.097709 
L 148.134983 71.559063 
L 148.875691 72.762592 
L 148.875691 75.117323 
L 149.616399 76.269278 
L 149.616399 84.920695 
L 150.357107 85.93636 
L 150.357107 94.495113 
L 151.097815 95.385898 
L 151.097815 108.245959 
L 151.838523 108.971634 
L 151.838523 117.702892 
L 152.579231 118.324777 
L 152.579231 128.491236 
L 153.319939 129.004447 
L 153.319939 141.608554 
L 154.060647 142.003619 
L 154.060647 151.539062 
L 154.801355 151.854912 
L 154.801355 160.587711 
L 155.542063 160.839063 
L 155.542063 168.279063 
L 156.282771 168.481359 
L 156.282771 175.998312 
L 157.023479 176.15671 
L 157.023479 181.606053 
L 157.764187 181.735915 
L 157.764187 185.805505 
L 158.504895 186.025699 
L 158.504895 190.051332 
L 159.245603 190.235397 
L 159.245603 194.768733 
L 159.986311 194.916435 
L 159.986311 199.656454 
L 160.727019 199.770684 
L 160.727019 202.599772 
L 161.467727 202.743768 
L 161.467727 205.776662 
L 162.208435 205.894043 
L 162.208435 208.258843 
L 162.949143 208.389974 
L 162.949143 211.194666 
L 163.689851 211.324777 
L 163.689851 213.447347 
L 164.430559 213.575533 
L 164.430559 215.059336 
L 165.171267 215.18752 
L 165.171267 216.886239 
L 165.911975 217.007379 
L 165.911975 218.371276 
L 166.652683 218.486371 
L 166.652683 219.688887 
L 167.39339 219.808336 
L 167.39339 220.653716 
L 168.134098 220.768336 
L 168.134098 221.798187 
L 168.874806 221.91168 
L 168.874806 222.82513 
L 169.615514 222.942568 
L 169.615514 223.663997 
L 170.356222 223.778067 
L 170.356222 224.528059 
L 171.09693 224.641077 
L 171.09693 225.307916 
L 171.837638 225.422625 
L 171.837638 226.00127 
L 172.578346 226.115693 
L 172.578346 226.593992 
L 173.319054 226.707479 
L 173.319054 227.142031 
L 174.059762 227.253229 
L 174.059762 227.640438 
L 174.80047 227.753697 
L 174.80047 227.991834 
L 175.541178 228.104158 
L 175.541178 228.357468 
L 176.281886 228.46921 
L 176.281886 228.701548 
L 177.022594 228.813706 
L 177.022594 228.989967 
L 177.763302 229.102767 
L 177.763302 229.291068 
L 178.50401 229.402612 
L 178.50401 229.558651 
L 179.244718 229.670312 
L 179.244718 229.80052 
L 179.985426 229.911965 
L 179.985426 230.045925 
L 180.726134 230.15817 
L 180.726134 230.244307 
L 181.466842 230.355792 
L 181.466842 230.422846 
L 182.20755 230.534613 
L 182.20755 230.583184 
L 182.948258 230.695201 
L 182.948258 230.744189 
L 183.688966 230.855647 
L 183.688966 230.875555 
L 184.429674 230.987225 
L 184.429674 231.015668 
L 185.170382 231.127265 
L 185.170382 231.12803 
L 185.91109 231.239642 
L 185.91109 231.257657 
L 186.651798 231.36922 
L 186.651798 231.375986 
L 188.133213 231.48812 
L 188.133213 231.564225 
L 189.614629 231.676212 
L 189.614629 231.737747 
L 191.096045 231.849463 
L 191.096045 231.896128 
L 192.577461 232.008064 
L 192.577461 232.022175 
L 194.058877 232.133835 
L 194.058877 232.145139 
L 196.281001 232.257441 
L 196.281001 232.295962 
L 198.503125 232.407954 
L 198.503125 232.43098 
L 201.465957 232.543345 
L 201.465957 232.570367 
L 205.169497 232.683042 
L 205.169497 232.705316 
L 208.873037 232.817761 
L 208.873037 232.820676 
L 214.057992 232.93347 
L 214.057992 232.93899 
L 221.465072 233.052343 
L 221.465072 233.063324 
L 231.834983 233.177409 
L 231.834983 233.178178 
L 247.389851 233.293237 
L 247.389851 233.294606 
L 282.943833 233.413893 
L 282.943833 233.414042 
L 365.903125 233.462417 
L 365.903125 233.462417 
" style="fill:none;stroke:#e24a33;stroke-linecap:square;"/>
   </g>
   <g id="line2d_32">
    <path clip-path="url(#p4151992bf5)" d="M 31.103125 233.007062 
L 34.065957 230.775062 
L 36.288081 224.079062 
L 36.288081 221.847062 
L 37.769497 217.383062 
L 37.769497 215.151062 
L 38.510205 212.919062 
L 38.510205 210.687062 
L 39.250913 208.455062 
L 39.250913 206.223062 
L 39.991621 203.991062 
L 41.473037 201.759062 
L 41.473037 188.367063 
L 42.954452 186.135063 
L 43.69516 183.903062 
L 43.69516 179.439062 
L 44.435868 177.207063 
L 44.435868 174.975062 
L 45.176576 172.743062 
L 45.176576 163.815063 
L 46.657992 161.583062 
L 46.657992 154.887063 
L 48.139408 150.423062 
L 48.139408 148.191062 
L 48.880116 145.959062 
L 48.880116 143.727062 
L 49.620824 141.495063 
L 49.620824 134.799062 
L 51.842948 128.103062 
L 51.842948 123.639062 
L 52.583656 121.407062 
L 52.583656 116.943062 
L 54.065072 114.711062 
L 54.065072 105.783062 
L 54.80578 103.551063 
L 54.80578 99.087063 
L 55.546488 96.855063 
L 55.546488 94.623063 
L 56.287196 92.391063 
L 56.287196 87.927062 
L 57.027904 85.695062 
L 57.027904 83.463062 
L 58.50932 81.231063 
L 58.50932 78.999063 
L 59.250028 76.767063 
L 59.250028 70.071063 
L 62.21286 67.839063 
L 62.953567 65.607062 
L 64.434983 63.375062 
L 65.916399 58.911062 
L 68.879231 54.447062 
L 71.101355 52.215063 
L 71.101355 49.983063 
L 71.842063 47.751063 
L 79.249143 45.519062 
L 80.730559 43.287062 
L 84.434098 41.055062 
L 91.10047 38.823062 
L 91.841178 36.591062 
L 94.063302 34.359062 
L 99.988966 32.127062 
L 105.173921 29.895062 
L 105.173921 27.663062 
L 105.914629 25.431063 
L 114.062417 23.199062 
L 117.025249 18.735062 
L 131.0987 16.503062 
L 140.727904 16.503062 
L 140.727904 16.503062 
L 140.727904 14.271062 
L 251.834098 14.271062 
L 251.834098 14.271062 
L 251.834098 12.039062 
L 251.834098 12.039062 
L 365.903125 12.039062 
L 365.903125 12.039062 
" style="fill:none;stroke:#348abd;stroke-linecap:square;"/>
   </g>
   <g id="line2d_33">
    <path clip-path="url(#p4151992bf5)" d="M 31.103125 230.819261 
L 34.065957 226.486121 
L 36.288081 213.98192 
L 36.288081 209.971138 
L 37.769497 202.172396 
L 37.769497 198.380347 
L 38.510205 194.657244 
L 38.510205 191.001225 
L 39.250913 187.410491 
L 39.250913 183.88331 
L 39.991621 180.41801 
L 41.473037 177.012976 
L 41.473037 157.764682 
L 42.954452 154.740702 
L 43.69516 151.765892 
L 43.69516 145.959062 
L 44.435868 143.124777 
L 44.435868 140.335125 
L 45.176576 137.589062 
L 45.176576 127.020881 
L 46.657992 124.47816 
L 46.657992 117.074357 
L 48.139408 112.317323 
L 48.139408 109.990142 
L 48.880116 107.696205 
L 48.880116 105.434807 
L 49.620824 103.20526 
L 49.620824 96.701131 
L 51.842948 90.460684 
L 51.842948 86.439063 
L 52.583656 84.468202 
L 52.583656 80.603768 
L 54.065072 78.709192 
L 54.065072 71.370708 
L 54.80578 69.593779 
L 54.80578 66.106143 
L 55.546488 64.394618 
L 55.546488 62.704093 
L 56.287196 61.034184 
L 56.287196 57.754725 
L 57.027904 56.144452 
L 57.027904 54.553348 
L 58.50932 52.981074 
L 58.50932 51.427298 
L 59.250028 49.891694 
L 59.250028 45.390787 
L 62.21286 43.924777 
L 62.953567 42.475426 
L 64.434983 41.042452 
L 65.916399 38.224537 
L 68.879231 35.468897 
L 71.101355 34.113788 
L 71.101355 32.773489 
L 71.842063 31.447758 
L 79.249143 30.13636 
L 80.730559 28.839062 
L 84.434098 27.55564 
L 91.10047 26.285871 
L 91.841178 25.029539 
L 94.063302 23.786431 
L 99.988966 22.55634 
L 105.173921 21.339062 
L 105.173921 20.134399 
L 105.914629 18.942155 
L 114.062417 17.762139 
L 117.025249 15.438047 
L 131.0987 14.293608 
L 137.024364 15.403887 
L 140.727904 16.503062 
L 140.727904 17.591301 
L 140.727904 17.591301 
L 140.727904 17.591301 
L 140.727904 16.458864 
L 142.20932 17.536599 
L 142.950028 18.603768 
L 142.950028 20.707024 
L 143.690736 21.74341 
L 143.690736 23.786431 
L 144.431444 24.793348 
L 144.431444 25.790721 
L 145.172152 26.778685 
L 145.172152 29.687435 
L 145.91286 30.639062 
L 145.91286 35.268022 
L 146.653567 36.168792 
L 146.653567 41.407484 
L 147.394275 42.25391 
L 147.394275 44.749407 
L 148.134983 45.566959 
L 148.134983 47.18119 
L 148.875691 47.978046 
L 148.875691 49.551668 
L 149.616399 50.328602 
L 149.616399 56.317605 
L 150.357107 57.039062 
L 150.357107 63.279529 
L 151.097815 63.946039 
L 151.097815 73.948552 
L 151.838523 74.535063 
L 151.838523 81.789062 
L 152.579231 82.320031 
L 152.579231 91.285968 
L 153.319939 91.753348 
L 153.319939 103.710491 
L 154.060647 104.100784 
L 154.060647 113.828073 
L 154.801355 114.160706 
L 154.801355 123.639062 
L 155.542063 123.920171 
L 155.542063 132.463249 
L 156.282771 132.701708 
L 156.282771 141.806504 
L 157.023479 142.003619 
L 157.023479 148.923437 
L 157.764187 149.091694 
L 157.764187 154.446375 
L 158.504895 154.593807 
L 158.504895 160.207484 
L 159.245603 160.334656 
L 159.245603 166.827917 
L 159.986311 167.039062 
L 159.986311 173.944194 
L 160.727019 174.113751 
L 160.727019 178.361842 
L 161.467727 178.507869 
L 161.467727 183.246592 
L 162.208435 183.36864 
L 162.208435 187.15027 
L 162.949143 187.306741 
L 162.949143 191.869484 
L 163.689851 191.996792 
L 163.689851 195.567967 
L 164.430559 195.709903 
L 164.430559 198.25697 
L 165.171267 198.380347 
L 165.171267 201.348265 
L 165.911975 201.477718 
L 165.911975 203.896084 
L 166.652683 204.028893 
L 166.652683 206.183441 
L 167.39339 206.297609 
L 167.39339 207.874604 
L 168.134098 207.9927 
L 168.134098 209.898696 
L 168.874806 210.014405 
L 168.874806 211.731828 
L 169.615514 211.843827 
L 169.615514 213.241253 
L 170.356222 213.361043 
L 170.356222 214.80744 
L 171.09693 214.920166 
L 171.09693 216.231062 
L 171.837638 216.344834 
L 171.837638 217.504873 
L 172.578346 217.61801 
L 172.578346 218.599906 
L 173.319054 218.711912 
L 173.319054 219.617429 
L 174.059762 219.732536 
L 174.059762 220.547041 
L 174.80047 220.658528 
L 174.80047 221.204893 
L 175.541178 221.319818 
L 175.541178 221.891554 
L 176.281886 222.003483 
L 176.281886 222.539752 
L 177.022594 222.651879 
L 177.022594 223.084607 
L 177.763302 223.19721 
L 177.763302 223.654895 
L 178.50401 223.766165 
L 178.50401 224.162972 
L 179.244718 224.275629 
L 179.244718 224.623257 
L 179.985426 224.736781 
L 179.985426 225.091278 
L 180.726134 225.204185 
L 180.726134 225.470362 
L 181.466842 225.58348 
L 181.466842 225.8121 
L 182.20755 225.92338 
L 182.20755 226.119459 
L 182.948258 226.230991 
L 182.948258 226.428536 
L 183.688966 226.541247 
L 183.688966 226.681045 
L 184.429674 226.792274 
L 184.429674 226.95069 
L 185.170382 227.062633 
L 185.170382 227.167172 
L 185.91109 227.27912 
L 185.91109 227.417186 
L 186.651798 227.529083 
L 186.651798 227.64566 
L 187.392506 227.757498 
L 187.392506 227.827759 
L 188.133213 227.939162 
L 188.133213 228.009617 
L 188.873921 228.121395 
L 188.873921 228.170348 
L 189.614629 228.281632 
L 189.614629 228.345661 
L 190.355337 228.457783 
L 190.355337 228.485762 
L 191.096045 228.597403 
L 191.096045 228.652833 
L 191.836753 228.764758 
L 191.836753 228.772337 
L 192.577461 228.883929 
L 192.577461 228.897607 
L 193.318169 229.009347 
L 193.318169 229.023366 
L 194.058877 229.134974 
L 194.058877 229.13666 
L 195.540293 229.249147 
L 195.540293 229.324501 
L 197.021709 229.437093 
L 197.021709 229.528557 
L 198.503125 229.640684 
L 198.503125 229.693373 
L 199.984541 229.805868 
L 199.984541 229.839062 
L 201.465957 229.951482 
L 201.465957 229.965363 
L 203.688081 230.078068 
L 203.688081 230.134107 
L 205.910205 230.246564 
L 205.910205 230.279619 
L 208.132329 230.39221 
L 208.132329 230.423896 
L 211.09516 230.536615 
L 211.09516 230.567928 
L 214.057992 230.680672 
L 214.057992 230.686307 
L 217.761532 230.799725 
L 217.761532 230.815279 
L 221.465072 230.928333 
L 221.465072 230.930014 
L 226.650028 231.043733 
L 226.650028 231.056439 
L 233.316399 231.170794 
L 233.316399 231.179017 
L 240.723479 231.293558 
L 240.723479 231.298483 
L 249.611975 231.41377 
L 249.611975 231.414432 
L 267.388966 231.533268 
L 267.388966 231.535113 
L 296.276576 231.658122 
L 296.276576 231.65841 
L 365.903125 231.713832 
L 365.903125 231.713832 
" style="fill:none;stroke:#988ed5;stroke-linecap:square;"/>
   </g>
   <g id="patch_3">
    <path d="M 31.103125 12.039062 
L 365.903125 12.039062 
" style="fill:none;stroke:#ffffff;stroke-linecap:square;stroke-linejoin:miter;"/>
   </g>
   <g id="patch_4">
    <path d="M 365.903125 235.239062 
L 365.903125 12.039062 
" style="fill:none;stroke:#ffffff;stroke-linecap:square;stroke-linejoin:miter;"/>
   </g>
   <g id="patch_5">
    <path d="M 31.103125 235.239062 
L 365.903125 235.239062 
" style="fill:none;stroke:#ffffff;stroke-linecap:square;stroke-linejoin:miter;"/>
   </g>
   <g id="patch_6">
    <path d="M 31.103125 235.239062 
L 31.103125 12.039062 
" style="fill:none;stroke:#ffffff;stroke-linecap:square;stroke-linejoin:miter;"/>
   </g>
   <g id="legend_1">
    <g id="patch_7">
     <path d="M 262.3075 74.480312 
L 359.903125 74.480312 
L 359.903125 18.039062 
L 262.3075 18.039062 
z
" style="fill:#e5e5e5;stroke:#ffffff;stroke-linejoin:miter;stroke-width:0.5;"/>
    </g>
    <g id="line2d_34">
     <path d="M 270.7075 27.757187 
L 287.5075 27.757187 
" style="fill:none;stroke:#e24a33;stroke-linecap:square;"/>
    </g>
    <g id="line2d_35"/>
    <g id="text_12">
     <!-- precision -->
     <defs>
      <path d="M 54.890625 33.015625 
L 54.890625 0 
L 45.90625 0 
L 45.90625 32.71875 
Q 45.90625 40.484375 42.875 44.328125 
Q 39.84375 48.1875 33.796875 48.1875 
Q 26.515625 48.1875 22.3125 43.546875 
Q 18.109375 38.921875 18.109375 30.90625 
L 18.109375 0 
L 9.078125 0 
L 9.078125 54.6875 
L 18.109375 54.6875 
L 18.109375 46.1875 
Q 21.34375 51.125 25.703125 53.5625 
Q 30.078125 56 35.796875 56 
Q 45.21875 56 50.046875 50.171875 
Q 54.890625 44.34375 54.890625 33.015625 
" id="BitstreamVeraSans-Roman-6e"/>
      <path d="M 30.609375 48.390625 
Q 23.390625 48.390625 19.1875 42.75 
Q 14.984375 37.109375 14.984375 27.296875 
Q 14.984375 17.484375 19.15625 11.84375 
Q 23.34375 6.203125 30.609375 6.203125 
Q 37.796875 6.203125 41.984375 11.859375 
Q 46.1875 17.53125 46.1875 27.296875 
Q 46.1875 37.015625 41.984375 42.703125 
Q 37.796875 48.390625 30.609375 48.390625 
M 30.609375 56 
Q 42.328125 56 49.015625 48.375 
Q 55.71875 40.765625 55.71875 27.296875 
Q 55.71875 13.875 49.015625 6.21875 
Q 42.328125 -1.421875 30.609375 -1.421875 
Q 18.84375 -1.421875 12.171875 6.21875 
Q 5.515625 13.875 5.515625 27.296875 
Q 5.515625 40.765625 12.171875 48.375 
Q 18.84375 56 30.609375 56 
" id="BitstreamVeraSans-Roman-6f"/>
      <path d="M 9.421875 54.6875 
L 18.40625 54.6875 
L 18.40625 0 
L 9.421875 0 
z
M 9.421875 75.984375 
L 18.40625 75.984375 
L 18.40625 64.59375 
L 9.421875 64.59375 
z
" id="BitstreamVeraSans-Roman-69"/>
      <path d="M 18.109375 8.203125 
L 18.109375 -20.796875 
L 9.078125 -20.796875 
L 9.078125 54.6875 
L 18.109375 54.6875 
L 18.109375 46.390625 
Q 20.953125 51.265625 25.265625 53.625 
Q 29.59375 56 35.59375 56 
Q 45.5625 56 51.78125 48.09375 
Q 58.015625 40.1875 58.015625 27.296875 
Q 58.015625 14.40625 51.78125 6.484375 
Q 45.5625 -1.421875 35.59375 -1.421875 
Q 29.59375 -1.421875 25.265625 0.953125 
Q 20.953125 3.328125 18.109375 8.203125 
M 48.6875 27.296875 
Q 48.6875 37.203125 44.609375 42.84375 
Q 40.53125 48.484375 33.40625 48.484375 
Q 26.265625 48.484375 22.1875 42.84375 
Q 18.109375 37.203125 18.109375 27.296875 
Q 18.109375 17.390625 22.1875 11.75 
Q 26.265625 6.109375 33.40625 6.109375 
Q 40.53125 6.109375 44.609375 11.75 
Q 48.6875 17.390625 48.6875 27.296875 
" id="BitstreamVeraSans-Roman-70"/>
      <path d="M 56.203125 29.59375 
L 56.203125 25.203125 
L 14.890625 25.203125 
Q 15.484375 15.921875 20.484375 11.0625 
Q 25.484375 6.203125 34.421875 6.203125 
Q 39.59375 6.203125 44.453125 7.46875 
Q 49.3125 8.734375 54.109375 11.28125 
L 54.109375 2.78125 
Q 49.265625 0.734375 44.1875 -0.34375 
Q 39.109375 -1.421875 33.890625 -1.421875 
Q 20.796875 -1.421875 13.15625 6.1875 
Q 5.515625 13.8125 5.515625 26.8125 
Q 5.515625 40.234375 12.765625 48.109375 
Q 20.015625 56 32.328125 56 
Q 43.359375 56 49.78125 48.890625 
Q 56.203125 41.796875 56.203125 29.59375 
M 47.21875 32.234375 
Q 47.125 39.59375 43.09375 43.984375 
Q 39.0625 48.390625 32.421875 48.390625 
Q 24.90625 48.390625 20.390625 44.140625 
Q 15.875 39.890625 15.1875 32.171875 
z
" id="BitstreamVeraSans-Roman-65"/>
      <path d="M 41.109375 46.296875 
Q 39.59375 47.171875 37.8125 47.578125 
Q 36.03125 48 33.890625 48 
Q 26.265625 48 22.1875 43.046875 
Q 18.109375 38.09375 18.109375 28.8125 
L 18.109375 0 
L 9.078125 0 
L 9.078125 54.6875 
L 18.109375 54.6875 
L 18.109375 46.1875 
Q 20.953125 51.171875 25.484375 53.578125 
Q 30.03125 56 36.53125 56 
Q 37.453125 56 38.578125 55.875 
Q 39.703125 55.765625 41.0625 55.515625 
z
" id="BitstreamVeraSans-Roman-72"/>
      <path d="M 44.28125 53.078125 
L 44.28125 44.578125 
Q 40.484375 46.53125 36.375 47.5 
Q 32.28125 48.484375 27.875 48.484375 
Q 21.1875 48.484375 17.84375 46.4375 
Q 14.5 44.390625 14.5 40.28125 
Q 14.5 37.15625 16.890625 35.375 
Q 19.28125 33.59375 26.515625 31.984375 
L 29.59375 31.296875 
Q 39.15625 29.25 43.1875 25.515625 
Q 47.21875 21.78125 47.21875 15.09375 
Q 47.21875 7.46875 41.1875 3.015625 
Q 35.15625 -1.421875 24.609375 -1.421875 
Q 20.21875 -1.421875 15.453125 -0.5625 
Q 10.6875 0.296875 5.421875 2 
L 5.421875 11.28125 
Q 10.40625 8.6875 15.234375 7.390625 
Q 20.0625 6.109375 24.8125 6.109375 
Q 31.15625 6.109375 34.5625 8.28125 
Q 37.984375 10.453125 37.984375 14.40625 
Q 37.984375 18.0625 35.515625 20.015625 
Q 33.0625 21.96875 24.703125 23.78125 
L 21.578125 24.515625 
Q 13.234375 26.265625 9.515625 29.90625 
Q 5.8125 33.546875 5.8125 39.890625 
Q 5.8125 47.609375 11.28125 51.796875 
Q 16.75 56 26.8125 56 
Q 31.78125 56 36.171875 55.265625 
Q 40.578125 54.546875 44.28125 53.078125 
" id="BitstreamVeraSans-Roman-73"/>
      <path d="M 48.78125 52.59375 
L 48.78125 44.1875 
Q 44.96875 46.296875 41.140625 47.34375 
Q 37.3125 48.390625 33.40625 48.390625 
Q 24.65625 48.390625 19.8125 42.84375 
Q 14.984375 37.3125 14.984375 27.296875 
Q 14.984375 17.28125 19.8125 11.734375 
Q 24.65625 6.203125 33.40625 6.203125 
Q 37.3125 6.203125 41.140625 7.25 
Q 44.96875 8.296875 48.78125 10.40625 
L 48.78125 2.09375 
Q 45.015625 0.34375 40.984375 -0.53125 
Q 36.96875 -1.421875 32.421875 -1.421875 
Q 20.0625 -1.421875 12.78125 6.34375 
Q 5.515625 14.109375 5.515625 27.296875 
Q 5.515625 40.671875 12.859375 48.328125 
Q 20.21875 56 33.015625 56 
Q 37.15625 56 41.109375 55.140625 
Q 45.0625 54.296875 48.78125 52.59375 
" id="BitstreamVeraSans-Roman-63"/>
     </defs>
     <g transform="translate(300.7075 31.9571875)scale(0.12 -0.12)">
      <use xlink:href="#BitstreamVeraSans-Roman-70"/>
      <use x="63.4765625" xlink:href="#BitstreamVeraSans-Roman-72"/>
      <use x="104.55859375" xlink:href="#BitstreamVeraSans-Roman-65"/>
      <use x="166.08203125" xlink:href="#BitstreamVeraSans-Roman-63"/>
      <use x="221.0625" xlink:href="#BitstreamVeraSans-Roman-69"/>
      <use x="248.845703125" xlink:href="#BitstreamVeraSans-Roman-73"/>
      <use x="300.9453125" xlink:href="#BitstreamVeraSans-Roman-69"/>
      <use x="328.728515625" xlink:href="#BitstreamVeraSans-Roman-6f"/>
      <use x="389.91015625" xlink:href="#BitstreamVeraSans-Roman-6e"/>
     </g>
    </g>
    <g id="line2d_36">
     <path d="M 270.7075 45.370937 
L 287.5075 45.370937 
" style="fill:none;stroke:#348abd;stroke-linecap:square;"/>
    </g>
    <g id="line2d_37"/>
    <g id="text_13">
     <!-- recall -->
     <defs>
      <path d="M 34.28125 27.484375 
Q 23.390625 27.484375 19.1875 25 
Q 14.984375 22.515625 14.984375 16.5 
Q 14.984375 11.71875 18.140625 8.90625 
Q 21.296875 6.109375 26.703125 6.109375 
Q 34.1875 6.109375 38.703125 11.40625 
Q 43.21875 16.703125 43.21875 25.484375 
L 43.21875 27.484375 
z
M 52.203125 31.203125 
L 52.203125 0 
L 43.21875 0 
L 43.21875 8.296875 
Q 40.140625 3.328125 35.546875 0.953125 
Q 30.953125 -1.421875 24.3125 -1.421875 
Q 15.921875 -1.421875 10.953125 3.296875 
Q 6 8.015625 6 15.921875 
Q 6 25.140625 12.171875 29.828125 
Q 18.359375 34.515625 30.609375 34.515625 
L 43.21875 34.515625 
L 43.21875 35.40625 
Q 43.21875 41.609375 39.140625 45 
Q 35.0625 48.390625 27.6875 48.390625 
Q 23 48.390625 18.546875 47.265625 
Q 14.109375 46.140625 10.015625 43.890625 
L 10.015625 52.203125 
Q 14.9375 54.109375 19.578125 55.046875 
Q 24.21875 56 28.609375 56 
Q 40.484375 56 46.34375 49.84375 
Q 52.203125 43.703125 52.203125 31.203125 
" id="BitstreamVeraSans-Roman-61"/>
      <path d="M 9.421875 75.984375 
L 18.40625 75.984375 
L 18.40625 0 
L 9.421875 0 
z
" id="BitstreamVeraSans-Roman-6c"/>
     </defs>
     <g transform="translate(300.7075 49.5709375)scale(0.12 -0.12)">
      <use xlink:href="#BitstreamVeraSans-Roman-72"/>
      <use x="41.08203125" xlink:href="#BitstreamVeraSans-Roman-65"/>
      <use x="102.60546875" xlink:href="#BitstreamVeraSans-Roman-63"/>
      <use x="157.5859375" xlink:href="#BitstreamVeraSans-Roman-61"/>
      <use x="218.865234375" xlink:href="#BitstreamVeraSans-Roman-6c"/>
      <use x="246.6484375" xlink:href="#BitstreamVeraSans-Roman-6c"/>
     </g>
    </g>
    <g id="line2d_38">
     <path d="M 270.7075 62.984687 
L 287.5075 62.984687 
" style="fill:none;stroke:#988ed5;stroke-linecap:square;"/>
    </g>
    <g id="line2d_39"/>
    <g id="text_14">
     <!-- f1 -->
     <defs>
      <path d="M 37.109375 75.984375 
L 37.109375 68.5 
L 28.515625 68.5 
Q 23.6875 68.5 21.796875 66.546875 
Q 19.921875 64.59375 19.921875 59.515625 
L 19.921875 54.6875 
L 34.71875 54.6875 
L 34.71875 47.703125 
L 19.921875 47.703125 
L 19.921875 0 
L 10.890625 0 
L 10.890625 47.703125 
L 2.296875 47.703125 
L 2.296875 54.6875 
L 10.890625 54.6875 
L 10.890625 58.5 
Q 10.890625 67.625 15.140625 71.796875 
Q 19.390625 75.984375 28.609375 75.984375 
z
" id="BitstreamVeraSans-Roman-66"/>
     </defs>
     <g transform="translate(300.7075 67.1846875)scale(0.12 -0.12)">
      <use xlink:href="#BitstreamVeraSans-Roman-66"/>
      <use x="35.205078125" xlink:href="#BitstreamVeraSans-Roman-31"/>
     </g>
    </g>
   </g>
  </g>
 </g>
 <defs>
  <clipPath id="p4151992bf5">
   <rect height="223.2" width="334.8" x="31.103125" y="12.0390625"/>
  </clipPath>
 </defs>
</svg>
